<svg xmlns="http://www.w3.org/2000/svg" viewBox="0 0 204.21 16"><title>Logotipo_1</title><g id="Layer_2" data-name="Layer 2"><g id="Layer_1-2" data-name="Layer 1"><path d="M0,15.67V.33H8.3l1.9,4.48a37.09,37.09,0,0,1,1.69,4.68h.24a39.89,39.89,0,0,1,1.68-4.68L15.68.33h8.25V15.67H17.3V11.36c0-.86,0-1.73.14-3l-.22,0-2.7,7.37H9.41L6.73,8.3l-.24,0c.1,1.29.14,2.16.14,3v4.31Z"/><path d="M25.53,10.16V.33h6.85V9.59c0,1.59.73,2.25,2.24,2.25s2.13-.66,2.13-2.25V.33H43.6v9.83c0,4.16-2.92,5.84-9,5.84S25.53,14.32,25.53,10.16Z"/><path d="M45,10.9l6.83-.4c0,1.2.93,1.66,2.49,1.66,1.25,0,1.83-.23,1.83-.8s-.5-.78-3.21-1.24L50.2,9.66C47.5,9.2,45.14,7.88,45.14,5c0-3.33,3.39-5,8.7-5,5.57,0,8.74,2.08,8.6,5.06l-6.15.47c-.1-1.06-.79-1.69-2.6-1.69-1.34,0-2,.32-2,.83s.17.67,2.88,1.1l2.72.44c2.71.44,5.62,1.14,5.62,4.42,0,3.45-3.53,5.37-9.11,5.37C48.41,16,44.89,14.18,45,10.9Z"/><path d="M64.35,15.67V.33h6.84V15.67Z"/><path d="M72.63,8V8c0-5.38,3.22-8,9.89-8,6.2,0,9.36,2.15,9.7,6.59l-7.06.64c-.11-2-1-3-2.64-3-1.91,0-2.82,1.18-2.82,3.6v.27c0,2.42.91,3.58,2.82,3.58,1.59,0,2.44-1,2.61-2.93l7.07.72c-.42,4.4-3.57,6.5-9.68,6.5C75.85,16,72.63,13.41,72.63,8Z"/><path d="M94.78.23h4.31c3.08,0,4.76,1.4,4.76,3.91v0c0,2-1.21,3.18-3.39,3.41v.17c1.15.36,1.66,1,2.23,2.8l.58,1.83c.57,1.84,1,2.55,1.66,3l0,.23h-2a11.18,11.18,0,0,1-1.25-3.25l-.5-1.79c-.52-1.79-1.07-2.35-2.64-2.35H96.37v7.38H94.78V.23ZM98.88,7c2.26,0,3.34-.89,3.34-2.76v0c0-1.85-1.08-2.75-3.34-2.75H96.37V7Z"/><path d="M115.06,14.34v1.24h-8.28V.23h8.06V1.46h-6.47V6.8h5.92V8h-5.92v6.37Z"/><path d="M116.33.23H118l2.77,9.37c.41,1.41.68,2.45,1,4H122a40.36,40.36,0,0,1,1-4L125.75.24h1.63l-4.69,15.34H121Z"/><path d="M128.3,7.94V7.89c0-5.14,2-7.89,5.8-7.89s5.8,2.75,5.8,7.89v.05c0,5.13-2.06,7.87-5.8,7.87S128.3,13.07,128.3,7.94Zm9.95.15V7.75c0-4.47-1.36-6.57-4.16-6.57S130,3.28,130,7.75v.34c0,4.44,1.34,6.54,4.15,6.54S138.25,12.53,138.25,8.09Z"/><path d="M142.66.23h1.59V14.34h6.24v1.24h-7.83Z"/><path d="M162,.23v10.9c0,3.13-1.65,4.68-5,4.68s-5-1.55-5-4.68V.23h1.59V11c0,2.48,1.1,3.66,3.38,3.66s3.36-1.18,3.36-3.66V.23Z"/><path d="M168.09,1.46H163.9V.23h10V1.46h-4.19V15.58h-1.59V1.46Z"/><path d="M177.41.23V15.58h-1.59V.23Z"/><path d="M180.19,7.94V7.89c0-5.14,2.05-7.89,5.8-7.89s5.8,2.75,5.8,7.89v.05c0,5.13-2.06,7.87-5.8,7.87S180.19,13.07,180.19,7.94Zm9.95.15V7.75c0-4.47-1.36-6.57-4.16-6.57s-4.14,2.1-4.14,6.57v.34c0,4.44,1.34,6.54,4.15,6.54S190.14,12.53,190.14,8.09Z"/><path d="M194.55.23h2l5.27,11.14a14.8,14.8,0,0,1,.88,2.32l.24,0a26.13,26.13,0,0,1-.22-3.26V.23h1.53V15.58h-2l-5.12-11a22.43,22.43,0,0,1-1-2.52l-.24,0a24,24,0,0,1,.19,3.16V15.58h-1.52Z"/></g></g></svg>