<?xml version="1.0" encoding="utf-8"?>
<!-- Generator: Adobe Illustrator 24.0.1, SVG Export Plug-In . SVG Version: 6.00 Build 0)  -->
<svg version="1.1" id="Layer_1"
  xmlns="http://www.w3.org/2000/svg"
  xmlns:xlink="http://www.w3.org/1999/xlink" x="0px" y="0px" viewBox="0 0 997 309" style="enable-background:new 0 0 997 309;" xml:space="preserve">
  <style type="text/css">
	.st0{fill:#001529;}
  </style>
  <g>
    <path class="st0" d="M27.6,184.2c4.8,0,8.9-1.7,12.3-5.1s5.2-7.6,5.2-12.4s-1.7-9-5.2-12.4s-7.5-5.1-12.3-5.1
		c-4.9,0-9,1.7-12.5,5.1s-5.2,7.6-5.2,12.4s1.7,9,5.2,12.4C18.5,182.5,22.7,184.2,27.6,184.2z"/>
    <path class="st0" d="M43.5,287.3v-86.1H0v5.4c4.6,0.8,7.6,2.1,9.2,3.7c1.5,1.7,2.3,4.8,2.3,9.4v66.6c0,5.2-1.1,8.7-3.3,10.7
		c-1.5,1.3-4.2,2.3-8.2,3v5.4h54v-5.4c-4.1-0.8-6.8-1.9-8.3-3.3C44.2,295.4,43.5,292.3,43.5,287.3z"/>
    <path class="st0" d="M166.6,287.3v-54.8c0-12.6-2.7-21.4-8-26.4s-12.9-7.5-22.6-7.5c-6.8,0-13,1.8-18.5,5.4
		c-5.6,3.6-10.2,8.1-13.8,13.6v-16.3H60.7v5.4c4.9,0.6,8.1,1.8,9.7,3.6c1.6,1.8,2.4,5,2.4,9.6v66.6c0,5.2-1,8.6-2.9,10.4
		c-2,1.7-5,2.9-9.1,3.4v5.4h54.5v-5.4c-4.1-0.8-6.8-1.9-8.3-3.3s-2.2-4.6-2.2-9.5v-60.6c1.8-2.9,4.3-5.7,7.6-8.6s6.9-4.3,10.8-4.3
		c5.2,0,8.7,2.3,10.5,7c1,2.6,1.6,6.5,1.6,11.6v54.9c0,4.9-0.7,8.1-2.2,9.5c-1.5,1.4-4.2,2.5-8.3,3.3v5.4h53.2v-5.4
		c-4.1-0.5-6.9-1.5-8.7-3C167.5,295.7,166.6,292.4,166.6,287.3z"/>
    <path class="st0" d="M290.5,287.3v-54.8c0-12.6-2.7-21.4-8-26.4c-5.4-5-12.9-7.5-22.6-7.5c-6.8,0-13,1.8-18.5,5.4
		c-5.6,3.6-10.2,8.1-13.8,13.6v-16.3h-42.9v5.4c4.9,0.6,8.1,1.8,9.7,3.6c1.6,1.8,2.4,5,2.4,9.6v66.6c0,5.2-1,8.6-2.9,10.4
		c-2,1.7-5,2.9-9.1,3.4v5.4h54.5v-5.4c-4.1-0.8-6.8-1.9-8.3-3.3c-1.5-1.4-2.2-4.6-2.2-9.5v-60.6c1.8-2.9,4.3-5.7,7.6-8.6
		s6.9-4.3,10.8-4.3c5.2,0,8.7,2.3,10.5,7c1,2.6,1.5,6.5,1.5,11.6v54.9c0,4.9-0.7,8.1-2.2,9.5c-1.5,1.4-4.2,2.5-8.3,3.3v5.4h53.2
		v-5.4c-4.1-0.5-7-1.5-8.7-3C291.3,295.7,290.5,292.4,290.5,287.3z"/>
    <path class="st0" d="M356.5,198.3c-14.7,0-26.9,5.3-36.6,15.8c-9.7,10.6-14.5,23.7-14.5,39.5c0,15.7,4.8,28.9,14.5,39.5
		c9.7,10.6,21.9,15.9,36.6,15.9c15.2,0,27.5-5.4,37-16.3s14.2-23.9,14.2-39c0-15.3-4.8-28.4-14.3-39.2
		C383.7,203.7,371.5,198.3,356.5,198.3z M370.9,290.4c-2.3,7.5-7.1,11.3-14.4,11.3c-7.7,0-12.8-4.9-15.4-14.7
		c-1.6-6.3-2.4-17.5-2.4-33.3c0-15.6,0.9-26.7,2.5-33.3c2.6-9.8,7.7-14.7,15.4-14.7c7,0,11.7,3.8,14.1,11.3s3.6,19.8,3.6,36.7
		C374.3,270.6,373.2,282.9,370.9,290.4z"/>
    <path class="st0" d="M475.6,206.6c4.1,0.1,7.2,0.5,9.3,1.4c2.1,0.9,3.2,2.9,3.2,6c0,1.1-0.2,2.6-0.7,4.5s-1.1,3.8-1.8,5.6
		L469.8,263H469l-17.6-43.5c-0.3-0.7-0.7-1.9-1.3-3.5s-0.8-2.7-0.8-3.3c0-2.4,1-4,3-4.8c2-0.7,5-1.2,9.1-1.3v-5.4h-56.7v5.4
		c3.1,0.3,5.2,1,6.4,2c1.2,1,2.8,3.6,4.9,7.5c2,3.9,3.9,7.9,5.7,12.1s3.7,8.6,5.6,13.3l27.2,67.2h5.8l36.5-89.8
		c1.8-4.5,3.7-7.6,5.6-9.4c1.9-1.7,4.4-2.7,7.4-2.9v-5.4h-34.3L475.6,206.6L475.6,206.6z"/>
    <path class="st0" d="M609.2,293.9c-0.7,0.3-1.5,0.5-2.4,0.5c-1,0-2-0.6-2.8-1.7c-0.8-1.1-1.3-2.5-1.3-4.1v-54.9
		c0-13.4-4.3-22.6-12.8-27.7c-8.6-4.9-19.4-7.4-32.2-7.4c-12,0-22,2.5-30.2,7.6s-12.3,12-12.3,20.6c0,4.9,1.5,8.6,4.6,11.1
		s6.8,3.9,11.1,3.9c3.8,0,7.1-1.2,9.9-3.5c2.8-2.3,4.3-5.6,4.3-9.9c0-1.7-0.3-3.3-0.9-4.8s-1.5-2.9-2.5-4.1l-1.3-1.6
		c-0.6-0.7-1-1.3-1.3-1.9c-0.3-0.6-0.4-1.3-0.4-2.2c0-2.3,1.3-4.2,3.9-5.7s6-2.3,10-2.3c7.2,0,12.3,1.6,15.1,4.8
		c2.8,3.2,4.3,8.2,4.3,14.9v16.5c-21,6.1-36.3,12.1-46.1,18.1c-9.8,6-14.7,14.1-14.7,24.3c0,8.4,2.7,14.5,8.1,18.5
		c5.4,4,11.2,5.9,17.4,5.9c4.7,0,9.4-0.8,14.2-2.4c7.9-2.6,15-7,21.2-13.3c0.8,4.4,2.1,7.6,3.9,9.9c3.1,3.9,8,5.9,14.7,5.9
		c3.8,0,7.3-0.7,10.7-2c5.4-2.1,10.3-5.7,14.7-10.8l-3.4-4.8C611,292.7,609.9,293.6,609.2,293.9z M571.5,283.1
		c-2.4,2.8-4.5,4.9-6.3,6.2c-3.2,2.2-6.6,3.3-10.3,3.3c-2.8,0-5.3-1.3-7.6-3.8c-2.2-2.5-3.4-6.3-3.4-11.3c0-8.4,3.9-15.2,11.6-20.6
		c4.6-3.2,9.9-5.5,15.9-7L571.5,283.1L571.5,283.1z"/>
    <path class="st0" d="M673.8,289.1c-2,2.1-4.5,3.1-7.4,3.1c-3.4,0-5.8-1.7-7.3-5c-1-2.1-1.4-4.8-1.4-8v-68.2h21.6v-10h-21.6v-38.3
		h-5.8c-5.6,8.6-11.8,16.7-18.7,24.2c-3.5,3.8-7.2,7.6-11.1,11.2c-3,2.5-5.4,4.7-7.4,6.5v6.3h11.7v73.5c0,10.1,3.9,17.1,11.5,20.9
		c4,2,8.6,3,13.9,3c9.4,0,17.3-3.4,23.8-10.3c3.7-3.9,6.8-9,9.5-15.2l-5.4-2.7C677.8,284.1,675.8,287,673.8,289.1z"/>
    <path class="st0" d="M763.6,287.3c-4.7,3.3-9.8,5-15.1,5c-11.2,0-19-6.2-23.4-18.7c-2.4-6.6-3.9-14.5-4.4-23.6h57.9
		c0-2.1-0.3-5-0.8-9c-1-8.3-2.9-15.1-5.5-20.4c-3.5-6.9-8.6-12.4-15.2-16.3s-13.6-5.9-21-5.9c-13.1,0-24.2,4.8-33.5,14.4
		s-13.9,23.1-13.9,40.6c0,19.2,4.9,33.3,14.6,42s20.2,13.2,31.3,13.2c7.8,0,14.6-1.4,20.6-4.3c9.2-4.5,17.4-12.5,24.4-24l-5.2-3.2
		C770,282,766.5,285.3,763.6,287.3z M723.8,214.8c2.2-6.1,6.2-9.2,12.2-9.2c5.8,0,9.6,2.7,11.5,8s3,14.6,3.1,28h-30.5
		C720.4,229.9,721.6,221,723.8,214.8z"/>
    <path class="st0" d="M864.4,289.5c-4.2,2.7-9.3,4-15.3,4c-9.5,0-17.1-4.8-22.7-14.4c-5.6-9.6-8.4-21.5-8.4-35.6
		c0-10,1.5-18.8,4.4-26.5c3-7.7,7.9-11.6,14.9-11.6c2.4,0,4.6,0.7,6.5,2.2c1.8,1.5,2.8,4.2,2.8,8.2c0,1.5,0,2.9-0.1,4.1
		s-0.1,2.3-0.1,2.9c0,6.2,2,10.5,6.1,12.8c2.1,1.3,4.7,2,7.5,2c4.3,0,7.8-1.4,10.6-4.3s4.2-6.3,4.2-10.2c0-7.3-3.5-13.3-10.5-17.9
		s-15.2-7-24.7-7c-16.3,0-29.3,5.6-39.1,16.6c-9.8,11.1-14.7,24.6-14.7,40.3c0,15,4.6,27.7,13.8,38.1c9.2,10.4,21.1,15.6,35.6,15.6
		c5.9,0,11.5-1,16.7-3c9.9-3.8,18.5-10.9,25.9-21.1l-4.2-3.9C870,285.1,866.9,288,864.4,289.5z"/>
    <path class="st0" d="M987.2,296.4c-1.7-1.6-2.6-4.9-2.6-10V232c0-12.2-2.8-20.8-8.5-25.8c-5.7-5.1-12.9-7.6-21.6-7.6
		c-6.4,0-12.2,1.5-17.3,4.6s-10,7.4-14.7,13v-63.7h-43.8v5.4c4.8,0.6,8,1.8,9.6,3.6c1.6,1.8,2.4,5,2.4,9.5v115.4
		c0,5.2-1,8.6-2.9,10.4c-2,1.7-5,2.9-9.1,3.4v5.4h54.5v-5.4c-4.1-0.8-6.8-1.9-8.3-3.3s-2.2-4.6-2.2-9.5v-60.6c0-1.3,2.1-3.8,6.2-7.4
		s8.2-5.4,12.1-5.4c5.2,0,8.7,2.3,10.5,7c1,2.6,1.5,6.5,1.5,11.6v54.9c0,4.9-0.7,8.1-2.2,9.5c-1.5,1.4-4.2,2.5-8.3,3.3v5.4h53.2
		v-5.4C991.8,299.3,989,298,987.2,296.4z"/>
    <path class="st0" d="M80.1,167.2c8.8-3.5,17.7-6.8,26.6-10.1c17.8-6.4,35.8-12.3,54-17.5c36.3-10.5,73.4-18.8,111-22.6
		c37.5-3.8,75.7-3.1,112.2,7.1c18.6,4.4,37.5,7.3,56.4,9.2c19,1.9,38,2.6,57.1,2.6c19,0,38.1-0.9,57-2.4c19-1.5,37.9-3.7,56.7-6.4
		s37.6-6,56.2-9.8c9.3-1.9,18.6-4,27.8-6.2c2.3-0.6,4.6-1.2,6.9-1.8c2.3-0.6,4.6-1.3,6.9-1.9c4.5-1.3,9.1-2.6,13.7-3.9
		c18.2-5,36.7-9.3,55.3-12.7c18.6-3.4,37.3-5.8,56.2-7.1c9.4-0.6,18.9-0.9,28.3-0.8c4.7,0.1,9.4,0.2,14.1,0.4
		c4.7,0.2,9.4,0.6,14.1,1.1c18.1,1.8,36.1,5.5,53.2,11.8l-19.4,29.8l2.1,1.4c2-2.4,4.1-4.8,6.1-7.2l6-7.2l6-7.2l6-7.3l4-4.9
		l-6.6-3.3c-4.4-2.2-8.9-4.2-13.5-6c-4.6-1.8-9.2-3.4-13.9-5c-4.7-1.5-9.5-2.8-14.3-3.9c-4.8-1.1-9.6-2.2-14.5-3.1
		c-9.7-1.7-19.5-3-29.3-3.7c-9.8-0.7-19.7-1.1-29.5-1.1c-9.8,0.1-19.6,0.5-29.4,1.2c-2.4,0.2-4.9,0.4-7.3,0.6
		c-2.4,0.2-4.9,0.5-7.3,0.7c-4.9,0.5-9.7,1.1-14.6,1.8c-19.4,2.5-38.6,6.3-57.5,10.7c-4.7,1.1-9.5,2.3-14.1,3.5
		c-2.3,0.6-4.6,1.2-6.6,1.6c-2,0.5-4.3,1-6.5,1.4c-4.5,0.9-9,1.8-13.5,2.7l-13.6,2.5c-9.1,1.6-18.3,3.1-27.4,4.5
		c-4.6,0.7-9.2,1.3-13.8,2c-4.6,0.6-9.2,1.3-13.8,1.9c-18.4,2.4-36.8,4.1-55.2,5.6c-18.4,1.4-36.8,2.1-55.1,2.3
		c-18.3,0.1-36.6-0.6-54.6-2c-9-0.7-18-1.7-26.9-3s-17.7-2.7-26.4-4.6l-6.6-1.5c-2.6-0.6-5.1-1.2-7.7-1.6c-5.1-1-10.2-1.9-15.3-2.5
		c-10.2-1.3-20.4-2-30.5-2.2c-5.1-0.1-10.1-0.1-15.1,0c-2.5,0.1-5,0.2-7.5,0.3c-2.5,0.1-5,0.3-7.5,0.5c-9.9,0.7-19.8,1.8-29.5,3.2
		c-19.5,2.9-38.7,6.9-57.4,12c-9.4,2.5-18.7,5.2-27.9,8.2c-9.2,3-18.4,6-27.4,9.4c-18.1,6.7-35.8,14.1-53.2,22.3
		c-17.4,8.1-34.4,17-50.8,26.9l1.1,2.3C62.5,174.3,71.3,170.7,80.1,167.2z"/>
    <path class="st0" d="M434.5,57.6c11.5-4.9,23-9.8,34.6-14.2c11.6-4.4,23.4-8.7,35.3-11.8c3-0.8,6-1.5,9-2c1.5-0.3,3-0.5,4.5-0.7
		c1.5-0.2,3.1-0.3,4.6-0.5c6.2-0.6,12.4-1,18.6-1.3c12.5-0.7,24.9-1.1,37.4-1.3c25-0.4,49.9-0.1,74.9,0.8c0.5,0,1.1,0,1.6,0.1
		c2.2,1.8,4.4,3.8,6.6,5.9c4.6,4.5,9.1,9.4,13.5,14.4c4.4,5,8.6,10.2,12.6,15.6c2,2.7,4,5.4,5.8,8.2c1.8,2.8,3.7,5.6,4.9,8.8
		c-0.1-1.7-0.5-3.4-0.8-5.1c-0.4-1.7-0.9-3.3-1.4-5c-1-3.3-2.1-6.5-3.3-9.8c-2.4-6.4-5-12.8-7.8-19.1c-1.9-4.3-4-8.6-6.2-12.8
		c41.3,2.1,82.5,6,123.4,12.3c24.7,3.8,49.2,8.5,73.4,14.4c24.3,5.8,48.3,12.7,71.7,21.3l0.9-2.4c-5.4-3.4-11-6.4-16.6-9.5
		c-5.7-2.9-11.4-5.8-17.2-8.5l-4.3-2l-4.4-1.9c-2.9-1.3-5.9-2.5-8.8-3.7c-5.9-2.4-11.9-4.7-17.9-6.9c-24-8.7-48.7-15.6-73.5-21.2
		C780.8,14,755.6,10,730.4,6.9c-6.3-0.7-12.7-1.4-19-2c-6.3-0.6-12.7-1.2-19-1.7c-6.3-0.5-12.7-0.8-19-1.2c-6.3-0.3-12.7-0.7-19-0.8
		c-6.3-0.2-12.7-0.3-19-0.4c-3.2,0-6.3-0.1-9.5-0.1l-9.5,0.1c-6.3,0.1-12.7,0.2-19.1,0.4c-3.2,0.1-6.3,0.2-9.5,0.4L578.1,2
		c-6.3,0.4-12.7,0.7-19.1,1.2S546.3,4.3,539.9,5c-6.4,0.7-12.8,1.5-19.4,2.5c-1.7,0.3-3.3,0.5-5.1,0.8l-2.9,0.5
		c-0.9,0.2-1.9,0.4-2.8,0.6c-3.7,0.8-7,1.8-10.3,3c-6.5,2.2-12.7,4.6-18.7,7.1c-6,2.5-11.9,5.3-17.6,8.1c-2.9,1.4-5.8,2.8-8.6,4.2
		c-2.8,1.5-5.7,2.9-8.5,4.4l-8.4,4.5c-2.8,1.5-5.5,3.1-8.3,4.7c-5.5,3.1-11,6.3-16.4,9.6l-8.1,4.9l-8,5.1
		C386,71.9,375.5,79,365.3,86.6l1.1,2.3C388.9,77.9,411.6,67.4,434.5,57.6z"/>
  </g>
</svg>
