<svg width="192" height="162" viewBox="0 0 192 162" fill="none"
    xmlns="http://www.w3.org/2000/svg">
    <path d="M99.8443 0H92.1676C69.1257 102.557 0 79.7666 0 79.7666V91.1618C23.7105 97.0267 49.4506 87.8054 68.8631 77.4733C39.613 115.625 0 102.557 0 102.557V113.952C23.7105 119.817 49.4506 110.596 68.8631 100.264C39.613 138.415 0 125.348 0 125.348V136.743C23.7105 142.608 49.4506 133.386 68.8631 123.054C39.613 161.206 0 148.138 0 148.138V159.533C38.7534 169.113 82.927 138.415 96 128.393C109.073 138.403 153.259 169.113 192 159.533V148.138C192 148.138 152.387 161.194 123.137 123.054C142.549 133.386 168.29 142.608 192 136.743V125.348C192 125.348 152.387 138.403 123.137 100.264C142.549 110.596 168.29 119.817 192 113.952V102.557C192 102.557 152.387 115.613 123.137 77.4733C142.549 87.8054 168.29 97.0267 192 91.1618V79.7666C192 79.7786 122.886 102.569 99.8443 0Z" fill="#EAE1D3"/>
</svg>
