<svg width="193" height="193" viewBox="0 0 193 193" fill="none"
    xmlns="http://www.w3.org/2000/svg">
    <path d="M192.258 94.8471L148.147 89.3251L189.331 72.5753L188.64 69.9926L144.604 76.0874L180.053 49.2444L178.713 46.9319L137.756 64.222L165.05 29.1123L163.16 27.2211L128.068 54.5287L145.349 13.5511L143.038 12.222L116.208 47.6775L122.3 3.62012L119.718 2.92852L102.977 44.133L97.4683 0H94.7896L89.2811 44.133L72.5396 2.92852L69.9581 3.62012L76.0499 47.6775L49.2202 12.222L46.9088 13.5511L64.1904 54.5287L29.0979 27.2211L27.2077 29.1123L54.5019 64.222L13.5445 46.9319L12.2052 49.2444L47.654 76.0874L3.61834 69.9926L2.92706 72.5753L44.1113 89.3251L0 94.8471V97.5163L44.1113 103.028L2.92706 119.777L3.61834 122.36L47.654 116.265L12.2052 143.108L13.5445 145.421L54.5019 128.141L27.2077 163.24L29.0979 165.132L64.1904 137.824L46.9088 178.802L49.2202 180.142L76.0499 144.675L69.9581 188.733L72.5396 189.424L89.2811 148.23L94.7896 192.363H97.4683L102.977 148.23L119.718 189.424L122.3 188.733L116.208 144.675L143.038 180.142L145.349 178.802L128.068 137.824L163.16 165.132L165.05 163.24L137.756 128.141L178.713 145.421L180.053 143.108L144.604 116.265L188.64 122.36L189.331 119.777L148.147 103.028L192.258 97.5163V94.8471Z" fill="#EAE1D3"/>
</svg>
