<svg width="296" height="219" viewBox="0 0 296 219" fill="none"
    xmlns="http://www.w3.org/2000/svg">
    <path d="M5.57438 181.793L17.9376 211.451H18.1366L30.1216 181.793H32.7893L18.1765 217.845H15.0906L0 181.793H5.57438Z" fill="#EAE1D3"/>
    <path d="M48.0782 207.23L43.539 217.846H41.1699L56.3999 181.794H58.9681L75.751 217.846H70.7539L65.8167 207.23H48.0782ZM56.6787 187.571H56.4796L49.0736 204.92H64.7814L56.6787 187.571Z" fill="#EAE1D3"/>
    <path d="M91.5605 217.846V181.794H96.2391V215.018H114.814V217.846H91.5605Z" fill="#EAE1D3"/>
    <path d="M150.647 212.747H150.846L167.529 181.794H171.073V217.846H166.395V188.646H166.196L149.93 218.464H148.995L133.088 188.447H132.889V217.846H130.619V181.794H134.123L150.647 212.747Z" fill="#EAE1D3"/>
    <path d="M197.114 181.794V217.846H192.436V181.794H197.114Z" fill="#EAE1D3"/>
    <path d="M230.182 181.794C232.471 181.794 234.382 182.113 235.895 182.75C237.408 183.388 238.603 184.184 239.479 185.121C240.355 186.057 240.972 187.092 241.33 188.188C241.689 189.284 241.868 190.299 241.868 191.236C241.868 192.271 241.689 193.327 241.35 194.403C241.012 195.478 240.474 196.494 239.718 197.41C238.961 198.346 238.006 199.103 236.831 199.721C235.656 200.338 234.243 200.697 232.591 200.796V200.996L233.108 201.254C233.526 201.454 233.865 201.713 234.163 202.031C234.462 202.33 234.84 202.848 235.298 203.525C235.756 204.222 236.393 205.178 237.169 206.433C237.946 207.688 239.061 209.361 240.494 211.453C240.972 212.17 241.43 212.827 241.868 213.385C242.306 213.943 242.764 214.44 243.262 214.819C243.739 215.217 244.257 215.516 244.814 215.715C245.372 215.914 245.989 216.014 246.726 216.014C246.905 216.014 247.064 216.014 247.243 215.994C247.422 215.974 247.582 215.954 247.761 215.915V217.827C247.283 218.105 246.805 218.265 246.327 218.345C245.85 218.404 245.232 218.444 244.476 218.444C243.441 218.444 242.565 218.305 241.828 218.026C241.092 217.747 240.434 217.388 239.857 216.91C239.28 216.452 238.742 215.895 238.245 215.237C237.747 214.58 237.249 213.863 236.751 213.066L232.67 207.051C232.053 206.095 231.515 205.278 231.077 204.621C230.639 203.963 230.142 203.446 229.624 203.027C229.107 202.609 228.529 202.33 227.892 202.151C227.255 201.972 226.459 201.892 225.483 201.892H223.214V217.807H218.535V181.754H230.182V181.794ZM223.194 199.621H228.509C229.883 199.621 231.097 199.382 232.153 198.904C233.208 198.426 234.084 197.789 234.82 197.032C235.537 196.255 236.094 195.399 236.453 194.462C236.811 193.526 236.99 192.59 236.99 191.654C236.99 190.558 236.791 189.542 236.393 188.606C235.995 187.67 235.418 186.873 234.661 186.216C233.905 185.539 232.989 185.021 231.953 184.643C230.898 184.264 229.724 184.085 228.41 184.085H223.194V199.621Z" fill="#EAE1D3"/>
    <path d="M268.326 207.23L263.787 217.846H261.418L276.648 181.794H279.216L295.999 217.846H291.002L286.065 207.23H268.326ZM276.907 187.571H276.708L269.302 204.92H285.01L276.907 187.571Z" fill="#EAE1D3"/>
    <path d="M211.208 87.8597L148.018 0V0.0199378V0L59.127 123.593L108.241 123.713L126.358 104.79L126.736 71.1681C126.736 59.3566 136.253 49.7759 148.038 49.6564C159.147 49.7559 168.245 58.3009 169.241 69.1962L169.34 71.1681L169.719 104.79L187.835 123.713L236.95 123.593L211.208 87.8597Z" fill="#EAE1D3"/>
    <path d="M126.34 104.79L148.02 104.551L169.701 104.79L148.02 81.9243L126.34 104.79Z" fill="#EAE1D3"/>
    <path d="M148.336 63.9775H147.679C147.679 67.9612 144.454 71.1879 140.473 71.1879V71.8453C144.454 71.8453 147.679 75.072 147.679 79.0556H148.336C148.336 75.072 151.562 71.8453 155.543 71.8453V71.1879C151.562 71.1879 148.336 67.9612 148.336 63.9775Z" fill="#EAE1D3"/>
</svg>
