<svg width="127" height="88" viewBox="0 0 127 88" fill="none" xmlns="http://www.w3.org/2000/svg">
<path d="M47.8955 74.613L63.3396 74.438L78.7774 74.613L63.3396 58.3373L47.8955 74.613Z" fill="#000000"/>
<path d="M63.5709 45.5507H63.1082C63.1082 48.3894 60.8072 50.6903 57.9685 50.6903V51.153C60.8072 51.153 63.1082 53.454 63.1082 56.2927H63.5709C63.5709 53.454 65.8719 51.153 68.7106 51.153V50.6903C65.8719 50.6841 63.5709 48.3831 63.5709 45.5507Z" fill="#000000"/>
<path d="M47.8954 74.613L48.1705 50.6716C48.1705 42.2618 54.9484 35.4401 63.3395 35.3588C71.2616 35.4338 77.7394 41.5177 78.4397 49.271L78.5085 50.6716L78.7836 74.613L91.6015 88H126.679L108.365 62.5579L63.3457 0L63.3395 0.00625266L63.3332 0L0 88H35.0774L47.8954 74.613Z" fill="#000000"/>
</svg>
