<svg width="127" height="88" viewBox="0 0 127 88" fill="none" xmlns="http://www.w3.org/2000/svg">
<path d="M108.337 62.4913L63.3334 0L63.3271 0.00624601L63.3209 0L0 87.9063L34.9831 88L47.886 74.5399L48.1611 50.6239C48.1611 42.223 54.9377 35.4086 63.3271 35.3274C71.2477 35.4024 77.7242 41.4797 78.4243 49.2248L78.4931 50.6239L78.7682 74.5399L91.6711 88L126.654 87.9063L108.337 62.4913Z" fill="#000000"/>
<path d="M47.886 74.5336L63.327 74.3587L78.7618 74.5336L63.327 58.2753L47.886 74.5336Z" fill="#000000"/>
<path fill-rule="evenodd" clip-rule="evenodd" d="M63.3271 40.1618L64.0085 49.0749L69.7974 42.2667L65.1088 49.8744L73.7983 47.7632L65.5276 51.1673L73.7983 54.5651L65.1088 52.4602L69.7974 60.0679L64.0085 53.2597L63.3271 62.1665L62.6457 53.2597L56.8506 60.0679L61.5455 52.4602L52.856 54.5651L61.1204 51.1673L52.856 47.7632L61.5455 49.8744L56.8506 42.2667L62.6457 49.0749L63.3271 40.1618Z" fill="#000000"/>
</svg>
