<svg width="127" height="88" viewBox="0 0 127 88" fill="none" xmlns="http://www.w3.org/2000/svg">
<path d="M108.337 62.4913L63.3271 0L63.3209 0.00625211L63.3146 0L0 87.9063L34.9831 88L47.886 74.5398L48.1611 50.6239C48.1611 42.223 54.9377 35.4086 63.3271 35.3274C71.2477 35.4024 77.7242 41.4797 78.4243 49.2248L78.4931 50.6239L78.7681 74.5398L91.6711 88L126.654 87.9063L108.337 62.4913Z" fill="#000000"/>
<path d="M47.886 74.5336L63.3271 74.3587L78.7618 74.5336L63.3271 58.2752L47.886 74.5336Z" fill="#000000"/>
<path d="M64.2211 47.0512C61.3704 46.4203 58.8823 48.9063 59.5137 51.7544C59.8325 53.191 60.9953 54.3528 62.4331 54.6713C65.2838 55.3021 67.7719 52.8162 67.1405 49.9681C66.8154 48.5315 65.6589 47.3697 64.2211 47.0512Z" fill="#000000"/>
</svg>
