<svg width="208" height="145" viewBox="0 0 208 145" fill="none"
  xmlns="http://www.w3.org/2000/svg">
  <g clip-path="url(#clip0)">
    <path d="M78.6455 122.942L104.005 122.653L129.354 122.942L104.005 96.1241L78.6455 122.942Z" fill="#ffffff"/>
    <path d="M104.385 75.0551H103.625C103.625 79.7325 99.847 83.5239 95.1858 83.5239V84.2863C99.847 84.2863 103.625 88.0776 103.625 92.7551H104.385C104.385 88.0776 108.163 84.2863 112.825 84.2863V83.5239C108.163 83.5136 104.385 79.7222 104.385 75.0551Z" fill="#ffffff"/>
    <path d="M78.6455 122.942L79.0973 83.493C79.0973 69.6358 90.2268 58.3956 104.005 58.2617C117.013 58.3853 127.65 68.4098 128.8 81.1852L128.913 83.493L129.365 122.942L150.412 145H208.01L177.938 103.078L104.015 0L104.005 0.0103027L103.995 0L0 145H57.5981L78.6455 122.942Z" fill="#ffffff"/>
  </g>
  <defs>
    <clipPath id="clip0">
      <rect width="208" height="145" fill="white"/>
    </clipPath>
  </defs>
</svg>

