<svg width="127" height="88" viewBox="0 0 127 88" fill="none" xmlns="http://www.w3.org/2000/svg">
<path d="M108.337 62.4913L63.3334 0L63.3271 0.00624601L63.3209 0L0 87.9063L34.9831 88L47.886 74.5399L48.1611 50.6239C48.1611 42.223 54.9377 35.4086 63.3271 35.3274C71.2477 35.4024 77.7242 41.4797 78.4243 49.2248L78.4931 50.6239L78.7682 74.5399L91.6711 88L126.654 87.9063L108.337 62.4913Z" fill="#000000"/>
<path d="M47.886 74.5336L63.327 74.3587L78.7618 74.5336L63.327 58.2753L47.886 74.5336Z" fill="#000000"/>
<path fill-rule="evenodd" clip-rule="evenodd" d="M58.2822 48.5065L62.3643 50.5802L65.5838 47.3322L64.8587 51.8606L69.9473 52.9349L64.4211 54.6463L63.7147 59.1559L61.6517 55.0586L56.7068 54.6776L60.3764 52.5664L58.2822 48.5065Z" fill="#000000"/>
</svg>
