<svg width="88" height="88" viewBox="0 0 88 88" fill="none" xmlns="http://www.w3.org/2000/svg">
<path d="M64.5832 52.2001C71.0031 56.5539 78.7021 59.1713 87 59.3665V67.9773H63.1204H60.177L62.5113 69.7704C69.3071 74.9905 77.7517 78.1778 86.9364 78.394V87H1V78.394C10.1848 78.1778 18.6294 74.9905 25.4298 69.7706L27.766 67.9773H24.8209H1.06844V59.3714C9.36188 59.1761 17.0608 56.5586 23.485 52.2052L26.1822 50.3773H22.924H1V41.7665C23.2763 41.2432 41.2431 23.2809 41.7665 1H46.17C46.6933 23.2763 64.6555 41.2431 86.9364 41.7665V50.3724H65.1444H61.8882L64.5832 52.2001Z" fill="#1D2B15" stroke="#1D2B15" stroke-width="2"/>
</svg>
