<svg width="115" height="96" viewBox="0 0 115 96" fill="none" xmlns="http://www.w3.org/2000/svg">
<path d="M59.5563 0H54.9772C41.2329 61.015 0 47.4561 0 47.4561V54.2356C14.1431 57.7248 29.4968 52.2387 41.0762 46.0917C23.6288 68.7893 0 61.015 0 61.015V67.7945C14.1431 71.2837 29.4968 65.7976 41.0762 59.6506C23.6288 82.3483 0 74.5739 0 74.5739V81.3534C14.1431 84.8426 29.4968 79.3565 41.0762 73.2095C23.6288 95.9071 0 88.1328 0 88.1328V94.9122C23.1161 100.612 49.4652 82.3482 57.2632 76.386C65.0611 82.3411 91.4174 100.612 114.526 94.9122V88.1328C114.526 88.1328 90.8976 95.9 73.4501 73.2095C85.0295 79.3565 100.383 84.8426 114.526 81.3534V74.5739C114.526 74.5739 90.8976 82.3411 73.4501 59.6506C85.0295 65.7976 100.383 71.2837 114.526 67.7945V61.015C114.526 61.015 90.8976 68.7822 73.4501 46.0917C85.0295 52.2387 100.383 57.7248 114.526 54.2356V47.4561C114.526 47.4561 73.3006 61.015 59.5563 0Z" fill="#1D2B15"/>
</svg>
