<svg width="178" height="179" viewBox="0 0 178 179" fill="none" xmlns="http://www.w3.org/2000/svg">
<path d="M178 87.77L137.16 82.66L175.29 67.16L174.65 64.77L133.88 70.41L166.7 45.57L165.46 43.43L127.54 59.43L152.81 26.94L151.06 25.19L118.57 50.46L134.57 12.54L132.43 11.31L107.59 44.12L113.23 3.35L110.84 2.71L95.34 40.84L90.2401 0H87.76L82.66 40.84L67.16 2.71L64.77 3.35L70.41 44.12L45.57 11.31L43.43 12.54L59.43 50.46L26.94 25.19L25.19 26.94L50.46 59.43L12.54 43.43L11.3 45.57L44.12 70.41L3.35004 64.77L2.71002 67.16L40.84 82.66L0 87.77V90.24L40.84 95.34L2.71002 110.84L3.35004 113.23L44.12 107.59L11.3 132.43L12.54 134.57L50.46 118.58L25.19 151.06L26.94 152.81L59.43 127.54L43.43 165.46L45.57 166.7L70.41 133.88L64.77 174.65L67.16 175.29L82.66 137.17L87.76 178.01H90.2401L95.34 137.17L110.84 175.29L113.23 174.65L107.59 133.88L132.43 166.7L134.57 165.46L118.57 127.54L151.06 152.81L152.81 151.06L127.54 118.58L165.46 134.57L166.7 132.43L133.88 107.59L174.65 113.23L175.29 110.84L137.16 95.34L178 90.24V87.77Z" fill="#1D2B15"/>
</svg>
