<svg width="129" height="16" viewBox="0 0 129 16" fill="none"
  xmlns="http://www.w3.org/2000/svg">
  <g clip-path="url(#clip0)">
    <path d="M2.42392 0L7.80785 12.9427H7.89593L13.1229 0H14.2908L7.9189 15.7315H6.571L0 0H2.42392Z" fill="#1D2B15"/>
    <path d="M20.9498 11.1014L18.9739 15.7315H17.9438L24.5838 0H25.7058L33.0196 15.7315H30.8446L28.6926 11.1014H20.9498ZM24.6948 2.51642H24.6068L21.3749 10.0887H28.2177L24.6948 2.51642Z" fill="#1D2B15"/>
    <path d="M39.9009 15.7315V0H41.9419V14.4963H50.0408V15.7315H39.9009Z" fill="#1D2B15"/>
    <path d="M65.6489 13.5066H65.737L73.0087 0H74.5558V15.7315H72.5148V2.98825H72.4267L65.3387 16H64.9367L58.0057 2.90002H57.9176V15.7315H56.9297V0H58.4537L65.6489 13.5066Z" fill="#1D2B15"/>
    <path d="M85.9018 0V15.7315H83.8608V0H85.9018Z" fill="#1D2B15"/>
    <path d="M100.315 0C101.318 0 102.145 0.138096 102.804 0.414289C103.463 0.690482 103.984 1.03572 104.363 1.44618C104.746 1.85663 105.014 2.30544 105.171 2.78494C105.328 3.26444 105.408 3.70559 105.408 4.1122C105.408 4.56102 105.335 5.02134 105.186 5.49317C105.037 5.96499 104.799 6.4023 104.474 6.80892C104.148 7.2117 103.727 7.54927 103.214 7.82162C102.701 8.09014 102.084 8.24742 101.368 8.29345V8.38168L101.594 8.49293C101.774 8.58115 101.927 8.69623 102.054 8.83049C102.18 8.96476 102.345 9.18341 102.548 9.48262C102.75 9.78183 103.022 10.2038 103.363 10.7523C103.704 11.3009 104.186 12.0297 104.807 12.9427C105.014 13.2573 105.213 13.5373 105.408 13.7866C105.603 14.0321 105.802 14.2431 106.013 14.4157C106.224 14.5883 106.446 14.7188 106.687 14.8108C106.924 14.8991 107.204 14.9451 107.518 14.9451C107.591 14.9451 107.667 14.9413 107.744 14.9336C107.817 14.9259 107.893 14.9144 107.97 14.8991V15.7315C107.759 15.8504 107.552 15.9271 107.342 15.9578C107.131 15.9885 106.863 16.0038 106.534 16.0038C106.086 16.0038 105.699 15.9425 105.381 15.8235C105.063 15.7046 104.776 15.5435 104.523 15.3402C104.271 15.1369 104.037 14.8952 103.823 14.6114C103.608 14.3275 103.39 14.0129 103.168 13.6677L101.387 11.04C101.115 10.6219 100.886 10.269 100.69 9.98513C100.495 9.70127 100.284 9.46727 100.059 9.28698C99.8326 9.10669 99.5837 8.9801 99.3042 8.90338C99.0284 8.82666 98.6762 8.79213 98.2588 8.79213H97.2632V15.7353H95.2222V0H100.315ZM97.2632 7.77559H99.5837C100.185 7.77559 100.713 7.67202 101.169 7.46104C101.629 7.25006 102.011 6.9777 102.329 6.64013C102.643 6.30256 102.881 5.93047 103.038 5.51618C103.195 5.10573 103.275 4.69528 103.275 4.29249C103.275 3.81299 103.187 3.37185 103.015 2.96524C102.842 2.56245 102.59 2.21338 102.26 1.92184C101.931 1.6303 101.537 1.40014 101.077 1.2352C100.618 1.07025 100.104 0.98969 99.5339 0.98969H97.2632V7.77559Z" fill="#1D2B15"/>
    <path d="M116.93 11.1014L114.954 15.7315H113.924L120.568 0H121.69L129.004 15.7315H126.829L124.677 11.1014H116.93ZM120.679 2.51642H120.591L117.359 10.0887H124.202L120.679 2.51642Z" fill="#1D2B15"/>
  </g>
  <defs>
    <clipPath id="clip0">
      <rect width="129" height="16" fill="white"/>
    </clipPath>
  </defs>
</svg>
