<svg width="344" height="488" viewBox="0 0 344 488" fill="none"
  xmlns="http://www.w3.org/2000/svg">
  <path d="M284.59 206.656C292.841 198.405 292.506 184.751 283.543 176.961C276.088 170.428 264.78 170.344 257.241 176.71C254.016 179.432 251.838 182.95 250.749 186.636C248.948 192.793 246.519 200.08 243.587 207.117C238.436 219.22 226.541 227.094 213.39 227.094L96.9995 226.885L-111.574 18.2276L-125.646 32.3L-21.255 136.692L83.1365 241.083L83.0946 357.222C83.0946 370.457 75.137 382.352 62.9074 387.461C55.7874 390.477 48.3742 392.948 42.1757 394.875C39.1183 395.838 36.2703 397.513 33.883 399.9C25.6322 408.151 26.0091 421.763 34.9719 429.553C42.427 436.087 53.7352 436.171 61.274 429.804C64.4989 427.082 66.6768 423.564 67.7657 419.878C71.4513 407.146 77.9012 395.419 86.4033 385.325C85.1887 398.602 81.168 411.502 74.9276 423.355C73.4617 426.161 72.624 429.344 72.624 432.778C72.624 444.505 82.4664 453.845 94.3609 453.007C104.245 452.337 112.287 444.463 113.124 434.579C113.501 430.349 112.538 426.37 110.695 422.936C104.287 411.334 100.559 398.476 99.4287 385.284C107.973 395.503 114.213 407.439 118.192 420.297C119.155 423.355 120.831 426.203 123.218 428.59C131.469 436.841 145.122 436.506 152.912 427.543C159.446 420.088 159.53 408.78 153.164 401.241C150.441 398.016 146.923 395.838 143.238 394.749C137.081 392.948 129.793 390.519 122.757 387.587C110.653 382.436 102.779 370.541 102.779 357.39L102.947 260.977L143.531 301.561C152.87 310.901 155.635 324.973 150.651 337.245C147.761 344.407 144.243 351.359 141.227 357.139C139.761 359.945 138.924 363.128 138.924 366.562C138.924 378.289 148.766 387.629 160.661 386.791C170.545 386.121 178.586 378.247 179.424 368.363C179.801 364.133 178.837 360.154 176.995 356.72C170.587 345.118 166.859 332.261 165.728 319.068C174.272 329.287 180.513 341.223 184.492 354.081C185.455 357.139 187.13 359.987 189.517 362.374C197.768 370.625 211.422 370.29 219.212 361.327C225.746 353.872 225.829 342.564 219.463 335.025C216.741 331.8 213.223 329.622 209.537 328.533C196.805 324.847 185.078 318.398 174.984 309.896C188.261 311.11 201.161 315.131 213.013 321.371C215.819 322.837 219.002 323.675 222.437 323.675C234.164 323.675 243.504 313.832 242.666 301.938C241.996 292.054 234.122 284.012 224.238 283.175C220.008 282.798 216.029 283.761 212.595 285.604C206.982 288.703 200.114 292.137 193.035 295.027C180.806 299.969 166.817 297.121 157.561 287.782L116.852 246.905L213.265 246.905C226.499 246.905 238.394 254.862 243.504 267.092C246.519 274.212 248.99 281.625 250.917 287.824C251.88 290.881 253.555 293.729 255.943 296.116C264.193 304.367 277.847 304.032 285.637 295.069C292.171 287.614 292.255 276.306 285.888 268.767C283.166 265.542 279.648 263.364 275.962 262.275C263.23 258.59 251.503 252.14 241.409 243.638C254.686 244.852 267.586 248.873 279.439 255.114C282.245 256.579 285.428 257.417 288.862 257.417C300.589 257.417 309.929 247.575 309.091 235.68C308.421 225.796 300.547 217.755 290.663 216.917C286.433 216.54 282.454 217.503 279.02 219.346C267.418 225.754 254.561 229.482 241.368 230.612C251.587 222.068 263.523 215.828 276.381 211.849C279.313 210.677 282.203 209.043 284.59 206.656Z" fill="#DFDCD5"/>
</svg>
