<svg width="223" height="223" viewBox="0 0 223 223" fill="none"
    xmlns="http://www.w3.org/2000/svg">
    <g filter="url(#filter0_d)">
        <path d="M20.3855 148.635C21.9624 150.212 21.8253 150.074 23.4021 151.651L45.2723 139.311L53.5679 164.06C55.6932 164.06 55.6247 164.06 57.75 164.06L66.0456 139.311L87.9158 151.651C89.4927 150.074 89.3556 150.212 90.9324 148.635L64.126 100.095V72.0547L98.0625 105.991V150.691L71.3246 199.094C72.9015 200.671 72.7644 200.534 74.3412 202.11L96.2114 189.77L104.438 214.52C106.564 214.52 106.495 214.52 108.621 214.52L116.916 189.77L138.786 202.11C140.363 200.534 140.226 200.671 141.803 199.094L114.996 150.554V122.925L153.801 161.798L169.089 215C171.352 215 171.146 215 173.34 215L180.059 190.798L203.369 202.385C204.877 200.876 204.808 200.945 206.317 199.437L194.73 176.127L219 169.408C219 167.146 219 167.351 219 165.157L165.798 149.8L127.748 111.75H153.869L202.34 138.557C203.917 136.98 203.78 137.117 205.357 135.54L193.016 113.67L217.697 105.374C217.697 103.249 217.697 103.317 217.697 101.192L192.948 92.8965L205.288 71.0263C203.711 69.4495 203.849 69.5866 202.272 68.0097L153.869 94.8162H114.996H110.814L77.2892 61.291H102.999L151.47 88.0974C153.047 86.5206 152.909 86.6577 154.486 85.0808L142.146 63.2106L166.895 54.915C166.895 52.7897 166.895 52.8583 166.895 50.733L142.146 42.4374L154.486 20.5671C152.909 18.9903 153.047 19.1274 151.47 17.5505L102.999 44.357H64.126H60.3552L53.088 37.0898L15.9978 -0.000460207L9.1419 6.8554L4 11.9973L47.1234 55.1207V100.232L20.3855 148.635Z" fill="#272727"/>
    </g>
    <defs>
        <filter id="filter0_d" x="0" y="-0.000488281" width="223" height="223" filterUnits="userSpaceOnUse" color-interpolation-filters="sRGB">
            <feFlood flood-opacity="0" result="BackgroundImageFix"/>
            <feColorMatrix in="SourceAlpha" type="matrix" values="0 0 0 0 0 0 0 0 0 0 0 0 0 0 0 0 0 0 127 0" result="hardAlpha"/>
            <feOffset dy="4"/>
            <feGaussianBlur stdDeviation="2"/>
            <feComposite in2="hardAlpha" operator="out"/>
            <feColorMatrix type="matrix" values="0 0 0 0 0 0 0 0 0 0 0 0 0 0 0 0 0 0 0.25 0"/>
            <feBlend mode="normal" in2="BackgroundImageFix" result="effect1_dropShadow"/>
            <feBlend mode="normal" in="SourceGraphic" in2="effect1_dropShadow" result="shape"/>
        </filter>
    </defs>
</svg>
