<svg width="336" height="295" viewBox="0 0 336 295" fill="none"
  xmlns="http://www.w3.org/2000/svg">
  <path d="M210.098 158.625C201.098 155.925 192.998 150.725 186.498 143.925C188.298 141.125 189.298 138.025 189.698 134.825C198.998 133.525 208.598 134.425 217.398 137.925C230.498 143.125 251.798 144.125 275.098 139.625C311.398 132.725 338.598 115.125 335.798 100.325C332.998 85.525 301.298 79.225 264.998 86.125C241.798 90.525 222.298 99.325 211.998 108.925C205.098 115.425 196.598 119.725 187.398 122.025C186.698 120.625 185.798 119.225 184.698 118.025C178.298 110.625 167.998 108.525 159.398 112.325C153.598 104.925 149.698 96.125 148.298 86.825C146.198 72.925 136.398 53.925 120.998 36.025C96.5982 8.02502 67.7982 -6.77498 56.4982 3.02502C45.0982 12.825 55.4982 43.525 79.5982 71.425C95.0982 89.325 112.398 101.825 125.898 105.925C134.898 108.625 142.998 113.825 149.498 120.625C147.698 123.425 146.698 126.525 146.298 129.725C136.998 131.025 127.398 130.125 118.598 126.625C105.498 121.425 84.1982 120.425 60.8982 124.925C24.5982 131.825 -2.60182 149.425 0.198178 164.225C3.09818 179.025 34.7982 185.325 71.0982 178.425C94.2982 174.025 113.798 165.225 124.098 155.625C130.998 149.125 139.498 144.825 148.698 142.525C149.398 143.925 150.298 145.325 151.398 146.525C152.498 147.825 153.698 148.825 154.998 149.825C151.398 158.525 145.898 166.325 138.498 172.225C127.498 181.025 115.898 198.925 108.198 221.325C95.9982 256.225 97.6982 288.525 111.898 293.525C126.098 298.425 147.398 274.225 159.598 239.225C167.398 216.925 169.498 195.625 166.298 181.925C164.198 172.725 164.598 163.125 167.298 154.125C170.498 154.225 173.798 153.625 176.798 152.325C182.598 159.725 186.498 168.525 187.898 177.825C189.998 191.725 199.798 210.725 215.198 228.625C239.298 256.625 268.098 271.325 279.498 261.525C290.898 251.725 280.498 221.025 256.398 193.125C240.898 175.125 223.598 162.725 210.098 158.625Z" fill="#DFDCD5"/>
</svg>
