<svg width="240" height="278" viewBox="0 0 240 278" fill="none" xmlns="http://www.w3.org/2000/svg">
<path d="M36.8187 115.818C53.2269 125.448 69.7228 130.441 80.954 129.906C88.5 129.638 96.046 131.421 102.715 134.899C102.451 136.147 102.276 137.484 102.276 138.822C102.276 140.159 102.451 141.496 102.715 142.745C95.9583 146.222 88.5 148.094 80.954 147.738C69.635 147.292 53.2269 152.196 36.8187 161.825C11.1975 177.16 -4.77194 197.935 1.2824 208.545C7.33674 219.155 33.0458 215.499 58.7548 200.431C75.1629 190.802 87.6226 178.765 92.8872 168.601C96.397 161.736 101.749 156.119 108.067 151.928C109.997 153.711 112.279 155.049 114.735 155.851C114.385 163.519 112.191 171.008 108.155 177.517C102.1 187.235 98.1519 204.176 98.1519 223.434C98.1519 253.57 107.891 278 120 278C132.021 278 141.848 253.57 141.848 223.434C141.848 204.176 137.812 187.235 131.846 177.517C127.809 171.008 125.616 163.519 125.265 155.851C127.809 155.049 130.091 153.711 131.933 151.928C138.251 156.119 143.603 161.736 147.113 168.601C152.378 178.765 164.837 190.802 181.245 200.431C206.954 215.499 232.664 219.155 238.718 208.545C244.772 197.935 228.803 177.071 203.094 162.003C186.686 152.374 170.19 147.381 158.958 147.916C151.412 148.183 143.867 146.4 137.198 142.923C137.461 141.675 137.637 140.337 137.637 139C137.637 137.663 137.461 136.325 137.198 135.077C143.954 131.6 151.412 129.727 158.958 130.084C170.277 130.53 186.686 125.626 203.094 115.997C228.803 100.929 244.772 80.0654 238.718 69.4554C232.664 58.8454 206.954 62.501 181.245 77.569C164.837 87.1982 152.378 99.2348 147.113 109.399C143.603 116.264 138.251 121.881 131.933 126.072C130.003 124.289 127.722 122.951 125.265 122.149C125.616 114.481 127.809 106.992 131.846 100.483C137.9 90.7646 141.848 73.8242 141.848 54.5657C141.848 24.4298 132.109 0 120 0C107.979 0 98.1519 24.4298 98.1519 54.5657C98.1519 73.8242 102.188 90.7646 108.155 100.483C112.191 106.992 114.385 114.481 114.735 122.149C112.191 122.951 109.91 124.289 108.067 126.072C101.749 121.881 96.397 116.264 92.8872 109.399C87.6226 99.2348 75.1629 87.1982 58.7548 77.569C33.0458 62.501 7.33674 58.8454 1.2824 69.4554C-4.77194 79.9763 11.1975 100.75 36.8187 115.818Z" fill="#272727"/>
</svg>
