<svg width="264" height="234" viewBox="0 0 264 234" fill="none"
  xmlns="http://www.w3.org/2000/svg">
  <path d="M74.4028 58.0086C83.3382 73.8578 94.5751 85.8885 104.117 90.8036C110.484 94.1826 115.865 99.269 119.706 105.347C118.888 106.261 118.1 107.291 117.458 108.404C116.815 109.518 116.317 110.715 115.934 111.88C108.677 111.551 101.612 109.55 95.5448 105.651C86.4017 99.8776 70.4798 96.1292 52.2863 96.3155C23.7332 96.8556 0.544628 106.531 0.449215 118.255C0.353802 129.979 23.3646 139.206 51.8617 138.93C70.0552 138.744 86.1418 134.669 95.3803 128.719C101.582 124.677 108.707 122.555 115.944 122.081C116.683 124.487 117.926 126.69 119.571 128.531C115.595 134.748 110.181 139.937 103.716 143.429C94.0387 148.632 82.6309 160.852 73.3728 176.888C58.8857 201.98 55.1933 226.97 65.2035 232.75C75.1411 238.487 95.0093 222.836 109.496 197.744C118.755 181.708 123.561 165.677 123.301 154.737C123.093 147.391 124.88 140.108 128.276 133.556C130.765 134.102 133.294 134.078 135.675 133.472C138.883 139.977 140.607 147.209 140.208 154.6C139.675 165.576 144.189 181.545 153.124 197.394C167.134 222.211 186.63 237.526 196.736 231.581C206.841 225.636 203.669 200.643 189.659 175.826C180.724 159.977 169.487 147.946 159.945 143.031C153.578 139.652 148.197 134.565 144.356 128.487C145.173 127.573 145.961 126.544 146.604 125.43C147.247 124.317 147.745 123.119 148.128 121.954C155.385 122.284 162.45 124.284 168.517 128.183C177.66 133.957 193.582 137.705 211.776 137.519C240.273 137.243 263.504 127.494 263.6 115.77C263.695 104.046 240.684 94.8187 212.187 95.0942C193.994 95.2804 177.907 99.3557 168.668 105.306C162.467 109.347 155.342 111.47 148.104 111.943C147.366 109.537 146.123 107.335 144.477 105.494C148.454 99.2771 153.867 94.0881 160.333 90.5952C170.01 85.3929 181.418 73.1723 190.676 57.1368C205.163 32.0444 208.855 7.0545 198.845 1.27512C188.908 -4.46238 169.039 11.1884 154.552 36.2808C145.294 52.3163 140.487 68.348 140.748 79.2877C140.956 86.6336 139.169 93.9165 135.773 100.469C133.284 99.9222 130.755 99.9469 128.374 100.552C125.166 94.0477 123.441 86.816 123.84 79.4245C124.374 68.4486 119.86 52.4795 110.925 36.6303C96.9148 11.8134 77.4186 -3.50109 67.313 2.44356C57.2502 8.31396 60.4654 33.2335 74.4028 58.0086Z" fill="#cdc8c4"/>
</svg>
