<svg width="200" height="300" viewBox="0 0 200 300" fill="none"
    xmlns="http://www.w3.org/2000/svg">
    <path d="M147.32 88.6856C147.32 76.5339 154.644 65.6299 165.873 60.9103C172.437 58.1436 179.218 55.9194 184.914 54.1292C187.735 53.2612 190.339 51.7423 192.563 49.5181C200.158 41.9232 199.833 29.4461 191.587 22.2852C184.752 16.3179 174.39 16.2636 167.392 22.0682C164.408 24.6179 162.455 27.7644 161.425 31.182C158.061 42.8997 152.094 53.641 144.336 62.9175C145.421 50.7658 149.11 38.9396 154.861 27.9814C156.217 25.4317 157.031 22.448 156.976 19.3558C156.976 8.61458 147.917 -0.0109506 137.013 0.802778C127.953 1.39951 120.575 8.66881 119.762 17.7283C119.436 21.6342 120.25 25.2689 121.986 28.4153C127.845 39.0481 131.317 50.8743 132.347 62.9717C124.481 53.5867 118.785 42.5743 115.096 30.8565C114.228 28.0356 112.709 25.4317 110.485 23.2075C102.89 15.6127 90.4132 15.9382 83.2524 24.184C77.285 31.0193 77.2308 41.3808 83.0354 48.3788C85.5851 51.3625 88.7315 53.3155 92.1491 54.3462C97.791 55.9737 104.464 58.1979 110.919 60.9645C122.04 65.6842 129.309 76.6424 129.255 88.7399L128.984 177.111L91.8237 139.951C83.2524 131.379 80.6484 118.468 85.2596 107.239C87.9178 100.675 91.1727 94.2732 93.9393 89.0111C95.2956 86.4614 96.1093 83.4777 96.055 80.3856C96.055 69.6443 86.9955 61.0188 76.0915 61.8325C67.032 62.4292 59.6542 69.6986 58.8405 78.7581C58.515 82.664 59.3287 86.2987 61.0647 89.4451C66.9235 100.078 70.3954 111.904 71.4262 124.001C63.5601 114.616 57.864 103.604 54.1751 91.8863C53.3071 89.0653 51.7881 86.4614 49.564 84.2372C41.9691 76.6424 29.4919 76.9679 22.3311 85.2137C16.3638 92.049 16.3095 102.411 22.1141 109.409C24.6638 112.392 27.8102 114.345 31.2279 115.376C42.9456 118.739 53.6868 124.707 62.9634 132.464C50.8117 131.379 38.9854 127.69 28.0272 121.94C25.4775 120.584 22.4939 119.77 19.4017 119.824C8.66045 119.824 0.0348886 128.884 0.848618 139.788C1.44537 148.847 8.7147 156.225 17.7742 157.039C21.6801 157.364 25.3148 156.551 28.4612 154.815C33.6148 151.94 39.9077 148.793 46.4175 146.189C57.647 141.687 70.4497 144.29 79.021 152.862L225.818 299.659L238.729 286.748L147.32 195.338L147.32 88.6856Z" fill="#272727"/>
</svg>
