<svg width="239" height="300" viewBox="0 0 239 300" fill="none"
  xmlns="http://www.w3.org/2000/svg">
  <path d="M147.32 88.6856C147.32 76.5339 154.644 65.6299 165.873 60.9103C172.437 58.1436 179.218 55.9194 184.914 54.1292C187.735 53.2612 190.339 51.7423 192.563 49.5181C200.158 41.9232 199.833 29.4461 191.587 22.2852C184.751 16.3179 174.39 16.2636 167.392 22.0682C164.408 24.6179 162.455 27.7644 161.425 31.182C158.061 42.8997 152.094 53.641 144.336 62.9175C145.421 50.7658 149.11 38.9396 154.86 27.9814C156.217 25.4317 157.03 22.448 156.976 19.3558C156.976 8.61458 147.917 -0.0109506 137.013 0.802778C127.953 1.39951 120.575 8.66881 119.762 17.7283C119.436 21.6342 120.25 25.2689 121.986 28.4153C127.845 39.0481 131.317 50.8743 132.347 62.9717C124.481 53.5867 118.785 42.5743 115.096 30.8565C114.228 28.0356 112.709 25.4317 110.485 23.2075C102.89 15.6127 90.4131 15.9382 83.2523 24.184C77.2849 31.0193 77.2306 41.3808 83.0352 48.3788C85.5849 51.3625 88.7314 53.3155 92.149 54.3462C97.7909 55.9737 104.463 58.1979 110.919 60.9645C122.04 65.6842 129.309 76.6424 129.255 88.7399L128.984 177.111L91.8235 139.951C83.2522 131.379 80.6483 118.468 85.2595 107.239C87.9176 100.675 91.1725 94.2732 93.9392 89.0111C95.2954 86.4614 96.1092 83.4777 96.0549 80.3856C96.0549 69.6443 86.9954 61.0188 76.0914 61.8325C67.0319 62.4292 59.6541 69.6986 58.8404 78.7581C58.5148 82.664 59.3286 86.2987 61.0645 89.4451C66.9234 100.078 70.3953 111.904 71.426 124.001C63.56 114.616 57.8639 103.604 54.1749 91.8863C53.307 89.0653 51.788 86.4614 49.5638 84.2372C41.969 76.6424 29.4918 76.9679 22.331 85.2137C16.3636 92.049 16.3094 102.411 22.114 109.409C24.6637 112.392 27.8101 114.345 31.2278 115.376C42.9455 118.739 53.6867 124.707 62.9632 132.464C50.8115 131.379 38.9853 127.69 28.0271 121.94C25.4774 120.584 22.4937 119.77 19.4016 119.824C8.66032 119.824 0.0347666 128.884 0.848496 139.788C1.44525 148.847 8.71457 156.225 17.7741 157.039C21.68 157.364 25.3147 156.551 28.4611 154.815C33.6147 151.94 39.9076 148.793 46.4174 146.189C57.6469 141.687 70.4495 144.29 79.0208 152.862L225.818 299.659L238.729 286.748L147.32 195.338L147.32 88.6856Z" fill="#cdc8c4"/>
</svg>
