<svg width="138" height="119" viewBox="0 0 138 119" fill="none"
    xmlns="http://www.w3.org/2000/svg">
    <path d="M105.61 118.34C124.65 118.34 137.23 107.46 137.23 87.57C137.23 64.28 117.51 56.29 103.06 49.49C108.84 42.18 116.83 43.03 128.39 43.03H134.17L137.23 31.81C121.08 31.81 110.88 37.93 102.04 48.98L83.34 40.65C91.33 34.53 95.58 28.92 95.58 19.57C95.58 8.51999 85.38 0.359995 72.63 0.359995C59.37 0.359995 49.17 8.69 49.17 21.44C49.17 40.99 79.26 52.89 95.07 59.69L81.98 86.21C80.45 82.98 76.03 73.8 75.35 72.61C67.36 56.12 52.06 42.18 35.57 42.18C29.79 42.18 24.18 43.71 19.08 46.94C7.52 53.91 0.55 65.81 0.55 78.9C0.04 99.47 17.55 118.34 39.48 118.34C45.26 118.34 51.38 117.15 57.84 114.77C65.66 111.54 71.27 105.76 76.03 98.62C82.83 108.99 91.67 118.34 105.61 118.34ZM52.74 14.81C52.74 6.48 63.45 1.20999 72.63 1.20999C83.34 1.20999 94.56 8.34999 94.56 19.57C94.56 28.92 90.31 34.19 82.32 40.31C68.04 33.68 52.74 24.67 52.74 14.81ZM57.33 113.75C50.7 116.3 44.75 117.32 39.48 117.32C21.29 117.32 1.57 102.36 1.57 78.9C1.57 66.66 7.86 54.76 19.59 47.79C22.65 45.92 25.88 44.9 29.28 44.9C30.98 44.9 32.68 45.24 34.55 45.75C45.43 48.81 57.16 61.73 66.51 81.11C69.06 86.38 71.95 92.16 75.52 97.6C70.76 104.91 65.15 110.52 57.33 113.75ZM96.09 60.2L101.02 62.41C112.92 67.85 134.51 80.6 134.51 94.88C134.51 106.44 122.27 115.96 111.73 115.96C99.32 115.96 89.97 101.68 82.66 87.4L96.09 60.2Z" fill="#272727"/>
</svg>
