<svg width="349" height="235" viewBox="0 0 349 235" fill="none"
  xmlns="http://www.w3.org/2000/svg">
  <path d="M28.39 83.39C28.39 58.4 28.73 57.89 35.02 57.89H49.98C71.91 57.89 82.79 68.09 82.79 88.66C82.79 109.23 71.06 121.98 49.81 121.98H28.39V83.39ZM24.48 173.66C27.2 173.66 40.12 174 45.05 174C46.41 174 46.41 172.47 45.05 172.47H36.38C30.43 172.47 28.39 171.28 28.39 129.8V123.68C36.72 123.68 44.88 123.68 53.55 123.85C79.39 123.85 97.41 109.74 97.41 88.83C97.41 67.75 80.07 56.19 52.53 56.19C49.64 56.19 24.31 56.7 22.1 56.7C19.55 56.7 7.99 56.19 3.23 56.19C1.87 56.19 1.87 57.72 3.23 57.72H6.29C14.62 57.72 15.47 58.57 15.47 100.22V122.83C15.47 130.65 15.47 147.48 14.96 156.83C14.45 166.18 14.11 169.58 11.56 172.13C14.11 171.96 11.9 172.47 3.74 172.47C2.38 172.47 2.38 174 3.74 174C5.27 174 21.76 173.66 24.48 173.66Z" fill="#272727"/>
  <path d="M211.61 174.34C230.65 174.34 243.23 163.46 243.23 143.57C243.23 120.28 223.51 112.29 209.06 105.49C214.84 98.18 222.83 99.03 234.39 99.03H240.17L243.23 87.81C227.08 87.81 216.88 93.93 208.04 104.98L189.34 96.65C197.33 90.53 201.58 84.92 201.58 75.57C201.58 64.52 191.38 56.36 178.63 56.36C165.37 56.36 155.17 64.69 155.17 77.44C155.17 96.99 185.26 108.89 201.07 115.69L187.98 142.21C186.45 138.98 182.03 129.8 181.35 128.61C173.36 112.12 158.06 98.18 141.57 98.18C135.79 98.18 130.18 99.71 125.08 102.94C113.52 109.91 106.55 121.81 106.55 134.9C106.04 155.47 123.55 174.34 145.48 174.34C151.26 174.34 157.38 173.15 163.84 170.77C171.66 167.54 177.27 161.76 182.03 154.62C188.83 164.99 197.67 174.34 211.61 174.34ZM158.74 70.81C158.74 62.48 169.45 57.21 178.63 57.21C189.34 57.21 200.56 64.35 200.56 75.57C200.56 84.92 196.31 90.19 188.32 96.31C174.04 89.68 158.74 80.67 158.74 70.81ZM163.33 169.75C156.7 172.3 150.75 173.32 145.48 173.32C127.29 173.32 107.57 158.36 107.57 134.9C107.57 122.66 113.86 110.76 125.59 103.79C128.65 101.92 131.88 100.9 135.28 100.9C136.98 100.9 138.68 101.24 140.55 101.75C151.43 104.81 163.16 117.73 172.51 137.11C175.06 142.38 177.95 148.16 181.52 153.6C176.76 160.91 171.15 166.52 163.33 169.75ZM202.09 116.2L207.02 118.41C218.92 123.85 240.51 136.6 240.51 150.88C240.51 162.44 228.27 171.96 217.73 171.96C205.32 171.96 195.97 157.68 188.66 143.4L202.09 116.2Z" fill="#272727"/>
  <path d="M295.45 158.68C295.11 158.68 294.77 158.34 294.6 157.83L269.61 94.08C255.16 61.44 255.67 58.72 264.17 58.72H267.74C269.1 58.72 268.59 57.19 267.23 57.19C262.3 57.19 249.38 57.7 246.66 57.7C243.94 57.7 234.76 57.19 229.83 57.19C229.15 57.19 228.81 57.53 228.81 58.04C228.81 58.55 229.15 58.72 230 58.72H231.36C240.2 58.72 240.71 59.57 255.33 92.89L287.8 175C287.97 175.34 288.31 175.51 289.16 175.51H290.86C291.37 175.51 291.88 175.34 292.05 175L323.33 93.06C326.22 85.75 330.47 76.23 334.72 68.92C338.29 62.12 342.37 58.72 346.96 58.72H347.3C348.49 58.72 349 57.19 347.64 57.19C343.39 57.19 335.74 57.53 333.53 57.53C330.64 57.53 317.21 57.19 314.15 57.19C312.28 57.19 312.11 57.7 312.11 58.21C312.11 58.89 312.45 59.23 313.3 59.23C313.98 59.23 316.7 58.55 318.06 58.55C324.01 58.55 327.58 61.95 327.58 66.88C327.58 74.53 324.18 84.9 321.46 92.21L296.3 157.83C296.13 158.34 295.79 158.68 295.45 158.68Z" fill="#272727"/>
</svg>
