<svg width="472" height="95" viewBox="0 0 472 95" fill="none"
  xmlns="http://www.w3.org/2000/svg">
  <rect width="47.2" height="47.2" fill="#F3B9A7"/>
  <rect y="47.2" width="47.2" height="47.2" fill="#FDE6CC"/>
  <rect x="47.2" width="47.2" height="47.2" fill="#EC6F43"/>
  <rect x="330.4" y="94.4" width="47.2" height="47.2" transform="rotate(-180 330.4 94.4)" fill="#E1AD3F"/>
  <rect x="94.3999" width="47.2" height="47.2" fill="#BD512E"/>
  <rect x="94.3999" y="47.2" width="47.2" height="47.2" fill="#F8C53A"/>
  <rect x="141.6" width="47.2" height="47.2" fill="#C00B10"/>
  <rect x="141.6" y="47.2" width="47.2" height="47.2" fill="#F8C53A"/>
  <rect x="188.8" width="47.2" height="47.2" fill="#6B0002"/>
  <rect x="188.8" y="47.2" width="47.2" height="47.2" fill="#E99F10"/>
  <rect x="236" width="47.2" height="47.2" fill="#980B40"/>
  <rect x="236" y="47.2" width="47.2" height="47.2" fill="#E99F10"/>
  <rect x="283.2" width="47.2" height="47.2" fill="#BA3B70"/>
  <rect x="94.3999" y="94.4" width="47.2" height="47.2" transform="rotate(-180 94.3999 94.4)" fill="#F8C53A"/>
  <rect x="330.4" width="47.2" height="47.2" fill="#ED7EC5"/>
  <rect x="330.4" y="47.2" width="47.2" height="47.2" fill="#AA9912"/>
  <rect x="377.6" width="47.2" height="47.2" fill="#ECBFDC"/>
  <rect x="377.6" y="47.2" width="47.2" height="47.2" fill="#505B1C"/>
  <rect x="424.8" width="47.2" height="47.2" fill="#FCE9F8"/>
  <rect x="424.8" y="47.2" width="47.2" height="47.2" fill="#353B06"/>
</svg>
