<svg width="217" height="405" viewBox="0 0 217 405" fill="none"
  xmlns="http://www.w3.org/2000/svg">
  <path d="M214.188 347.074C213.893 343.97 213.599 340.867 213.452 337.691C213.157 331.411 213.231 325.204 213.525 318.925C214.041 306.438 215.145 293.952 215.292 281.393C215.366 275.114 215.219 268.835 214.556 262.555C213.967 256.276 213.01 250.069 211.906 243.934C207.342 219.25 199.392 195.287 196.079 170.458C195.196 164.323 194.975 157.9 192.987 151.837C192.03 148.805 190.632 145.918 189.233 143.104L185.258 135.381C185.111 134.731 184.963 134.154 184.816 133.504H184.669C184.743 133.865 184.816 134.226 184.89 134.659L167.811 102.107C177.896 99.5091 187.245 94.4567 194.828 87.4556L195.122 87.1669L194.975 86.7338C193.871 82.4754 194.386 77.784 196.3 73.7421C197.257 71.7212 198.582 69.9168 200.201 68.3289C201.821 66.6688 203.588 65.0088 204.765 62.7713C205.354 61.6887 205.649 60.3895 205.649 59.0903C205.575 57.7912 205.207 56.5642 204.692 55.4815C204.176 54.3989 203.514 53.3884 202.851 52.3779L200.864 49.4909C198.214 45.6655 195.417 41.9124 192.619 38.2314C189.748 34.5504 186.804 30.9416 183.712 27.4771C182.166 25.7449 180.62 24.0126 179.001 22.2804C177.455 20.5482 175.835 18.816 173.921 17.3724C172.964 16.6507 171.934 15.9289 170.83 15.3515C169.725 14.7741 168.548 14.341 167.443 14.0523C165.088 13.4027 162.732 13.114 160.376 12.8975C158.021 12.681 155.739 12.4644 153.457 12.0314C151.248 11.5983 149.04 10.8766 147.2 9.64957L146.316 9.07216L146.022 10.0826C141.384 28.5598 135.201 46.676 127.692 64.287C127.25 62.1217 126.662 59.9564 125.999 57.7912C125.116 54.9041 124.085 52.0892 123.054 49.2744C120.92 43.6446 118.49 38.1592 115.914 32.746C113.338 27.3328 110.614 21.9917 107.817 16.7228C105.019 11.454 102.075 6.18511 99.0565 0.988412V0.699707L98.6148 0.771883L86.0269 2.64847L79.7698 3.58676L78.2239 3.80329C77.7086 3.87546 77.1197 3.94764 76.6044 4.09199C75.5002 4.3807 74.4696 4.88593 73.5863 5.53552C73.1446 5.8964 72.7029 6.25728 72.3349 6.69034C71.9668 7.1234 71.6723 7.55646 71.3043 7.91734L69.3903 10.3713C68.1389 12.0314 66.8138 13.6914 65.5624 15.4237C63.0596 18.816 60.7039 22.2804 58.5691 25.9614L57.833 27.3328C57.6122 27.838 57.3913 28.2711 57.1705 28.7763L55.9191 31.6633C55.1093 33.6121 54.2996 35.4887 53.4898 37.4374C51.8703 41.335 50.3981 45.2325 48.9994 49.13C46.0549 56.9972 43.552 64.9366 41.4172 73.0204L41.3436 73.2369L41.4908 73.3812C42.8159 74.8969 44.2145 76.2683 45.834 77.4953C47.4535 78.7223 49.2202 79.6606 51.2078 80.1658C53.1954 80.7432 55.1829 80.7432 57.0969 80.9597C59.0108 81.1763 60.7775 81.9702 62.1762 83.2694C65.1207 85.9399 68.5806 88.1052 72.4085 89.3322C74.3224 89.9096 76.3836 90.1983 78.4448 89.9096C80.5059 89.6209 82.4199 88.6104 83.7449 87.0226C85.07 85.5069 85.8797 83.5581 86.1742 81.6093C86.3214 80.5989 86.3214 79.6606 86.395 78.6501L86.5422 75.7631C86.6895 71.8655 86.7631 68.0402 86.7631 64.1427C86.7631 60.3173 86.6159 56.492 86.4686 52.7388C86.9103 54.9041 87.4992 56.9972 88.0881 59.0903C89.7076 65.0088 91.6216 70.8551 92.6522 76.9179C93.1674 79.9493 93.3883 82.9807 93.2411 86.0121C93.0938 89.0435 92.4313 92.0749 91.548 94.962C89.7812 100.808 86.9839 106.366 84.4811 111.996C74.3224 134.442 65.7833 157.611 58.8636 181.14C55.4038 192.905 52.312 204.814 49.6619 216.868C48.3369 222.858 47.1591 228.921 45.9812 234.912C45.6868 236.427 45.466 237.943 45.0243 239.315C44.5826 240.758 43.9201 242.057 42.8895 243.068C41.8589 244.15 40.6075 244.872 39.2088 245.522C37.8102 246.171 36.3379 246.749 34.9392 247.398C34.2031 247.687 33.467 248.048 32.8044 248.481C32.0683 248.914 31.4058 249.347 30.8169 249.852C29.5655 250.863 28.4612 252.09 27.5779 253.389C25.8112 256.059 24.707 259.019 23.8972 261.978C23.0875 264.937 22.4249 267.969 21.6888 270.928C20.9527 273.887 19.9957 276.774 18.597 279.445C17.8609 280.744 16.9776 281.971 15.947 283.053C14.9164 284.136 13.7386 285.074 12.4871 285.868C9.91067 287.528 7.03974 288.972 4.75773 291.281C3.65353 292.436 2.69655 293.735 1.96042 295.179C1.22428 296.623 0.708988 298.138 0.414535 299.654C-0.174373 302.758 -0.100759 305.933 0.414535 309.037C0.856215 312.14 1.66596 315.1 2.62294 318.059C3.06462 319.502 3.57991 321.018 4.09521 322.462C4.6105 323.905 5.05218 325.349 5.49386 326.792C6.30361 329.751 6.96613 332.711 7.26058 335.67C7.55504 338.629 7.3342 341.733 6.37722 344.475C5.86193 345.847 5.19941 347.218 4.31605 348.373C3.87437 348.95 3.43268 349.528 2.84378 350.105C2.32848 350.683 1.66596 351.26 1.37151 352.198C1.00344 353.064 1.15067 354.147 1.51874 354.869C1.8868 355.663 2.4021 356.312 2.91739 356.89C4.02159 358.045 5.12579 359.127 6.37722 360.138C11.2357 364.18 16.6831 367.211 21.2471 371.325C23.5291 373.346 25.5167 375.656 26.7681 378.398C27.357 379.77 27.7987 381.141 28.0932 382.657C28.3876 384.1 28.4612 385.688 28.6821 387.204C28.9029 388.719 29.1238 390.307 29.7127 391.823C30.3016 393.339 31.2586 394.782 32.5836 395.793C33.9086 396.803 35.5281 397.381 37.074 397.741C38.6199 398.102 40.2394 398.247 41.7853 398.391L79.1073 402.144C85.3644 402.722 91.5479 403.443 97.8051 403.949C100.97 404.165 104.136 404.237 107.301 403.516C110.467 402.866 113.338 401.278 115.767 399.329C118.27 397.381 120.478 395.215 122.686 393.05L129.459 386.626L142.93 373.851C144.034 372.841 145.212 371.83 146.611 371.181C147.273 370.892 148.009 370.675 148.746 370.603C149.482 370.531 150.218 370.603 150.954 370.748C152.426 371.108 153.825 371.758 155.15 372.552L159.199 374.934C164.572 378.11 169.946 381.213 175.541 384.028C181.135 386.843 186.877 389.297 192.914 391.029C195.932 391.895 199.024 392.473 202.115 392.906C205.207 393.267 208.299 393.411 211.538 393.194C214.63 387.565 216.028 381.358 216.396 375.078C216.764 368.799 216.175 362.52 215.439 356.312L214.188 347.074ZM177.97 23.3631C179.516 25.0953 181.062 26.8275 182.608 28.5598C185.626 32.0242 188.644 35.633 191.441 39.2419C194.312 42.9228 197.036 46.6038 199.686 50.4292L201.674 53.3162C202.336 54.2545 202.925 55.1928 203.367 56.2033C203.808 57.2137 204.176 58.2242 204.176 59.2347C204.176 60.2452 203.956 61.2556 203.44 62.1939C202.483 64.0705 200.79 65.6584 199.171 67.3906C197.478 69.0507 196.005 71.0716 194.975 73.1647C192.987 77.3509 192.325 82.1867 193.429 86.7338C185.92 93.5184 176.719 98.4264 166.854 100.88C166.56 100.014 166.339 99.1482 166.192 98.2099C165.898 96.6942 165.824 95.1063 165.456 93.5184C165.235 92.7245 165.014 91.9305 164.646 91.1366C164.278 90.4148 163.836 89.6931 163.321 89.0435C162.364 87.7443 161.26 86.5895 160.229 85.3625C159.714 84.7851 159.272 84.2077 158.904 83.5581C158.536 82.9085 158.242 82.2589 158.021 81.5372C157.506 80.1658 157.285 78.6501 157.211 77.0622C157.211 76.4848 157.138 75.8352 157.138 75.2578C157.211 74.8969 157.211 74.6082 157.211 74.2474C157.211 73.9586 157.211 73.5978 157.211 73.3091C157.358 71.5047 157.579 69.7002 157.947 67.8958C159.567 66.308 161.113 64.7201 162.585 63.06C163.321 62.1939 164.057 61.3278 164.793 60.3895C165.088 59.8843 165.456 59.4512 165.75 58.946L165.971 58.5851C166.045 58.5129 166.118 58.2242 166.118 58.0799C166.192 57.7912 166.192 57.5025 166.266 57.2137C166.854 52.6666 167.296 48.1917 167.738 43.7168C168.18 39.2418 168.621 34.7669 169.284 30.292C169.652 28.0545 170.02 25.8171 170.462 23.6518C170.903 21.703 171.419 19.7542 172.081 17.8055C172.375 18.022 172.67 18.2385 172.964 18.4551C174.805 19.9708 176.351 21.6308 177.97 23.3631ZM155.96 80.3823C155.297 80.1658 154.635 80.0215 153.972 79.8771C151.322 79.2997 148.672 78.7945 146.022 78.4336C145.286 78.3614 144.55 78.217 143.813 78.1449C145.727 78.1449 147.641 78.0727 149.482 78.0727C150.807 78.0727 152.058 78.0005 153.383 77.9283C154.046 77.8562 154.708 77.8562 155.371 77.784C155.518 77.784 155.665 77.7118 155.812 77.7118C155.886 78.6501 155.96 79.5884 156.181 80.5989C156.107 80.4545 156.033 80.4545 155.96 80.3823ZM147.347 11.454C149.187 12.4644 151.248 13.114 153.236 13.5471C155.592 13.9801 157.947 14.1967 160.303 14.4132C162.659 14.6297 164.941 14.9184 167.149 15.568C168.253 15.8567 169.284 16.2898 170.314 16.795C170.903 17.0837 171.492 17.4446 172.007 17.8055C170.093 21.703 169.136 25.9614 168.327 30.2198C167.517 34.6947 166.928 39.1697 166.486 43.6446C166.266 45.8821 166.118 48.1195 165.971 50.4292C165.824 52.6666 165.75 54.9763 165.529 57.1416C165.529 57.4303 165.456 57.719 165.456 57.9355C165.456 58.0799 165.456 58.152 165.382 58.2964L165.235 58.6573C165.014 59.1625 164.72 59.6677 164.425 60.1008C163.836 61.0391 163.1 61.9052 162.364 62.7713C160.892 64.4314 159.125 65.9471 157.358 67.3906L157.285 67.4628L157.211 67.6071C156.843 68.762 156.549 69.9168 156.328 71.1438H156.254C156.181 71.1438 156.181 71.1438 156.181 71.1438H156.033H155.518H153.53C150.954 71.1438 148.304 71.216 145.727 71.1438C145.139 71.1438 144.55 71.1438 143.961 71.1438C147.052 70.9272 150.144 70.7829 153.236 70.7107L153.31 69.3394C149.776 68.762 146.243 68.6898 142.636 68.6898C139.102 68.6898 135.569 68.8341 132.035 68.9785C130.416 69.0507 128.87 69.1228 127.25 69.1228L128.134 67.0297C136.084 48.9856 142.488 30.4363 147.347 11.454ZM50.6189 217.084C53.1954 205.103 56.2135 193.194 59.5997 181.429C66.3722 157.827 74.9113 134.731 84.9227 112.284C87.352 106.655 90.1493 101.097 91.916 95.1785C92.7994 92.2192 93.3883 89.1879 93.6091 86.0843C93.7564 82.9807 93.5355 79.8771 93.0938 76.8457C92.1369 70.7829 90.2229 64.8644 88.6034 58.946C87.6464 55.4815 86.7631 52.0171 86.2478 48.4804C86.1006 45.9542 85.8797 43.4281 85.6589 40.9019H85.07C85.07 43.3559 85.2172 45.7377 85.5853 48.1195C85.9533 53.4606 86.1006 58.8016 86.1006 64.0705C86.1006 67.968 86.0269 71.7934 85.8797 75.6909L85.7325 78.5779C85.6589 79.5162 85.6589 80.5267 85.5117 81.465C85.2172 83.3416 84.4811 85.146 83.2296 86.5173C81.9782 87.9608 80.2851 88.8991 78.3712 89.1157C76.4572 89.4044 74.5433 89.1157 72.7029 88.5383C69.0222 87.3834 65.636 85.2903 62.7651 82.6198C62.029 81.898 61.1456 81.3206 60.2623 80.8876C60.115 80.8154 59.9678 80.7432 59.8942 80.7432C61.9554 75.6187 63.6485 70.2777 65.0471 64.9366C65.4152 63.5653 65.7096 62.1217 66.0777 60.7504L66.9611 56.492C67.2555 55.0485 67.4764 53.6771 67.6972 52.2336C67.918 50.7901 68.1389 49.3465 68.2861 47.9752C68.507 46.5317 68.6542 45.0881 68.875 43.7168C69.0959 42.2733 69.3167 40.9019 69.5375 39.4584C69.7584 38.0149 70.0528 36.6435 70.2737 35.2L71.0098 30.9416C71.3779 28.0545 71.6723 25.2396 71.8196 22.3526C71.8932 20.9091 71.8932 19.4655 71.9668 18.022C71.9668 16.5785 71.9668 15.135 71.8932 13.6914H71.7459C71.5251 15.135 71.3779 16.5785 71.157 17.9498C70.9362 19.3934 70.789 20.7647 70.6417 22.2082C70.4945 23.6518 70.3473 25.0231 70.2001 26.4666C70.0528 27.9102 69.9056 29.2815 69.7584 30.725C69.5375 33.6121 69.3903 36.427 69.0222 39.314C68.8014 40.7575 68.5806 42.1289 68.3597 43.5724C68.0653 45.016 67.7708 46.3873 67.4764 47.7586C67.1819 49.13 66.8138 50.5735 66.5194 51.9449C66.1513 53.3162 65.8569 54.7598 65.5624 56.1311L63.5012 64.5036L59.5997 80.5989C58.8636 80.3102 58.0538 80.1658 57.2441 80.0215C55.2565 79.7327 53.269 79.7327 51.4286 79.2275C49.5883 78.7223 47.8952 77.784 46.3493 76.6292C44.877 75.4743 43.552 74.1752 42.3006 72.8038C44.509 64.8644 47.0118 56.9972 49.8091 49.2744C51.2078 45.3768 52.7537 41.4793 54.3732 37.654C55.1829 35.7052 55.9927 33.8286 56.8024 31.8799L58.0538 28.9928C58.2747 28.4876 58.4955 28.0545 58.7164 27.6215L59.4525 26.2501C61.5137 22.6413 63.9429 19.249 66.3722 15.8567C67.6236 14.1967 68.875 12.5366 70.2001 10.8766L72.114 8.6391C72.7765 7.77298 73.3654 7.05122 74.1752 6.47381C74.9849 5.8964 75.8683 5.46334 76.8253 5.17464C77.7822 4.95811 78.8864 4.81376 79.917 4.6694L86.1742 3.73111L98.3204 1.9267C101.265 6.97904 104.062 12.1036 106.786 17.3003C109.583 22.5691 112.233 27.9102 114.81 33.3234C117.386 38.7366 119.742 44.222 121.877 49.7796C122.907 52.5945 123.938 55.3372 124.748 58.2242C125.631 61.0391 126.367 63.9261 126.809 66.8132L127.177 69.0507C121.729 69.2672 116.282 69.3394 110.908 68.9785C107.448 68.762 103.915 68.4011 100.602 67.6071C99.7926 67.3906 98.9829 67.1019 98.2468 66.741C97.5106 66.3801 96.8481 65.9471 96.4064 65.3697C96.0384 64.7923 95.5967 63.9261 95.2286 63.2044C94.8605 62.4104 94.4925 61.6165 94.1244 60.8226C92.7258 57.6468 91.4007 54.471 90.0021 51.2953C88.677 48.1195 87.2784 44.9438 86.1742 41.6958H86.0269C86.395 43.4281 86.9839 45.016 87.4992 46.676C88.0145 48.3361 88.6034 49.9239 89.1923 51.584C90.3701 54.8319 91.6216 58.0799 92.9466 61.2556C93.3147 62.0496 93.6091 62.8435 93.9772 63.6374C94.3453 64.4314 94.6397 65.2253 95.2286 66.0914C95.8911 66.9575 96.7009 67.4628 97.5843 67.8237C98.4676 68.2567 99.2774 68.4732 100.161 68.6898C101.927 69.1228 103.694 69.3394 105.461 69.4837C107.228 69.6281 108.994 69.7002 110.761 69.7002C114.294 69.7002 117.828 69.6281 121.361 69.5559C124.895 69.5559 128.428 69.4115 131.962 69.4837C134.833 69.4837 137.704 69.5559 140.574 69.6281C135.495 69.9168 130.489 70.3498 125.41 70.6385C125.042 70.6385 124.6 70.7107 124.232 70.7107C121.582 70.7107 118.859 70.7829 116.208 70.8551C114.736 70.7829 113.19 70.7107 111.718 70.6385C109.436 70.5664 107.08 70.4942 104.798 70.7107C103.621 70.8551 102.516 70.9994 101.339 71.3603C101.265 71.3603 101.118 71.4325 101.044 71.4325C100.308 71.5047 99.6454 71.5047 98.9093 71.5768V71.7212C99.4246 71.7212 99.8663 71.7212 100.382 71.7212C99.6454 72.0821 98.9829 72.5873 98.6148 73.3812L98.7621 73.4534C99.2774 72.5873 100.161 72.0821 101.118 71.7934C110.761 72.0099 120.404 72.0821 130.121 71.8655L137.924 71.5768C140.501 71.5047 143.151 71.4325 145.727 71.3603C148.304 71.3603 150.954 71.3603 153.53 71.3603C154.193 71.3603 154.855 71.3603 155.444 71.4325H155.886C155.96 71.4325 155.96 71.4325 156.033 71.4325C156.107 71.4325 156.107 71.5047 156.181 71.5047C156.181 71.5047 156.254 71.5768 156.254 71.649C156.254 71.7934 156.181 71.9377 156.181 72.1542C155.96 73.6699 155.886 75.1856 155.886 76.7013H155.812C155.665 76.7013 155.518 76.7735 155.371 76.7735C154.782 76.8457 154.119 76.8457 153.457 76.8457C152.132 76.8457 150.88 76.8457 149.555 76.7735L141.752 76.6292C137.409 76.557 133.066 76.557 128.723 76.7013C123.791 76.6292 118.785 76.0518 113.779 76.1961C111.056 76.2683 108.332 76.557 105.755 77.2788C103.179 78.0005 100.602 79.2275 98.7621 81.1763L98.8357 81.2485C100.823 79.444 103.326 78.3614 105.903 77.7118C108.479 77.1344 111.203 76.9179 113.853 76.9179C115.914 76.9179 118.049 76.9901 120.184 77.1344C119.595 77.2066 119.006 77.2788 118.417 77.3509C115.767 77.7118 113.264 78.4336 110.761 79.2997C108.258 80.1658 105.903 81.1763 103.473 82.1146C101.044 83.0529 98.6885 84.0633 96.2592 85.0738L96.3328 85.2181C98.8357 84.4242 101.265 83.6303 103.694 82.8363C106.123 81.9702 108.626 81.1763 111.056 80.3823C113.485 79.6606 115.988 79.011 118.49 78.7223C121.067 78.4336 123.643 78.2892 126.22 78.217C128.944 78.1449 131.741 78.0727 134.465 78.0005C135.569 78.0727 136.747 78.217 137.851 78.3614C140.501 78.6501 143.151 79.011 145.801 79.444C148.451 79.8771 151.101 80.3102 153.678 80.8154C154.34 80.9597 155.003 81.1041 155.592 81.2485C155.739 81.3206 155.96 81.3206 156.107 81.3928L156.033 81.6093C155.518 82.7642 154.855 83.9911 154.267 85.146C144.697 104.056 134.317 122.533 123.054 140.577C117.46 149.599 111.792 158.549 105.755 167.283C102.737 171.613 99.4982 175.872 96.4064 180.13L87.0575 193.41C83.8922 197.669 80.874 202.072 77.7086 206.258C74.5433 210.516 71.157 214.558 67.4764 218.383C67.0347 218.889 66.5194 219.322 66.0777 219.827C65.636 220.332 65.1207 220.693 64.6054 221.126C63.5749 221.92 62.397 222.57 61.2928 223.291C59.0108 224.591 56.6552 226.106 54.6676 227.911C51.1342 231.086 48.5577 235.056 46.5701 239.17C46.4229 239.315 46.2757 239.459 46.1285 239.603C46.5702 238.088 46.791 236.644 47.0854 235.128C48.116 229.065 49.2939 223.075 50.6189 217.084ZM106.86 71.2159C105.682 71.2881 104.43 71.3603 103.252 71.3603C103.768 71.2881 104.283 71.2159 104.872 71.2159C105.535 71.2159 106.197 71.2159 106.86 71.2159ZM215.955 375.15C215.807 378.254 215.366 381.357 214.63 384.389C214.262 385.905 213.82 387.42 213.231 388.864C212.642 390.307 211.98 391.751 211.317 393.122C208.299 393.267 205.06 393.194 202.042 392.761C198.95 392.328 195.858 391.679 192.914 390.813C186.951 389.08 181.209 386.554 175.688 383.739C170.167 380.924 164.793 377.749 159.493 374.501L155.518 372.119C154.193 371.325 152.721 370.603 151.175 370.242C150.365 370.026 149.555 369.954 148.746 370.026C147.936 370.098 147.126 370.314 146.39 370.675C144.918 371.325 143.666 372.408 142.562 373.418L129.017 386.193L122.245 392.545C119.963 394.638 117.754 396.803 115.325 398.68C112.896 400.556 110.172 402.072 107.154 402.65C104.136 403.299 101.044 403.227 97.9523 403.01C91.7688 402.433 85.5117 401.711 79.3281 401.062L52.4592 398.391C53.1954 391.318 53.7107 384.317 54.2996 377.243C54.8149 369.954 55.3302 362.664 55.6246 355.374C55.9191 348.084 56.1399 340.794 56.7288 333.505C57.2441 326.215 57.9802 318.925 58.79 311.707C59.5997 304.49 60.4095 297.2 61.5873 290.054C62.6915 282.837 64.1638 275.691 66.0777 268.69C67.9917 261.689 70.4209 254.76 73.4391 248.192C74.9849 244.872 76.678 241.624 78.592 238.521C80.5059 235.417 82.5671 232.386 84.8491 229.499L84.7019 229.426C82.1991 232.169 79.9906 235.128 77.9295 238.16C75.8683 241.263 74.1016 244.439 72.4085 247.759C69.0959 254.327 66.5194 261.256 64.5318 268.329C60.4831 282.476 58.79 297.128 57.5386 311.635C56.9496 318.925 56.6552 326.215 56.2135 333.505C55.7718 340.794 55.1093 348.084 54.5204 355.374C53.8579 362.664 53.4898 369.954 53.1217 377.243C52.7537 384.317 52.4592 391.39 52.312 398.463L41.9325 397.308C40.3866 397.164 38.8407 397.02 37.3685 396.659C35.8962 396.298 34.4975 395.793 33.3197 394.927C32.1419 394.061 31.3322 392.834 30.8169 391.462C30.3016 390.091 30.0807 388.647 29.8599 387.132C29.6391 385.616 29.5654 384.1 29.271 382.512C29.271 382.44 29.271 382.368 29.1974 382.296C29.4182 380.924 29.7127 379.481 30.0807 378.11C30.596 375.944 31.3322 373.851 32.1419 371.83C32.9517 369.809 33.9823 367.861 35.2337 365.984C36.1907 364.54 37.2212 363.169 38.3254 361.798C38.3991 363.025 38.6199 364.324 38.988 365.551C39.4296 367.211 40.0922 368.799 40.9019 370.387C42.4478 373.49 44.4354 376.305 46.4229 379.048L47.3063 380.275L47.4535 378.759C47.6744 376.594 47.9688 374.429 48.1896 372.263C48.3369 370.098 48.5577 367.933 48.7049 365.767L48.9258 362.519C48.9994 361.437 49.073 360.354 49.1466 359.272C49.2939 357.106 49.4411 354.941 49.5147 352.776C49.7355 348.445 49.8828 344.042 50.03 339.712C50.1772 335.381 50.2508 330.978 50.3244 326.648C50.4717 317.987 50.6925 309.253 51.2078 300.592C51.355 298.427 51.5023 296.262 51.7231 294.096C51.9439 291.931 52.1648 289.766 52.3856 287.6L52.7537 284.353C52.9009 283.27 53.0481 282.187 53.269 281.177C53.637 279.084 54.2259 276.991 55.1829 274.97L55.0357 274.897C53.9315 276.774 53.1954 278.867 52.6065 281.032C52.0175 283.126 51.7231 285.291 51.355 287.456C51.2078 288.539 50.987 289.621 50.8397 290.704L50.3981 293.952C50.1036 296.117 49.8828 298.283 49.6619 300.448C48.8522 309.109 48.7786 317.842 48.7786 326.576C48.7786 330.906 48.8522 335.309 48.8522 339.64C48.8522 341.805 48.9258 343.97 48.9258 346.135C48.9258 348.301 48.9258 350.466 48.8522 352.631C48.7786 356.962 48.5577 361.292 48.0424 365.623C47.8216 367.788 47.5271 369.954 47.2327 372.119C47.0118 373.779 46.7174 375.439 46.4229 377.099C45.7604 376.089 45.0979 375.15 44.4354 374.14C43.552 372.696 42.6686 371.253 41.9325 369.809C40.3866 366.85 39.356 363.674 39.2088 360.354L39.1352 358.839L38.1782 359.993C36.7796 361.726 35.3809 363.53 34.2767 365.479C33.0989 367.427 32.0683 369.448 31.2586 371.469C30.4488 373.562 29.8599 375.728 29.4182 377.893C29.1974 379.048 28.9765 380.203 28.8293 381.285C28.5349 380.13 28.1668 378.976 27.6515 377.821C26.3265 374.934 24.1917 372.48 21.836 370.387C17.1248 366.2 11.6774 363.097 6.96613 359.127C5.78831 358.117 4.68411 357.106 3.65353 356.024C2.69655 354.941 1.8868 353.642 2.32848 352.559C2.54932 351.982 2.991 351.477 3.57991 350.899C4.09521 350.322 4.68411 349.744 5.12579 349.095C6.08277 347.796 6.8189 346.352 7.3342 344.836C8.36478 341.805 8.51201 338.629 8.29117 335.453C7.99672 332.35 7.3342 329.318 6.52445 326.287C6.08277 324.771 5.64109 323.328 5.12579 321.884C4.6105 320.441 4.09521 318.997 3.65353 317.554C2.69655 314.667 1.96042 311.707 1.51874 308.748C1.07706 305.789 0.929828 302.758 1.51874 299.798C1.81319 298.355 2.25487 296.911 2.91739 295.612C3.57991 294.313 4.46327 293.086 5.49386 292.075C7.62865 289.982 10.426 288.539 13.0024 286.807C14.3275 285.94 15.5789 284.93 16.6831 283.775C17.7873 282.62 18.7443 281.321 19.4804 279.878C21.0263 277.135 21.9097 274.104 22.7194 271.072C23.4555 268.113 24.0444 265.081 24.8542 262.122C25.6639 259.163 26.6209 256.276 28.314 253.822C29.1238 252.595 30.1544 251.44 31.3322 250.502C32.51 249.564 33.835 248.842 35.2337 248.192C36.6323 247.543 38.1046 246.965 39.5033 246.316C40.9019 245.594 42.3742 244.8 43.4784 243.573C44.509 242.49 45.1715 241.191 45.6132 239.892C45.6868 239.82 45.7604 239.748 45.9076 239.603C45.7604 239.964 45.5396 240.325 45.3923 240.686L45.5396 240.758C45.7604 240.253 46.0549 239.748 46.2757 239.242C48.5577 237.149 51.1342 235.345 53.8579 233.901C55.6982 232.963 57.6122 232.169 59.5997 231.447C61.5873 230.726 63.5749 230.148 65.5624 229.354C66.0777 229.138 66.5194 228.921 67.0347 228.632L68.4333 227.839C69.3167 227.261 70.2001 226.684 71.0834 226.106C72.8501 224.879 74.4696 223.58 76.0891 222.209C77.7086 220.837 79.2545 219.394 80.7268 217.95C82.1991 216.435 83.6713 214.919 84.9964 213.403C87.7201 210.3 90.4438 207.052 93.0938 203.876C95.8175 200.7 98.4676 197.524 101.044 194.204C101.339 193.843 101.559 193.483 101.854 193.122C97.5842 200.123 93.2411 207.124 89.1187 214.197C88.3826 215.424 87.6464 216.723 86.9839 218.023C86.2478 219.322 85.5853 220.621 85.07 221.992C84.7755 222.714 84.5547 223.436 84.3338 224.085C84.113 224.807 83.9658 225.457 83.6713 226.034C83.156 227.189 82.1254 228.127 81.0948 229.21C77.267 233.757 72.8501 237.727 69.1695 242.274C65.4152 246.821 62.6179 252.018 58.8636 256.42C57.0233 258.658 54.8885 260.679 52.4592 262.267C50.03 263.854 47.3063 265.009 44.6562 266.164C39.2824 268.474 33.835 270.928 28.8293 274.176C26.3265 275.836 23.9708 277.568 21.7624 279.517C19.554 281.465 17.4192 283.486 15.5053 285.652L15.5789 285.724C19.8485 281.682 24.4125 278.073 29.4182 275.042C31.9211 273.526 34.4976 272.155 37.1476 270.856C39.7977 269.629 42.5214 268.474 45.1715 267.247C47.8216 266.02 50.5453 264.721 52.9745 262.988C55.4774 261.256 57.3913 259.019 59.2317 256.709C61.072 254.399 62.7651 252.018 64.4582 249.636C66.1513 247.254 67.9917 245.016 69.9056 242.851C73.8071 238.593 78.2239 234.695 82.4199 230.581C82.9352 230.076 83.4505 229.571 83.9658 228.993C84.4811 228.416 84.9964 227.766 85.2908 227.045C85.6589 226.323 85.8061 225.529 86.0269 224.879C86.2478 224.158 86.395 223.508 86.6895 222.858C87.7201 220.26 89.0451 217.662 90.5174 215.135L99.1301 199.978C101.118 196.514 103.105 193.05 105.019 189.513C106.197 187.781 107.301 186.048 108.405 184.244C110.614 180.707 112.528 177.026 114.663 173.49C118.859 166.344 123.496 159.488 127.619 152.198C128.649 150.393 129.68 148.517 130.563 146.64C130.784 146.135 131.078 145.63 131.299 145.124C130.269 147.362 129.532 149.744 128.87 152.126C128.207 154.868 127.692 157.683 127.324 160.426C126.588 166.056 126.22 171.685 125.999 177.315C125.778 182.945 125.778 188.575 125.852 194.204C125.925 199.834 126.073 205.464 126.293 211.094L126.956 227.983C127.03 230.798 127.103 233.613 127.177 236.427C127.177 237.871 127.25 239.242 127.471 240.686C127.692 242.129 128.134 243.573 128.944 244.8C129.385 245.45 129.901 245.955 130.489 246.388C131.078 246.821 131.741 247.182 132.403 247.47C133.728 248.048 135.053 248.553 136.01 249.564C136.967 250.502 137.556 251.801 137.851 253.172C138.145 254.544 138.219 255.915 138.072 257.286C137.777 260.029 136.894 262.772 136.82 265.659C136.747 267.102 136.967 268.546 137.409 269.917C137.851 271.289 138.513 272.588 139.176 273.815C140.574 276.269 142.194 278.651 143.151 281.249C144.108 283.847 144.255 286.662 144.034 289.405C143.519 294.962 141.605 300.303 140.869 306.005C140.501 308.82 140.427 311.78 141.311 314.667C141.752 316.11 142.341 317.409 143.151 318.708C143.961 319.935 144.991 321.018 146.095 322.029C148.23 324.05 150.512 325.71 152.426 327.658C153.383 328.669 154.193 329.679 154.855 330.906C155.444 332.061 155.886 333.36 156.033 334.659C156.475 337.33 156.181 340.145 156.033 342.96C155.886 345.775 155.739 348.734 156.549 351.621C156.917 353.064 157.579 354.436 158.463 355.663C159.346 356.89 160.376 357.972 161.481 358.911C163.763 360.787 166.413 362.086 169.137 363.097C171.86 364.107 174.584 364.901 177.308 365.84C178.633 366.273 179.958 366.778 181.283 367.355C182.534 367.933 183.786 368.654 184.743 369.593C186.73 371.542 187.466 374.356 187.466 377.099C187.466 379.914 186.877 382.657 186.215 385.399L186.362 385.472C187.172 382.801 187.908 379.986 187.982 377.171C188.055 375.728 187.908 374.284 187.54 372.913C187.098 371.542 186.362 370.17 185.331 369.16C184.301 368.077 182.976 367.283 181.724 366.634C180.399 365.984 179.074 365.479 177.749 364.973C175.026 363.963 172.302 363.169 169.652 362.086C167.002 361.076 164.499 359.705 162.438 357.972C161.407 357.106 160.45 356.096 159.714 354.941C158.978 353.858 158.389 352.631 158.094 351.332C157.358 348.734 157.506 345.919 157.653 343.176C157.8 340.361 158.094 337.474 157.653 334.587C157.432 333.144 156.99 331.7 156.328 330.329C155.665 328.958 154.708 327.803 153.678 326.72C151.617 324.627 149.261 322.967 147.2 321.09C146.169 320.152 145.212 319.142 144.476 318.059C143.74 316.976 143.151 315.749 142.783 314.45C141.973 311.852 141.973 309.109 142.341 306.366C143.004 300.881 144.844 295.396 145.212 289.694C145.359 286.879 145.139 283.919 144.108 281.177C143.077 278.434 141.384 276.124 139.912 273.743C139.176 272.516 138.587 271.289 138.145 269.989C137.704 268.69 137.483 267.319 137.556 265.948C137.63 263.133 138.44 260.462 138.734 257.575C138.881 256.132 138.881 254.688 138.513 253.317C138.219 251.945 137.63 250.502 136.599 249.491C135.569 248.409 134.097 247.831 132.845 247.254C132.183 246.965 131.594 246.604 131.078 246.243C130.563 245.81 130.121 245.305 129.753 244.728C129.017 243.573 128.649 242.274 128.502 240.902C128.355 239.531 128.281 238.16 128.355 236.716C128.355 233.901 128.355 231.086 128.355 228.272C128.281 222.642 128.06 217.012 127.913 211.382C127.545 200.123 127.177 188.863 127.398 177.604C127.471 171.974 127.766 166.344 128.355 160.787C129.017 155.229 129.901 149.599 132.183 144.475L132.035 144.403C132.551 143.32 132.992 142.31 133.508 141.227C135.201 137.402 136.82 133.648 138.44 129.823C138.661 129.318 138.808 128.885 139.029 128.38C137.998 131.483 137.188 134.587 136.452 137.762C135.422 142.67 134.538 147.578 133.949 152.559C133.36 157.539 133.066 162.519 133.36 167.571C133.655 172.551 134.317 177.532 135.201 182.44C136.158 187.348 137.262 192.183 138.145 197.091C138.366 198.318 138.513 199.545 138.513 200.772C138.513 201.999 138.44 203.226 138.219 204.453C137.851 206.907 137.483 209.434 137.483 211.888C137.335 216.94 138.145 221.848 138.734 226.828C139.323 231.736 139.765 236.644 139.176 241.624H139.323C140.501 236.716 140.354 231.664 139.912 226.684C139.47 221.704 138.808 216.796 138.661 211.888C138.513 209.434 138.734 206.98 138.955 204.526C139.029 203.299 139.102 201.999 139.029 200.772C138.955 199.545 138.808 198.246 138.587 197.019C138.219 194.565 137.63 192.111 137.262 189.657C136.894 187.203 136.526 184.749 136.158 182.295C135.495 177.387 134.98 172.479 134.759 167.499C134.538 162.591 134.833 157.683 135.348 152.703C135.79 147.795 136.526 142.887 137.409 137.979C137.851 135.525 138.292 133.071 138.881 130.689C139.397 128.38 140.059 126.142 140.795 123.905C146.39 110.552 151.69 97.1994 157.138 83.7746L156.99 83.7024C153.604 91.281 150.291 98.8595 147.052 106.51L136.967 129.174C135.274 132.999 133.581 136.752 131.888 140.505C131.005 142.382 130.121 144.258 129.238 146.135C128.355 148.012 127.398 149.744 126.293 151.548C122.098 158.694 117.607 165.623 113.485 172.912C111.424 176.521 109.583 180.274 107.596 183.883C105.608 187.492 103.4 191.029 100.897 194.277C95.8911 200.917 90.0757 206.907 84.4074 212.97C82.9352 214.486 81.5365 216.002 80.0643 217.445C79.3281 218.167 78.592 218.889 77.7822 219.61C77.0461 220.332 76.2364 221.054 75.5002 221.704C73.9543 223.075 72.3349 224.374 70.6417 225.601C69.832 226.251 68.9486 226.756 68.0653 227.333L66.7402 228.199C66.2985 228.488 65.8569 228.705 65.4152 228.849C63.5012 229.643 61.5137 230.293 59.5261 231.014C57.5386 231.736 55.6246 232.602 53.7843 233.613C51.2814 234.984 48.9994 236.716 47.0118 238.665C49.073 234.767 51.6495 231.159 55.0357 228.272C57.0233 226.539 59.3053 225.168 61.6609 223.869C62.8387 223.219 64.0165 222.57 65.1207 221.704C65.636 221.27 66.2249 220.837 66.6666 220.404C67.1819 219.971 67.6236 219.466 68.1389 219.033C71.9668 215.28 75.4266 211.166 78.7392 206.98C82.0518 202.793 85.1436 198.463 88.309 194.204L97.7315 181.357L102.443 174.933C103.989 172.768 105.534 170.603 107.007 168.437C112.969 159.632 118.564 150.538 123.864 141.443C126.514 136.896 129.164 132.277 131.814 127.658L139.691 113.872C144.918 104.634 150.291 95.4672 155.297 86.1564C155.886 85.146 156.401 84.0633 156.917 82.9807C157.138 83.4859 157.358 83.919 157.579 84.4242C158.021 85.146 158.536 85.8677 159.051 86.4451C161.186 88.8991 163.542 90.9201 164.352 93.8793C164.793 95.3228 165.088 96.9107 165.456 98.4264C165.677 99.2925 165.971 100.231 166.413 101.025L165.529 101.241L165.971 102.035L183.491 135.453L185.258 138.917C185.479 142.021 185.405 145.197 185.258 148.372C185.184 150.826 185.111 153.28 185.184 155.807C185.258 158.261 185.479 160.787 185.773 163.241C186.951 173.129 189.675 182.656 191.589 192.328C193.503 201.999 194.312 211.815 194.828 221.631L195.49 236.427C195.711 241.335 195.932 246.316 196.005 251.224C196.226 261.112 195.711 270.928 194.607 280.744L193.723 288.106L192.766 295.468C192.104 300.376 191.515 305.284 190.926 310.192C189.822 320.008 189.012 329.824 188.423 339.712C187.908 349.6 187.687 359.488 187.982 369.304H188.129C188.35 359.416 188.791 349.6 189.527 339.712C189.822 334.804 190.264 329.896 190.705 324.988C191.147 320.08 191.589 315.172 192.104 310.264C192.987 300.448 194.018 290.632 195.048 280.816C195.49 275.908 196.005 271 196.3 266.02C196.594 261.112 196.742 256.132 196.815 251.224C196.815 246.316 196.815 241.335 196.668 236.427C196.521 231.52 196.447 226.539 196.226 221.631C196.005 216.723 195.711 211.743 195.269 206.835C194.828 201.927 194.091 197.019 193.061 192.111C191.147 182.367 188.276 172.912 186.877 163.169C186.583 160.715 186.288 158.333 186.141 155.879C185.994 153.425 185.994 150.971 185.994 148.517C185.994 145.702 185.994 142.815 185.7 140L187.834 144.042C189.233 146.857 190.632 149.672 191.589 152.559C193.576 158.405 193.797 164.756 194.68 170.964C198.067 195.937 206.164 219.827 210.802 244.439C211.98 250.574 212.936 256.781 213.525 262.988C214.114 269.196 214.335 275.475 214.262 281.682C214.188 294.169 213.084 306.655 212.642 319.214C212.421 325.493 212.421 331.772 212.716 338.052C212.863 341.155 213.157 344.331 213.525 347.435L214.703 356.745C215.66 362.664 216.323 368.943 215.955 375.15Z" fill="#272727"/>
  <path d="M180.547 199.545C179.369 192.183 177.381 185.038 175.32 177.893H175.173C176.792 185.11 178.486 192.328 179.443 199.69C179.958 203.371 180.252 206.98 180.252 210.661C180.252 214.342 180.105 218.023 179.737 221.703C178.486 236.427 176.056 251.007 173.701 265.659C172.523 272.949 171.198 280.238 169.946 287.528L167.959 298.499C167.37 302.18 166.707 305.789 166.192 309.47C164.057 324.121 163.321 339.062 164.573 353.858H164.72C164.72 351.981 164.72 350.177 164.72 348.3C164.72 347.362 164.72 346.424 164.72 345.558L164.793 342.815C164.867 340.938 164.867 339.134 164.941 337.257L165.235 331.7C165.309 329.823 165.53 328.019 165.677 326.142C165.824 324.338 165.971 322.461 166.192 320.657C166.634 316.976 166.928 313.295 167.444 309.614C168.253 302.252 169.284 294.962 170.462 287.6C171.713 280.31 173.112 273.021 174.584 265.731C175.32 262.122 176.056 258.441 176.719 254.832L177.676 249.347L178.559 243.862C178.854 242.057 179.148 240.181 179.369 238.376L180.179 232.891L180.841 227.333C181.062 225.457 181.283 223.652 181.357 221.776C181.651 218.095 181.798 214.342 181.725 210.588C181.577 206.907 181.136 203.226 180.547 199.545Z" fill="#272727"/>
  <path d="M169.578 246.46C171.787 238.304 173.995 230.22 175.982 221.992L175.835 221.92C172.964 229.859 170.314 237.871 168.032 246.027C166.854 250.069 165.897 254.183 164.94 258.297C163.983 262.411 163.174 266.525 162.511 270.711C161.849 274.897 161.186 279.011 160.303 283.198C159.493 287.312 158.462 291.426 157.358 295.467L155.739 301.602C155.224 303.623 154.782 305.789 154.708 307.954C154.635 310.119 155.15 312.285 155.739 314.305C156.033 315.316 156.328 316.326 156.475 317.337C156.622 318.347 156.696 319.43 156.549 320.44H156.696C157.285 318.347 156.917 316.182 156.475 314.089C156.254 313.078 156.033 311.996 155.96 310.985C155.812 309.975 155.812 308.964 155.886 307.954C156.18 303.84 157.726 299.87 158.536 295.756C158.978 293.663 159.346 291.57 159.714 289.549L160.745 283.342C161.481 279.156 162.29 275.042 163.247 270.928C164.204 266.814 165.235 262.772 166.266 258.658C167.37 254.544 168.474 250.502 169.578 246.46Z" fill="#272727"/>
  <path d="M151.396 208.351C150.954 212.826 150.291 217.228 149.335 221.559C148.819 223.724 148.304 225.889 147.641 227.983C146.979 230.076 146.243 232.241 145.433 234.334C144.697 236.427 143.814 238.592 143.151 240.686C142.783 241.768 142.488 242.851 142.194 243.933C141.9 245.016 141.679 246.171 141.532 247.326C141.237 249.563 141.237 251.873 141.384 254.11C141.532 256.348 141.826 258.585 142.268 260.823H142.415C142.562 258.585 142.488 256.348 142.488 254.11C142.488 251.873 142.562 249.635 142.709 247.47C142.783 245.233 143.004 242.995 143.593 240.902C144.182 238.737 145.212 236.716 146.169 234.695C147.2 232.674 148.157 230.581 148.893 228.488C149.629 226.322 150.291 224.157 150.807 221.92C151.69 217.445 151.985 212.898 151.469 208.351H151.396Z" fill="#272727"/>
  <path d="M48.8521 276.846C47.0854 280.455 45.7603 284.208 44.2144 287.817C42.7422 291.426 41.1227 295.107 39.4296 298.643C37.7365 302.252 36.117 305.861 34.4975 309.47C32.878 313.079 31.1849 316.687 29.4182 320.224C27.6514 323.761 25.6639 327.225 23.8235 330.762C21.9832 334.298 20.2901 337.907 18.6706 341.444C16.9775 345.053 15.4316 348.661 13.8857 352.342L14.033 352.415C16.0205 348.95 17.8609 345.486 19.7012 341.949C21.5415 338.412 23.3083 334.876 24.9277 331.267C26.5472 327.658 28.0931 323.977 29.7862 320.441C31.4793 316.832 33.3197 313.295 35.16 309.831C37.0003 306.294 38.8407 302.83 40.6074 299.221C42.3741 295.684 44.0672 292.075 45.6131 288.394C47.0854 284.713 48.3368 280.96 49.8827 277.279C51.3549 273.67 53.1953 270.134 55.6245 266.958L55.4773 266.886C52.68 269.701 50.6188 273.237 48.8521 276.846Z" fill="#272727"/>
  <path d="M73.5862 57.2861H73.439C73.1445 58.4409 72.9973 59.5236 72.8501 60.6784C72.7765 61.2558 72.7029 61.8332 72.7029 62.3384C72.6293 62.9158 72.6293 63.4932 72.6293 63.9984C72.6293 65.1532 72.7765 66.2358 72.7765 67.3906C72.7029 68.5454 72.5556 69.6281 72.3348 70.7107C72.0404 71.7933 71.8195 72.9481 71.6723 74.0307C71.4515 75.1134 71.3042 76.2682 71.157 77.3508C70.8626 79.5882 70.7153 81.8257 70.7153 84.1353H70.8626C71.7459 81.97 72.3348 79.8048 72.7029 77.5673C72.8501 76.4125 72.9973 75.3299 73.0709 74.1751C73.1445 73.5977 73.1445 73.0203 73.1445 72.4429C73.1445 71.8655 73.1445 71.2881 73.1445 70.7107C73.1445 69.5559 73.1445 68.4733 73.2918 67.3185C73.439 66.1637 73.7334 65.081 73.8807 63.9262C74.0279 62.7714 74.0279 61.6888 74.0279 60.534C73.9543 59.5957 73.8807 58.4409 73.5862 57.2861Z" fill="#272727"/>
  <path d="M94.8606 20.7649C94.9342 21.7754 94.9342 22.858 94.8606 23.8685C94.8606 24.3738 94.7869 24.9512 94.8606 25.4564C94.8606 25.9616 94.9342 26.4669 94.9342 27.0443C95.0078 28.0547 95.155 29.1374 95.3759 30.1479C95.8175 32.1688 96.5537 34.1897 97.5843 35.9941L97.7315 35.922C97.5843 33.8288 97.2162 31.8079 96.9217 29.787C96.8481 29.2817 96.7745 28.7765 96.6273 28.2713L96.3328 26.7556C96.1856 25.7451 95.9648 24.7346 95.6703 23.7242C95.5967 23.2189 95.4495 22.7137 95.3759 22.2085C95.3023 21.7032 95.3022 21.198 95.3022 20.6928C95.3022 20.1875 95.3759 19.6823 95.4495 19.1771C95.5231 18.6718 95.5967 18.1666 95.6703 17.6614C95.7439 17.1561 95.7439 16.6509 95.7439 16.1457C95.7439 15.6404 95.7439 15.1352 95.7439 14.6299C95.7439 14.1247 95.7439 13.6195 95.6703 13.1142C95.6703 12.609 95.5967 12.1038 95.5231 11.5264H95.3759C94.9342 12.5368 94.7133 13.5473 94.5661 14.5578C94.4189 15.5682 94.2716 16.6509 94.3453 17.6614C94.5661 18.6718 94.7869 19.6823 94.8606 20.7649Z" fill="#272727"/>
</svg>
