<svg width="116" height="118" viewBox="0 0 116 118" fill="none"
  xmlns="http://www.w3.org/2000/svg">
  <path d="M150.342 -9.99436L150.423 -9.77631C150.438 -9.71204 150.452 -9.64778 150.466 -9.58351C150.533 -9.42973 150.497 -9.28746 150.461 -9.1452C150.425 -9.00294 150.389 -8.86066 150.352 -8.7184C150.104 -8.16087 149.685 -7.76867 149.252 -7.44073C149.023 -7.25726 148.819 -7.11278 148.589 -6.92931C148.36 -6.74583 148.117 -6.62661 147.874 -6.5074L147.158 -6.08552C146.915 -5.96631 146.671 -5.84711 146.403 -5.68891C145.891 -5.41149 145.351 -5.2626 144.826 -5.04945C144.286 -4.90056 143.746 -4.75166 143.206 -4.60278C142.112 -4.36927 141.004 -4.20002 139.911 -3.9665C138.817 -3.73299 137.765 -3.30668 136.753 -2.85512C136.266 -2.6167 135.755 -2.33928 135.307 -2.07561C134.835 -1.77293 134.348 -1.53449 133.89 -1.16755C132.04 0.068433 130.335 1.50874 128.63 2.94904C125.694 6.30036 123.82 10.5013 123.164 14.8796C122.843 17.1009 122.818 19.2925 123.104 21.5187C123.351 23.7196 123.741 25.9573 124.052 28.1445C124.753 32.5694 125.325 37.0218 125.29 41.4693C125.23 45.9558 124.498 50.4511 122.635 54.5488C121.703 56.5976 120.472 58.5086 119.031 60.229C117.59 61.9495 115.899 63.454 114.063 64.7543C110.482 67.4696 106.517 69.6615 102.429 71.4425C98.3154 73.2625 94.0781 74.6716 89.9081 76.2346C88.8817 76.6219 87.8302 77.0482 86.843 77.4608C85.8307 77.9123 84.8184 78.3639 83.8453 78.8407C81.9132 79.8587 79.956 80.9156 78.1979 82.2664L76.8982 83.2502C76.465 83.5782 76.0851 83.9956 75.6518 84.3236L74.4446 85.4222L73.33 86.6356L72.2153 87.849L71.154 89.152L70.1318 90.4802L69.1097 91.8084C66.4875 95.3618 64.1932 99.1816 62.277 103.19C61.3314 105.174 60.5035 107.235 59.6756 109.295C59.2687 110.357 58.8869 111.381 58.4408 112.418C58.2177 112.936 57.9946 113.455 57.6288 113.937C57.478 114.171 57.1986 114.432 56.9302 114.59L56.2145 115.012C55.2696 115.618 54.3247 116.223 53.3264 116.739C52.8148 117.016 52.3282 117.255 51.8025 117.468C51.2767 117.681 50.7117 117.869 50.1186 117.928C49.5254 117.988 48.9041 117.918 48.355 117.565C47.9237 117.287 47.4561 117.151 46.9555 117.325C46.48 117.46 45.8899 117.687 45.2434 117.657C44.6361 117.652 44.051 117.441 43.5552 117.177C43.2948 117.064 43.0595 116.912 42.8242 116.761L42.0932 116.345C41.5975 116.081 41.1158 115.881 40.584 115.759C40.0521 115.637 39.5233 115.683 38.9552 115.703C38.3872 115.724 37.8051 115.68 37.234 115.533C36.6629 115.385 36.1672 115.121 35.6463 114.896L34.9153 114.48C34.68 114.329 34.4447 114.177 34.1843 114.065C33.1928 113.536 32.1903 113.111 31.1627 112.725C30.1351 112.339 29.0573 112.031 27.9795 111.723C26.9016 111.415 25.8238 111.107 24.7569 110.695C24.4965 110.583 24.2361 110.47 23.9616 110.293C23.8439 110.218 23.6871 110.116 23.6197 109.963C23.5271 109.848 23.4597 109.694 23.4316 109.566C23.3611 109.244 23.3942 108.934 23.4414 108.689C23.4886 108.443 23.4965 108.173 23.4402 107.916C23.3274 107.401 23.1755 106.862 22.9341 106.375C22.7178 105.85 22.4513 105.402 22.1204 104.968C21.4335 104.139 20.4923 103.533 19.5873 102.784C19.1669 102.403 18.7968 101.944 18.4911 101.471C18.3703 101.228 18.2104 100.959 18.1792 100.663C18.0836 100.381 18.0272 100.124 17.996 99.8278C17.8459 98.6826 18.0065 97.572 18.1671 96.4613C18.3669 95.3759 18.631 94.2768 18.9343 93.203L19.4608 91.6106C19.6195 91.1058 19.7641 90.5367 19.7549 90.0342C19.766 89.9309 19.6986 89.7771 19.7096 89.6738C19.6563 89.5843 19.6532 89.4168 19.5356 89.341C19.429 89.1619 19.2047 88.9071 19.0448 88.6385C18.7641 88.1266 18.5981 87.523 18.7035 86.9286C18.7446 86.3481 18.9284 85.8043 18.9836 85.2879C18.9885 84.8496 18.6436 84.3515 18.2624 83.9955C17.5112 83.1805 16.5951 82.5351 15.7183 81.9151C14.57 81.2857 13.3824 80.631 12.2593 79.9626C11.1361 79.2942 9.97368 78.6006 8.86152 77.8289C8.33762 77.4362 7.74937 77.0573 7.27571 76.5866C6.80206 76.1159 6.40378 75.5282 6.15931 74.874C5.91484 74.2198 5.79904 73.5382 5.85115 72.8543C5.87813 72.2095 6.00867 71.5762 6.30711 70.9406C5.55774 69.5197 4.87271 68.085 4.12334 66.6641C3.76121 65.9342 3.39909 65.2042 3.06209 64.4352C2.92729 64.1277 2.79248 63.8201 2.65768 63.5125C2.63256 63.5515 2.64666 63.6158 2.62153 63.6548C2.59641 63.6938 2.61049 63.758 2.53512 63.875L2.50999 63.914C2.50999 63.914 2.51 63.914 2.42054 63.9668C2.42054 63.9668 2.26672 64.0332 2.14907 63.9574C2.07064 63.9069 2.05656 63.8426 2.05656 63.8426C2.04246 63.7784 2.06758 63.7394 2.02837 63.7141C2.0535 63.6751 2.01428 63.6499 2.0394 63.6109C2.05043 63.5076 2.06147 63.4043 2.09763 63.2621C2.10866 63.1588 2.11969 63.0555 2.19507 62.9385C2.2061 62.8353 2.25635 62.7573 2.35685 62.6013C2.38197 62.5623 2.38196 62.5623 2.47143 62.5095C2.51862 62.264 2.63015 62.0047 2.67734 61.7592C2.90839 60.9699 3.03587 60.169 3.37047 59.3912C3.64072 58.6272 3.9753 57.8494 4.49189 57.1337C4.61752 56.9386 4.71802 56.7827 4.88286 56.6129L5.07283 56.4042C5.09795 56.3652 5.12308 56.3262 5.12308 56.3262C5.12308 56.3262 5.08385 56.3009 5.04464 56.2756C4.96621 56.2251 4.88778 56.1746 4.80935 56.1241L4.29953 55.7956C3.59363 55.3409 2.93799 54.8081 2.30748 54.2364C1.67695 53.6646 1.1359 53.0401 0.720465 52.2206C0.532357 51.8235 0.369377 51.3874 0.335075 50.9238C0.30078 50.4603 0.370027 50.0082 0.542841 49.5677C0.863343 48.7256 1.5368 48.1109 2.23844 47.6248C2.5963 47.4138 2.97929 47.1639 3.31203 46.9919L4.39971 46.4234C5.12953 46.0657 5.84526 45.6439 6.53586 45.261C7.22646 44.8781 7.94217 44.4562 8.57947 43.9838C8.89811 43.7476 9.21676 43.5113 9.53541 43.2751C9.67513 43.1444 9.85406 43.0389 9.99378 42.9082C10.0832 42.8555 10.1586 42.7385 10.2481 42.6857C9.715 41.7904 9.20704 40.8562 8.76343 39.9081C8.2665 38.8706 7.8088 37.8583 7.53003 36.7406C7.43444 36.4582 7.40319 36.1622 7.37195 35.8661C7.34071 35.5701 7.3346 35.235 7.52151 34.8588C7.57175 34.7808 7.62201 34.7028 7.69738 34.5857L7.81197 34.494C7.83709 34.455 7.90144 34.4413 7.90144 34.4413C8.01603 34.3495 8.16983 34.2831 8.28442 34.1913C8.55282 34.0331 8.83531 33.9392 9.07859 33.82C10.1693 33.4189 11.2239 33.1601 12.2362 32.7086C12.762 32.4954 13.2093 32.2317 13.6566 31.9681C14.0647 31.6791 14.498 31.3512 14.8528 30.9727C15.0176 30.803 15.1684 30.569 15.3191 30.335C15.4699 30.101 15.6206 29.867 15.7714 29.633C16.0729 29.165 16.4136 28.7222 16.7794 28.2405C17.1201 27.7978 17.5 27.3803 17.9051 26.9238C18.3242 26.5316 18.7434 26.1394 19.3053 25.784C19.5737 25.6258 19.8813 25.4928 20.3207 25.4999C20.4242 25.5115 20.5278 25.523 20.6314 25.5345C20.7098 25.5851 20.8526 25.6218 20.931 25.6724C21.0094 25.7229 21.0879 25.7734 21.1914 25.7849C21.3342 25.8217 21.4629 25.7943 21.6418 25.6888C21.8207 25.5833 21.9464 25.3883 22.1363 25.1796C22.2871 24.9456 22.4127 24.7506 22.5634 24.5166C22.6137 24.4386 22.6609 24.1931 22.6437 23.9613C22.6346 23.4587 22.5721 22.8666 22.5237 22.3387C22.4128 21.2188 22.3914 20.0461 22.6415 18.8827C22.7469 18.2884 22.9558 17.7056 23.2825 17.1986C23.6091 16.6916 24.0785 16.2214 24.576 15.8797C25.4958 15.3133 26.2839 14.6069 27.0829 13.7972C27.8961 13.0518 28.7595 12.2284 29.7829 11.6735L30.1799 11.4879C30.3338 11.4214 30.4624 11.3939 30.6163 11.3274C30.7701 11.261 30.8987 11.2335 31.0525 11.167L31.5029 11.0709C31.8246 11.0022 32.0961 11.0115 32.4319 11.0071C32.7285 10.9774 33.0532 11.0763 33.3639 11.1109C33.6746 11.1454 33.935 11.258 34.2597 11.3569C34.5453 11.4305 34.845 11.5683 35.0803 11.7199L35.8756 12.1219L36.6207 12.6019C37.6011 13.2335 38.3916 14.0739 39.2071 14.8752C40.7488 16.5306 42.1759 18.2778 43.6784 19.9079C45.1808 21.5381 46.823 23.0375 48.6159 24.3029C52.1766 26.8727 56.3796 28.5318 60.7712 29.2087C65.1378 29.9247 69.5926 29.8146 74.0021 29.3441C76.2069 29.1089 78.4367 28.8346 80.6133 28.4709C82.815 28.0681 84.9634 27.5758 87.0162 26.8012C87.0805 26.7875 87.1448 26.7738 87.2343 26.721C87.3238 26.6683 87.4133 26.6155 87.4635 26.5375L87.5168 26.6271C89.3766 25.8937 91.1408 24.878 92.7199 23.6326C94.3995 22.2313 95.8549 20.5752 97.3103 18.919C98.7265 17.2376 100.168 15.5172 101.609 13.7968C103.09 12.1016 104.584 10.4707 106.118 8.8651C107.652 7.25946 109.264 5.70437 110.915 4.17453L115.766 -0.4265C119.005 -3.47244 122.229 -6.58263 125.6 -9.48852C127.265 -10.9541 128.97 -12.3944 130.899 -13.5798C131.858 -14.1209 132.921 -14.6505 134.054 -14.8588C134.607 -14.9434 135.201 -15.0028 135.758 -14.9199C135.9 -14.8831 136.029 -14.9105 136.172 -14.8737L136.6 -14.7634C136.886 -14.6898 137.157 -14.6805 137.418 -14.5679C139.559 -14.016 141.776 -13.5811 143.932 -12.965C145.01 -12.6569 146.088 -12.3488 147.154 -11.9375C147.675 -11.7123 148.196 -11.4871 148.692 -11.223C149.188 -10.9588 149.697 -10.6304 150.067 -10.1712C150.182 -10.2629 150.314 -10.1229 150.342 -9.99436ZM9.50199 34.3687C9.25871 34.4879 9.00135 34.5428 8.79729 34.6873C8.66861 34.7148 8.59324 34.8318 8.50377 34.8845C8.47864 34.9235 8.43944 34.8982 8.41431 34.9372L8.38919 34.9762C8.36406 35.0152 8.33893 35.0542 8.33893 35.0542C8.26356 35.1712 8.25559 35.442 8.27274 35.6738C8.28989 35.9056 8.34625 36.1627 8.40261 36.4197C8.6673 37.4732 9.125 38.4855 9.54349 39.4725C10.0012 40.4848 10.5484 41.4443 11.0955 42.4039L11.2022 42.5829L11.1017 42.7389C10.9509 42.9729 10.772 43.0784 10.6072 43.2482C10.4674 43.3789 10.2634 43.5234 10.1237 43.6541C9.77988 43.9293 9.46124 44.1655 9.10337 44.3765C8.42687 44.8236 7.71114 45.2455 6.99541 45.6674C6.27969 46.0893 5.54987 46.4469 4.82005 46.8045L4.00076 47.2149C4.95179 46.9446 5.95612 46.7638 6.94942 46.6863C8.70379 46.5472 10.4391 46.7822 12.1273 47.2627C15.4895 48.1594 18.5453 49.9625 21.5448 51.5085C22.3009 51.8853 23.0571 52.262 23.8243 52.5355C24.2275 52.6849 24.6166 52.77 25.0057 52.8551L26.2373 53.0967L31.3037 53.9324C32.8852 54.2338 34.4668 54.5353 35.9981 54.9147C34.6819 54.2875 33.3657 53.6604 32.0997 52.9552C29.1897 51.3564 26.3551 49.6407 23.6853 47.7552C23.0045 47.2615 22.363 46.793 21.6822 46.2992C21.0658 45.7917 20.3207 45.3117 19.7263 44.5977C19.4488 44.2533 19.2073 43.7667 19.0836 43.3558C18.9598 42.945 18.8612 42.4951 18.7766 42.1095C18.6075 41.3384 18.3741 40.5809 18.0763 39.8372C17.4807 38.3498 16.6419 36.9816 15.5095 35.8107C14.9433 35.2252 14.352 34.6787 13.7356 34.1712C13.3293 33.8543 12.8588 33.5511 12.4274 33.2732C11.4935 33.7753 10.4389 34.0341 9.50199 34.3687ZM23.4232 24.9049C23.2724 25.1389 23.1216 25.3729 22.9458 25.6459C22.7558 25.8546 22.5799 26.1276 22.2864 26.3248C22.1467 26.4556 21.9537 26.4968 21.7999 26.5632C21.7355 26.577 21.6712 26.5907 21.6069 26.6044C25.2521 29.5599 28.9868 32.4625 32.7969 35.2482C34.8393 36.7295 36.8816 38.2107 38.9239 39.692C39.9576 40.4131 40.9913 41.1342 42.0502 41.8164C43.109 42.4985 44.2181 43.1026 45.3272 43.7067C47.5705 44.876 49.9253 45.786 52.3525 46.4115C53.5982 46.7173 54.8048 46.9979 56.0615 47.2005L59.7957 47.9506C60.6775 48.1323 61.6095 48.2361 62.5275 48.2756C60.9288 47.7423 59.3552 47.1701 57.7816 46.5979C55.9476 45.913 54.1247 45.1249 52.3017 44.3368C50.4788 43.5488 48.7311 42.6437 46.9946 41.6353C45.2972 40.6522 43.622 39.4626 42.201 38.0505C41.5031 37.325 40.8554 36.5214 40.3113 35.7294C39.728 34.9121 39.1588 34.1591 38.489 33.5621C38.3181 33.3968 38.122 33.2705 37.951 33.1051C37.7549 32.9788 37.584 32.8135 37.3628 32.7262C36.9706 32.4735 36.5392 32.1956 36.1219 31.982L33.5508 30.5463C30.2094 28.6697 26.854 26.7288 23.5629 24.7741C23.5488 24.7099 23.4483 24.8659 23.4232 24.9049ZM80.8216 29.2673C78.6199 29.6701 76.3901 29.9443 74.1461 30.1543C69.6723 30.6385 65.128 30.8014 60.6186 30.0486C56.1485 29.3211 51.7777 27.6642 48.0601 24.9933C46.2139 23.6384 44.5325 22.1137 42.9908 20.4583C41.4491 18.8029 40.0221 17.0558 38.5196 15.4256C37.7684 14.6105 36.992 13.8345 36.09 13.2534L35.4485 12.7849L34.7567 12.3944C34.5214 12.2428 34.2751 12.1945 34.0146 12.0819C33.7934 11.9946 33.533 11.882 33.2615 11.8727C32.237 11.6542 31.2327 11.8349 30.338 12.3623C29.4041 12.8644 28.6161 13.5708 27.817 14.3805C27.0039 15.1259 26.1404 15.9493 25.1563 16.5294C24.326 17.0431 23.7873 17.9653 23.5735 18.9864C23.3596 20.0076 23.392 21.077 23.5029 22.1969C23.5262 22.7638 23.6138 23.3169 23.6119 23.9228C23.615 24.0903 23.6039 24.1936 23.607 24.3611C24.7945 25.0157 26.0825 25.5144 27.3957 25.9741C28.748 26.459 30.1256 26.9049 31.503 27.3508C34.258 28.2426 36.9989 29.0702 39.7287 30.0011C41.1062 30.447 42.4586 30.9319 43.8251 31.4811C44.4887 31.7431 45.1915 32.0303 45.83 32.3313C46.4685 32.6322 47.1603 33.0227 47.7737 33.3627C49.0396 34.0678 50.2413 34.7868 51.5685 35.3107C52.8314 35.8483 54.245 36.152 55.6446 36.3914C58.4437 36.8702 61.3121 36.8969 64.1351 36.5633C66.9581 36.2297 69.7499 35.6001 72.4713 34.6491C76.7981 33.1872 80.8663 31.0069 84.657 28.4821C83.3701 28.7569 82.0833 29.0316 80.8216 29.2673ZM102.276 14.2263C100.86 15.9077 99.4183 17.6281 98.0162 19.3738C97.2956 20.234 96.5749 21.0942 95.7758 21.9039C95.016 22.7388 94.1777 23.5232 93.3253 24.2434C91.5562 25.6974 89.5487 26.8324 87.3924 27.5954C86.6736 27.8498 85.9799 28.0652 85.2219 28.2943C81.359 31.1035 77.14 33.5178 72.6483 35.1495C67.259 37.141 61.2943 38.0443 55.5171 37.1923C54.8173 37.0726 54.0783 36.9276 53.3645 36.7436C52.6506 36.5597 51.9367 36.3757 51.2088 36.1275C49.8172 35.6173 48.512 34.8868 47.2853 34.2069C46.6327 33.8417 46.0585 33.527 45.42 33.226C44.7815 32.9251 44.143 32.6241 43.4794 32.3622C42.1522 31.8382 40.825 31.3143 39.4726 30.8294C36.7679 29.8595 34.038 28.9287 31.3584 27.9199C29.7064 27.2971 28.0544 26.6743 26.4275 26.0126C28.8559 27.4114 31.3345 28.7322 33.8633 29.9751L36.4847 31.3327C36.9412 31.5716 37.3585 31.7853 37.7899 32.0632C37.986 32.1895 38.2213 32.3411 38.4566 32.4927C38.6527 32.619 38.8628 32.8096 39.0338 32.9749C39.8212 33.6477 40.4437 34.4902 41.013 35.2433C41.5963 36.0605 42.1906 36.7746 42.8493 37.4748C44.1919 38.8364 45.7887 39.9755 47.4609 40.9976C49.1331 42.0197 50.8807 42.9248 52.6142 43.7656C54.3869 44.6317 56.1455 45.4335 57.9685 46.2216C59.6095 46.9476 61.2756 47.6347 62.9417 48.3217C64.3633 48.3546 65.7819 48.2199 67.1863 48.021C69.6595 47.6275 72.0622 46.9128 74.3441 45.9547C78.9473 44.0638 83.1853 41.2754 86.9496 38.0163C87.9166 37.2044 88.8052 36.342 89.6937 35.4796L91.0124 34.1217C91.4175 33.6652 91.8225 33.2087 92.1884 32.727C93.6768 30.7611 94.8767 28.554 96.0766 26.3469C98.4763 21.9328 100.784 17.4039 103.601 13.2034C104.053 12.5014 104.519 11.8637 105.011 11.1869C104.072 12.1274 103.186 13.1573 102.276 14.2263ZM148.653 -11.2482C148.157 -11.5124 147.636 -11.7376 147.154 -11.9375C146.127 -12.3235 145.049 -12.6316 143.971 -12.9397C141.79 -13.5168 139.613 -13.9265 137.407 -14.4646C136.304 -14.7337 135.229 -14.8742 134.199 -14.6545C133.131 -14.46 132.132 -13.9441 131.213 -13.3777C129.348 -12.206 127.682 -10.7404 126.017 -9.27487C122.725 -6.31847 119.54 -3.183 116.315 -0.0728038L111.504 4.55349C110.246 5.73013 109.003 6.97101 107.785 8.17289C106.433 9.84057 105.199 11.584 104.043 13.378C101.33 17.5901 99.1258 22.1305 96.7653 26.5699C95.6047 28.8022 94.3797 31.0483 92.8802 33.1175C92.4892 33.6382 92.0982 34.159 91.654 34.5902L90.3353 35.9481C89.4216 36.8495 88.533 37.7119 87.5409 38.5628C85.6211 40.2508 83.5946 41.7598 81.4756 43.154C79.3174 44.523 77.0918 45.7381 74.7063 46.6846C72.3207 47.6312 69.8537 48.3597 67.3021 48.7026C64.7505 49.0455 62.1426 49.1314 59.626 48.5586L55.9279 47.6663C54.6822 47.3605 53.4616 47.0156 52.241 46.6707C49.7856 45.9167 47.4418 44.9035 45.1734 43.7732C40.6616 41.4737 36.3227 38.7337 32.2632 35.7321C28.4641 32.8432 24.6761 29.851 21.268 26.4413C21.2288 26.4161 21.1644 26.4298 21.1252 26.4045C20.9181 26.3815 20.7612 26.2804 20.6044 26.1794C20.5259 26.1288 20.5652 26.1541 20.526 26.1289C20.4867 26.1036 20.4616 26.1426 20.4224 26.1173C20.2545 26.1195 20.0615 26.1607 19.8574 26.3052C19.4352 26.5299 19.0412 26.8831 18.6613 27.3006C18.3064 27.679 17.9265 28.0965 17.5858 28.5392C17.2451 28.982 16.9044 29.4247 16.628 29.8537C16.4773 30.0877 16.3265 30.3217 16.1758 30.5557C15.9858 30.7645 15.8491 31.0627 15.62 31.2462C15.2149 31.7027 14.7566 32.0696 14.259 32.4113C13.7865 32.714 13.2748 32.9914 12.7491 33.2045C13.9225 33.7949 15.0347 34.5666 15.982 35.508C17.2038 36.6262 18.2246 38.0565 18.8986 39.5944C19.2356 40.3634 19.5083 41.1461 19.7307 42.0068C19.939 42.8032 20.1332 43.5354 20.5566 44.0841C21.0193 44.658 21.6859 45.0875 22.3667 45.5813C23.0475 46.075 23.689 46.5435 24.3698 47.0373C27.0396 48.9227 29.7847 50.6912 32.6052 52.3427C35.0336 53.7415 37.5514 55.0877 40.0803 56.3305C40.5227 56.5051 40.9008 56.6935 41.318 56.9072L41.1563 57.2444C40.0502 56.8078 38.9693 56.3322 37.8884 55.8566C37.3817 55.6957 36.8749 55.5348 36.343 55.4129C34.669 54.9967 32.9728 54.787 31.2767 54.5772C29.5806 54.3675 27.8734 54.2611 26.1632 53.9871C25.7489 53.941 25.3206 53.8306 24.8672 53.7592C24.4137 53.6879 23.9854 53.5775 23.543 53.4028C22.6974 53.0788 21.9161 52.7411 21.1207 52.3391C19.5692 51.5603 18.0931 50.6645 16.5808 49.911C15.0685 49.1575 13.5311 48.443 11.9073 47.9487C10.2835 47.4545 8.59837 47.1415 6.89426 47.2026C5.5762 47.1813 4.28938 47.456 3.01664 47.795C2.86284 47.8615 2.72312 47.9922 2.56931 48.0587C1.91793 48.4668 1.33394 49.0288 1.0496 49.7286C0.765248 50.4284 0.855915 51.149 1.21804 51.879C1.56607 52.5447 2.10713 53.1692 2.63409 53.7294C3.2254 54.2759 3.84182 54.7833 4.5085 55.2128L5.01831 55.5413C5.09675 55.5918 5.2144 55.6676 5.29284 55.7181C5.34615 55.8077 5.52813 55.8697 5.58449 56.1268C5.57652 56.3976 5.46193 56.4893 5.38655 56.6063L5.17148 56.854C5.07098 57.01 4.93125 57.1408 4.80562 57.3358C4.33929 57.9735 4.02983 58.7123 3.75958 59.4764C3.48932 60.2404 3.2834 60.9907 3.09158 61.8053C3.01927 62.0899 2.92182 62.4134 2.8495 62.6979L2.8636 62.7622C2.87769 62.8264 2.93099 62.916 2.95918 63.0445C3.10807 63.4163 3.25697 63.7882 3.47021 64.1463C3.83233 64.8763 4.16932 65.6452 4.53145 66.3752C5.25569 67.8351 5.97994 69.295 6.7434 70.7802L6.79671 70.8697L6.72133 70.9867C6.39471 71.4937 6.30339 72.1523 6.2372 72.7719C6.21021 73.4168 6.31191 74.0341 6.54229 74.624C6.70528 75.0602 6.93261 75.4825 7.24939 75.8522C8.41977 76.275 9.66246 76.4134 10.9051 76.5517C12.173 76.651 13.3875 76.6609 14.613 76.5674L22.0808 75.9149C27.0725 75.4884 31.9997 75.0755 36.9773 74.5847C41.9297 74.1329 46.9323 73.6031 51.8002 72.7657C54.2341 72.347 56.7183 71.8502 59.124 71.303C60.3465 71.042 61.5549 70.7168 62.7382 70.4305L66.3633 69.4548L66.5937 70.0447C62.4942 71.929 58.0516 72.7092 53.932 74.1942C51.8651 74.9045 49.8797 75.8329 48.1467 77.1447C46.3997 78.3922 45.062 80.1242 43.7242 81.8561C42.4257 83.6133 41.1162 85.4738 39.4396 87.0426C38.6013 87.8271 37.6313 88.4714 36.6331 88.9872C35.5956 89.4778 34.53 89.8399 33.4111 90.1124C31.1843 90.5541 28.9373 90.5966 26.6872 90.4715C24.4371 90.3464 22.2483 90.04 20.0454 89.6694L20.0564 89.5662C22.2563 89.7693 24.4953 89.9976 26.7172 89.9942C28.914 90.0297 31.1469 89.923 33.2812 89.3665C34.3358 89.1077 35.3371 88.7594 36.3353 88.2435C37.2692 87.7414 38.1356 87.0856 38.9237 86.3791C40.4857 84.902 41.7309 83.0553 43.0153 81.2338C43.6575 80.3231 44.3389 79.4376 45.0988 78.6027C45.8586 77.7677 46.6969 76.9833 47.6277 76.3137C49.4502 74.9492 51.5783 74.0576 53.6703 73.3082C55.8659 72.5704 58.1038 72.0254 60.3275 71.4161C60.0058 71.4848 59.6198 71.5672 59.2981 71.6359C56.8531 72.1578 54.394 72.6155 51.9601 73.0342C47.0279 73.8854 42.1208 74.6975 37.1715 75.3169C32.2221 75.9362 27.2164 76.2985 22.261 76.5828C19.7707 76.7445 17.2663 76.8419 14.8011 76.9645C13.5364 77.0327 12.2434 76.9724 11.0258 76.795C9.8475 76.643 8.61585 76.4014 7.53494 75.9258C7.58825 76.0153 7.66669 76.0658 7.72 76.1553C8.15444 76.6008 8.71754 77.0187 9.26657 77.3724C10.3395 78.1188 11.4768 78.8515 12.6 79.5199C13.7231 80.1883 14.8856 80.8819 16.0339 81.5113C16.9499 82.1567 17.866 82.802 18.6564 83.6423C18.8415 83.8719 19.0265 84.1015 19.2116 84.3311C19.3715 84.5997 19.4671 84.882 19.4732 85.217C19.4321 85.7976 19.2483 86.3414 19.1931 86.8577C19.138 87.3741 19.2507 87.8882 19.4921 88.3748C19.6128 88.6182 19.7838 88.7835 19.9437 89.052C20.0362 89.1668 20.0393 89.3344 20.1067 89.4882C20.1349 89.6167 20.1771 89.8095 20.141 89.9517C20.1391 90.5576 19.9553 91.1014 19.8358 91.6315L19.3094 93.2238C18.9668 94.2724 18.7026 95.3715 18.5028 96.4569C18.3031 97.5423 18.1425 98.6529 18.3177 99.7592C18.3741 100.016 18.4053 100.312 18.4868 100.53C18.5432 100.787 18.6639 101.031 18.7846 101.274C19.0511 101.722 19.4212 102.181 19.8275 102.498C20.6541 103.196 21.6345 103.827 22.3998 104.707C22.7699 105.166 23.0505 105.678 23.2919 106.164C23.5082 106.69 23.7245 107.216 23.8514 107.794C23.8826 108.09 23.9138 108.386 23.8415 108.671C23.8084 108.981 23.722 109.201 23.8035 109.419C23.8317 109.547 23.885 109.637 23.9775 109.752C24.0308 109.841 24.1485 109.917 24.2269 109.968C24.4622 110.119 24.6834 110.206 24.9438 110.319C25.9714 110.705 27.0744 110.974 28.1271 111.321C29.205 111.629 30.2828 111.937 31.3497 112.349C32.3773 112.735 33.4441 113.146 34.4496 113.739C34.6849 113.89 34.9453 114.003 35.1806 114.155L35.9116 114.57C36.4074 114.834 36.889 115.034 37.3958 115.195C37.9276 115.317 38.4454 115.375 38.9742 115.329C39.5423 115.309 40.1354 115.249 40.6673 115.371C41.2635 115.48 41.7844 115.705 42.2801 115.969C42.7758 116.233 43.2213 116.575 43.7421 116.8C44.1987 117.039 44.7446 117.225 45.2483 117.219C45.7912 117.237 46.2526 117.038 46.7925 116.889C47.075 116.795 47.4108 116.791 47.7215 116.825C48.0321 116.86 48.3066 117.037 48.5671 117.149C48.9984 117.427 49.5162 117.485 50.0058 117.414C50.5347 117.368 51.0353 117.194 51.5611 116.981C52.0617 116.807 52.5734 116.53 53.0207 116.266C53.6218 115.936 54.1837 115.58 54.7849 115.25C55.4412 114.404 55.9939 113.546 56.4149 112.548C56.9113 111.433 57.2649 110.281 57.5793 109.104C58.1689 106.724 58.3442 104.298 58.4803 101.848C58.7917 96.9712 58.6356 91.959 59.9937 87.0946C60.3332 85.8785 60.8155 84.6991 61.4154 83.5956C62.0153 82.4921 62.7721 81.4896 63.6074 80.5377C64.4818 79.611 65.3845 78.8128 66.4047 78.0905C67.425 77.3681 68.4986 76.7353 69.6255 76.192C70.7524 75.6487 71.9075 75.2339 73.0767 74.8834C73.6416 74.6955 74.285 74.5581 74.8892 74.3955C75.5075 74.2971 76.1117 74.1345 76.7049 74.0752C79.178 73.6817 81.6855 73.7519 84.1114 73.6039C86.5374 73.456 89.0105 73.0626 91.0149 71.7601C92.0242 71.141 92.8343 70.2281 93.7228 69.3657C94.6114 68.5032 95.5894 67.5881 96.9123 67.1711C98.2353 66.7541 99.5705 67.0072 100.707 66.9665C101.857 66.9901 102.948 66.589 103.957 65.9699C104.966 65.3508 105.908 64.578 106.928 63.8556C107.451 63.4749 107.948 63.1332 108.51 62.7778C109.047 62.4614 109.687 62.1565 110.317 61.9549C111.357 61.6318 112.221 60.8084 112.628 59.7461C112.826 59.2666 112.981 58.5942 113.19 58.0115C113.399 57.4287 113.672 56.8321 113.921 56.2746C115.081 54.0423 116.595 52.0373 118.083 50.0714C119.572 48.1055 121.114 46.229 122.367 44.1115C122.981 43.0722 123.516 41.9824 123.934 40.8168C124.327 39.6902 124.563 38.4626 124.592 37.2119L124.696 37.2234C124.767 39.6974 123.998 42.1823 122.823 44.3504C121.649 46.5184 120.135 48.5234 118.686 50.5146C117.236 52.5058 115.787 54.497 114.741 56.6376C114.493 57.1952 114.245 57.7527 114.061 58.2965C113.813 58.854 113.732 59.4093 113.473 60.0701C112.941 61.3274 111.927 62.3849 110.604 62.8018C109.499 63.1386 108.543 63.8473 107.548 64.5306C106.567 65.2782 105.625 66.0511 104.487 66.6977C103.95 67.0141 103.374 67.3053 102.705 67.4816C102.076 67.6833 101.394 67.7953 100.747 67.7652C99.4682 67.7691 98.2758 67.5528 97.196 67.8505C96.1163 68.1483 95.2137 68.9465 94.3503 69.7699C93.4869 70.5933 92.6124 71.52 91.4886 72.2308C90.3899 72.9027 89.1704 73.3312 87.948 73.5922C86.7255 73.8531 85.4607 73.9213 84.2211 73.9505C81.7167 74.0479 79.2846 73.8608 76.8366 74.2152C74.4137 74.5307 72.011 75.2454 69.8216 76.3183C68.7198 76.8226 67.6854 77.4807 66.7044 78.2283C65.7233 78.9759 64.8599 79.7994 64.0498 80.7123C63.2789 81.6505 62.5864 82.6393 62.0508 83.729C61.5152 84.8188 61.1224 85.9454 60.808 87.1225C60.1793 89.4768 59.9396 91.9161 59.7643 94.3417C59.5638 96.8063 59.4921 99.2435 59.2916 101.708C59.0912 104.173 58.7871 106.626 58.1081 109.058C57.5517 111.128 56.6202 113.177 55.2292 114.819C55.4332 114.674 55.6765 114.555 55.9057 114.372L56.6214 113.95C56.8254 113.805 56.9652 113.675 57.1159 113.441C57.3923 113.012 57.6546 112.518 57.8525 112.039C58.2735 111.041 58.6804 109.979 59.0622 108.955C59.8509 106.87 60.6788 104.809 61.6103 102.76C63.4873 98.7269 65.7675 94.8428 68.4399 91.2114L69.4621 89.8832L70.4842 88.555L71.5456 87.252L72.6854 85.9996L73.8252 84.7472L75.0575 83.6096C75.4766 83.2174 75.8958 82.8251 76.329 82.4972L77.6538 81.4744C79.437 80.0846 81.4194 78.9887 83.4158 77.957C84.4532 77.4664 85.4263 76.9896 86.4778 76.5633C87.5294 76.137 88.5417 75.6854 89.6073 75.3234C93.7772 73.7604 98.0538 72.3765 102.117 70.6345C106.18 68.8925 110.081 66.7144 113.65 64.1023C115.462 62.8411 117.127 61.3755 118.583 59.7193C120.038 58.0632 121.244 56.1912 122.15 54.1813C124.041 50.2122 124.812 45.7421 124.912 41.2809C125.05 36.845 124.478 32.3926 123.856 28.0182C123.545 25.831 123.155 23.5933 122.908 21.3924C122.661 19.1915 122.672 16.9356 122.993 14.7143C123.674 10.297 125.613 6.0823 128.549 2.73099C130.253 1.29068 131.919 -0.174898 133.769 -1.41089C134.242 -1.71357 134.714 -2.01625 135.187 -2.31893C135.659 -2.62161 136.185 -2.83477 136.657 -3.13745C137.67 -3.58901 138.721 -4.01532 139.84 -4.28782C140.92 -4.5856 142.042 -4.69058 143.122 -4.98835C143.676 -5.07297 144.201 -5.28614 144.741 -5.43502C145.267 -5.64818 145.768 -5.82233 146.279 -6.09974C146.522 -6.21895 146.766 -6.33816 147.009 -6.45737L147.725 -6.87925C147.968 -6.99846 148.236 -7.15668 148.44 -7.30115C148.645 -7.44562 148.913 -7.60383 149.103 -7.81257C149.536 -8.14052 149.916 -8.55797 150.114 -9.0375C150.312 -9.51703 150.185 -10.0954 149.868 -10.4651C149.594 -10.6419 149.123 -10.9451 148.653 -11.2482Z" fill="#FFFDFB"/>
</svg>
