<svg width="307" height="413" viewBox="0 0 307 413" fill="none"
  xmlns="http://www.w3.org/2000/svg">
  <path d="M306.56 91.7769L306.15 93.8225C305.06 99.2773 303.423 104.732 301.65 109.914C299.741 115.233 297.696 120.415 294.968 125.324C292.377 130.233 289.241 134.87 285.15 138.825C282.968 146.734 279.831 154.234 275.876 161.462C271.922 168.69 267.149 175.508 261.558 181.372C258.694 184.372 255.694 187.099 252.284 189.554C250.648 190.781 248.875 191.872 247.102 193.1C245.33 194.054 243.557 195.145 241.648 196.1C234.284 199.782 226.238 201.555 218.056 202.236C208.51 209.737 196.782 213.555 185.054 215.192C179.326 216.283 173.872 218.601 168.69 221.192C163.508 223.919 158.462 227.056 153.689 230.465C151.234 232.102 148.916 234.011 146.461 235.783C144.007 237.556 141.688 239.329 139.234 240.966C134.324 244.375 129.142 247.511 123.824 250.239C118.506 252.966 112.914 255.421 107.187 257.194C101.459 258.83 95.1863 259.921 89.0496 259.103C88.2314 258.966 87.5496 258.83 86.7314 258.694C86.3223 258.557 85.6404 258.694 84.9585 258.694C83.7312 258.966 82.3675 259.375 81.1402 259.921C78.6855 261.148 76.3672 262.921 74.1853 264.83C72.0034 266.739 70.2306 268.921 68.0487 271.103C65.8668 273.285 63.5485 275.331 60.9575 276.967C59.5938 277.785 58.3664 278.604 56.8664 279.149C55.5027 279.831 54.1389 280.376 53.048 281.058C52.5025 281.331 52.0934 281.74 51.8207 282.149C51.5479 282.558 51.4116 282.967 51.2752 283.649C51.0025 285.013 50.8661 286.24 51.1388 287.604C51.2752 288.286 51.2752 289.104 51.2752 290.059C51.2752 290.877 51.1388 291.695 51.0024 292.513C50.5933 294.15 50.0479 295.513 49.366 297.014C48.0023 299.877 45.9568 302.332 44.3203 304.65C43.5021 305.878 42.8203 306.969 42.4112 308.196C42.2748 308.469 42.1384 308.878 42.1384 309.15C42.002 309.423 42.0021 309.832 42.0021 310.105C42.0021 310.378 41.8657 310.787 41.8657 311.06V312.151C41.8657 313.787 41.1838 315.833 39.9565 317.06C38.7292 318.424 37.3655 319.242 36.5473 320.06C35.5927 320.878 35.1836 321.833 35.0472 323.197C35.0472 323.742 35.0472 324.56 35.0472 325.242C35.0472 325.924 35.1836 326.606 35.1836 327.424C35.4563 330.288 36.2745 333.288 36.1381 336.561C36.0018 338.197 35.729 339.834 35.1836 341.334L34.7744 342.425C34.6381 342.697 34.5017 343.107 34.3654 343.379L33.6835 345.425C32.8653 348.289 32.047 351.152 31.2288 354.016L26.5923 371.199C25.0922 376.926 23.4557 382.654 21.8193 388.381C20.1829 394.109 18.5464 399.836 16.5009 405.428C15.9554 406.791 15.4099 408.291 14.8644 409.655C14.5917 410.337 14.1826 411.019 13.6371 411.837C13.6371 411.973 13.5008 412.11 13.3644 412.11C13.228 412.246 13.228 412.382 12.9553 412.519C12.8189 412.655 11.7279 413.337 10.9097 412.792C10.7733 412.655 10.637 412.519 10.5006 412.382C10.3643 412.246 10.3642 412.246 10.3642 412.11L10.2279 411.837C10.2279 411.701 10.2279 411.701 10.2279 411.701L9.95514 411.155C9.00055 408.019 8.72781 405.018 8.45508 402.018C8.18234 399.018 8.04596 396.018 7.77322 393.154C7.63684 392.472 7.63684 391.791 7.50046 391.109C7.36411 390.427 7.22772 389.745 6.95499 389.472C6.95499 389.336 6.8186 389.336 6.8186 389.336C6.8186 389.336 6.68222 389.336 6.68222 389.2L5.72766 388.79C5.04581 388.518 4.36398 388.245 3.68213 387.836C3.00027 387.427 2.18204 387.018 1.50018 386.472C0.818359 385.927 0.136505 384.836 0.00012207 383.745C0.00012207 382.654 0.409241 381.699 0.818359 380.881C1.22745 380.199 1.50021 379.79 1.77295 378.972C3.00027 376.381 4.09125 373.517 5.18219 370.79C7.36411 365.198 9.40967 359.744 11.3188 354.152L17.3191 337.379L20.1829 328.924C21.1375 326.197 21.6829 323.333 22.3648 320.333C22.9102 317.469 23.4557 314.469 24.1376 311.605C24.5467 310.105 24.9558 308.741 25.3649 307.241C25.9104 305.741 26.4559 304.514 26.865 303.014C28.7742 297.423 30.1379 291.559 32.8653 286.104C33.5471 284.74 34.3653 283.377 35.4563 282.286C35.729 282.013 36.0018 281.74 36.4109 281.467L37.3654 280.922C37.9109 280.649 38.32 280.104 38.7292 279.422C40.2292 276.967 40.9111 274.103 41.7293 271.24C42.5475 268.376 43.2294 265.512 44.0476 262.648C45.0022 259.785 45.9568 256.921 47.7296 254.466C48.1387 253.921 48.6842 253.239 49.366 252.83C49.9115 252.284 50.457 251.875 51.0024 251.33C52.0934 250.375 53.1844 249.284 54.139 248.193C56.0482 246.011 57.8209 243.557 59.321 240.966C60.0029 239.738 60.6847 238.374 61.2302 237.011C61.7757 235.647 62.1848 234.147 61.912 232.783C61.7757 232.102 61.3666 231.42 61.0938 230.874L60.0029 228.965L57.821 225.147C54.9572 219.965 52.3661 214.51 51.0024 208.646C50.3206 205.782 50.0479 202.782 50.457 199.782C50.8661 196.782 51.957 193.918 53.8662 191.6C55.5027 189.418 56.4573 186.69 56.8664 183.963C57.4118 181.236 57.5482 178.508 57.5482 175.644C57.5482 170.053 56.8664 164.598 56.1845 159.007C54.8208 147.961 52.7753 136.915 52.0934 125.869C51.957 123.142 51.9571 120.278 52.2298 117.414C52.3662 116.051 52.6389 114.551 52.9117 113.187C53.3208 111.823 53.7299 110.46 54.139 109.232C55.9118 104.05 57.0027 98.459 57.4118 93.0042C57.6846 90.2769 57.821 87.4131 58.0937 84.6857C58.3664 81.9583 58.5028 79.0945 59.1846 76.3671C59.321 75.6853 59.5938 75.0034 59.8665 74.3216C60.1392 73.6397 60.412 72.9579 60.8211 72.4124L61.5029 71.4578L62.0484 70.6396C62.4575 70.0941 62.7303 69.5486 63.1394 68.8668C64.5031 66.4121 65.7304 63.9575 67.0941 61.5028C72.2762 51.6842 78.4128 42.1383 85.6404 33.547C93.0044 25.0921 101.732 17.5917 111.414 12.0005C121.233 6.40938 132.143 2.7274 143.188 1.09096C144.552 0.818219 146.052 0.681849 147.552 0.681849C147.961 0.681849 148.371 0.681849 148.78 0.681849C149.189 0.681849 149.598 0.818219 150.28 1.09096C150.552 1.22733 151.098 1.77281 151.234 2.45466C151.234 2.59103 151.234 2.7274 151.234 2.86377C151.234 2.86377 151.234 2.86377 151.371 2.86377C152.053 2.86377 152.734 2.7274 153.416 2.59103L157.507 2.04555C162.962 1.22733 168.553 0.40911 174.144 0.13637C177.008 0 179.872 -0.13637 182.736 0.27274C184.236 0.40911 185.6 0.681849 187.1 1.22733C187.781 1.50007 188.6 1.90918 189.281 2.31829C189.963 2.86377 190.372 3.40925 190.918 3.81836C192.827 5.72753 194.873 7.63671 197.055 9.27315C198.146 10.0914 199.236 10.9096 200.327 11.4551C201.418 12.0005 202.646 12.4097 203.464 12.2733C203.6 12.2733 204.009 12.0005 204.282 11.8642L205.237 11.3187L207.146 10.3641C208.373 9.68226 209.601 9.13678 210.964 8.5913C213.555 7.36397 216.146 6.27301 218.874 5.45479C221.601 4.63658 224.465 3.81836 227.465 4.22747C228.283 4.22747 228.965 4.50021 229.783 4.77294C230.602 5.18205 231.283 5.59116 231.829 6.27301C231.965 6.40938 231.965 6.68212 232.102 6.81849L232.238 7.09123L232.374 7.2276C232.374 7.2276 232.511 7.36397 232.647 7.36397C233.056 7.50034 233.738 7.50034 234.42 7.50034C235.784 7.36397 237.147 7.2276 238.511 7.09123C239.193 7.09123 240.011 6.95486 240.693 6.95486C241.511 6.95486 242.329 7.09123 243.148 7.63671C243.557 7.90945 243.966 8.31856 244.239 8.72767C244.511 9.13678 244.648 9.68226 244.648 10.0914C244.648 10.9096 244.648 11.5914 244.648 12.2733C244.511 13.637 244.375 15.1371 244.239 16.5008C243.966 19.2281 243.693 22.0919 243.42 24.8193C243.284 26.183 243.284 27.5467 243.42 28.9104C243.42 29.1831 243.557 29.5923 243.557 29.865C243.693 30.1377 243.829 30.2741 243.693 30.2741H243.829C244.102 30.2741 244.375 30.4105 244.511 30.4105C244.92 30.5468 245.33 30.6832 245.602 30.956C248.193 32.456 250.239 34.2288 252.421 36.0016C254.603 37.7745 256.785 39.5473 258.966 40.911L259.376 41.0473L259.648 41.1837H259.785C259.921 41.3201 260.33 41.1837 260.603 41.1837L262.648 41.0473L266.876 40.7746C269.603 40.6382 272.467 40.5018 275.331 40.5018C278.195 40.5018 280.922 40.6382 283.786 41.1837C285.15 41.4564 286.65 41.8655 287.877 43.0929C288.831 44.0475 289.922 44.8657 291.15 45.5475C293.468 47.0476 295.923 48.4113 298.241 49.9114C298.786 50.3205 299.468 50.7296 300.014 51.1387C300.559 51.5478 301.105 52.0933 301.514 52.9115C301.65 53.3206 301.787 53.8661 301.65 54.2752C301.514 54.6843 301.378 54.9571 301.241 55.2298C300.968 55.9116 300.832 56.5935 300.696 57.139C299.196 62.4574 297.968 67.9122 296.332 73.2306C295.923 74.5943 295.514 75.958 294.968 77.1853C294.695 77.8672 294.423 78.549 294.014 79.0945C293.877 79.3673 293.604 79.7764 293.332 80.0491C293.195 80.1855 293.059 80.3218 293.059 80.4582C293.195 80.4582 293.332 80.4582 293.332 80.4582C293.604 80.4582 294.014 80.4582 294.286 80.4582C294.968 80.4582 295.65 80.4582 296.332 80.4582C297.696 80.4582 299.196 80.5946 300.559 81.2764C301.241 81.5492 301.923 82.0947 302.196 82.7765C302.332 83.1856 302.468 83.4584 302.605 83.8675C302.741 84.1402 302.741 84.5493 302.878 84.8221C303.014 85.0948 303.15 85.3675 303.287 85.5039C303.423 85.6403 303.559 85.6403 303.832 85.5039C304.105 85.3675 304.378 85.2312 304.787 84.9584C304.923 84.8221 305.196 84.8221 305.469 84.8221C305.878 84.8221 306.15 85.0948 306.15 85.3675C306.56 86.1858 306.423 86.8676 306.56 87.5495C306.56 88.2313 306.56 88.9132 306.423 89.7314L306.56 91.7769ZM143.87 3.40925C132.961 5.04568 122.324 8.45493 112.778 13.9097C103.232 19.3645 94.6408 26.5921 87.2768 34.7743C79.9129 43.0929 73.7762 52.366 68.4578 62.1847C67.0941 64.6393 65.8668 67.094 64.5031 69.5486C64.094 70.0941 63.8212 70.776 63.4121 71.3214L62.7303 72.276L62.1848 73.0942C61.7757 73.6397 61.6393 74.3216 61.2302 74.8671C60.9575 75.5489 60.8211 76.0944 60.5484 76.7762C59.8665 79.3673 59.5938 82.231 59.321 84.9584C59.0483 87.6858 58.9119 90.5496 58.5028 93.277C57.821 98.8681 56.8664 104.323 54.9572 109.641C52.7753 114.823 52.5025 120.415 52.7753 125.869C53.3208 136.915 55.3663 147.961 56.5936 159.007C57.2755 164.598 57.821 170.053 57.821 175.644C57.821 178.372 57.6846 181.236 57.1391 183.963C56.73 186.418 55.9118 189.009 54.4117 191.054C54.6844 190.918 54.9572 191.054 55.2299 191.054C55.639 191.191 56.0481 191.463 56.4573 191.6C57.2755 191.872 58.2301 191.463 58.9119 191.054C59.1847 190.918 59.5938 190.645 60.0029 190.372C64.2303 181.508 66.685 171.962 68.185 162.28C69.6851 152.462 70.2306 142.643 70.5034 132.688C70.6397 127.779 70.7761 122.733 71.1852 117.687C71.3216 115.233 71.5943 112.642 72.0034 110.187C72.4125 107.596 72.958 105.278 73.5035 102.823C74.5945 97.9136 76.2309 93.0042 78.6855 88.504C81.2766 84.0038 84.2767 80.1855 86.7314 75.8216C89.186 71.5942 90.5497 66.8212 91.9134 62.0483H91.777C91.9134 61.6392 92.0498 61.3664 92.1862 60.9573C93.4135 56.5935 94.9136 52.0933 97.0955 48.0022C99.5501 43.502 102.959 39.6836 106.369 36.138C109.778 32.456 113.323 29.0468 116.46 25.3648C119.733 21.6828 122.869 17.7281 126.824 14.3188C130.779 10.9096 135.415 8.72767 140.052 6.81849C142.643 5.8639 145.234 5.04568 147.825 4.36384C147.689 4.0911 147.689 3.81836 147.689 3.54562C147.689 3.40925 147.825 3.13651 147.825 3.13651C147.689 3.13651 147.416 3.13651 147.143 3.13651C146.598 3.13651 145.234 3.27288 143.87 3.40925ZM195.691 11.046C193.373 9.27315 191.327 7.36397 189.281 5.45479C188.736 5.04568 188.191 4.36384 187.918 4.0911C187.509 3.81836 186.963 3.54562 186.418 3.27288C185.19 2.86377 183.963 2.59103 182.599 2.45466C179.872 2.18192 177.145 2.18192 174.417 2.45466C168.962 2.86377 163.371 3.68199 157.916 4.50021L153.825 5.04568C153.143 5.18205 152.462 5.18205 151.643 5.31842C151.234 5.31842 150.962 5.31842 150.552 5.45479C150.416 5.45479 150.416 5.45479 150.28 5.45479C147.143 6.27301 144.143 7.36397 141.143 8.5913C136.643 10.5005 132.279 12.8188 128.733 16.0916C125.188 19.3645 122.188 23.3192 118.915 27.1376C112.642 35.0471 103.641 40.3655 98.4592 48.8204C97.0955 50.866 96.1409 53.1842 95.3227 55.5025C95.1863 55.9116 95.0499 56.3208 94.9136 56.7299C97.3682 52.6388 100.641 48.9568 104.187 45.6839C106.778 43.3656 109.505 41.1837 112.369 39.2745C113.869 38.3199 115.369 37.3653 117.005 36.6835C118.642 35.8653 120.142 35.1834 121.778 34.6379C128.324 32.1833 135.143 30.8196 141.961 29.865C148.78 28.9104 155.598 28.2286 162.417 27.6831C164.735 27.5467 167.19 27.274 169.508 27.1376C171.69 26.3194 173.872 25.6375 176.054 24.9557C179.326 23.7284 182.599 22.7738 185.736 21.2737C187.236 20.5918 188.872 19.7736 190.645 19.0918C192.282 18.5463 193.918 17.7281 195.282 16.5008C196.509 15.4098 197.873 14.4552 199.509 13.9097C199.509 13.9097 199.509 13.9097 199.373 13.9097C198.009 12.6824 196.918 11.8642 195.691 11.046ZM242.875 10.0914C242.875 9.54589 242.602 9.27315 242.329 9.13678C241.511 8.72767 240.147 8.72767 238.784 8.86404C237.42 9.00041 236.056 9.27315 234.556 9.40952C233.874 9.40952 233.056 9.54589 232.102 9.27315C231.693 9.13678 231.011 8.86404 230.738 8.31856L230.465 7.90945C230.329 7.77308 230.329 7.63671 230.192 7.63671C229.511 6.81849 228.42 6.40938 227.192 6.27301C224.738 6.00027 222.01 6.68212 219.419 7.50034C216.828 8.31856 214.237 9.40952 211.783 10.6368C210.555 11.1823 209.328 11.8642 208.101 12.4097L206.328 13.3642L205.373 13.9097C205.1 14.0461 204.828 14.1825 204.282 14.4552C203.737 14.5916 203.328 14.7279 202.782 14.5916C200.6 15.6825 198.555 16.7735 195.964 17.319C194.191 17.8645 192.691 18.6827 191.327 19.91C189.963 21.001 188.6 22.0919 186.963 23.0465C185.327 24.0011 183.69 24.9557 181.918 25.6375C182.19 25.6375 182.599 25.6375 182.872 25.5012L193.1 24.2738C196.509 23.8647 199.918 23.4556 203.464 23.4556C205.237 23.4556 207.01 23.592 208.782 24.0011C210.555 24.4102 212.192 24.6829 213.828 25.0921L223.783 27.274C227.056 27.9558 230.465 28.6377 233.738 29.3195C236.602 29.865 239.466 30.4105 242.329 30.6832C242.193 30.5468 242.193 30.4105 242.193 30.2741C242.057 29.865 242.057 29.4559 241.92 29.0468C241.784 27.5467 241.784 26.183 241.784 24.6829C241.92 21.8192 242.193 19.0918 242.466 16.3644C242.602 15.0007 242.738 13.637 242.738 12.2733C242.875 11.4551 242.875 10.6368 242.875 10.0914ZM251.603 36.9562C249.421 35.3198 247.239 33.4106 244.92 32.0469C244.648 31.9105 244.375 31.7742 244.102 31.6378C243.966 31.6378 243.966 31.6378 243.829 31.6378H243.693C243.557 31.6378 243.557 31.6378 243.42 31.6378C243.284 31.6378 243.011 31.5014 242.875 31.3651C242.738 31.2287 242.602 31.0923 242.466 30.956C239.466 30.956 236.465 30.6832 233.465 30.4105C230.056 30.0014 226.647 29.5923 223.238 29.0468C219.828 28.5013 216.555 27.9558 213.146 27.274C211.51 27.0012 209.737 26.5921 208.101 26.3194C206.464 26.0466 204.828 25.9103 203.191 25.9103C199.918 25.7739 196.509 25.9103 193.1 26.0466C189.691 26.183 186.281 26.3194 182.872 26.4558C181.236 26.5921 179.736 26.7285 178.236 26.8649C177.826 27.0012 177.281 27.1376 176.872 27.274C173.326 28.0922 169.781 28.5013 166.099 28.3649C165.008 28.5013 163.78 28.6377 162.689 28.9104C149.325 31.2287 135.552 32.7288 122.869 37.0926C119.733 38.1836 116.733 39.5473 113.869 41.3201C111.005 43.0929 108.278 45.0021 105.687 47.184C103.096 49.3659 100.641 51.6842 98.4592 54.1388C96.9591 55.9116 95.459 57.6845 94.2317 59.5936C93.959 60.5482 93.6862 61.6392 93.4135 62.5938C92.1861 67.3667 91.0952 72.276 88.7769 76.9126C86.595 81.5492 83.5949 85.6403 81.4129 89.8677C79.0947 94.0952 77.8673 98.8681 76.7764 103.641C76.2309 106.096 75.8218 108.55 75.4127 110.869C75.0036 113.323 74.8672 115.778 74.5945 118.233C74.1853 123.142 74.049 128.188 73.7762 133.097C73.2307 143.052 72.4125 153.143 70.5034 162.962C69.5488 167.871 68.3214 172.781 66.685 177.554C65.0486 182.054 63.2758 186.418 60.9575 190.509C61.2302 190.372 61.6393 190.236 61.912 190.1C62.5939 189.69 63.2757 189.009 64.0939 188.463C66.0031 186.827 67.9123 185.19 69.8215 183.554C72.4125 179.872 74.7308 176.19 77.0491 172.372C78.5492 169.917 79.9129 167.326 81.4129 164.735L85.504 156.962C88.2314 151.78 91.0952 146.598 93.5499 141.279C96.0045 135.961 98.3228 130.506 100.505 125.051C102.687 119.596 105.141 114.142 108.005 108.96C110.869 103.777 113.733 98.7318 117.142 93.6861C120.415 88.7768 124.233 84.0038 128.597 80.0491C132.961 75.958 138.006 72.5488 143.734 70.6396L143.87 70.9123C138.688 73.6397 134.188 77.3217 130.233 81.5492C126.279 85.7766 122.869 90.4132 119.733 95.3225C116.596 100.232 113.323 105.141 110.46 110.187C108.96 112.778 107.596 115.233 106.232 117.824C104.869 120.415 103.505 123.006 102.141 125.597C99.4138 130.779 96.9591 136.097 94.7772 141.552C92.4589 147.007 90.4133 152.462 87.9587 157.916C85.504 163.235 82.5039 168.417 79.231 173.326C77.8673 175.372 76.5036 177.281 75.0035 179.19C79.9129 174.826 84.9586 170.462 90.5497 166.78C92.0498 165.689 93.6862 164.735 95.3227 163.917C105.278 144.279 119.051 126.551 135.143 111.551C151.643 96.5499 170.599 84.2766 191.191 75.8216C196.373 73.6397 201.691 71.8669 207.01 70.6396C212.464 69.4123 218.056 69.0032 223.647 69.685C229.238 70.2305 234.693 71.8669 239.875 73.9125C245.057 75.958 250.102 78.549 254.739 81.5492C259.512 84.5493 263.876 87.9586 268.103 91.7769C272.058 95.4589 275.604 99.4136 278.604 103.777C278.876 98.459 278.876 93.277 278.876 87.9586C278.876 84.9584 279.149 81.9583 279.013 78.9582C278.876 75.958 278.331 72.9579 277.649 69.9577C277.24 68.4577 276.967 66.9576 276.422 65.5939C276.013 64.2302 275.467 62.8665 274.922 61.5028C273.694 59.0482 271.513 57.0026 269.603 54.6843C266.058 50.5932 262.239 46.5021 259.103 41.8655C255.83 40.3655 253.784 38.5927 251.603 36.9562ZM295.241 72.8215C296.877 67.5031 298.105 62.0483 299.605 56.7299C299.741 56.048 300.014 55.3662 300.15 54.6843C300.287 54.4116 300.423 53.8661 300.559 53.7297C300.559 53.5934 300.559 53.3206 300.423 53.1842C300.15 52.6388 299.741 52.2297 299.196 51.8205C298.65 51.4114 298.105 51.0023 297.559 50.5932C295.241 49.0932 292.786 47.7295 290.468 46.2294C289.241 45.4112 288.15 44.5929 287.059 43.6384C286.24 42.8201 284.877 42.411 283.513 42.1383C280.922 41.5928 278.058 41.5928 275.331 41.5928C272.603 41.5928 269.74 41.7292 267.012 42.0019L262.921 42.411L260.876 42.5474C260.603 42.5474 260.33 42.5474 260.057 42.5474C263.876 45.8203 267.558 49.0932 270.967 52.7751C272.058 53.8661 273.013 54.9571 273.967 56.3208C274.922 57.5481 275.74 59.0482 276.422 60.5482C277.104 62.0483 277.376 63.6847 277.649 65.1848C277.786 66.6849 277.922 68.3213 278.058 69.8214C278.331 72.8215 278.74 75.8216 279.149 78.8218C279.558 81.8219 280.24 84.8221 280.377 87.9586C280.513 90.9587 280.377 94.0952 280.104 97.0953C279.967 98.7318 279.695 100.232 279.286 101.732C281.74 97.6408 284.331 93.6861 286.786 89.595C288.013 87.5495 289.241 85.5039 290.468 83.4584C291.013 82.6401 291.423 81.8219 291.968 80.8673C291.968 80.731 291.832 80.731 291.968 80.5946C291.968 80.1855 292.241 80.0491 292.241 79.9127C292.377 79.7764 292.513 79.64 292.513 79.5036C292.65 79.2309 292.923 79.0945 293.059 78.6854C293.332 78.1399 293.604 77.4581 293.877 76.7762C294.423 75.5489 294.968 74.1852 295.241 72.8215ZM305.741 85.7766C305.741 85.6403 305.741 85.6403 305.741 85.7766C305.605 85.6403 305.469 85.7766 305.332 85.7766C305.06 85.913 304.787 86.1858 304.378 86.3221C304.105 86.4585 303.423 86.5949 303.014 86.3221C302.605 86.0494 302.468 85.6403 302.196 85.3675C302.059 84.9584 301.923 84.6857 301.787 84.2766C301.65 84.0038 301.65 83.7311 301.514 83.4584C301.241 82.9129 300.696 82.5038 300.15 82.231C299.059 81.6855 297.559 81.5492 296.332 81.5492C295.65 81.5492 294.968 81.5492 294.286 81.5492C293.877 81.5492 293.604 81.5492 293.195 81.5492C293.059 81.5492 292.786 81.5492 292.65 81.4128C292.241 82.231 291.968 83.1856 291.423 84.0038C290.332 86.1858 289.104 88.2313 287.877 90.2769C286.65 92.3224 285.286 94.3679 283.786 96.2771C282.422 98.1863 280.786 99.9591 279.149 101.732C278.876 102.687 278.604 103.641 278.331 104.596C281.468 109.232 283.786 114.414 284.877 119.869C285.968 125.46 285.422 131.324 283.24 136.37L282.968 136.233C283.786 133.642 284.195 130.915 284.331 128.188C284.468 125.46 284.059 122.733 283.513 120.142C282.286 114.823 279.695 110.05 276.558 105.55C270.149 96.6862 261.694 89.4586 252.693 83.322C248.193 80.1855 243.42 77.4581 238.375 75.1398C233.329 72.8215 228.147 71.0487 222.692 70.3669C217.237 69.685 211.646 70.0941 206.328 71.4578C201.009 72.6851 195.827 74.7307 190.782 77.049C180.827 81.8219 171.281 87.1403 162.008 93.277C152.871 99.4136 144.279 106.232 136.097 113.596C120.006 128.051 106.096 144.961 94.7772 163.507C96.2772 162.689 97.9137 161.871 99.4138 161.189C102.959 159.689 106.641 158.462 110.323 157.644C114.005 156.825 117.824 156.416 121.642 156.416C123.551 156.416 125.46 156.553 127.37 156.689C129.279 156.962 131.324 157.234 133.097 158.462C134.87 159.553 135.961 161.462 136.643 163.235C137.325 165.008 137.734 166.917 138.006 168.826C138.552 172.644 138.416 176.326 137.87 180.145C137.325 183.827 136.506 187.509 135.688 191.191C135.279 192.691 135.006 194.054 134.597 195.554C138.279 192.691 142.507 190.372 146.734 188.327C149.052 187.236 151.371 186.281 153.825 185.327C156.144 184.372 158.598 183.69 161.053 182.872C165.962 181.372 170.735 179.735 175.372 177.69C180.008 175.508 184.372 173.053 188.6 170.462C190.645 169.099 192.691 167.735 194.6 166.098C195.555 165.28 196.373 164.462 197.327 163.507C198.282 162.553 199.373 161.735 200.327 160.916C202.373 159.28 204.555 157.916 206.737 156.553C208.919 155.189 211.101 153.825 213.283 152.598C217.646 150.007 222.01 147.416 226.238 144.825C228.42 143.461 230.465 142.097 232.511 140.597C234.556 139.097 236.465 137.597 238.238 135.688L238.511 135.824C237.147 138.006 235.238 139.779 233.329 141.416C231.42 143.052 229.374 144.688 227.329 146.188C223.238 149.189 219.01 152.052 214.783 154.78C210.555 157.507 206.328 160.235 202.373 163.235C201.418 163.917 200.464 164.735 199.646 165.553C198.827 166.371 197.736 167.326 196.782 168.144C194.736 169.78 192.554 171.144 190.236 172.508C185.736 174.963 180.963 176.735 176.19 178.508C173.872 179.463 171.417 180.281 169.099 181.236C166.78 182.19 164.462 183.281 162.144 184.372C159.826 185.463 157.507 186.554 155.189 187.509L148.234 190.372C143.87 192.145 139.37 194.054 135.006 196.1C134.461 198.009 134.052 200.055 133.37 201.964C131.324 209.191 128.051 216.283 123.006 222.146C120.551 225.01 118.096 227.738 117.005 231.147C116.46 232.783 116.324 234.693 116.733 236.329C117.142 238.102 117.96 239.738 119.597 240.693L119.46 240.966C117.687 240.147 116.46 238.375 115.915 236.602C115.369 234.693 115.233 232.647 115.642 230.738C116.051 228.829 117.005 227.056 117.96 225.419C119.051 223.783 120.142 222.283 121.233 220.783C125.87 215.055 128.733 208.237 131.188 201.282C132.415 197.873 133.643 194.191 134.734 190.645C135.825 187.099 136.915 183.554 137.461 179.872C137.734 178.099 137.87 176.19 138.006 174.417C138.006 172.508 137.87 170.735 137.597 168.962C137.325 167.189 136.779 165.417 135.961 163.78C135.279 162.144 134.188 160.644 132.688 159.825C131.188 159.007 129.415 158.735 127.642 158.735C125.87 158.598 123.96 158.598 122.188 158.735C118.506 158.871 114.96 159.416 111.414 160.235C104.323 161.871 97.7773 165.144 91.5043 169.099C85.3677 173.053 79.5038 177.826 73.6398 182.326C70.6397 184.645 67.776 186.963 64.6395 189.009L63.5485 189.827C63.1394 190.1 62.7303 190.372 62.1848 190.509C61.7757 190.645 61.2302 190.781 60.8211 190.918C60.412 191.054 60.0029 191.327 59.5938 191.463C58.7755 191.872 57.6846 192.145 56.73 191.872C56.1845 191.736 55.7754 191.463 55.5027 191.191C55.0936 190.918 54.6844 191.054 54.4117 191.463C52.6389 193.782 51.4116 196.645 51.1388 199.509C50.7297 202.373 51.1388 205.373 51.6843 208.237C53.048 213.964 55.639 219.419 58.5028 224.601L60.6847 228.42L61.7757 230.329C62.0484 231.011 62.5939 231.692 62.7303 232.374C63.003 234.011 62.5939 235.511 62.0484 236.874C61.5029 238.238 60.8211 239.602 60.1392 240.966C58.6392 243.557 56.8664 246.011 54.9572 248.329C54.0026 249.42 52.9116 250.511 51.8207 251.602C51.2752 252.148 50.7297 252.557 50.1843 253.102C49.6388 253.512 49.2296 254.057 48.6842 254.739C47.0477 257.057 46.0931 259.921 45.2749 262.785C44.4567 265.648 43.7748 268.512 43.093 271.376C42.2748 274.24 41.7293 277.24 40.0929 279.831C39.6837 280.513 39.1383 281.195 38.4565 281.604C38.0473 281.876 37.7746 282.013 37.5018 282.149C37.2291 282.286 36.9563 282.558 36.6836 282.831C35.729 283.786 34.9108 285.013 34.229 286.377C32.8653 288.968 31.9107 291.832 31.0925 294.559L28.5014 303.15C28.0923 304.514 27.5468 306.014 27.0014 307.378C26.5923 308.741 26.1831 310.105 25.9104 311.605C25.2285 314.469 24.8194 317.469 24.4103 320.333C23.8648 323.333 23.3194 326.197 22.3648 329.06L19.501 337.515C17.5919 343.107 15.6826 348.834 13.7735 354.425C11.8643 360.016 9.81876 365.608 7.77322 371.199C6.68225 373.926 5.72766 376.79 4.36398 379.517C4.09125 380.199 3.6821 381.017 3.27298 381.699C3.00024 382.245 2.86389 382.654 2.86389 383.063C2.86389 383.745 3.81848 384.563 5.04581 385.108C5.72766 385.381 6.27313 385.654 6.95499 385.927C7.36411 386.063 7.63681 386.199 8.04593 386.336C8.18231 386.336 8.18231 386.472 8.3187 386.472C8.45505 386.609 8.59143 386.745 8.86417 386.745C9.1369 387.018 9.27325 387.29 9.40964 387.427C9.95511 388.381 10.0915 389.2 10.2279 389.881C10.3642 390.7 10.5006 391.382 10.637 392.2C11.0461 395.2 11.1824 398.2 11.4552 401.064C11.7279 403.518 12.0007 405.973 12.5462 408.291C12.5462 408.155 12.6826 408.019 12.6826 407.882C13.228 406.519 13.7735 405.155 14.1826 403.791C18.0009 392.609 21.0011 381.154 24.1376 369.699L28.7742 352.516C29.5924 349.652 30.2742 346.789 31.2288 343.925L31.9106 341.743C32.047 341.334 32.1834 341.061 32.3198 340.652L32.7289 339.697C33.138 338.334 33.4107 337.106 33.5471 335.743C33.6835 333.015 33.0016 330.151 32.5925 327.151C32.4561 326.333 32.4562 325.651 32.3198 324.833C32.3198 324.015 32.3198 323.333 32.3198 322.378C32.4562 321.56 32.5925 320.606 33.0016 319.787C33.4108 318.969 33.9562 318.151 34.6381 317.605C35.8654 316.378 37.0927 315.56 37.911 314.742C38.7292 313.787 39.0019 312.832 39.1383 311.605V310.514C39.1383 310.105 39.1383 309.696 39.2747 309.287C39.2747 308.878 39.411 308.469 39.5474 308.06C39.6837 307.65 39.8201 307.241 39.9565 306.832C40.502 305.196 41.3202 303.832 42.2748 302.605C44.0476 300.15 45.8204 297.832 47.0477 295.377C47.5932 294.15 48.1387 292.786 48.4114 291.422C48.6842 290.059 48.6842 288.968 48.5478 287.468C48.4114 286.649 48.4114 285.831 48.4114 285.013C48.4114 284.195 48.5478 283.377 48.8206 282.558C48.9569 281.74 49.366 280.786 49.9115 279.967C50.457 279.149 51.2752 278.604 51.957 278.195C53.4571 277.376 54.8208 276.831 56.0481 276.149C57.4118 275.467 58.6392 274.785 59.8665 274.103C62.3212 272.603 64.5031 270.694 66.5486 268.649C68.4578 266.603 70.5034 264.285 72.8216 262.239C75.1399 260.194 77.5946 258.285 80.4583 256.921C81.822 256.239 83.4585 255.693 85.0949 255.421C85.9131 255.284 86.7314 255.148 87.8223 255.421C88.5042 255.557 89.186 255.693 89.8679 255.83C95.459 256.648 101.323 255.693 106.914 254.057C112.505 252.421 117.96 250.102 123.142 247.375C128.324 244.648 133.37 241.647 138.279 238.238C140.734 236.602 143.188 234.829 145.507 233.192C147.961 231.556 150.28 229.783 152.734 228.01C157.644 224.601 162.689 221.328 168.008 218.601C173.326 216.01 179.054 213.692 185.054 212.464C188.054 211.919 190.918 211.51 193.782 210.828C196.645 210.146 199.509 209.328 202.237 208.373C207.691 206.328 213.01 203.6 217.51 200.055L217.783 199.918H217.919C217.51 199.782 216.965 199.645 216.419 199.509C215.328 199.373 214.237 199.236 213.01 199.236C210.692 199.236 208.51 199.509 206.191 199.782C201.691 200.327 197.191 201.146 192.554 201.827C188.054 202.509 183.418 203.055 178.781 203.191C174.144 203.191 169.508 203.6 165.28 205.1C160.917 206.6 157.098 209.055 153.143 211.373C149.189 213.692 145.234 216.01 141.143 218.192C133.097 222.692 125.051 227.056 117.005 231.556L116.869 231.283C123.824 225.147 131.597 220.101 139.643 215.601C143.734 213.282 147.825 211.237 151.916 209.191C156.007 207.146 160.371 205.237 164.871 204.146C169.372 202.918 174.008 202.373 178.645 201.691C183.145 201.146 187.645 200.055 192.145 199.373C196.645 198.691 201.282 198.009 205.919 197.873C208.237 197.736 210.555 197.736 212.873 198.009C214.101 198.145 215.192 198.418 216.419 198.691C217.237 198.964 217.919 199.236 218.601 199.782C226.374 199.236 234.147 197.464 241.102 194.054C243.011 193.236 244.648 192.145 246.42 191.191C248.057 190.1 249.83 189.009 251.466 187.781C254.739 185.327 257.739 182.736 260.603 179.735C266.194 173.872 270.967 167.189 274.785 160.098C278.74 153.007 281.877 145.507 284.059 137.734V137.597L284.195 137.461C288.286 133.779 291.286 129.006 294.014 124.233C296.605 119.324 298.786 114.278 300.696 108.96C302.605 103.777 304.105 98.3227 305.196 93.0042L305.605 90.9587L305.878 88.9132C305.878 88.2313 306.014 87.5495 306.014 86.8676C306.014 86.8676 306.014 86.1858 305.741 85.7766Z" fill="#FFFDFB"/>
  <path d="M91.7761 248.739C90.5488 248.467 89.3214 247.921 87.9577 247.648C86.7304 247.376 85.3667 247.239 84.1394 247.239C83.4575 247.239 82.7757 247.239 82.2302 247.103C81.5484 246.967 80.8665 246.967 80.321 246.83C79.0937 246.558 77.73 246.285 76.5027 245.876C74.048 244.921 71.7297 243.557 69.8206 241.648L69.9569 241.375C72.6843 241.785 75.0026 242.33 77.4573 243.148C78.6846 243.557 79.7756 243.967 81.0029 244.376C82.2302 244.785 83.3212 245.33 84.5485 245.739C85.7758 246.285 87.0032 246.558 88.2305 246.694C89.4578 246.83 90.8215 246.558 92.0488 246.421C92.7307 246.421 93.2762 246.421 93.958 246.421C94.6399 246.421 95.1853 246.558 95.8672 246.694C97.0945 246.967 98.3218 247.103 99.6855 247.648V247.921C98.4582 248.467 97.0945 248.739 95.8672 248.876C94.3671 249.012 93.0034 249.012 91.7761 248.739Z" fill="#FFFDFB"/>
</svg>
