<svg width="1637" height="1079" viewBox="0 0 1637 1079" fill="none"
  xmlns="http://www.w3.org/2000/svg">
  <path d="M1200.18 351.354L1200.69 351.759C1200.85 351.852 1201.01 351.945 1201.17 352.037C1201.53 352.35 1201.94 352.374 1202.36 352.399C1202.77 352.424 1203.19 352.449 1203.6 352.474C1205.32 352.286 1206.74 351.498 1207.99 350.618C1208.69 350.16 1209.25 349.737 1209.95 349.28C1210.64 348.822 1211.17 348.272 1211.7 347.722L1213.46 346.165C1213.99 345.615 1214.52 345.065 1215.18 344.481C1216.37 343.347 1217.24 342.027 1218.27 340.8C1219.14 339.48 1220.01 338.161 1220.88 336.841C1222.45 334.109 1223.87 331.284 1225.45 328.552C1227.03 325.82 1229.09 323.366 1231.18 321.039C1232.24 319.939 1233.43 318.805 1234.53 317.831C1235.75 316.824 1236.82 315.724 1238.2 314.809C1243.14 310.907 1248.49 307.57 1253.85 304.233C1265.41 299.232 1278.34 297.805 1290.69 299.793C1296.95 300.834 1302.87 302.644 1308.61 305.317C1314.32 307.863 1320 310.823 1325.62 313.53C1336.92 319.196 1348.41 324.542 1360.4 328.255C1372.53 331.934 1385.26 333.821 1397.91 332.335C1404.23 331.592 1410.44 329.928 1416.32 327.537C1422.2 325.146 1427.72 321.902 1432.81 318.093C1443.22 310.819 1452.56 302.068 1460.9 292.633C1469.37 283.164 1476.83 273.012 1484.66 263.172C1486.59 260.752 1488.65 258.298 1490.62 256.005C1492.71 253.678 1494.8 251.351 1496.93 249.151C1501.35 244.843 1505.89 240.502 1511.05 236.945L1514.83 234.304C1516.08 233.423 1517.54 232.762 1518.8 231.881L1522.8 229.586L1527.03 227.637L1531.26 225.687L1535.69 223.958L1540.15 222.355L1544.61 220.752C1556.45 216.765 1568.72 213.885 1581.17 212.179C1587.33 211.343 1593.59 210.888 1599.86 210.433C1603.07 210.251 1606.15 210.104 1609.33 209.796C1610.92 209.642 1612.51 209.488 1614.12 208.919C1614.88 208.716 1615.83 208.19 1616.49 207.606L1618.25 206.049C1620.69 204.034 1623.14 202.019 1625.4 199.785C1626.59 198.651 1627.65 197.551 1628.68 196.324C1629.71 195.097 1630.71 193.744 1631.38 192.204C1632.06 190.665 1632.41 188.94 1631.93 187.166C1631.56 185.772 1631.6 184.402 1632.5 183.209C1633.28 182.05 1634.4 180.663 1634.88 178.904C1635.4 177.272 1635.33 175.522 1635.05 173.967C1634.98 173.173 1634.77 172.412 1634.57 171.652L1634.08 169.336C1633.8 167.781 1633.68 166.319 1633.82 164.789C1633.95 163.259 1634.53 161.881 1635.08 160.375C1635.63 158.87 1636.01 157.272 1636.11 155.615C1636.21 153.958 1635.93 152.403 1635.78 150.814L1635.29 148.499C1635.09 147.738 1634.89 146.978 1634.81 146.183C1634.25 143.073 1633.97 140.022 1633.83 136.937C1633.68 133.852 1633.78 130.699 1633.89 127.546C1634 124.393 1634.1 121.24 1633.92 118.028C1633.84 117.234 1633.77 116.439 1633.53 115.552C1633.43 115.172 1633.29 114.665 1632.94 114.352C1632.71 114.006 1632.35 113.694 1632.03 113.508C1631.23 113.044 1630.37 112.868 1629.66 112.784C1628.96 112.701 1628.23 112.49 1627.58 112.119C1626.3 111.377 1624.98 110.508 1623.88 109.444C1622.65 108.414 1621.68 107.316 1620.8 106.058C1619.16 103.507 1618.35 100.465 1617.12 97.3982C1616.46 95.9452 1615.54 94.56 1614.54 93.3356C1613.99 92.8037 1613.4 92.1451 1612.63 91.8079C1611.95 91.31 1611.31 90.9388 1610.54 90.6016C1607.59 89.2189 1604.46 88.6986 1601.33 88.1783C1598.24 87.7847 1595.05 87.5518 1591.9 87.4457L1587.16 87.4936C1585.66 87.487 1584.01 87.3875 1582.66 86.9327C1582.37 86.8739 1582.02 86.5615 1581.73 86.5027C1581.54 86.2832 1581.09 86.1316 1580.99 85.7513C1580.6 85.3122 1580.1 84.4929 1579.52 83.8343C1578.39 82.6438 1576.91 81.6819 1575.22 81.4558C1573.62 81.0688 1571.99 81.0961 1570.56 80.802C1569.37 80.44 1568.33 79.0888 1567.71 77.7624C1566.16 75.0509 1565.22 72.0429 1564.31 69.1616C1563.62 65.5446 1562.88 61.8009 1562.06 58.2179C1561.24 54.6349 1560.38 50.9252 1559.27 47.2834C1558.66 45.5428 1558.15 43.6415 1557.3 41.9689C1556.44 40.2963 1555.21 38.7256 1553.66 37.5102C1552.11 36.2949 1550.38 35.401 1548.49 34.9552C1546.73 34.4755 1544.91 34.2833 1542.95 34.5392C1539.77 31.3141 1536.51 28.2496 1533.33 25.0245C1531.68 23.4289 1530.03 21.8333 1528.25 20.2716C1527.54 19.647 1526.83 19.0223 1526.12 18.3976C1526.25 18.3637 1526.41 18.4565 1526.54 18.4225C1526.66 18.3885 1526.82 18.4813 1527.2 18.3794L1527.33 18.3455C1527.33 18.3455 1527.33 18.3455 1527.55 18.1508C1527.55 18.1508 1527.86 17.7954 1527.76 17.4152C1527.69 17.1617 1527.53 17.0689 1527.53 17.0689C1527.37 16.9761 1527.24 17.01 1527.21 16.8833C1527.08 16.9173 1527.05 16.7905 1526.92 16.8245C1526.64 16.7656 1526.35 16.7068 1525.93 16.682C1525.65 16.6231 1525.36 16.5643 1524.98 16.6662C1524.69 16.6074 1524.44 16.6753 1523.93 16.8111C1523.8 16.8451 1523.8 16.8451 1523.58 17.0398C1522.88 16.9561 1522.09 17.0331 1521.39 16.9494C1519.06 16.893 1516.8 16.5492 1514.41 16.7803C1512.12 16.8506 1509.74 17.0817 1507.37 17.8537C1506.73 18.0236 1506.22 18.1594 1505.62 18.456L1504.9 18.7865C1504.77 18.8205 1504.64 18.8545 1504.64 18.8545C1504.64 18.8545 1504.61 18.7277 1504.58 18.6009C1504.51 18.3474 1504.44 18.094 1504.37 17.8405L1503.93 16.1927C1503.32 13.9112 1502.46 11.6976 1501.46 9.51795C1500.47 7.33832 1499.26 5.35334 1497.42 3.53821C1496.51 2.69402 1495.48 1.88382 1494.26 1.39499C1493.04 0.906202 1491.77 0.704854 1490.43 0.790975C1487.89 0.929251 1485.65 2.20835 1483.73 3.67296C1482.85 4.45165 1481.85 5.2643 1481.1 6.00906L1478.62 8.43799C1477.03 10.0882 1475.27 11.6456 1473.64 13.169C1472.01 14.6925 1470.26 16.2499 1468.43 17.5538C1467.52 18.2058 1466.61 18.8577 1465.69 19.5097C1465.22 19.7723 1464.78 20.1617 1464.31 20.4243C1464.09 20.6189 1463.71 20.7208 1463.49 20.9155C1461.54 18.7201 1459.47 16.5587 1457.3 14.5579C1454.94 12.3377 1452.62 10.2442 1449.85 8.54004C1449.17 8.04215 1448.4 7.70492 1447.63 7.36775C1446.86 7.03054 1445.97 6.72733 1444.79 6.90625C1444.54 6.97417 1444.29 7.0421 1443.91 7.14399L1443.56 7.37263C1443.43 7.40659 1443.34 7.56731 1443.34 7.56731C1442.99 7.79596 1442.68 8.15135 1442.33 8.37996C1441.68 8.964 1441.18 9.64083 1440.65 10.1909C1438.62 12.7714 1437.01 15.3768 1434.92 17.7038C1433.89 18.9307 1432.79 19.9041 1431.69 20.8775C1430.56 21.7241 1429.3 22.6047 1427.97 23.2318C1427.37 23.5284 1426.61 23.7321 1425.85 23.9359C1425.09 24.1397 1424.33 24.3435 1423.57 24.5473C1422.05 24.9548 1420.56 25.4891 1418.95 26.0573C1417.46 26.5917 1416.01 27.2527 1414.43 27.9477C1413.01 28.7355 1411.59 29.5234 1410.15 30.7254C1409.49 31.3094 1408.86 32.0202 1408.5 33.204C1408.44 33.4915 1408.39 33.779 1408.33 34.0664C1408.39 34.3199 1408.37 34.7341 1408.44 34.9876C1408.51 35.2411 1408.57 35.4946 1408.51 35.7821C1408.49 36.1963 1408.3 36.5178 1407.86 36.9071C1407.43 37.2965 1406.79 37.4663 1406.07 37.7968C1405.3 38.0006 1404.67 38.1704 1403.91 38.3742C1403.66 38.4421 1402.96 38.3584 1402.35 38.114C1401 37.6592 1399.46 36.9848 1398.08 36.4032C1395.17 35.1472 1392.03 34.0859 1388.68 33.7603C1386.99 33.5341 1385.24 33.5953 1383.59 34.0368C1381.95 34.4784 1380.27 35.3341 1378.92 36.3754C1376.6 38.3561 1374.02 39.8638 1371.14 41.3127C1368.43 42.8543 1365.47 44.4639 1363.09 46.7321L1362.24 47.6375C1361.93 47.9929 1361.74 48.3144 1361.43 48.6698C1361.12 49.0252 1360.93 49.3466 1360.62 49.702L1359.97 50.827C1359.51 51.6306 1359.3 52.3662 1358.99 53.2626C1358.66 54.0321 1358.64 54.9873 1358.46 55.8497C1358.29 56.7121 1358.36 57.5066 1358.35 58.4618C1358.3 59.2902 1358.41 60.2114 1358.61 60.972L1359.01 63.4481L1359.65 65.8564C1360.5 69.0251 1362.08 71.8634 1363.52 74.7356C1366.64 80.2853 1370.11 85.6065 1373.19 91.0295C1376.27 96.4525 1378.88 102.138 1380.73 108.027C1384.56 119.772 1385.38 132.459 1383.39 144.811C1381.53 157.129 1377.36 168.976 1372.27 180.393C1369.73 186.102 1367.05 191.845 1364.19 197.368C1361.19 202.925 1358 208.262 1354.14 213.102C1354.05 213.263 1353.95 213.423 1353.73 213.618C1353.51 213.813 1353.29 214.007 1353.04 214.075L1353.24 214.295C1349.65 218.652 1345.38 222.512 1340.66 225.679C1335.43 228.982 1329.72 231.465 1324 233.949C1318.24 236.305 1312.36 238.696 1306.48 241.087C1300.64 243.604 1294.95 246.215 1289.3 248.952C1283.65 251.689 1278.06 254.679 1272.51 257.796L1255.92 266.861C1244.92 272.935 1233.75 278.916 1223 285.462C1217.62 288.673 1212.26 292.009 1207.4 296.165C1205.11 298.273 1202.76 300.668 1201.22 303.527C1200.51 304.939 1199.84 306.478 1199.57 308.043C1199.55 308.457 1199.36 308.778 1199.34 309.192L1199.27 310.435C1199.22 311.263 1199 311.999 1199.08 312.794C1198.71 319.007 1197.96 325.322 1197.74 331.628C1197.64 334.781 1197.53 337.934 1197.71 341.146C1197.87 342.735 1198.02 344.324 1198.3 345.879C1198.58 347.434 1199.02 349.081 1199.94 350.467C1199.59 350.695 1199.85 351.168 1200.18 351.354ZM1441.76 11.7956C1442.29 11.2455 1442.66 10.6027 1443.22 10.1794C1443.41 9.85793 1443.79 9.75607 1444.01 9.56138C1444.14 9.52742 1444.1 9.40067 1444.23 9.36671L1444.36 9.33275C1444.48 9.29878 1444.61 9.26481 1444.61 9.26481C1444.99 9.16293 1445.73 9.37335 1446.33 9.61776C1446.94 9.86217 1447.59 10.2333 1448.23 10.6044C1450.83 12.2158 1453.16 14.3093 1455.45 16.2761C1457.78 18.3696 1459.89 20.6578 1462 22.9459L1462.39 23.385L1462.89 23.2492C1463.65 23.0454 1464.09 22.6561 1464.69 22.3595C1465.17 22.0969 1465.73 21.6735 1466.2 21.4109C1467.24 20.725 1468.16 20.073 1469.03 19.2943C1470.82 17.8637 1472.58 16.3063 1474.34 14.7489C1476.09 13.1915 1477.69 11.5412 1479.28 9.89105L1481.1 8.04616C1479.55 10.3641 1478.19 12.9016 1477.12 15.4979C1475.22 20.0815 1474.35 24.9345 1474.18 29.8711C1473.67 39.6516 1475.87 49.3865 1477.43 58.7503C1477.79 61.0998 1478.15 63.4492 1478.22 65.7398C1478.27 66.9485 1478.16 68.0644 1478.05 69.1803L1477.63 72.6887L1475.49 86.9849C1474.93 91.4824 1474.37 95.98 1474.06 100.41C1473.51 96.3445 1472.97 92.2794 1472.17 88.2822C1470.39 79.113 1468.23 70.0458 1465.47 61.2751C1464.74 59.0275 1464.03 56.9068 1463.29 54.6592C1462.46 52.5724 1461.82 50.1641 1460.41 47.9596C1459.73 46.9207 1458.63 45.857 1457.63 45.1735C1456.63 44.49 1455.5 43.8405 1454.54 43.2838C1452.61 42.1703 1450.78 40.8962 1449.03 39.4613C1445.55 36.5915 1442.59 33.1716 1440.42 29.1338C1439.34 27.1149 1438.38 25.062 1437.55 22.9752C1437.05 21.6149 1436.64 20.0939 1436.27 18.6996C1438.43 16.6261 1440.04 14.0207 1441.76 11.7956ZM1404.21 41.0111C1404.97 40.8073 1405.73 40.6035 1406.62 40.3658C1407.34 40.0353 1408.23 39.7975 1409.02 39.1795C1409.49 38.9169 1409.77 38.4348 1410.08 38.0794C1410.17 37.9187 1410.27 37.758 1410.36 37.5972C1415.15 49.8988 1419.72 62.3949 1423.91 74.993C1426.13 81.7356 1428.34 88.4783 1430.55 95.221C1431.6 98.6093 1432.64 101.998 1433.56 105.42C1434.48 108.842 1435.14 112.332 1435.8 115.823C1437 122.837 1437.41 129.928 1436.99 136.97C1436.73 140.571 1436.44 144.046 1435.89 147.588L1434.67 158.24C1434.39 160.759 1433.86 163.346 1433.17 165.841C1433.13 161.099 1432.95 156.391 1432.78 151.683C1432.53 146.18 1431.99 140.619 1431.45 135.058C1430.91 129.497 1429.99 124.037 1428.78 118.519C1427.61 113.127 1425.86 107.618 1423.29 102.6C1421.95 100.109 1420.35 97.6845 1418.69 95.5479C1416.99 93.2846 1415.46 91.1141 1414.44 88.8077C1414.14 88.2079 1413.97 87.5742 1413.67 86.9744C1413.5 86.3406 1413.21 85.7408 1413.16 85.0731C1412.82 83.8056 1412.45 82.4114 1412.24 81.1099L1410.6 72.9887C1408.45 62.4253 1406.14 51.7691 1403.74 41.2737C1403.58 41.1809 1404.08 41.045 1404.21 41.0111ZM1366.15 198.608C1369.14 193.051 1371.82 187.308 1374.33 181.473C1379.51 169.895 1383.89 157.853 1385.78 145.121C1387.7 132.515 1387.03 119.38 1383.07 107.129C1381.03 101.02 1378.38 95.2074 1375.27 89.6576C1372.15 84.1079 1368.69 78.7868 1365.6 73.3638C1364.06 70.6523 1362.65 67.9068 1361.86 64.9915L1361.16 62.8708L1360.71 60.682C1360.51 59.9215 1360.59 59.2199 1360.51 58.4254C1360.47 57.7577 1360.39 56.9632 1360.6 56.2276C1360.9 53.2941 1362.26 50.7566 1364.46 48.8098C1366.62 46.7363 1369.2 45.2286 1372.08 43.7798C1374.79 42.2381 1377.75 40.6285 1380.17 38.4871C1382.27 36.701 1385.22 36.0466 1388.15 36.3474C1391.09 36.6482 1393.94 37.6507 1396.85 38.9067C1398.36 39.4543 1399.77 40.1627 1401.4 40.6763C1401.85 40.828 1402.14 40.8868 1402.59 41.0384C1403.32 44.7821 1403.54 48.6616 1403.64 52.5751C1403.77 56.6154 1403.78 60.6897 1403.78 64.7639C1403.79 72.9123 1403.64 80.968 1403.78 89.0825C1403.78 93.1567 1403.91 97.197 1404.21 101.33C1404.34 103.333 1404.5 105.463 1404.75 107.432C1405.01 109.402 1405.46 111.59 1405.84 113.525C1406.64 117.523 1407.53 121.359 1407.79 125.365C1408.14 129.211 1407.74 133.26 1407.16 137.217C1406.02 145.13 1403.61 152.842 1400.26 160.124C1396.91 167.406 1392.8 174.35 1387.88 180.831C1380.19 191.178 1370.79 200.217 1360.71 208.217C1362.56 205.002 1364.42 201.788 1366.15 198.608ZM1307.06 243.242C1312.81 240.885 1318.69 238.494 1324.61 236.23C1327.55 235.035 1330.49 233.839 1333.36 232.391C1336.27 231.069 1339.1 229.493 1341.78 227.825C1347.23 224.327 1352.03 219.917 1355.95 214.79C1357.26 213.081 1358.44 211.406 1359.71 209.57C1370.62 201.62 1380.78 192.378 1389.07 181.734C1399.11 168.992 1406.71 153.777 1409.43 137.561C1409.72 135.583 1409.97 133.478 1410.09 131.406C1410.22 129.335 1410.34 127.264 1410.3 125.1C1410.14 120.933 1409.3 116.809 1408.54 112.939C1408.12 110.877 1407.77 109.069 1407.52 107.099C1407.26 105.13 1407.01 103.161 1406.88 101.158C1406.62 97.1515 1406.36 93.1452 1406.23 89.1049C1405.97 81.0244 1405.83 72.9099 1405.44 64.8633C1405.2 59.9018 1404.95 54.9404 1404.58 50.0129C1406.24 57.7198 1407.65 65.4947 1408.8 73.3375L1410.18 81.5265C1410.42 82.9547 1410.63 84.2562 1411.01 85.6505C1411.18 86.2843 1411.38 87.0447 1411.59 87.8052C1411.76 88.439 1412.09 89.1655 1412.38 89.7653C1413.51 92.452 1415.24 94.8421 1416.77 97.0126C1418.46 99.2759 1419.87 101.48 1421.18 103.846C1423.68 108.61 1425.36 113.866 1426.66 119.223C1427.96 124.581 1428.88 130.04 1429.64 135.407C1430.43 140.9 1431.06 146.3 1431.6 151.862C1432.13 156.882 1432.54 161.936 1432.94 166.991C1431.79 170.83 1430.2 174.517 1428.45 178.111C1425.24 184.404 1421.23 190.233 1416.68 195.53C1407.59 206.25 1396.41 215.224 1384.38 222.524C1381.35 224.421 1378.26 226.065 1375.17 227.708L1370.37 230.081C1368.79 230.776 1367.21 231.471 1365.6 232.039C1359.02 234.346 1352.04 235.673 1345.06 237C1331.09 239.654 1316.9 241.962 1303.16 245.917C1300.88 246.529 1298.75 247.233 1296.51 247.971C1299.85 246.259 1303.39 244.768 1307.06 243.242ZM1198.27 345.752C1197.99 344.197 1197.83 342.608 1197.71 341.146C1197.57 338.061 1197.67 334.908 1197.78 331.755C1198.12 325.415 1198.9 319.226 1199.37 312.852C1199.6 309.665 1200.16 306.664 1201.64 304.093C1203.09 301.394 1205.35 299.16 1207.67 297.179C1212.44 293.184 1217.83 289.974 1223.22 286.764C1234.03 280.471 1245.23 274.616 1256.4 268.635L1273.02 259.698C1277.28 257.334 1281.7 255.064 1285.99 252.827C1291.65 250.631 1297.41 248.815 1303.24 247.253C1316.93 243.585 1331.06 241.565 1345.06 239.037C1352.07 237.837 1359.18 236.476 1366.05 234.228C1367.79 233.626 1369.53 233.024 1371.08 232.202L1375.87 229.829C1379.09 228.152 1382.18 226.508 1385.33 224.577C1391.54 220.876 1397.36 216.736 1402.95 212.249C1408.51 207.635 1413.71 202.71 1418.33 197.125C1422.94 191.541 1427.04 185.552 1430.18 179.005C1433.32 172.459 1435.81 165.542 1436.45 158.305L1437.26 147.629C1437.52 144.027 1437.65 140.46 1437.78 136.893C1437.88 129.666 1437.19 122.516 1436.12 115.467C1433.84 101.404 1430.23 87.4279 1425.68 73.9765C1421.2 61.3197 1416.43 48.6039 1410.21 36.5492C1410.18 36.4225 1410.27 36.2618 1410.24 36.135C1410.36 35.5601 1410.22 35.0531 1410.09 34.5461C1410.02 34.2926 1410.05 34.4194 1410.02 34.2926C1409.98 34.1659 1410.11 34.1319 1410.08 34.0052C1410.23 33.557 1410.51 33.0748 1411.07 32.6515C1412.04 31.7121 1413.34 30.9583 1414.79 30.2972C1416.11 29.6701 1417.57 29.0091 1419.05 28.4748C1420.54 27.9404 1422.03 27.4061 1423.42 27.0325C1424.18 26.8288 1424.94 26.625 1425.7 26.4212C1426.43 26.0907 1427.35 25.9797 1428.04 25.5224C1429.62 24.8274 1431.01 23.9128 1432.36 22.8715C1433.59 21.8642 1434.78 20.7301 1435.81 19.5032C1436.38 23.1541 1437.49 26.7959 1439.2 30.1412C1441.15 34.3737 1444.11 38.3345 1447.67 41.4578C1449.44 43.0194 1451.31 44.4203 1453.44 45.7533C1455.4 46.9935 1457.2 48.141 1458.31 49.7456C1459.45 51.4771 1460.03 53.6319 1460.77 55.8794C1461.51 58.127 1462.21 60.2478 1462.95 62.4953C1465.71 71.266 1468.08 80.1386 1470.08 89.113C1471.74 96.82 1473.18 104.722 1474.33 112.564C1474.41 113.9 1474.59 115.075 1474.8 116.376L1475.85 116.231C1475.64 112.892 1475.3 109.588 1474.95 106.283C1474.96 104.787 1474.97 103.291 1475.1 101.761C1475.43 96.917 1476.34 92.1908 1477.25 87.4646C1478.15 82.7384 1479.35 78.0711 1480.1 73.2521C1480.33 72.1022 1480.4 70.8596 1480.61 69.583C1480.81 68.3064 1480.88 67.0637 1480.8 65.7283C1480.66 63.1841 1480.43 60.8008 1480.03 58.3246C1479.29 53.4989 1478.16 48.7752 1477.44 44.0763C1476.72 39.3774 1476.14 34.6446 1476.21 29.8686C1476.29 25.0927 1476.91 20.3077 1478.56 15.792C1479.64 12.2405 1481.5 9.02621 1483.51 5.90472C1483.83 5.54932 1484.3 5.28672 1484.61 4.93135C1486.28 3.53463 1488.29 2.45027 1490.42 2.28712C1492.55 2.12398 1494.41 2.98392 1496.06 4.5795C1497.55 6.08233 1498.77 8.06731 1499.82 9.95946C1500.77 12.0123 1501.6 14.0992 1502.18 16.254L1502.62 17.9017C1502.69 18.1552 1502.79 18.5355 1502.86 18.789C1503.06 19.0085 1503.06 19.5495 1503.71 19.9206C1504.44 20.1311 1504.79 19.9024 1505.17 19.8005L1506.02 19.436C1506.53 19.3002 1507 19.0376 1507.64 18.8678C1509.76 18.1637 1512.01 17.9665 1514.3 17.8962C1516.6 17.8258 1518.79 17.9162 1521.15 18.0993C1521.98 18.149 1522.94 18.1648 1523.76 18.2145L1523.92 18.3073C1524.09 18.4001 1524.28 18.6196 1524.6 18.8052C1525.47 19.5226 1526.34 20.2401 1527.12 21.1182C1528.77 22.7139 1530.55 24.2755 1532.2 25.8711C1535.5 29.0623 1538.8 32.2535 1542.14 35.5714L1542.33 35.791L1542.71 35.6891C1544.36 35.2475 1546.21 35.5666 1547.93 35.9195C1549.69 36.3992 1551.27 37.2003 1552.65 38.3229C1553.69 39.1331 1554.63 40.1041 1555.35 41.2697C1555.47 44.769 1554.76 48.2186 1554.06 51.6681C1553.22 55.1517 1552.2 58.4157 1550.88 61.6209L1542.65 81.0805C1537.17 94.0959 1531.78 106.951 1526.14 119.873C1520.63 132.762 1514.86 145.718 1508.39 158.05C1505.15 164.216 1501.66 170.45 1498.1 176.43C1496.33 179.484 1494.41 182.445 1492.61 185.372L1486.84 194.254L1488.23 195.376C1496.86 186 1502.81 174.76 1510.38 164.988C1514.09 160.055 1518.31 155.528 1523.34 152.006C1528.21 148.39 1534.04 146.287 1539.86 144.184C1545.71 142.207 1551.85 140.29 1557.53 137.138C1560.37 135.563 1562.95 133.514 1565.2 131.28C1567.42 128.919 1569.32 126.372 1571.02 123.606C1574.14 118.015 1576.21 112.028 1577.82 105.89C1579.44 99.7509 1580.51 93.6214 1581.43 87.3991L1581.14 87.3402C1579.78 93.411 1578.45 99.6084 1576.51 105.562C1574.7 111.481 1572.48 117.375 1569.13 122.62C1567.52 125.225 1565.71 127.611 1563.46 129.845C1561.29 131.919 1558.78 133.68 1556.19 135.187C1550.86 138.11 1544.81 139.867 1538.8 141.751C1535.79 142.693 1532.81 143.761 1529.91 145.083C1527 146.405 1524.16 147.981 1521.55 149.903C1516.3 153.62 1512.06 158.561 1508.22 163.528C1504.33 168.782 1500.93 174.314 1497.36 179.753C1497.82 178.95 1498.38 177.985 1498.84 177.182C1502.37 171.075 1505.73 164.875 1508.97 158.709C1515.54 146.216 1521.98 133.758 1527.94 121.021C1533.91 108.284 1539.22 95.1754 1544.29 82.1352C1546.88 75.5981 1549.32 68.9682 1551.79 62.4651C1553.07 59.1331 1554.03 55.6156 1554.61 52.2C1555.22 48.9111 1555.64 45.4027 1555.3 42.0981C1555.49 42.3177 1555.56 42.5712 1555.75 42.7907C1556.57 44.3366 1557.21 46.2039 1557.69 47.9784C1558.76 51.4934 1559.75 55.1692 1560.57 58.7522C1561.4 62.3352 1562.26 66.0449 1562.95 69.6619C1563.9 72.67 1564.84 75.678 1566.41 78.5163C1566.87 79.2089 1567.33 79.9014 1567.78 80.594C1568.37 81.2526 1569.05 81.7505 1569.94 82.0537C1571.54 82.4407 1573.16 82.4134 1574.6 82.7075C1576.04 83.0016 1577.32 83.7439 1578.42 84.8077C1578.97 85.3395 1579.27 85.9393 1579.85 86.5979C1580.08 86.9442 1580.53 87.0958 1580.89 87.4082C1581.21 87.5937 1581.69 87.8721 1582.1 87.897C1583.74 88.4106 1585.36 88.3833 1586.89 88.5167L1591.63 88.4688C1594.75 88.4482 1597.94 88.681 1601.03 89.0746C1604.13 89.4682 1607.25 89.9885 1610.08 91.4052C1610.72 91.7763 1611.49 92.1135 1612.01 92.5186C1612.65 92.8898 1613.2 93.4217 1613.75 93.9535C1614.72 95.0512 1615.64 96.4364 1616.14 97.7967C1617.3 100.61 1618.15 103.779 1619.85 106.583C1620.77 107.968 1621.9 109.159 1623 110.223C1624.23 111.252 1625.45 112.282 1626.9 113.117C1627.67 113.454 1628.44 113.792 1629.27 113.841C1630.13 114.018 1630.8 113.975 1631.31 114.38C1631.64 114.565 1631.83 114.785 1632.06 115.131C1632.25 115.351 1632.36 115.731 1632.42 115.984C1632.63 116.745 1632.67 117.413 1632.75 118.207C1632.89 121.292 1632.66 124.479 1632.68 127.598C1632.58 130.751 1632.47 133.904 1632.65 137.116C1632.8 140.201 1632.98 143.413 1633.7 146.616C1633.91 147.376 1633.98 148.171 1634.19 148.931L1634.67 151.247C1634.95 152.802 1635.07 154.264 1635.07 155.76C1634.93 157.29 1634.64 158.728 1634.06 160.106C1633.51 161.611 1632.83 163.15 1632.7 164.681C1632.47 166.371 1632.63 167.96 1632.91 169.515C1633.19 171.07 1633.72 172.557 1633.88 174.146C1634.13 175.575 1634.15 177.197 1633.7 178.542C1633.28 180.013 1632.34 181.079 1631.47 182.399C1630.97 183.076 1630.67 183.972 1630.49 184.835C1630.32 185.697 1630.55 186.584 1630.63 187.379C1631.01 188.773 1630.71 190.21 1630.1 191.462C1629.51 192.841 1628.61 194.034 1627.58 195.26C1626.68 196.453 1625.49 197.587 1624.39 198.561C1622.98 199.89 1621.54 201.092 1620.13 202.42C1617.28 203.455 1614.49 204.202 1611.44 204.476C1608.01 204.852 1604.6 204.814 1601.16 204.649C1594.25 204.193 1587.57 202.586 1580.85 200.853C1567.46 197.513 1554.11 192.804 1539.84 192.28C1536.27 192.149 1532.68 192.432 1529.19 193.096C1525.7 193.759 1522.34 194.93 1519.06 196.354C1515.81 197.905 1512.87 199.641 1510.04 201.758C1507.22 203.874 1504.58 206.21 1502.14 208.766C1499.7 211.322 1497.58 214.063 1495.63 216.897C1494.63 218.25 1493.7 219.858 1492.74 221.338C1491.94 222.911 1490.98 224.392 1490.3 225.931C1487.1 232.224 1485.11 239.005 1482.61 245.381C1480.11 251.758 1476.9 258.05 1471.66 262.309C1469.12 264.484 1465.96 265.874 1462.86 267.517C1459.77 269.161 1456.46 270.999 1454.19 274.189C1451.92 277.378 1451.44 281.174 1450.35 284.184C1449.41 287.288 1447.39 289.868 1444.85 292.044C1442.31 294.219 1439.41 296.082 1436.58 298.199C1435.1 299.274 1433.75 300.315 1432.31 301.517C1430.99 302.685 1429.61 304.141 1428.52 305.655C1426.75 308.168 1423.79 309.777 1420.57 309.959C1419.11 310.079 1417.17 309.921 1415.42 309.982C1413.67 310.043 1411.83 310.265 1410.11 310.453C1403.1 311.653 1396.39 313.994 1389.81 316.301C1383.22 318.608 1376.84 321.135 1370.05 322.682C1366.72 323.438 1363.32 323.941 1359.82 324.063C1356.45 324.152 1352.94 323.733 1349.55 322.74L1349.49 323.027C1356.09 325.335 1363.44 325.403 1370.3 324.11C1377.15 322.817 1383.86 320.476 1390.48 318.295C1397.09 316.115 1403.71 313.935 1410.38 312.963C1412.09 312.775 1413.81 312.587 1415.43 312.56C1417.15 312.372 1418.71 312.632 1420.71 312.503C1424.56 312.152 1428.28 310.338 1430.55 307.149C1432.42 304.476 1435.16 302.52 1437.86 300.437C1440.72 298.447 1443.62 296.584 1446.35 294.087C1447.66 292.919 1448.95 291.625 1450 289.983C1451.09 288.469 1451.98 286.735 1452.46 284.976C1453.58 281.552 1454.04 278.17 1455.77 275.531C1457.51 272.891 1460.44 271.155 1463.41 269.546C1466.37 267.936 1469.63 266.385 1472.51 263.981C1475.27 261.611 1477.49 258.709 1479.25 255.656C1481.01 252.602 1482.29 249.27 1483.45 245.972C1485.88 239.342 1487.49 232.663 1490.57 226.404C1493.52 220.179 1497.52 214.35 1502.31 209.4C1504.62 206.878 1507.29 204.669 1510.16 202.679C1513.02 200.689 1515.98 199.079 1519.14 197.689C1522.34 196.426 1525.6 195.416 1529 194.913C1532.39 194.411 1535.77 194.322 1539.21 194.487C1546.09 194.817 1552.86 196.263 1559.54 197.869C1566.35 199.442 1572.97 201.336 1579.77 202.908C1586.58 204.481 1593.44 205.766 1600.58 206.028C1606.63 206.308 1612.95 205.565 1618.58 203.242C1618.01 203.665 1617.48 204.216 1616.79 204.673L1615.03 206.23C1614.47 206.654 1613.99 206.916 1613.23 207.12C1611.84 207.493 1610.29 207.774 1608.82 207.894C1605.77 208.169 1602.56 208.35 1599.47 208.497C1593.18 208.826 1586.92 209.282 1580.59 210.024C1568.11 211.603 1555.68 214.391 1543.59 218.445L1539.13 220.048L1534.67 221.651L1530.24 223.381L1525.88 225.364L1521.52 227.347L1517.39 229.677C1515.97 230.465 1514.55 231.252 1513.29 232.133L1509.39 234.809C1504.1 238.399 1499.44 242.775 1494.93 247.243C1492.71 249.604 1490.58 251.804 1488.52 254.258C1486.46 256.712 1484.37 259.039 1482.47 261.586C1474.64 271.425 1467.21 281.704 1459 291.105C1450.78 300.506 1441.54 309.097 1431.41 316.429C1426.45 320.205 1421.06 323.415 1415.34 325.899C1409.62 328.382 1403.53 330.012 1397.34 330.721C1385.02 332.393 1372.32 330.633 1360.23 327.08C1348.17 323.654 1336.68 318.309 1325.45 312.896C1319.84 310.189 1314.15 307.229 1308.44 304.683C1302.73 302.137 1296.65 300.234 1290.4 299.194C1277.92 297.239 1264.9 298.827 1253.33 303.828C1247.97 307.165 1242.59 310.375 1237.65 314.277C1236.43 315.285 1235.2 316.292 1233.98 317.299C1232.76 318.307 1231.73 319.534 1230.5 320.541C1228.41 322.868 1226.35 325.322 1224.64 328.088C1222.91 330.727 1221.65 333.645 1219.91 336.284C1219.2 337.697 1218.17 338.924 1217.31 340.243C1216.28 341.47 1215.37 342.663 1214.18 343.797C1213.65 344.347 1213.12 344.897 1212.59 345.447L1210.83 347.005C1210.3 347.555 1209.64 348.139 1209.07 348.562C1208.51 348.986 1207.85 349.57 1207.12 349.9C1205.86 350.781 1204.41 351.442 1202.95 351.562C1201.49 351.682 1200.04 350.847 1199.32 349.681C1199.08 348.794 1198.68 347.273 1198.27 345.752Z" fill="#FFFDFB"/>
  <path d="M676.022 622.063C665.876 620.706 655.902 618.855 646.04 616.193C636.177 613.53 626.514 610.172 617.28 605.942C608.075 601.509 599.387 596.319 590.87 590.635C574.039 579.295 558.531 565.861 544.176 551.547C515.609 522.631 491.337 489.538 471.427 454.034C461.458 436.383 452.642 417.854 445.332 398.907C438.108 380.075 432.098 360.682 428.229 340.75C417.497 332.395 407.227 323.688 397.358 314.313C394.912 311.817 392.554 309.436 390.223 306.852C387.892 304.268 385.677 301.597 383.808 298.661C382.873 297.194 381.966 295.524 381.378 293.793C381.231 293.36 381.084 292.927 381.052 292.406L380.814 291.135C380.723 290.297 380.544 289.344 380.453 288.505C380.203 285.064 379.954 281.623 380.022 278.121C380.044 271.204 380.269 264.315 380.988 257.596C381.347 254.236 381.821 250.788 382.614 247.28C382.841 246.381 383.069 245.482 383.498 244.61C383.67 244.116 383.928 243.738 384.215 243.157C384.358 242.866 384.589 242.69 384.936 242.427C385.282 242.163 385.628 241.9 386.352 241.894C386.989 241.772 387.454 242.144 387.832 242.401C388.21 242.658 388.385 242.888 388.56 243.118C388.91 243.578 389.172 243.923 389.435 244.268C389.96 244.958 390.342 245.939 390.751 246.716L391.308 247.927C391.367 248.244 391.542 248.474 391.63 248.589C391.833 248.617 392.267 248.468 392.585 248.407C394.001 247.874 395.649 247.165 397.093 246.429C400.185 244.984 403.277 243.539 406.457 242.208C409.636 240.878 412.991 239.778 416.317 238.881C419.731 238.098 423.117 237.518 426.679 237.169C433.685 236.557 440.553 236.96 447.392 237.565C454.231 238.17 461.015 239.181 467.826 239.989C471.276 240.451 474.638 240.798 478 241.144C479.738 241.273 481.362 241.491 483.013 241.505C484.664 241.519 486.315 241.534 487.791 241.318C488.428 241.197 489.18 240.988 489.96 240.576C490.827 240.279 491.695 239.982 492.562 239.685C493.43 239.388 494.269 239.294 495.224 239.111C496.179 238.929 497.019 238.835 497.946 238.856C501.479 238.709 505.044 239.083 508.493 239.544C511.943 240.006 515.364 240.67 518.73 241.74C520.413 242.275 522.096 242.81 523.723 243.751C524.594 244.177 525.35 244.691 526.106 245.206C526.949 245.835 527.677 246.552 528.234 247.762C528.468 248.31 528.559 249.148 528.36 249.845C528.161 250.541 527.874 251.122 527.5 251.588C526.867 252.433 526.378 252.987 525.773 253.629C524.766 254.94 523.556 256.224 522.955 257.589C522.266 258.84 522.242 259.766 523.029 260.801C523.817 261.836 525.125 262.837 526.549 263.75C532.043 267.377 538.599 269.287 544.845 272.704C547.924 274.356 550.919 276.615 552.963 279.78C553.488 280.47 553.985 281.363 554.395 282.141L555.536 284.359C556.268 285.799 557.087 287.354 558.022 288.822C559.688 291.73 561.469 294.55 563.482 297.195C564.444 298.459 565.494 299.839 566.687 300.928C567.765 302.105 569.074 303.106 570.264 303.472C570.757 303.641 571.075 303.581 571.509 303.432L571.971 303.081C572.201 302.905 572.317 302.817 572.548 302.642C572.894 302.378 573.443 302.142 573.877 301.993C575.64 301.197 577.462 300.717 579.344 300.556C580.387 300.489 581.314 300.51 582.328 300.646C583.343 300.781 584.329 301.12 585.376 301.776C586.422 302.433 587.094 303.555 587.332 304.826C587.483 305.983 587.315 307.199 587.088 308.098C586.148 311.174 585.586 314.507 585.227 317.867C584.868 321.226 584.509 324.586 584.353 327.973C584.04 334.747 584.046 341.461 584.661 348.255C585.802 361.73 588.623 375.016 594.364 387.351C599.759 399.949 604.721 412.695 608.815 425.739C612.909 438.782 616.136 452.123 618.841 465.497C620.092 472.17 621.228 478.931 622.248 485.78C622.431 487.457 622.816 489.161 622.999 490.838L623.475 493.38L623.952 495.922C624.635 499.215 625.521 502.535 626.523 505.767C630.645 518.608 637.254 530.645 645.478 541.453C649.591 546.857 654.165 551.91 658.998 556.584C662.172 559.797 665.577 562.834 669.097 565.784C666.85 562.592 664.718 559.311 662.702 555.944C659.489 550.763 656.506 545.407 653.755 539.876C648.136 528.9 643.616 517.452 640.051 505.822C636.513 493.989 633.931 481.974 632.912 469.858C632.702 468.384 632.607 466.822 632.512 465.26L632.314 460.69C632.327 457.594 632.137 454.47 632.238 451.489C632.264 445.296 632.898 439.185 633.736 433.101L633.939 433.128L633.736 433.101C634.784 428.49 636.034 423.907 637.488 419.351C638.942 414.796 640.28 410.327 641.734 405.771C644.729 396.775 647.926 387.805 651.212 378.95L651.24 378.747L651.355 378.66C651.586 378.484 651.817 378.308 652.107 378.45C652.425 378.39 652.6 378.62 652.891 378.762C653.269 379.019 653.531 379.364 653.591 379.682C653.913 380.344 654.147 380.892 654.382 381.44C654.823 382.738 655.177 383.921 655.415 385.193C656.007 387.647 656.369 390.277 656.758 392.704C657.508 397.762 658.056 402.792 658.603 407.822C659.583 417.97 660.359 428.092 660.818 438.273C661.276 448.455 661.619 458.725 661.063 468.771C660.886 473.807 661.433 478.838 662.096 483.78C662.847 488.837 663.828 493.719 665.127 498.54C667.611 508.27 670.934 517.906 675.268 526.954C679.487 536.09 684.804 544.753 691.044 552.713C697.284 560.674 704.475 567.729 712.674 573.473C720.757 579.305 729.847 583.826 739.538 586.982C749.027 590.11 759.116 591.873 769.171 592.392C779.225 592.912 789.51 593.255 799.648 593.166C809.786 593.076 819.979 592.581 829.907 591.018C834.885 590.135 839.775 589.137 844.371 587.274C846.568 586.328 848.792 585.18 850.754 583.687C851.678 582.985 852.513 582.167 853.377 581.147C854.125 580.214 854.874 579.281 855.737 578.261C856.227 577.707 856.832 577.065 857.699 576.768C858.479 576.356 859.406 576.377 860.13 576.37C860.942 576.479 861.841 576.702 862.482 577.305C863.237 577.819 863.647 578.596 863.969 579.259C864.701 580.7 864.824 582.058 864.947 583.417C865.069 584.776 864.874 586.196 864.707 587.413C864.344 590.049 863.372 592.604 862.225 594.929C860.963 597.342 859.411 599.613 857.306 601.397C855.2 603.181 852.685 604.186 850.373 605.22C848.061 606.253 845.574 607.056 843.175 607.974C838.288 609.696 833.458 611.011 828.424 612.3C808.521 617.279 788.435 620.581 768.111 622.612C747.786 624.643 727.399 625.633 707.059 624.77C696.281 624.258 686.167 623.421 676.022 622.063ZM386.053 245.571C385.853 246.267 385.539 247.051 385.34 247.748C384.487 250.938 384.128 254.298 383.769 257.658C383.051 264.378 382.738 271.152 382.831 277.98C382.878 281.394 382.925 284.808 383.29 288.162C383.381 289 383.472 289.839 383.563 290.677L383.802 291.948C383.861 292.266 384.008 292.699 384.068 293.016C384.597 294.43 385.328 295.87 386.175 297.223C389.854 302.775 394.543 307.74 399.261 312.502C408.461 321.478 418.266 329.812 428.33 337.768C433.242 341.111 438.155 344.453 443.068 347.795C454.202 355.481 465.567 362.992 475.033 373.036C476.199 374.328 477.364 375.62 478.414 377C479.464 378.38 480.399 379.847 481.361 381.112C483.258 383.844 485.127 386.779 487.024 389.512C490.675 395.267 494.123 400.995 497.542 406.926C500.875 412.742 504.179 418.761 507.512 424.576C510.844 430.392 514.149 436.411 518.058 441.788C525.849 452.744 534.909 462.735 544.547 472.286C553.341 481.208 562.51 489.663 571.706 497.916C570.043 495.732 568.381 493.547 566.719 491.362C562.75 485.668 559.011 479.798 555.592 473.867C552.084 467.821 548.895 461.714 545.821 455.52C542.748 449.326 539.79 443.043 536.947 436.673L528.506 417.678C527.071 414.594 525.751 411.423 524.112 408.312C523.293 406.757 522.562 405.316 521.627 403.849L518.823 399.446C515.085 393.576 511.434 387.821 507.465 382.126C503.381 376.519 499.269 371.116 494.376 366.124C485.025 355.991 473.716 348.075 462.407 340.159C456.739 336.303 451.098 332.243 445.573 328.096C440.048 323.949 434.55 319.599 429.543 314.695C424.419 309.879 419.786 304.508 415.817 298.814C411.848 293.119 408.11 287.249 404.718 281.115C399.162 271.181 393.954 260.983 389.843 250.312C389.755 250.197 389.552 250.17 389.552 250.17C389.027 249.48 388.88 249.048 388.733 248.615L388.264 247.519C387.942 246.857 387.533 246.079 387.21 245.416C387.035 245.186 386.773 244.841 386.598 244.611C386.339 244.99 386.196 245.281 386.053 245.571ZM482.94 244.284C481.202 244.154 479.463 244.025 477.724 243.896C474.362 243.549 470.913 243.087 467.551 242.741C460.739 241.933 453.956 240.922 447.232 240.229C440.508 239.536 433.728 239.248 427.04 239.799C423.682 240.176 420.323 240.553 417.112 241.362C413.901 242.172 410.662 243.184 407.598 244.426C404.534 245.669 401.327 247.202 398.235 248.647C396.587 249.356 395.143 250.092 393.408 250.686C392.974 250.835 392.54 250.983 391.904 251.104C391.585 251.165 391.382 251.138 390.977 251.084C395.692 261.112 400.985 270.702 406.827 280.055C410.362 285.898 414.216 291.68 418.213 297.172C422.209 302.664 426.783 307.716 431.704 312.506C436.624 317.295 441.918 321.618 447.328 325.853C452.738 330.088 458.379 334.147 463.904 338.294C475.07 346.501 485.833 355.376 495.272 365.624C499.933 370.791 504.364 376.135 508.564 381.654C512.879 387.085 516.848 392.779 520.817 398.474C521.752 399.941 522.802 401.321 523.736 402.789C524.671 404.256 525.49 405.812 526.309 407.367C527.947 410.478 529.383 413.561 530.905 416.76C533.748 423.13 536.504 429.385 539.346 435.755C544.388 447.17 549.748 458.524 555.454 469.614C548.779 450.546 542.105 431.477 533.668 413.205C529.39 403.752 524.65 394.649 518.899 386.135C513.264 377.532 506.041 369.956 500.203 361.327C498.628 359.257 497.399 356.924 495.94 354.767L491.907 348.031C489.219 343.54 486.646 338.962 484.507 334.235C483.394 331.814 482.483 329.42 481.689 326.939C480.894 324.457 480.214 321.888 479.853 319.258C478.927 313.97 479.363 308.555 480.494 303.337C481.511 298.206 483.136 293.157 484.645 288.195C486.155 283.234 487.867 278.299 489.174 273.31C490.48 268.322 491.381 263.279 491.267 258.1C491.197 255.612 491.038 253.009 490.562 250.467C490.145 248.242 489.497 246.194 488.761 244.03C486.33 244.427 484.591 244.298 482.94 244.284ZM524.997 266.021C523.485 264.993 521.974 263.964 520.749 262.355C520.136 261.55 519.58 260.339 519.544 259.095C519.509 257.851 519.967 256.777 520.397 255.905C521.372 254.073 522.467 252.877 523.589 251.478L525.201 249.525C525.575 249.059 525.603 248.856 525.428 248.626C525.369 248.308 524.816 247.821 524.263 247.334C523.71 246.847 523.042 246.448 522.258 246.137C520.806 245.426 519.326 244.918 517.643 244.383C514.48 243.34 511.146 242.791 507.812 242.242C504.566 241.807 501.088 241.548 497.873 241.635C496.222 241.62 494.834 241.951 493.126 242.342C492.374 242.551 491.622 242.76 490.755 243.057C490.003 243.267 489.223 243.679 488.383 243.773C490.578 248.094 491.762 253.003 492.019 257.891C492.336 263.097 491.698 268.485 490.566 273.703C488.331 283.938 484.5 293.752 482.09 303.757C480.986 308.773 480.201 313.728 480.836 318.873C481.268 323.991 482.858 328.954 484.794 333.654C486.817 338.468 489.418 342.844 492.222 347.247C495.026 351.649 497.829 356.052 501.007 359.988C507.219 368.152 514.673 375.552 520.714 384.209C526.871 392.778 531.785 402.11 536.064 411.564C544.477 430.762 550.633 450.587 555.807 470.798C556.129 471.46 556.451 472.123 556.774 472.786C562.038 482.578 567.94 492.249 574.792 501.014C584.454 509.639 594.144 518.061 604.064 526.308C608.253 529.656 612.414 533.208 616.602 536.557C615.496 535.583 614.506 534.521 613.4 533.547C611.304 531.51 609.236 529.272 607.255 527.148C605.302 524.821 603.321 522.697 601.369 520.37L598.541 516.894L595.828 513.33C593.991 510.915 592.356 508.528 590.634 506.025C587.278 501.136 584.267 495.982 581.719 490.478C579.055 485.061 577.258 479.348 575.983 473.6C573.345 461.991 572.819 450.045 572.469 438.328C572.351 432.426 572.234 426.524 571.913 420.595C571.593 414.665 571.476 408.763 570.491 403.158C568.549 391.745 562.962 381.29 557.375 370.835C551.788 360.38 546.519 349.865 542.031 338.937L542.262 338.761C547.733 349.304 553.463 359.468 559.281 369.748C562.176 374.989 564.983 380.115 567.444 385.504C568.236 387.263 568.939 388.906 569.528 390.637C568.718 385.262 567.792 379.974 566.577 374.545C565.035 367.729 563.203 360.772 561.14 353.99C559.077 347.208 556.696 340.486 554.084 333.941C551.472 327.395 548.339 320.883 545.958 314.161C545.37 312.43 544.781 310.699 544.28 309.083C543.692 307.352 543.307 305.648 542.921 303.944C542.536 302.24 542.266 300.449 541.793 298.63C541.523 296.838 541.253 295.046 541.186 293.282C540.516 286.893 540.772 280.524 541.84 274.264C536.844 271.531 530.606 269.56 524.997 266.021ZM657.525 557.523C652.605 552.734 648.031 547.681 643.831 542.162C635.403 531.327 628.62 519.06 624.323 505.989C623.321 502.757 622.347 499.322 621.664 496.029L621.187 493.487L620.711 490.945L619.96 485.887C619.027 479.153 617.776 472.48 616.438 465.691C613.732 452.317 610.478 439.18 606.268 426.224C602.059 413.268 596.982 400.61 591.674 388.127C590.354 384.955 588.919 381.872 587.83 378.525C586.625 375.265 585.739 371.945 584.853 368.625C583.196 361.898 582.176 355.049 581.561 348.254C581.062 341.371 580.881 334.428 581.309 327.566C581.465 324.179 581.737 320.704 582.211 317.257C582.686 313.809 583.161 310.361 584.244 306.995C584.443 306.299 584.527 305.69 584.495 305.17C584.463 304.649 584.201 304.304 583.736 303.932C582.892 303.303 581.269 303.086 579.705 303.186C578.142 303.287 576.638 303.705 575.308 304.354C574.875 304.502 574.644 304.678 574.298 304.941C574.182 305.029 573.951 305.205 573.836 305.293L573.259 305.732C572.22 306.522 570.656 306.623 569.582 306.169C567.406 305.465 566.038 304.146 564.757 302.942C563.476 301.738 562.339 300.243 561.289 298.863C559.189 296.104 557.435 293.081 555.682 290.058C554.863 288.503 553.928 287.035 553.196 285.595L551.968 283.262C551.646 282.599 551.236 281.821 550.798 281.246C548.989 278.629 546.459 276.741 543.583 275.117C543.38 275.09 543.293 274.975 543.002 274.833C542.773 280.999 543.066 287.131 543.88 293.229C544.785 300.166 546.732 307.036 548.707 313.703C549.681 317.138 550.77 320.485 551.859 323.832C552.948 327.179 554.125 330.641 555.33 333.901C557.826 340.534 560.526 347.195 563.022 353.828C568.218 367.123 571.767 381.126 573.636 395.317C575.331 409.279 575.231 423.517 573.623 437.45C573.567 437.855 573.627 438.173 573.571 438.579C573.806 450.383 574.65 462.269 577.749 473.527C579.343 479.213 581.398 484.549 583.975 489.85C586.667 495.064 589.705 500.015 593.09 504.702C594.724 507.089 596.562 509.504 598.312 511.803L600.936 515.252L603.677 518.614C605.542 520.826 607.523 522.95 609.476 525.276C611.456 527.4 613.437 529.524 615.533 531.56C617.514 533.684 619.726 535.632 621.937 537.58C624.149 539.529 626.36 541.477 628.6 543.222C633.051 546.916 637.964 550.258 642.904 553.398C651.159 558.736 659.815 563.406 668.818 567.812C665.035 564.517 661.165 561.108 657.525 557.523ZM767.463 620.563C787.612 618.302 807.813 614.912 827.426 609.791C832.257 608.475 837.203 607.072 841.974 605.438C844.374 604.52 846.745 603.805 849.057 602.772C851.369 601.738 853.681 600.705 855.44 599.185C858.958 596.145 861.164 591.38 861.922 586.627C862.344 584.309 862.389 581.733 861.51 579.86C861.013 578.967 860.46 578.48 859.533 578.459C858.518 578.323 858.057 578.675 857.221 579.492C856.473 580.425 855.696 581.56 854.833 582.581C853.969 583.601 853.018 584.506 851.864 585.385C849.671 587.053 847.331 588.289 844.931 589.208C840.105 591.247 834.984 592.42 829.918 593.188C819.672 594.812 809.479 595.307 799.225 595.484C789.087 595.574 778.802 595.23 768.661 594.596C758.403 594.05 748.226 592.172 738.448 588.901C728.669 585.631 719.376 581.083 711.118 575.021C702.744 569.047 695.378 561.761 689.05 553.686C676.395 537.535 667.982 518.337 663.042 498.674C661.858 493.765 660.79 488.769 660.155 483.623C659.404 478.566 658.972 473.448 659.177 468.209C659.848 458.075 659.478 448.008 659.135 437.738C658.676 427.557 658.103 417.463 657.123 407.314C656.691 402.196 656.144 397.166 655.481 392.224C655.092 389.796 654.73 387.166 654.138 384.712C653.9 383.441 653.546 382.257 653.193 381.074C652.958 380.526 652.839 379.891 652.489 379.431C652.314 379.201 652.139 378.971 652.051 378.856C651.964 378.741 651.964 378.741 651.848 378.829C648.476 387.569 645.19 396.423 642.108 405.305C640.567 409.746 639.113 414.302 637.659 418.858C636.206 423.414 634.867 427.882 633.819 432.492C633.185 438.604 632.55 444.715 632.552 450.705C632.452 453.686 632.642 456.81 632.629 459.906L632.942 464.389C633.037 465.95 633.132 467.512 633.342 468.986C634.564 481.129 637.146 493.144 640.799 504.889C644.364 516.519 649.203 527.907 654.734 538.767C657.601 544.211 660.496 549.452 663.709 554.633C666.922 559.813 670.366 564.818 674.041 569.647L678.706 575.538L672.975 570.64C672.334 570.038 671.578 569.524 670.85 568.807C660.953 564.901 651.254 560.298 641.985 554.824C639.021 553.085 636.173 551.258 633.353 549.228C634.196 549.857 635.039 550.487 635.767 551.204L635.624 551.494C613.328 536.325 591.979 519.527 571.955 501.357C561.944 492.273 552.422 482.634 543.13 472.819C533.954 462.917 525.009 452.838 516.9 441.943L514.069 437.743L511.352 433.455L505.92 424.88C502.269 419.125 498.822 413.396 495.258 407.756C491.695 402.116 488.16 396.273 484.481 390.72C482.7 387.9 480.687 385.256 478.703 382.409C477.653 381.029 476.806 379.676 475.756 378.296C474.793 377.032 473.628 375.74 472.55 374.563C468.151 369.74 462.972 365.33 457.65 361.209C452.443 357.002 446.89 353.057 441.54 349.14C437.876 346.481 434.3 343.937 430.752 341.19C434.502 360.487 440.074 379.305 447.15 397.705C454.461 416.652 463.101 434.951 472.84 452.777C492.547 488.254 516.616 521.32 545.067 550.324C559.307 564.725 574.613 578.133 591.443 589.473C599.873 595.041 608.648 600.346 617.766 604.664C627 608.895 636.548 612.341 646.438 614.8C666.076 620.009 686.45 622.116 706.702 622.864C726.81 623.902 747.198 622.912 767.463 620.563Z" fill="#FFFDFB"/>
  <path d="M366.7 861.436L365.442 859.672C362.089 854.966 358.218 850.492 354.335 846.334C350.264 842.106 346.122 838.064 341.449 834.571C336.906 831.02 331.962 827.959 326.403 825.951C320.972 819.383 314.811 813.608 307.989 808.44C301.168 803.271 293.745 798.839 285.953 795.658C281.963 794.033 277.96 792.724 273.685 791.847C271.612 791.38 269.468 791.099 267.266 790.69C265.18 790.539 263.036 790.259 260.821 790.166C252.276 789.808 243.897 791.549 235.853 794.382C223.616 791.332 210.878 792.7 199.067 796.136C193.175 797.537 187.019 797.66 181.006 797.407C174.936 797.026 168.82 796.199 162.847 794.997C159.825 794.49 156.816 793.666 153.735 793.03C150.655 792.394 147.704 791.699 144.682 791.192C138.58 790.048 132.335 789.279 126.135 788.956C119.934 788.632 113.592 788.683 107.41 789.439C101.286 790.323 94.8765 791.956 89.4084 795.341C88.691 795.818 88.1027 796.237 87.3853 796.715C87.0555 797.018 86.3513 797.179 85.7051 797.468C84.4259 797.732 82.9595 797.924 81.5644 797.929C78.7162 797.809 75.7652 797.115 72.8855 796.233C70.0059 795.352 67.3979 794.038 64.4023 792.898C61.4066 791.757 58.3397 790.804 55.1883 790.355C53.5479 790.16 52.0368 789.906 50.3832 790.027C48.8008 789.961 47.2764 790.023 45.9526 789.841C45.3196 789.815 44.7579 789.601 44.3255 789.329C43.893 789.057 43.5898 788.728 43.1707 788.139C42.3323 786.963 41.6812 785.858 41.3599 784.449C41.1992 783.745 40.8513 782.97 40.4454 782.065C40.0975 781.289 39.6203 780.572 39.1431 779.854C38.0596 778.478 36.9628 777.417 35.6787 776.285C33.1686 774.151 30.1862 772.694 27.6495 771.193C26.3522 770.378 25.2421 769.634 24.3325 768.645C24.0873 768.444 23.7841 768.114 23.6681 767.856C23.4229 767.655 23.249 767.268 23.133 767.009C23.017 766.751 22.7138 766.421 22.5979 766.162L22.134 765.128C21.4381 763.578 19.9222 761.929 18.2371 761.287C16.4941 760.517 14.8537 760.321 13.7303 759.894C12.4777 759.524 11.6841 758.793 10.975 757.559C10.7431 757.042 10.3951 756.267 10.1052 755.62C9.8153 754.974 9.65462 754.27 9.30672 753.494C8.3475 750.664 7.84727 747.473 6.32637 744.429C5.5013 742.936 4.54703 741.501 3.39221 740.312L2.54058 739.452C2.29536 739.251 1.99219 738.921 1.74696 738.721L0.230961 737.072C-1.76218 734.706 -3.75539 732.34 -5.74851 729.974L-17.4489 715.66C-21.306 710.87 -25.2923 706.138 -29.2786 701.405C-33.2649 696.673 -37.2512 691.94 -41.5672 687.511C-42.6641 686.451 -43.8189 685.261 -44.9157 684.201C-45.4641 683.67 -46.1418 683.198 -47.0067 682.655C-47.0647 682.525 -47.2519 682.454 -47.3811 682.512C-47.5683 682.441 -47.6263 682.311 -47.9428 682.298C-48.13 682.227 -49.4539 682.045 -49.9974 682.91C-50.0687 683.097 -50.1399 683.284 -50.2112 683.471C-50.2824 683.658 -50.2825 683.658 -50.2245 683.788L-50.2378 684.104C-50.1798 684.233 -50.1798 684.233 -50.1798 684.233L-50.2063 684.866C-49.7773 688.245 -48.7601 691.204 -47.743 694.163C-46.7258 697.123 -45.5793 700.024 -44.6201 702.854C-44.4594 703.558 -44.1695 704.205 -44.0089 704.909C-43.8482 705.613 -43.6875 706.317 -43.83 706.692C-43.772 706.821 -43.9012 706.879 -43.9012 706.879C-43.9012 706.879 -44.0305 706.937 -43.9725 707.066L-44.7033 707.86C-45.2335 708.408 -45.7637 708.957 -46.236 709.634C-46.7083 710.312 -47.3098 711.048 -47.724 711.854C-48.1383 712.661 -48.3207 713.985 -47.986 715.077C-47.5221 716.111 -46.7285 716.842 -45.9929 717.443C-45.3152 717.916 -44.8828 718.187 -44.2763 718.847C-42.0115 720.781 -39.7598 723.031 -37.5662 725.152C-33.1209 729.523 -28.8628 733.823 -24.676 738.31L-11.8571 751.656L-5.54791 758.451C-3.48351 760.63 -1.74887 763.112 0.173037 765.666C1.90769 768.148 3.70038 770.759 5.56428 773.183C6.58985 774.431 7.55743 775.55 8.58299 776.797C9.7378 777.987 10.7766 778.918 11.8022 780.166C15.989 784.653 19.7748 789.631 24.6791 793.641C25.9052 794.643 27.2605 795.588 28.7583 796.158C29.1328 796.301 29.5072 796.443 30.0109 796.528L31.1476 796.639C31.7805 796.665 32.4002 797.008 33.0778 797.481C35.5432 799.169 37.4072 801.593 39.4003 803.959C41.3935 806.326 43.2574 808.75 45.2505 811.116C47.3729 813.424 49.4953 815.732 52.2192 817.305C52.8389 817.648 53.6458 818.062 54.4659 818.16C55.2149 818.445 55.9058 818.601 56.6547 818.886C58.0945 819.327 59.5924 819.897 60.961 820.525C63.6981 821.781 66.422 823.354 68.9454 825.171C70.1135 826.045 71.3396 827.047 72.4364 828.108C73.5332 829.168 74.5588 830.416 74.8802 831.824C75.0409 832.528 74.9431 833.349 74.9165 833.982L74.6943 836.255L74.2501 840.801C73.7394 846.93 73.6031 853.202 74.8041 859.339C75.3756 862.343 76.3928 865.302 78.0562 867.972C79.7196 870.641 81.9712 872.892 84.7664 874.277C87.2451 875.649 89.3095 877.828 90.8569 880.239C92.5336 882.592 93.8225 885.119 95.0402 887.833C97.4176 893.132 99.0908 898.591 100.822 904.18C104.226 915.229 106.985 926.567 111.035 937.326C112.066 939.969 113.283 942.683 114.759 945.281C115.469 946.515 116.365 947.821 117.203 948.998C118.171 950.116 119.138 951.235 120.048 952.224C123.932 956.381 127.343 961.216 130.05 966.212C131.468 968.681 132.815 971.337 134.233 973.806C135.652 976.275 136.999 978.931 138.804 981.226C139.224 981.814 139.772 982.345 140.32 982.875C140.869 983.405 141.417 983.935 142.037 984.278L143.089 984.893L143.954 985.437C144.574 985.78 145.064 986.181 145.742 986.653C148.078 988.399 150.285 990.204 152.621 991.95C161.707 999.052 171.582 1005.49 182.085 1010.56C192.659 1015.44 204.12 1018.84 215.674 1020.02C227.357 1021.14 239.262 1020 250.426 1016.85C251.835 1016.53 253.314 1016.02 254.736 1015.38C255.124 1015.21 255.511 1015.03 255.899 1014.86C256.287 1014.69 256.617 1014.38 257.147 1013.83C257.347 1013.59 257.632 1012.84 257.472 1012.14C257.414 1012.01 257.356 1011.88 257.298 1011.75C257.298 1011.75 257.298 1011.75 257.427 1011.69C258.073 1011.4 258.777 1011.24 259.482 1011.08L263.591 1009.86C269.109 1008.31 274.755 1006.71 280.17 1004.59C282.942 1003.5 285.715 1002.41 288.255 1000.81C289.618 1000.04 290.795 999.204 291.985 998.049C292.515 997.501 293.116 996.765 293.589 996.087C294.003 995.28 294.159 994.589 294.502 993.97C295.499 991.349 296.626 988.669 297.998 986.191C298.684 984.951 299.37 983.712 300.172 982.731C300.974 981.75 301.964 980.841 302.797 980.622C302.926 980.564 303.43 980.649 303.746 980.662L304.883 980.773L307.098 980.866C308.551 980.99 309.947 980.985 311.471 980.922C314.448 980.984 317.368 980.916 320.301 980.532C323.234 980.148 326.296 979.705 328.965 978.042C329.74 977.694 330.271 977.146 330.93 976.539C331.532 975.804 332.004 975.126 332.231 974.248C332.302 974.061 332.186 973.802 332.258 973.615L332.271 973.298L332.342 973.111C332.342 973.111 332.413 972.924 332.543 972.866C332.872 972.563 333.518 972.273 334.165 971.983C335.515 971.532 336.866 971.082 338.216 970.631C338.862 970.341 339.696 970.122 340.342 969.832C341.117 969.485 341.835 969.007 342.378 968.143C342.65 967.71 342.864 967.148 342.948 966.645C343.033 966.141 342.93 965.566 342.756 965.178C342.408 964.403 342.118 963.757 341.828 963.11C341.119 961.876 340.352 960.512 339.643 959.278C338.225 956.809 336.749 954.211 335.331 951.742C334.622 950.507 334.042 949.215 333.591 947.865C333.475 947.606 333.43 947.16 333.314 946.902C333.328 946.585 333.399 946.398 333.27 946.456L333.399 946.398C333.657 946.282 333.858 946.037 333.987 945.979C334.317 945.676 334.647 945.373 334.789 944.998C336.607 942.475 337.792 939.925 339.106 937.317C340.42 934.709 341.734 932.101 343.222 929.881L343.552 929.578L343.752 929.332L343.882 929.274C343.953 929.087 344.399 929.043 344.657 928.927L346.654 928.186L350.776 926.647C353.419 925.616 356.191 924.528 358.905 923.31C361.619 922.093 364.146 920.804 366.628 919.069C367.805 918.231 369.053 917.205 369.694 915.52C370.193 914.209 370.879 912.97 371.752 911.802C373.311 909.395 375.058 907.058 376.617 904.651C376.96 904.031 377.432 903.354 377.775 902.734C378.118 902.114 378.404 901.365 378.443 900.416C378.399 899.97 378.296 899.395 377.993 899.066C377.69 898.736 377.444 898.535 377.199 898.335C376.651 897.805 376.232 897.216 375.87 896.757C372.187 892.355 368.705 887.707 364.892 883.362C363.925 882.244 362.957 881.125 361.918 880.194C361.37 879.664 360.821 879.134 360.202 878.79C359.957 878.59 359.524 878.318 359.15 878.176C358.962 878.104 358.775 878.033 358.717 877.904C358.846 877.846 358.976 877.788 358.976 877.788C359.234 877.672 359.622 877.498 359.88 877.382C360.527 877.092 361.173 876.802 361.819 876.512C363.111 875.932 364.475 875.165 365.478 873.939C366.008 873.391 366.422 872.584 366.391 871.822C366.346 871.376 366.359 871.06 366.315 870.614C366.328 870.297 366.154 869.91 366.167 869.593C366.18 869.277 366.194 868.96 366.265 868.773C366.336 868.586 366.466 868.528 366.782 868.541C367.098 868.554 367.415 868.568 367.919 868.652C368.106 868.723 368.364 868.607 368.623 868.492C369.011 868.318 369.153 867.943 369.037 867.685C369.077 866.735 368.658 866.147 368.497 865.443C368.207 864.797 367.917 864.15 367.44 863.433L366.7 861.436ZM250.087 1014.36C239.051 1017.45 227.521 1018.74 216.154 1017.63C204.788 1016.52 193.572 1013.32 183.114 1008.7C172.598 1003.95 162.839 997.768 153.623 990.724C151.287 988.978 149.08 987.173 146.744 985.427C146.125 985.084 145.576 984.554 144.956 984.211L143.904 983.596L143.039 983.052C142.42 982.709 142.001 982.121 141.381 981.778C140.833 981.248 140.471 980.789 139.923 980.258C138.175 978.093 136.699 975.495 135.281 973.026C133.862 970.557 132.515 967.901 130.968 965.49C127.944 960.481 124.72 955.717 120.649 951.488C116.378 947.505 113.742 942.322 111.681 937.036C107.502 926.335 104.743 914.997 101.21 904.006C99.4785 898.417 97.6761 893.016 95.2987 887.717C94.139 885.132 92.7921 882.476 91.1154 880.123C89.6839 877.97 87.8067 875.863 85.5153 874.562C85.8318 874.575 86.0323 874.33 86.2907 874.214C86.6205 873.911 86.8923 873.478 87.222 873.175C87.8815 872.569 88.9602 872.551 89.7803 872.648C90.0968 872.662 90.6005 872.746 91.1042 872.831C98.8798 879.434 105.265 887.437 110.804 895.976C116.4 904.643 121.092 913.717 125.584 923.036C127.8 927.631 130.075 932.355 132.608 936.963C133.781 939.231 135.141 941.571 136.573 943.723C138.062 946.005 139.565 947.97 141.126 950.064C144.247 954.253 147.886 958.21 152.126 961.431C156.495 964.595 160.962 966.938 165.144 970.03C169.267 972.993 172.589 976.936 175.911 980.88L175.782 980.938C176.085 981.268 176.33 981.468 176.634 981.798C179.652 985.412 182.988 989.039 186.795 991.989C191.035 995.21 195.89 997.379 200.628 999.29C205.425 1001.33 210.235 1003.05 214.773 1005.21C219.441 1007.31 224.095 1009.72 229.292 1011.27C234.49 1012.82 239.812 1012.92 245.018 1012.75C247.88 1012.56 250.683 1012.23 253.429 1011.78C253.416 1012.09 253.532 1012.35 253.648 1012.61C253.706 1012.74 253.951 1012.94 253.951 1012.94C253.821 1013 253.563 1013.11 253.305 1013.23C252.788 1013.46 251.437 1013.91 250.087 1014.36ZM295.952 985.09C294.509 987.756 293.382 990.435 292.255 993.115C291.912 993.734 291.685 994.612 291.542 994.987C291.271 995.419 290.87 995.91 290.469 996.4C289.479 997.31 288.432 998.09 287.198 998.799C284.729 1000.22 282.144 1001.38 279.443 1002.28C274.099 1004.21 268.453 1005.81 262.935 1007.36L258.826 1008.58C258.121 1008.74 257.475 1009.03 256.642 1009.25C256.254 1009.42 255.996 1009.54 255.55 1009.58C255.421 1009.64 255.421 1009.64 255.291 1009.7C251.971 1010.26 248.664 1010.5 245.298 1010.61C240.222 1010.71 235.1 1010.37 230.348 1008.78C225.596 1007.18 221.071 1004.71 216.346 1002.49C207.037 997.657 196.246 996.443 187.74 990.633C185.577 989.275 183.687 987.483 181.926 985.634C181.622 985.304 181.319 984.975 181.016 984.645C185.082 987.478 189.749 989.576 194.501 991.171C197.943 992.266 201.455 993.174 204.981 993.766C206.809 994.033 208.636 994.3 210.477 994.25C212.376 994.33 214.088 994.338 215.871 994.159C223.118 993.702 230.16 992.096 237.028 990.101C243.896 988.106 250.648 985.853 257.342 983.471C259.598 982.615 262.04 981.829 264.295 980.973C266.711 980.82 269.069 980.539 271.426 980.257C275.05 980.029 278.558 979.542 282.168 979.63C283.88 979.638 285.779 979.718 287.749 979.61C289.532 979.432 291.431 979.511 293.245 980.095C294.872 980.607 296.57 980.931 298.353 980.753C298.353 980.753 298.353 980.753 298.224 980.811C297.453 982.554 296.767 983.793 295.952 985.09ZM341.076 965.932C341.308 966.449 341.166 966.824 340.965 967.069C340.364 967.804 339.071 968.384 337.721 968.835C336.37 969.285 334.962 969.607 333.482 970.115C332.836 970.405 332.003 970.624 331.214 971.288C330.884 971.592 330.354 972.14 330.327 972.773L330.243 973.277C330.171 973.464 330.229 973.593 330.1 973.651C329.802 974.717 328.942 975.568 327.837 976.219C325.626 977.521 322.751 978.035 319.948 978.361C317.144 978.687 314.225 978.755 311.377 978.636C309.982 978.641 308.528 978.516 307.133 978.521L305.047 978.37L303.911 978.259C303.594 978.246 303.278 978.233 302.645 978.206C302.07 978.309 301.624 978.354 301.165 978.715C298.633 978.609 296.231 978.444 293.543 979.029C291.631 979.266 289.861 979.128 288.047 978.545C286.291 978.091 284.535 977.637 282.578 977.428C280.621 977.219 278.664 977.01 276.694 977.118C276.952 977.002 277.34 976.828 277.657 976.841L287.872 973.655C291.277 972.594 294.682 971.532 298.042 970.024C299.722 969.27 301.345 968.387 302.851 967.246C304.357 966.104 305.792 965.15 307.169 964.066L315.676 957.765C318.488 955.728 321.429 953.632 324.241 951.594C326.723 949.859 329.205 948.124 331.803 946.648C331.732 946.836 331.79 946.965 331.848 947.094C331.893 947.54 332.067 947.927 332.111 948.373C332.62 949.853 333.2 951.145 333.838 952.567C335.185 955.223 336.603 957.692 338.021 960.161C338.73 961.395 339.439 962.63 340.019 963.922C340.496 964.64 340.844 965.415 341.076 965.932ZM337.925 936.76C336.552 939.239 335.296 941.976 333.679 944.254C333.479 944.499 333.278 944.745 333.078 944.99C332.948 945.048 332.948 945.048 332.819 945.106L332.69 945.164C332.561 945.222 332.561 945.222 332.431 945.28C332.302 945.338 332.102 945.583 332.03 945.77C331.959 945.957 331.888 946.145 331.817 946.332C328.973 947.608 326.246 949.142 323.518 950.676C320.461 952.513 317.404 954.351 314.405 956.317C311.406 958.284 308.536 960.192 305.595 962.288C304.16 963.243 302.654 964.384 301.219 965.338C299.784 966.293 298.291 967.118 296.74 967.814C293.696 969.335 290.407 970.655 287.118 971.975C283.829 973.296 280.54 974.616 277.251 975.936C275.642 976.503 274.162 977.012 272.683 977.52C272.237 977.565 271.662 977.668 271.216 977.712C267.508 978.444 263.974 979.564 260.542 981.259C259.45 981.594 258.229 981.986 257.079 982.192C243.427 985.677 229.736 990.112 215.861 991.369C212.424 991.669 209.001 991.652 205.533 991.189C202.065 990.727 198.669 990.077 195.285 989.111C191.902 988.145 188.59 986.992 185.478 985.593C183.303 984.551 181.127 983.508 179.152 982.221C178.488 981.432 177.765 980.514 177.101 979.725C173.908 975.724 170.787 971.535 166.618 968.126C162.579 964.66 157.996 962.058 154.131 958.979C150.136 955.959 146.943 951.957 143.88 947.897C142.319 945.803 140.888 943.65 139.514 941.627C138.083 939.475 136.91 937.206 135.607 934.996C133.132 930.517 130.858 925.793 128.512 921.256C123.762 912.054 118.695 902.837 112.711 894.344C109.719 890.097 106.468 885.966 102.888 882.138C99.4233 878.569 95.8876 875.187 91.9509 872.296C92.2674 872.309 92.7131 872.264 93.0296 872.277C93.8497 872.375 94.7859 872.731 95.7933 872.901C98.2985 873.64 100.804 874.379 103.309 875.118C107.33 877.506 111.093 880.01 114.914 882.643C117.379 884.331 119.773 886.207 122.297 888.025L129.479 893.652C134.267 897.404 139.185 901.097 143.773 905.094C148.361 909.091 152.877 913.275 157.264 917.517C161.652 921.759 166.298 925.885 171.215 929.578C176.133 933.272 180.992 936.836 186.369 940.168C191.558 943.429 197.206 946.329 203.024 948.222C208.899 950.244 215.131 951.329 221.371 950.703L221.384 950.387C215.313 950.005 209.482 948.429 203.937 946.104C198.391 943.779 193.189 940.835 188.129 937.516C183.068 934.197 177.879 930.936 173.02 927.371C170.496 925.553 168.16 923.807 165.766 921.931C163.372 920.055 160.978 918.18 158.583 916.304C153.795 912.552 149.207 908.556 144.82 904.314C140.303 900.13 136.045 895.83 131.4 891.704C126.812 887.707 121.765 884.071 116.576 880.81C114.413 879.451 112.309 878.222 110.076 877.05C116.584 879.099 123.222 881.089 130.086 882.201C131.972 882.597 133.929 882.806 135.827 882.886C153.612 897.264 174.204 908.209 195.833 915.583C217.85 922.784 241.033 926.356 264.144 925.613C269.983 925.478 275.777 924.896 281.34 923.798C287.031 922.642 292.504 920.652 297.513 917.629C302.58 914.734 307.054 910.864 311.096 906.722C315.137 902.58 318.817 897.979 321.936 893.164C325.184 888.291 327.87 883.204 330.253 877.788C332.435 872.617 334.114 867.361 335.102 861.95C337.622 866.874 339.825 871.786 342.087 876.826C343.362 879.669 344.897 882.397 346.043 885.298C347.189 888.199 347.948 891.275 348.578 894.408C348.828 896.004 349.207 897.541 349.27 899.066C349.462 900.532 349.525 902.056 349.588 903.581C349.468 906.429 348.27 909.295 347.447 912.304C345.826 917.689 343.947 923.19 342.945 928.918C340.481 931.731 339.297 934.281 337.925 936.76ZM364.032 884.214C367.845 888.558 371.327 893.206 375.01 897.609C375.43 898.197 375.978 898.727 376.397 899.316C376.642 899.516 377.003 899.975 377.191 900.046C377.249 900.176 377.365 900.434 377.293 900.621C377.267 901.254 377.053 901.816 376.71 902.436C376.367 903.055 376.024 903.675 375.681 904.295C374.122 906.702 372.375 909.038 370.816 911.446C370.001 912.743 369.315 913.982 368.687 915.351C368.259 916.474 367.141 917.442 365.964 918.28C363.74 919.899 361.026 921.117 358.441 922.276C355.857 923.436 353.084 924.525 350.384 925.426L346.332 926.778L344.336 927.518C344.077 927.634 343.819 927.75 343.56 927.866C345.787 923.141 347.885 918.473 349.551 913.534C350.121 912.036 350.562 910.596 350.887 908.898C351.269 907.329 351.407 905.559 351.415 903.848C351.424 902.136 350.986 900.469 350.607 898.932C350.098 897.452 349.532 895.843 349.023 894.363C348.006 891.404 347.118 888.387 346.23 885.369C345.342 882.352 344.713 879.219 343.508 876.188C342.362 873.287 340.899 870.372 339.365 867.645C338.54 866.152 337.644 864.846 336.618 863.599C340.684 866.432 344.821 869.078 348.887 871.912C350.92 873.329 352.953 874.746 354.986 876.162C355.851 876.706 356.586 877.307 357.509 877.98C357.567 878.109 357.438 878.167 357.625 878.239C357.799 878.626 358.116 878.64 358.174 878.769C358.361 878.84 358.548 878.911 358.606 879.041C358.851 879.241 359.168 879.254 359.471 879.584C359.961 879.985 360.51 880.515 361.058 881.046C362.097 881.977 363.194 883.037 364.032 884.214ZM368.475 867.471C368.533 867.6 368.533 867.6 368.475 867.471C368.404 867.658 368.217 867.587 368.088 867.645C367.771 867.632 367.397 867.489 366.951 867.534C366.635 867.52 365.93 867.681 365.659 868.114C365.387 868.546 365.432 868.992 365.289 869.366C365.334 869.812 365.32 870.128 365.365 870.574C365.352 870.891 365.468 871.149 365.455 871.466C365.428 872.098 365.085 872.718 364.684 873.209C363.882 874.189 362.518 874.956 361.355 875.478C360.709 875.768 360.063 876.058 359.417 876.348C359.029 876.522 358.77 876.638 358.383 876.812C358.253 876.87 357.995 876.986 357.924 877.173C357.188 876.572 356.524 875.783 355.659 875.239C353.697 873.635 351.664 872.219 349.631 870.802C347.598 869.385 345.436 868.026 343.202 866.855C341.098 865.625 338.793 864.641 336.489 863.657C335.824 862.868 335.16 862.079 334.496 861.29C335.497 855.562 335.49 849.665 334.205 844.032C332.861 838.269 329.851 832.943 325.638 829.089L325.437 829.334C327.314 831.442 328.862 833.853 330.151 836.38C331.44 838.907 332.212 841.666 332.796 844.353C333.895 849.915 333.469 855.541 332.409 861.139C330.104 872.266 325.164 882.711 319.243 892.353C316.312 897.24 312.948 901.854 309.152 906.197C305.356 910.539 301.198 914.423 296.319 917.388C291.439 920.354 285.966 922.344 280.345 923.313C274.783 924.411 269.002 924.676 263.234 924.624C251.77 924.333 240.462 923.352 229.064 921.479C217.795 919.548 206.754 916.739 195.868 913.239C174.471 906.381 154.098 896.27 135.484 883.505C137.254 883.643 139.153 883.723 140.864 883.731C144.863 883.645 148.874 883.243 152.711 882.453C156.549 881.662 160.342 880.427 163.961 878.803C165.77 877.991 167.521 877.05 169.273 876.109C170.966 875.039 172.789 873.911 173.947 871.994C175.163 870.206 175.386 867.932 175.278 865.962C175.17 863.992 174.746 862.009 174.193 860.084C173.086 856.233 171.392 852.801 169.251 849.414C167.168 846.157 164.827 843.015 162.486 839.873C161.461 838.626 160.622 837.449 159.597 836.201C164.304 837.35 169.296 837.75 174.173 837.891C176.834 837.939 179.437 837.858 182.169 837.719C184.772 837.638 187.388 837.24 190.063 836.972C195.353 836.306 200.573 835.828 205.837 835.795C211.159 835.891 216.338 836.362 221.447 837.02C223.965 837.443 226.484 837.865 228.989 838.605C230.241 838.974 231.365 839.402 232.675 839.9C233.986 840.399 235.368 840.711 236.62 841.08C239.255 841.762 241.903 842.126 244.55 842.491C247.198 842.856 249.846 843.22 252.436 843.456C257.673 844.056 262.911 844.656 268.019 845.314C270.667 845.679 273.185 846.101 275.762 846.653C278.338 847.205 280.785 847.815 283.277 848.87L283.478 848.625C281.258 847.137 278.694 846.269 276.189 845.53C273.684 844.791 271.05 844.109 268.473 843.558C263.32 842.454 258.096 841.537 252.93 840.75C247.763 839.963 242.597 839.175 237.573 838.013C236.379 837.773 235.126 837.404 234.003 836.976C232.879 836.548 231.439 836.108 230.187 835.738C227.552 835.057 224.905 834.692 222.128 834.386C216.819 833.973 211.542 834.322 206.264 834.671C203.661 834.752 200.987 835.021 198.384 835.102C195.781 835.183 193.12 835.135 190.459 835.086C187.798 835.038 185.137 834.99 182.534 835.071L174.725 835.314C169.835 835.49 164.758 835.594 159.753 835.511C158.424 833.933 157.166 832.168 155.708 830.649C150.696 824.669 144.579 819.34 137.304 815.928C133.76 814.257 130.274 812.716 127.79 809.949C126.578 808.63 125.636 806.879 125.328 805.154C124.962 803.3 125.042 801.401 126.187 799.8L125.942 799.6C124.61 801.129 124.2 803.331 124.437 805.243C124.732 807.285 125.472 809.281 126.672 810.917C127.871 812.552 129.53 813.826 131.13 814.971C132.86 816.058 134.532 817.016 136.204 817.974C143.033 821.431 148.647 826.675 153.93 832.223C156.543 834.932 159.272 837.9 161.814 840.796C164.355 843.693 166.897 846.589 168.979 849.847C169.992 851.411 170.933 853.162 171.816 854.785C172.627 856.594 173.252 858.332 173.747 860.128C174.243 861.924 174.48 863.837 174.4 865.735C174.449 867.576 174.053 869.462 172.98 870.875C171.906 872.288 170.342 873.301 168.661 874.054C167.039 874.937 165.23 875.749 163.492 876.374C159.944 877.81 156.352 878.801 152.644 879.533C145.227 880.997 137.632 880.679 130.005 879.598C122.508 878.459 114.921 876.429 107.45 874.658C103.621 873.736 99.9207 872.757 96.0783 872.152L94.6965 871.84C94.1928 871.756 93.6891 871.671 93.1141 871.774C92.6684 871.818 92.0934 871.921 91.6477 871.966C91.202 872.011 90.6983 871.926 90.2526 871.971C89.3032 871.931 88.1533 872.136 87.3645 872.801C86.9055 873.162 86.6338 873.594 86.4913 873.969C86.2195 874.401 85.7738 874.446 85.3413 874.174C82.6754 872.731 80.2945 870.539 78.8184 867.94C77.2129 865.4 76.325 862.383 75.6242 859.437C74.4813 853.429 74.6175 847.157 75.1282 841.028L75.5725 836.482L75.7947 834.209C75.7632 833.446 75.9903 832.568 75.8296 831.864C75.3923 830.197 74.3667 828.949 73.2698 827.889C72.173 826.828 70.947 825.826 69.7209 824.823C67.1975 823.006 64.4736 821.433 61.6784 820.048C60.3099 819.42 58.812 818.85 57.3142 818.28C56.5653 817.995 55.8744 817.839 55.1255 817.554C54.4345 817.398 53.8149 817.055 53.008 816.641C50.4713 815.139 48.3489 812.831 46.3557 810.465C44.3626 808.099 42.4987 805.675 40.6348 803.25C38.6416 800.884 36.849 798.273 34.1963 796.513C33.5186 796.041 32.7118 795.626 31.8916 795.529C31.3879 795.444 31.0714 795.431 30.7549 795.417C30.4385 795.404 30.064 795.262 29.6895 795.119C28.379 794.62 27.0816 793.805 25.8556 792.803C23.4614 790.927 21.339 788.619 19.4038 786.382L13.2951 779.341C12.3275 778.223 11.1728 777.033 10.076 775.972C9.10835 774.854 8.14074 773.735 7.24442 772.43C5.38052 770.006 3.71708 767.336 2.11168 764.796C0.319024 762.185 -1.41563 759.702 -3.53802 757.394L-9.8472 750.599C-14.034 746.112 -18.2788 741.495 -22.4656 737.008C-26.6524 732.521 -30.9684 728.092 -35.2845 723.662C-37.4782 721.541 -39.6005 719.233 -42.0527 717.228C-42.6011 716.698 -43.3368 716.096 -44.0144 715.624C-44.5049 715.223 -44.808 714.893 -44.982 714.506C-45.2719 713.859 -44.7151 712.678 -43.7839 711.639C-43.2536 711.091 -42.8526 710.6 -42.3224 710.052C-41.9926 709.749 -41.7921 709.504 -41.4624 709.2C-41.3331 709.142 -41.3911 709.013 -41.2619 708.955C-41.1906 708.768 -41.1194 708.581 -40.8609 708.465C-40.7184 708.09 -40.7051 707.774 -40.6338 707.587C-40.5228 706.45 -40.7414 705.617 -40.9021 704.912C-41.1208 704.079 -41.2814 703.375 -41.5001 702.541C-42.3881 699.524 -43.5345 696.623 -44.4937 693.792C-45.279 691.35 -46.0642 688.908 -46.533 686.479C-46.475 686.608 -46.2878 686.679 -46.2298 686.808C-45.1329 687.869 -44.0362 688.929 -43.0686 690.048C-34.695 699.022 -26.9808 708.603 -19.1375 718.126L-7.43705 732.439C-5.44391 734.805 -3.58002 737.229 -1.4576 739.538L0.116391 741.316C0.419566 741.645 0.664821 741.846 0.968024 742.176L1.76161 742.906C2.72922 744.025 3.50955 745.072 4.21866 746.306C5.50762 748.833 6.07909 751.837 6.96701 754.855C7.1857 755.688 7.47562 756.334 7.69432 757.168C8.04222 757.943 8.33215 758.589 8.73805 759.494C9.21519 760.212 9.75033 761.058 10.486 761.66C11.2216 762.261 12.0865 762.805 12.9647 763.032C14.6497 763.673 16.1608 763.927 17.2842 764.354C18.4656 764.911 19.1299 765.7 19.781 766.805L20.2449 767.839C20.4189 768.227 20.5928 768.615 20.896 768.944C21.07 769.332 21.3732 769.662 21.6764 769.991C21.9796 770.321 22.2828 770.651 22.586 770.981C23.7988 772.3 25.1541 773.244 26.5807 774.002C29.3046 775.574 31.9705 777.017 34.1774 778.822C35.2162 779.753 36.3131 780.814 37.1514 781.99C37.9897 783.167 38.4536 784.201 38.9622 785.68C39.1809 786.514 39.5288 787.289 39.8767 788.065C40.2246 788.84 40.7018 789.557 41.3082 790.217C41.7853 790.934 42.579 791.665 43.4438 792.209C44.3087 792.752 45.3161 792.921 46.1363 793.019C47.9059 793.157 49.4303 793.094 50.8834 793.218C52.4657 793.285 53.9189 793.409 55.372 793.533C58.3362 793.911 61.2159 794.793 64.0243 795.862C66.7035 796.989 69.6279 798.316 72.6948 799.269C75.7617 800.222 78.8999 800.987 82.1939 801.062C83.7762 801.129 85.5591 800.95 87.226 800.512C88.0594 800.294 88.8929 800.075 89.8109 799.353C90.3991 798.933 90.9873 798.514 91.5756 798.095C96.5266 794.942 102.49 793.354 108.485 792.527C114.48 791.701 120.635 791.578 126.706 791.96C132.777 792.341 138.835 793.039 144.937 794.183C147.959 794.69 151.039 795.326 153.932 795.891C156.955 796.399 159.906 797.093 162.986 797.73C169.088 798.873 175.262 799.83 181.462 800.153C187.604 800.347 194.018 800.109 200.227 798.721C203.302 797.962 206.19 797.132 209.194 796.561C212.198 795.989 215.26 795.547 218.251 795.292C224.29 794.911 230.491 795.235 236.263 796.681L236.58 796.695L236.709 796.637C236.379 796.94 235.92 797.301 235.461 797.662C234.485 798.255 233.509 798.849 232.346 799.37C230.149 800.356 227.965 801.025 225.652 801.753C221.155 803.149 216.542 804.287 211.858 805.613C207.303 806.88 202.677 808.334 198.225 810.177C193.83 812.148 189.262 813.732 184.618 814.108C179.844 814.542 175.181 813.839 170.448 813.323C165.714 812.808 160.98 812.292 156.175 811.964C146.636 811.12 137.155 810.405 127.616 809.561L127.603 809.878C136.804 812.737 146.316 814.213 155.855 815.057C160.718 815.515 165.465 815.714 170.212 815.913C174.959 816.112 179.907 816.066 184.636 815.186C189.423 814.436 194.049 812.982 198.733 811.656C203.23 810.26 207.959 809.38 212.514 808.113C217.069 806.846 221.753 805.52 226.205 803.678C228.461 802.822 230.658 801.836 232.739 800.592C233.844 799.94 234.762 799.218 235.809 798.438C236.469 797.831 236.999 797.283 237.413 796.476C245.012 793.688 253.133 792.063 261.174 792.337C263.331 792.3 265.346 792.638 267.432 792.789C269.447 793.127 271.591 793.408 273.664 793.875C277.809 794.81 281.754 795.99 285.744 797.615C293.536 800.795 300.901 805.099 307.535 810.196C314.298 815.235 320.46 821.01 325.833 827.449L325.891 827.578L326.079 827.649C331.521 829.399 336.394 832.647 341.009 836.011C345.552 839.562 349.765 843.416 353.836 847.645C357.849 851.744 361.59 856.276 364.885 860.853L366.143 862.618L367.271 864.44C367.561 865.086 367.98 865.675 368.27 866.321C368.27 866.321 368.56 866.967 368.475 867.471Z" fill="#FFFDFB"/>
  <path d="M96.3989 804.004C95.3517 804.784 94.4205 805.823 93.244 806.661C92.1968 807.442 90.9623 808.151 89.7991 808.673C89.1529 808.962 88.5067 809.252 88.0477 809.614C87.4595 810.033 86.8133 810.323 86.3543 810.684C85.3071 811.464 84.1306 812.303 83.1414 813.212C81.2209 815.161 79.6036 817.439 78.606 820.06L78.8512 820.26C81.2621 818.713 83.2273 817.21 85.2058 815.391C86.195 814.481 87.055 813.63 88.0442 812.72C89.0335 811.811 89.8355 810.83 90.8247 809.92C91.7559 808.881 92.8032 808.101 93.9084 807.45C95.0136 806.799 96.422 806.477 97.6432 806.085C98.2894 805.795 98.8064 805.563 99.4526 805.273C100.099 804.983 100.558 804.622 101.146 804.203C102.193 803.422 103.298 802.771 104.359 801.674L104.243 801.416C102.848 801.421 101.439 801.742 100.218 802.135C98.7386 802.643 97.4461 803.223 96.3989 804.004Z" fill="#FFFDFB"/>
</svg>
