<svg width="610" height="463" viewBox="0 0 610 463" fill="none"
  xmlns="http://www.w3.org/2000/svg">
  <path d="M583.545 146.014C587.428 142.411 590.676 138.27 593.69 133.865C595.236 131.706 596.538 129.45 597.762 127.105L599.554 123.627C600.121 122.494 600.611 121.273 601.189 119.974C603.226 115.177 604.863 110.106 606.089 104.927C608.453 94.6474 609.411 84.2005 609.127 73.5962C608.921 63.0798 607.542 52.6602 605.235 42.4353C604.126 37.2837 602.674 32.2785 601.056 27.2633C599.438 22.2482 597.478 17.3793 595.087 12.7348L591.419 5.76315C590.824 4.5605 590.14 3.43597 589.457 2.31143C589.077 1.70514 588.774 1.18693 587.885 0.717017C587.397 0.52112 586.976 0.579368 586.634 0.725668C586.292 0.871966 585.95 1.01829 585.696 1.08648C584.581 1.60348 583.232 1.85639 582.059 1.95309C580.72 2.03986 579.361 2.45892 578.159 3.05404C575.743 4.4104 574.031 6.55899 572.417 8.46337C570.715 10.4459 569.168 12.6044 567.164 14.0687C566.117 14.8398 564.934 15.1026 563.732 15.6978C562.451 16.2048 561.336 16.7219 560.124 17.4831C558.999 18.1663 558.021 19.1916 557.287 20.3149C556.553 21.4382 555.975 22.7375 555.73 24.0567C555.406 25.2878 555.239 26.6951 555.159 28.0242L555.1 29.021L554.962 29.9298C554.845 30.5064 554.639 31.161 554.355 31.7276C553.375 34.1701 551.995 36.3385 550.615 38.507C549.157 40.5874 547.611 42.746 545.987 44.8165C542.739 48.9575 539.422 52.8444 536.017 56.8094C529.052 64.5633 521.764 72.1312 514.252 79.2689C506.651 86.4847 499.061 93.5344 490.846 99.8798C488.753 101.422 486.748 102.886 484.421 104.165C482.182 105.365 479.787 106.389 477.391 107.413C472.6 109.461 467.663 111.167 462.726 112.873C443.066 119.619 422.801 125.328 402.916 131.644C383.032 137.959 363.049 144.519 343.662 152.282C338.793 154.242 334.002 156.29 329.211 158.338C326.816 159.362 324.489 160.64 322.172 161.753L318.652 163.46C317.449 164.055 316.324 164.738 315.2 165.421C305.979 170.456 297.354 176.694 289.753 183.909C282.153 191.125 275.568 199.485 270.517 208.687C267.991 213.289 265.71 217.988 263.673 222.784C261.636 227.581 259.677 232.466 257.073 236.979C256.416 239.608 256.013 242.168 256.109 244.758C256.195 246.097 256.282 247.436 256.623 248.707C256.964 249.978 257.725 251.19 258.927 252.012C259.483 252.462 259.972 252.658 260.44 253.187C260.831 253.627 260.957 254.301 261.172 254.897C261.347 256.158 261.355 257.409 261.198 258.65C260.795 261.211 260.148 263.673 259.246 266.204C258.433 268.656 257.375 271.01 256.152 273.355C255.584 274.488 254.928 275.699 254.204 276.657C254.018 276.979 253.842 277.135 253.666 277.291C253.314 277.604 253.128 277.926 253.02 278.337C252.726 279.069 252.764 279.822 252.891 280.496C253.144 281.845 253.563 283.204 254.412 284.339C255.095 285.463 256.277 286.617 257.762 286.873C258.505 287.001 259.355 286.718 259.962 286.337C260.568 285.957 261.018 285.4 261.468 284.843C261.918 284.287 262.202 283.72 262.574 283.075L263.592 281.385C266.43 277.137 269.678 272.996 273.083 269.031C276.41 264.978 279.892 261.101 283.453 257.312C290.497 249.646 297.863 242.166 305.375 235.028C307.312 233.31 309.17 231.503 311.107 229.785C312.075 228.926 313.043 228.067 314.012 227.207L317.073 224.806C317.513 224.415 318.119 224.035 318.637 223.732L320.202 222.658L321.767 221.585C322.285 221.282 322.891 220.902 323.41 220.599L326.773 218.716L330.283 217.175C330.88 216.96 331.398 216.658 332.082 216.365L333.871 215.722L337.538 214.357C340.001 213.587 342.465 212.817 345.006 212.135C347.548 211.453 350.002 210.849 352.622 210.255C355.153 209.74 357.695 209.058 360.305 208.63C370.51 206.655 380.861 205.022 391.135 203.301C401.408 201.581 411.681 199.86 422.043 198.061L452.892 192.4C463.254 190.601 473.527 188.88 483.8 187.159C494.074 185.439 504.435 183.64 514.66 181.332C524.885 179.025 535.052 176.298 544.799 172.211C554.547 168.125 563.7 162.836 572.013 156.246L577.989 151.101C578.957 150.242 579.925 149.382 580.904 148.357L583.545 146.014ZM403.53 133.931L433.513 124.634C443.533 121.564 453.476 118.406 463.35 114.994C468.287 113.288 473.234 111.416 478.025 109.368C480.42 108.344 482.825 107.154 485.153 105.876C487.48 104.597 489.739 103.065 491.753 101.435C499.979 94.923 507.657 87.7952 515.101 80.4033C521.479 74.1149 527.612 67.7286 533.512 61.0781C530.066 67.1248 526.386 72.9074 522.306 78.4159C517.501 84.8816 512.14 90.8973 506.389 96.4728C500.637 102.048 494.26 106.92 487.493 111.351C480.726 115.782 473.959 120.213 467.046 124.302C463.594 126.263 459.898 128.127 456.076 129.316C452.253 130.505 448.304 131.019 444.189 131.524C436.057 132.289 428.042 133.894 420.182 135.676C412.323 137.457 404.454 139.405 396.574 141.519C392.674 142.62 388.695 143.633 384.873 144.822C381.481 145.786 378.167 146.839 374.764 147.97C368.578 148.267 362.371 148.897 356.233 149.781C371.914 144.048 387.644 138.902 403.53 133.931ZM576.553 150.015L570.587 154.994C562.45 161.427 553.385 166.638 543.814 170.568C534.242 174.499 524.242 177.236 514.017 179.543C503.88 181.772 493.528 183.405 483.255 185.126C472.904 186.759 462.63 188.48 452.347 190.367L421.575 196.116C411.292 198.002 401.019 199.723 390.745 201.444C380.472 203.165 370.121 204.798 359.818 207.017C357.286 207.533 354.666 208.126 352.134 208.642C349.603 209.158 346.973 209.918 344.519 210.522C341.978 211.204 339.426 212.052 336.962 212.822L333.296 214.187L331.419 214.908C330.823 215.123 330.216 215.503 329.62 215.718L326.022 217.337L322.57 219.298C321.964 219.679 321.368 219.894 320.84 220.362L319.187 221.514L317.534 222.666C316.928 223.046 316.41 223.349 315.881 223.818L312.81 226.385C311.764 227.156 310.874 228.104 309.905 228.963C307.969 230.681 306.11 232.488 304.164 234.372C296.641 241.676 289.275 249.156 282.388 256.998C278.905 260.875 275.501 264.84 272.174 268.893C268.848 272.946 265.599 277.087 262.751 281.502L261.733 283.192C261.449 283.758 261.166 284.325 260.804 284.804C260.079 285.761 259.111 286.62 258.124 286.394C257.049 286.247 256.102 285.357 255.497 284.32C254.804 283.362 254.297 282.081 254.112 280.986C254.064 280.4 254.015 279.813 254.133 279.237C254.231 278.992 254.329 278.748 254.505 278.592C254.769 278.358 254.955 278.035 255.219 277.801C255.953 276.678 256.609 275.466 257.177 274.333C258.323 271.901 259.302 269.458 260.116 267.006C260.929 264.553 261.586 261.925 261.911 259.277C261.99 257.948 262.07 256.618 261.817 255.269C261.69 254.595 261.476 253.999 261.017 253.304C260.636 252.698 259.904 252.404 259.425 252.042C258.38 251.396 257.697 250.272 257.268 249.079C256.839 247.886 256.752 246.547 256.665 245.208C256.57 242.618 256.895 239.97 257.542 237.507C260.312 233.004 262.271 228.119 264.386 223.411C266.589 218.624 268.87 213.925 271.474 209.412C276.682 200.386 283.335 192.28 290.847 185.142C298.437 178.092 307.053 172.021 316.186 167.064C317.31 166.381 318.435 165.698 319.549 165.181L323.069 163.473C323.499 163.249 324.018 162.947 324.526 162.81C330.069 160.724 335.691 158.725 341.449 157.235C348.057 155.462 354.645 154.021 361.37 153.089C368.095 152.157 374.888 151.478 381.564 151.377L384.154 151.281C384.984 151.331 385.903 151.302 386.656 151.264L391.738 151.317C395.061 151.516 398.559 151.558 401.872 151.923C403.612 152.11 405.273 152.209 406.925 152.474L411.967 153.192C413.618 153.458 415.27 153.723 416.999 154.076L419.472 154.557L421.944 155.038C423.585 155.47 425.237 155.735 426.878 156.167L431.803 157.461C435.086 158.324 438.349 159.519 441.535 160.627C454.353 165.143 466.936 170.813 480.451 173.454C483.744 174.151 487.223 174.526 490.623 174.812C494.034 174.932 497.533 174.974 500.964 174.762C504.394 174.55 507.845 174.006 511.217 173.374C514.59 172.742 517.972 171.943 521.286 170.891C527.904 168.951 534.308 166.416 540.565 163.538C546.823 160.661 552.856 157.353 558.665 153.615C570.272 146.305 581.05 137.528 589.856 126.883C594.258 121.56 597.938 115.778 600.973 109.623C604.008 103.469 606.155 96.8444 607.304 90.1604L607.06 90.0624C604.096 103.391 597.205 115.484 588.342 125.709C583.949 130.865 578.999 135.572 573.747 139.76C568.574 144.036 562.999 148.038 557.288 151.532C551.568 155.192 545.545 158.334 539.453 161.221C533.362 164.109 527.036 166.732 520.584 168.681C514.132 170.63 507.543 172.071 500.75 172.749C497.398 173.049 493.977 173.095 490.644 173.062C487.322 172.864 483.921 172.578 480.618 172.047C473.934 170.898 467.378 169.006 461.007 166.791C454.637 164.577 448.199 162.108 441.838 159.728C429.03 155.045 415.741 151.417 401.991 149.929C398.6 149.476 395.189 149.356 391.701 149.148C388.202 149.106 384.879 148.907 381.448 149.119C374.519 149.289 367.804 150.055 360.991 151.065L355.937 151.931L350.952 153.05C349.261 153.45 347.57 153.849 345.957 154.336C344.344 154.823 342.653 155.222 341.04 155.71L336.19 157.338C335.682 157.474 335.34 157.62 334.91 157.845C338.077 156.45 341.323 155.143 344.569 153.836C347.981 152.54 351.227 151.233 354.639 149.936C367.971 148.648 381.332 148.278 394.535 149.15C408.579 149.905 422.719 151.833 436.713 153.419C450.785 155.093 464.965 156.357 479.117 156.701C482.615 156.744 486.28 156.796 489.789 156.672C493.376 156.636 496.885 156.512 500.491 156.144C504.01 155.854 507.627 155.319 511.009 154.521C514.557 153.732 517.96 152.602 521.293 151.217C527.883 148.359 533.956 144.387 539.394 139.876C544.998 135.376 550.124 130.513 555.249 125.65C560.297 120.7 565.276 115.495 569.542 109.664C573.808 103.833 577.274 97.4541 579.919 90.8594C585.462 77.6019 588.221 63.5111 590.393 49.4687C590.934 45.9996 591.396 42.4426 591.859 38.8855C592.321 35.3284 592.696 31.8494 592.992 28.2824C593.288 24.7153 593.418 21.1384 592.884 17.5218C592.573 15.7526 592.262 13.9833 591.696 12.2823C591.131 10.5812 590.478 8.95822 589.57 7.40345L589.394 7.55965C590.214 9.19253 590.867 10.8155 591.266 12.5066C591.665 14.1978 591.977 15.967 592.122 17.7264C592.412 21.245 592.203 24.7339 591.741 28.291C591.366 31.77 590.738 35.3172 590.197 38.7863L588.487 49.2716C587.318 56.2878 585.905 63.2061 584.169 69.9384C582.345 76.7488 580.355 83.5493 577.554 89.968C576.957 91.5996 576.115 93.1332 575.351 94.7549C574.587 96.3767 573.745 97.9104 572.903 99.444C571.983 100.89 571.22 102.511 570.222 103.869C569.302 105.315 568.294 106.838 567.296 108.196C563.205 113.871 558.392 119.085 553.511 124.046C548.464 128.997 543.416 133.947 537.978 138.458C532.54 142.968 526.79 147.127 520.444 150.082C514.099 153.038 507.168 154.625 500.121 155.371C493.073 156.118 485.988 156.111 478.912 155.939C471.836 155.767 464.79 155.096 457.754 154.259C450.718 153.422 443.692 152.419 436.656 151.582C429.62 150.745 422.594 149.742 415.47 148.983C408.424 148.312 401.29 147.719 394.224 147.381C388.321 147.112 382.398 147.175 376.544 147.492C391.168 144.114 405.879 140.657 420.493 137.445C428.431 135.752 436.29 133.97 444.286 132.697C448.245 132.016 452.38 131.179 456.212 129.824C460.123 128.557 463.73 126.772 467.348 124.82C470.966 122.869 474.418 120.907 478.036 118.956C481.654 117.004 485.105 115.043 488.577 112.749C495.5 108.494 502.209 103.643 508.049 97.9892C514.055 92.3455 519.269 85.9876 523.839 79.2578C528.136 72.9285 531.699 66.3053 534.696 59.3982C535.322 58.6853 535.948 57.9724 536.486 57.3376C539.891 53.3726 543.295 49.4076 546.544 45.2666C546.72 45.1104 546.73 44.9442 546.906 44.788C547.305 46.4791 546.697 48.2769 545.699 49.6345C545.151 50.4354 544.525 51.1483 543.977 51.9493C543.351 52.6622 542.715 53.5412 542.167 54.3421C540.053 57.6339 538.339 61.1997 536.792 64.7753C535.245 68.351 533.541 71.7507 531.672 75.1404C529.802 78.5301 527.776 81.7437 525.506 84.8594C523.236 87.9751 520.965 91.0908 518.461 93.9424C516.035 96.8821 513.286 99.6357 510.537 102.389C505.049 107.731 499.161 112.798 492.727 117.249C486.38 121.622 479.486 125.378 472.31 128.284C465.212 131.278 457.889 133.842 450.577 136.24C448.71 136.796 446.921 137.439 445.063 137.828C443.206 138.218 441.271 138.519 439.413 138.908L427.879 140.804C424.086 141.494 420.216 142.097 416.403 143.12C414.458 143.587 412.591 144.143 410.802 144.786C409.012 145.43 407.047 146.229 405.639 147.479L405.795 147.655C407.282 146.493 409.237 145.86 411.016 145.382C412.883 144.827 414.741 144.438 416.598 144.048C420.391 143.358 424.261 142.755 428.044 142.231L439.637 140.756C441.572 140.454 443.507 140.153 445.443 139.852C447.466 139.472 449.333 138.917 451.201 138.362C454.935 137.251 458.679 135.974 462.267 134.521C465.855 133.068 469.454 131.448 472.895 129.653C476.415 127.946 479.779 126.063 483.231 124.101C486.594 122.218 490.046 120.256 493.263 118.031C499.845 113.922 506.289 109.305 512.021 104.062C517.763 98.6525 523.104 92.9692 527.576 86.4836C529.856 83.2018 531.892 79.822 533.684 76.3443C535.475 72.8666 537.111 69.2127 538.492 65.6271C539.873 62.0415 541.176 58.3679 543.124 55.0662C543.594 54.1773 544.054 53.4544 544.602 52.6535C545.15 51.8526 545.698 51.0517 546.246 50.2507C546.716 49.3618 547.186 48.4728 547.333 47.3979C547.471 46.4891 547.443 45.5703 546.994 44.7099C548.354 42.8737 549.714 41.0375 551.084 39.0352C552.552 36.7886 553.932 34.6201 554.911 32.1776C555.117 31.523 555.401 30.9564 555.529 30.2138L555.676 29.1388L555.736 28.142C555.815 26.8129 555.973 25.5718 556.296 24.3406C556.865 21.7903 558.167 19.5338 560.328 18.2456C561.375 17.4744 562.568 17.0455 563.682 16.5284C564.279 16.314 564.875 16.0995 565.559 15.8069L566.498 15.4461L567.368 14.8311C569.549 13.2107 571.173 11.1402 572.798 9.06967C574.5 7.08718 576.202 5.10468 578.363 3.81651C579.488 3.13337 580.671 2.87053 581.843 2.77383C583.182 2.68705 584.531 2.43415 585.812 1.92706C586.409 1.71258 587.015 1.33192 587.337 1.5179C587.748 1.62577 588.128 2.23207 588.431 2.75033C589.114 3.87487 589.719 4.9114 590.314 6.11405L593.983 13.0857C596.373 17.7302 598.255 22.511 599.873 27.5261C601.491 32.5413 602.865 37.4585 603.974 42.61C606.203 52.747 607.416 63.1567 607.71 73.5949C607.925 83.9451 606.88 94.4701 604.447 104.495C603.231 109.508 601.516 114.491 599.489 119.122C598.921 120.255 598.432 121.476 597.864 122.609L596.072 126.087C594.77 128.344 593.468 130.6 592.01 132.681C589.006 136.919 585.768 140.894 581.973 144.419L579.224 147.173C578.49 148.296 577.6 149.243 576.553 150.015Z" fill="#FFFDFB"/>
  <path d="M36.2053 462.044L36.7927 462.079C36.9585 462.066 37.1244 462.052 37.2903 462.039C37.7118 462.088 38.0299 461.895 38.3481 461.702C38.6663 461.508 38.9845 461.315 39.3026 461.122C40.472 460.108 41.1166 458.803 41.5952 457.511C41.8727 456.821 42.074 456.22 42.3514 455.529C42.6288 454.838 42.7403 454.161 42.8519 453.484L43.3524 451.439C43.4639 450.762 43.5754 450.085 43.7631 449.318C44.0623 447.874 44.0298 446.457 44.1631 445.027C44.1306 443.61 44.0981 442.194 44.0655 440.777C43.8346 437.957 43.4378 435.151 43.2068 432.331C42.9759 429.511 43.2426 426.65 43.599 423.865C43.8221 422.511 44.1213 421.067 44.4341 419.789C44.823 418.421 45.0462 417.067 45.601 415.686C47.2465 410.291 49.493 405.097 51.7395 399.903C57.7172 390.313 66.5256 382.661 76.6499 377.824C81.795 375.399 87.0842 373.713 92.6833 372.754C98.1927 371.718 103.895 371.001 109.418 370.131C120.644 368.544 131.842 366.624 142.586 363.24C153.406 359.765 163.759 354.659 172.326 347.111C176.609 343.337 180.34 338.94 183.457 334.176C186.573 329.412 188.986 324.204 190.797 318.796C194.765 308.117 197.186 296.898 198.522 285.683C199.934 274.379 200.261 263.081 201.01 251.831C201.2 249.06 201.467 246.199 201.747 243.504C202.104 240.72 202.46 237.935 202.906 235.227C203.965 229.797 205.099 224.276 207.09 219.02L208.526 215.145C209.005 213.854 209.739 212.624 210.218 211.333L211.999 207.597L214.126 203.999L216.252 200.402L218.635 196.867L221.107 193.408L223.579 189.949C230.275 180.968 237.854 172.582 246.165 164.971C250.282 161.211 254.668 157.678 259.055 154.146C261.331 152.374 263.531 150.69 265.718 148.841C266.811 147.917 267.904 146.992 268.804 145.75C269.261 145.211 269.691 144.341 269.878 143.574L270.379 141.53C271.157 138.794 271.935 136.058 272.457 133.26C272.756 131.816 272.979 130.462 273.113 129.032C273.246 127.601 273.29 126.095 273.001 124.616C272.713 123.136 272.093 121.684 270.837 120.618C269.85 119.78 269.181 118.75 269.238 117.409C269.22 116.158 269.339 114.562 268.796 113.02C268.341 111.554 267.403 110.295 266.403 109.292C265.941 108.745 265.402 108.288 264.864 107.831L263.325 106.371C262.324 105.368 261.489 104.351 260.807 103.154C260.124 101.957 259.85 100.644 259.486 99.2544C259.121 97.8648 258.591 96.4888 257.819 95.2161C257.047 93.9434 256.046 92.9399 255.122 91.8467L253.583 90.3863C253.044 89.9295 252.506 89.4726 252.043 88.926C250.042 86.919 248.283 84.8087 246.6 82.6086C244.917 80.4086 243.386 78.0291 241.855 75.6496C240.324 73.2701 238.794 70.8906 237.021 68.6144C236.558 68.0678 236.096 67.5212 235.468 66.9882C235.199 66.7597 234.84 66.4551 234.418 66.4062C234.073 66.2675 233.652 66.2185 233.32 66.2457C232.49 66.3136 231.764 66.6235 231.204 66.9199C230.644 67.2163 229.994 67.4365 229.331 67.4908C228.003 67.5995 226.587 67.632 225.233 67.409C223.802 67.2756 222.524 66.9628 221.233 66.4841C218.725 65.437 216.572 63.6095 214.1 61.975C212.871 61.2407 211.49 60.6859 210.122 60.2969C209.445 60.1854 208.678 59.9977 207.938 60.1418C207.185 60.12 206.521 60.1743 205.782 60.3184C202.899 60.8049 200.327 62.0176 197.754 63.2302C195.271 64.519 192.802 65.9737 190.423 67.5045L186.95 69.9598C185.843 70.7184 184.57 71.4906 183.347 71.8413C183.105 71.9446 182.683 71.8956 182.441 71.999C182.186 71.9364 181.778 72.0533 181.508 71.8249C180.997 71.6997 180.217 71.3462 179.45 71.1585C178.006 70.8593 176.423 70.9054 175.061 71.6014C173.685 72.1316 172.502 72.9799 171.292 73.4965C170.234 73.8336 168.777 73.3685 167.637 72.7104C165.116 71.4974 162.887 69.7596 160.747 68.098C158.387 65.7864 155.937 63.3987 153.5 61.1768C151.064 58.955 148.538 56.657 145.859 54.5385C144.527 53.5622 143.181 52.42 141.696 51.6231C140.212 50.8262 138.499 50.2986 136.736 50.1924C134.974 50.0862 133.239 50.3118 131.621 50.9453C130.079 51.4891 128.641 52.2749 127.319 53.4685C123.333 52.7096 119.36 52.1165 115.373 51.3575C113.342 51.0229 111.311 50.6883 109.203 50.4434C108.36 50.3455 107.517 50.2475 106.674 50.1496C106.751 50.0598 106.917 50.0462 106.993 49.9565C107.069 49.8668 107.235 49.8532 107.463 49.584L107.539 49.4943C107.539 49.4943 107.539 49.4943 107.602 49.2387C107.602 49.2387 107.651 48.8172 107.382 48.5887C107.202 48.4364 107.036 48.45 107.036 48.45C106.87 48.4636 106.794 48.5533 106.704 48.4772C106.628 48.5669 106.539 48.4908 106.462 48.5805C106.22 48.6838 105.978 48.7871 105.66 48.9802C105.418 49.0835 105.176 49.1868 104.948 49.456C104.706 49.5593 104.553 49.7388 104.249 50.0977C104.173 50.1875 104.173 50.1874 104.11 50.4431C103.55 50.7394 103.003 51.2017 102.443 51.498C100.7 52.6428 98.8535 53.5454 97.2137 54.9322C95.5602 56.153 93.9204 57.5398 92.5633 59.3208C92.1826 59.7695 91.878 60.1284 91.587 60.6532L91.2199 61.2678C91.1437 61.3575 91.0676 61.4472 91.0676 61.4472C91.0676 61.4472 90.9778 61.3711 90.8881 61.2949C90.7086 61.1426 90.5292 60.9904 90.3497 60.8381L89.1832 59.8481C87.568 58.4775 85.8005 57.2863 83.9569 56.1849C82.1133 55.0834 80.2071 54.2376 77.9202 53.8404C76.8216 53.6799 75.6469 53.6091 74.4994 53.8701C73.3518 54.1311 72.3075 54.6341 71.3666 55.3791C69.5608 56.7794 68.5627 58.8651 67.8964 60.9235C67.6461 61.946 67.3197 63.0582 67.1456 63.9909L66.5608 67.0446C66.2262 69.0759 65.7257 71.1208 65.3013 73.0759C64.877 75.0311 64.3765 77.076 63.6965 78.9686C63.3565 79.9149 63.0166 80.8612 62.6766 81.8075C62.4617 82.2425 62.3366 82.7538 62.1217 83.1889C62.0592 83.4445 61.8307 83.7136 61.7682 83.9692C59.2121 83.3436 56.5798 82.8078 53.9611 82.4378C51.0868 82.0052 48.3023 81.6488 45.3926 81.8036C44.6394 81.7818 43.8997 81.9258 43.1601 82.0699C42.4204 82.214 41.6046 82.4478 40.8295 83.1792C40.6773 83.3587 40.525 83.5382 40.2965 83.8074L40.1578 84.1527C40.0817 84.2424 40.0952 84.4083 40.0952 84.4083C39.9565 84.7537 39.9076 85.1752 39.7688 85.5205C39.5812 86.2873 39.5594 87.0406 39.4478 87.7177C39.2709 90.6545 39.4121 93.3983 39.0556 96.1829C38.9223 97.6132 38.6095 98.8913 38.2967 100.169C37.8941 101.371 37.4155 102.663 36.7573 103.802C36.4663 104.327 36.0095 104.865 35.5526 105.404C35.0957 105.942 34.6388 106.481 34.1819 107.019C33.2681 108.096 32.4441 109.249 31.5439 110.491C30.7199 111.644 29.9856 112.873 29.1752 114.192C28.5306 115.497 27.886 116.803 27.4345 118.426C27.2468 119.193 27.1489 120.036 27.486 121.094C27.5893 121.336 27.6927 121.578 27.796 121.82C27.9754 121.972 28.1685 122.29 28.3479 122.442C28.5274 122.595 28.7069 122.747 28.8102 122.989C29.0032 123.307 29.0304 123.639 28.9053 124.15C28.7802 124.662 28.3994 125.11 28.0322 125.725C27.5754 126.263 27.1947 126.712 26.7378 127.25C26.5855 127.43 26.0253 127.726 25.4515 127.856C24.2278 128.207 22.7485 128.495 21.435 128.77C18.6422 129.333 15.7869 130.151 13.1518 131.619C11.7894 132.315 10.5302 133.253 9.54034 134.42C8.55043 135.586 7.75362 137.071 7.2885 138.528C6.58674 141.174 5.4499 143.605 4.07103 146.14C2.85805 148.66 1.49277 151.36 0.894338 154.248L0.733824 155.347C0.684844 155.768 0.711986 156.1 0.663008 156.522C0.614028 156.943 0.641196 157.275 0.592216 157.696L0.687314 158.858C0.755241 159.687 0.975506 160.337 1.20931 161.153C1.35338 161.892 1.82919 162.605 2.13913 163.331C2.44908 164.057 2.91133 164.604 3.38717 165.316C3.77328 165.952 4.32524 166.575 4.86363 167.032L6.41627 168.658L8.12117 170.105C10.3645 172.009 12.9749 173.298 15.5092 174.677C20.6404 177.179 25.9103 179.336 30.9517 181.762C35.9932 184.188 40.8197 187.049 45.1894 190.448C54.005 197.157 61.0827 206.096 65.9197 216.22C70.8328 226.255 73.8097 237.116 75.881 248.135C76.9167 253.644 77.8763 259.243 78.5802 264.78C79.208 270.406 79.5801 275.97 79.1991 281.512C79.2126 281.678 79.2263 281.844 79.1637 282.099C79.1011 282.355 79.0385 282.611 78.8862 282.79L79.1419 282.853C78.72 287.897 77.545 292.919 75.6792 297.664C73.5088 302.768 70.558 307.519 67.6073 312.269C64.5667 316.944 61.4501 321.708 58.3334 326.472C55.3065 331.312 52.4455 336.138 49.6741 341.041C46.9028 345.944 44.311 350.999 41.8089 356.13L34.1992 371.281C29.1814 381.378 23.9977 391.488 19.4149 401.799C17.0787 406.917 14.8322 412.111 13.3661 417.658C12.7541 420.38 12.2454 423.344 12.5661 426.24C12.7645 427.643 13.0526 429.122 13.6589 430.409C13.852 430.727 13.8792 431.059 14.0722 431.377L14.6513 432.331C15.0374 432.968 15.2577 433.618 15.7199 434.164C18.6156 438.937 21.2829 443.979 24.3445 448.738C25.8754 451.117 27.4062 453.497 29.179 455.773C30.1035 456.866 31.028 457.959 32.0287 458.963C33.0293 459.966 34.1958 460.956 35.5772 461.511C35.4385 461.856 35.8735 462.071 36.2053 462.044ZM41.0848 88.335C41.1963 87.658 41.142 86.9944 41.3432 86.3935C41.3161 86.0617 41.5445 85.7925 41.6071 85.5369C41.6833 85.4472 41.5935 85.3711 41.6696 85.2813L41.7458 85.1916C41.8219 85.1019 41.8981 85.0121 41.8981 85.0121C42.1265 84.7429 42.7765 84.5227 43.3503 84.3922C43.924 84.2618 44.5875 84.2074 45.2511 84.153C47.9949 84.0118 50.7794 84.3682 53.4742 84.6485C56.2588 85.0049 58.9808 85.617 61.7028 86.229L62.214 86.3541L62.5186 85.9952C62.9754 85.4568 63.1006 84.9456 63.3916 84.4208C63.6064 83.9857 63.8077 83.3847 64.0225 82.9497C64.4387 81.9136 64.7787 80.9673 65.0289 79.9449C65.6191 77.9762 66.1196 75.9313 66.6201 73.8864C67.1206 71.8415 67.4552 69.8102 67.7898 67.7789L68.187 65.492C68.2249 67.9937 68.5184 70.5581 69.054 73.0191C69.9945 77.3674 71.8271 81.3921 74.2198 85.1204C78.8394 92.5907 85.4306 98.647 91.3583 104.758C92.8212 106.308 94.2841 107.858 95.5049 109.511C96.1602 110.376 96.6496 111.254 97.139 112.133L98.6209 114.934L104.333 126.573C106.215 130.176 108.096 133.779 110.13 137.203C107.653 134.484 105.176 131.764 102.547 129.224C96.5563 123.369 90.3377 117.783 83.828 112.722C82.1367 111.441 80.5351 110.236 78.8437 108.955C77.166 107.84 75.4611 106.394 73.2993 105.485C72.2633 105.069 70.9091 104.846 69.8241 104.851C68.7391 104.857 67.5779 104.952 66.5827 105.033C64.5921 105.196 62.588 105.194 60.5702 105.025C56.5348 104.687 52.6109 103.673 48.9508 101.802C47.1208 100.866 45.3669 99.8407 43.6892 98.7257C42.626 97.9778 41.5492 97.0641 40.5622 96.2265C41.098 93.5942 40.9568 90.8504 41.0848 88.335ZM28.304 129.042C28.7608 128.504 29.2177 127.965 29.7508 127.337C30.1179 126.723 30.6509 126.095 30.9148 125.238C31.1296 124.803 31.0889 124.305 31.1378 123.884C31.1243 123.718 31.1107 123.552 31.0971 123.386C40.9079 130.014 50.6562 136.897 60.176 144.05C65.25 147.892 70.3239 151.735 75.3979 155.578C77.8968 157.544 80.3957 159.51 82.8185 161.566C85.2413 163.622 87.5117 165.858 89.7822 168.093C94.247 172.654 98.1652 177.676 101.447 183.085C103.095 185.873 104.653 188.584 106.058 191.475L110.594 199.954C111.676 201.953 112.606 204.131 113.37 206.323C110.914 202.85 108.383 199.467 105.851 196.084C102.858 192.154 99.622 188.328 96.3863 184.502C93.1506 180.676 89.6864 177.118 85.9802 173.665C82.3638 170.287 78.2633 167.116 73.8092 164.725C71.5441 163.575 69.1267 162.604 66.8126 161.875C64.4088 161.07 62.1709 160.251 60.2375 159.074C59.7127 158.783 59.2641 158.402 58.7392 158.111C58.2906 157.73 57.7658 157.439 57.3933 156.969C56.4959 156.207 55.5089 155.37 54.6877 154.519L49.3392 149.362C42.3619 142.67 35.2187 135.991 28.0891 129.477C27.9232 129.491 28.2278 129.132 28.304 129.042ZM80.6605 264.693C80.0327 259.067 79.0732 253.468 77.9478 247.882C75.8628 236.698 72.9485 225.581 67.8423 215.228C62.8259 204.951 55.6312 195.605 46.4567 188.591C41.8314 185.129 36.9151 182.192 31.784 179.69C26.6528 177.188 21.3829 175.031 16.3415 172.605C13.8207 171.392 11.3762 170.089 9.31233 168.338L7.71073 167.133L6.26145 165.749C5.72306 165.292 5.4267 164.732 4.96446 164.185C4.59193 163.715 4.12969 163.168 3.90947 162.518C2.63427 160.201 2.34074 157.637 2.96635 155.081C3.50224 152.448 4.63911 150.017 6.01798 147.483C7.23096 144.962 8.59622 142.262 9.2844 139.45C9.92361 137.06 11.7647 135.073 14.0816 133.797C16.3986 132.522 19.0119 131.807 21.8046 131.244C23.1942 130.88 24.5974 130.682 26.0632 130.228C26.4711 130.111 26.7131 130.007 27.121 129.891C29.571 132.278 31.7163 135.025 33.7855 137.861C35.9444 140.774 38.0272 143.776 40.11 146.778C44.2756 152.783 48.2753 158.801 52.517 164.716C54.5998 167.718 56.7587 170.631 59.0835 173.53C60.2011 174.941 61.4084 176.428 62.6021 177.75C63.7957 179.072 65.245 180.456 66.5148 181.688C69.1443 184.228 71.7601 186.602 73.9951 189.425C76.2166 192.082 77.9813 195.277 79.58 198.486C82.7775 204.904 84.9307 211.825 86.1784 218.903C87.4261 225.981 87.9341 233.204 87.6127 240.494C87.223 252.049 84.9054 263.511 81.5517 274.556C81.28 271.239 81.0083 267.921 80.6605 264.693ZM59.8589 327.766C62.8994 323.092 66.0161 318.328 69.2224 313.64C70.7807 311.258 72.3391 308.876 73.718 306.342C75.1866 303.883 76.4757 301.273 77.5989 298.676C79.8318 293.317 81.1185 287.617 81.3962 281.833C81.4888 279.905 81.5053 278.067 81.5081 276.063C85.4981 264.631 88.2727 252.631 88.9533 240.552C89.8517 226.033 87.6963 210.93 81.4265 197.583C80.6271 195.979 79.738 194.298 78.7727 192.707C77.8075 191.117 76.8423 189.526 75.7111 187.948C73.4625 184.96 70.7433 182.344 68.2037 179.88C66.8441 178.572 65.664 177.416 64.4703 176.094C63.2766 174.773 62.0829 173.451 60.9654 172.039C58.7303 169.217 56.4952 166.394 54.3363 163.481C50.0184 157.656 45.7767 151.742 41.3827 146.006C38.6718 142.471 35.9609 138.936 33.1738 135.49C38.3293 140.328 43.3325 145.346 48.1834 150.543L53.3796 155.878C54.2905 156.805 55.1117 157.657 56.0988 158.494C56.5474 158.875 57.0858 159.332 57.6242 159.789C58.0729 160.17 58.6874 160.537 59.2122 160.828C61.4148 162.234 63.9083 163.115 66.1462 163.934C68.5501 164.739 70.7119 165.647 72.8872 166.721C77.1618 168.96 81.0829 171.978 84.7755 175.266C88.4681 178.554 91.9322 182.111 95.2305 185.682C98.6185 189.329 101.841 192.989 105.076 196.815C108.029 200.247 110.906 203.769 113.783 207.291C114.898 210.706 115.604 214.239 116.145 217.785C116.993 224.061 117.012 230.405 116.353 236.638C115.126 249.179 111.46 261.503 106.308 273.03C105.046 275.972 103.605 278.762 102.164 281.552L99.8356 285.75C99.0252 287.069 98.2147 288.388 97.3145 289.63C93.6377 294.691 89.1669 299.232 84.696 303.773C75.7543 312.854 66.4672 321.798 58.3467 331.731C56.976 333.346 55.7713 334.948 54.4904 336.639C56.0841 333.669 57.9334 330.763 59.8589 327.766ZM31.9389 458.887C30.9383 457.883 30.0138 456.79 29.179 455.773C27.4959 453.573 25.9651 451.193 24.4343 448.814C21.4488 443.965 18.8713 438.999 15.9619 434.061C14.5073 431.592 13.3843 429.095 13.167 426.441C12.8599 423.711 13.3822 420.913 14.084 418.267C15.5637 412.886 17.8999 407.768 20.2361 402.65C24.9983 392.491 30.2718 382.458 35.4555 372.347L43.1549 357.272C45.0886 353.357 47.1881 349.427 49.2115 345.588C52.2657 341.079 55.5889 336.799 59.0917 332.672C67.3155 322.981 76.7059 314.279 85.7374 305.274C90.298 300.809 94.845 296.178 98.7639 291.015C99.7402 289.682 100.716 288.35 101.437 286.955L103.765 282.756C105.283 279.877 106.724 277.087 108.062 274.055C110.752 268.157 112.931 262.134 114.764 255.972C116.507 249.734 117.829 243.447 118.385 236.972C118.94 230.498 118.908 223.988 117.88 217.559C116.853 211.131 115.162 204.756 111.942 199.092L107.089 190.806C105.441 188.018 103.718 185.321 101.994 182.623C98.3801 177.241 94.2199 172.322 89.8312 167.672C80.9778 158.461 71.1834 149.995 60.9593 142.399C51.1974 135.35 41.1936 128.404 30.4554 122.687C30.3657 122.611 30.3521 122.445 30.2623 122.369C30.0557 121.885 29.6968 121.581 29.3378 121.276C29.1584 121.124 29.2481 121.2 29.1584 121.124C29.0687 121.048 29.1448 120.958 29.055 120.882C28.9382 120.474 28.8974 119.976 29.0987 119.375C29.3353 118.187 29.9038 116.971 30.6381 115.742C31.2962 114.603 32.0305 113.374 32.8545 112.221C33.6786 111.068 34.5026 109.915 35.3402 108.928C35.7971 108.39 36.254 107.851 36.7108 107.313C37.078 106.698 37.7008 106.146 37.9782 105.456C38.7886 104.137 39.3435 102.755 39.8086 101.298C40.1975 99.9301 40.4967 98.4862 40.6301 97.0559C42.9141 99.4572 45.5925 101.576 48.5619 103.169C52.1594 105.296 56.3661 106.705 60.581 107.195C62.6884 107.44 64.7823 107.519 67.0284 107.418C69.1087 107.331 71.0231 107.258 72.6601 107.875C74.3868 108.569 75.9123 109.864 77.6036 111.144C79.2949 112.425 80.8965 113.63 82.5878 114.911C89.0975 119.972 95.3788 125.302 101.432 130.902C106.587 135.74 111.68 140.833 116.531 146.03C117.276 146.971 118.007 147.746 118.829 148.598L119.527 147.956C117.665 145.604 115.726 143.341 113.787 141.078C113.029 139.972 112.27 138.865 111.588 137.668C109.361 133.926 107.618 129.978 105.875 126.029C104.132 122.081 102.632 118.029 100.723 114.094C100.31 113.126 99.7306 112.171 99.2276 111.127C98.7246 110.083 98.1454 109.128 97.4004 108.187C96 106.381 94.6133 104.742 93.0607 103.115C90.0452 99.939 86.8013 97.0318 83.8755 93.9316C80.9497 90.8314 78.1001 87.6415 75.7209 84.079C73.3418 80.5165 71.357 76.6713 70.2641 72.5025C69.2527 69.329 68.981 66.0114 68.8752 62.6803C68.9242 62.2588 69.139 61.8237 69.188 61.4022C69.7021 59.5232 70.6377 57.6932 72.1252 56.4859C73.6127 55.2786 75.4238 54.9633 77.4551 55.2979C79.3205 55.6461 81.2267 56.492 82.967 57.3514C84.7209 58.3767 86.3987 59.4917 87.9241 60.7862L89.0906 61.7761C89.2701 61.9284 89.5393 62.1569 89.7187 62.3092C89.9744 62.3717 90.2571 62.766 90.9206 62.7117C91.5706 62.4915 91.7093 62.1461 91.9377 61.8769L92.381 61.1727C92.6856 60.8138 92.9005 60.3787 93.2812 59.93C94.486 58.3284 96.0497 57.0314 97.7031 55.8106C99.3565 54.5897 101.024 53.5347 102.856 52.4661C103.493 52.0801 104.205 51.6042 104.842 51.2181L105.007 51.2045C105.173 51.1909 105.429 51.2535 105.761 51.2263C106.77 51.3107 107.778 51.3951 108.801 51.6453C110.832 51.9799 112.94 52.2248 114.971 52.5595C119.034 53.2287 123.096 53.8979 127.248 54.6433L127.504 54.7058L127.733 54.4366C128.722 53.2701 130.251 52.5605 131.703 51.9406C133.245 51.3968 134.814 51.1848 136.41 51.3046C137.585 51.3754 138.773 51.612 139.899 52.1043C141.775 54.6225 143.015 57.5268 144.255 60.4311C145.418 63.4252 146.326 66.3566 146.992 69.3914L150.85 87.9455C153.451 100.34 156.039 112.569 158.475 124.978C160.987 137.296 163.346 149.794 164.863 162.195C165.621 168.395 166.227 174.774 166.654 181.001C166.912 184.153 167.004 187.318 167.172 190.394L167.449 199.89L169.045 200.01C170.623 188.692 169.278 177.363 169.874 166.293C170.089 160.765 170.892 155.272 172.807 150.105C174.556 144.952 177.776 140.43 180.996 135.908C184.305 131.462 187.857 126.913 190.435 121.692C191.724 119.082 192.578 116.256 193.101 113.458C193.533 110.584 193.634 107.737 193.479 104.827C192.928 99.1112 191.394 93.6425 189.453 88.2908C187.512 82.9391 185.176 77.8701 182.675 72.8148L182.433 72.9181C184.526 78.0903 186.71 83.3388 188.319 88.7177C190.005 94.0068 191.372 99.4891 191.578 105.066C191.72 107.81 191.605 110.491 191.083 113.29C190.547 115.922 189.59 118.505 188.453 120.936C186.013 125.812 182.448 130.195 178.972 134.654C177.235 136.884 175.587 139.19 174.118 141.648C172.649 144.106 171.36 146.717 170.416 149.466C168.439 154.888 167.83 160.699 167.538 166.317C167.35 172.177 167.66 177.997 167.804 183.83C167.736 183 167.654 182.005 167.586 181.175C167.07 174.872 166.388 168.582 165.63 162.382C164.1 149.816 162.493 137.34 160.389 124.904C158.285 112.469 155.518 100.088 152.598 87.8858C151.177 81.7401 149.589 75.6079 148.091 69.5519C147.335 66.441 146.248 63.3572 144.932 60.5426C143.706 57.8042 142.224 55.0032 140.285 52.7406C140.541 52.8032 140.72 52.9555 140.976 53.0181C142.371 53.7388 143.793 54.7912 145.049 55.8573C147.638 57.8997 150.24 60.1079 152.676 62.3298C155.113 64.5516 157.639 66.8496 159.999 69.1612C162.229 70.899 164.458 72.6368 167.069 73.9259C167.759 74.2033 168.45 74.4807 169.141 74.7581C169.908 74.9458 170.661 74.9676 171.477 74.7338C172.853 74.2037 174.036 73.3553 175.246 72.8387C176.456 72.3222 177.783 72.2135 179.137 72.4365C179.814 72.5481 180.339 72.8391 181.106 73.0268C181.451 73.1655 181.859 73.0486 182.281 73.0975C182.612 73.0704 183.11 73.0296 183.428 72.8366C184.894 72.3826 186.077 71.5342 187.273 70.8517L190.746 68.3964C193.036 66.7895 195.505 65.3348 197.988 64.046C200.471 62.7573 203.043 61.5446 205.85 61.1478C206.513 61.0934 207.253 60.9494 207.84 60.9848C208.504 60.9304 209.181 61.042 209.858 61.1535C211.136 61.4663 212.517 62.0212 213.581 62.769C215.873 64.2512 218.116 66.1549 220.803 67.3543C222.184 67.9091 223.628 68.2083 224.982 68.4314C226.413 68.5648 227.843 68.6981 229.336 68.5758C230.076 68.4318 230.815 68.2877 231.452 67.9016C232.178 67.5916 232.648 67.2191 233.235 67.2545C233.567 67.2273 233.823 67.2899 234.168 67.4286C234.424 67.4912 234.693 67.7196 234.872 67.8719C235.411 68.3288 235.783 68.7992 236.246 69.3458C237.929 71.5459 239.383 74.0151 240.99 76.3049C242.521 78.6844 244.052 81.0639 245.825 83.3401C247.508 85.5401 249.281 87.8163 251.448 89.8097C251.986 90.2666 252.449 90.8132 252.987 91.2701L254.526 92.7305C255.527 93.734 256.361 94.751 257.12 95.8578C257.802 97.0544 258.319 98.2645 258.594 99.578C258.958 100.968 259.246 102.447 259.928 103.643C260.625 105.006 261.549 106.099 262.55 107.103C263.55 108.106 264.703 108.93 265.628 110.023C266.539 110.951 267.387 112.134 267.738 113.357C268.178 114.657 268.031 115.922 268.064 117.338C268.042 118.092 268.276 118.907 268.586 119.634C268.896 120.36 269.524 120.893 269.986 121.439C270.973 122.277 271.49 123.487 271.674 124.724C271.949 126.038 271.892 127.378 271.758 128.809C271.701 130.149 271.402 131.593 271.089 132.871C270.727 134.571 270.276 136.194 269.914 137.894C268.342 140.11 266.667 142.084 264.557 143.843C262.218 145.872 259.686 147.582 257.065 149.216C251.732 152.408 245.986 154.632 240.15 156.78C228.568 161.152 216.317 164.493 205.527 171.389C202.829 173.112 200.324 175.154 198.089 177.425C195.854 179.695 193.977 182.27 192.28 184.998C190.673 187.801 189.397 190.578 188.391 193.582C187.384 196.587 186.634 199.654 186.139 202.784C185.644 205.914 185.48 209.017 185.483 212.106C185.439 213.613 185.575 215.271 185.621 216.854C185.833 218.423 185.879 220.006 186.167 221.485C187.015 227.761 189.011 233.777 190.419 239.756C191.827 245.736 192.675 252.013 190.981 257.829C190.216 260.73 188.595 263.368 187.154 266.158C185.713 268.948 184.209 271.993 184.162 275.504C184.116 279.015 185.701 282.058 186.429 284.837C187.324 287.602 187.147 290.539 186.383 293.441C185.618 296.342 184.432 299.195 183.426 302.199C182.885 303.747 182.42 305.204 181.968 306.828C181.593 308.361 181.321 310.137 181.291 311.809C181.266 314.567 179.901 317.267 177.625 319.04C176.608 319.875 175.093 320.75 173.834 321.688C172.575 322.626 171.329 323.73 170.16 324.744C165.599 329.209 161.846 334.359 158.169 339.42C154.492 344.48 151.071 349.603 146.856 354.206C144.786 356.463 142.537 358.568 140.019 360.444C137.577 362.231 134.776 363.712 131.769 364.71L131.872 364.952C137.914 363.288 143.372 359.585 147.767 355.134C152.162 350.683 155.915 345.532 159.681 340.548C163.448 335.564 167.214 330.58 171.636 326.46C172.806 325.446 173.975 324.432 175.158 323.584C176.327 322.569 177.614 321.963 179.025 320.845C181.682 318.624 183.504 315.385 183.551 311.875C183.562 308.951 184.582 306.113 185.512 303.198C186.608 300.269 187.794 297.416 188.531 294.183C188.906 292.65 189.192 291.04 189.132 289.291C189.162 287.619 188.937 285.884 188.393 284.342C187.471 281.245 186.079 278.52 186.014 275.686C185.949 272.853 187.224 270.077 188.59 267.376C189.955 264.676 191.562 261.873 192.465 258.626C193.292 255.469 193.442 252.2 193.184 249.048C192.926 245.897 192.17 242.786 191.338 239.765C189.75 233.632 187.526 227.886 186.602 221.7C185.602 215.603 185.583 209.259 186.587 203.165C187.006 200.125 187.847 197.134 188.943 194.205C190.039 191.277 191.404 188.576 193.025 185.939C194.736 183.377 196.626 180.968 198.875 178.863C201.124 176.759 203.566 174.972 206.187 173.338C211.43 170.07 217.163 167.68 222.909 165.456C228.731 163.142 234.581 161.161 240.403 158.847C246.225 156.533 251.944 153.977 257.339 150.53C261.946 147.647 266.229 143.873 269.193 139.289C268.992 139.89 268.881 140.567 268.603 141.257L268.103 143.302C267.901 143.903 267.687 144.338 267.23 144.877C266.392 145.864 265.389 146.864 264.372 147.699C262.261 149.459 259.985 151.231 257.785 152.914C253.309 156.37 248.922 159.902 244.639 163.677C236.239 171.211 228.494 179.611 221.646 188.771L219.174 192.23L216.701 195.689L214.319 199.224L212.116 202.911L209.913 206.598L208.056 210.424C207.411 211.73 206.767 213.035 206.288 214.327L204.776 218.291C202.709 223.637 201.498 229.247 200.454 234.843C200.021 237.718 199.575 240.426 199.308 243.287C199.042 246.147 198.685 248.932 198.584 251.779C197.836 263.029 197.598 274.404 196.339 285.528C195.079 296.653 192.644 307.707 188.918 318.282C187.183 323.601 184.846 328.718 181.896 333.469C178.945 338.219 175.29 342.526 171.083 346.211C162.848 353.732 152.585 358.914 141.855 362.465C131.214 366.091 120.015 368.011 108.969 369.75C103.447 370.62 97.744 371.337 92.2346 372.373C86.7252 373.409 81.2702 375.108 76.1251 377.533C65.9247 382.46 57.1299 390.277 51.1522 399.868C48.9057 405.062 46.5694 410.179 44.9238 415.574C44.5349 416.942 44.1459 418.31 43.757 419.678C43.368 421.045 43.2347 422.476 42.8457 423.844C42.4893 426.628 42.2226 429.489 42.3774 432.399C42.4425 435.232 43.0052 438.025 43.0703 440.858C43.2687 442.261 43.1354 443.692 43.1679 445.109C43.0345 446.539 42.9774 447.88 42.6781 449.323C42.5666 450.001 42.455 450.678 42.3435 451.355L41.843 453.4C41.7315 454.077 41.5438 454.844 41.3425 455.445C41.1412 456.046 40.9535 456.812 40.5864 457.427C40.1077 458.719 39.3734 459.948 38.3564 460.782C37.3393 461.617 35.8464 461.739 34.7206 461.247C34.0925 460.714 33.0157 459.8 31.9389 458.887Z" fill="#FFFDFB"/>
</svg>
