<svg width="1661" height="523" viewBox="0 0 1661 523" fill="none"
  xmlns="http://www.w3.org/2000/svg">
  <path d="M425.392 192.169C421.079 188.236 416.233 185.049 411.118 182.144C408.606 180.645 406.008 179.423 403.321 178.294L399.337 176.647C398.041 176.127 396.655 175.701 395.175 175.186C389.72 173.39 384.001 172.059 378.201 171.189C366.696 169.537 355.135 169.446 343.517 170.732C331.987 171.925 320.672 174.396 309.655 177.87C304.1 179.562 298.737 181.616 293.379 183.854C288.02 186.091 282.853 188.692 277.973 191.743L270.654 196.413C269.388 197.177 268.216 198.03 267.044 198.884C266.413 199.358 265.872 199.737 265.438 200.757C265.267 201.311 265.37 201.767 265.562 202.13C265.754 202.492 265.946 202.854 266.045 203.127C266.715 204.304 267.117 205.762 267.33 207.041C267.549 208.503 268.134 209.957 268.898 211.223C270.609 213.751 273.126 215.433 275.366 217.031C277.699 218.718 280.212 220.218 282.004 222.285C282.947 223.363 283.344 224.638 284.109 225.904C284.783 227.263 285.453 228.44 286.401 229.702C287.254 230.874 288.47 231.854 289.771 232.556C291.072 233.259 292.552 233.774 294.023 233.923C295.405 234.165 296.966 234.219 298.433 234.184L299.533 234.158L300.543 234.226C301.187 234.302 301.925 234.468 302.573 234.728C305.346 235.579 307.854 236.895 310.362 238.211C312.78 239.621 315.293 241.12 317.716 242.714C322.562 245.9 327.135 249.185 331.802 252.559C340.957 259.496 349.937 266.803 358.466 274.396C367.089 282.079 375.528 289.767 383.251 298.205C385.137 300.361 386.929 302.428 388.547 304.866C390.071 307.215 391.415 309.751 392.76 312.288C395.45 317.36 397.777 322.625 400.104 327.89C409.319 348.859 417.451 370.589 426.214 391.844C434.977 413.1 444.017 434.44 454.323 455.017C456.923 460.183 459.613 465.256 462.302 470.328C463.647 472.865 465.265 475.303 466.699 477.745L468.897 481.454C469.661 482.72 470.515 483.892 471.368 485.064C477.745 494.727 485.387 503.626 494.01 511.309C502.632 518.991 512.418 525.454 522.987 530.155C528.272 532.506 533.642 534.579 539.097 536.375C544.552 538.171 550.096 539.874 555.291 542.318C558.238 542.798 561.087 543.005 563.922 542.662C565.385 542.444 566.847 542.226 568.211 541.734C569.576 541.243 570.837 540.296 571.629 538.901C572.072 538.248 572.243 537.694 572.78 537.131C573.227 536.661 573.956 536.46 574.591 536.17C575.96 535.862 577.333 535.738 578.71 535.797C581.559 536.004 584.322 536.488 587.184 537.245C589.952 537.913 592.634 538.858 595.321 539.987C596.618 540.506 598.009 541.115 599.126 541.822C599.497 541.997 599.685 542.176 599.873 542.355C600.248 542.713 600.619 542.887 601.08 542.968C601.912 543.223 602.734 543.112 603.463 542.911C604.922 542.509 606.375 541.924 607.543 540.887C608.715 540.034 609.874 538.63 610.018 536.976C610.09 536.148 609.701 535.24 609.228 534.61C608.754 533.979 608.101 533.536 607.449 533.093C606.796 532.65 606.148 532.39 605.406 532.041L603.456 531.078C598.53 528.352 593.684 525.166 589.017 521.791C584.26 518.511 579.682 515.043 575.194 511.481C566.129 504.45 557.238 497.049 548.709 489.456C546.644 487.487 544.49 485.612 542.425 483.643C541.392 482.659 540.36 481.674 539.327 480.69L536.408 477.549C535.939 477.102 535.465 476.471 535.086 475.93L533.763 474.31L532.44 472.69C532.06 472.149 531.586 471.518 531.207 470.977L528.829 467.456L526.814 463.744C526.524 463.108 526.144 462.567 525.76 461.842L524.889 459.937L523.053 456.036C521.981 453.402 520.909 450.767 519.927 448.039C518.944 445.31 518.056 442.671 517.163 439.849C516.364 437.116 515.381 434.388 514.672 431.561C511.565 420.536 508.821 409.319 505.987 398.196C503.153 387.072 500.319 375.949 497.391 364.736L488.339 331.379C485.411 320.166 482.577 309.043 479.743 297.92C476.91 286.796 473.982 275.584 470.508 264.567C467.035 253.551 463.105 242.637 457.722 232.309C452.338 221.98 445.689 212.415 437.689 203.892L431.489 197.802C430.457 196.818 429.424 195.834 428.208 194.854L425.392 192.169ZM428.669 390.96L415.704 358.889C411.412 348.167 407.03 337.54 402.376 327.01C400.049 321.745 397.538 316.485 394.849 311.412C393.504 308.876 391.976 306.344 390.358 303.906C388.741 301.468 386.85 299.128 384.875 297.065C376.968 288.632 368.435 280.855 359.634 273.36C352.142 266.934 344.565 260.785 336.72 254.919C343.677 258.147 350.365 261.656 356.789 265.63C364.331 270.312 371.43 275.646 378.081 281.45C384.732 287.254 390.668 293.808 396.156 300.832C401.644 307.856 407.132 314.88 412.257 322.096C414.728 325.706 417.114 329.594 418.771 333.682C420.428 337.77 421.356 342.059 422.289 346.532C423.876 355.392 426.376 364.046 429.055 372.513C431.733 380.98 434.596 389.442 437.641 397.901C439.209 402.083 440.687 406.359 442.344 410.447C443.715 414.083 445.175 417.626 446.729 421.258C447.625 428.025 448.887 434.783 450.422 441.442C442.685 424.749 435.588 407.948 428.669 390.96ZM430.428 199.479L436.444 205.573C444.257 213.917 450.813 223.392 456.008 233.542C461.204 243.692 465.129 254.422 468.603 265.438C471.982 276.365 474.727 287.582 477.561 298.706C480.305 309.923 483.139 321.046 486.156 332.165L495.298 365.428C498.315 376.547 501.149 387.67 503.983 398.794C506.817 409.917 509.561 421.134 512.945 432.245C513.744 434.977 514.637 437.8 515.436 440.532C516.235 443.265 517.312 446.083 518.2 448.722C519.183 451.451 520.348 454.175 521.42 456.809L523.256 460.71L524.221 462.705C524.511 463.34 524.985 463.971 525.276 464.606L527.384 468.408L529.855 472.018C530.329 472.649 530.619 473.284 531.183 473.821L532.599 475.53L534.016 477.239C534.49 477.87 534.87 478.411 535.433 478.948L538.535 482.085C539.478 483.163 540.6 484.054 541.632 485.038C543.697 487.007 545.852 488.882 548.1 490.846C556.812 498.435 565.703 505.836 574.948 512.679C579.525 516.147 584.192 519.521 588.949 522.802C593.705 526.082 598.551 529.269 603.661 531.991L605.611 532.953C606.259 533.213 606.907 533.472 607.466 533.826C608.584 534.533 609.616 535.518 609.459 536.622C609.396 537.816 608.505 538.938 607.423 539.698C606.434 540.547 605.074 541.221 603.889 541.525C603.249 541.632 602.61 541.739 601.966 541.663C601.689 541.577 601.412 541.492 601.224 541.313C600.942 541.045 600.571 540.87 600.29 540.602C598.989 539.899 597.598 539.29 596.301 538.771C593.525 537.736 590.753 536.885 587.985 536.217C585.217 535.55 582.27 535.069 579.332 534.956C577.865 534.991 576.398 535.026 574.94 535.428C574.211 535.629 573.576 535.919 572.856 536.487C572.225 536.96 571.97 537.792 571.616 538.351C571.003 539.558 569.831 540.412 568.56 540.992C567.29 541.573 565.828 541.791 564.365 542.01C561.53 542.353 558.592 542.239 555.828 541.755C550.629 539.127 545.084 537.425 539.719 535.535C534.26 533.555 528.89 531.482 523.695 529.038C513.304 524.149 503.791 517.588 495.263 509.994C486.823 502.307 479.364 493.404 473.082 483.831C472.228 482.659 471.375 481.486 470.704 480.31L468.506 476.601C468.22 476.15 467.84 475.608 467.644 475.063C464.843 469.167 462.132 463.178 459.966 456.992C457.412 449.898 455.224 442.795 453.582 435.496C451.94 428.197 450.571 420.799 449.846 413.478L449.503 410.643C449.481 409.726 449.366 408.72 449.254 407.897L448.846 402.311C448.758 398.644 448.483 394.798 448.579 391.127C448.624 389.199 448.581 387.366 448.72 385.528L449.045 379.925C449.185 378.087 449.324 376.249 449.553 374.317L449.854 371.558L450.156 368.799C450.479 366.957 450.618 365.119 450.941 363.276L451.91 357.749C452.556 354.065 453.568 350.372 454.491 346.772C458.273 332.28 463.343 317.941 465.001 302.858C465.464 299.178 465.555 295.323 465.557 291.562C465.376 287.806 465.1 283.959 464.552 280.212C464.004 276.464 463.089 272.725 462.085 269.08C461.081 265.434 459.893 261.794 458.433 258.251C455.695 251.161 452.322 244.362 448.587 237.755C444.852 231.148 440.665 224.827 436.026 218.792C426.932 206.717 416.303 195.688 403.804 186.997C397.554 182.651 390.866 179.142 383.829 176.375C376.791 173.607 369.319 171.859 361.874 171.211L361.789 171.489C376.697 173.518 390.611 179.974 402.654 188.767C408.72 193.117 414.343 198.12 419.425 203.502C424.596 208.791 429.504 214.544 433.865 220.495C438.41 226.44 442.414 232.766 446.145 239.189C449.875 245.613 453.338 252.318 456.071 259.225C458.804 266.131 460.992 273.234 462.361 280.631C462.998 284.285 463.363 288.037 463.634 291.7C463.722 295.367 463.72 299.128 463.44 302.804C462.793 310.249 461.317 317.623 459.471 324.822C457.625 332.021 455.506 339.318 453.476 346.521C449.511 361.017 446.749 375.943 446.378 391.179C446.193 394.945 446.375 398.701 446.466 402.552C446.742 406.398 446.829 410.065 447.377 413.813C448.201 421.406 449.659 428.71 451.395 436.099L452.81 441.569L454.497 446.94C455.091 448.761 455.685 450.581 456.368 452.308C457.052 454.034 457.646 455.855 458.329 457.581L460.562 462.756C460.759 463.302 460.951 463.665 461.237 464.116C459.414 460.766 457.681 457.322 455.947 453.877C454.209 450.249 452.476 446.805 450.738 443.177C448.099 428.656 446.465 414.018 446.209 399.439C445.747 383.948 446.565 368.243 447.02 352.729C447.565 337.122 447.649 321.435 446.727 305.863C446.452 302.017 446.172 297.987 445.714 294.146C445.344 290.21 444.886 286.368 444.15 282.441C443.508 278.604 442.589 274.682 441.401 271.041C440.209 267.217 438.655 263.585 436.828 260.051C433.084 253.077 428.163 246.773 422.71 241.216C417.253 235.476 411.442 230.294 405.631 225.113C399.731 220.025 393.558 215.036 386.762 210.887C379.967 206.737 372.643 203.518 365.159 201.22C350.09 196.351 334.363 194.617 318.743 193.522C314.884 193.247 310.935 193.066 306.987 192.885C303.038 192.704 299.183 192.613 295.239 192.615C291.294 192.618 287.355 192.804 283.432 193.723C281.518 194.227 279.604 194.731 277.788 195.509C275.972 196.286 274.249 197.153 272.625 198.292L272.813 198.471C274.531 197.421 276.253 196.554 278.074 195.96C279.894 195.367 281.808 194.862 283.727 194.541C287.564 193.899 291.415 193.807 295.363 193.988C299.218 194.08 303.171 194.444 307.03 194.719L318.702 195.633C326.514 196.272 334.241 197.188 341.794 198.476C349.44 199.853 357.091 201.413 364.397 203.899C366.244 204.405 368.005 205.188 369.856 205.878C371.707 206.568 373.469 207.351 375.23 208.135C376.902 209.012 378.753 209.702 380.336 210.673C382.008 211.55 383.774 212.517 385.357 213.488C391.964 217.459 398.133 222.265 404.029 227.169C409.93 232.257 415.83 237.345 421.283 242.902C426.736 248.459 431.831 254.391 435.66 261.088C439.489 267.784 441.868 275.249 443.336 282.92C444.803 290.59 445.447 298.371 445.908 306.157C446.369 313.943 446.28 321.743 446.008 329.546C445.736 337.35 445.28 345.157 445.008 352.961C444.735 360.764 444.279 368.572 444.101 376.465C444.012 384.264 444.017 392.153 444.294 399.943C444.541 406.45 445.155 412.948 446.042 419.348C440.988 403.6 435.84 387.762 430.969 372.009C428.38 363.448 425.701 354.981 423.568 346.318C422.456 342.033 421.157 337.569 419.317 333.485C417.566 329.308 415.274 325.51 412.799 321.716C410.323 317.923 407.852 314.312 405.376 310.519C402.901 306.725 400.43 303.115 397.592 299.514C392.283 292.302 386.339 285.381 379.594 279.488C372.844 273.411 365.383 268.269 357.573 263.869C350.227 259.733 342.627 256.429 334.766 253.773C333.926 253.151 333.085 252.529 332.339 251.996C327.672 248.622 323.005 245.247 318.159 242.061C317.971 241.882 317.788 241.886 317.6 241.707C319.42 241.113 321.451 241.615 323.033 242.587C323.963 243.115 324.803 243.737 325.733 244.265C326.574 244.887 327.597 245.505 328.527 246.033C332.336 248.052 336.41 249.606 340.478 250.976C344.547 252.347 348.437 253.905 352.331 255.647C356.226 257.388 359.941 259.318 363.571 261.524C367.201 263.731 370.831 265.937 374.193 268.426C377.644 270.82 380.92 273.585 384.197 276.351C390.567 281.886 396.672 287.886 402.152 294.543C407.537 301.111 412.296 308.336 416.147 315.949C420.087 323.469 423.576 331.274 426.881 339.084C427.662 341.083 428.533 342.989 429.132 344.992C429.73 346.996 430.239 349.094 430.837 351.098L433.979 363.59C435.085 367.691 436.103 371.886 437.577 375.979C438.269 378.072 439.05 380.072 439.921 381.977C440.792 383.883 441.851 385.967 443.353 387.399L443.532 387.211C442.119 385.685 441.244 383.597 440.556 381.687C439.775 379.687 439.177 377.684 438.578 375.68C437.472 371.578 436.454 367.383 435.531 363.277L432.845 350.683C432.336 348.585 431.827 346.488 431.319 344.39C430.716 342.203 429.935 340.203 429.153 338.204C427.59 334.205 425.843 330.211 423.918 326.404C421.993 322.597 419.884 318.795 417.596 315.181C415.398 311.472 413.02 307.951 410.549 304.341C408.172 300.821 405.701 297.21 402.961 293.882C397.844 287.033 392.182 280.38 385.897 274.567C379.429 268.759 372.697 263.416 365.164 259.101C361.351 256.899 357.452 254.974 353.468 253.326C349.485 251.678 345.322 250.218 341.258 249.031C337.193 247.844 333.039 246.751 329.235 244.915C328.215 244.481 327.379 244.042 326.449 243.514C325.519 242.986 324.589 242.458 323.66 241.929C322.64 241.495 321.621 241.061 320.427 240.998C319.416 240.93 318.41 241.046 317.506 241.618C315.365 240.293 313.223 238.968 310.899 237.648C308.297 236.242 305.789 234.926 303.016 234.075C302.279 233.909 301.63 233.649 300.803 233.577L299.609 233.514L298.509 233.54C297.042 233.575 295.665 233.517 294.283 233.274C291.43 232.884 288.832 231.662 287.219 229.407C286.276 228.329 285.695 227.058 285.025 225.882C284.735 225.247 284.445 224.611 284.06 223.887L283.578 222.889L282.823 221.99C280.843 219.744 278.42 218.151 275.997 216.557C273.663 214.87 271.33 213.183 269.716 210.928C268.863 209.756 268.466 208.482 268.252 207.202C268.033 205.74 267.632 204.282 266.957 202.922C266.667 202.287 266.193 201.656 266.367 201.285C266.448 200.824 267.079 200.351 267.62 199.971C268.792 199.117 269.875 198.358 271.141 197.594L278.46 192.924C283.34 189.872 288.417 187.366 293.776 185.129C299.135 182.891 304.408 180.93 309.963 179.238C320.89 175.859 332.21 173.571 343.645 172.289C354.992 171.1 366.645 171.281 377.878 173.031C383.495 173.906 389.124 175.331 394.396 177.131C395.692 177.651 397.078 178.076 398.375 178.596L402.359 180.244C404.956 181.466 407.554 182.688 409.972 184.098C414.904 187.007 419.566 190.198 423.786 194.042L427.062 196.807C428.363 197.51 429.485 198.401 430.428 199.479Z" fill="#FFFDFB"/>
  <path d="M144.979 97.4814C142.398 95.5413 139.639 93.8014 136.712 92.451L128.3 88.1886C117.317 82.1755 107.027 74.983 96.9929 67.3009C86.9589 59.6188 77.46 51.336 68.0503 42.9531C58.6405 34.5703 49.5875 25.787 39.9995 17.6044L36.4067 14.5832L32.7247 11.6622C31.5234 10.592 30.1439 9.72206 28.9535 8.84119L26.9733 7.43617C26.2835 7.0012 25.5937 6.56626 24.8147 6.2314C22.0555 4.49151 19.1398 3.33038 16.1349 2.26937C13.13 1.20836 9.94676 0.347558 6.62885 0.444088C5.01449 0.442303 3.23271 0.830001 1.78399 2.05309C1.05963 2.66464 0.635578 3.54372 0.400811 4.41188C0.16605 5.28003 0.220656 6.22644 0.364457 7.07275C0.652059 8.76537 1.30731 10.2469 2.15183 11.7174C2.89626 13.0988 3.82996 14.4693 4.76367 15.8398C6.62015 18.3914 8.75508 20.832 11.0684 23.0724L14.3045 26.494C15.4165 27.6643 16.3393 28.8454 17.3622 30.1158C25.234 39.8218 31.4788 50.9511 35.9527 62.6575C37.1631 65.5312 38.0058 68.6162 39.2162 71.49L42.669 80.3116C45.0006 86.1593 47.243 92.1071 49.5745 97.9548L57.0371 115.376C58.2474 118.25 59.4578 121.124 60.7683 124.087L64.778 132.686L68.7877 141.286L70.7425 145.541L71.7199 147.668L72.7865 149.696L81.452 166.573L83.5961 170.817L85.9186 174.861L90.5744 183.138L95.2302 191.416C96.8082 194.079 98.4863 196.83 100.254 199.482L105.277 207.548C106.955 210.3 108.533 212.963 110.39 215.515L120.983 231.236L132.211 246.445C134.067 248.997 136.102 251.349 138.148 253.889L144.174 261.233C160.486 280.612 178.246 298.768 197.69 314.833L199.491 316.439L201.382 317.944L205.064 320.865L212.618 326.696L220.338 332.138C222.908 333.888 225.489 335.829 228.148 337.479L236.136 342.621C237.516 343.491 238.796 344.271 240.175 345.141L244.303 347.562C249.71 350.763 255.296 353.764 260.882 356.765C272.132 362.478 283.638 367.701 295.479 372.146C307.32 376.59 319.407 380.355 331.651 383.542C335.123 384.481 338.585 385.231 341.957 386.081C342.736 386.416 343.505 386.561 344.283 386.896L344.362 386.607C346.287 387.065 348.113 387.435 350.038 387.893C356.194 389.247 362.438 390.501 368.516 392.144C371.51 393.016 374.436 394.367 377.173 395.728C380.011 397.178 382.759 398.729 385.151 400.68C386.352 401.75 387.453 402.731 388.387 404.102C389.131 405.483 390.154 406.753 391.534 407.623C392.913 408.493 394.46 408.974 396.075 408.975C397.689 408.977 399.271 408.411 400.541 407.388C403.082 405.343 404.521 402.316 405.104 399.244C405.586 396.082 405.589 392.853 404.936 389.758C404.472 386.651 402.304 383.642 399.11 382.592C398.331 382.257 397.563 382.112 396.795 381.966C396.027 381.821 395.259 381.675 394.401 381.63C392.876 381.528 391.262 381.526 389.648 381.524C383.39 381.695 376.977 382.445 370.719 382.617C364.373 382.888 358.094 382.68 351.871 381.805C345.648 380.93 339.482 379.387 333.651 377.064C332.193 376.484 330.824 375.803 329.366 375.223C327.998 374.542 326.529 373.772 325.16 373.091C323.881 372.311 322.412 371.541 321.132 370.76C320.443 370.325 319.853 369.979 319.252 369.444L317.461 368.028C312.667 363.937 308.687 359.134 304.795 354.231C300.993 349.228 297.37 344.024 293.935 338.81C287.055 328.192 280.643 317.452 274.409 306.512C269.231 297.41 264.153 288.398 259.164 279.285C265.221 288.811 271.557 298.226 278.26 307.43C285.375 317.179 292.579 326.829 300.696 335.856C304.755 340.37 308.992 344.683 313.497 348.696C318.091 352.609 322.963 356.411 328.705 358.833C339.979 363.31 351.308 367.119 362.827 370.918C368.537 372.772 374.336 374.526 380.123 376.092C383.017 376.874 385.911 377.657 388.805 378.439L393.235 379.513L395.45 380.05L396.507 380.274L397.086 380.43L397.375 380.508C397.476 380.598 397.754 380.487 397.754 380.487C397.654 380.397 397.554 380.308 397.364 380.319C395.095 378.836 392.825 377.352 390.456 375.78C389.176 374.999 387.986 374.118 386.706 373.338L383.146 370.884C378.307 367.65 373.735 364.116 369.074 360.682C364.412 357.247 359.93 353.613 355.358 350.078L341.898 338.986C324.224 323.958 307.173 308.23 290.936 291.79C274.51 275.361 258.719 258.42 244.188 240.268C236.928 231.286 230.024 221.904 223.488 212.311L218.698 204.991C218.075 204.077 217.553 203.252 216.93 202.339C211.73 192.858 206.341 183.389 200.862 174.02C194.439 163.09 187.927 152.261 180.958 141.744C173.989 131.226 166.741 120.819 158.302 111.146C154.589 106.043 150.14 101.362 144.979 97.4814ZM272.649 307.279C279.072 318.208 285.674 328.937 292.643 339.454C296.177 344.758 299.89 349.861 303.782 354.764C307.773 359.757 311.943 364.549 316.737 368.64L318.628 370.145C319.229 370.68 320.008 371.015 320.697 371.45C322.077 372.32 323.446 373.001 324.914 373.77C326.283 374.451 327.752 375.221 329.21 375.801C330.668 376.382 332.126 376.963 333.583 377.543C339.504 379.765 345.759 381.208 351.982 382.084C358.294 382.859 364.662 382.966 370.909 382.606C377.255 382.334 383.48 381.595 389.826 381.324C391.34 381.236 392.955 381.238 394.58 381.429C395.437 381.475 396.205 381.62 396.873 381.677C397.641 381.822 398.409 381.968 399.188 382.303C402.182 383.175 404.339 385.994 404.803 389.101C405.356 392.107 405.453 395.425 404.96 398.397C404.378 401.469 403.027 404.396 400.676 406.431C399.495 407.354 397.913 407.92 396.399 408.007C394.884 408.095 393.337 407.614 391.958 406.744C390.578 405.874 389.655 404.693 388.911 403.312C387.977 401.941 386.865 400.771 385.764 399.79C383.272 397.75 380.524 396.199 377.687 394.749C374.849 393.298 372.023 392.037 368.929 391.076C362.851 389.433 356.607 388.179 350.452 386.825C347.569 386.232 344.675 385.449 341.881 384.756C333.112 380.894 325.102 375.374 317.816 369.242C313.723 365.775 309.908 362.197 306.172 358.33C302.435 354.462 298.888 350.584 295.519 346.505C281.575 330.313 269.626 312.486 258.323 294.337C252.667 285.168 247.388 275.976 242.467 266.385C240.011 261.684 237.734 256.783 235.457 251.881C233.18 246.98 231.004 242.168 228.916 237.256C221.941 221.706 214.967 206.155 208.17 190.405C211.348 196.109 214.626 201.902 217.804 207.606C230.093 229.686 241.915 251.889 254.204 273.969C259.992 285.409 266.226 296.35 272.649 307.279ZM233.236 226.561C236.549 231.308 240.229 235.843 243.82 240.479C258.263 258.732 273.429 276.373 289.677 293.002C305.836 309.731 323.164 325.349 341.017 340.176C345.411 343.911 350.172 347.434 354.655 351.068C359.316 354.503 363.888 358.037 368.649 361.561C373.4 364.895 378.061 368.329 383.079 371.363L386.728 373.716C388.008 374.497 389.098 375.289 390.466 375.969C392.725 377.263 395.173 378.546 397.632 380.019L397.053 379.862L395.996 379.638L393.781 379.102L389.44 377.928C386.546 377.145 383.641 376.173 380.837 375.291C375.127 373.436 369.418 371.582 363.697 369.538C352.357 365.54 341.094 361.252 330.01 356.764C324.657 354.509 319.974 350.696 315.57 346.772C311.165 342.848 307.017 338.435 303.148 333.91C295.22 324.872 287.927 315.323 280.912 305.662C266.961 286.052 254.113 265.808 241.622 245.164C239.41 241.398 237.199 237.632 234.998 234.056C231.076 226.971 227.343 219.875 223.421 212.789C224.888 215.173 226.633 217.447 228.379 219.72L233.236 226.561ZM156.864 112.558C165.103 122.053 172.251 132.371 179.22 142.888C188.178 156.615 196.491 170.664 204.714 184.812C207.466 193.01 210.586 200.996 213.805 209.071C217.892 218.996 222.167 228.909 226.899 238.512C231.632 248.114 236.642 257.605 241.742 266.997C246.753 276.488 251.764 285.979 257.053 295.36C262.342 304.74 267.81 313.92 273.834 322.878C276.846 327.357 279.948 331.736 283.139 336.015C286.329 340.294 289.709 344.562 293.267 348.629C300.384 356.765 307.946 364.399 316.5 371.122C323.064 376.251 330.162 380.779 337.751 383.95C335.826 383.491 334.089 383.021 332.253 382.463C320.099 379.176 308.09 375.121 296.338 370.577C284.675 365.932 273.258 360.609 262.098 354.796C256.601 351.695 251.026 348.883 245.697 345.392C243.038 343.742 240.29 342.191 237.72 340.44L229.821 335.199C227.162 333.548 224.581 331.608 222.1 329.757L214.469 324.215L207.105 318.373L203.423 315.452L201.532 313.947L199.73 312.342C180.375 296.177 162.537 278.31 146.425 259.109L140.399 251.765C138.454 249.314 136.319 246.873 134.562 244.411L123.156 229.401L112.384 213.88C110.528 211.328 108.95 208.666 107.183 206.014L102.07 198.048C88.7779 176.69 76.5778 154.51 66.0484 131.663L61.9495 123.164C60.5498 120.301 59.4286 117.327 58.129 114.553L50.6666 97.1321C48.335 91.2844 46.0926 85.3366 43.8611 79.5781L40.4083 70.7565C39.1979 67.8827 38.3552 64.7978 37.234 61.8239C32.66 50.0284 26.5044 38.7989 18.6216 28.9036C17.5987 27.6333 16.6759 26.4521 15.5639 25.2818L12.3278 21.8602C10.2038 19.6089 8.06887 17.1683 6.3125 14.7058C5.38971 13.5246 4.64531 12.1433 3.90089 10.7619C3.15646 9.38048 2.6013 7.9882 2.32463 6.48486C2.19175 5.82783 2.14806 5.07069 2.39375 4.39182C2.55026 3.81305 2.896 3.22337 3.3419 2.72285C4.33379 1.811 5.83717 1.53429 7.26225 1.547C10.3017 1.56149 13.2956 2.43325 16.2004 3.40508C19.1052 4.37691 22.0318 5.72731 24.5908 7.28884C25.2806 7.72381 25.9596 7.96946 26.5602 8.50454L28.4402 9.82041C29.7307 10.7905 31.0102 11.5712 32.2115 12.6413L35.8934 15.5624L39.397 18.6837C48.8959 26.9665 57.949 35.7497 67.2695 44.2326C85.9106 61.1985 105.376 77.6421 127.652 90.1252L136.164 94.4766C138.902 95.8379 141.46 97.3995 143.941 99.2504C148.357 103.364 152.605 107.866 156.864 112.558Z" fill="#FFFDFB"/>
  <path d="M1198.02 646.498L1198.35 646.014C1198.43 645.865 1198.5 645.716 1198.57 645.568C1198.83 645.233 1198.83 644.86 1198.83 644.488C1198.83 644.116 1198.83 643.744 1198.83 643.372C1198.56 641.846 1197.78 640.619 1196.93 639.54C1196.48 638.945 1196.07 638.461 1195.62 637.866C1195.18 637.271 1194.66 636.824 1194.13 636.378L1192.65 634.89C1192.13 634.444 1191.61 633.997 1191.05 633.439C1189.97 632.435 1188.74 631.729 1187.59 630.873C1186.36 630.167 1185.14 629.46 1183.91 628.754C1181.38 627.489 1178.78 626.374 1176.26 625.11C1173.73 623.846 1171.43 622.135 1169.23 620.387C1168.19 619.494 1167.11 618.49 1166.18 617.56C1165.21 616.518 1164.17 615.626 1163.28 614.435C1159.52 610.232 1156.24 605.619 1152.97 601.006C1147.86 590.923 1145.86 579.425 1146.95 568.261C1147.52 562.604 1148.81 557.208 1150.87 551.923C1152.83 546.675 1155.15 541.427 1157.25 536.253C1161.68 525.832 1165.81 515.262 1168.45 504.32C1171.06 493.266 1172.03 481.767 1170 470.53C1168.98 464.911 1167.15 459.442 1164.69 454.307C1162.23 449.173 1159.02 444.411 1155.34 440.059C1148.26 431.13 1139.93 423.245 1131.05 416.29C1122.12 409.223 1112.64 403.087 1103.42 396.616C1101.16 395.017 1098.85 393.306 1096.7 391.669C1094.5 389.921 1092.31 388.173 1090.23 386.388C1086.13 382.668 1082.01 378.837 1078.54 374.41L1075.97 371.174C1075.12 370.095 1074.45 368.83 1073.59 367.751L1071.32 364.291L1069.34 360.608L1067.37 356.925L1065.57 353.055L1063.89 349.149L1062.22 345.242C1058 334.861 1054.74 324.034 1052.52 312.983C1051.43 307.513 1050.68 301.931 1049.92 296.349C1049.58 293.484 1049.27 290.731 1048.82 287.903C1048.59 286.489 1048.37 285.075 1047.77 283.661C1047.55 282.991 1047.03 282.173 1046.47 281.615L1044.98 280.127C1043.04 278.044 1041.11 275.96 1038.99 274.063C1037.91 273.059 1036.87 272.167 1035.72 271.311C1034.56 270.456 1033.3 269.638 1031.89 269.117C1030.48 268.597 1028.92 268.374 1027.36 268.896C1026.14 269.306 1024.91 269.343 1023.8 268.6C1022.72 267.967 1021.42 267.038 1019.82 266.703C1018.34 266.332 1016.78 266.481 1015.41 266.817C1014.7 266.929 1014.04 267.152 1013.37 267.376L1011.33 267.935C1009.96 268.271 1008.66 268.457 1007.29 268.421C1005.91 268.384 1004.65 267.938 1003.28 267.529C1001.9 267.12 1000.45 266.861 998.969 266.861C997.485 266.862 996.113 267.197 994.703 267.421L992.664 267.98C991.996 268.204 991.329 268.427 990.624 268.539C987.88 269.21 985.172 269.621 982.427 269.92C979.682 270.219 976.862 270.294 974.042 270.37C971.222 270.445 968.402 270.521 965.546 270.857C964.841 270.969 964.136 271.081 963.358 271.342C963.024 271.454 962.579 271.603 962.32 271.938C962.024 272.161 961.765 272.496 961.617 272.794C961.248 273.538 961.139 274.32 961.103 274.952C961.068 275.585 960.921 276.255 960.626 276.851C960.035 278.042 959.333 279.27 958.445 280.312C957.595 281.466 956.669 282.397 955.595 283.253C953.41 284.854 950.741 285.749 948.072 287.015C946.812 287.685 945.627 288.579 944.591 289.547C944.147 290.068 943.592 290.627 943.334 291.334C942.927 291.967 942.632 292.562 942.374 293.269C941.305 295.986 941.015 298.815 940.725 301.643C940.547 304.434 940.517 307.299 940.599 310.127L940.906 314.37C940.984 315.709 940.988 317.198 940.657 318.426C940.621 318.686 940.362 319.021 940.325 319.282C940.14 319.468 940.03 319.877 939.696 319.989C939.326 320.362 938.622 320.846 938.067 321.404C937.068 322.484 936.292 323.861 936.185 325.387C935.929 326.838 936.044 328.289 935.862 329.592C935.605 330.671 934.457 331.676 933.308 332.309C930.974 333.836 928.342 334.842 925.822 335.811C922.632 336.631 919.332 337.488 916.18 338.42C913.029 339.351 909.766 340.32 906.577 341.512C905.058 342.146 903.389 342.705 901.944 343.561C900.499 344.418 899.166 345.609 898.168 347.061C897.17 348.512 896.469 350.113 896.177 351.825C895.847 353.425 895.777 355.063 896.115 356.811C893.414 359.827 890.862 362.917 888.161 365.932C886.829 367.495 885.497 369.059 884.202 370.734C883.685 371.404 883.167 372.074 882.649 372.744C882.612 372.633 882.685 372.484 882.648 372.372C882.611 372.261 882.684 372.112 882.572 371.777L882.535 371.665C882.535 371.665 882.535 371.665 882.349 371.479C882.349 371.479 882.014 371.219 881.681 371.331C881.458 371.405 881.384 371.554 881.384 371.554C881.31 371.703 881.348 371.815 881.237 371.852C881.274 371.963 881.163 372.001 881.2 372.112C881.164 372.373 881.127 372.633 881.128 373.005C881.092 373.266 881.055 373.526 881.168 373.861C881.131 374.122 881.206 374.345 881.355 374.792C881.393 374.903 881.393 374.903 881.579 375.089C881.543 375.722 881.656 376.429 881.621 377.061C881.701 379.145 881.52 381.192 881.86 383.313C882.05 385.36 882.39 387.481 883.212 389.564C883.398 390.122 883.548 390.569 883.846 391.09L884.182 391.722C884.219 391.834 884.257 391.946 884.257 391.946C884.257 391.946 884.145 391.983 884.034 392.02C883.812 392.095 883.589 392.169 883.367 392.244L881.921 392.728C879.919 393.399 877.991 394.293 876.102 395.298C874.212 396.304 872.508 397.495 870.991 399.245C870.288 400.101 869.623 401.069 869.254 402.185C868.886 403.302 868.778 404.456 868.929 405.646C869.195 407.916 870.461 409.851 871.876 411.488C872.62 412.232 873.401 413.087 874.108 413.719L876.414 415.802C877.976 417.141 879.464 418.629 880.915 420.006C882.365 421.382 883.853 422.87 885.119 424.432C885.752 425.213 886.385 425.994 887.018 426.776C887.278 427.185 887.65 427.557 887.911 427.966C888.097 428.152 888.209 428.487 888.395 428.673C886.545 430.534 884.732 432.507 883.067 434.555C881.217 436.788 879.479 438.985 878.113 441.553C877.706 442.186 877.448 442.893 877.19 443.6C876.932 444.307 876.712 445.126 876.937 446.168C877.012 446.391 877.086 446.614 877.199 446.949L877.422 447.247C877.459 447.359 877.608 447.433 877.608 447.433C877.831 447.731 878.166 447.991 878.389 448.288C878.948 448.846 879.579 449.256 880.1 449.702C882.516 451.375 884.932 452.677 887.125 454.425C888.278 455.28 889.208 456.21 890.138 457.14C890.957 458.107 891.813 459.186 892.447 460.34C892.745 460.86 892.969 461.53 893.194 462.2C893.418 462.87 893.643 463.539 893.867 464.209C894.316 465.549 894.876 466.851 895.473 468.265C896.033 469.567 896.704 470.832 897.413 472.208C898.195 473.436 898.977 474.664 900.131 475.891C900.689 476.449 901.358 476.97 902.435 477.23C902.695 477.267 902.955 477.304 903.214 477.341C903.437 477.267 903.808 477.267 904.03 477.192C904.253 477.118 904.475 477.043 904.735 477.08C905.106 477.08 905.404 477.229 905.776 477.601C906.148 477.973 906.335 478.531 906.67 479.163C906.894 479.833 907.081 480.391 907.306 481.061C907.381 481.284 907.345 481.917 907.161 482.475C906.83 483.703 906.314 485.118 905.872 486.383C904.914 489.063 904.142 491.928 904.039 494.943C903.931 496.468 904.084 498.031 904.57 499.482C905.056 500.934 905.913 502.384 906.918 503.538C908.816 505.509 910.306 507.741 911.759 510.234C913.287 512.578 914.889 515.145 917.046 517.153L917.901 517.86C918.236 518.12 918.533 518.269 918.868 518.529C919.203 518.79 919.5 518.939 919.834 519.199L920.875 519.719C921.618 520.091 922.286 520.24 923.103 520.463C923.809 520.723 924.662 520.685 925.442 520.797C926.221 520.908 926.926 520.796 927.779 520.758C928.521 520.758 929.337 520.609 930.005 520.385L932.193 519.901L934.306 519.193C937.087 518.261 939.532 516.697 942.014 515.245C946.793 512.154 951.349 508.766 956.017 505.712C960.684 502.659 965.613 500.015 970.766 498.04C981.034 493.98 992.311 492.561 1003.45 493.673C1014.54 494.673 1025.35 497.757 1035.82 501.697C1041.06 503.667 1046.34 505.749 1051.43 508.016C1056.55 510.396 1061.49 512.961 1066.03 516.16C1066.18 516.234 1066.33 516.308 1066.51 516.494C1066.7 516.68 1066.88 516.866 1066.96 517.09L1067.14 516.904C1071.23 519.879 1074.92 523.487 1078.01 527.542C1081.25 532.043 1083.78 537.029 1086.32 542.014C1088.74 547.037 1091.21 552.171 1093.67 557.306C1096.24 562.403 1098.89 567.351 1101.65 572.262C1104.41 577.173 1107.39 582.009 1110.48 586.808L1119.5 601.169C1125.53 610.693 1131.49 620.366 1137.94 629.629C1141.1 634.279 1144.38 638.892 1148.36 643.021C1150.37 644.955 1152.64 646.927 1155.28 648.154C1156.58 648.711 1157.99 649.232 1159.4 649.38C1159.77 649.38 1160.07 649.528 1160.44 649.528L1161.55 649.528C1162.29 649.528 1162.96 649.676 1163.67 649.564C1169.23 649.562 1174.91 649.894 1180.55 649.743C1183.37 649.667 1186.19 649.592 1189.05 649.256C1190.46 649.032 1191.87 648.808 1193.24 648.472C1194.61 648.137 1196.06 647.653 1197.24 646.759C1197.46 647.057 1197.87 646.796 1198.02 646.498ZM881.47 448.622C880.95 448.176 880.355 447.878 879.946 447.395C879.648 447.246 879.536 446.911 879.35 446.725C879.313 446.613 879.202 446.651 879.164 446.539L879.127 446.428C879.089 446.316 879.052 446.204 879.052 446.204C878.94 445.869 879.087 445.2 879.271 444.641C879.455 444.083 879.75 443.487 880.045 442.892C881.338 440.472 883.076 438.276 884.704 436.117C886.442 433.921 888.367 431.911 890.291 429.9L890.661 429.528L890.512 429.081C890.287 428.412 889.915 428.04 889.617 427.519C889.356 427.11 888.947 426.626 888.686 426.217C888.016 425.324 887.383 424.543 886.639 423.799C885.262 422.274 883.774 420.786 882.286 419.298C880.798 417.81 879.236 416.471 877.674 415.132L875.926 413.607C878.081 414.871 880.422 415.95 882.799 416.767C886.996 418.217 891.376 418.736 895.791 418.622C904.548 418.544 913.114 416.047 921.384 414.146C923.461 413.698 925.537 413.251 927.578 413.064C928.654 412.952 929.656 412.989 930.658 413.026L933.812 413.21L946.691 414.358C950.737 414.617 954.782 414.876 958.753 414.912C955.155 415.62 951.558 416.329 948.035 417.261C939.951 419.348 931.979 421.77 924.305 424.713C922.34 425.495 920.487 426.241 918.522 427.023C916.706 427.879 914.593 428.587 912.704 429.965C911.815 430.635 910.927 431.678 910.373 432.608C909.819 433.539 909.302 434.581 908.859 435.474C907.973 437.261 906.938 438.973 905.755 440.611C903.389 443.887 900.501 446.716 897.019 448.876C895.278 449.956 893.499 450.924 891.683 451.781C890.497 452.302 889.162 452.749 887.939 453.159C885.967 451.337 883.552 450.035 881.47 448.622ZM909.643 480.651C909.418 479.981 909.194 479.311 908.932 478.53C908.596 477.897 908.335 477.116 907.739 476.446C907.478 476.037 907.033 475.814 906.698 475.554C906.549 475.479 906.401 475.405 906.252 475.331C916.963 470.377 927.861 465.609 938.87 461.176C944.764 458.829 950.658 456.482 956.553 454.135C959.518 453.017 962.484 451.9 965.487 450.894C968.49 449.888 971.568 449.105 974.646 448.322C980.839 446.868 987.146 446.121 993.454 446.119C996.682 446.154 999.799 446.227 1002.99 446.524L1012.57 447.041C1014.83 447.151 1017.17 447.485 1019.43 447.968C1015.2 448.268 1011.01 448.679 1006.82 449.09C1001.92 449.613 996.99 450.397 992.057 451.18C987.123 451.964 982.302 453.082 977.445 454.461C972.698 455.803 967.879 457.665 963.544 460.235C961.395 461.576 959.321 463.139 957.507 464.74C955.582 466.378 953.73 467.868 951.729 468.911C951.211 469.208 950.654 469.395 950.136 469.693C949.58 469.879 949.061 470.177 948.467 470.252C947.355 470.624 946.131 471.034 944.982 471.295L937.825 473.196C928.517 475.693 919.136 478.339 909.903 481.06C909.829 481.209 909.68 480.762 909.643 480.651ZM1052.42 506.192C1047.3 503.813 1042.02 501.731 1036.67 499.799C1026.05 495.784 1015.06 492.514 1003.59 491.514C992.231 490.477 980.546 491.784 969.833 495.994C964.495 498.155 959.455 500.836 954.676 503.927C949.897 507.017 945.342 510.406 940.674 513.459C938.34 514.986 935.969 516.401 933.411 517.258L931.557 518.003L929.629 518.525C928.962 518.748 928.331 518.711 927.626 518.823C927.032 518.898 926.328 519.01 925.659 518.861C923.024 518.751 920.684 517.673 918.824 515.813C916.852 513.99 915.362 511.758 913.909 509.265C912.381 506.922 910.779 504.355 908.733 502.309C907.022 500.523 906.273 497.919 906.377 495.277C906.482 492.634 907.217 490.029 908.175 487.35C908.58 485.972 909.133 484.67 909.501 483.181C909.611 482.772 909.647 482.511 909.758 482.102C913.058 481.244 916.508 480.834 919.995 480.534C923.594 480.198 927.23 479.973 930.866 479.748C938.137 479.299 945.335 478.998 952.57 478.437C956.206 478.212 959.804 477.875 963.477 477.39C965.257 477.166 967.149 476.905 968.892 476.569C970.636 476.233 972.564 475.712 974.27 475.264C977.792 474.333 981.167 473.326 984.728 472.878C988.14 472.356 991.777 472.503 995.34 472.799C1002.47 473.392 1009.48 475.138 1016.17 477.74C1022.86 480.342 1029.28 483.651 1035.34 487.705C1045.01 494.027 1053.6 501.95 1061.3 510.543C1058.33 509.055 1055.36 507.568 1052.42 506.192ZM1095.56 556.672C1093.13 551.649 1090.67 546.515 1088.32 541.344C1087.09 538.776 1085.86 536.209 1084.41 533.717C1083.06 531.187 1081.5 528.731 1079.86 526.425C1076.43 521.737 1072.23 517.683 1067.44 514.447C1065.84 513.369 1064.28 512.402 1062.57 511.361C1054.86 502.024 1046.04 493.431 1036.08 486.588C1024.15 478.295 1010.14 472.309 995.521 470.753C993.739 470.605 991.846 470.494 989.991 470.495C988.136 470.495 986.28 470.496 984.351 470.646C980.641 471.019 977.007 471.989 973.596 472.883C971.779 473.368 970.184 473.778 968.441 474.113C966.698 474.449 964.954 474.785 963.174 475.009C959.613 475.457 956.052 475.905 952.453 476.241C945.256 476.914 938.021 477.475 930.862 478.26C926.447 478.746 922.033 479.231 917.656 479.828C924.441 477.928 931.302 476.25 938.237 474.796L945.469 473.118C946.73 472.82 947.879 472.559 949.103 472.149C949.659 471.963 950.326 471.739 950.994 471.516C951.55 471.33 952.18 470.994 952.699 470.696C955.033 469.542 957.07 467.866 958.922 466.377C960.847 464.739 962.736 463.361 964.773 462.058C968.886 459.563 973.483 457.775 978.192 456.321C982.901 454.868 987.722 453.75 992.469 452.78C997.327 451.773 1002.11 450.915 1007.05 450.132C1011.5 449.386 1015.98 448.751 1020.47 448.117C1023.96 448.934 1027.34 450.16 1030.65 451.536C1036.44 454.064 1041.87 457.336 1046.85 461.13C1056.93 468.68 1065.56 478.203 1072.75 488.582C1074.61 491.186 1076.25 493.865 1077.89 496.543L1080.28 500.71C1080.98 502.087 1081.69 503.464 1082.29 504.877C1084.72 510.644 1086.29 516.821 1087.87 522.998C1091.01 535.351 1093.87 547.928 1098.17 560.02C1098.84 562.03 1099.59 563.89 1100.37 565.862C1098.66 562.96 1097.13 559.872 1095.56 556.672ZM1193.13 648.51C1191.75 648.845 1190.35 649.069 1189.05 649.256C1186.3 649.555 1183.48 649.63 1180.66 649.706C1174.98 649.745 1169.42 649.376 1163.7 649.304C1160.85 649.268 1158.14 648.934 1155.76 647.744C1153.27 646.592 1151.15 644.695 1149.25 642.723C1145.42 638.668 1142.25 634.018 1139.09 629.368C1132.87 620.03 1127.02 610.32 1121.05 600.647L1112.15 586.25C1109.8 582.566 1107.53 578.734 1105.29 575.014C1103.02 570.066 1101.07 565.006 1099.35 559.871C1095.31 547.816 1092.72 535.276 1089.68 522.885C1088.22 516.671 1086.61 510.383 1084.22 504.356C1083.58 502.83 1082.95 501.305 1082.13 499.965L1079.74 495.798C1078.07 493.008 1076.43 490.33 1074.53 487.614C1070.88 482.257 1066.86 477.272 1062.54 472.51C1058.11 467.786 1053.43 463.397 1048.18 459.566C1042.94 455.736 1037.37 452.389 1031.35 449.935C1025.33 447.482 1019.02 445.624 1012.53 445.441L1002.95 445.296C999.723 445.26 996.532 445.336 993.341 445.411C986.885 445.712 980.542 446.719 974.311 448.062C961.888 450.858 949.615 454.845 937.864 459.65C926.819 464.344 915.736 469.298 905.325 475.517C905.214 475.554 905.065 475.48 904.954 475.517C904.434 475.443 903.989 475.592 903.544 475.741C903.322 475.816 903.433 475.778 903.322 475.816C903.211 475.853 903.173 475.741 903.062 475.778C902.654 475.667 902.208 475.444 901.798 474.96C900.906 474.142 900.161 473.026 899.489 471.761C898.856 470.608 898.184 469.343 897.625 468.04C897.065 466.738 896.505 465.436 896.093 464.208C895.869 463.538 895.645 462.869 895.42 462.199C895.085 461.566 894.934 460.748 894.487 460.153C893.779 458.776 892.885 457.586 891.88 456.432C890.913 455.391 889.834 454.387 888.682 453.531C891.908 452.823 895.096 451.631 897.986 449.918C901.655 447.944 905.024 445.077 907.613 441.727C908.908 440.051 910.054 438.302 911.125 436.329C912.122 434.505 913.045 432.83 914.415 431.751C915.897 430.634 917.788 430 919.752 429.218C921.717 428.436 923.571 427.691 925.535 426.908C933.209 423.965 940.995 421.357 948.893 419.084C955.679 417.183 962.65 415.468 969.586 414.014C970.773 413.864 971.811 413.641 972.961 413.38L972.773 412.45C969.805 412.823 966.875 413.308 963.945 413.793C962.609 413.868 961.274 413.943 959.9 413.906C955.559 413.871 951.29 413.315 947.021 412.758C942.753 412.202 938.52 411.385 934.178 410.977C933.138 410.829 932.025 410.829 930.874 410.718C929.724 410.607 928.611 410.608 927.423 410.757C925.161 411.018 923.046 411.354 920.858 411.839C916.593 412.771 912.441 414.038 908.287 414.933C904.133 415.828 899.942 416.611 895.675 416.799C891.408 416.987 887.103 416.691 882.981 415.465C879.751 414.685 876.778 413.197 873.88 411.561C873.545 411.301 873.284 410.892 872.95 410.631C871.61 409.218 870.53 407.469 870.265 405.571C870 403.674 870.664 401.962 871.996 400.398C873.254 398.983 874.958 397.792 876.588 396.749C878.366 395.781 880.182 394.924 882.073 394.291L883.519 393.806C883.742 393.732 884.075 393.62 884.298 393.546C884.483 393.359 884.965 393.322 885.261 392.727C885.407 392.057 885.184 391.759 885.072 391.424L884.699 390.68C884.549 390.234 884.288 389.824 884.101 389.266C883.354 387.406 883.052 385.397 882.862 383.35C882.671 381.303 882.629 379.331 882.66 377.21C882.658 376.466 882.619 375.61 882.617 374.865L882.691 374.717C882.765 374.568 882.95 374.382 883.098 374.084C883.689 373.265 884.281 372.446 885.021 371.701C886.353 370.138 887.648 368.463 888.979 366.899C891.643 363.772 894.307 360.645 897.082 357.481L897.267 357.295L897.155 356.96C896.669 355.509 896.85 353.834 897.068 352.271C897.398 350.671 898.025 349.219 898.95 347.916C899.615 346.948 900.429 346.055 901.429 345.348C904.546 345.049 907.664 345.494 910.782 345.939C913.937 346.496 916.908 347.239 919.842 348.242L937.67 354.561C949.592 358.761 961.365 362.887 973.214 367.236C985.025 371.473 996.911 375.933 1008.28 381.064C1013.96 383.629 1019.72 386.418 1025.26 389.281C1028.08 390.694 1030.83 392.255 1033.54 393.706L1041.79 398.391L1042.72 397.088C1033.87 389.873 1023.5 385.151 1014.36 378.903C1009.75 375.853 1005.47 372.32 1002.05 368.005C998.549 363.838 996.347 358.741 994.145 353.644C992.054 348.509 989.999 343.114 986.869 338.204C985.304 335.748 983.332 333.554 981.212 331.657C978.981 329.797 976.602 328.235 974.038 326.859C968.874 324.368 963.415 322.845 957.846 321.731C952.277 320.617 946.747 319.986 941.142 319.505L941.106 319.765C946.6 320.656 952.205 321.51 957.627 322.921C963.011 324.222 968.395 325.894 973.263 328.608C975.679 329.91 977.909 331.397 980.029 333.294C982 335.117 983.713 337.275 985.203 339.507C988.109 344.12 990.015 349.441 992.032 354.724C993.041 357.366 994.161 359.97 995.503 362.5C996.846 365.03 998.41 367.485 1000.27 369.717C1003.88 374.219 1008.53 377.752 1013.18 380.913C1018.08 384.111 1023.21 386.863 1028.26 389.763C1027.52 389.391 1026.63 388.945 1025.89 388.573C1020.24 385.748 1014.52 383.071 1008.83 380.505C997.317 375.301 985.838 370.207 974.137 365.561C962.437 360.914 950.44 356.863 938.519 353.035C932.54 351.065 926.487 349.244 920.545 347.386C917.5 346.42 914.307 345.751 911.226 345.418C908.256 345.047 905.102 344.862 902.171 345.347C902.357 345.161 902.579 345.087 902.764 344.9C904.098 344.081 905.729 343.411 907.286 342.889C910.363 341.734 913.589 340.654 916.74 339.722C919.892 338.79 923.155 337.821 926.344 337.001C928.976 335.995 931.608 334.99 934.053 333.426C934.646 332.979 935.238 332.532 935.831 332.085C936.386 331.527 936.793 330.894 937.013 330.075C937.269 328.624 937.154 327.172 937.336 325.87C937.519 324.567 938.109 323.376 938.997 322.334C939.441 321.813 939.96 321.515 940.515 320.956C940.811 320.733 940.922 320.324 941.181 319.989C941.328 319.691 941.55 319.244 941.549 318.872C941.916 317.383 941.801 315.932 941.835 314.555L941.527 310.313C941.334 307.522 941.364 304.657 941.542 301.866C941.721 299.075 942.01 296.246 943.117 293.641C943.412 293.045 943.67 292.338 944.003 291.854C944.298 291.259 944.742 290.738 945.186 290.217C946.111 289.286 947.297 288.392 948.483 287.871C950.929 286.679 953.709 285.747 956.117 284.072C957.302 283.178 958.301 282.099 959.189 281.056C960.04 279.902 960.89 278.748 961.555 277.408C961.813 276.701 962.071 275.994 962.069 275.25C962.178 274.468 962.102 273.873 962.435 273.389C962.583 273.091 962.768 272.905 963.064 272.682C963.249 272.495 963.583 272.384 963.805 272.309C964.473 272.086 965.066 272.011 965.771 271.899C968.516 271.6 971.373 271.636 974.156 271.449C976.976 271.373 979.796 271.298 982.652 270.962C985.398 270.663 988.254 270.327 991.072 269.507C991.739 269.283 992.444 269.171 993.111 268.948L995.151 268.389C996.523 268.053 997.821 267.866 999.157 267.791C1000.53 267.828 1001.83 268.014 1003.09 268.46C1004.47 268.868 1005.88 269.389 1007.25 269.425C1008.77 269.536 1010.18 269.312 1011.55 268.977C1012.93 268.641 1014.22 268.083 1015.63 267.859C1016.89 267.561 1018.34 267.448 1019.57 267.783C1020.9 268.08 1021.91 268.861 1023.13 269.567C1023.76 269.977 1024.58 270.199 1025.36 270.311C1026.14 270.422 1026.92 270.161 1027.62 270.049C1028.85 269.639 1030.15 269.825 1031.3 270.308C1032.56 270.754 1033.68 271.498 1034.83 272.353C1035.94 273.097 1037.02 274.102 1037.95 275.031C1039.22 276.222 1040.37 277.449 1041.64 278.64C1042.72 281.132 1043.54 283.588 1043.96 286.304C1044.48 289.356 1044.64 292.407 1044.68 295.496C1044.66 301.71 1043.6 307.777 1042.43 313.88C1040.2 326.05 1036.74 338.257 1037.07 351.058C1037.15 354.258 1037.61 357.458 1038.39 360.547C1039.18 363.635 1040.41 366.574 1041.87 369.439C1043.43 372.267 1045.15 374.796 1047.19 377.214C1049.24 379.632 1051.47 381.864 1053.89 383.91C1056.31 385.956 1058.87 387.704 1061.51 389.303C1062.78 390.121 1064.26 390.864 1065.64 391.645C1067.09 392.277 1068.46 393.058 1069.87 393.579C1075.67 396.107 1081.83 397.518 1087.66 399.413C1093.49 401.309 1099.29 403.837 1103.38 408.301C1105.46 410.458 1106.88 413.211 1108.52 415.89C1110.16 418.569 1111.99 421.433 1114.96 423.293C1117.93 425.152 1121.35 425.374 1124.09 426.191C1126.92 426.86 1129.33 428.534 1131.42 430.691C1133.5 432.848 1135.32 435.341 1137.37 437.759C1138.41 439.024 1139.42 440.177 1140.57 441.404C1141.69 442.52 1143.06 443.673 1144.48 444.566C1146.82 446.016 1148.42 448.583 1148.76 451.449C1148.95 452.751 1148.92 454.5 1149.07 456.063C1149.22 457.626 1149.52 459.263 1149.79 460.789C1151.25 467.003 1153.71 472.881 1156.14 478.648C1158.57 484.415 1161.18 489.996 1162.94 495.986C1163.8 498.926 1164.44 501.94 1164.74 505.066C1165.01 508.08 1164.83 511.243 1164.14 514.332L1164.4 514.369C1166.09 508.34 1165.74 501.753 1164.2 495.688C1162.66 489.623 1160.2 483.745 1157.88 477.94C1155.57 472.136 1153.25 466.332 1152.01 460.415C1151.75 458.89 1151.49 457.364 1151.37 455.913C1151.11 454.387 1151.25 452.973 1151.02 451.187C1150.5 447.764 1148.67 444.527 1145.7 442.668C1143.21 441.143 1141.31 438.799 1139.3 436.493C1137.36 434.038 1135.54 431.545 1133.16 429.239C1132.04 428.123 1130.81 427.044 1129.29 426.189C1127.88 425.297 1126.28 424.59 1124.68 424.256C1121.56 423.439 1118.52 423.217 1116.07 421.804C1113.62 420.391 1111.9 417.861 1110.3 415.294C1108.7 412.727 1107.13 409.899 1104.83 407.444C1102.56 405.101 1099.84 403.278 1097.02 401.866C1094.19 400.453 1091.15 399.486 1088.14 398.632C1082.09 396.811 1076.04 395.734 1070.28 393.318C1064.56 391.013 1059.13 387.741 1054.45 383.724C1052.07 381.79 1049.95 379.52 1048.01 377.065C1046.07 374.61 1044.47 372.043 1043.06 369.29C1041.75 366.499 1040.67 363.634 1040.03 360.62C1039.39 357.607 1039.12 354.592 1039.08 351.504C1038.99 345.326 1039.9 339.186 1040.96 333.12C1041.98 326.942 1043.3 320.913 1044.33 314.735C1045.35 308.557 1046.11 302.342 1045.95 295.942C1045.86 290.509 1044.84 284.89 1042.46 279.979C1042.86 280.463 1043.39 280.909 1043.83 281.504L1045.32 282.992C1045.73 283.476 1045.99 283.885 1046.21 284.554C1046.63 285.782 1046.96 287.159 1047.15 288.461C1047.57 291.178 1047.91 294.043 1048.21 296.797C1048.86 302.416 1049.61 307.997 1050.63 313.616C1052.74 324.705 1055.92 335.681 1060.21 346.285L1061.89 350.192L1063.57 354.098L1065.36 357.968L1067.38 361.763L1069.39 365.557L1071.7 369.129C1072.48 370.357 1073.27 371.584 1074.12 372.663L1076.73 376.011C1080.23 380.55 1084.39 384.492 1088.63 388.286C1090.87 390.146 1092.95 391.931 1095.25 393.642C1097.56 395.353 1099.75 397.101 1102.13 398.663C1111.35 405.134 1120.94 411.233 1129.79 418.077C1138.64 424.92 1146.82 432.731 1153.93 441.399C1157.58 445.64 1160.74 450.29 1163.28 455.275C1165.82 460.261 1167.61 465.619 1168.59 471.126C1170.77 482.065 1169.91 493.527 1167.41 504.544C1165.03 515.522 1160.9 526.093 1156.7 536.44C1154.6 541.613 1152.27 546.861 1150.32 552.109C1148.36 557.357 1147.01 562.902 1146.43 568.559C1145.38 579.835 1147.52 591.407 1152.63 601.49C1155.91 606.103 1159.08 610.753 1162.84 614.956C1163.8 615.998 1164.77 617.04 1165.74 618.081C1166.71 619.123 1167.86 619.978 1168.83 621.02C1171.02 622.768 1173.32 624.479 1175.89 625.854C1178.34 627.267 1181.02 628.234 1183.47 629.647C1184.77 630.204 1185.92 631.06 1187.15 631.766C1188.3 632.622 1189.41 633.366 1190.49 634.37C1191.01 634.816 1191.53 635.263 1192.06 635.709L1193.54 637.197C1194.06 637.643 1194.62 638.201 1195.03 638.685C1195.44 639.168 1196 639.726 1196.33 640.359C1197.19 641.438 1197.86 642.702 1198.05 644.005C1198.24 645.307 1197.58 646.647 1196.57 647.355C1195.8 647.615 1194.46 648.063 1193.13 648.51Z" fill="#FFFDFB"/>
  <path d="M1327.55 232.257C1326.96 227.877 1326.26 223.55 1325.29 219.215C1324.43 214.828 1323.46 210.493 1322.54 206.271C1320.6 197.601 1318.44 189.037 1316.22 180.359L1316.33 180.586C1316.17 180.526 1316.28 180.473 1316.06 180.578C1315.95 180.631 1315.79 180.85 1315.63 181.069C1315.31 181.507 1315.05 182.059 1314.84 182.444C1314.42 183.495 1314.01 184.545 1313.59 185.596C1312.92 187.757 1312.32 190.033 1311.71 192.308C1310.6 196.806 1309.66 201.364 1308.72 205.923C1306.94 214.987 1305.39 224.226 1304.11 233.472C1303.44 238.039 1302.83 242.719 1302.33 247.347C1301.82 251.974 1301.32 256.601 1301.26 261.297C1300.98 266.099 1300.04 270.658 1298.93 275.155C1297.82 279.653 1296.44 284.143 1294.89 288.572C1288.58 306.061 1279.23 322.342 1266.25 335.441C1259.81 341.964 1252.48 347.51 1244.4 351.86C1236.33 356.21 1227.56 359.197 1218.39 360.83C1209.32 362.411 1199.84 362.637 1190.61 361.752C1181.38 360.866 1172.14 359.701 1162.9 358.256C1153.76 356.759 1144.45 354.921 1135.5 351.918C1130.98 350.444 1126.55 348.636 1122.33 346.164C1120.22 344.928 1118.27 343.472 1116.42 341.685C1115.58 340.821 1114.79 339.791 1114 338.761C1113.32 337.679 1112.74 336.543 1112.18 335.688C1111.55 334.719 1111.16 334.484 1110.17 334.399C1109.35 334.375 1108.7 334.691 1108.17 335.515C1107.22 337.109 1106.94 339.506 1107.1 341.692C1107.25 343.877 1107.74 346.185 1108.45 348.387C1109.26 350.536 1110.3 352.579 1111.81 354.245C1113.27 355.798 1115.27 357.087 1117.28 358.376C1119.22 359.552 1121.27 360.674 1123.44 361.744C1127.65 363.937 1131.86 365.85 1136.18 367.71C1153.45 375.15 1171.23 380.927 1189.27 385.873C1207.25 390.706 1225.65 394.488 1243.96 396.757C1262.37 398.974 1280.87 399.738 1299.09 397.81C1308.17 396.79 1317.18 395.096 1325.84 392.441C1334.5 389.786 1342.97 386.231 1351.06 382.16C1367.22 374.02 1382.41 363.95 1396.58 352.676C1424.93 330.127 1449.78 303.058 1470.9 273.418C1481.38 258.568 1490.91 242.907 1499.27 226.541C1507.52 210.228 1514.61 193.209 1519.81 175.409L1519.92 175.076L1520.24 174.918C1530.64 168.734 1540.91 162.044 1550.56 154.664C1555.31 150.943 1560.1 147.057 1563.9 142.526C1564.8 141.378 1565.65 140.116 1566.23 138.847C1566.33 138.514 1566.43 138.182 1566.53 137.849L1566.78 136.738C1566.93 135.959 1567.14 135.294 1567.28 134.515C1567.93 131.514 1568.25 128.391 1568.56 125.269C1569.19 119.023 1569.55 112.77 1569.53 106.561C1569.46 103.483 1569.44 100.239 1568.99 97.2053C1568.87 96.4186 1568.8 95.7454 1568.56 95.0115C1568.5 94.6181 1568.38 94.3911 1568.27 94.164C1568.15 93.9369 1567.99 93.8762 1568.32 93.9978C1568.59 94.0058 1568.54 93.8922 1568.38 94.1113C1568.22 94.3303 1567.95 94.6021 1567.68 94.8739C1567.25 95.3647 1566.88 95.9691 1566.51 96.5734L1565.93 97.5631C1565.72 97.9484 1565.51 98.3338 1564.97 98.8774C1564.7 99.1492 1564.27 99.3602 1563.89 99.405C1563.5 99.4497 1563.17 99.3281 1562.9 99.3201C1562.29 99.1905 1561.9 98.9554 1561.57 98.8339C1560.07 98.007 1558.68 97.1274 1557.4 96.1951C1554.73 94.3832 1552.11 92.6848 1549.39 91.0392C1546.67 89.3935 1543.95 88.0278 1541.08 86.881C1538.2 85.7342 1535.27 84.7537 1532.24 84.1058C1526.23 82.6437 1520.13 82.0738 1513.88 81.723C1507.73 81.3194 1501.47 81.2484 1495.33 81.1246C1492.2 81.089 1489.19 81.0008 1486 80.8517C1484.46 80.7508 1482.93 80.6499 1481.22 80.4882C1479.63 80.2738 1478.03 80.0594 1476.38 79.4516C1475.55 79.1477 1474.77 78.6775 1474.05 78.3209C1473.33 77.9642 1472.71 77.5548 1472.05 77.3117C1471.39 77.0686 1470.67 76.712 1470 76.4688C1469.34 76.2257 1468.57 76.0354 1467.85 75.9585C1464.88 75.4242 1461.81 75.2224 1458.79 75.1341C1455.77 75.0458 1452.65 75.2901 1449.75 75.7088C1448.28 76.0012 1446.81 76.2936 1445.5 76.6469C1444.79 76.8499 1444.14 77.1664 1443.6 77.4301C1443.05 77.6939 1442.63 78.1848 1442.36 78.4566C1442.25 78.7891 1442.2 78.9554 1442.49 79.5231L1443.74 81.4612C1444.59 82.8844 1445.5 84.1412 1446.14 85.9497C1446.43 86.7972 1446.67 87.811 1446.59 88.983C1446.45 90.0415 1445.87 91.0312 1445.28 91.7411C1444.05 93.0473 1442.53 93.7859 1441.12 94.4717C1435.37 97.2676 1429.13 98.0361 1423.58 100.167C1420.87 101.206 1418.38 102.699 1416.5 104.881C1416.08 105.372 1415.71 105.977 1415.23 106.634L1413.9 108.552C1413.05 109.814 1412.2 111.075 1411.24 112.39C1409.37 114.852 1407.51 117.314 1405.31 119.655C1404.24 120.742 1403.06 121.882 1401.82 122.908C1400.52 123.821 1399.18 124.9 1397.21 125.29C1396.23 125.485 1394.85 125.165 1394.01 124.302L1393.5 123.84C1393.45 123.726 1393.22 123.552 1393.06 123.491C1392.78 123.203 1392.45 123.081 1392.22 122.907C1391 122.088 1389.67 121.602 1388.29 121.282C1386.92 120.962 1385.55 120.922 1384.57 121.397C1384.13 121.608 1383.87 121.88 1383.71 122.379C1383.56 122.877 1383.57 123.437 1383.75 124.058C1384.37 127.431 1384.5 130.623 1384.62 133.814C1384.74 137.006 1384.59 140.19 1384.45 143.373C1384.15 149.74 1383.41 156.038 1382.23 162.268C1381.05 168.497 1379.53 174.605 1377.36 180.47C1376.27 183.402 1375.08 186.387 1373.76 189.145C1372.35 191.956 1370.87 194.654 1369.39 197.351C1363.32 208.079 1357.64 219.043 1352.73 230.197C1347.77 241.517 1343.47 253.08 1339.89 265C1338.05 270.986 1336.31 276.92 1334.74 282.914L1333.53 287.465L1332.92 289.74L1332.14 291.954C1331.22 294.948 1329.97 297.819 1328.82 300.638C1323.75 312.011 1316.52 322.314 1307.83 331.064C1303.54 335.413 1298.86 339.526 1293.95 343.186C1289.09 346.959 1283.85 350.217 1278.76 353.536L1273.47 356.96L1277.97 352.506C1281.84 348.648 1285.42 344.503 1288.78 340.183C1292.14 335.863 1295.34 331.482 1298.42 326.874C1304.47 317.711 1309.74 308.078 1314.18 297.861C1318.51 287.697 1322.06 277.062 1324.23 266.108L1324.68 264.052L1325.02 262.048L1325.75 257.875C1326.07 255.032 1326.56 252.25 1326.67 249.513C1327.58 243.555 1327.56 237.906 1327.55 232.257L1327.82 232.265C1328 237.975 1328.02 243.624 1327.48 249.257C1327.27 252.047 1326.95 254.89 1326.57 257.619L1325.95 261.74L1325.66 263.857L1325.21 265.913C1323.1 276.981 1319.71 287.676 1315.44 297.954C1311.17 308.231 1305.84 318.031 1299.85 327.307C1296.77 331.915 1293.63 336.409 1290.27 340.73C1286.91 345.05 1283.39 349.309 1279.42 353.219L1278.63 352.19C1283.82 348.818 1288.79 345.552 1293.7 341.892C1298.44 338.172 1303.07 334.225 1307.36 329.876C1315.84 321.231 1322.91 311.147 1327.87 299.827C1329.02 297.008 1330.16 294.19 1331.08 291.196L1331.75 289.035L1332.36 286.759C1332.82 285.263 1333.11 283.705 1333.58 282.209C1335.09 276.101 1336.82 270.167 1338.56 264.234C1342.13 252.314 1346.32 240.524 1351.28 229.204C1356.19 217.77 1361.87 206.806 1367.88 195.964C1369.36 193.267 1370.84 190.57 1372.15 187.812C1373.46 185.054 1374.6 182.235 1375.58 179.355C1377.65 173.543 1379.11 167.602 1380.34 161.486C1381.47 155.423 1382.1 149.177 1382.46 142.924C1382.61 139.74 1382.71 136.723 1382.59 133.531C1382.52 130.453 1382.39 127.262 1381.73 124.334C1381.54 123.434 1381.41 122.367 1381.72 121.369C1382.02 120.372 1382.77 119.443 1383.75 118.968C1384.72 118.493 1385.6 118.351 1386.53 118.322C1387.46 118.294 1388.34 118.431 1389.11 118.622C1390.82 119.063 1392.37 119.724 1393.82 120.717C1394.21 120.952 1394.49 121.24 1394.88 121.475C1395.1 121.649 1395.27 121.71 1395.38 121.937L1395.83 122.286C1396.11 122.573 1396.44 122.695 1397.04 122.545C1398.19 122.411 1399.38 121.55 1400.46 120.743C1401.64 119.883 1402.61 118.849 1403.68 117.761C1405.72 115.64 1407.58 113.178 1409.34 110.768C1410.19 109.507 1411.1 108.359 1411.89 106.984L1413.11 105.118C1413.59 104.461 1414.01 103.69 1414.55 103.146C1416.63 100.579 1419.61 98.988 1422.55 97.8435C1428.42 95.5544 1434.65 94.786 1439.97 92.201C1441.27 91.568 1442.52 90.8214 1443.43 89.9532C1444.18 89.0243 1444.33 88.2457 1443.8 86.9441C1443.28 85.6424 1442.49 84.3328 1441.52 82.9624C1441.07 82.3339 1440.73 81.6527 1440.22 80.9107C1439.99 80.4566 1439.7 79.8889 1439.63 79.2158C1439.56 78.5426 1439.77 77.8775 1439.92 77.3786C1440.45 76.2754 1441.26 75.7398 1442.02 75.3705C1442.78 75.0013 1443.53 74.632 1444.35 74.3762C1445.88 73.9175 1447.46 73.5723 1449.1 73.3406C1452.21 72.8165 1455.39 72.6857 1458.52 72.7212C1461.64 72.7568 1464.83 72.9058 1468.02 73.6145C1468.79 73.8048 1469.68 73.9424 1470.5 74.2463C1471.33 74.5502 1472 74.7934 1472.83 75.0973C1473.55 75.4539 1474.38 75.7578 1475.04 76.2807C1475.77 76.6373 1476.38 77.0468 1477.04 77.2899C1478.37 77.7761 1479.85 78.0433 1481.28 78.1969C1482.71 78.3506 1484.25 78.4515 1485.79 78.5524C1488.86 78.7542 1491.99 78.7897 1495.01 78.878C1501.15 79.0018 1507.4 79.0728 1513.66 79.4236C1519.92 79.7745 1526.18 80.4052 1532.36 81.928C1535.45 82.6895 1538.48 83.6172 1541.52 84.8248C1544.46 86.0851 1547.4 87.6252 1550.23 89.218C1553.01 90.9772 1555.62 92.6756 1558.3 94.4875C1559.69 95.3671 1560.97 96.2994 1562.24 96.952C1562.57 97.0735 1562.91 97.1951 1563.07 97.2559C1563.24 97.3166 1563.24 97.3166 1563.24 97.3166L1563.13 97.3694C1563.13 97.3694 1563.4 97.0976 1563.5 96.765L1564.08 95.7753C1564.5 95.0047 1564.98 94.3475 1565.46 93.6904C1565.73 93.4186 1566 93.1468 1566.32 92.7087C1566.48 92.4897 1566.69 92.3842 1567.02 92.2259C1567.34 92.0677 1567.84 91.9702 1568.28 92.039C1568.77 92.2213 1569.16 92.4564 1569.44 92.7443C1569.72 93.0321 1569.84 93.2591 1569.95 93.4862C1570.18 93.9403 1570.3 94.4472 1570.47 94.7878C1570.77 95.6353 1570.89 96.422 1570.97 97.375C1571.43 100.688 1571.55 103.88 1571.51 107.01C1571.48 113.386 1571.18 119.753 1570.44 126.051C1570.13 129.174 1569.7 132.349 1569.11 135.464C1568.97 136.242 1568.82 137.021 1568.56 137.853L1568.21 139.017C1568.1 139.349 1567.95 139.848 1567.74 140.233C1567.06 141.835 1566.1 143.15 1565.09 144.35C1563.11 146.865 1560.8 148.979 1558.54 150.926C1556.17 152.926 1553.8 154.926 1551.32 156.699C1541.5 164.018 1531.23 170.709 1520.67 176.832L1521.1 176.341C1515.78 194.194 1508.59 211.266 1500.23 227.632C1491.87 243.998 1482.17 259.598 1471.48 274.554C1450.25 304.246 1425.23 331.254 1396.71 353.742C1382.37 364.956 1367.19 375.026 1350.91 383.219C1342.83 387.289 1334.36 390.844 1325.59 393.552C1316.82 396.26 1307.81 397.954 1298.62 399.027C1289.54 400.048 1280.22 400.335 1270.95 400.175C1261.68 400.016 1252.4 399.297 1243.22 398.246C1224.75 396.195 1206.41 392.527 1188.32 387.747C1170.23 382.968 1152.29 377.129 1134.86 369.908C1130.54 368.048 1126.16 366.075 1121.95 363.882C1119.79 362.812 1117.73 361.689 1115.73 360.4C1113.73 359.111 1111.62 357.875 1109.82 355.921C1108.02 353.967 1106.88 351.696 1106.01 349.434C1105.08 347.057 1104.64 344.584 1104.47 342.118C1104.39 340.885 1104.42 339.6 1104.61 338.375C1104.8 337.15 1105.11 335.873 1105.85 334.664C1106.22 334.06 1106.75 333.516 1107.41 333.199C1108 332.769 1108.87 332.627 1109.59 332.704C1110.3 332.781 1111.07 332.971 1111.79 333.328C1112.46 333.851 1113.03 334.426 1113.31 334.994C1113.99 336.077 1114.51 337.099 1115.13 338.068C1115.76 339.037 1116.43 339.839 1117.27 340.703C1118.9 342.316 1120.69 343.711 1122.74 344.834C1126.74 347.132 1131 348.878 1135.53 350.353C1144.42 353.242 1153.56 355.019 1162.58 356.569C1171.72 358.067 1180.96 359.232 1190.19 360.117C1199.31 361.055 1208.52 360.821 1217.48 359.294C1226.44 357.766 1234.98 354.884 1242.95 350.587C1250.81 346.342 1258.09 340.963 1264.42 334.492C1270.81 328.136 1276.35 320.915 1281.06 313.111C1285.77 305.307 1289.7 297.033 1292.91 288.402C1294.52 284.087 1295.85 279.763 1297.07 275.213C1298.18 270.715 1299.12 266.156 1299.51 261.582C1299.68 256.833 1300.18 252.206 1300.69 247.578C1301.19 242.951 1301.8 238.271 1302.58 233.651C1303.96 224.352 1305.57 215.227 1307.46 206.11C1308.4 201.551 1309.34 196.993 1310.56 192.442C1311.17 190.167 1311.78 187.892 1312.44 185.73C1312.8 184.566 1313.22 183.515 1313.74 182.412C1314 181.861 1314.26 181.309 1314.58 180.871C1314.74 180.652 1315.01 180.38 1315.34 180.222C1315.55 180.116 1315.77 180.011 1316.05 180.019C1316.32 180.027 1316.54 180.201 1316.66 180.428L1316.72 180.542L1316.77 180.655C1318.93 189.22 1320.88 197.889 1322.82 206.559C1323.79 210.894 1324.66 215.282 1325.46 219.556C1326.33 223.943 1327.02 228.27 1327.5 232.703L1327.55 232.257Z" fill="#FFFDFB"/>
  <path d="M1370.13 306.137C1379.35 297.829 1387.05 288.135 1394.08 277.917C1401.11 267.7 1407.53 257.073 1413.84 246.218C1416.97 240.874 1420.04 235.417 1423.27 230.02C1424.86 227.265 1426.51 224.623 1428.21 222.096C1429.06 220.832 1430.02 219.515 1430.99 218.198C1432 216.995 1433.02 215.791 1434.1 214.702C1438.22 210.002 1442.41 205.417 1446.71 201.058C1450.95 196.586 1455.53 192.236 1460.17 188.279C1469.6 180.146 1480.23 173.559 1491.03 167.593C1496.4 164.553 1501.83 161.627 1507.2 158.587C1512.51 155.434 1517.66 152.22 1522.58 148.551C1527.5 144.883 1532.14 140.926 1536.21 136.393C1540.46 131.921 1544.42 127.161 1548.16 122.227C1555.69 112.471 1562.84 102.201 1568.87 91.3388L1569.09 91.5132C1566.41 97.2058 1563.4 102.777 1560.1 108.06C1556.81 113.343 1553.35 118.566 1549.67 123.614C1545.99 128.662 1542.08 133.535 1537.95 138.235C1533.82 142.934 1529.08 147.224 1524.16 150.893C1519.14 154.614 1513.88 157.881 1508.4 160.974C1503.03 164.014 1497.43 166.879 1491.95 169.692C1481.03 175.43 1469.95 181.108 1460.63 189.188C1455.82 193.084 1451.52 197.442 1447.34 202.028C1443.15 206.614 1439.24 211.488 1435.45 216.308C1434.43 217.512 1433.41 218.715 1432.56 219.979C1431.65 221.129 1430.8 222.393 1429.95 223.657C1428.3 226.299 1426.65 228.94 1425.17 231.642L1415.74 247.841C1412.61 253.184 1409.38 258.581 1405.98 263.917C1402.68 269.2 1399.17 274.309 1395.49 279.357C1391.8 284.405 1387.9 289.279 1383.77 293.978C1379.58 298.564 1375.17 302.975 1370.37 306.871L1370.13 306.137Z" fill="#FFFDFB"/>
  <path d="M1313.7 339.891C1318.93 336.765 1324.21 333.752 1329.27 330.564C1334.5 327.437 1339.56 324.25 1344.73 321.008C1354.91 314.465 1364.96 307.693 1374.96 300.806C1384.91 293.805 1394.74 286.857 1404.29 279.338C1413.84 271.818 1423.05 263.894 1431.13 254.811C1435.12 250.297 1438.71 245.263 1442.36 240.344C1445.95 235.311 1449.43 230.331 1453.08 225.412C1456.73 220.493 1460.38 215.574 1464.25 210.83C1466.18 208.459 1468.12 206.087 1470.11 203.829C1471.19 202.731 1472.11 201.572 1473.19 200.474C1474.27 199.376 1475.46 198.224 1476.6 197.24C1486.19 189.271 1497.21 183.879 1507.9 178.365C1513.3 175.581 1518.81 173.026 1524.16 170.128C1529.5 167.23 1534.84 164.332 1539.61 160.573L1539.84 160.748C1537.62 162.83 1535.12 164.622 1532.62 166.414C1530.07 168.092 1527.51 169.77 1524.9 171.333C1519.61 174.346 1514.33 177.358 1508.99 180.256C1503.64 183.154 1498.3 186.052 1493.18 189.126C1488.07 192.199 1482.95 195.555 1478.46 199.322C1477.32 200.306 1476.18 201.29 1475.21 202.335C1474.13 203.433 1473.22 204.592 1472.14 205.69C1470.14 207.948 1468.15 210.205 1466.21 212.577C1462.28 217.206 1458.58 222.011 1454.76 226.869C1451.06 231.673 1447.24 236.531 1443.48 241.221C1441.54 243.593 1439.6 245.965 1437.67 248.337L1434.82 251.868L1431.8 255.338C1423.49 264.245 1414.4 272.398 1405.13 280.207C1395.87 288.017 1386.21 295.59 1376.27 302.591C1366.32 309.592 1356.04 316.188 1345.75 322.503C1340.53 325.63 1335.24 328.642 1329.96 331.655C1324.67 334.667 1319.27 337.451 1313.87 340.235L1313.7 339.891Z" fill="#FFFDFB"/>
  <path d="M1478.27 79.1589C1477.17 81.23 1476.24 83.3613 1475.58 85.5005C1474.92 87.6398 1474.54 90.0638 1474.2 92.3233C1473.71 96.9023 1473.97 101.67 1474.62 106.393C1475.27 111.116 1476.29 115.795 1477.21 120.526C1478.13 125.257 1479.16 129.935 1479.59 134.763C1480.02 139.59 1479.97 144.514 1478.71 149.182C1478.1 151.434 1477.28 153.79 1476.35 155.921C1475.42 158.052 1474.32 160.123 1473.06 162.134C1470.64 166.104 1468 169.902 1465.14 173.527C1462.29 177.152 1459.65 180.949 1456.46 184.454C1453.38 187.906 1450.08 191.186 1446.77 194.466C1443.47 197.746 1440.28 200.974 1437.31 204.374C1434.33 207.774 1431.53 211.512 1429 215.257C1426.36 219.054 1423.89 222.912 1421.64 226.942C1412.24 242.829 1404.29 259.699 1396.44 276.517L1396.21 276.344C1402.74 258.769 1410.15 241.606 1419.43 225.494C1424.1 217.494 1429.42 209.735 1435.69 202.778C1441.8 195.76 1449.13 190.107 1455.57 183.487C1458.71 180.147 1461.62 176.634 1464.54 173.122C1467.4 169.497 1470.2 165.759 1472.51 161.842C1474.76 157.812 1476.63 153.549 1477.5 148.926C1478.44 144.415 1478.34 139.708 1477.69 134.984C1476.56 125.598 1473.96 116.225 1472.88 106.674C1472.34 101.899 1472.29 97.0273 1473.06 92.1793C1473.77 87.4957 1475.47 82.8961 1478.11 79.0987L1478.27 79.1589Z" fill="#FFFDFB"/>
  <path d="M1426.33 98.945C1426.96 105.474 1426.56 112.084 1425.35 118.394C1425.05 119.93 1424.55 121.571 1424.25 123.107C1423.8 124.584 1423.29 126.224 1422.84 127.701C1422.27 129.229 1421.71 130.758 1421.09 132.175C1420.53 133.703 1419.8 135.172 1419.18 136.588C1416.48 142.359 1413.18 147.725 1410.16 153.375C1407.14 159.026 1404.38 164.684 1401.96 170.462C1399.54 176.241 1397.23 182.243 1395.19 188.253C1393.15 194.263 1391.44 200.393 1390.06 206.643C1387.07 218.971 1385.23 231.719 1383.89 244.646L1383.61 244.638C1383.44 231.611 1384.62 218.624 1387.44 205.96C1390.31 193.408 1394.87 181.292 1400.65 169.983C1403.51 164.272 1406.59 158.734 1409.34 153.076C1410.74 150.303 1412.09 147.417 1413.44 144.532C1414.79 141.647 1415.97 138.702 1417.21 135.869C1419.63 130.091 1422 124.2 1423.44 118.062C1424.99 111.872 1425.83 105.607 1426.01 99.1012L1426.33 98.945Z" fill="#FFFDFB"/>
  <path d="M1418.49 159.174C1417.22 161.478 1415.96 163.782 1414.59 166.138C1413.22 168.495 1411.89 170.686 1410.47 172.929C1407.61 177.416 1404.69 181.79 1401.67 186.217C1395.73 195.017 1389.73 203.705 1386.94 213.934C1385.46 219.018 1384.81 224.404 1384 229.73C1383.18 235.056 1382.53 240.443 1381.88 245.829C1380.41 256.542 1378.84 267.307 1375.39 277.572C1373.64 282.648 1371.45 287.656 1368.65 292.256C1365.85 296.857 1362.6 301.11 1359.13 305.189C1357.42 307.146 1355.61 309.155 1353.73 311.052L1351 313.926L1348.11 316.741C1346.23 318.637 1344.24 320.307 1342.2 322.143C1340.11 323.866 1338.12 325.536 1335.96 327.146C1327.51 333.645 1318.27 338.839 1308.51 343.016C1298.75 347.193 1288.53 350.186 1278.29 352.622L1278.18 352.396C1288.29 349.176 1298.28 345.731 1307.76 341.267C1312.47 339.118 1317.18 336.691 1321.55 333.863C1322.69 333.171 1323.82 332.48 1324.85 331.841C1325.98 331.149 1327.12 330.457 1328.09 329.705C1330.19 328.261 1332.34 326.651 1334.39 325.094C1336.43 323.537 1338.42 321.867 1340.52 320.144C1342.45 318.361 1344.44 316.691 1346.37 314.907L1349.22 312.259L1352 309.497C1353.88 307.601 1355.64 305.757 1357.35 303.8C1360.77 299.887 1364.07 295.747 1366.99 291.373C1369.9 286.999 1372.21 282.217 1374.18 277.315C1378.07 267.396 1379.92 256.639 1381.12 245.919C1381.77 240.532 1382.14 235.138 1382.63 229.691C1382.9 227.024 1383.11 224.244 1383.49 221.524C1383.63 220.191 1383.87 218.805 1384.12 217.418C1384.36 216.032 1384.66 214.759 1384.9 213.373C1386.27 208.063 1388.46 203.055 1391.26 198.455C1393.9 193.794 1396.98 189.481 1400.06 185.168C1406.28 176.654 1412.44 168.027 1418.27 159.279L1418.49 159.174Z" fill="#FFFDFB"/>
</svg>
