<svg width="261" height="168" viewBox="0 0 261 168" fill="none"
  xmlns="http://www.w3.org/2000/svg">
  <path d="M121.804 232.546L121.927 232.367C121.954 232.312 121.981 232.257 122.009 232.202C122.104 232.078 122.104 231.941 122.104 231.804C122.103 231.666 122.103 231.529 122.103 231.391C122.005 230.828 121.716 230.374 121.4 229.976C121.235 229.756 121.084 229.578 120.919 229.358C120.754 229.138 120.562 228.973 120.369 228.808L119.82 228.259C119.627 228.094 119.435 227.929 119.229 227.723C118.831 227.352 118.378 227.091 117.952 226.775C117.499 226.514 117.046 226.254 116.593 225.993C115.66 225.526 114.7 225.114 113.767 224.647C112.834 224.18 111.983 223.548 111.172 222.903C110.788 222.573 110.39 222.202 110.046 221.859C109.689 221.474 109.304 221.144 108.974 220.705C107.586 219.152 106.376 217.449 105.166 215.745C103.279 212.022 102.541 207.775 102.942 203.652C103.156 201.563 103.63 199.57 104.393 197.619C105.114 195.68 105.973 193.742 106.749 191.832C108.383 187.983 109.908 184.079 110.885 180.039C111.847 175.956 112.206 171.71 111.456 167.56C111.08 165.485 110.404 163.465 109.494 161.569C108.585 159.672 107.402 157.914 106.041 156.306C103.429 153.009 100.352 150.097 97.07 147.529C93.7743 144.919 90.274 142.653 86.8693 140.263C86.0319 139.672 85.1806 139.04 84.3843 138.436C83.5741 137.79 82.7639 137.145 81.9948 136.486C80.4838 135.112 78.9591 133.697 77.6804 132.062L76.7318 130.867C76.4156 130.469 76.1677 130.001 75.8515 129.603L75.0123 128.325L74.2825 126.965L73.5527 125.605L72.8912 124.176L72.2709 122.733L71.6505 121.29C70.0921 117.457 68.8896 113.458 68.0707 109.377C67.6681 107.357 67.3887 105.295 67.1094 103.234C66.9833 102.176 66.8711 101.159 66.704 100.114C66.6204 99.5922 66.5368 99.07 66.3163 98.5479C66.2334 98.3005 66.0408 97.9982 65.8347 97.7922L65.2851 97.2427C64.5705 96.4734 63.856 95.7041 63.073 95.0035C62.6747 94.6326 62.2901 94.303 61.8645 93.9871C61.4389 93.6712 60.9722 93.369 60.4509 93.1768C59.9297 92.9847 59.3539 92.9024 58.7788 93.0951C58.327 93.2465 57.8748 93.2604 57.463 92.9857C57.0649 92.7522 56.5844 92.4089 55.9948 92.2854C55.4463 92.1482 54.8709 92.2035 54.3642 92.3274C54.1039 92.3687 53.8575 92.4513 53.611 92.5338L52.8578 92.7403C52.3511 92.8642 51.8716 92.9331 51.3645 92.9196C50.8575 92.906 50.3911 92.7413 49.8837 92.5904C49.3762 92.4394 48.8415 92.3434 48.2934 92.3437C47.7452 92.3439 47.2385 92.4678 46.718 92.5505L45.9648 92.757C45.7183 92.8395 45.4718 92.9221 45.2116 92.9634C44.1981 93.2112 43.1981 93.3628 42.1843 93.4732C41.1705 93.5836 40.1291 93.6115 39.0876 93.6394C38.0462 93.6673 37.0048 93.6953 35.9499 93.8194C35.6896 93.8607 35.4294 93.9021 35.1418 93.9984C35.0186 94.0397 34.8543 94.0947 34.7587 94.2185C34.6493 94.301 34.5536 94.4247 34.4991 94.5347C34.3628 94.8096 34.3224 95.0982 34.3093 95.3318C34.2962 95.5655 34.242 95.8129 34.1329 96.0328C33.9148 96.4727 33.6556 96.9263 33.3277 97.3112C33.0136 97.7374 32.6719 98.0811 32.2753 98.3974C31.4682 98.9887 30.4824 99.3189 29.4969 99.7866C29.0316 100.034 28.5939 100.364 28.2111 100.722C28.0472 100.914 27.8421 101.12 27.7469 101.382C27.5967 101.615 27.4877 101.835 27.3924 102.096C26.9976 103.1 26.8906 104.144 26.7837 105.189C26.7178 106.219 26.7068 107.278 26.7369 108.322L26.8505 109.889C26.8792 110.384 26.8806 110.933 26.7584 111.387C26.745 111.483 26.6493 111.607 26.6359 111.703C26.5675 111.772 26.5268 111.923 26.4036 111.964C26.2669 112.102 26.007 112.28 25.802 112.487C25.433 112.885 25.1465 113.394 25.1068 113.957C25.0123 114.493 25.0548 115.029 24.9875 115.51C24.8926 115.909 24.4687 116.28 24.0445 116.514C23.1825 117.078 22.2105 117.449 21.2796 117.807C20.1018 118.11 18.883 118.427 17.719 118.771C16.555 119.115 15.35 119.473 14.1726 119.913C13.6113 120.147 12.9952 120.353 12.4615 120.669C11.9279 120.986 11.4357 121.426 11.0671 121.962C10.6984 122.498 10.4396 123.089 10.3315 123.721C10.2097 124.312 10.1839 124.917 10.3089 125.563C9.31132 126.676 8.36868 127.817 7.37114 128.931C6.87927 129.509 6.38741 130.086 5.90935 130.705C5.71813 130.952 5.5269 131.199 5.33568 131.447C5.32187 131.406 5.34914 131.351 5.33533 131.309C5.32152 131.268 5.34879 131.213 5.30736 131.09L5.29355 131.048C5.29355 131.048 5.29355 131.048 5.22485 130.98C5.22485 130.98 5.10127 130.884 4.97804 130.925C4.89589 130.952 4.86863 131.007 4.86863 131.007C4.84136 131.062 4.85517 131.104 4.81409 131.117C4.8279 131.159 4.78682 131.172 4.80063 131.214C4.78717 131.31 4.77372 131.406 4.77407 131.543C4.76062 131.64 4.74715 131.736 4.78858 131.859C4.77512 131.956 4.80274 132.038 4.85798 132.203C4.87179 132.244 4.87179 132.244 4.94048 132.313C4.92738 132.547 4.96916 132.808 4.95605 133.041C4.98543 133.811 4.91885 134.567 5.04419 135.35C5.11465 136.106 5.23998 136.889 5.54344 137.659C5.61248 137.865 5.66772 138.03 5.77785 138.222L5.90179 138.456C5.91559 138.497 5.92941 138.538 5.92941 138.538C5.92941 138.538 5.88832 138.552 5.84725 138.566C5.76509 138.593 5.68295 138.621 5.6008 138.648L5.06679 138.827C4.32741 139.075 3.61566 139.405 2.9177 139.776C2.21975 140.148 1.59049 140.588 1.03028 141.234C0.770722 141.55 0.524969 141.907 0.388988 142.32C0.253007 142.732 0.212982 143.158 0.268924 143.598C0.366993 144.436 0.834768 145.151 1.35706 145.755C1.63184 146.03 1.92043 146.346 2.1814 146.579L3.03303 147.349C3.60986 147.843 4.15942 148.393 4.69517 148.901C5.23093 149.409 5.78049 149.959 6.2479 150.536C6.48161 150.824 6.71531 151.113 6.94902 151.401C7.04533 151.552 7.18273 151.69 7.27904 151.841C7.34775 151.909 7.38916 152.033 7.45786 152.102C6.77442 152.789 6.10479 153.518 5.49005 154.274C4.80697 155.099 4.16496 155.91 3.66034 156.858C3.5102 157.092 3.41493 157.353 3.31967 157.614C3.22441 157.876 3.14297 158.178 3.22618 158.563C3.25379 158.645 3.28142 158.728 3.32284 158.851L3.40535 158.961C3.41916 159.002 3.47405 159.03 3.47405 159.03C3.55655 159.14 3.68013 159.236 3.76264 159.346C3.96873 159.552 4.20208 159.703 4.39435 159.868C5.28669 160.486 6.17868 160.966 6.98887 161.612C7.4145 161.928 7.75798 162.271 8.10146 162.615C8.40386 162.972 8.72007 163.37 8.95413 163.796C9.06425 163.989 9.14711 164.236 9.22996 164.483C9.31282 164.731 9.39568 164.978 9.47854 165.225C9.64425 165.72 9.85103 166.201 10.0716 166.723C10.2784 167.204 10.5263 167.671 10.788 168.18C11.0769 168.633 11.3659 169.086 11.7918 169.54C11.9979 169.746 12.2451 169.938 12.6428 170.034C12.7387 170.048 12.8347 170.062 12.9306 170.075C13.0128 170.048 13.1498 170.048 13.232 170.02C13.3141 169.993 13.3963 169.965 13.4923 169.979C13.6293 169.979 13.7391 170.034 13.8765 170.171C14.0139 170.308 14.0829 170.515 14.2068 170.748C14.2897 170.995 14.3587 171.202 14.4416 171.449C14.4692 171.531 14.4561 171.765 14.3881 171.971C14.2659 172.425 14.0754 172.947 13.9122 173.414C13.5584 174.404 13.2733 175.462 13.2351 176.576C13.1954 177.139 13.2517 177.716 13.4312 178.252C13.6107 178.788 13.9273 179.324 14.2984 179.75C14.9992 180.478 15.5494 181.302 16.0862 182.223C16.6503 183.088 17.242 184.036 18.0387 184.778L18.3546 185.039C18.4782 185.135 18.588 185.19 18.7115 185.286C18.8351 185.382 18.9449 185.437 19.0685 185.533L19.4527 185.726C19.7271 185.863 19.9739 185.918 20.2756 186C20.5362 186.096 20.8514 186.082 21.1393 186.124C21.4272 186.165 21.6874 186.123 22.0026 186.109C22.2767 186.109 22.578 186.054 22.8245 185.972L23.6326 185.793L24.413 185.531C25.4399 185.187 26.3429 184.61 27.2597 184.073C29.0246 182.932 30.707 181.68 32.4308 180.553C34.1546 179.425 35.9747 178.449 37.8777 177.719C41.6699 176.22 45.8345 175.696 49.9467 176.106C54.0452 176.476 58.0359 177.615 61.9042 179.07C63.8383 179.797 65.7862 180.566 67.6658 181.404C69.5592 182.282 71.3843 183.23 73.0592 184.411C73.114 184.439 73.1689 184.466 73.2376 184.535C73.3063 184.603 73.375 184.672 73.4026 184.755L73.471 184.686C74.9812 185.785 76.3413 187.117 77.4826 188.615C78.6791 190.277 79.6157 192.118 80.5523 193.959C81.4478 195.814 82.3571 197.71 83.2664 199.606C84.2168 201.489 85.1944 203.316 86.2132 205.13C87.2319 206.944 88.3328 208.73 89.4748 210.502L92.8047 215.805C95.0337 219.323 97.2355 222.895 99.6151 226.316C100.784 228.033 101.995 229.737 103.465 231.262C104.207 231.976 105.044 232.704 106.019 233.157C106.499 233.363 107.02 233.555 107.541 233.61C107.678 233.61 107.788 233.665 107.925 233.665L108.336 233.665C108.61 233.665 108.857 233.719 109.117 233.678C111.173 233.677 113.27 233.8 115.353 233.744C116.394 233.716 117.435 233.688 118.49 233.564C119.011 233.482 119.531 233.399 120.038 233.275C120.545 233.151 121.079 232.972 121.516 232.642C121.599 232.752 121.749 232.656 121.804 232.546ZM4.90038 159.469C4.7081 159.304 4.48856 159.194 4.33736 159.016C4.22758 158.961 4.18616 158.837 4.11747 158.768C4.10366 158.727 4.06258 158.741 4.04877 158.7L4.03496 158.659C4.02115 158.617 4.00734 158.576 4.00734 158.576C3.96591 158.452 4.0201 158.205 4.08809 157.999C4.15609 157.793 4.26514 157.573 4.37421 157.353C4.85156 156.459 5.49357 155.648 6.0945 154.851C6.73651 154.04 7.44722 153.297 8.15793 152.555L8.29461 152.417L8.23938 152.253C8.15652 152.005 8.01913 151.868 7.909 151.675C7.81269 151.524 7.66148 151.346 7.56517 151.195C7.31765 150.865 7.08394 150.576 6.80916 150.302C6.30068 149.738 5.75112 149.189 5.20155 148.639C4.65199 148.09 4.07515 147.595 3.49832 147.101L2.85279 146.538C3.64882 147.005 4.51319 147.403 5.39101 147.705C6.94093 148.24 8.55849 148.432 10.1892 148.39C13.4232 148.361 16.5865 147.439 19.6406 146.737C20.4076 146.572 21.1746 146.406 21.9282 146.337C22.3255 146.296 22.6955 146.309 23.0656 146.323L24.2306 146.391L28.9869 146.815C30.4809 146.911 31.9749 147.006 33.4412 147.02C32.1126 147.281 30.784 147.543 29.483 147.887C26.4975 148.658 23.5535 149.552 20.7195 150.639C19.994 150.928 19.3095 151.203 18.5839 151.492C17.9132 151.809 17.1328 152.07 16.4352 152.579C16.1069 152.826 15.779 153.211 15.5743 153.555C15.3696 153.899 15.1788 154.284 15.0152 154.613C14.688 155.273 14.3059 155.906 13.8689 156.51C12.9949 157.72 11.9287 158.765 10.6426 159.563C9.9995 159.962 9.34263 160.319 8.67195 160.636C8.23391 160.828 7.741 160.993 7.28915 161.145C6.56113 160.472 5.66914 159.991 4.90038 159.469ZM15.3046 171.297C15.2217 171.05 15.1388 170.803 15.0422 170.514C14.9182 170.281 14.8216 169.992 14.6017 169.745C14.5054 169.594 14.3407 169.511 14.2171 169.415C14.1622 169.388 14.1074 169.36 14.0525 169.333C18.0082 167.503 22.0327 165.742 26.0985 164.105C28.2753 163.238 30.452 162.372 32.6287 161.505C33.7239 161.092 34.8192 160.679 35.9283 160.308C37.0373 159.936 38.174 159.647 39.3107 159.358C41.5979 158.821 43.9269 158.545 46.2565 158.544C47.4488 158.558 48.6 158.585 49.7788 158.694L53.3149 158.885C54.151 158.926 55.0147 159.049 55.851 159.228C54.2891 159.338 52.7409 159.49 51.1928 159.642C49.3843 159.835 47.5625 160.124 45.7406 160.414C43.9187 160.703 42.1382 161.116 40.3443 161.625C38.5915 162.121 36.8117 162.809 35.2108 163.758C34.4172 164.253 33.6513 164.83 32.9813 165.422C32.2703 166.027 31.5865 166.577 30.8474 166.962C30.6559 167.072 30.4505 167.141 30.2589 167.251C30.0535 167.319 29.862 167.429 29.6428 167.457C29.232 167.595 28.7802 167.746 28.3556 167.842L25.7125 168.544C22.2752 169.467 18.8106 170.444 15.4009 171.448C15.3736 171.503 15.3184 171.339 15.3046 171.297ZM68.0341 180.73C66.1407 179.851 64.1928 179.083 62.2176 178.369C58.2944 176.886 54.235 175.679 49.9995 175.309C45.8051 174.926 41.4896 175.409 37.5332 176.964C35.5618 177.762 33.7006 178.752 31.9358 179.893C30.1709 181.035 28.4885 182.286 26.7647 183.414C25.9028 183.978 25.027 184.5 24.0823 184.817L23.3978 185.092L22.6857 185.285C22.4392 185.367 22.2062 185.353 21.946 185.395C21.7268 185.422 21.4665 185.464 21.2197 185.409C20.2466 185.368 19.3822 184.97 18.6953 184.283C17.9672 183.61 17.417 182.786 16.8802 181.865C16.3161 180.999 15.7244 180.051 14.9687 179.296C14.3367 178.636 14.0601 177.675 14.0987 176.699C14.1373 175.723 14.409 174.761 14.7627 173.771C14.9122 173.263 15.1165 172.782 15.2521 172.232C15.2929 172.081 15.3063 171.984 15.347 171.833C16.5659 171.517 17.84 171.365 19.1278 171.254C20.4568 171.13 21.7996 171.047 23.1424 170.964C25.8279 170.798 28.4862 170.687 31.1579 170.48C32.5007 170.397 33.8297 170.272 35.1859 170.093C35.8435 170.011 36.5421 169.914 37.1859 169.79C37.8297 169.666 38.5418 169.473 39.1717 169.308C40.4727 168.964 41.7188 168.593 43.034 168.427C44.2943 168.234 45.6374 168.288 46.9532 168.398C49.585 168.617 52.1767 169.261 54.6458 170.222C57.115 171.183 59.4889 172.406 61.7265 173.903C65.2955 176.237 68.4686 179.163 71.3134 182.337C70.2157 181.787 69.118 181.238 68.0341 180.73ZM83.9647 199.373C83.0692 197.518 82.1599 195.622 81.2916 193.712C80.837 192.764 80.3823 191.815 79.8455 190.895C79.3498 189.961 78.7719 189.054 78.1667 188.202C76.9015 186.471 75.3492 184.974 73.5783 183.779C72.988 183.38 72.4115 183.023 71.7802 182.639C68.9346 179.191 65.6786 176.017 61.9995 173.49C57.5927 170.427 52.4207 168.217 47.0198 167.642C46.3619 167.587 45.6629 167.546 44.9777 167.547C44.2925 167.547 43.6073 167.547 42.8949 167.603C41.5248 167.741 40.1827 168.098 38.9228 168.429C38.2518 168.608 37.6629 168.759 37.0191 168.883C36.3754 169.007 35.7316 169.131 35.074 169.214C33.7589 169.379 32.4437 169.545 31.1147 169.669C28.4568 169.917 25.7851 170.125 23.1409 170.414C21.5106 170.594 19.8803 170.773 18.2638 170.994C20.7699 170.292 23.3035 169.672 25.8648 169.135L28.5354 168.516C29.0011 168.405 29.4257 168.309 29.8775 168.158C30.0829 168.089 30.3294 168.006 30.5758 167.924C30.7812 167.855 31.0138 167.731 31.2054 167.621C32.0677 167.195 32.8198 166.576 33.5036 166.026C34.2147 165.421 34.9123 164.912 35.6648 164.431C37.1835 163.51 38.8811 162.849 40.6202 162.312C42.3592 161.776 44.1396 161.363 45.8928 161.005C47.6871 160.633 49.4541 160.316 51.276 160.027C52.9197 159.751 54.5773 159.517 56.2349 159.282C57.5238 159.584 58.7721 160.037 59.993 160.545C62.1332 161.479 64.1371 162.687 65.977 164.088C69.6979 166.877 72.8862 170.393 75.5409 174.226C76.2286 175.188 76.8341 176.177 77.4396 177.167L78.3206 178.706C78.5822 179.214 78.8439 179.722 79.0645 180.244C79.9607 182.374 80.5421 184.655 81.1235 186.936C82.2864 191.499 83.3397 196.143 84.9271 200.609C85.1757 201.351 85.4515 202.038 85.7412 202.766C85.1081 201.695 84.5433 200.554 83.9647 199.373ZM119.997 233.289C119.49 233.413 118.97 233.495 118.49 233.564C117.476 233.675 116.435 233.702 115.394 233.73C113.297 233.745 111.241 233.608 109.131 233.582C108.075 233.569 107.075 233.445 106.196 233.006C105.277 232.58 104.494 231.88 103.793 231.152C102.378 229.654 101.209 227.937 100.04 226.22C97.7422 222.771 95.5815 219.185 93.3798 215.613L90.0909 210.296C89.2241 208.935 88.3845 207.52 87.5588 206.146C86.7182 204.319 86.0008 202.45 85.3655 200.554C83.8741 196.102 82.9167 191.471 81.7949 186.895C81.2546 184.6 80.6594 182.278 79.7766 180.052C79.5422 179.488 79.3078 178.925 79.0051 178.43L78.1241 176.892C77.5048 175.861 76.8992 174.872 76.1978 173.869C74.8497 171.89 73.365 170.05 71.7708 168.291C70.1356 166.546 68.4047 164.926 66.4689 163.511C64.533 162.096 62.4742 160.86 60.2519 159.954C58.0295 159.048 55.6981 158.362 53.2997 158.294L49.764 158.241C48.5717 158.227 47.3932 158.255 46.2147 158.283C43.8305 158.394 41.4881 158.766 39.1871 159.262C34.599 160.295 30.0667 161.767 25.7271 163.542C21.6478 165.275 17.555 167.105 13.71 169.401C13.669 169.415 13.6141 169.388 13.573 169.402C13.3811 169.374 13.2168 169.429 13.0525 169.484C12.9703 169.512 13.0114 169.498 12.9703 169.512C12.9292 169.525 12.9154 169.484 12.8743 169.498C12.7235 169.457 12.5588 169.374 12.4077 169.196C12.078 168.894 11.8028 168.481 11.555 168.014C11.3209 167.588 11.0731 167.121 10.8663 166.64C10.6595 166.159 10.4527 165.679 10.3008 165.225C10.2179 164.978 10.1351 164.73 10.0522 164.483C9.92827 164.249 9.87267 163.947 9.70766 163.727C9.44598 163.219 9.11597 162.779 8.74488 162.353C8.38759 161.969 7.98922 161.598 7.56359 161.282C8.75516 161.02 9.93257 160.58 10.9999 159.947C12.3547 159.219 13.599 158.16 14.5551 156.922C15.0332 156.304 15.4564 155.658 15.8519 154.929C16.2202 154.256 16.5612 153.637 17.0672 153.238C17.6143 152.826 18.3127 152.592 19.0382 152.303C19.7638 152.014 20.4483 151.739 21.1738 151.45C24.0078 150.363 26.8831 149.4 29.7999 148.56C32.306 147.858 34.8807 147.225 37.4419 146.688C37.8803 146.633 38.2638 146.55 38.6884 146.454L38.619 146.11C37.523 146.248 36.4409 146.427 35.3587 146.606C34.8655 146.634 34.3722 146.662 33.8651 146.648C32.2617 146.635 30.6852 146.43 29.1088 146.224C27.5323 146.019 25.9693 145.717 24.3655 145.567C23.9817 145.512 23.5705 145.512 23.1456 145.471C22.7207 145.43 22.3096 145.43 21.8712 145.485C21.0355 145.582 20.2547 145.706 19.4466 145.885C17.8715 146.229 16.3379 146.697 14.8039 147.027C13.2699 147.358 11.7221 147.647 10.1463 147.717C8.57053 147.786 6.98061 147.677 5.45831 147.224C4.26532 146.936 3.16759 146.386 2.09714 145.782C1.97356 145.686 1.87724 145.535 1.75366 145.439C1.25898 144.917 0.859919 144.271 0.762196 143.57C0.664473 142.869 0.909523 142.237 1.40139 141.66C1.86599 141.137 2.49524 140.697 3.09723 140.312C3.7541 139.954 4.42479 139.638 5.12309 139.404L5.65708 139.225C5.73924 139.198 5.86247 139.157 5.94462 139.129C6.01297 139.06 6.19108 139.046 6.30016 138.826C6.35434 138.579 6.27182 138.469 6.2304 138.346L6.09266 138.071C6.03742 137.906 5.94111 137.755 5.87206 137.549C5.59622 136.862 5.48469 136.119 5.41423 135.364C5.34378 134.608 5.32821 133.879 5.33991 133.096C5.3392 132.821 5.32468 132.505 5.32398 132.23L5.35125 132.175C5.37852 132.12 5.44686 132.052 5.5014 131.942C5.71988 131.639 5.93838 131.337 6.21175 131.062C6.70362 130.484 7.18167 129.866 7.67354 129.288C8.65727 128.133 9.64099 126.979 10.6658 125.81L10.7341 125.741L10.6927 125.618C10.5132 125.082 10.5801 124.463 10.6609 123.886C10.7827 123.295 11.0143 122.759 11.3556 122.278C11.6014 121.92 11.9021 121.59 12.2714 121.329C13.4222 121.219 14.5738 121.383 15.7253 121.548C16.8907 121.753 17.9877 122.028 19.0713 122.398L25.6552 124.732C30.0581 126.283 34.4061 127.806 38.7818 129.413C43.1437 130.977 47.5332 132.625 51.7314 134.519C53.8305 135.467 55.9573 136.497 58.0019 137.554C59.0447 138.076 60.0603 138.653 61.0621 139.188L64.1088 140.918L64.4501 140.437C61.1818 137.772 57.3539 136.029 53.9768 133.721C52.2746 132.595 50.6954 131.29 49.4305 129.697C48.1384 128.158 47.325 126.275 46.5117 124.393C45.7394 122.497 44.9806 120.504 43.8248 118.691C43.2469 117.784 42.5186 116.974 41.7356 116.273C40.9116 115.586 40.0331 115.009 39.0862 114.501C37.179 113.581 35.1631 113.019 33.1065 112.607C31.0498 112.196 29.0073 111.963 26.9376 111.785L26.9241 111.882C28.9532 112.21 31.0233 112.526 33.0254 113.047C35.0137 113.527 37.0023 114.145 38.8001 115.147C39.6921 115.628 40.5157 116.177 41.2987 116.878C42.0267 117.551 42.6591 118.348 43.2094 119.172C44.2827 120.876 44.9866 122.841 45.7316 124.792C46.1041 125.768 46.5177 126.729 47.0134 127.664C47.5091 128.598 48.087 129.505 48.7743 130.329C50.1079 131.991 51.8242 133.296 53.5402 134.464C55.3521 135.645 57.2459 136.661 59.1124 137.732C58.8379 137.595 58.5086 137.43 58.2342 137.293C56.1485 136.249 54.0356 135.261 51.9365 134.313C47.6833 132.391 43.444 130.51 39.1228 128.794C34.8017 127.078 30.3715 125.582 25.9689 124.168C23.7607 123.441 21.5252 122.768 19.3308 122.082C18.2062 121.725 17.027 121.478 15.8893 121.355C14.7926 121.218 13.6276 121.15 12.5455 121.329C12.6138 121.26 12.696 121.233 12.7643 121.164C13.2569 120.861 13.8592 120.614 14.4343 120.421C15.5706 119.995 16.7618 119.596 17.9258 119.252C19.0897 118.907 20.2948 118.55 21.4726 118.247C22.4446 117.875 23.4166 117.504 24.3196 116.926C24.5384 116.761 24.7573 116.596 24.9761 116.431C25.1811 116.225 25.3313 115.991 25.4127 115.689C25.5073 115.153 25.4648 114.617 25.5321 114.136C25.5994 113.655 25.8175 113.215 26.1454 112.83C26.3094 112.638 26.501 112.528 26.706 112.321C26.8154 112.239 26.8561 112.088 26.9517 111.964C27.0063 111.854 27.0881 111.689 27.0877 111.552C27.2234 111.002 27.1809 110.466 27.1933 109.957L27.0796 108.391C27.0085 107.36 27.0195 106.302 27.0854 105.271C27.1512 104.24 27.2582 103.196 27.6668 102.234C27.7759 102.014 27.8712 101.753 27.9941 101.574C28.1031 101.354 28.2671 101.161 28.431 100.969C28.7728 100.625 29.2104 100.295 29.6485 100.103C30.5518 99.6625 31.5787 99.3185 32.4679 98.6996C32.9056 98.3696 33.2746 97.9709 33.6025 97.586C33.9166 97.1598 34.2307 96.7337 34.4761 96.2388C34.5713 95.9776 34.6666 95.7165 34.6659 95.4416C34.7063 95.153 34.6783 94.9331 34.8012 94.7544C34.8557 94.6445 34.924 94.5757 35.0335 94.4932C35.1018 94.4245 35.225 94.3832 35.3072 94.3557C35.5536 94.2731 35.7728 94.2455 36.0331 94.2042C37.0469 94.0938 38.1022 94.1071 39.1298 94.0379C40.1712 94.01 41.2126 93.9821 42.2675 93.858C43.2813 93.7476 44.3362 93.6234 45.3769 93.3207C45.6234 93.2381 45.8837 93.1968 46.1301 93.1142L46.8833 92.9077C47.39 92.7838 47.8695 92.7149 48.3628 92.6872C48.8699 92.7007 49.3497 92.7693 49.816 92.934C50.3235 93.0849 50.8447 93.2771 51.3518 93.2906C51.9138 93.3316 52.4343 93.249 52.941 93.125C53.4477 93.0011 53.9269 92.7948 54.4474 92.7121C54.913 92.602 55.4474 92.5605 55.8999 92.684C56.3936 92.7938 56.7643 93.0822 57.2172 93.3431C57.4506 93.4942 57.7523 93.5765 58.0401 93.6176C58.328 93.6587 58.6156 93.5624 58.8758 93.5211C59.3277 93.3697 59.8075 93.4382 60.2328 93.6167C60.6991 93.7814 61.111 94.0561 61.5366 94.372C61.9484 94.6467 62.3468 95.0176 62.6902 95.361C63.1573 95.8006 63.5833 96.2539 64.0503 96.6935C64.4501 97.6141 64.7539 98.521 64.9072 99.5242C65.102 100.651 65.1597 101.778 65.1763 102.919C65.1685 105.214 64.7768 107.454 64.344 109.708C63.5196 114.202 62.243 118.711 62.3647 123.438C62.3952 124.62 62.5626 125.802 62.8533 126.942C63.144 128.083 63.599 129.168 64.1362 130.226C64.7144 131.271 65.3472 132.205 66.1032 133.098C66.8592 133.991 67.6836 134.815 68.5763 135.57C69.469 136.326 70.4162 136.971 71.3907 137.562C71.8574 137.864 72.4062 138.139 72.914 138.427C73.4491 138.661 73.9569 138.949 74.4781 139.141C76.6183 140.075 78.8945 140.596 81.0478 141.296C83.2011 141.996 85.3413 142.93 86.853 144.578C87.6224 145.375 88.1458 146.392 88.7513 147.381C89.3568 148.37 90.031 149.428 91.1291 150.115C92.2272 150.801 93.4881 150.883 94.503 151.185C95.5451 151.432 96.4375 152.05 97.2069 152.847C97.9764 153.644 98.6502 154.564 99.4062 155.457C99.7911 155.924 100.162 156.35 100.588 156.804C101 157.216 101.509 157.641 102.03 157.971C102.895 158.507 103.487 159.455 103.613 160.513C103.682 160.994 103.67 161.64 103.727 162.217C103.783 162.794 103.894 163.399 103.991 163.962C104.532 166.257 105.442 168.428 106.338 170.558C107.234 172.688 108.199 174.749 108.848 176.961C109.166 178.047 109.402 179.16 109.515 180.314C109.614 181.427 109.548 182.595 109.291 183.736L109.387 183.75C110.011 181.523 109.882 179.091 109.314 176.851C108.747 174.611 107.837 172.44 106.981 170.296C106.126 168.153 105.271 166.009 104.813 163.824C104.716 163.261 104.619 162.698 104.576 162.162C104.479 161.598 104.532 161.076 104.448 160.416C104.253 159.152 103.579 157.957 102.481 157.27C101.561 156.707 100.86 155.841 100.118 154.99C99.4027 154.083 98.7289 153.162 97.8496 152.311C97.4375 151.899 96.9842 151.5 96.4215 151.184C95.9 150.855 95.31 150.594 94.7204 150.471C93.5685 150.169 92.4446 150.087 91.5388 149.565C90.633 149.043 90.0002 148.109 89.4085 147.161C88.8168 146.213 88.2386 145.168 87.3866 144.262C86.5485 143.396 85.5464 142.723 84.5035 142.202C83.4607 141.68 82.336 141.323 81.2252 141.007C78.9898 140.335 76.755 139.937 74.6286 139.045C72.516 138.194 70.5121 136.985 68.7816 135.502C67.9028 134.787 67.1195 133.949 66.4046 133.043C65.6896 132.136 65.0979 131.188 64.5746 130.171C64.0923 129.141 63.6922 128.083 63.4564 126.97C63.2205 125.856 63.1218 124.743 63.1052 123.603C63.0719 121.321 63.4087 119.054 63.8004 116.813C64.1782 114.532 64.6659 112.305 65.0438 110.024C65.4216 107.742 65.7035 105.447 65.6427 103.083C65.6101 101.077 65.2348 99.0018 64.3531 97.1881C64.5043 97.3667 64.6966 97.5316 64.8616 97.7514L65.4112 98.3009C65.5624 98.4795 65.6587 98.6306 65.7415 98.8779C65.8934 99.3314 66.0181 99.8398 66.0878 100.321C66.2411 101.324 66.3672 102.382 66.4794 103.399C66.7177 105.474 66.997 107.535 67.3724 109.61C68.1503 113.706 69.3255 117.759 70.9115 121.675L71.5318 123.118L72.1522 124.561L72.8137 125.99L73.5573 127.391L74.3009 128.793L75.1539 130.112C75.4428 130.565 75.7318 131.019 76.048 131.417L77.0104 132.653C78.3029 134.329 79.8415 135.786 81.4073 137.187C82.2313 137.873 83.0004 138.533 83.8517 139.165C84.7029 139.796 85.5131 140.442 86.3916 141.019C89.7963 143.409 93.3377 145.661 96.6057 148.188C99.8737 150.716 102.896 153.6 105.522 156.801C106.869 158.368 108.038 160.085 108.974 161.926C109.911 163.767 110.574 165.746 110.935 167.78C111.741 171.82 111.423 176.053 110.501 180.121C109.621 184.176 108.096 188.079 106.543 191.901C105.767 193.811 104.909 195.749 104.187 197.687C103.466 199.625 102.964 201.673 102.75 203.762C102.364 207.927 103.156 212.2 105.043 215.924C106.253 217.628 107.422 219.345 108.81 220.897C109.168 221.282 109.525 221.667 109.882 222.051C110.239 222.436 110.665 222.752 111.022 223.136C111.833 223.782 112.684 224.414 113.631 224.922C114.536 225.444 115.524 225.801 116.43 226.323C116.91 226.528 117.336 226.844 117.789 227.105C118.214 227.421 118.626 227.696 119.024 228.067C119.217 228.232 119.409 228.396 119.601 228.561L120.151 229.111C120.343 229.276 120.549 229.482 120.7 229.66C120.852 229.839 121.058 230.045 121.182 230.278C121.498 230.677 121.746 231.144 121.815 231.625C121.885 232.106 121.64 232.601 121.27 232.862C120.983 232.958 120.49 233.124 119.997 233.289Z" fill="#FFFDFB"/>
  <path d="M169.245 78.8986C168.937 77.2112 168.59 75.5424 168.141 73.8659C167.732 72.171 167.283 70.4945 166.858 68.8624C165.96 65.5095 164.985 62.1933 163.986 58.8328L164.033 58.9217C163.97 58.8956 164.009 58.8772 163.931 58.9141C163.892 58.9325 163.837 59.0138 163.783 59.095C163.674 59.2576 163.588 59.4645 163.518 59.6087C163.386 60.0042 163.253 60.3997 163.121 60.7952C162.919 61.6123 162.741 62.4738 162.563 63.3353C162.245 65.0399 161.99 66.7705 161.735 68.5011C161.264 71.9439 160.879 75.4571 160.596 78.978C160.443 80.7162 160.313 82.4988 160.223 84.263C160.132 86.0272 160.041 87.7914 160.115 89.5893C160.11 91.4239 159.855 93.1545 159.538 94.8591C159.22 96.5637 158.801 98.2607 158.319 99.9317C156.344 106.527 153.219 112.609 148.684 117.413C146.437 119.805 143.836 121.809 140.938 123.342C138.039 124.875 134.858 125.875 131.496 126.349C128.174 126.805 124.67 126.735 121.236 126.244C117.802 125.753 114.361 125.155 110.911 124.449C107.5 123.725 104.018 122.867 100.646 121.57C98.9399 120.93 97.265 120.165 95.6523 119.148C94.8459 118.64 94.0942 118.05 93.3735 117.335C93.0444 116.99 92.7309 116.583 92.4173 116.175C92.1429 115.75 91.9075 115.305 91.6801 114.968C91.4292 114.587 91.2805 114.49 90.9128 114.441C90.6078 114.419 90.3734 114.529 90.1941 114.836C89.8745 115.431 89.8214 116.344 89.9246 117.184C90.0277 118.024 90.2561 118.916 90.5626 119.771C90.9081 120.608 91.3319 121.407 91.9274 122.071C92.4993 122.689 93.2666 123.216 94.0339 123.743C94.7777 124.225 95.5605 124.689 96.3824 125.135C97.9871 126.044 99.5838 126.846 101.22 127.63C107.763 130.764 114.461 133.27 121.237 135.462C127.99 137.609 134.874 139.361 141.695 140.532C148.556 141.685 155.415 142.282 162.116 141.844C165.454 141.603 168.754 141.102 171.903 140.228C175.053 139.354 178.117 138.132 181.023 136.706C186.836 133.854 192.249 130.247 197.262 126.162C207.288 117.992 215.928 108.033 223.134 97.0278C226.705 91.5122 229.909 85.6704 232.666 79.5392C235.385 73.4265 237.657 67.0243 239.217 60.2916L239.248 60.1659L239.365 60.1107C243.083 57.9133 246.747 55.5198 250.167 52.8521C251.846 51.5053 253.54 50.0956 254.851 48.4225C255.163 47.9977 255.452 47.5285 255.638 47.0517C255.67 46.926 255.701 46.8003 255.732 46.6746L255.801 46.253C255.84 45.9572 255.902 45.7058 255.941 45.41C256.118 44.271 256.171 43.0801 256.224 41.8891C256.329 39.5072 256.332 37.1177 256.195 34.7391C256.107 33.5589 256.035 32.316 255.806 31.1467C255.743 30.8432 255.703 30.5842 255.601 30.2992C255.569 30.1475 255.522 30.0586 255.475 29.9698C255.428 29.8809 255.365 29.8549 255.491 29.9069C255.592 29.9145 255.569 29.8701 255.514 29.9513C255.46 30.0326 255.366 30.1323 255.272 30.232C255.124 30.4129 254.999 30.6383 254.875 30.8637L254.68 31.2332C254.61 31.3774 254.54 31.5215 254.352 31.7209C254.259 31.8206 254.102 31.8942 253.962 31.9051C253.821 31.9159 253.696 31.8639 253.594 31.8563C253.367 31.7966 253.218 31.7002 253.093 31.6482C252.522 31.3067 251.989 30.9469 251.496 30.5687C250.47 29.8306 249.468 29.1369 248.427 28.4617C247.385 27.7865 246.352 27.2186 245.264 26.7319C244.176 26.2452 243.073 25.8214 241.939 25.5233C239.685 24.8642 237.417 24.5454 235.094 24.3079C232.81 24.052 230.495 23.9217 228.219 23.773C227.062 23.7079 225.943 23.6244 224.762 23.5148C224.191 23.4508 223.62 23.3868 222.987 23.2968C222.392 23.1884 221.798 23.08 221.172 22.8199C220.859 22.6898 220.561 22.4969 220.287 22.3484C220.013 22.1999 219.778 22.033 219.528 21.9289C219.278 21.8249 219.004 21.6764 218.753 21.5723C218.503 21.4683 218.213 21.3827 217.947 21.3415C216.836 21.0878 215.694 20.9598 214.576 20.8763C213.458 20.7927 212.308 20.8349 211.245 20.9475C210.705 21.0352 210.166 21.1229 209.689 21.2367C209.431 21.3028 209.197 21.4133 209.001 21.5054C208.806 21.5975 208.658 21.7784 208.564 21.8781C208.533 22.0038 208.518 22.0667 208.635 22.2888L209.137 23.0518C209.482 23.611 209.843 24.1073 210.118 24.8107C210.244 25.1401 210.354 25.5324 210.347 25.98C210.316 26.3831 210.121 26.7526 209.918 27.0148C209.489 27.4949 208.942 27.7527 208.434 27.9922C206.364 28.9684 204.073 29.16 202.064 29.8848C201.08 30.238 200.189 30.7689 199.542 31.574C199.393 31.755 199.269 31.9804 199.105 32.2242L198.653 32.9372C198.364 33.4064 198.076 33.8756 197.748 34.3632C197.108 35.2756 196.469 36.188 195.704 37.0484C195.329 37.4471 194.915 37.8643 194.478 38.2371C194.017 38.5654 193.541 38.9565 192.822 39.0735C192.462 39.132 191.946 38.9867 191.617 38.6421L191.421 38.4568C191.397 38.4123 191.311 38.3419 191.249 38.3159C191.139 38.201 191.014 38.149 190.928 38.0785C190.458 37.7447 189.957 37.5366 189.441 37.3913C188.924 37.2461 188.416 37.2081 188.064 37.3739C187.908 37.4476 187.814 37.5472 187.768 37.7358C187.721 37.9244 187.737 38.1389 187.816 38.3795C188.115 39.6821 188.227 40.9067 188.339 42.1312C188.45 43.3558 188.46 44.5728 188.47 45.7897C188.49 48.2237 188.346 50.624 188.037 52.9907C187.729 55.3574 187.295 57.6721 186.611 59.8827C186.269 60.988 185.887 62.1118 185.459 63.1466C184.992 64.1999 184.501 65.2088 184.01 66.2176C181.984 70.227 180.107 74.3329 178.519 78.5244C176.916 82.7788 175.563 87.1372 174.484 91.6441C173.925 93.9067 173.405 96.151 172.947 98.4212L172.591 100.144L172.412 101.006L172.171 101.841C171.892 102.973 171.487 104.052 171.122 105.113C169.479 109.386 167.015 113.213 163.979 116.421C162.48 118.016 160.833 119.515 159.091 120.836C157.373 122.201 155.498 123.363 153.686 124.55L151.796 125.774L153.373 124.143C154.723 122.729 155.964 121.2 157.118 119.6C158.273 118.001 159.365 116.375 160.41 114.661C162.46 111.251 164.213 107.648 165.645 103.808C167.038 99.9855 168.134 95.9706 168.713 91.8105L168.837 91.0302L168.921 90.2684L169.106 88.6819C169.167 87.5983 169.29 86.5406 169.272 85.4938C169.487 83.2267 169.366 81.0627 169.245 78.8986L169.347 78.9061C169.53 81.0963 169.652 83.2604 169.569 85.4093C169.548 86.4745 169.487 87.5582 169.403 88.5974L169.257 90.1655L169.196 90.9717L169.072 91.752C168.517 95.9566 167.484 99.9975 166.115 103.864C164.745 107.73 162.976 111.396 160.949 114.851C159.905 116.565 158.836 118.235 157.682 119.834C156.527 121.434 155.31 123.007 153.921 124.44L153.607 124.032C155.458 122.826 157.231 121.657 158.973 120.336C160.652 118.989 162.284 117.554 163.782 115.959C166.74 112.787 169.15 109.041 170.753 104.787C171.119 103.726 171.485 102.665 171.764 101.533L171.966 100.716L172.144 99.8549C172.284 99.2892 172.361 98.6975 172.501 98.1319C172.935 95.8172 173.455 93.5729 173.975 91.3287C175.054 86.8218 176.36 82.3745 177.963 78.1202C179.543 73.8214 181.42 69.7155 183.423 65.6617C183.913 64.6528 184.404 63.6439 184.833 62.6091C185.261 61.5742 185.627 60.5133 185.93 59.4264C186.575 57.2342 186.993 54.9824 187.325 52.6601C187.618 50.3562 187.723 47.9743 187.727 45.5848C187.717 44.3679 187.692 43.2138 187.58 41.9892C187.492 40.8091 187.38 39.5845 187.073 38.4521C186.986 38.1042 186.915 37.6935 187.009 37.3164C187.102 36.9392 187.359 36.5957 187.711 36.43C188.062 36.2642 188.383 36.2241 188.727 36.2285C189.071 36.2329 189.4 36.3001 189.689 36.3857C190.331 36.583 190.918 36.8616 191.474 37.2658C191.622 37.3623 191.732 37.4772 191.881 37.5736C191.967 37.6441 192.03 37.6701 192.077 37.759L192.249 37.8998C192.359 38.0147 192.484 38.0667 192.703 38.0191C193.125 37.9866 193.547 37.6767 193.929 37.3852C194.351 37.0754 194.687 36.695 195.061 36.2963C195.772 35.5172 196.411 34.6048 197.012 33.7108C197.3 33.2416 197.612 32.8168 197.877 32.3032L198.29 31.6086C198.454 31.3648 198.594 31.0765 198.782 30.8771C199.5 29.9279 200.57 29.3677 201.633 28.9777C203.758 28.1977 206.049 28.0061 207.964 27.1035C208.432 26.8825 208.878 26.617 209.198 26.2996C209.455 25.9561 209.494 25.6602 209.274 25.153C209.054 24.6459 208.732 24.1311 208.348 23.5903C208.168 23.3421 208.027 23.0755 207.823 22.7829C207.729 22.6052 207.611 22.383 207.572 22.124C207.532 21.865 207.594 21.6136 207.641 21.4251C207.812 21.0111 208.101 20.8193 208.374 20.6904C208.648 20.5615 208.921 20.4325 209.218 20.348C209.773 20.1974 210.352 20.0913 210.954 20.0296C212.095 19.8801 213.268 19.8824 214.426 19.9475C215.583 20.0127 216.764 20.1222 217.961 20.4463C218.251 20.532 218.579 20.5992 218.892 20.7293C219.205 20.8593 219.456 20.9634 219.769 21.0935C220.043 21.2419 220.356 21.372 220.614 21.5833C220.888 21.7318 221.123 21.8988 221.374 22.0028C221.874 22.2109 222.43 22.3377 222.962 22.4202C223.494 22.5026 224.065 22.5665 224.636 22.6305C225.778 22.7585 226.935 22.8236 228.053 22.9072C230.329 23.0558 232.644 23.1861 234.967 23.4236C237.29 23.6612 239.621 24.006 241.937 24.6911C243.095 25.0336 244.238 25.439 245.388 25.9517C246.499 26.4828 247.619 27.1212 248.699 27.778C249.764 28.4976 250.766 29.1913 251.792 29.9293C252.324 30.2892 252.818 30.6674 253.303 30.9384C253.428 30.9904 253.553 31.0424 253.616 31.0684C253.679 31.0945 253.679 31.0945 253.679 31.0945L253.639 31.1129C253.639 31.1129 253.733 31.0132 253.764 30.8875L253.959 30.518C254.099 30.2297 254.263 29.9859 254.427 29.7421C254.521 29.6424 254.614 29.5427 254.723 29.3802C254.778 29.2989 254.856 29.2621 254.973 29.2068C255.091 29.1516 255.27 29.1223 255.435 29.1559C255.622 29.234 255.771 29.3304 255.881 29.4453C255.991 29.5602 256.038 29.649 256.085 29.7379C256.179 29.9156 256.234 30.1118 256.305 30.2451C256.43 30.5745 256.493 30.878 256.541 31.2443C256.778 32.5208 256.889 33.7454 256.938 34.944C257.06 37.3855 257.08 39.8194 256.936 42.2197C256.883 43.4107 256.792 44.62 256.637 45.8034C256.599 46.0992 256.56 46.3951 256.482 46.7093L256.374 47.1493C256.343 47.275 256.296 47.4636 256.226 47.6077C256.008 48.2102 255.681 48.6978 255.329 49.141C254.651 50.0718 253.839 50.8433 253.042 51.552C252.207 52.279 251.372 53.0061 250.489 53.6443C247.006 56.286 243.343 58.6795 239.562 60.8508L239.71 60.6699C238.111 67.421 235.8 73.8416 233.042 79.9727C230.285 86.1039 227.019 91.9197 223.369 97.4721C216.124 108.496 207.422 118.429 197.333 126.573C192.257 130.632 186.845 134.239 180.993 137.109C178.086 138.535 175.023 139.757 171.834 140.65C168.645 141.542 165.346 142.043 161.968 142.303C158.629 142.544 155.188 142.5 151.755 142.286C148.322 142.073 144.872 141.644 141.454 141.09C134.578 140 127.717 138.293 120.926 136.164C114.134 134.035 107.373 131.503 100.775 128.45C99.1395 127.666 97.4802 126.838 95.8755 125.929C95.0536 125.483 94.2708 125.019 93.5035 124.493C92.7362 123.966 91.9298 123.458 91.2246 122.68C90.5195 121.901 90.0487 121.013 89.6796 120.132C89.2869 119.206 89.0741 118.251 88.9629 117.304C88.9073 116.831 88.8908 116.339 88.9369 115.873C88.983 115.407 89.0682 114.922 89.3176 114.472C89.4423 114.246 89.6296 114.047 89.864 113.936C90.0749 113.781 90.3955 113.741 90.6614 113.783C90.9274 113.824 91.2169 113.909 91.4908 114.058C91.7493 114.269 91.9686 114.499 92.0863 114.721C92.3608 115.147 92.5726 115.547 92.8236 115.928C93.0745 116.31 93.3409 116.628 93.67 116.973C94.3045 117.618 94.9937 118.182 95.7765 118.645C97.3031 119.592 98.9153 120.331 100.621 120.97C103.97 122.223 107.389 123.055 110.761 123.797C114.172 124.522 117.614 125.12 121.047 125.611C124.442 126.121 127.844 126.183 131.128 125.746C134.411 125.308 137.514 124.345 140.374 122.83C143.194 121.334 145.779 119.393 147.988 117.019C150.22 114.689 152.123 112.015 153.706 109.103C155.288 106.192 156.573 103.087 157.584 99.8341C158.089 98.2075 158.493 96.5734 158.849 94.8504C159.167 93.1458 159.422 91.4152 159.474 89.6694C159.439 87.8531 159.53 86.0889 159.62 84.3247C159.711 82.5605 159.841 80.7779 160.033 79.0213C160.355 75.482 160.764 72.0132 161.274 68.552C161.529 66.8214 161.784 65.0908 162.14 63.3678C162.319 62.5063 162.497 61.6448 162.699 60.8277C162.808 60.3877 162.94 59.9922 163.111 59.5783C163.197 59.3713 163.282 59.1643 163.392 59.0018C163.446 58.9205 163.54 58.8208 163.657 58.7656C163.735 58.7287 163.813 58.6919 163.915 58.6995C164.017 58.7071 164.103 58.7775 164.15 58.8664L164.173 58.9108L164.197 58.9553C165.173 62.2714 166.07 65.6243 166.967 68.9773C167.416 70.6538 167.826 72.3487 168.212 73.9992C168.622 75.6941 168.969 77.363 169.238 79.0687L169.245 78.8986Z" fill="#FFFDFB"/>
  <path d="M187.327 106.834C190.58 103.791 193.245 100.191 195.651 96.3796C198.057 92.5681 200.227 88.5896 202.351 84.522C203.405 82.5197 204.435 80.4729 205.528 78.4521C206.063 77.4194 206.622 76.4313 207.203 75.4877C207.494 75.0159 207.825 74.5256 208.155 74.0352C208.508 73.5894 208.862 73.1436 209.239 72.7423C210.678 71.0036 212.139 69.3095 213.648 67.7045C215.134 66.0549 216.744 64.4572 218.387 63.0119C221.726 60.0394 225.535 57.6796 229.423 55.5611C231.356 54.4796 233.311 53.4426 235.243 52.3611C237.152 51.2351 238.998 50.083 240.75 48.7527C242.502 47.4225 244.144 45.9771 245.566 44.3015C247.052 42.652 248.427 40.8873 249.717 39.0521C252.319 35.4263 254.764 31.5962 256.785 27.5212L256.872 27.5917C255.99 29.735 254.983 31.8264 253.867 33.8026C252.75 35.7789 251.57 37.7292 250.305 39.609C249.039 41.4887 247.687 43.2979 246.249 45.0366C244.81 46.7753 243.137 48.347 241.385 49.6773C239.594 51.0261 237.708 52.1967 235.737 53.2968C233.805 54.3784 231.786 55.3893 229.807 56.3817C225.872 58.4111 221.875 60.4145 218.575 63.3683C216.87 64.7877 215.361 66.3928 213.899 68.0869C212.437 69.781 211.085 71.5903 209.773 73.3809C209.419 73.8267 209.065 74.2725 208.774 74.7443C208.46 75.1716 208.169 75.6433 207.878 76.1151C207.32 77.1033 206.761 78.0914 206.266 79.1055L203.088 85.1753C202.034 87.1776 200.941 89.1984 199.785 91.1932C198.668 93.1695 197.465 95.0752 196.2 96.955C194.934 98.8348 193.582 100.644 192.144 102.383C190.682 104.077 189.134 105.7 187.429 107.12L187.327 106.834Z" fill="#FFFDFB"/>
  <path d="M165.728 119.305C167.622 118.17 169.54 117.082 171.371 115.921C173.266 114.787 175.097 113.626 176.968 112.446C180.646 110.06 184.277 107.584 187.884 105.062C191.467 102.494 195.011 99.9456 198.436 97.1701C201.861 94.3946 205.152 91.4565 207.999 88.0496C209.403 86.3557 210.649 84.4538 211.918 82.5974C213.164 80.6955 214.369 78.8126 215.639 76.9561C216.908 75.0996 218.177 73.2431 219.534 71.4584C220.212 70.566 220.89 69.6737 221.592 68.8268C221.975 68.4165 222.294 67.9798 222.677 67.5695C223.059 67.1592 223.482 66.7299 223.888 66.365C227.322 63.4151 231.34 61.4907 235.231 59.5136C237.197 58.5155 239.21 57.6082 241.152 56.5647C243.094 55.5212 245.035 54.4777 246.748 53.09L246.835 53.1617C246.046 53.9369 245.146 54.5949 244.246 55.2529C243.323 55.8655 242.399 56.4781 241.452 57.0452C239.534 58.1341 237.616 59.2231 235.674 60.2666C233.732 61.3101 231.79 62.3536 229.935 63.4688C228.081 64.5841 226.233 65.8093 224.624 67.2043C224.218 67.5692 223.811 67.9341 223.468 68.3253C223.086 68.7356 222.767 69.1723 222.384 69.5826C221.682 70.4295 220.98 71.2765 220.302 72.1688C218.922 73.9081 217.629 75.7192 216.296 77.5493C215.003 79.3604 213.67 81.1905 212.354 82.9562C211.676 83.8486 210.997 84.7409 210.319 85.6333L209.322 86.9623L208.261 88.265C205.326 91.6 202.083 94.629 198.769 97.5216C195.454 100.414 191.989 103.209 188.406 105.776C184.822 108.344 181.104 110.749 177.379 113.044C175.484 114.178 173.566 115.267 171.648 116.356C169.73 117.445 167.764 118.443 165.799 119.441L165.728 119.305Z" fill="#FFFDFB"/>
  <path d="M223.115 23.0257C222.757 23.7868 222.46 24.5731 222.262 25.3668C222.064 26.1604 221.974 27.0655 221.898 27.9097C221.808 29.6231 222 31.4196 222.33 33.2055C222.66 34.9913 223.127 36.7666 223.556 38.5599C223.985 40.3531 224.452 42.1284 224.706 43.9501C224.959 45.7718 225.037 47.622 224.672 49.3566C224.497 50.1934 224.246 51.066 223.949 51.8523C223.652 52.6386 223.294 53.3997 222.874 54.1355C222.074 55.5893 221.19 56.9747 220.221 58.2917C219.253 59.6088 218.369 60.9942 217.278 62.2607C216.226 63.5094 215.089 64.6897 213.953 65.87C212.816 67.0502 211.718 68.2126 210.704 69.4434C209.689 70.6741 208.744 72.0343 207.898 73.4018C207.013 74.7872 206.19 76.1978 205.451 77.6768C202.349 83.4993 199.789 89.7141 197.267 95.911L197.183 95.8426C199.208 89.3396 201.562 83.006 204.618 77.0973C206.158 74.1645 207.942 71.3326 210.085 68.8174C212.167 66.277 214.722 64.2688 216.934 61.883C218.009 60.6775 219.001 59.4036 219.992 58.1298C220.961 56.8127 221.906 55.4526 222.668 54.0167C223.407 52.5377 224.002 50.965 224.229 49.241C224.48 47.5601 224.348 45.7889 224.019 44.003C223.42 40.4565 222.287 36.8912 221.704 33.2836C221.412 31.4798 221.296 29.6475 221.478 27.8372C221.644 26.0879 222.17 24.3859 223.054 23.0005L223.115 23.0257Z" fill="#FFFDFB"/>
  <path d="M204.514 30.3312C204.872 32.7828 204.859 35.2482 204.543 37.5884C204.468 38.1584 204.317 38.7638 204.242 39.3337C204.106 39.8786 203.955 40.4841 203.82 41.029C203.646 41.5916 203.473 42.1543 203.276 42.6742C203.103 43.2368 202.869 43.7745 202.673 44.2944C201.812 46.4094 200.725 48.3637 199.743 50.4287C198.761 52.4937 197.878 54.5659 197.116 56.6882C196.354 58.8105 195.637 61.0183 195.019 63.2335C194.4 65.4486 193.903 67.7137 193.527 70.029C192.691 74.5916 192.279 79.3294 192.049 84.1423L191.95 84.135C191.629 79.2608 191.798 74.4229 192.566 69.7319C193.356 65.0837 194.767 60.6252 196.632 56.488C197.553 54.398 198.557 52.3758 199.44 50.3036C199.893 49.2889 200.324 48.2314 200.754 47.1738C201.184 46.1163 201.554 45.0338 201.946 43.994C202.708 41.8718 203.448 39.7067 203.847 37.4343C204.284 35.1441 204.463 32.8143 204.401 30.3844L204.514 30.3312Z" fill="#FFFDFB"/>
  <path d="M201.178 52.5744C200.758 53.4308 200.339 54.2872 199.881 55.1619C199.423 56.0366 198.98 56.8491 198.498 57.6799C197.535 59.3414 196.549 60.9589 195.524 62.5948C193.512 65.8482 191.477 69.0576 190.654 72.905C190.212 74.8158 190.08 76.855 189.886 78.8685C189.692 80.8821 189.56 82.9213 189.429 84.9605C189.103 89.0132 188.738 93.0842 187.674 96.9351C187.131 98.8385 186.424 100.709 185.484 102.414C184.545 104.12 183.434 105.686 182.238 107.183C181.648 107.9 181.019 108.635 180.366 109.327L179.419 110.377L178.409 111.401C177.756 112.093 177.057 112.696 176.343 113.362C175.605 113.984 174.906 114.588 174.145 115.166C171.162 117.503 167.861 119.331 164.35 120.764C160.839 122.197 157.134 123.172 153.413 123.934L153.366 123.847C157.025 122.784 160.637 121.633 164.039 120.087C165.733 119.345 167.418 118.496 168.972 117.491C169.375 117.246 169.779 117.001 170.144 116.774C170.548 116.529 170.952 116.284 171.294 116.013C172.04 115.497 172.801 114.919 173.523 114.36C174.246 113.8 174.945 113.197 175.682 112.575C176.358 111.927 177.057 111.323 177.733 110.676L178.727 109.714L179.698 108.708C180.351 108.016 180.964 107.343 181.554 106.626C182.735 105.191 183.869 103.669 184.855 102.051C185.842 100.434 186.595 98.6514 187.224 96.8176C188.458 93.106 188.924 89.0424 189.149 84.9822C189.281 82.943 189.312 80.8964 189.381 78.8316C189.428 77.8211 189.451 76.7667 189.536 75.738C189.559 75.2327 189.622 74.7092 189.684 74.1857C189.746 73.6622 189.831 73.1826 189.893 72.6591C190.289 70.6604 190.996 68.79 191.935 67.0846C192.813 65.3534 193.862 63.7615 194.91 62.1696C197.03 59.0298 199.127 55.846 201.1 52.6109L201.178 52.5744Z" fill="#FFFDFB"/>
</svg>
