<svg width="1792" height="767" viewBox="0 0 1792 767" fill="none"
  xmlns="http://www.w3.org/2000/svg">
  <path d="M1676.36 344.164C1671.19 339.716 1665.41 336.159 1659.33 332.94C1656.34 331.274 1653.26 329.936 1650.08 328.71L1645.37 326.922C1643.84 326.359 1642.2 325.91 1640.45 325.359C1634.01 323.449 1627.28 322.091 1620.47 321.274C1606.97 319.742 1593.45 320.036 1579.91 321.942C1566.48 323.736 1553.34 327.017 1540.58 331.459C1534.14 333.629 1527.95 336.216 1521.76 339.018C1515.57 341.819 1509.62 345.037 1504.02 348.774L1495.63 354.486C1494.18 355.423 1492.84 356.461 1491.5 357.5C1490.78 358.075 1490.16 358.538 1489.68 359.744C1489.5 360.398 1489.64 360.928 1489.88 361.345C1490.11 361.762 1490.35 362.179 1490.48 362.494C1491.3 363.846 1491.82 365.537 1492.11 367.025C1492.42 368.727 1493.15 370.406 1494.09 371.859C1496.18 374.754 1499.18 376.634 1501.85 378.424C1504.64 380.316 1507.63 381.981 1509.79 384.336C1510.93 385.563 1511.44 387.04 1512.38 388.493C1513.22 390.059 1514.04 391.411 1515.19 392.853C1516.23 394.194 1517.68 395.297 1519.23 396.074C1520.78 396.85 1522.52 397.401 1524.25 397.523C1525.87 397.759 1527.7 397.768 1529.41 397.676L1530.7 397.607L1531.88 397.651C1532.64 397.718 1533.5 397.887 1534.27 398.168C1537.54 399.067 1540.52 400.518 1543.5 401.97C1546.37 403.534 1549.36 405.2 1552.25 406.978C1558.02 410.535 1563.48 414.217 1569.05 418C1580 425.791 1590.75 434.021 1600.98 442.602C1611.33 451.285 1621.46 459.978 1630.78 469.574C1633.06 472.03 1635.22 474.384 1637.2 477.178C1639.06 479.871 1640.72 482.789 1642.38 485.707C1645.7 491.543 1648.6 497.617 1651.51 503.691C1663 527.884 1673.26 553.002 1684.24 577.545C1695.22 602.088 1706.53 626.721 1719.29 650.417C1722.51 656.366 1725.83 662.203 1729.15 668.039C1730.81 670.957 1732.78 673.751 1734.54 676.557L1737.24 680.816C1738.18 682.269 1739.22 683.609 1740.26 684.95C1748.04 696.024 1757.29 706.162 1767.63 714.844C1777.98 723.526 1789.64 730.742 1802.16 735.871C1808.42 738.435 1814.77 740.673 1821.2 742.584C1827.64 744.494 1834.18 746.292 1840.34 748.969C1843.8 749.428 1847.14 749.572 1850.44 749.073C1852.14 748.767 1853.85 748.461 1855.42 747.839C1857 747.218 1858.44 746.067 1859.32 744.409C1859.82 743.631 1860 742.977 1860.6 742.3C1861.11 741.735 1861.96 741.475 1862.69 741.114C1864.28 740.707 1865.88 740.514 1867.49 740.535C1870.83 740.678 1874.07 741.149 1877.45 741.935C1880.7 742.619 1883.87 743.631 1887.05 744.857C1888.59 745.419 1890.23 746.083 1891.56 746.871C1892 747.062 1892.23 747.265 1892.46 747.467C1892.91 747.873 1893.35 748.064 1893.89 748.143C1894.87 748.412 1895.83 748.254 1896.67 747.994C1898.36 747.473 1900.04 746.739 1901.37 745.487C1902.71 744.448 1904.02 742.767 1904.13 740.828C1904.18 739.859 1903.7 738.811 1903.12 738.09C1902.55 737.369 1901.77 736.873 1900.99 736.378C1900.21 735.883 1899.45 735.602 1898.57 735.219L1896.25 734.162C1890.4 731.146 1884.63 727.589 1879.05 723.806C1873.38 720.136 1867.91 716.241 1862.54 712.232C1851.7 704.328 1841.05 695.985 1830.82 687.404C1828.33 685.174 1825.75 683.057 1823.27 680.827C1822.03 679.712 1820.79 678.597 1819.54 677.482L1816.02 673.912C1815.46 673.405 1814.88 672.684 1814.42 672.065L1812.82 670.217L1811.22 668.37C1810.75 667.75 1810.18 667.029 1809.72 666.41L1806.81 662.377L1804.33 658.106C1803.97 657.374 1803.51 656.754 1803.03 655.921L1801.95 653.723L1799.67 649.227C1798.32 646.185 1796.98 643.142 1795.74 639.987C1794.49 636.832 1793.36 633.778 1792.22 630.51C1791.19 627.343 1789.95 624.187 1789.02 620.908C1785.01 608.128 1781.41 595.11 1777.71 582.206C1774.02 569.301 1770.32 556.397 1766.51 543.391L1754.77 504.713C1750.96 491.707 1747.26 478.802 1743.56 465.898C1739.86 452.994 1736.05 439.988 1731.61 427.231C1727.17 414.473 1722.2 401.852 1715.55 389.965C1708.9 378.078 1700.79 367.128 1691.14 357.441L1683.69 350.538C1682.45 349.423 1681.2 348.308 1679.75 347.205L1676.36 344.164ZM1687.08 576.427L1670.82 539.386C1665.43 527.002 1659.94 514.731 1654.13 502.583C1651.23 496.51 1648.11 490.448 1644.79 484.611C1643.13 481.693 1641.26 478.786 1639.28 475.992C1637.31 473.198 1635.02 470.529 1632.64 468.186C1623.1 458.601 1612.86 449.806 1602.31 441.35C1593.33 434.098 1584.26 427.173 1574.89 420.587C1583.13 424.119 1591.07 427.99 1598.72 432.413C1607.69 437.625 1616.18 443.614 1624.15 450.168C1632.13 456.722 1639.3 464.178 1645.95 472.198C1652.61 480.219 1659.27 488.239 1665.51 496.497C1668.53 500.631 1671.45 505.093 1673.53 509.814C1675.61 514.536 1676.84 519.518 1678.08 524.713C1680.25 535.015 1683.47 545.045 1686.89 554.85C1690.32 564.654 1693.96 574.447 1697.81 584.229C1699.79 589.063 1701.66 594.011 1703.74 598.732C1705.47 602.936 1707.3 607.026 1709.24 611.218C1710.52 619.097 1712.23 626.952 1714.26 634.684C1704.64 615.438 1695.76 596.045 1687.08 576.427ZM1682.5 352.534L1689.75 359.449C1699.17 368.933 1707.16 379.782 1713.59 391.466C1720.01 403.15 1724.97 415.558 1729.41 428.315C1733.74 440.971 1737.34 453.988 1741.04 466.892C1744.63 479.91 1748.33 492.814 1752.24 505.707L1764.08 544.273C1768 557.166 1771.69 570.07 1775.39 582.975C1779.09 595.879 1782.69 608.896 1787.03 621.766C1788.06 624.933 1789.2 628.201 1790.23 631.368C1791.25 634.535 1792.61 637.792 1793.74 640.846C1794.98 644.001 1796.44 647.145 1797.79 650.187L1800.07 654.683L1801.26 656.982C1801.62 657.714 1802.2 658.435 1802.56 659.168L1805.16 663.539L1808.17 667.674C1808.75 668.395 1809.11 669.127 1809.79 669.735L1811.5 671.684L1813.22 673.633C1813.79 674.354 1814.26 674.973 1814.93 675.582L1818.67 679.14C1819.81 680.368 1821.15 681.37 1822.39 682.485C1824.87 684.715 1827.46 686.832 1830.15 689.05C1840.6 697.62 1851.25 705.963 1862.29 713.642C1867.76 717.537 1873.34 721.32 1879.01 724.99C1884.68 728.66 1890.46 732.217 1896.53 735.221L1898.84 736.279C1899.6 736.56 1900.37 736.841 1901.04 737.235C1902.37 738.023 1903.61 739.138 1903.46 740.434C1903.43 741.832 1902.43 743.175 1901.19 744.1C1900.06 745.127 1898.5 745.963 1897.12 746.359C1896.38 746.506 1895.63 746.653 1894.88 746.586C1894.55 746.496 1894.22 746.406 1894 746.203C1893.66 745.899 1893.22 745.708 1892.88 745.404C1891.34 744.628 1889.69 743.964 1888.16 743.402C1884.88 742.289 1881.61 741.39 1878.35 740.705C1875.09 740.021 1871.63 739.561 1868.19 739.531C1866.48 739.622 1864.76 739.714 1863.07 740.234C1862.23 740.494 1861.49 740.856 1860.67 741.544C1859.95 742.12 1859.68 743.101 1859.29 743.766C1858.61 745.199 1857.27 746.237 1855.81 746.96C1854.34 747.683 1852.64 747.989 1850.94 748.294C1847.63 748.794 1844.2 748.763 1840.95 748.292C1834.78 745.401 1828.24 743.603 1821.9 741.58C1815.45 739.455 1809.1 737.217 1802.95 734.54C1790.63 729.185 1779.28 721.845 1769.05 713.264C1758.92 704.571 1749.89 694.422 1742.22 683.449C1741.18 682.108 1740.14 680.768 1739.32 679.416L1736.62 675.157C1736.27 674.639 1735.8 674.019 1735.56 673.388C1732.08 666.593 1728.7 659.686 1725.95 652.53C1722.72 644.326 1719.92 636.099 1717.75 627.624C1715.58 619.148 1713.72 610.549 1712.62 602.016L1712.12 598.713C1712.06 597.642 1711.89 596.47 1711.73 595.512L1711.06 588.997C1710.83 584.713 1710.38 580.227 1710.36 575.932C1710.35 573.677 1710.23 571.535 1710.33 569.382L1710.52 562.821C1710.62 560.668 1710.72 558.514 1710.92 556.248L1711.17 553.013L1711.43 549.777C1711.74 547.612 1711.84 545.459 1712.16 543.294L1713.1 536.8C1713.73 532.471 1714.78 528.118 1715.74 523.879C1719.66 506.808 1725.08 489.87 1726.5 472.181C1726.91 467.863 1726.89 463.354 1726.76 458.958C1726.42 454.573 1725.96 450.086 1725.19 445.724C1724.42 441.362 1723.22 437.023 1721.92 432.797C1720.62 428.571 1719.11 424.356 1717.28 420.266C1713.83 412.073 1709.65 404.242 1705.06 396.648C1700.46 389.054 1695.35 381.81 1689.72 374.916C1678.67 361.117 1665.86 348.593 1650.95 338.866C1643.49 334.003 1635.55 330.132 1627.23 327.141C1618.91 324.15 1610.11 322.366 1601.39 321.866L1601.3 322.193C1618.8 324.049 1635.28 331.113 1649.67 340.975C1656.91 345.85 1663.66 351.503 1669.78 357.619C1676.01 363.622 1681.95 370.177 1687.25 376.981C1692.77 383.774 1697.67 391.03 1702.25 398.409C1706.84 405.789 1711.12 413.507 1714.55 421.486C1717.98 429.464 1720.79 437.691 1722.64 446.29C1723.52 450.54 1724.07 454.913 1724.52 459.185C1724.75 463.469 1724.87 467.865 1724.67 472.172C1724.17 480.898 1722.71 489.568 1720.8 498.047C1718.89 506.526 1716.66 515.13 1714.54 523.621C1710.41 540.703 1707.7 558.247 1707.79 576.069C1707.71 580.477 1708.05 584.862 1708.29 589.36C1708.74 593.846 1708.97 598.13 1709.74 602.492C1710.97 611.34 1712.93 619.827 1715.21 628.404L1717.06 634.749L1719.21 640.97C1719.97 643.077 1720.73 645.185 1721.59 647.179C1722.45 649.174 1723.2 651.281 1724.06 653.276L1726.85 659.248C1727.1 659.879 1727.34 660.296 1727.69 660.814C1725.44 656.961 1723.29 652.995 1721.15 649.029C1718.99 644.848 1716.85 640.882 1714.69 636.702C1711.1 619.818 1708.68 602.763 1707.88 585.73C1706.8 567.638 1707.21 549.251 1707.21 531.101C1707.31 512.839 1706.86 494.498 1705.24 476.327C1704.79 471.84 1704.32 467.14 1703.65 462.665C1703.08 458.077 1702.42 453.603 1701.42 449.038C1700.54 444.574 1699.33 440.021 1697.81 435.806C1696.28 431.378 1694.34 427.186 1692.08 423.118C1687.47 415.096 1681.5 407.898 1674.93 401.591C1668.35 395.07 1661.38 389.214 1654.41 383.358C1647.33 377.615 1639.94 371.997 1631.86 367.382C1623.77 362.767 1615.1 359.258 1606.27 356.831C1588.49 351.662 1570.04 350.179 1551.74 349.441C1547.22 349.253 1542.6 349.178 1537.98 349.104C1533.36 349.029 1528.85 349.056 1524.24 349.195C1519.63 349.335 1515.03 349.688 1510.47 350.899C1508.25 351.554 1506.03 352.21 1503.94 353.182C1501.84 354.153 1499.86 355.226 1498 356.614L1498.23 356.817C1500.2 355.53 1502.18 354.457 1504.29 353.7C1506.4 352.943 1508.62 352.287 1510.85 351.845C1515.31 350.962 1519.81 350.721 1524.43 350.796C1528.94 350.769 1533.57 351.058 1538.09 351.245L1551.77 351.909C1560.92 352.386 1569.99 353.189 1578.86 354.432C1587.85 355.777 1596.84 357.336 1605.47 359.988C1607.65 360.516 1609.73 361.371 1611.92 362.113C1614.11 362.855 1616.19 363.71 1618.28 364.565C1620.27 365.533 1622.45 366.275 1624.34 367.355C1626.32 368.323 1628.42 369.392 1630.3 370.472C1638.17 374.884 1645.54 380.289 1652.6 385.817C1659.68 391.56 1666.75 397.303 1673.32 403.61C1679.89 409.917 1686.05 416.675 1690.75 424.371C1695.46 432.066 1698.5 440.71 1700.48 449.625C1702.46 458.54 1703.49 467.614 1704.3 476.7C1705.1 485.785 1705.27 494.905 1705.22 504.036C1705.18 513.168 1704.91 522.31 1704.86 531.442C1704.82 540.573 1704.55 549.716 1704.62 558.948C1704.79 568.068 1705.06 577.289 1705.66 586.386C1706.17 593.984 1707.12 601.559 1708.37 609.009C1701.92 590.775 1695.35 572.44 1689.11 554.194C1685.79 544.277 1682.37 534.472 1679.57 524.419C1678.13 519.449 1676.45 514.276 1674.16 509.566C1671.97 504.743 1669.16 500.383 1666.13 496.034C1663.11 491.685 1660.09 487.551 1657.07 483.202C1654.04 478.854 1651.03 474.719 1647.59 470.607C1641.13 462.361 1633.94 454.477 1625.85 447.822C1617.75 440.952 1608.85 435.2 1599.57 430.327C1590.84 425.747 1581.84 422.148 1572.56 419.315C1571.56 418.617 1570.55 417.919 1569.66 417.323C1564.09 413.54 1558.52 409.757 1552.74 406.2C1552.52 405.997 1552.3 406.009 1552.08 405.806C1554.19 405.049 1556.58 405.565 1558.46 406.646C1559.56 407.231 1560.57 407.929 1561.67 408.514C1562.68 409.212 1563.9 409.899 1565 410.484C1569.52 412.712 1574.34 414.387 1579.14 415.848C1583.95 417.31 1588.55 418.996 1593.16 420.897C1597.77 422.798 1602.18 424.925 1606.5 427.378C1610.82 429.832 1615.14 432.286 1619.16 435.078C1623.27 437.757 1627.2 440.876 1631.13 443.995C1638.76 450.245 1646.11 457.047 1652.74 464.639C1659.27 472.13 1665.08 480.41 1669.85 489.177C1674.71 497.83 1679.06 506.833 1683.19 515.848C1684.18 518.158 1685.26 520.355 1686.03 522.677C1686.8 524.999 1687.47 527.433 1688.24 529.755L1692.34 544.248C1693.78 549.004 1695.11 553.873 1696.98 558.606C1697.86 561.029 1698.84 563.339 1699.92 565.536C1701.01 567.733 1702.32 570.133 1704.12 571.755L1704.33 571.53C1702.62 569.795 1701.53 567.384 1700.66 565.175C1699.67 562.865 1698.91 560.543 1698.14 558.222C1696.7 553.466 1695.37 548.597 1694.14 543.829L1690.57 529.2C1689.9 526.766 1689.23 524.331 1688.57 521.897C1687.79 519.361 1686.8 517.051 1685.82 514.741C1683.85 510.121 1681.67 505.512 1679.29 501.129C1676.91 496.746 1674.31 492.374 1671.51 488.228C1668.81 483.969 1665.91 479.936 1662.9 475.802C1660 471.769 1656.99 467.634 1653.67 463.838C1647.45 456.009 1640.6 448.428 1633.05 441.852C1625.29 435.286 1617.24 429.274 1608.28 424.491C1603.75 422.049 1599.12 419.934 1594.41 418.145C1589.69 416.357 1584.78 414.795 1579.99 413.548C1575.19 412.301 1570.3 411.167 1565.79 409.153C1564.58 408.681 1563.59 408.197 1562.48 407.612C1561.38 407.026 1560.27 406.441 1559.17 405.856C1557.96 405.384 1556.76 404.911 1555.36 404.879C1554.17 404.835 1553 405.005 1551.96 405.705C1549.42 404.23 1546.87 402.756 1544.1 401.293C1541.01 399.74 1538.04 398.289 1534.77 397.39C1533.9 397.221 1533.13 396.94 1532.16 396.885L1530.76 396.852L1529.48 396.921C1527.76 397.013 1526.15 396.992 1524.53 396.756C1521.18 396.399 1518.1 395.06 1516.14 392.48C1515 391.252 1514.28 389.788 1513.45 388.436C1513.09 387.703 1512.73 386.971 1512.25 386.137L1511.66 384.988L1510.74 383.963C1508.35 381.406 1505.46 379.627 1502.57 377.849C1499.79 375.957 1497 374.066 1495.04 371.486C1494 370.146 1493.49 368.669 1493.2 367.182C1492.89 365.48 1492.37 363.789 1491.53 362.223C1491.17 361.49 1490.6 360.77 1490.79 360.33C1490.87 359.789 1491.59 359.213 1492.21 358.75C1493.55 357.712 1494.79 356.786 1496.24 355.849L1504.63 350.137C1510.23 346.401 1516.08 343.295 1522.27 340.494C1528.45 337.693 1534.55 335.218 1540.99 333.048C1553.64 328.719 1566.79 325.652 1580.12 323.757C1593.34 321.975 1606.97 321.782 1620.16 323.439C1626.76 324.267 1633.39 325.738 1639.61 327.66C1641.14 328.222 1642.78 328.671 1644.31 329.234L1649.03 331.022C1652.11 332.36 1655.18 333.699 1658.06 335.263C1663.93 338.494 1669.49 342.062 1674.55 346.409L1678.48 349.528C1680.02 350.304 1681.37 351.306 1682.5 352.534Z" fill="#FFFDFB"/>
  <path d="M1473.51 411.299C1470.43 409.12 1467.14 407.182 1463.67 405.705L1453.69 401.014C1440.65 394.365 1428.37 386.314 1416.37 377.682C1404.38 369.049 1392.99 359.696 1381.7 350.223C1370.41 340.75 1359.52 330.797 1348.03 321.564L1343.72 318.157L1339.32 314.87C1337.88 313.66 1336.24 312.691 1334.81 311.703L1332.45 310.129C1331.63 309.644 1330.81 309.16 1329.88 308.795C1326.6 306.857 1323.15 305.601 1319.6 304.465C1316.05 303.329 1312.3 302.433 1308.43 302.661C1306.54 302.714 1304.47 303.229 1302.82 304.709C1301.99 305.449 1301.53 306.491 1301.28 307.514C1301.04 308.537 1301.14 309.642 1301.33 310.626C1301.73 312.595 1302.55 314.304 1303.58 315.994C1304.5 317.583 1305.64 319.152 1306.78 320.722C1309.04 323.64 1311.62 326.419 1314.4 328.958L1318.3 332.846C1319.64 334.175 1320.76 335.524 1322 336.973C1331.54 348.046 1339.22 360.84 1344.86 374.369C1346.37 377.686 1347.47 381.263 1348.98 384.58L1353.32 394.773C1356.25 401.528 1359.08 408.403 1362.01 415.157L1371.33 435.263C1372.85 438.581 1374.36 441.898 1376 445.316L1380.98 455.23L1385.97 465.143L1388.4 470.05L1389.61 472.503L1390.93 474.836L1401.65 494.264L1404.3 499.151L1407.15 503.798L1412.88 513.312L1418.61 522.827C1420.55 525.885 1422.61 529.043 1424.76 532.082L1430.92 541.337C1432.97 544.495 1434.91 547.553 1437.17 550.472L1450.1 568.482L1463.75 585.872C1466.01 588.791 1468.47 591.469 1470.95 594.368L1478.24 602.743C1497.98 624.832 1519.37 645.44 1542.66 663.545L1544.82 665.359L1547.08 667.053L1551.49 670.34L1560.52 676.895L1569.73 682.989C1572.8 684.946 1575.88 687.125 1579.05 688.962L1588.56 694.695C1590.21 695.664 1591.73 696.533 1593.37 697.502L1598.28 700.188C1604.71 703.743 1611.35 707.058 1617.98 710.372C1631.33 716.661 1644.96 722.368 1658.96 727.152C1672.95 731.937 1687.21 735.92 1701.63 739.221C1705.72 740.198 1709.8 740.955 1713.77 741.831C1714.69 742.196 1715.59 742.339 1716.52 742.704L1716.6 742.363C1718.86 742.832 1721.01 743.201 1723.28 743.67C1730.52 745.04 1737.86 746.289 1745.02 747.999C1748.55 748.915 1752.02 750.392 1755.27 751.888C1758.64 753.486 1761.9 755.203 1764.77 757.401C1766.21 758.61 1767.53 759.719 1768.67 761.288C1769.58 762.877 1770.82 764.327 1772.47 765.296C1774.11 766.265 1775.93 766.773 1777.82 766.719C1779.71 766.665 1781.54 765.949 1782.99 764.709C1785.89 762.23 1787.46 758.642 1788.04 755.03C1788.49 751.318 1788.39 747.544 1787.51 743.947C1786.86 740.332 1784.23 736.89 1780.46 735.773C1779.53 735.409 1778.63 735.265 1777.73 735.122C1776.83 734.978 1775.92 734.835 1774.92 734.811C1773.13 734.745 1771.25 734.799 1769.36 734.853C1762.05 735.27 1754.58 736.369 1747.27 736.786C1739.86 737.323 1732.51 737.298 1725.21 736.49C1717.9 735.682 1710.64 734.092 1703.75 731.58C1702.02 730.952 1700.4 730.203 1698.67 729.575C1697.05 728.827 1695.31 727.978 1693.68 727.23C1692.16 726.361 1690.42 725.512 1688.89 724.644C1688.07 724.159 1687.37 723.776 1686.65 723.171L1684.51 721.578C1678.76 716.961 1673.94 711.485 1669.22 705.888C1664.61 700.172 1660.19 694.215 1656 688.238C1647.58 676.065 1639.72 663.733 1632.05 651.16C1625.68 640.7 1619.43 630.341 1613.29 619.861C1620.7 630.787 1628.43 641.573 1636.58 652.099C1645.24 663.25 1653.99 674.28 1663.8 684.551C1668.7 689.687 1673.8 694.582 1679.2 699.117C1684.71 703.532 1690.54 707.807 1697.33 710.44C1710.67 715.283 1724.04 719.343 1737.64 723.383C1744.38 725.353 1751.22 727.203 1758.04 728.832C1761.45 729.647 1764.86 730.461 1768.27 731.276L1773.48 732.377L1776.09 732.928L1777.33 733.153L1778.02 733.316L1778.36 733.398C1778.48 733.498 1778.8 733.359 1778.8 733.359C1778.68 733.258 1778.56 733.157 1778.34 733.177C1775.63 731.521 1772.93 729.866 1770.1 728.11C1768.58 727.242 1767.16 726.253 1765.64 725.385L1761.39 722.641C1755.62 719.028 1750.15 715.055 1744.59 711.202C1739.02 707.349 1733.65 703.256 1728.19 699.282L1712.07 686.782C1690.89 669.828 1670.41 652.033 1650.86 633.378C1631.09 614.742 1612.04 595.487 1594.43 574.771C1585.63 564.523 1577.24 553.795 1569.26 542.808L1563.41 534.417C1562.65 533.371 1562.01 532.425 1561.25 531.379C1554.85 520.477 1548.22 509.594 1541.49 498.832C1533.6 486.278 1525.61 473.846 1517.1 461.792C1508.59 449.739 1499.76 437.825 1489.56 426.81C1485.04 420.973 1479.68 415.656 1473.51 411.299ZM1630.02 652.117C1637.91 664.67 1646 676.983 1654.51 689.036C1658.82 695.113 1663.34 700.95 1668.06 706.547C1672.9 712.244 1677.94 717.701 1683.68 722.318L1685.95 724.012C1686.67 724.616 1687.59 724.981 1688.41 725.465C1690.05 726.434 1691.68 727.183 1693.42 728.032C1695.04 728.78 1696.79 729.629 1698.51 730.257C1700.24 730.885 1701.96 731.513 1703.68 732.142C1710.68 734.534 1718.04 736.004 1725.35 736.812C1732.75 737.499 1740.2 737.404 1747.49 736.766C1754.9 736.229 1762.15 735.15 1769.56 734.612C1771.33 734.458 1773.21 734.404 1775.12 734.571C1776.12 734.594 1777.03 734.738 1777.81 734.781C1778.71 734.924 1779.62 735.068 1780.54 735.432C1784.07 736.348 1786.69 739.568 1787.34 743.184C1788.09 746.68 1788.32 750.555 1787.84 754.046C1787.27 757.657 1785.79 761.125 1783.11 763.585C1781.76 764.705 1779.93 765.421 1778.17 765.576C1776.4 765.731 1774.58 765.223 1772.93 764.254C1771.29 763.284 1770.17 761.936 1769.25 760.347C1768.11 758.777 1766.77 757.448 1765.45 756.339C1762.47 754.04 1759.2 752.323 1755.83 750.726C1752.47 749.129 1749.12 747.752 1745.47 746.736C1738.31 745.026 1730.97 743.776 1723.72 742.407C1720.33 741.813 1716.92 740.999 1713.63 740.285C1703.25 736.075 1693.69 729.9 1684.97 722.985C1680.06 719.074 1675.48 715.023 1670.98 710.632C1666.47 706.24 1662.19 701.83 1658.11 697.179C1641.25 678.734 1626.67 658.309 1612.83 637.485C1605.9 626.963 1599.41 616.402 1593.32 605.36C1590.29 599.95 1587.46 594.3 1584.63 588.649C1581.79 582.999 1579.08 577.449 1576.47 571.779C1567.78 553.844 1559.09 535.908 1550.6 517.732C1554.51 524.29 1558.54 530.948 1562.46 537.505C1577.59 562.89 1592.17 588.434 1607.31 613.819C1614.47 626.992 1622.13 639.564 1630.02 652.117ZM1581.15 559.128C1585.19 564.562 1589.65 569.736 1594.01 575.031C1611.52 595.867 1629.86 615.963 1649.43 634.839C1668.9 653.834 1689.7 671.49 1711.08 688.204C1716.34 692.417 1722.03 696.371 1727.4 700.464C1732.97 704.317 1738.43 708.29 1744.12 712.244C1749.79 715.977 1755.36 719.83 1761.33 723.202L1765.67 725.827C1767.2 726.695 1768.5 727.583 1770.12 728.331C1772.81 729.765 1775.71 731.18 1778.64 732.816L1777.96 732.653L1776.71 732.428L1774.11 731.878L1768.99 730.656C1765.58 729.841 1762.15 728.806 1758.84 727.871C1752.1 725.901 1745.37 723.931 1738.61 721.741C1725.21 717.46 1711.9 712.838 1698.79 707.976C1692.45 705.525 1686.85 701.23 1681.56 696.796C1676.28 692.362 1671.27 687.346 1666.59 682.192C1657.01 671.901 1648.16 660.991 1639.62 649.942C1622.64 627.501 1606.92 604.282 1591.6 580.583C1588.88 576.258 1586.17 571.933 1583.47 567.828C1578.64 559.682 1574.03 551.516 1569.2 543.37C1571 546.106 1573.12 548.703 1575.24 551.299L1581.15 559.128ZM1487.93 428.511C1497.89 439.324 1506.6 451.137 1515.11 463.191C1526.06 478.926 1536.26 495.06 1546.36 511.314C1549.87 520.801 1553.79 530.029 1557.83 539.357C1562.95 550.816 1568.29 562.257 1574.16 573.317C1580.02 584.378 1586.21 595.299 1592.5 606.1C1598.68 617.022 1604.87 627.943 1611.38 638.725C1617.88 649.507 1624.59 660.048 1631.95 670.311C1635.62 675.442 1639.4 680.454 1643.28 685.345C1647.16 690.236 1651.25 695.108 1655.55 699.74C1664.16 709.003 1673.26 717.665 1683.49 725.228C1691.34 730.996 1699.8 736.043 1708.78 739.486C1706.51 739.016 1704.47 738.528 1702.3 737.938C1687.98 734.517 1673.8 730.194 1659.9 725.289C1646.11 720.264 1632.58 714.437 1619.33 708.028C1612.8 704.593 1606.19 701.5 1599.84 697.604C1596.67 695.767 1593.4 694.049 1590.34 692.092L1580.92 686.238C1577.76 684.401 1574.67 682.222 1571.71 680.145L1562.6 673.931L1553.79 667.357L1549.38 664.07L1547.12 662.376L1544.96 660.562C1521.77 642.337 1500.3 622.069 1480.8 600.183L1473.5 591.807C1471.14 589.009 1468.56 586.23 1466.43 583.412L1452.57 566.262L1439.44 548.492C1437.19 545.574 1435.25 542.516 1433.09 539.477L1426.84 530.342C1410.56 505.837 1395.53 480.332 1382.43 453.99L1377.34 444.197C1375.61 440.899 1374.2 437.461 1372.58 434.264L1363.25 414.158C1360.33 407.403 1357.5 400.528 1354.69 393.874L1350.35 383.682C1348.83 380.364 1347.74 376.787 1346.33 373.35C1340.57 359.72 1332.99 346.807 1323.43 335.513C1322.19 334.063 1321.07 332.714 1319.73 331.385L1315.83 327.497C1313.27 324.939 1310.69 322.16 1308.55 319.343C1307.43 317.994 1306.51 316.405 1305.59 314.816C1304.68 313.227 1303.98 311.619 1303.6 309.871C1303.43 309.108 1303.35 308.224 1303.61 307.422C1303.78 306.74 1304.16 306.039 1304.66 305.438C1305.79 304.338 1307.54 303.962 1309.2 303.928C1312.76 303.839 1316.29 304.755 1319.72 305.79C1323.15 306.826 1326.61 308.303 1329.66 310.039C1330.48 310.524 1331.28 310.788 1332 311.392L1334.25 312.865C1335.79 313.954 1337.31 314.823 1338.75 316.032L1343.16 319.319L1347.36 322.846C1358.75 332.199 1369.64 342.153 1380.83 351.746C1403.21 370.932 1426.53 389.48 1453 403.3L1463.1 408.092C1466.35 409.588 1469.4 411.325 1472.36 413.403C1477.66 418.058 1482.79 423.174 1487.93 428.511Z" fill="#FFFDFB"/>
  <path d="M190.054 -7.85908C183.902 -6.36802 178.006 -4.2847 172.168 -1.52371C166.387 1.09592 161.004 4.36371 155.933 8.0824C145.649 15.4637 136.671 24.507 128.854 34.3369C121.036 44.1668 114.324 54.9249 108.405 66.1604C102.541 77.2544 97.6113 88.8818 93.5304 100.845C91.5179 106.756 89.7323 112.92 88.427 119.111C87.8731 122.164 87.1218 125.302 87.2751 128.634C87.337 130.131 87.3988 131.628 86.7535 132.845L86.5561 132.931L86.4441 133.214L86.3881 133.355C85.7134 134.233 84.6703 134.802 83.4003 135.117C80.436 135.58 77.3834 135.026 74.2747 134.613C71.222 134.059 68.1693 133.505 64.9192 133.037C61.8105 132.624 58.7018 132.212 55.4812 132.082C52.2606 131.953 48.9869 132.784 46.0256 134.065C40.1029 136.629 35.1468 140.884 30.7564 145.363C26.366 149.842 22.6268 154.742 19.1145 159.896C14.9922 160.391 11.4416 162.748 8.73954 165.441C5.92557 168.417 3.70682 171.956 2.25123 175.634C-0.659939 182.988 -4.78801 189.698 -9.05758 196.351C-13.3272 203.005 -17.8796 209.546 -22.4321 216.088C-23.5842 217.759 -24.7363 219.429 -25.7469 221.156C-26.7576 222.883 -27.9097 224.553 -28.6935 226.534C-29.1414 227.665 -29.1089 228.823 -29.218 229.925C-29.1295 230.942 -29.0411 231.958 -28.8113 233.031C-28.437 234.979 -27.9214 236.982 -27.2083 238.9C-24.4974 246.517 -20.9407 253.651 -16.397 260.358C-14.1251 263.711 -11.5999 266.837 -8.22896 269.48C-7.86063 269.789 -7.35087 270.155 -6.92656 270.323L-5.76556 271.11C-5.0289 271.728 -4.23626 272.206 -3.5556 272.966C-2.08228 274.203 -0.664953 275.582 0.554958 277.047C5.77344 282.875 10.4851 289.157 14.8874 295.808L15.0583 296.203L14.7754 296.091L9.48334 293.342L-1.04491 287.702C-15.0826 280.182 -28.8669 272.436 -42.6512 264.689C-56.5209 256.745 -70.7266 249.65 -85.5775 243.772C-92.9323 240.861 -100.596 238.318 -108.455 236.679C-110.406 236.235 -112.412 235.931 -114.475 235.769C-116.538 235.607 -118.656 235.586 -120.801 236.046C-121.874 236.276 -123.002 236.647 -124.016 237.555C-124.523 238.008 -124.888 238.518 -125.31 239.17L-125.533 239.735C-125.589 239.877 -125.645 240.018 -125.899 240.245C-126.883 241.491 -128.489 242.655 -130.18 243.622C-133.563 245.555 -137.117 247.093 -140.812 248.575C-144.507 250.057 -148.231 251.201 -152.012 252.485C-159.517 254.914 -167.192 256.947 -174.954 258.783C-182.715 260.618 -190.42 262.313 -198.129 263.188C-200.076 263.562 -202.11 263.739 -204.169 264.396C-205.156 264.823 -206.341 265.336 -207.213 266.3C-208.085 267.263 -208.533 268.395 -208.784 269.441C-209.284 271.533 -209.305 273.651 -209.411 275.573C-209.376 277.55 -209.34 279.527 -209.502 281.59C-209.432 285.544 -209.417 289.64 -208.866 293.621C-208.315 297.601 -207.566 301.497 -206.479 305.363C-204.446 313.039 -201.396 320.626 -198.178 327.789C-195.016 335.094 -191.262 342.142 -187.65 349.134C-183.896 356.183 -180.086 363.089 -176.276 369.996C-174.343 373.379 -172.466 376.903 -170.25 380.398C-167.978 383.751 -165.453 386.877 -162.674 389.777C-157.117 395.575 -150.434 400.184 -143.303 403.661C-128.956 410.812 -112.873 413.579 -97.0794 414.595C-89.1118 415.131 -81.2032 414.99 -73.209 415.046C-72.2484 415.099 -71.2318 415.01 -70.2712 415.064C-69.3106 415.117 -68.406 415.311 -67.304 415.42C-65.2414 415.582 -63.2937 415.208 -61.402 414.975C-57.4211 414.424 -53.6112 413.478 -49.8012 412.532C-42.0399 410.696 -34.5055 408.607 -26.6587 406.969C-22.7633 406.22 -18.8678 405.472 -14.9989 405.204C-12.9658 405.027 -10.9886 404.991 -9.12338 405.239C-8.16278 405.292 -7.17278 405.684 -6.21218 405.737C-5.30757 405.931 -4.20551 406.04 -3.24491 406.093C4.77869 406.488 12.599 405.33 20.5342 404.708C24.4031 404.44 28.4133 404.228 32.3971 404.496C34.3183 404.602 36.325 404.906 38.1637 405.633C39.0123 405.969 39.9464 406.503 40.4856 407.207C41.1663 407.967 41.4521 408.898 41.3991 409.859C41.4463 415.113 43.4707 420.331 46.3672 424.586C49.4052 428.897 53.2034 432.527 57.311 435.789C61.4186 439.051 65.8916 441.803 70.4765 444.272C75.0614 446.741 79.8998 448.983 84.7646 450.745C85.6692 450.94 86.294 451.842 86.5238 452.914C86.8096 453.845 86.8421 455.003 86.9305 456.02C87.0513 458.194 86.8892 460.257 86.5298 462.405C86.0083 466.616 85.2894 470.912 84.2876 475.096C82.5668 483.576 80.4218 491.889 78.1353 500.145L71.5027 525.168C70.5009 529.352 69.3576 533.48 68.7801 537.832C68.5621 540.036 68.5415 542.155 68.8038 544.386C68.9246 546.56 69.3843 548.705 69.7025 550.794C71.3999 559.319 74.5646 567.443 78.1802 575.254C81.9932 582.98 86.7373 590.42 92.3535 596.897C98.1113 603.429 104.827 609.196 112.609 613.094C116.542 615.142 120.812 616.341 125.164 616.919C129.516 617.496 134.007 617.311 138.327 616.73C147.022 615.428 155.231 612.46 163.043 608.845C170.854 605.229 178.409 601.021 186.02 596.672C193.434 592.408 200.903 588.003 208.488 584.134C212.351 582.227 216.214 580.321 219.991 578.217C223.769 576.113 227.376 573.614 230.982 571.116C238.054 566.062 244.813 560.558 250.978 554.491C257.142 548.424 262.994 541.906 267.968 534.713C269.176 532.901 270.384 531.089 271.365 529.023C271.898 528.089 272.346 526.958 272.879 526.023C273.271 525.033 273.775 523.76 273.884 522.658C274.356 520.227 273.867 517.743 272.927 515.572C271.987 513.4 270.596 511.541 269.149 509.823C266.255 506.387 262.743 503.688 259.175 501.131C257.362 499.923 255.55 498.714 253.682 497.648C255.857 497.527 258.031 497.406 260.262 497.144C264.526 496.705 268.845 496.124 273.08 495.346C281.634 493.988 289.961 492.376 298.459 491.159C300.548 490.841 302.637 490.522 304.756 490.543C305.094 490.514 306.055 490.567 306.647 490.31C307.183 490.195 307.917 489.995 308.509 489.739C309.638 489.367 310.681 488.799 311.583 488.174C315.416 485.929 318.796 483.176 322.176 480.424C328.794 474.864 334.958 468.797 340.981 462.674C347.004 456.551 352.8 450.174 358.51 443.6C359.945 442.041 361.294 440.285 362.644 438.529C363.993 436.773 365.202 434.961 366.41 433.149C368.684 429.468 370.732 425.535 372.583 421.686C374.433 417.838 376.198 413.792 378.275 410.197C378.809 409.263 379.286 408.471 379.961 407.592C380.58 406.856 381.198 406.119 381.847 405.721L382.044 405.636C382.241 405.551 382.439 405.465 382.692 405.238C383.143 404.926 383.453 404.558 383.565 404.275C383.986 403.623 384.266 402.916 384.348 402.295C384.655 401.107 384.678 399.808 384.787 398.706C384.799 394.129 384.021 389.895 383.243 385.661C382.58 381.963 381.72 378.35 380.718 374.682C388.311 373.27 395.731 370.645 402.496 366.779C409.854 362.657 416.36 357.379 422.129 351.483C433.724 339.549 442.457 325.337 449.438 310.596C453.027 303.182 456.191 295.6 459.073 287.907L461.171 282.193L462.291 279.364C462.683 278.374 462.989 277.187 463.239 276.141C463.958 271.845 463.661 267.637 463.307 263.571C462.458 255.382 460.932 247.252 459.152 239.35C457.372 231.447 455.31 223.432 453.332 215.615C452.301 211.607 451.214 207.741 450.324 203.79C450.038 202.859 449.95 201.842 449.664 200.911C449.549 200.375 449.519 200.036 449.404 199.5L449.345 198.822L449.201 197.947C448.656 195.604 447.321 193.604 445.621 192.113C442.418 189.045 438.484 186.997 434.553 185.769C430.425 184.626 426.017 184.19 421.783 184.967C419.694 185.286 417.634 185.943 415.604 186.939C414.617 187.366 413.715 187.991 412.728 188.418C411.882 188.901 411.037 189.384 410.191 189.868C406.723 191.603 402.771 192.493 398.932 193.1C390.97 194.202 382.92 194.288 374.673 194.459C366.567 194.686 358.375 194.715 350.186 195.564C346.12 195.918 341.998 196.413 337.849 197.388C333.7 198.364 329.92 199.648 326.027 201.216C318.384 204.407 311.224 208.444 304.234 212.876C298.288 216.739 292.513 220.997 287.05 225.706C288.93 214.343 290.809 202.981 291.502 191.313C291.847 185.069 291.823 178.516 290.868 172.248C290.32 169.086 289.574 166.01 288.631 163.019C287.915 160.282 288.328 157.173 289.165 154.233C290.697 148.295 293.417 142.664 296.136 137.033L300.456 128.6C301.914 125.742 303.317 123.025 304.407 119.857C304.882 118.246 305.356 116.634 304.982 114.686C304.696 113.755 304.127 112.712 303.137 112.32C302.203 111.787 301.242 111.734 300.423 111.737C296.949 111.834 293.988 113.116 291.083 114.256L289.954 114.627L289.757 114.713L289.813 114.571C289.783 114.233 289.895 113.95 289.922 113.469C290.199 111.943 290.617 110.473 291.035 109.002C291.872 106.062 293.048 103.091 294.082 100.065C298.446 88.2139 303.178 76.672 306.835 64.5408C307.869 61.5146 308.393 58.1231 307.845 54.9615C307.495 51.7143 306.269 48.6115 304.734 45.8771C301.578 40.2108 297.013 35.6229 291.83 31.7718C286.789 27.9766 281.128 24.9181 275.02 22.9911C273.549 22.5727 271.938 22.0983 270.411 21.8213C269.648 21.6829 268.885 21.5444 268.122 21.4059C267.415 21.126 266.651 20.9874 266 20.5661C263.227 19.305 260.735 17.3367 258.186 15.5098C253.144 11.7147 248.356 7.69261 243.117 3.98285C237.963 0.470551 232.415 -2.87087 226.474 -5.22221C220.534 -7.57354 214.399 -9.02022 208.014 -9.4209C202.645 -9.91002 196.348 -9.29409 190.054 -7.85908ZM87.5491 134.142C87.6051 134 87.6611 133.859 87.8585 133.773C87.9999 133.829 88.1974 133.744 88.1974 133.744L89.2139 133.655L91.2471 133.479L95.4254 132.842L95.7642 132.813C92.8854 133.473 90.2041 134.047 87.2692 134.849C87.5226 134.622 87.5786 134.481 87.5491 134.142ZM58.6369 435.332C54.4734 432.212 50.6752 428.581 47.7786 424.326C44.8821 420.072 42.8017 414.995 42.6986 409.882C42.6101 408.866 42.3803 407.793 41.6997 407.033C41.019 406.273 40.0849 405.739 39.2363 405.403C37.3975 404.676 35.3909 404.372 33.3283 404.21C29.3444 403.942 25.3342 404.154 21.4653 404.422C13.5861 404.903 5.62436 406.005 -2.2578 405.666C-3.21839 405.613 -4.17902 405.56 -5.22507 405.31C-6.12968 405.115 -7.17567 404.865 -8.13627 404.812C-10.1429 404.508 -12.1201 404.544 -14.1532 404.72C-18.1636 404.933 -22.059 405.681 -25.9544 406.43C-33.8011 408.068 -41.4771 410.101 -49.097 411.993C-52.907 412.939 -56.8583 413.829 -60.6978 414.436C-62.6454 414.81 -64.6786 414.987 -66.5998 414.881C-67.5604 414.828 -68.6064 414.577 -69.567 414.524C-70.5276 414.471 -71.4881 414.418 -72.5047 414.507C-80.4989 414.451 -88.4075 414.592 -96.3192 413.915C-112.113 412.898 -127.942 409.905 -142.092 402.668C-149.167 399.049 -155.708 394.497 -161.124 388.754C-163.761 385.911 -166.287 382.784 -168.417 379.487C-170.547 376.19 -172.424 372.666 -174.301 369.142C-178.111 362.235 -181.866 355.187 -185.478 348.194C-189.091 341.202 -192.647 334.068 -195.809 326.764C-202.189 312.296 -207.272 297.033 -206.538 281.127C-206.574 279.15 -206.609 277.173 -206.503 275.251C-206.397 273.33 -206.432 271.353 -205.902 269.6C-205.707 268.695 -205.427 267.988 -204.865 267.393C-204.302 266.798 -203.654 266.4 -202.778 266.255C-201.058 265.628 -199.025 265.451 -197.133 265.218C-189.227 264.257 -181.38 262.619 -173.619 260.783C-165.858 258.947 -158.182 256.914 -150.535 254.542C-146.755 253.257 -143.03 252.114 -139.194 250.688C-135.499 249.206 -131.804 247.724 -128.168 245.564C-126.42 244.456 -124.673 243.348 -123.126 241.506C-122.873 241.279 -122.761 240.996 -122.649 240.713L-122.369 240.006C-122.257 239.723 -122.003 239.497 -121.75 239.27C-121.243 238.816 -120.454 238.474 -119.578 238.33C-117.828 238.041 -115.992 237.949 -114.127 238.197C-112.206 238.303 -110.255 238.748 -108.39 238.995C-100.673 240.578 -93.2062 243.206 -85.9929 246.061C-71.2834 251.884 -57.0218 258.837 -43.2935 266.725C-29.5652 274.613 -15.5836 282.274 -1.54588 289.794L8.98246 295.434L14.2745 298.183L15.6329 298.884C15.7744 298.94 16.4256 299.361 16.9619 299.246C17.4982 299.132 18.0344 299.017 18.3998 298.507C14.4662 304.312 11.496 310.989 10.3911 317.913C9.2538 323.68 8.87966 329.585 8.70291 335.404C8.38473 341.168 8.20797 346.987 8.03123 352.807L7.50096 370.266C7.48331 373.203 7.32421 376.085 7.30656 379.023C7.36846 380.52 7.51583 382.214 8.53832 383.764C9.47536 385.116 10.8633 386.157 12.0242 386.943C22.0162 392.698 31.195 400.094 41.3284 405.904L41.4404 405.622C31.6723 399.301 23.0003 391.451 12.9788 385.358C11.8179 384.571 10.8544 383.699 10.1442 382.6C9.57552 381.557 9.40168 380.343 9.48123 378.902L9.95842 370.257L10.7716 352.91C11.0898 347.146 11.2664 341.327 11.4432 335.507C11.6199 329.688 11.5992 323.954 12.5392 318.273C13.3376 312.536 15.0408 306.993 17.8194 302.04C20.598 297.087 24.1692 292.611 28.5625 288.951L44.0529 291.974C46.6253 292.501 49.2271 293.368 50.6179 295.227C51.2426 296.129 51.4164 297.343 50.9686 298.474C50.7181 299.52 49.902 300.342 48.9414 300.289L48.1222 300.292L48.2106 301.309C48.576 308.652 48.8856 316.136 49.3924 323.535L50.6302 345.62C50.6361 347.258 50.2442 348.248 48.8357 349.327C48.1315 349.866 47.4273 350.405 46.7231 350.944C45.9629 351.625 45.2586 352.164 44.4984 352.845C41.7964 355.538 39.4627 358.541 36.8726 360.951C35.6056 362.086 34.1971 363.164 32.7592 363.904C31.3213 364.643 29.7684 364.847 28.1301 364.852C26.2944 364.944 24.2877 364.64 21.9746 365.524C20.9316 366.093 19.8885 366.662 19.1577 367.681C18.4269 368.701 18.0085 370.171 18.4093 371.639L20.8698 380.302L21.5151 371.232C21.5416 370.752 21.6536 370.469 21.907 370.242C22.1604 370.015 22.6112 369.703 23.1474 369.588C24.22 369.358 25.378 369.325 26.3121 369.859C27.1607 370.195 28.0682 371.208 28.7224 372.449C29.4326 373.548 29.8893 374.874 30.2901 376.341C30.7468 377.667 31.1476 379.135 31.6898 380.658C32.288 382.04 32.8861 383.422 33.6257 384.86C35.0195 387.538 36.6667 389.99 38.4553 392.497C42.003 397.174 46.0016 401.537 49.5494 406.214C53.0971 410.89 56.1941 415.879 57.7116 421.551L58.0505 421.521C57.1252 415.593 54.1961 410.18 50.8458 405.418C47.5515 400.515 43.6089 396.01 40.456 391.163C38.8088 388.711 37.3031 386.315 36.0507 383.693C35.3966 382.452 34.9399 381.126 34.3417 379.744C33.8849 378.419 33.4282 377.093 33.0275 375.625C32.6267 374.158 32.226 372.69 31.3449 371.196C31.0032 370.407 30.4639 369.703 29.8686 369.14C29.5003 368.83 29.1879 368.379 28.8196 368.07C30.6553 367.979 32.6031 367.605 34.3799 366.835C36.2127 365.925 37.8746 364.62 39.339 363.4C42.1824 360.762 44.3747 357.704 46.8233 355.237C47.3861 354.642 48.1463 353.962 48.7945 353.564C49.3013 353.11 49.8082 352.656 50.4564 352.258C51.6203 353.864 53.1791 355.299 55.0472 356.366C56.9154 357.433 58.9809 358.414 61.0171 359.056C65.0893 360.341 69.3295 361.201 73.5137 362.203C77.6124 363.007 81.8525 363.868 85.3619 365.748C88.9568 367.825 92.2423 370.271 95.4159 372.999C101.707 378.598 107.182 385.018 112.995 391.409C115.86 394.506 118.865 397.659 122.18 400.444C125.071 403.06 128.271 405.308 131.724 407.33C130.089 408.155 128.766 409.431 127.726 410.819C126.518 412.631 125.734 414.611 125.233 416.703C124.287 420.746 123.71 425.098 121.32 428.242C120.224 429.771 118.477 430.879 116.67 431.309C114.864 431.739 113.111 431.209 112.118 429.998C110.983 428.731 110.609 426.783 109.613 424.753C109.1 423.569 108.334 422.611 107.315 421.88C106.295 421.149 104.937 420.448 103.384 420.652C102.706 420.711 101.917 421.052 101.212 421.592C100.705 422.045 100.284 422.697 99.9188 423.206C99.3295 424.282 99.079 425.328 98.7726 426.515C98.2716 428.607 98.0536 430.811 97.8916 432.874L97.6205 436.039L97.485 437.621C97.4025 438.243 97.376 438.723 97.3495 439.203C97.1875 441.266 97.0254 443.329 96.439 445.223C95.8526 447.118 94.6151 448.591 92.7529 449.163C90.8906 449.735 88.828 449.573 86.8214 449.269C82.7786 448.323 79.0718 446.529 75.2235 444.678L75.1115 444.961C75.7627 445.383 76.4139 445.804 76.9797 446.028C75.4799 445.271 73.98 444.513 72.4802 443.756C67.0761 441.29 62.6031 438.538 58.6369 435.332ZM243.459 4.77255C248.612 8.28484 253.4 12.3069 258.386 16.2435C260.879 18.2118 263.428 20.0387 266.483 21.4118C267.191 21.6917 268.039 22.0276 268.746 22.3075C269.454 22.5874 270.414 22.6405 271.177 22.7789C272.704 23.0559 274.174 23.4744 275.645 23.8927C281.611 25.7638 287.13 28.7663 292.031 32.5055C296.931 36.2447 301.551 40.6911 304.48 46.104C306.015 48.8384 307.014 51.6877 307.477 54.652C307.884 57.7578 307.386 60.669 306.407 63.5537C302.665 75.4875 297.877 87.1708 293.513 99.0221C292.479 102.048 291.359 104.877 290.467 107.959C290.048 109.43 289.574 111.041 289.297 112.568C289.27 113.048 289.158 113.331 289.132 113.811C289.217 114.009 289.105 114.292 289.135 114.63C289.079 114.772 289.22 114.828 289.164 114.969C285.835 115.942 282.449 117.055 279.119 118.028C271.67 120.315 264.165 122.743 256.802 125.227C249.438 127.711 242.075 130.195 234.599 132.962C231.355 134.131 227.999 135.584 224.926 137.149C219.987 138.466 215.22 140.178 210.537 142.088C205.602 144.224 200.61 146.502 195.902 148.891C191.137 151.423 186.372 153.954 181.835 156.738C177.297 159.523 172.703 162.449 168.251 165.431C167.152 166.141 165.997 166.993 165.069 168.098C163.999 169.147 163.439 170.561 162.935 171.834C162.069 174.436 161.4 176.952 160.675 179.61C159.282 184.784 157.605 189.847 156.297 195.218C154.903 200.392 154.217 205.847 153.869 211.271C153.489 215.538 153.448 219.775 153.689 224.124C153.353 224.973 153.245 226.075 153.106 226.838C152.997 227.94 152.888 229.042 152.835 230.003C152.641 238.76 154.789 246.972 153.519 255.14C152.673 263.476 150.923 271.618 148.268 279.565C145.613 287.512 142.11 295.123 137.758 302.398L138.041 302.51C143.044 295.656 147.169 288.128 150.163 280.151C153.298 272.231 155.16 263.806 156.203 255.385L156.474 252.22C156.583 251.118 156.551 249.96 156.604 249C156.625 246.881 156.362 244.65 156.185 242.617C155.746 238.354 155.054 234.317 154.898 230.165C154.809 229.148 154.918 228.046 154.971 227.086C155.08 225.984 155.077 225.165 155.469 224.175C156.141 222.477 157.435 220.862 159.04 219.699C160.59 218.676 162.65 218.019 164.459 218.408C166.268 218.797 167.827 220.232 168.54 222.15L168.882 222.94L169.445 222.345C172.117 219.312 173.856 215.747 175.312 212.07C176.626 208.336 177.657 204.491 178.632 200.787C179.608 197.083 180.639 193.238 182.18 189.758C183.721 186.278 185.686 182.966 188.474 180.47C189.797 179.194 191.347 178.172 192.982 177.347C194.617 176.522 196.424 176.091 198.427 175.576C200.29 175.004 202.547 174.262 204.094 172.42C205.726 170.776 206.339 168.401 206.784 166.45C207.087 164.443 207.249 162.381 207.441 160.657C207.688 158.792 208.36 157.095 209.032 155.397C210.517 152.059 212.936 149.254 215.723 146.758C221.44 141.822 228.462 138.548 235.598 135.811C242.791 132.932 250.069 130.251 257.489 127.625L279.464 119.637C282.906 118.381 286.489 117.182 289.931 115.927C290.355 116.095 290.75 115.924 290.947 115.838L291.539 115.582L292.526 115.155C295.432 114.014 298.337 112.874 301.275 112.892C302.716 112.971 303.847 113.419 304.077 114.492C304.392 115.762 303.974 117.232 303.47 118.505C298.794 129.905 291.46 140.581 288.172 153.022C287.42 156.16 286.754 159.495 287.585 162.769C288.472 165.901 289.274 168.836 289.737 171.8C290.747 177.926 290.741 184.141 290.397 190.385C289.566 202.816 287.492 215.083 285.361 227.491C284.439 230.234 283.658 233.034 283.302 236.001C282.751 239.873 282.68 243.771 282.327 247.558C282.132 248.462 282.079 249.423 281.799 250.13C281.631 250.554 281.463 250.979 281.351 251.261C281.295 251.403 281.042 251.63 280.986 251.771L280.621 252.281C279.383 253.754 278.145 255.228 276.766 256.645C274.291 259.592 271.648 262.962 270.646 267.147C269.503 271.275 269.857 275.341 269.559 278.986C269.403 282.687 268.767 286.361 266.686 289.137C264.55 292.054 261.45 294.099 258.038 295.693C254.626 297.288 250.902 298.431 247.318 299.63C245.456 300.202 243.594 300.774 241.676 301.487C239.758 302.2 238.122 303.025 236.289 303.935C232.765 305.812 229.61 307.999 226.454 310.185C223.298 312.372 220.172 314.897 217.243 317.337C214.258 319.918 211.414 322.555 208.798 325.446C203.423 331.171 198.558 337.262 194.345 343.774C190.553 349.635 187.129 355.805 185.119 362.535C185.178 355.36 182.809 348.533 179.736 342.245C176.179 335.111 171.382 328.631 166.275 322.52C163.694 319.535 160.971 316.494 158.334 313.651C155.555 310.752 152.833 307.711 149.096 305.577C147.228 304.511 145.051 303.812 142.903 303.453C140.699 303.235 138.61 303.553 136.52 303.871C132.569 304.761 128.703 305.849 124.952 307.472C121.201 309.096 117.565 311.256 114.554 314.317C113.119 315.876 111.91 317.688 110.985 319.612C110.201 321.593 109.615 323.487 109.029 325.382C108.442 327.277 107.771 328.974 106.589 330.306C105.407 331.638 103.858 332.66 102.081 333.429C100.304 334.198 98.4712 335.109 96.7798 336.075C95.9342 336.559 95.174 337.239 94.3577 338.061C93.683 338.939 93.2056 339.732 92.9552 340.778L93.2381 340.89C93.574 340.041 94.1072 339.107 94.8115 338.568C95.5717 337.887 96.276 337.348 97.2071 337.062C98.8424 336.237 100.846 335.722 102.679 334.811C104.456 334.042 106.43 333.188 108.062 331.543C109.497 329.985 110.478 327.919 111.206 326.08C111.934 324.242 112.52 322.347 113.334 320.706C114.147 319.064 115.243 317.535 116.566 316.259C119.212 313.707 122.595 311.774 126.092 310.378C129.59 308.981 133.456 307.894 137.21 307.089C139.016 306.659 140.908 306.426 142.632 306.618C144.355 306.809 146.109 307.34 147.608 308.097C150.835 309.865 153.528 312.567 156.363 315.325C159.198 318.083 161.976 320.982 164.613 323.826C169.036 328.357 173.15 333.258 176.474 338.5C176.96 340.164 176.91 341.944 176.718 343.668C176.306 346.777 175.216 349.944 174.323 353.026L172.956 357.72C172.564 358.71 172.172 359.7 171.836 360.549C171.75 360.352 171.665 360.154 171.524 360.098C170.928 359.535 169.968 359.482 169.264 360.022C165.153 363.793 161.638 368.128 158.688 372.686C158.659 372.347 158.488 371.952 158.261 371.699C157.666 371.136 156.705 371.083 156.142 371.678C151.92 375.733 148.973 381.111 147.836 386.877C146.787 385.808 145.85 384.455 145.252 383.073C144.483 381.296 144.109 379.349 144.159 377.569C144.123 375.592 144.71 373.697 145.523 372.056C145.579 371.914 145.691 371.631 145.605 371.434C145.49 370.898 144.925 370.674 144.53 370.845C140.522 371.876 136.801 373.839 133.477 376.449C131.506 378.123 129.62 379.994 128.103 382.175C129.249 378.866 130.198 375.642 131.344 372.333C131.4 372.191 131.314 371.994 131.314 371.994C131.229 371.797 130.946 371.685 130.693 371.912C127.395 374.042 124.496 376.821 122.192 380.162C122.327 378.58 122.716 376.771 123.049 375.103C123.356 373.915 123.577 372.53 123.459 371.175C123.482 369.876 122.996 368.211 121.947 367.141C120.898 366.071 119.398 365.314 117.901 365.376C117.082 365.379 116.404 365.438 115.671 365.638C114.937 365.839 114.345 366.095 113.696 366.493C112.4 367.288 111.33 368.337 110.402 369.442L109.757 362.807C109.671 362.609 109.727 362.468 109.642 362.27C109.244 361.622 108.481 361.484 107.747 361.684L102.081 364.84C102.219 364.077 102.414 363.172 102.835 362.521L102.891 362.38C103.115 361.814 102.915 361.08 102.405 360.715C101.754 360.293 101.02 360.494 100.599 361.145L100.543 361.286C100.039 362.559 97.8084 362.822 96.3086 362.064C94.8088 361.307 93.9542 359.333 93.9188 357.356C93.8834 355.378 94.4403 353.145 95.2241 351.165C96.0639 349.043 96.9036 346.922 97.3751 344.491C97.487 344.208 97.2602 343.954 97.1747 343.757C96.8064 343.448 96.4116 343.619 96.1582 343.845C94.3578 345.914 92.8698 348.433 91.7206 350.923C90.5715 353.413 89.8467 356.071 89.4047 358.841L89.6875 358.953C90.4123 356.295 91.3641 353.89 92.6547 351.457C93.3 350.24 94.0867 349.079 94.8174 348.059C94.4815 348.908 94.1457 349.756 93.6683 350.549C92.6871 352.615 91.9328 354.934 91.8857 357.532C91.8621 358.832 92.036 360.046 92.5488 361.23C93.0615 362.415 94.0544 363.626 95.2714 364.271C96.4883 364.917 97.8733 365.138 99.2287 365.02C99.2287 365.02 99.3701 365.076 99.4261 364.934C99.2876 365.697 99.2906 366.517 99.4349 367.392C99.379 367.533 99.4644 367.731 99.6059 367.787C100.004 368.435 100.767 368.573 101.359 368.317L107.223 365.076L108.072 373.264C108.101 373.603 108.272 373.998 108.64 374.307C109.291 374.729 110.025 374.528 110.447 373.877C111.767 371.782 113.031 369.828 114.834 368.579C115.285 368.267 115.68 368.096 116.272 367.839C116.667 367.669 117.203 367.554 117.683 367.58C118.644 367.633 119.69 367.884 120.371 368.644C121.844 369.881 121.655 372.424 121.184 374.855C120.854 377.342 120.185 379.859 120.76 382.54C120.845 382.737 120.931 382.935 121.072 382.991C121.355 383.103 121.835 383.129 122.003 382.705C123.883 379.196 126.612 376.022 129.879 373.553C128.539 377.766 127.057 381.924 125.716 386.138C125.604 386.421 125.689 386.618 125.972 386.73C126.255 386.842 126.594 386.813 126.706 386.53C128.586 383.02 131.117 379.932 134.329 377.604C136.892 375.674 139.91 374.251 142.9 373.308C142.341 374.722 141.922 376.193 141.787 377.775C141.71 380.035 141.972 382.266 142.827 384.24C143.625 386.356 145.016 388.215 146.716 389.706C146.858 389.762 146.943 389.959 147.085 390.015C147.032 390.976 146.979 391.936 146.87 393.039C146.843 393.519 147.099 394.111 147.665 394.335C148.231 394.559 149.05 394.556 149.501 394.244C149.952 393.931 150.403 393.619 150.571 393.195C150.738 392.77 150.906 392.346 150.933 391.866C150.96 391.385 150.845 390.849 150.674 390.454C150.417 389.862 150.19 389.609 149.822 389.299C150.627 385.201 152.194 381.24 154.696 377.813L154.313 381.261C154.23 381.883 154.572 382.672 155.279 382.952C156.128 383.288 157.115 382.861 157.395 382.154C160.167 375.562 164.157 369.616 169.11 364.542C169.281 364.937 169.311 365.275 169.34 365.614C169.116 366.18 169.034 366.802 168.951 367.423C168.704 369.289 169.134 371.095 169.479 372.704C169.65 373.099 169.962 373.549 170.442 373.576C171.205 373.714 171.854 373.317 171.992 372.554C172.381 370.744 172.543 368.682 172.366 366.649C172.307 365.971 172.107 365.237 172.048 364.559C172.216 364.135 172.384 363.711 172.552 363.286C173.168 361.731 173.784 360.175 174.258 358.563C174.591 356.895 175.009 355.425 175.484 353.813C176.235 350.675 177.184 347.451 177.369 344.089C177.478 342.987 177.361 341.632 177.131 340.559C177.529 341.207 178.012 342.053 178.354 342.843C180.231 346.367 181.769 349.921 182.573 353.675C183.519 357.484 183.731 361.495 183.095 365.169C182.544 369.041 180.862 372.465 178.528 375.468C176.194 378.47 173.492 381.163 170.593 383.942C167.749 386.579 164.85 389.358 162.263 392.588C160.097 395.166 158.188 398.336 157.041 401.645C156.673 401.336 156.107 401.112 155.627 401.086C154.44 400.779 153.367 401.009 152.238 401.38C150.179 402.037 148.375 403.287 146.996 404.704C145.759 406.177 144.38 407.595 142.83 408.617C141.422 409.696 139.362 410.353 137.721 409.54L137.609 409.822C138.401 410.3 139.589 410.606 140.605 410.518C141.622 410.429 142.609 410.002 143.455 409.519C145.146 408.552 146.666 407.191 148.187 405.83C149.51 404.554 151.145 403.729 152.81 403.243C153.685 403.098 154.56 402.954 155.126 403.178C155.833 403.458 156.343 403.823 156.599 404.415L157.852 407.038L158.689 404.097C159.805 400.449 161.856 397.335 164.331 394.388C166.806 391.441 169.791 388.86 172.549 386.025C175.449 383.247 178.263 380.271 180.425 376.873C182.73 373.532 184.156 369.515 184.621 365.446C184.592 365.107 184.704 364.824 184.674 364.486C185.656 362.42 186.722 360.552 188.213 358.852C189.76 357.01 191.534 355.422 193.449 353.89C197.365 351.022 201.85 349.198 206.42 347.572C215.646 344.516 225.47 342.842 234.808 339.504L248.716 334.539C253.427 332.968 257.997 331.342 262.794 329.968C272.247 327.166 281.9 325.097 291.612 323.707C301.324 322.316 311.095 321.603 320.869 321.708C330.587 321.956 340.393 323.22 349.752 325.615C354.36 326.785 358.886 328.577 362.793 331.105C364.747 332.369 366.391 334.001 367.782 335.861C369.173 337.72 369.971 339.836 370.516 342.178C371.465 346.807 371.483 351.722 371.784 356.749C371.934 359.262 372.282 361.69 373.11 364.145C373.796 366.543 375.16 368.883 377.144 370.486L377.397 370.259C375.809 368.485 374.727 366.258 374.182 363.915C373.637 361.573 373.628 359.115 373.422 356.743C373.404 351.828 373.923 346.798 372.944 341.83C372.455 339.346 371.542 336.694 370.121 334.496C368.701 332.298 366.83 330.412 364.65 328.895C360.486 325.774 355.621 324.012 350.786 322.589C341.059 319.884 331.141 318.903 321.169 318.883C311.198 318.862 301.203 320.141 291.606 322.068C281.868 323.939 272.33 326.544 262.791 329.149L248.512 332.986C243.715 334.359 238.974 335.591 234.318 337.02C225.007 339.878 215.269 341.749 205.875 345.229C201.249 346.997 196.596 349.246 192.71 352.452C191.048 353.757 189.669 355.174 188.517 356.845C190.818 352.684 193.487 348.833 196.157 344.982C200.597 338.723 205.689 332.886 210.866 327.246C216.043 321.606 221.362 316.022 227.361 311.199C233.36 306.375 240.04 302.312 247.69 300.759C251.5 299.813 255.254 299.008 258.949 297.526C262.588 296.186 266.365 294.082 269.008 290.711C270.302 289.096 271.283 287.03 271.869 285.136C272.512 283.1 272.674 281.037 272.78 279.116C273.048 275.132 272.921 271.319 273.643 267.842C274.506 264.421 276.557 261.306 278.891 258.304C279.987 256.775 281.225 255.301 282.377 253.63L282.798 252.979C282.91 252.696 283.163 252.47 283.275 252.187C283.499 251.621 283.667 251.197 283.891 250.631C284.142 249.585 284.392 248.539 284.445 247.578C284.713 243.594 284.445 239.725 284.799 235.939C284.905 234.018 285.152 232.153 285.541 230.343L287.512 228.67C293.68 223.422 300.159 218.625 307.007 214.137C313.799 209.791 320.903 205.895 328.349 202.789C332.044 201.307 335.825 200.022 339.776 199.133C343.727 198.243 347.652 197.833 351.719 197.479C359.851 196.772 367.901 196.687 375.951 196.601C384.058 196.374 392.335 196.542 400.55 195.213C404.728 194.576 408.821 193.742 412.684 191.836C413.671 191.409 414.573 190.784 415.418 190.301C416.264 189.818 417.11 189.334 417.899 188.993C419.676 188.223 421.538 187.652 423.289 187.363C427.128 186.756 431.112 187.024 434.76 188.141C438.408 189.258 442.114 191.052 444.666 193.698C445.942 195.021 446.965 196.571 447.309 198.18L447.424 198.716L447.569 199.591C447.684 200.127 447.798 200.664 447.772 201.144C448.002 202.217 448.288 203.148 448.376 204.164C449.266 208.116 450.297 212.123 451.329 216.13C453.306 223.948 455.369 231.962 457.149 239.865C458.928 247.768 460.511 255.756 461.274 263.747C461.684 267.672 461.84 271.824 461.203 275.498C461.009 276.403 460.87 277.166 460.479 278.156L459.359 280.985L457.261 286.699C454.435 294.251 451.271 301.832 447.738 309.105C440.672 323.649 432.05 337.578 420.962 349.058C415.39 354.869 408.996 359.863 402.033 363.815C395.071 367.766 387.454 370.477 379.633 371.635L377.883 371.924L378.369 373.589C379.542 377.652 380.462 381.942 381.295 386.035C382.073 390.269 382.71 394.448 382.725 398.543C382.672 399.504 382.619 400.465 382.424 401.369C382.256 401.794 382.144 402.076 382.032 402.359C381.976 402.501 381.976 402.501 381.976 402.501L381.525 402.813C380.229 403.609 379.498 404.628 378.823 405.506C378.149 406.384 377.559 407.46 377.026 408.394C374.837 412.272 373.128 416.176 371.277 420.024C369.427 423.873 367.435 427.665 365.358 431.26C364.291 433.128 363.139 434.799 361.845 436.413C360.552 438.028 359.202 439.784 357.767 441.343C352.254 447.832 346.317 454.152 340.436 460.331C334.413 466.454 328.305 472.38 321.828 477.996C318.646 480.663 315.266 483.415 311.686 485.434C310.84 485.917 309.853 486.344 309.063 486.686C308.669 486.857 308.132 486.972 307.737 487.143C307.201 487.258 307.06 487.202 306.382 487.261C304.066 487.325 301.977 487.644 299.746 487.906C291.248 489.123 282.724 490.82 274.311 492.235C270.133 492.871 265.813 493.452 261.691 493.947C259.997 494.094 258.302 494.242 256.608 494.389C255.309 494.365 253.868 494.286 252.624 494.121C249.262 493.935 246.012 493.467 242.844 492.376C239.762 491.484 236.904 490.025 234.862 487.744C232.82 485.464 231.877 482.473 230.566 479.173C229.882 477.593 228.972 475.761 227.554 474.382C226.42 473.115 225.229 471.989 224.095 470.722C221.826 468.188 219.557 465.654 217.091 463.205C214.625 460.757 212.102 458.45 209.129 456.455C206.297 454.516 203.156 452.945 200.101 451.572C193.848 448.77 187.427 446.392 181.484 443.222C175.485 440.193 169.907 436.512 164.694 432.322C159.481 428.132 154.888 423.206 150.801 417.825L150.547 418.052C156.467 430.375 167.773 440.249 180.868 444.778C187.289 447.155 193.568 449.477 199.455 452.789C205.343 456.101 210.555 460.291 214.952 465.303C217.221 467.837 219.292 470.457 221.561 472.991C222.695 474.258 223.83 475.525 225.106 476.848C226.155 477.918 226.809 479.158 227.548 480.596C228.83 483.557 229.832 487.226 232.525 489.928C235.163 492.771 238.643 494.312 242.064 495.176C243.251 495.482 244.636 495.703 245.823 496.01L248.313 497.159C252.02 498.953 255.757 501.087 259.239 503.447C262.722 505.807 266.093 508.45 268.76 511.632C271.483 514.673 273.389 518.536 272.894 522.267C272.7 523.171 272.505 524.076 271.972 525.01C271.58 526 271.047 526.934 270.711 527.783C269.644 529.651 268.634 531.377 267.425 533.19C262.705 540.155 256.909 546.532 250.886 552.655C244.778 558.581 238.16 564.141 231.286 569.109C227.82 571.664 224.27 574.021 220.492 576.125C216.856 578.285 212.993 580.191 209.13 582.098C201.49 586.108 194.162 590.57 186.692 594.975C179.278 599.239 171.809 603.644 164.053 607.118C156.242 610.733 148.174 613.757 139.818 615.03C131.461 616.303 122.73 615.628 115.09 611.786C107.393 608.085 100.763 602.516 95.1469 596.039C89.5306 589.563 84.872 582.32 81.003 574.736C77.19 567.01 74.1668 558.942 72.4135 550.559C71.9538 548.414 71.6355 546.324 71.4587 544.291C71.2818 542.258 71.161 540.084 71.5205 537.935C72.042 533.725 73.1853 529.597 74.1871 525.412C76.3321 517.1 78.4771 508.788 80.6782 500.334C82.8232 492.021 84.9683 483.709 86.689 475.229C87.5494 470.989 88.4097 466.748 88.7898 462.482C89.0078 460.278 89.1699 458.215 89.0491 456.04C89.0166 454.882 88.9282 453.866 88.5569 452.737C88.442 452.201 88.1856 451.609 87.8733 451.158C87.6464 450.904 87.278 450.595 86.9952 450.483C88.8044 450.872 90.867 451.034 92.7293 450.462C93.8578 450.091 94.9009 449.522 95.7171 448.7C96.5334 447.878 97.1227 446.803 97.5146 445.813C98.3544 443.691 98.5723 441.487 98.7343 439.424C98.7609 438.944 98.8434 438.322 98.8699 437.842C98.8964 437.362 99.1203 436.796 99.1468 436.316L99.5593 433.207C99.8628 431.2 100.025 429.138 100.611 427.243C100.806 426.338 101.198 425.348 101.675 424.556C102.152 423.763 102.603 423.451 103.083 423.477C103.62 423.362 104.327 423.642 104.922 424.205C105.517 424.768 106.113 425.331 106.454 426.12C107.279 427.756 107.825 430.098 109.554 431.928C110.462 432.942 111.679 433.587 112.922 433.752C114.166 433.917 115.521 433.799 116.65 433.428C118.907 432.685 120.822 431.153 122.03 429.341C124.417 425.378 124.514 420.999 125.545 417.154C125.99 415.203 126.774 413.223 127.926 411.552C129.078 409.881 130.74 408.576 132.546 408.146L133.958 407.887L132.655 407.044C129.172 404.684 125.999 401.955 122.937 398.944C120.017 395.988 117.209 392.75 114.401 389.512C108.926 383.091 103.619 376.246 96.8479 370.621C93.5329 367.837 89.9646 365.279 86.0309 363.231C81.7583 361.213 77.5475 360.691 73.2514 359.972C69.0967 359.309 64.886 358.788 60.7018 357.786C56.8564 356.755 52.8403 355.329 49.9761 352.232C50.0321 352.091 50.2295 352.005 50.2295 352.005C50.9897 351.324 51.8059 350.502 52.3952 349.427C52.8431 348.295 53.0081 347.052 53.0611 346.091C52.9727 345.075 53.0257 344.114 52.8814 343.239L52.6456 340.528L52.2301 334.965L51.3991 323.838C50.7802 316.722 50.1614 309.606 49.5985 302.349C50.1348 302.234 50.6415 301.78 51.0924 301.468C51.6551 300.873 51.9911 300.024 52.271 299.317C52.6894 297.846 52.3447 296.238 51.4076 294.885C50.5561 293.73 49.2536 292.887 47.9807 292.384C46.7077 291.88 45.3788 291.517 43.9939 291.296L28.3062 288.359L28.1648 288.303L27.9673 288.388C24.5876 291.14 21.4642 294.485 18.9066 298.053C19.0185 297.77 19.1866 297.346 19.0157 296.951C18.9862 296.612 18.9007 296.415 18.6738 296.161C18.5884 295.964 18.5883 295.964 18.4469 295.908L18.3615 295.71L17.5659 294.414C13.1636 287.764 8.36647 281.284 3.00654 275.4C1.64519 273.879 0.227867 272.5 -1.38689 271.207C-2.12355 270.588 -3.00166 269.913 -3.73832 269.294L-5.04073 268.452C-5.40905 268.142 -5.83332 267.974 -6.20166 267.665C-9.20426 265.331 -11.5881 262.261 -13.916 259.049C-18.3743 252.54 -21.9869 245.548 -24.6124 238.128C-25.184 236.266 -25.7556 234.404 -26.1859 232.598C-26.6161 230.791 -26.7929 228.758 -26.233 227.344C-25.5612 225.647 -24.5506 223.92 -23.4544 222.391C-22.4438 220.664 -21.3477 219.135 -20.1956 217.464C-15.7846 210.866 -11.2321 204.325 -6.96257 197.671C-2.69301 191.018 1.54712 184.026 4.45829 176.671C6.05532 173.049 8.02062 169.737 10.5812 166.988C11.9602 165.571 13.4247 164.351 15.06 163.526C16.6954 162.701 18.6136 161.988 20.3079 161.84L20.7882 161.867L21.0976 161.499C24.4685 156.289 28.2637 151.247 32.6541 146.768C37.0445 142.29 41.7472 138.261 47.331 135.727C50.0949 134.531 53.227 133.644 56.1648 133.662C59.244 133.735 62.3527 134.148 65.4614 134.56C68.57 134.973 71.6227 135.527 74.6754 136.081C77.7841 136.493 80.9782 137.103 84.2813 136.611C84.4228 136.667 84.4788 136.526 84.6202 136.582C85.1565 136.467 85.8902 136.266 86.4265 136.151C86.0405 138.78 85.6545 141.408 85.1271 143.98C84.7941 145.648 84.3197 147.26 83.7039 148.816C83.256 149.947 82.6667 151.023 81.936 152.042C77.1801 149.178 72.9016 145.522 67.6095 142.772C66.2511 142.071 64.6953 141.455 63.0835 140.981C61.4717 140.507 59.804 140.174 58.1657 140.18C54.945 140.05 51.5859 140.683 48.654 142.304C47.2161 143.044 45.8076 144.122 44.7675 145.51C43.7274 146.898 42.9141 148.539 42.5812 150.207C41.9153 153.543 42.5194 156.563 41.6531 159.165C40.9283 161.823 39.1573 164.23 37.0181 166.328C34.8789 168.426 32.2859 170.017 29.8344 171.664C27.3828 173.311 24.7338 175.044 22.4532 177.086C20.1725 179.128 18.2042 181.621 16.5747 184.084C14.7479 186.633 13.2599 189.153 11.3476 191.504C9.57669 193.911 7.63488 195.924 5.26877 197.769C0.677996 201.514 -4.67891 204.301 -9.43765 208.471C-11.7183 210.513 -13.9695 212.894 -15.5135 215.554C-17.0575 218.215 -18.1476 221.383 -18.0239 224.377L-17.685 224.347C-17.187 221.436 -16.0674 218.607 -14.1551 216.256C-12.3842 213.848 -10.3009 211.892 -7.9348 210.047C-3.25858 206.499 2.23969 203.768 7.08387 199.796C9.50597 197.81 11.6158 195.373 13.3012 192.768C14.9866 190.163 16.3891 187.446 17.8771 184.927C19.4211 182.266 21.0506 179.803 23.1898 177.705C25.329 175.607 27.7806 173.96 30.3736 172.369C32.9666 170.777 35.5596 169.186 37.9816 167.2C40.4037 165.214 42.6549 162.833 43.7451 159.666C44.8354 156.498 44.4847 153.251 45.1536 150.734C45.8224 148.218 47.6227 146.149 50.1038 144.841C52.5288 143.674 55.3517 143.156 58.2335 143.315C59.6744 143.394 61.0593 143.615 62.3322 144.119C63.6611 144.482 65.0755 145.041 66.2924 145.687C71.4991 148.238 76.2019 152.063 81.721 155.066L82.7965 155.655L83.4712 154.777C84.7088 153.303 85.578 151.521 86.1084 149.767C86.7802 148.07 87.0277 146.205 87.2752 144.34C87.5757 141.514 87.6788 138.774 87.9793 135.948C91.6773 135.285 95.3753 134.622 99.0173 134.1C103.873 133.405 108.871 132.765 113.812 132.267C118.81 131.628 123.666 130.933 128.522 130.237C130.95 129.889 133.434 129.4 135.918 128.911C137.132 128.737 138.402 128.422 139.671 128.107C140.941 127.791 142.014 127.561 142.58 127.785C143.146 128.009 144.024 128.684 144.79 129.642C145.612 130.458 146.237 131.36 146.805 132.403C147.999 134.347 148.741 136.604 149.145 138.891C150.094 143.52 150.253 148.491 150.554 153.518C150.984 163.177 152.572 172.803 155.289 182.059C150.66 183.008 146.231 184.69 141.688 185.836C136.946 187.068 131.752 187.793 127.084 185.946C124.821 185.05 122.529 183.815 120.124 182.863C117.72 181.912 115.006 181.328 112.325 181.903C109.699 182.336 107.33 183.362 104.961 184.387L97.9658 187.18C95.6528 188.064 93.2837 189.09 90.9706 189.974C88.6576 190.858 86.5419 191.656 84.2819 191.58C82.0218 191.503 79.7029 190.749 77.4399 189.853L70.5654 186.969C65.9539 184.98 61.145 183.076 56.1977 181.936C53.6813 181.267 51.1944 180.937 48.5955 180.89C46.0526 180.701 43.4831 180.993 40.9992 181.482L41.0286 181.821C45.97 181.323 51.0294 182.181 55.7234 183.548C60.5588 184.971 64.9728 187.045 69.5282 189.176C71.7352 190.213 74.0837 191.306 76.4321 192.399C78.8366 193.351 81.3825 194.359 84.1228 194.462C87.0046 194.621 89.7125 193.566 91.8841 192.626C94.2532 191.6 96.4808 190.519 98.7084 189.438L105.533 186.249C107.76 185.168 109.988 184.086 112.331 183.541C114.673 182.996 117.019 183.27 119.338 184.024C121.657 184.779 123.893 186.155 126.353 186.965C128.814 187.775 131.386 188.303 133.9 188.152C136.555 188.058 139.039 187.569 141.523 187.08C146.547 185.96 151.258 184.39 156.2 183.891L157.216 183.803L156.986 182.73C154.72 173.163 153.385 163.309 153.011 153.509C152.852 148.538 152.89 143.482 151.77 138.458C151.281 135.974 150.368 133.322 149.003 130.982C148.293 129.883 147.442 128.728 146.534 127.715C146.08 127.208 145.627 126.701 144.975 126.28C144.324 125.858 143.729 125.295 142.824 125.101C141.071 124.571 139.548 125.113 138.278 125.428C137.008 125.743 135.935 125.973 134.665 126.289C132.323 126.834 129.839 127.323 127.355 127.812C122.584 128.705 117.672 129.542 112.76 130.379C111.885 130.523 111.01 130.667 110.135 130.812L103.584 131.655L95.2839 132.786L91.1617 133.281L89.1285 133.458L88.1119 133.546C88.6717 132.132 88.6098 130.635 88.548 129.138C88.4242 126.145 89.0341 122.95 89.588 119.898C90.8373 113.848 92.6229 107.684 94.6354 101.773C98.6604 89.9514 103.59 78.324 109.312 67.174C115.176 56.08 121.832 45.4633 129.508 35.5774C137.325 25.7475 146.162 16.6483 156.389 9.40837C161.46 5.68968 166.929 2.61928 172.569 -0.05628C178.209 -2.73184 184.105 -4.81518 190.202 -6.16474C196.298 -7.51437 202.595 -8.13024 208.839 -7.78559C215.083 -7.44089 221.217 -5.99415 226.96 -3.55739C232.898 -2.02519 238.305 1.26026 243.459 4.77255ZM164.795 217.559C162.562 217.002 160.163 217.689 158.274 218.741C156.978 219.537 155.711 220.671 154.868 221.973L156.244 211.884C157.016 206.627 157.788 201.371 158.418 196.058C159.049 190.745 159.821 185.488 161.497 180.426C161.86 179.097 162.308 177.966 162.812 176.693C163.316 175.42 163.819 174.147 164.267 173.015C164.857 171.94 165.446 170.864 166.404 170.098C167.361 169.332 168.404 168.763 169.701 167.968C178.776 162.399 188.164 157.28 197.552 152.162C202.175 149.575 206.94 147.044 211.704 144.513C213.988 143.29 216.469 141.981 218.838 140.956C219.233 140.785 219.486 140.558 219.825 140.529C217.683 141.807 215.824 143.198 213.852 144.872C210.812 147.595 208.224 150.824 206.374 154.672C205.59 156.653 204.948 158.689 204.644 160.695C204.341 162.702 204.376 164.679 203.987 166.488C203.74 168.354 203.266 169.965 202.14 171.156C201.156 172.402 199.576 173.086 197.714 173.658C195.993 174.285 193.848 174.745 192.015 175.655C190.183 176.566 188.521 177.871 187.086 179.43C175.718 191.617 179.484 209.795 169.386 221.667C168.446 219.495 166.943 217.919 164.795 217.559Z" fill="#FFFDFB"/>
  <path d="M25.5124 218.542C25.2148 222.187 25.3121 225.661 25.4654 228.993C25.6186 232.326 25.7159 235.8 24.7671 239.024C23.8183 242.247 21.8794 245.079 19.5163 247.743L16.0275 251.597C14.8459 252.929 13.8913 254.514 13.2195 256.211C12.5477 257.908 12.2148 259.576 11.8818 261.244C11.5489 262.912 11.0745 264.524 10.6855 266.333L10.9684 266.445C12.0085 265.057 12.9632 263.472 13.7205 261.972C14.5337 260.331 15.0081 258.719 15.7653 257.219C16.4666 255.861 17.2239 254.361 18.1226 252.917C18.8799 251.417 19.92 250.029 20.8187 248.585C22.6721 245.556 24.4695 242.669 25.8131 239.274C26.9593 235.965 27.5397 232.432 27.7813 228.928C28.0229 225.425 27.9256 221.951 28.5356 218.757C29.004 215.507 30.1798 212.537 32.1481 210.044C34.1164 207.551 36.7918 205.338 39.3258 203.069C41.9159 200.659 44.3351 197.853 45.3398 194.488L45.0569 194.376C41.5476 200.349 34.6349 202.521 29.7406 208.273C26.9826 211.107 25.754 215.038 25.5124 218.542Z" fill="#FFFDFB"/>
  <path d="M206.349 30.3292C205.651 32.5068 205.291 34.6548 205.214 36.9149C205.061 41.4349 206.122 45.7812 207.239 49.986C208.356 54.1908 209.923 58.0832 210.616 62.1201C211.506 66.0715 211.267 70.3941 212.131 74.8258C212.994 79.2575 215.183 83.2324 217.541 86.7831C219.898 90.3337 222.453 93.7989 224.557 97.5764C225.609 99.4651 226.519 101.298 227.232 103.216C227.945 105.134 228.8 107.109 229.371 108.971C230.429 112.498 228.467 116.629 227.607 120.869L227.889 120.981C229.097 119.169 230.164 117.301 231.004 115.179C231.929 113.255 232.457 110.683 231.911 108.34C231.508 106.054 230.512 104.024 229.46 102.135C228.408 100.246 227.214 98.3012 225.909 96.6394C223.354 93.1742 220.602 89.7944 218.442 86.1583C216.282 82.5223 214.771 78.4884 214.417 74.4221C214.063 70.3558 214.302 66.0331 213.636 61.516C212.914 57.1403 211.6 53.0209 210.286 48.9016C208.971 44.7823 207.743 40.8603 207.389 36.794C207.035 32.7277 207.557 28.517 209.69 24.7807L209.463 24.5273C208.311 26.198 207.189 28.2077 206.349 30.3292Z" fill="#FFFDFB"/>
  <path d="M105.676 351.212L105.959 351.324C106.828 349.541 108.122 347.926 109.671 346.904C110.376 346.365 111.221 345.881 112.04 345.878C112.86 345.876 113.567 346.155 114.162 346.718C114.757 347.281 115.297 347.985 115.497 348.719C115.697 349.453 115.842 350.328 115.845 351.147C115.653 352.871 114.925 354.709 114.198 356.548C113.918 357.255 114.259 358.045 115.023 358.183C116.154 358.631 117.368 358.457 118.243 358.313C119.174 358.027 120.105 357.741 120.895 357.4C121.685 357.058 122.419 356.857 123.096 356.798C123.774 356.74 123.915 356.796 124.284 357.105C124.511 357.358 124.767 357.951 125.053 358.882C125.197 359.757 125.624 360.744 126.108 361.59C127.272 363.196 128.745 364.433 130.64 365.019L130.781 365.075C130.923 365.131 130.922 365.131 130.922 365.131C131.261 365.102 131.571 364.734 131.541 364.395C131.306 361.684 130.816 359.2 130.666 356.686C130.492 355.472 130.374 354.117 130.398 352.818C130.421 351.518 130.445 350.219 130.837 349.229C132.072 346.936 133.589 344.756 133.748 341.874C133.828 340.433 133.568 339.022 132.773 337.725C132.119 336.485 130.787 335.303 129.175 334.829C128.695 334.802 128.158 334.917 127.934 335.483C127.065 337.265 126.054 338.992 124.675 340.409C125.963 337.156 127.109 333.847 128.199 330.68C128.311 330.397 128.338 329.917 128.167 329.522C127.825 328.732 126.891 328.199 126.102 328.541C124.973 328.912 123.93 329.481 122.972 330.247C123.308 329.398 123.503 328.493 123.839 327.645L123.895 327.503L123.951 327.362C123.977 326.882 123.523 326.375 123.043 326.348L121.602 326.269L122.663 322.762L124.03 318.068C124.03 318.068 124.086 317.927 123.944 317.871C123.859 317.673 123.718 317.617 123.52 317.703L121.941 318.387L122.026 318.584L122.957 318.298L121.107 322.146L119.174 326.616L119.118 326.758C119.092 327.238 119.404 327.689 119.828 327.857L119.97 327.913L121.016 328.163C120.008 330.709 118.803 333.341 117.795 335.886C117.515 336.594 117.772 337.186 118.423 337.607C119.074 338.029 120.005 337.743 120.426 337.092L120.482 336.95C121.184 335.592 122.253 334.543 123.464 333.55C122.15 337.283 120.78 341.158 119.466 344.891C119.298 345.316 119.413 345.852 119.584 346.247C119.982 346.895 120.886 347.089 121.59 346.55C123.394 345.301 124.97 343.798 126.32 342.042C127.416 340.513 128.37 338.927 129.184 337.286C130.542 337.987 131.735 339.932 131.685 341.712C131.75 344.028 130.657 346.376 129.423 348.669C128.863 350.083 128.839 351.383 128.957 352.738C128.933 354.037 129.051 355.393 129.225 356.607C129.346 358.781 129.608 361.012 129.644 362.989C128.71 362.456 127.943 361.498 127.375 360.455C126.977 359.807 126.918 359.129 126.718 358.395C126.573 357.52 126.485 356.504 125.633 355.349C125.179 354.842 124.67 354.477 123.963 354.197C123.397 353.973 122.719 354.032 122.239 354.005C121.222 354.094 120.235 354.521 119.501 354.721C118.57 355.007 117.583 355.434 116.849 355.635C117.409 354.22 117.686 352.694 117.822 351.112C117.931 350.01 117.757 348.796 117.244 347.611C116.676 346.568 115.909 345.61 115.031 344.936C114.012 344.205 112.824 343.898 111.469 344.016C110.255 344.19 109.156 344.9 108.537 345.637C107.187 347.393 106.121 349.261 105.676 351.212Z" fill="#FFFDFB"/>
  <path d="M135.698 326.614C135.133 326.39 134.623 326.025 134.169 325.518C133.432 324.899 132.864 323.856 132.436 322.869L132.097 322.898C132.13 324.056 132.501 325.185 133.014 326.369C133.583 327.412 134.49 328.426 135.707 329.071C136.131 329.239 136.612 329.266 136.921 328.897L136.977 328.756C138.047 327.707 138.889 326.405 139.818 325.3L141.026 323.487C141.138 323.205 141.391 322.978 141.588 322.892C141.759 323.287 142.016 323.879 142.272 324.472C142.785 325.656 142.959 326.87 143.077 328.226C143.171 330.88 143.012 333.762 142.372 336.618C142.039 338.285 141.565 339.897 140.949 341.453C140.893 341.594 140.752 341.538 140.696 341.68C139.965 342.699 139.573 343.689 139.464 344.791L139.408 344.933C139.438 345.272 139.609 345.667 139.891 345.779C140.316 345.946 140.625 345.578 140.737 345.295C140.737 345.295 140.737 345.295 140.793 345.154C141.465 343.457 142.873 342.378 144.285 342.119C145.555 341.803 146.884 342.166 147.903 342.897C147.653 343.943 147.261 344.933 146.954 346.12C146.592 347.449 146.371 348.834 146.094 350.36L146.377 350.472C147.164 349.311 147.865 347.953 148.51 346.736C149.156 345.519 149.857 344.161 150.361 342.888C150.529 342.463 150.499 342.125 150.187 341.674L150.045 341.618C148.513 339.703 145.77 338.78 143.371 339.467C142.977 339.638 142.44 339.753 142.131 340.121C142.579 338.99 142.829 337.943 143.277 336.812C144.341 334.125 145.319 331.24 145.393 328.161C145.528 326.578 145.381 324.884 144.839 323.361C144.638 322.627 144.296 321.837 143.955 321.048C143.642 320.597 143.471 320.202 142.679 319.725C142.31 319.415 141.886 319.247 141.208 319.306C140.869 319.336 140.672 319.421 140.475 319.507C140.277 319.592 140.08 319.678 139.882 319.763C138.727 320.615 138.503 321.18 138.026 321.973C137.605 322.624 137.325 323.331 136.959 323.841C136.821 324.604 136.232 325.68 135.698 326.614Z" fill="#FFFDFB"/>
  <path d="M154.318 335.783C154.545 336.037 154.772 336.29 155.054 336.402C155.762 336.682 156.551 336.34 156.887 335.492L156.943 335.35C157.615 333.653 157.948 331.985 158.337 330.176C158.449 329.893 158.363 329.696 158.475 329.413C159.1 330.314 159.527 331.302 160.096 332.345C160.609 333.529 161.122 334.714 161.634 335.898C162.147 337.083 162.66 338.267 162.834 339.481C163.293 341.626 161.947 344.202 160.939 346.748L158.113 354.3C157.106 356.846 156.239 359.448 155.429 361.908C155.067 363.237 154.675 364.227 154.056 364.964C153.437 365.7 152.591 366.184 151.575 366.272C150.558 366.36 149.371 366.054 148.381 365.662C147.249 365.214 146.513 364.595 145.661 363.44C144.895 362.483 143.958 361.13 142.402 360.514C141.695 360.234 140.876 360.237 140.142 360.438C139.408 360.638 138.648 361.319 138.651 362.138L138.934 362.25C139.523 361.174 141.106 361.31 141.898 361.787C142.832 362.321 143.345 363.505 144.055 364.604C144.709 365.845 145.9 366.97 147.258 367.672C148.617 368.373 150.087 368.791 151.725 368.785C152.544 368.782 153.419 368.638 154.124 368.099C154.913 367.757 155.618 367.218 156.095 366.425C157.135 365.037 157.412 363.511 157.633 362.126C158.019 359.498 158.405 356.869 159.074 354.353C159.743 351.837 160.75 349.291 161.844 346.942C162.347 345.669 163.078 344.65 163.723 343.433C164.369 342.216 164.843 340.604 164.781 339.107C164.719 337.61 164.319 336.143 164.003 334.873C163.547 333.547 163.09 332.221 162.577 331.036C161.466 328.47 160.158 325.989 158.738 323.791C158.425 323.34 158.001 323.172 157.521 323.145C156.56 323.092 155.8 323.773 155.803 324.592C155.667 326.175 155.476 327.898 155.284 329.622C155.202 330.244 155.175 330.724 154.951 331.29C153.16 327.963 152.128 323.956 152.255 319.916L151.972 319.804C150.24 325.008 151.165 330.936 154.318 335.783Z" fill="#FFFDFB"/>
  <path d="M1388.66 -8.17967L1388.89 -7.58924C1388.92 -7.41524 1388.96 -7.24121 1389 -7.0672C1389.18 -6.65076 1389.08 -6.26556 1388.99 -5.88034C1388.89 -5.49512 1388.79 -5.10988 1388.69 -4.72466C1388.02 -3.215 1386.89 -2.15301 1385.71 -1.265C1385.09 -0.768194 1384.54 -0.376986 1383.92 0.119817C1383.3 0.61662 1382.64 0.939448 1381.98 1.26225L1380.04 2.40462C1379.38 2.72742 1378.73 3.05016 1378 3.47855C1376.61 4.22975 1375.15 4.6329 1373.73 5.21007C1372.27 5.61322 1370.8 6.0164 1369.34 6.41956C1366.38 7.05187 1363.38 7.51015 1360.42 8.14246C1357.46 8.77477 1354.61 9.92909 1351.87 11.1518C1350.55 11.7974 1349.17 12.5486 1347.95 13.2626C1346.68 14.0822 1345.36 14.7278 1344.12 15.7214C1339.11 19.0682 1334.49 22.9682 1329.87 26.8683C1321.92 35.9429 1316.85 47.3182 1315.07 59.1737C1314.2 65.1885 1314.14 71.1228 1314.91 77.1508C1315.58 83.1105 1316.63 89.1698 1317.48 95.0922C1319.37 107.074 1320.92 119.13 1320.83 131.173C1320.67 143.321 1318.68 155.493 1313.64 166.589C1311.12 172.137 1307.78 177.312 1303.88 181.97C1299.98 186.629 1295.4 190.703 1290.43 194.223C1280.73 201.576 1270 207.511 1258.93 212.334C1247.79 217.262 1236.31 221.077 1225.02 225.31C1222.24 226.358 1219.4 227.513 1216.72 228.63C1213.98 229.853 1211.24 231.075 1208.61 232.367C1203.37 235.123 1198.07 237.985 1193.31 241.642L1189.8 244.306C1188.62 245.194 1187.59 246.325 1186.42 247.213L1183.15 250.188L1180.13 253.473L1177.11 256.759L1174.24 260.287L1171.47 263.884L1168.71 267.48C1161.61 277.102 1155.39 287.445 1150.2 298.299C1147.64 303.672 1145.4 309.251 1143.16 314.83C1142.06 317.707 1141.02 320.478 1139.82 323.286C1139.21 324.69 1138.61 326.094 1137.62 327.399C1137.21 328.032 1136.45 328.74 1135.73 329.169L1133.79 330.311C1131.23 331.95 1128.67 333.589 1125.97 334.986C1124.58 335.737 1123.26 336.383 1121.84 336.96C1120.42 337.537 1118.89 338.046 1117.28 338.207C1115.68 338.368 1113.99 338.18 1112.51 337.223C1111.34 336.47 1110.07 336.103 1108.72 336.574C1107.43 336.94 1105.83 337.555 1104.08 337.473C1102.44 337.46 1100.85 336.887 1099.51 336.172C1098.8 335.867 1098.17 335.457 1097.53 335.046L1095.55 333.92C1094.21 333.205 1092.9 332.664 1091.46 332.334C1090.02 332.004 1088.59 332.127 1087.05 332.182C1085.52 332.237 1083.94 332.118 1082.39 331.72C1080.85 331.321 1079.5 330.606 1078.09 329.996L1076.11 328.871C1075.48 328.46 1074.84 328.05 1074.14 327.745C1071.45 326.314 1068.74 325.163 1065.95 324.118C1063.17 323.072 1060.25 322.238 1057.33 321.404C1054.42 320.57 1051.5 319.736 1048.61 318.622C1047.9 318.317 1047.2 318.012 1046.45 317.533C1046.14 317.328 1045.71 317.054 1045.53 316.638C1045.28 316.327 1045.1 315.911 1045.02 315.563C1044.83 314.693 1044.92 313.854 1045.05 313.189C1045.17 312.524 1045.19 311.791 1045.04 311.095C1044.74 309.703 1044.33 308.242 1043.67 306.924C1043.09 305.501 1042.36 304.289 1041.47 303.114C1039.61 300.87 1037.06 299.228 1034.61 297.201C1033.47 296.169 1032.47 294.926 1031.64 293.645C1031.31 292.986 1030.88 292.259 1030.8 291.457C1030.54 290.693 1030.39 289.997 1030.3 289.195C1029.89 286.094 1030.33 283.087 1030.76 280.079C1031.3 277.14 1032.02 274.164 1032.84 271.256L1034.27 266.945C1034.7 265.578 1035.09 264.037 1035.06 262.676C1035.09 262.396 1034.91 261.98 1034.94 261.7C1034.8 261.458 1034.79 261.004 1034.47 260.799C1034.18 260.314 1033.57 259.624 1033.14 258.897C1032.38 257.511 1031.93 255.876 1032.22 254.267C1032.33 252.695 1032.83 251.222 1032.97 249.824C1032.99 248.637 1032.05 247.288 1031.02 246.325C1028.99 244.118 1026.51 242.37 1024.13 240.691C1021.02 238.987 1017.81 237.214 1014.77 235.404C1011.73 233.594 1008.58 231.716 1005.57 229.627C1004.15 228.563 1002.56 227.537 1001.27 226.263C999.99 224.988 998.911 223.397 998.25 221.625C997.588 219.854 997.274 218.008 997.415 216.157C997.488 214.411 997.842 212.696 998.65 210.975C996.621 207.127 994.766 203.242 992.737 199.395C991.756 197.418 990.775 195.442 989.863 193.36C989.498 192.527 989.133 191.694 988.768 190.861C988.7 190.967 988.738 191.141 988.67 191.246C988.602 191.352 988.64 191.526 988.436 191.843L988.368 191.948C988.368 191.948 988.368 191.948 988.126 192.091C988.126 192.091 987.709 192.271 987.391 192.066C987.178 191.929 987.14 191.755 987.14 191.755C987.102 191.581 987.17 191.475 987.064 191.407C987.132 191.301 987.026 191.233 987.094 191.127C987.124 190.848 987.153 190.568 987.251 190.183C987.281 189.903 987.311 189.624 987.515 189.307C987.545 189.027 987.681 188.816 987.953 188.394C988.021 188.288 988.021 188.288 988.264 188.145C988.391 187.48 988.693 186.778 988.821 186.113C989.447 183.976 989.792 181.808 990.698 179.702C991.43 177.633 992.336 175.527 993.735 173.588C994.075 173.06 994.347 172.638 994.793 172.178L995.308 171.613C995.376 171.508 995.444 171.402 995.444 171.402C995.444 171.402 995.337 171.334 995.231 171.265C995.019 171.128 994.806 170.992 994.594 170.855L993.214 169.965C991.302 168.734 989.527 167.291 987.82 165.743C986.112 164.195 984.647 162.504 983.522 160.285C983.013 159.21 982.572 158.029 982.479 156.774C982.386 155.518 982.573 154.294 983.041 153.101C983.909 150.821 985.733 149.157 987.633 147.84C988.602 147.269 989.639 146.592 990.54 146.127L993.485 144.587C995.461 143.619 997.399 142.477 999.269 141.44C1001.14 140.403 1003.08 139.261 1004.8 137.981C1005.67 137.342 1006.53 136.702 1007.39 136.063C1007.77 135.709 1008.25 135.423 1008.63 135.069C1008.87 134.926 1009.08 134.609 1009.32 134.467C1007.88 132.042 1006.5 129.513 1005.3 126.945C1003.96 124.136 1002.72 121.395 1001.96 118.368C1001.7 117.604 1001.62 116.802 1001.53 116.001C1001.45 115.199 1001.43 114.292 1001.94 113.273C1002.07 113.062 1002.21 112.85 1002.41 112.534L1002.72 112.285C1002.79 112.18 1002.97 112.142 1002.97 112.142C1003.28 111.894 1003.69 111.714 1004 111.466C1004.73 111.037 1005.5 110.783 1006.15 110.46C1009.11 109.374 1011.96 108.673 1014.7 107.451C1016.13 106.873 1017.34 106.159 1018.55 105.445C1019.66 104.663 1020.83 103.775 1021.79 102.75C1022.24 102.291 1022.64 101.657 1023.05 101.023C1023.46 100.39 1023.87 99.7562 1024.28 99.1225C1025.09 97.8553 1026.02 96.6565 1027.01 95.3521C1027.93 94.1532 1028.96 93.0228 1030.05 91.7867C1031.19 90.7247 1032.32 89.6627 1033.85 88.7003C1034.57 88.2719 1035.41 87.9119 1036.6 87.9312C1036.88 87.9624 1037.16 87.9937 1037.44 88.0249C1037.65 88.1617 1038.04 88.2613 1038.25 88.3981C1038.46 88.5349 1038.67 88.6717 1038.95 88.7029C1039.34 88.8026 1039.69 88.7282 1040.17 88.4426C1040.66 88.157 1041 87.629 1041.51 87.0637C1041.92 86.4301 1042.26 85.9022 1042.67 85.2685C1042.8 85.0573 1042.93 84.3925 1042.89 83.7648C1042.86 82.4039 1042.69 80.8006 1042.56 79.3713C1042.26 76.3387 1042.2 73.1633 1042.88 70.0131C1043.17 68.4038 1043.73 66.8257 1044.62 65.4529C1045.5 64.08 1046.77 62.8069 1048.12 61.8817C1050.61 60.3481 1052.74 58.4352 1054.91 56.2428C1057.11 54.2244 1059.45 51.9947 1062.22 50.4923L1063.29 49.9896C1063.71 49.8096 1064.06 49.7352 1064.47 49.5552C1064.89 49.3752 1065.24 49.3008 1065.65 49.1208L1066.87 48.8604C1067.75 48.6745 1068.48 48.6997 1069.39 48.6878C1070.19 48.6074 1071.07 48.875 1071.91 48.9687C1072.75 49.0623 1073.46 49.3672 1074.34 49.6349C1075.11 49.8341 1075.92 50.2073 1076.56 50.6178L1078.71 51.7064L1080.73 53.0062C1083.39 54.7164 1085.53 56.9919 1087.74 59.1617C1091.91 63.6442 1095.77 68.3752 1099.84 72.7892C1103.91 77.2033 1108.36 81.2633 1113.21 84.6898C1122.85 91.6483 1134.24 96.1408 1146.13 97.9739C1157.95 99.9125 1170.01 99.6143 1181.95 98.3404C1187.92 97.7034 1193.96 96.9608 1199.85 95.9758C1205.82 94.8853 1211.63 93.5523 1217.19 91.4548C1217.37 91.4176 1217.54 91.3804 1217.78 91.2376C1218.03 91.0948 1218.27 90.952 1218.4 90.7408L1218.55 90.9832C1223.58 88.9973 1228.36 86.247 1232.64 82.875C1237.18 79.0806 1241.13 74.596 1245.07 70.1115C1248.9 65.5586 1252.8 60.9001 1256.71 56.2415C1260.72 51.6514 1264.76 47.2353 1268.92 42.8876C1273.07 38.5399 1277.43 34.3291 1281.91 30.1866L1295.04 17.728C1303.81 9.4803 1312.54 1.05853 1321.67 -6.80996C1326.18 -10.7784 1330.79 -14.6784 1336.02 -17.8884C1338.61 -19.3536 1341.49 -20.7875 1344.56 -21.3514C1346.06 -21.5806 1347.67 -21.7413 1349.17 -21.5169C1349.56 -21.4172 1349.91 -21.4916 1350.3 -21.392L1351.46 -21.0931C1352.23 -20.8939 1352.96 -20.8686 1353.67 -20.5638C1359.47 -19.0694 1365.47 -17.8918 1371.31 -16.2234C1374.23 -15.3892 1377.15 -14.555 1380.03 -13.4412C1381.44 -12.8315 1382.85 -12.2218 1384.2 -11.5065C1385.54 -10.7912 1386.92 -9.90185 1387.92 -8.65853C1388.23 -8.90693 1388.59 -8.5277 1388.66 -8.17967ZM1007.3 111.946C1006.64 112.269 1005.95 112.417 1005.39 112.809C1005.04 112.883 1004.84 113.2 1004.6 113.343C1004.53 113.448 1004.42 113.38 1004.36 113.485L1004.29 113.591C1004.22 113.697 1004.15 113.802 1004.15 113.802C1003.95 114.119 1003.93 114.852 1003.97 115.48C1004.02 116.108 1004.17 116.804 1004.32 117.5C1005.04 120.352 1006.28 123.093 1007.41 125.766C1008.65 128.507 1010.13 131.105 1011.62 133.703L1011.9 134.188L1011.63 134.611C1011.22 135.244 1010.74 135.53 1010.29 135.99C1009.91 136.344 1009.36 136.735 1008.98 137.089C1008.05 137.834 1007.19 138.474 1006.22 139.045C1004.39 140.256 1002.45 141.398 1000.51 142.54C998.575 143.683 996.599 144.651 994.623 145.619L992.405 146.731C994.98 145.999 997.699 145.509 1000.39 145.299C1005.14 144.923 1009.84 145.559 1014.41 146.86C1023.51 149.288 1031.79 154.171 1039.91 158.357C1041.96 159.377 1044.01 160.397 1046.08 161.138C1047.17 161.542 1048.23 161.773 1049.28 162.003L1052.62 162.657L1066.33 164.92C1070.62 165.736 1074.9 166.553 1079.05 167.58C1075.48 165.882 1071.92 164.184 1068.49 162.274C1060.61 157.945 1052.94 153.299 1045.71 148.194C1043.86 146.857 1042.13 145.588 1040.28 144.251C1038.61 142.877 1036.6 141.577 1034.99 139.644C1034.23 138.711 1033.58 137.394 1033.25 136.281C1032.91 135.169 1032.64 133.95 1032.41 132.906C1031.96 130.818 1031.32 128.767 1030.52 126.753C1028.91 122.726 1026.63 119.021 1023.57 115.85C1022.03 114.265 1020.43 112.785 1018.76 111.411C1017.66 110.553 1016.39 109.732 1015.22 108.98C1012.69 110.339 1009.84 111.04 1007.3 111.946ZM1045 86.3199C1044.59 86.9535 1044.18 87.5871 1043.7 88.3264C1043.19 88.8916 1042.71 89.6308 1041.92 90.1648C1041.54 90.5188 1041.02 90.6304 1040.6 90.8104C1040.43 90.8476 1040.25 90.8848 1040.08 90.922C1049.95 98.9246 1060.06 106.784 1070.38 114.327C1075.91 118.338 1081.44 122.349 1086.97 126.36C1089.77 128.313 1092.57 130.265 1095.43 132.113C1098.3 133.96 1101.3 135.595 1104.31 137.231C1110.38 140.397 1116.76 142.861 1123.33 144.555C1126.7 145.383 1129.97 146.143 1133.37 146.692L1143.49 148.723C1145.87 149.215 1148.4 149.496 1150.88 149.603C1146.55 148.159 1142.29 146.609 1138.03 145.06C1133.07 143.205 1128.13 141.071 1123.19 138.937C1118.26 136.803 1113.52 134.353 1108.82 131.622C1104.23 128.96 1099.69 125.739 1095.84 121.915C1093.95 119.951 1092.2 117.775 1090.73 115.63C1089.15 113.417 1087.6 111.378 1085.79 109.762C1085.33 109.314 1084.8 108.972 1084.33 108.524C1083.8 108.182 1083.34 107.735 1082.74 107.498C1081.68 106.814 1080.51 106.062 1079.38 105.483L1072.42 101.596C1063.37 96.5142 1054.29 91.2587 1045.37 85.9659C1045.34 85.7919 1045.06 86.2142 1045 86.3199ZM1200.42 98.1324C1194.46 99.223 1188.42 99.9656 1182.34 100.534C1170.23 101.845 1157.92 102.286 1145.71 100.248C1133.61 98.2781 1121.77 93.7916 1111.71 86.5595C1106.71 82.8906 1102.16 78.7621 1097.98 74.2796C1093.81 69.7971 1089.94 65.0662 1085.87 60.6521C1083.84 58.4451 1081.74 56.3436 1079.3 54.7702L1077.56 53.5016L1075.68 52.4443C1075.05 52.0339 1074.38 51.903 1073.68 51.5982C1073.08 51.3617 1072.37 51.0569 1071.64 51.0316C1068.86 50.4398 1066.14 50.9293 1063.72 52.3573C1061.19 53.7169 1059.06 55.6298 1056.89 57.8222C1054.69 59.8406 1052.35 62.0703 1049.69 63.641C1047.44 65.0318 1045.98 67.5291 1045.4 70.2941C1044.82 73.059 1044.91 75.9548 1045.21 78.9874C1045.28 80.5223 1045.51 82.02 1045.51 83.6605C1045.52 84.1142 1045.49 84.3938 1045.49 84.8474C1048.71 86.6201 1052.2 87.9704 1055.75 89.215C1059.41 90.5281 1063.14 91.7355 1066.87 92.9429C1074.33 95.3578 1081.76 97.5988 1089.15 100.119C1092.88 101.327 1096.54 102.64 1100.24 104.127C1102.04 104.836 1103.94 105.614 1105.67 106.429C1107.4 107.244 1109.27 108.301 1110.93 109.222C1114.36 111.131 1117.61 113.078 1121.21 114.497C1124.63 115.952 1128.46 116.775 1132.24 117.423C1139.82 118.719 1147.59 118.792 1155.24 117.888C1162.88 116.985 1170.44 115.28 1177.81 112.705C1189.52 108.747 1200.54 102.843 1210.8 96.0064C1207.32 96.7503 1203.84 97.4942 1200.42 98.1324ZM1258.51 57.4045C1254.68 61.9574 1250.77 66.616 1246.98 71.3429C1245.03 73.6721 1243.08 76.0014 1240.91 78.1938C1238.85 80.4547 1236.58 82.5787 1234.28 84.5287C1229.49 88.466 1224.05 91.5391 1218.21 93.6054C1216.26 94.2941 1214.39 94.8773 1212.33 95.4976C1201.87 103.104 1190.45 109.642 1178.29 114.06C1163.69 119.453 1147.54 121.899 1131.9 119.591C1130 119.267 1128 118.875 1126.07 118.377C1124.14 117.879 1122.2 117.38 1120.23 116.708C1116.47 115.327 1112.93 113.349 1109.61 111.508C1107.84 110.519 1106.29 109.667 1104.56 108.852C1102.83 108.037 1101.1 107.222 1099.3 106.513C1095.71 105.094 1092.12 103.675 1088.45 102.362C1081.13 99.7361 1073.74 97.2155 1066.48 94.4838C1062.01 92.7975 1057.54 91.1112 1053.13 89.3193C1059.71 93.107 1066.42 96.6836 1073.27 100.049L1080.36 103.725C1081.6 104.372 1082.73 104.951 1083.9 105.703C1084.43 106.045 1085.07 106.456 1085.7 106.866C1086.23 107.208 1086.8 107.724 1087.27 108.172C1089.4 109.994 1091.08 112.275 1092.63 114.314C1094.21 116.527 1095.81 118.46 1097.6 120.357C1101.23 124.043 1105.56 127.128 1110.09 129.895C1114.61 132.663 1119.35 135.114 1124.04 137.391C1128.84 139.736 1133.6 141.907 1138.54 144.041C1142.98 146.007 1147.49 147.867 1152 149.728C1155.85 149.817 1159.69 149.452 1163.5 148.913C1170.19 147.848 1176.7 145.912 1182.88 143.318C1195.34 138.198 1206.82 130.648 1217.01 121.823C1219.63 119.624 1222.04 117.289 1224.44 114.954L1228.01 111.277C1229.11 110.041 1230.21 108.805 1231.2 107.501C1235.23 102.177 1238.48 96.2009 1241.73 90.2247C1248.22 78.2722 1254.47 66.0089 1262.1 54.6349C1263.32 52.734 1264.59 51.0072 1265.92 49.1747C1263.38 51.7211 1260.98 54.51 1258.51 57.4045ZM1384.09 -11.5749C1382.75 -12.2902 1381.34 -12.8999 1380.03 -13.4412C1377.25 -14.4866 1374.33 -15.3208 1371.41 -16.155C1365.51 -17.7178 1359.61 -18.827 1353.64 -20.2841C1350.65 -21.0127 1347.74 -21.3933 1344.95 -20.7982C1342.06 -20.2715 1339.36 -18.8747 1336.87 -17.3411C1331.82 -14.1683 1327.31 -10.1999 1322.8 -6.23146C1313.88 1.77385 1305.26 10.264 1296.53 18.6858L1283.5 31.2128C1280.09 34.3988 1276.73 37.7588 1273.43 41.0133C1269.77 45.529 1266.43 50.25 1263.3 55.1077C1255.95 66.5129 1249.98 78.8075 1243.59 90.8284C1240.45 96.8731 1237.13 102.955 1233.07 108.558C1232.01 109.968 1230.95 111.378 1229.75 112.546L1226.18 116.222C1223.71 118.663 1221.3 120.999 1218.61 123.303C1213.41 127.873 1207.93 131.959 1202.19 135.735C1196.35 139.441 1190.32 142.732 1183.86 145.295C1177.4 147.858 1170.72 149.83 1163.81 150.759C1156.9 151.688 1149.84 151.92 1143.03 150.369L1133.01 147.953C1129.64 147.125 1126.33 146.191 1123.03 145.257C1116.38 143.215 1110.03 140.472 1103.89 137.411C1091.67 131.185 1079.93 123.765 1068.93 115.638C1058.65 107.815 1048.39 99.713 1039.16 90.4803C1039.05 90.4119 1038.88 90.4491 1038.77 90.3807C1038.21 90.3182 1037.79 90.0446 1037.36 89.771C1037.15 89.6342 1037.26 89.7026 1037.15 89.6342C1037.05 89.5658 1036.98 89.6713 1036.87 89.6029C1036.42 89.6089 1035.89 89.7205 1035.34 90.1117C1034.2 90.7201 1033.13 91.6765 1032.1 92.8069C1031.14 93.8317 1030.11 94.9622 1029.19 96.161C1028.27 97.3598 1027.34 98.5587 1026.6 99.7203C1026.19 100.354 1025.78 100.988 1025.37 101.621C1024.86 102.186 1024.49 102.994 1023.87 103.491C1022.77 104.727 1021.53 105.72 1020.18 106.646C1018.9 107.465 1017.52 108.216 1016.09 108.794C1019.27 110.392 1022.28 112.482 1024.85 115.031C1028.16 118.059 1030.92 121.932 1032.74 126.096C1033.66 128.178 1034.4 130.298 1035 132.628C1035.56 134.785 1036.09 136.767 1037.23 138.253C1038.49 139.807 1040.29 140.97 1042.14 142.307C1043.98 143.644 1045.72 144.913 1047.56 146.25C1054.79 151.355 1062.22 156.144 1069.86 160.616C1076.43 164.403 1083.25 168.048 1090.1 171.414C1091.3 171.887 1092.32 172.397 1093.45 172.975L1093.01 173.888C1090.02 172.706 1087.09 171.418 1084.17 170.13C1082.79 169.695 1081.42 169.259 1079.98 168.929C1075.45 167.802 1070.85 167.234 1066.26 166.666C1061.67 166.098 1057.05 165.81 1052.42 165.068C1051.29 164.943 1050.13 164.645 1048.91 164.451C1047.68 164.258 1046.52 163.959 1045.32 163.486C1043.03 162.609 1040.92 161.694 1038.76 160.606C1034.56 158.497 1030.56 156.071 1026.47 154.031C1022.37 151.991 1018.21 150.056 1013.81 148.718C1009.42 147.379 1004.85 146.532 1000.24 146.697C996.671 146.64 993.186 147.383 989.74 148.301C989.323 148.481 988.945 148.835 988.529 149.015C986.765 150.121 985.183 151.642 984.414 153.537C983.644 155.432 983.889 157.383 984.87 159.36C985.812 161.162 987.277 162.853 988.704 164.37C990.305 165.85 991.974 167.224 993.779 168.387L995.16 169.277C995.372 169.413 995.691 169.619 995.903 169.756C996.048 169.998 996.54 170.166 996.693 170.862C996.671 171.595 996.361 171.844 996.157 172.16L995.575 172.831C995.303 173.254 994.924 173.608 994.584 174.136C993.321 175.863 992.483 177.863 991.752 179.932C991.02 182.001 990.462 184.033 989.943 186.238C989.747 187.009 989.483 187.885 989.287 188.655L989.325 188.829C989.364 189.003 989.508 189.246 989.584 189.594C989.987 190.601 990.391 191.607 990.968 192.577C991.949 194.554 992.861 196.636 993.842 198.612C995.803 202.566 997.764 206.519 999.831 210.54L999.975 210.783L999.771 211.1C998.887 212.472 998.64 214.256 998.46 215.933C998.387 217.68 998.663 219.351 999.287 220.949C999.728 222.13 1000.34 223.273 1001.2 224.274C1004.37 225.419 1007.74 225.794 1011.1 226.168C1014.53 226.437 1017.82 226.464 1021.14 226.211L1041.36 224.444C1054.88 223.289 1068.22 222.171 1081.7 220.842C1095.11 219.619 1108.65 218.184 1121.84 215.917C1128.43 214.783 1135.15 213.438 1141.67 211.956C1144.98 211.249 1148.25 210.369 1151.45 209.594L1161.27 206.951L1161.89 208.549C1150.79 213.651 1138.76 215.764 1127.61 219.785C1122.01 221.708 1116.63 224.222 1111.94 227.774C1107.21 231.152 1103.59 235.842 1099.97 240.532C1096.45 245.29 1092.91 250.327 1088.37 254.575C1086.1 256.7 1083.47 258.444 1080.77 259.841C1077.96 261.169 1075.07 262.15 1072.04 262.888C1066.01 264.084 1059.93 264.199 1053.83 263.86C1047.74 263.521 1041.81 262.692 1035.85 261.688L1035.88 261.409C1041.84 261.959 1047.9 262.577 1053.92 262.568C1059.86 262.664 1065.91 262.375 1071.69 260.868C1074.55 260.167 1077.26 259.224 1079.96 257.827C1082.49 256.468 1084.83 254.692 1086.97 252.779C1091.2 248.779 1094.57 243.779 1098.05 238.846C1099.79 236.38 1101.63 233.983 1103.69 231.722C1105.75 229.461 1108.02 227.337 1110.54 225.524C1115.47 221.829 1121.23 219.415 1126.9 217.386C1132.84 215.388 1138.9 213.912 1144.93 212.262C1144.05 212.448 1143.01 212.671 1142.14 212.857C1135.52 214.271 1128.86 215.51 1122.27 216.644C1108.91 218.949 1095.63 221.148 1082.22 222.825C1068.82 224.502 1055.27 225.483 1041.85 226.253C1035.11 226.69 1028.32 226.954 1021.65 227.286C1018.22 227.471 1014.72 227.307 1011.43 226.827C1008.24 226.415 1004.9 225.761 1001.97 224.473C1002.12 224.716 1002.33 224.853 1002.48 225.095C1003.65 226.301 1005.18 227.433 1006.66 228.391C1009.57 230.412 1012.65 232.396 1015.69 234.206C1018.73 236.015 1021.88 237.894 1024.99 239.598C1027.47 241.345 1029.95 243.093 1032.09 245.368C1032.59 245.99 1033.09 246.612 1033.59 247.233C1034.03 247.96 1034.28 248.725 1034.3 249.632C1034.19 251.204 1033.69 252.677 1033.54 254.075C1033.39 255.473 1033.7 256.865 1034.35 258.183C1034.68 258.842 1035.14 259.289 1035.57 260.017C1035.83 260.327 1035.83 260.781 1036.02 261.197C1036.09 261.545 1036.21 262.068 1036.11 262.453C1036.1 264.093 1035.61 265.566 1035.28 267.001L1033.86 271.313C1032.93 274.152 1032.21 277.128 1031.67 280.067C1031.13 283.006 1030.7 286.014 1031.17 289.009C1031.32 289.705 1031.41 290.507 1031.63 291.097C1031.78 291.793 1032.11 292.452 1032.44 293.111C1033.16 294.323 1034.16 295.566 1035.26 296.425C1037.5 298.315 1040.15 300.025 1042.23 302.406C1043.23 303.649 1043.99 305.036 1044.64 306.353C1045.23 307.777 1045.81 309.2 1046.16 310.766C1046.24 311.568 1046.32 312.369 1046.13 313.14C1046.04 313.979 1045.81 314.575 1046.03 315.165C1046.1 315.514 1046.25 315.756 1046.5 316.067C1046.64 316.309 1046.96 316.514 1047.17 316.651C1047.81 317.062 1048.41 317.298 1049.11 317.603C1051.9 318.648 1054.88 319.377 1057.73 320.317C1060.65 321.151 1063.57 321.985 1066.46 323.099C1069.24 324.144 1072.13 325.258 1074.85 326.863C1075.49 327.273 1076.2 327.578 1076.83 327.989L1078.81 329.114C1080.15 329.83 1081.46 330.371 1082.83 330.807C1084.27 331.137 1085.67 331.293 1087.11 331.169C1088.64 331.114 1090.25 330.953 1091.69 331.284C1093.3 331.576 1094.71 332.186 1096.06 332.901C1097.4 333.617 1098.61 334.543 1100.02 335.153C1101.25 335.8 1102.73 336.304 1104.09 336.286C1105.56 336.337 1106.81 335.797 1108.28 335.393C1109.04 335.139 1109.95 335.127 1110.79 335.221C1111.63 335.314 1112.38 335.793 1113.08 336.098C1114.25 336.851 1115.65 337.007 1116.98 336.815C1118.41 336.691 1119.76 336.22 1121.19 335.642C1122.54 335.171 1123.93 334.42 1125.14 333.706C1126.77 332.812 1128.29 331.849 1129.92 330.955C1131.69 328.663 1133.19 326.34 1134.33 323.637C1135.67 320.618 1136.63 317.499 1137.48 314.312C1139.08 307.869 1139.55 301.301 1139.92 294.664C1140.77 281.46 1140.34 267.888 1144.02 254.716C1144.94 251.423 1146.25 248.23 1147.87 245.242C1149.5 242.254 1151.54 239.539 1153.81 236.961C1156.17 234.452 1158.62 232.291 1161.38 230.335C1164.14 228.379 1167.05 226.665 1170.1 225.194C1173.15 223.723 1176.28 222.6 1179.45 221.651C1180.98 221.142 1182.72 220.77 1184.36 220.33C1186.03 220.063 1187.67 219.623 1189.27 219.462C1195.97 218.397 1202.76 218.587 1209.33 218.186C1215.9 217.786 1222.59 216.721 1228.02 213.194C1230.75 211.517 1232.95 209.045 1235.35 206.71C1237.76 204.375 1240.41 201.897 1243.99 200.768C1247.57 199.639 1251.19 200.324 1254.26 200.214C1257.38 200.277 1260.33 199.192 1263.06 197.515C1265.8 195.839 1268.35 193.746 1271.11 191.79C1272.53 190.759 1273.87 189.834 1275.39 188.872C1276.85 188.015 1278.58 187.189 1280.29 186.643C1283.1 185.769 1285.44 183.539 1286.54 180.662C1287.08 179.364 1287.5 177.543 1288.07 175.965C1288.63 174.387 1289.37 172.772 1290.04 171.262C1293.19 165.218 1297.29 159.789 1301.32 154.465C1305.35 149.142 1309.52 144.061 1312.91 138.327C1314.58 135.513 1316.03 132.562 1317.16 129.406C1318.22 126.355 1318.86 123.031 1318.94 119.645L1319.22 119.676C1319.41 126.375 1317.33 133.103 1314.15 138.974C1310.97 144.845 1306.87 150.274 1302.95 155.665C1299.02 161.057 1295.1 166.449 1292.27 172.245C1291.59 173.755 1290.92 175.265 1290.42 176.737C1289.75 178.247 1289.53 179.75 1288.83 181.54C1287.39 184.944 1284.64 187.808 1281.06 188.937C1278.07 189.849 1275.48 191.767 1272.79 193.618C1270.13 195.642 1267.58 197.735 1264.5 199.486C1263.05 200.343 1261.49 201.131 1259.68 201.609C1257.97 202.154 1256.12 202.458 1254.37 202.376C1250.91 202.387 1247.68 201.801 1244.76 202.607C1241.83 203.414 1239.39 205.575 1237.05 207.805C1234.71 210.034 1232.35 212.544 1229.3 214.468C1226.33 216.288 1223.03 217.448 1219.72 218.155C1216.41 218.861 1212.98 219.046 1209.62 219.125C1202.84 219.389 1196.26 218.882 1189.63 219.842C1183.07 220.696 1176.56 222.631 1170.63 225.536C1167.65 226.902 1164.85 228.684 1162.19 230.708C1159.54 232.733 1157.2 234.962 1155 237.434C1152.92 239.975 1151.04 242.652 1149.59 245.603C1148.14 248.554 1147.08 251.604 1146.23 254.792C1144.52 261.167 1143.87 267.772 1143.4 274.34C1142.86 281.013 1142.66 287.613 1142.12 294.286C1141.58 300.96 1140.75 307.602 1138.92 314.188C1137.41 319.793 1134.89 325.34 1131.12 329.788C1131.67 329.396 1132.33 329.074 1132.95 328.577L1134.89 327.435C1135.44 327.043 1135.82 326.689 1136.23 326.056C1136.98 324.894 1137.69 323.558 1138.22 322.26C1139.36 319.557 1140.47 316.681 1141.5 313.91C1143.63 308.262 1145.88 302.683 1148.4 297.136C1153.48 286.214 1159.66 275.697 1166.89 265.864L1169.66 262.267L1172.43 258.671L1175.3 255.142L1178.39 251.751L1181.47 248.36L1184.81 245.279C1185.95 244.217 1187.08 243.155 1188.25 242.267L1191.84 239.498C1196.67 235.735 1202.04 232.767 1207.44 229.974C1210.25 228.645 1212.89 227.354 1215.73 226.2C1218.58 225.045 1221.32 223.823 1224.21 222.842C1235.5 218.61 1247.08 214.863 1258.08 210.146C1269.09 205.429 1279.65 199.531 1289.31 192.458C1294.22 189.043 1298.73 185.074 1302.67 180.59C1306.61 176.105 1309.87 171.036 1312.33 165.594C1317.45 154.847 1319.54 142.743 1319.81 130.663C1320.18 118.651 1318.63 106.595 1316.95 94.7501C1316.1 88.8277 1315.05 82.7684 1314.38 76.8088C1313.71 70.8492 1313.74 64.7408 1314.61 58.7261C1316.45 46.765 1321.7 35.3524 1329.65 26.2778C1334.27 22.3778 1338.78 18.4093 1343.79 15.0625C1345.07 14.2429 1346.35 13.4233 1347.63 12.6037C1348.91 11.7841 1350.33 11.207 1351.61 10.3874C1354.35 9.16461 1357.2 8.01028 1360.23 7.27238C1363.15 6.46607 1366.19 6.18182 1369.11 5.37551C1370.61 5.14636 1372.04 4.56917 1373.5 4.16601C1374.92 3.58885 1376.28 3.11728 1377.66 2.36609C1378.32 2.04329 1378.98 1.72052 1379.64 1.39773L1381.58 0.255375C1382.24 -0.0674236 1382.96 -0.495843 1383.52 -0.88705C1384.07 -1.27826 1384.8 -1.70665 1385.31 -2.27186C1386.48 -3.15987 1387.51 -4.29025 1388.05 -5.58872C1388.58 -6.88718 1388.24 -8.4533 1387.38 -9.45421C1386.64 -9.93307 1385.36 -10.754 1384.09 -11.5749Z" fill="#FFFDFB"/>
</svg>
