<svg width="1792" height="1480" viewBox="0 0 1792 1480" fill="none"
  xmlns="http://www.w3.org/2000/svg">
  <path d="M1759.15 160.528C1760.3 157.605 1761.22 154.567 1761.73 151.473L1763.54 142.481C1766.33 130.626 1770.41 119.114 1775.01 107.715C1779.61 96.3162 1784.92 85.2634 1790.34 74.2683C1795.76 63.2731 1801.64 52.5087 1806.83 41.3982L1808.73 37.2466L1810.52 33.0374C1811.21 31.6337 1811.67 30.1148 1812.18 28.7705L1812.99 26.5497C1813.22 25.7902 1813.45 25.0307 1813.56 24.2136C1814.47 21.1756 1814.81 18.141 1815.02 15.0488C1815.24 11.9565 1815.22 8.74884 1814.27 5.66314C1813.85 4.14912 1813.03 2.5791 1811.5 1.53789C1810.74 1.01729 1809.81 0.847593 1808.93 0.852529C1808.06 0.857466 1807.19 1.15399 1806.43 1.50819C1804.92 2.21659 1803.7 3.21496 1802.54 4.38795C1801.44 5.44397 1800.39 6.67462 1799.35 7.90527C1797.44 10.3073 1795.71 12.9415 1794.2 15.6911L1791.84 19.6121C1791.03 20.9581 1790.16 22.1294 1789.23 23.4177C1782.17 33.314 1773.36 42.0538 1763.54 49.2828C1761.16 51.1625 1758.49 52.7523 1756.11 54.632L1748.73 60.1559C1743.85 63.8578 1738.86 67.5019 1733.98 71.2037L1719.58 82.7161C1717.2 84.5959 1714.82 86.4756 1712.38 88.4723L1705.36 94.4608L1698.34 100.449L1694.85 103.385L1693.11 104.853L1691.49 106.378L1677.91 118.878L1674.49 121.988L1671.3 125.214L1664.74 131.725L1658.19 138.235C1656.1 140.405 1653.96 142.692 1651.93 145.036L1645.67 151.837C1643.52 154.123 1641.44 156.293 1639.53 158.695L1627.53 172.702L1616.18 187.171C1614.27 189.573 1612.59 192.091 1610.74 194.667L1605.42 202.221C1591.48 222.537 1579.06 243.895 1569.04 266.289L1568 268.394L1567.08 270.557L1565.3 274.767L1561.79 283.36L1558.69 292.009C1557.71 294.872 1556.56 297.795 1555.7 300.716L1552.95 309.538C1552.49 311.057 1552.09 312.459 1551.64 313.978L1550.44 318.475C1548.84 324.375 1547.47 330.39 1546.11 336.405C1543.67 348.433 1541.75 360.575 1540.65 372.828C1539.56 385.082 1539.16 397.39 1539.35 409.695C1539.36 413.195 1539.56 416.634 1539.64 420.017C1539.52 420.834 1539.59 421.592 1539.48 422.409L1539.77 422.407C1539.84 424.331 1539.96 426.139 1540.03 428.063C1540.36 434.185 1540.8 440.365 1540.84 446.488C1540.79 449.521 1540.29 452.615 1539.72 455.534C1539.1 458.571 1538.35 461.549 1537.15 464.297C1536.45 465.701 1535.82 466.987 1534.78 468.218C1533.67 469.274 1532.75 470.562 1532.29 472.081C1531.83 473.6 1531.78 475.175 1532.2 476.689C1532.62 478.203 1533.56 479.539 1534.85 480.465C1537.42 482.317 1540.63 482.882 1543.66 482.632C1546.75 482.264 1549.78 481.431 1552.51 480.016C1555.31 478.775 1557.57 475.963 1557.72 472.696C1557.83 471.879 1557.77 471.121 1557.71 470.363C1557.65 469.605 1557.58 468.848 1557.4 468.032C1557.1 466.576 1556.69 465.062 1556.27 463.548C1554.49 457.726 1552.12 451.907 1550.34 446.085C1548.44 440.205 1547.01 434.264 1546.22 428.203C1545.42 422.142 1545.27 415.961 1545.94 409.891C1546.1 408.374 1546.39 406.914 1546.55 405.397C1546.84 403.938 1547.18 402.361 1547.46 400.901C1547.86 399.499 1548.2 397.923 1548.6 396.521C1548.83 395.761 1549 395.119 1549.35 394.417L1550.21 392.371C1552.81 386.815 1556.28 381.838 1559.86 376.919C1563.57 372.057 1567.51 367.311 1571.51 362.74C1579.68 353.537 1588.09 344.741 1596.73 336.061C1603.92 328.846 1611.05 321.749 1618.3 314.71C1610.94 322.858 1603.76 331.238 1596.87 339.909C1589.57 349.107 1582.39 358.362 1576.03 368.313C1572.85 373.288 1569.9 378.379 1567.31 383.642C1564.83 388.964 1562.53 394.517 1561.75 400.529C1560.47 412.259 1559.84 423.869 1559.26 435.653C1559 441.487 1558.86 447.378 1558.9 453.21C1558.91 456.126 1558.93 459.042 1558.94 461.958L1559.09 466.39L1559.16 468.605L1559.22 469.655L1559.22 470.238L1559.23 470.53C1559.17 470.647 1559.35 470.879 1559.35 470.879C1559.4 470.762 1559.46 470.645 1559.4 470.47C1560.2 467.958 1561.01 465.446 1561.87 462.816C1562.27 461.414 1562.78 460.07 1563.18 458.668L1564.56 454.694C1566.34 449.319 1568.47 444.116 1570.48 438.856C1572.49 433.595 1574.74 428.45 1576.86 423.248L1583.78 407.753C1593.28 387.287 1603.61 367.224 1614.81 347.74C1625.96 328.08 1637.75 308.884 1651 290.555C1657.54 281.42 1664.55 272.515 1671.85 263.901L1677.47 257.512C1678.16 256.691 1678.8 255.988 1679.5 255.167C1687.04 247.835 1694.52 240.327 1701.88 232.762C1710.46 223.907 1718.93 214.994 1726.98 205.734C1735.04 196.474 1742.91 186.981 1749.8 176.561C1753.62 171.757 1756.85 166.373 1759.15 160.528ZM1595.55 334.609C1586.97 343.464 1578.62 352.435 1570.57 361.695C1566.51 366.384 1562.69 371.188 1559.1 376.107C1555.46 381.143 1552.04 386.295 1549.45 391.85L1548.53 394.013C1548.18 394.715 1548.07 395.532 1547.84 396.292C1547.38 397.811 1547.1 399.27 1546.76 400.847C1546.48 402.306 1546.14 403.883 1545.97 405.4C1545.8 406.918 1545.64 408.435 1545.47 409.952C1544.92 416.079 1545.19 422.318 1545.98 428.379C1546.89 434.498 1548.44 440.496 1550.4 446.259C1552.3 452.139 1554.61 457.783 1556.5 463.663C1556.98 465.06 1557.4 466.574 1557.64 468.147C1557.82 468.963 1557.88 469.721 1558 470.362C1558.06 471.119 1558.13 471.877 1558.01 472.694C1557.97 475.727 1555.89 478.48 1553.1 479.721C1550.42 481.019 1547.33 481.97 1544.42 482.278C1541.39 482.528 1538.3 482.021 1535.78 480.343C1534.61 479.475 1533.67 478.139 1533.19 476.742C1532.72 475.345 1532.77 473.77 1533.22 472.251C1533.68 470.732 1534.55 469.561 1535.65 468.505C1536.7 467.274 1537.5 465.928 1538.14 464.641C1539.41 461.777 1540.15 458.798 1540.77 455.762C1541.4 452.725 1541.85 449.748 1541.94 446.598C1541.91 440.475 1541.47 434.295 1541.14 428.173C1540.95 425.317 1540.93 422.401 1540.86 419.602C1542.21 410.379 1545.31 401.438 1549.17 393.018C1551.36 388.282 1553.72 383.778 1556.38 379.272C1559.04 374.766 1561.75 370.435 1564.7 366.219C1576.27 348.949 1589.89 333.125 1603.97 317.823C1611.1 310.143 1618.35 302.812 1626.07 295.711C1629.84 292.191 1633.84 288.785 1637.85 285.38C1641.85 281.975 1645.8 278.686 1649.87 275.456C1662.64 264.886 1675.41 254.316 1688.41 243.861C1683.89 248.319 1679.31 252.894 1674.78 257.352C1657.27 274.597 1639.52 291.436 1622 308.682C1612.77 317.074 1604.13 325.754 1595.55 334.609ZM1661.01 276.734C1657.42 281.07 1654.12 285.696 1650.71 290.265C1637.34 308.537 1624.73 327.329 1613.35 346.873C1601.86 366.359 1591.7 386.654 1582.43 407.236C1580.07 412.323 1578 417.701 1575.75 422.846C1573.74 428.106 1571.61 433.309 1569.54 438.686C1567.65 444.004 1565.64 449.264 1564.09 454.755L1562.83 458.787C1562.43 460.189 1561.97 461.416 1561.69 462.876C1561.06 465.329 1560.49 467.956 1559.75 470.643L1559.75 470.06L1559.68 469.011L1559.61 466.795L1559.59 462.421C1559.57 459.505 1559.73 456.53 1559.83 453.671C1560.09 447.838 1560.35 442.004 1560.78 436.111C1561.59 424.442 1562.69 412.771 1564.03 401.216C1564.75 395.613 1567.11 390.234 1569.65 385.087C1572.19 379.941 1575.25 374.908 1578.49 370.107C1584.91 360.331 1591.97 351.018 1599.21 341.937C1613.98 323.774 1629.63 306.481 1645.75 289.418C1648.7 286.368 1651.66 283.319 1654.44 280.329C1660.07 274.815 1665.75 269.475 1671.38 263.961C1669.53 265.955 1667.85 268.181 1666.17 270.406L1661.01 276.734ZM1748.1 175.579C1741.33 185.765 1733.51 195.141 1725.46 204.401C1714.91 216.358 1703.89 227.793 1692.76 239.171C1685.79 243.876 1679.11 248.871 1672.37 253.983C1664.13 260.386 1655.94 266.965 1648.17 273.891C1640.39 280.817 1632.79 287.975 1625.31 295.191C1617.71 302.349 1610.11 309.507 1602.68 316.897C1595.26 324.288 1588.07 331.794 1581.23 339.764C1577.82 343.749 1574.51 347.792 1571.33 351.893C1568.14 355.993 1565.02 360.268 1562.13 364.659C1556.35 373.44 1551.15 382.509 1547.06 392.272C1543.95 399.755 1541.55 407.583 1540.54 415.521C1540.48 413.597 1540.47 411.847 1540.51 409.98C1540.44 397.733 1541.13 385.423 1542.35 373.227C1543.68 361.089 1545.71 349.004 1548.27 337.034C1549.75 331.077 1550.94 325.121 1552.83 319.22C1553.69 316.299 1554.43 313.321 1555.41 310.457L1558.27 301.693C1559.13 298.772 1560.28 295.849 1561.37 293.044L1564.59 284.452L1568.16 276.034L1569.94 271.824L1570.87 269.661L1571.9 267.556C1582.04 245.219 1594.17 223.864 1607.99 203.781L1613.32 196.227C1615.11 193.768 1616.85 191.133 1618.7 188.848L1629.82 174.264L1641.57 160.142C1643.49 157.74 1645.57 155.57 1647.6 153.226L1653.74 146.367C1670.32 128.369 1687.96 111.181 1706.65 95.3867L1713.55 89.3405C1715.87 87.2862 1718.37 85.4641 1720.64 83.5267L1735.03 72.0143C1739.91 68.3125 1744.91 64.6683 1749.73 61.0835L1757.1 55.5595C1759.48 53.6798 1762.16 52.09 1764.66 50.2679C1774.53 42.922 1783.46 34.2398 1790.7 24.2843C1791.62 22.996 1792.49 21.8246 1793.3 20.4786L1795.67 16.5577C1797.23 13.9827 1798.96 11.3485 1800.82 9.06344C1801.68 7.8921 1802.79 6.8361 1803.89 5.78008C1804.99 4.72406 1806.15 3.84266 1807.49 3.19357C1808.07 2.89867 1808.77 2.66145 1809.47 2.71582C1810.05 2.71253 1810.7 2.88383 1811.28 3.17213C1812.39 3.86572 1813.04 5.20349 1813.4 6.54288C1814.17 9.39629 1814.13 12.4292 1813.97 15.4046C1813.82 18.3799 1813.31 21.4738 1812.51 24.2778C1812.28 25.0373 1812.22 25.7375 1811.88 26.4393L1811.13 28.5431C1810.56 30.0044 1810.16 31.4064 1809.47 32.81L1807.68 37.0192L1805.66 41.1132C1800.36 52.166 1794.47 62.9305 1788.93 73.868C1777.86 95.7429 1767.49 118.255 1761.56 142.376L1759.69 151.485C1759.12 154.404 1758.32 157.208 1757.23 160.014C1754.51 165.22 1751.39 170.37 1748.1 175.579Z" fill="#FFFDFB"/>
  <path d="M931.645 348.005L931.083 347.673C930.912 347.603 930.742 347.532 930.571 347.461C930.18 347.2 929.769 347.229 929.359 347.259C928.948 347.289 928.538 347.319 928.127 347.349C926.466 347.759 925.176 348.724 924.058 349.758C923.438 350.301 922.939 350.793 922.32 351.335C921.7 351.878 921.251 352.491 920.802 353.104L919.285 354.872C918.836 355.485 918.388 356.098 917.819 356.761C916.801 358.037 916.124 359.455 915.277 360.801C914.6 362.219 913.923 363.636 913.246 365.053C912.063 367.958 911.051 370.933 909.867 373.838C908.684 376.743 906.99 379.437 905.245 382.009C904.347 383.235 903.329 384.511 902.381 385.617C901.313 386.772 900.415 387.998 899.176 389.083C894.853 393.584 890.037 397.581 885.221 401.579C874.523 408.035 862.002 411.141 849.591 410.798C843.3 410.592 837.237 409.581 831.231 407.695C825.276 405.93 819.29 403.752 813.405 401.817C801.533 397.703 789.522 393.932 777.225 391.839C764.809 389.797 752.037 389.605 739.807 392.731C733.692 394.294 727.809 396.753 722.35 399.885C716.891 403.017 711.904 406.944 707.41 411.375C698.151 419.924 690.148 429.791 683.218 440.202C676.168 450.664 670.192 461.669 663.824 472.412C662.249 475.056 660.555 477.749 658.93 480.271C657.185 482.844 655.44 485.417 653.644 487.868C649.883 492.702 646.001 497.585 641.406 501.774L638.05 504.878C636.932 505.913 635.592 506.756 634.473 507.791L630.846 510.583L626.947 513.063L623.048 515.544L618.928 517.833L614.758 520.001L610.588 522.169C599.486 527.659 587.811 532.114 575.801 535.431C569.856 537.065 563.76 538.336 557.664 539.608C554.531 540.209 551.518 540.759 548.435 541.48C546.893 541.841 545.352 542.201 543.842 542.974C543.122 543.275 542.262 543.918 541.693 544.581L540.176 546.35C538.04 548.66 535.903 550.971 533.987 553.473C532.97 554.749 532.072 555.975 531.225 557.322C530.377 558.669 529.58 560.136 529.125 561.745C528.669 563.353 528.554 565.103 529.26 566.792C529.815 568.12 529.959 569.478 529.232 570.774C528.625 572.021 527.708 573.538 527.473 575.338C527.188 577.017 527.483 578.737 527.969 580.235C528.151 581.01 528.454 581.734 528.757 582.458L529.545 584.681C530.03 586.18 530.345 587.608 530.42 589.137C530.494 590.665 530.108 592.103 529.772 593.661C529.436 595.219 529.271 596.848 529.396 598.497C529.521 600.146 530.007 601.645 530.372 603.194L531.16 605.417C531.463 606.141 531.765 606.865 531.948 607.64C532.919 610.637 533.599 613.614 534.159 616.641C534.719 619.669 535.039 622.796 535.359 625.924C535.679 629.051 535.999 632.179 536.61 635.327C536.792 636.101 536.975 636.875 537.328 637.72C537.479 638.083 537.681 638.565 538.073 638.827C538.344 639.139 538.735 639.401 539.076 639.542C539.929 639.895 540.8 639.956 541.502 639.946C542.203 639.937 542.954 640.048 543.636 640.33C545 640.895 546.414 641.58 547.639 642.486C548.984 643.342 550.089 644.298 551.124 645.425C553.074 647.73 554.285 650.627 555.906 653.494C556.751 654.842 557.837 656.09 558.992 657.167C559.605 657.62 560.267 658.194 561.069 658.426C561.802 658.828 562.484 659.111 563.286 659.343C566.374 660.321 569.519 660.424 572.665 660.527C575.76 660.51 578.924 660.322 582.038 660.013L586.694 659.343C588.166 659.154 589.808 659.035 591.191 659.307C591.482 659.328 591.873 659.589 592.164 659.61C592.385 659.801 592.846 659.892 592.997 660.254C593.439 660.637 594.032 661.381 594.695 661.955C595.97 662.982 597.555 663.737 599.248 663.739C600.871 663.911 602.463 663.671 603.915 663.773C605.128 663.975 606.334 665.173 607.129 666.401C609.009 668.876 610.34 671.723 611.62 674.449C612.793 677.929 614.016 681.53 615.308 684.96C616.601 688.39 617.944 691.941 619.527 695.391C620.353 697.031 621.11 698.842 622.176 700.381C623.243 701.921 624.669 703.309 626.355 704.306C628.041 705.303 629.866 705.959 631.779 706.151C633.573 706.394 635.386 706.346 637.287 705.835C640.842 708.603 644.465 711.201 648.019 713.969C649.857 715.328 651.694 716.687 653.651 717.996C654.434 718.52 655.217 719.043 655.999 719.567C655.879 719.617 655.709 719.547 655.589 719.597C655.469 719.647 655.298 719.576 654.938 719.727L654.818 719.777C654.818 719.777 654.818 719.777 654.629 719.998C654.629 719.998 654.369 720.39 654.521 720.752C654.621 720.994 654.792 721.064 654.792 721.064C654.962 721.135 655.083 721.084 655.133 721.205C655.253 721.155 655.303 721.276 655.424 721.226C655.714 721.246 656.005 721.266 656.415 721.236C656.706 721.257 656.996 721.277 657.356 721.127C657.647 721.147 657.887 721.047 658.367 720.846C658.487 720.796 658.487 720.796 658.677 720.575C659.378 720.565 660.149 720.385 660.85 720.376C663.143 720.126 665.417 720.169 667.729 719.628C669.971 719.258 672.283 718.717 674.514 717.643C675.114 717.392 675.594 717.191 676.144 716.82L676.814 716.398C676.934 716.348 677.054 716.298 677.054 716.298C677.054 716.298 677.104 716.418 677.155 716.539C677.256 716.78 677.357 717.022 677.457 717.263L678.113 718.833C679.021 721.005 680.17 723.078 681.438 725.1C682.706 727.122 684.164 728.924 686.222 730.474C687.226 731.189 688.349 731.853 689.612 732.176C690.876 732.499 692.158 732.531 693.459 732.27C695.942 731.8 697.97 730.243 699.658 728.545C700.416 727.661 701.295 726.727 701.934 725.893L704.039 723.169C705.385 721.331 706.903 719.562 708.3 717.844C709.697 716.126 711.214 714.357 712.832 712.83C713.641 712.067 714.45 711.303 715.259 710.54C715.689 710.219 716.068 709.776 716.498 709.455C716.687 709.234 717.047 709.084 717.237 708.862C719.446 710.775 721.776 712.637 724.175 714.329C726.795 716.211 729.364 717.973 732.313 719.293C733.046 719.696 733.848 719.928 734.65 720.16C735.452 720.392 736.374 720.574 737.505 720.243C737.745 720.143 737.985 720.043 738.345 719.892L738.655 719.621C738.775 719.571 738.844 719.4 738.844 719.4C739.154 719.128 739.413 718.737 739.723 718.465C740.292 717.802 740.69 717.069 741.139 716.456C742.783 713.642 744.017 710.857 745.762 708.285C746.609 706.938 747.557 705.833 748.506 704.727C749.504 703.743 750.623 702.708 751.843 701.915C752.392 701.543 753.112 701.242 753.833 700.941C754.553 700.64 755.273 700.339 755.994 700.038C757.434 699.436 758.824 698.714 760.334 697.941C761.724 697.218 763.064 696.374 764.524 695.481C765.813 694.517 767.102 693.552 768.36 692.176C768.929 691.513 769.447 690.729 769.644 689.512C769.663 689.221 769.682 688.929 769.701 688.638C769.601 688.396 769.569 687.984 769.468 687.743C769.367 687.501 769.267 687.26 769.286 686.968C769.254 686.556 769.394 686.214 769.773 685.772C770.152 685.33 770.752 685.079 771.422 684.657C772.142 684.356 772.743 684.105 773.463 683.804C773.703 683.704 774.404 683.695 775.036 683.856C776.419 684.129 778.023 684.593 779.456 684.986C782.494 685.844 785.721 686.48 789.056 686.362C790.749 686.364 792.461 686.074 794.021 685.422C795.582 684.769 797.111 683.705 798.3 682.499C800.316 680.239 802.654 678.411 805.283 676.603C807.741 674.725 810.44 672.746 812.475 670.194L813.184 669.189C813.443 668.797 813.582 668.456 813.841 668.064C814.1 667.672 814.24 667.33 814.499 666.938L814.986 665.742C815.334 664.887 815.442 664.133 815.619 663.208C815.847 662.404 815.734 661.459 815.792 660.584C815.849 659.709 815.667 658.935 815.554 657.99C815.491 657.165 815.258 656.27 814.955 655.546L814.237 653.152L813.278 650.858C812.017 647.841 810.086 645.245 808.275 642.598C804.463 637.527 800.342 632.727 796.581 627.776C792.82 622.826 789.489 617.554 786.877 611.981C781.535 600.885 779.023 588.464 779.316 576.006C779.489 563.598 781.986 551.352 785.455 539.41C787.19 533.438 789.045 527.417 791.121 521.587C793.317 515.706 795.733 510.017 798.882 504.731C798.952 504.56 799.022 504.389 799.211 504.168C799.401 503.947 799.591 503.726 799.831 503.625L799.61 503.434C802.55 498.66 806.223 494.29 810.438 490.543C815.134 486.595 820.423 483.392 825.712 480.189C831.051 477.107 836.511 473.975 841.97 470.842C847.379 467.589 852.618 464.266 857.806 460.821C862.994 457.377 868.081 453.691 873.118 449.885L888.208 438.757C898.212 431.315 908.387 423.943 918.069 416.068C922.935 412.191 927.751 408.194 931.973 403.451C933.939 401.07 935.924 398.397 937.057 395.371C937.563 393.883 938.019 392.275 938.064 390.696C938.033 390.284 938.172 389.942 938.141 389.53L938.047 388.293C937.985 387.468 938.092 386.714 937.91 385.94C937.44 379.755 937.331 373.42 936.691 367.165C936.371 364.038 936.051 360.91 935.44 357.763C935.075 356.214 934.71 354.665 934.225 353.166C933.739 351.667 933.083 350.098 931.998 348.85C932.308 348.579 931.986 348.146 931.645 348.005ZM739.833 715.016C739.384 715.629 739.105 716.313 738.606 716.805C738.467 717.147 738.107 717.297 737.917 717.519C737.797 717.569 737.847 717.689 737.727 717.74L737.607 717.79C737.487 717.84 737.367 717.89 737.367 717.89C737.007 718.041 736.256 717.929 735.624 717.768C734.992 717.606 734.31 717.324 733.629 717.042C730.85 715.793 728.281 714.031 725.762 712.389C723.192 710.627 720.812 708.644 718.432 706.661L717.99 706.279L717.51 706.48C716.79 706.781 716.411 707.223 715.861 707.594C715.431 707.916 714.932 708.408 714.502 708.729C713.573 709.543 712.764 710.306 712.006 711.191C710.438 712.838 708.921 714.607 707.404 716.375C705.887 718.143 704.54 719.982 703.193 721.821L701.657 723.881C702.871 721.389 703.865 718.705 704.568 716C705.816 711.225 706.021 706.318 705.525 701.421C704.705 691.697 701.231 682.372 698.439 673.33C697.771 671.057 697.103 668.784 696.725 666.531C696.511 665.344 696.468 664.228 696.425 663.112L696.364 659.592L696.551 645.193C696.497 640.678 696.443 636.163 696.149 631.749C697.233 635.692 698.317 639.634 699.64 643.477C702.622 652.298 705.964 660.969 709.855 669.268C710.883 671.39 711.861 673.392 712.889 675.515C713.987 677.467 714.945 679.76 716.624 681.753C717.438 682.688 718.663 683.595 719.736 684.138C720.81 684.682 722.003 685.176 723.026 685.599C725.072 686.446 727.048 687.463 728.955 688.651C732.768 691.028 736.133 694.017 738.808 697.72C740.146 699.572 741.364 701.473 742.462 703.425C743.137 704.703 743.742 706.151 744.297 707.479C742.451 709.81 741.217 712.594 739.833 715.016ZM772.814 681.24C772.094 681.541 771.374 681.842 770.533 682.193C769.863 682.615 769.023 682.966 768.334 683.679C767.904 684.001 767.696 684.513 767.436 684.905C767.367 685.076 767.297 685.247 767.228 685.418C760.862 673.899 754.687 662.159 748.871 650.268C745.787 643.9 742.703 637.532 739.618 631.164C738.136 627.955 736.654 624.746 735.292 621.487C733.93 618.228 732.808 614.868 731.686 611.509C729.562 604.74 728.209 597.79 727.677 590.781C727.445 587.191 727.265 583.722 727.324 580.152L727.091 569.473C727.023 566.949 727.196 564.325 727.539 561.771C728.224 566.448 729.029 571.074 729.835 575.7C730.822 581.101 732.101 586.522 733.379 591.943C734.658 597.364 736.297 602.634 738.226 607.925C740.104 613.095 742.564 618.306 745.763 622.924C747.423 625.208 749.323 627.392 751.242 629.284C753.211 631.297 755.01 633.239 756.328 635.382C756.701 635.936 756.953 636.539 757.325 637.093C757.577 637.696 757.95 638.25 758.082 638.903C758.586 640.11 759.141 641.438 759.526 642.696L762.224 650.501C765.76 660.65 769.467 670.87 773.244 680.918C773.414 680.989 772.934 681.19 772.814 681.24ZM789.024 520.619C786.829 526.5 784.974 532.521 783.289 538.613C779.75 550.727 777.064 563.193 776.922 576.014C776.73 588.714 779.153 601.597 784.698 613.175C787.53 618.94 790.911 624.332 794.723 629.404C798.535 634.475 802.656 639.275 806.417 644.226C808.298 646.701 810.058 649.227 811.218 652.003L812.196 654.005L812.934 656.107C813.236 656.831 813.248 657.535 813.431 658.31C813.563 658.963 813.746 659.738 813.638 660.492C813.737 663.428 812.744 666.112 810.847 668.322C809.001 670.654 806.663 672.482 804.034 674.289C801.576 676.167 798.877 678.146 796.791 680.577C794.964 682.617 792.153 683.65 789.228 683.738C786.304 683.826 783.367 683.21 780.33 682.353C778.776 682.009 777.292 681.495 775.619 681.202C775.158 681.111 774.867 681.091 774.406 681C773.183 677.399 772.44 673.597 771.818 669.746C771.145 665.773 770.592 661.75 770.038 657.728C768.932 649.682 767.997 641.708 766.77 633.713C766.217 629.69 765.544 625.717 764.701 621.674C764.304 619.713 763.857 617.631 763.34 615.72C762.824 613.809 762.086 611.707 761.449 609.846C760.126 606.004 758.732 602.332 757.939 598.41C757.076 594.659 756.934 590.606 756.962 586.624C757.018 578.661 758.356 570.728 760.667 563.098C762.977 555.468 766.09 548.07 770.055 541.025C776.221 529.799 784.244 519.64 793.08 510.417C791.688 513.834 790.296 517.252 789.024 520.619ZM841.113 468.79C835.773 471.872 830.314 475.005 824.804 478.017C822.074 479.583 819.344 481.149 816.716 482.957C814.036 484.643 811.458 486.572 809.05 488.571C804.165 492.739 800.043 497.723 796.875 503.301C795.819 505.16 794.883 506.969 793.877 508.949C784.219 518.232 775.477 528.692 768.761 540.29C760.61 554.189 755.179 570.212 754.688 586.582C754.674 588.573 754.71 590.685 754.867 592.746C755.023 594.808 755.18 596.869 755.507 599.001C756.231 603.094 757.605 607.058 758.878 610.779C759.565 612.761 760.151 614.501 760.668 616.412C761.185 618.323 761.701 620.234 762.098 622.195C762.891 626.117 763.684 630.04 764.357 634.012C765.704 641.957 766.93 649.952 768.396 657.847C769.302 662.715 770.209 667.582 771.235 672.4C768.568 665.007 766.141 657.513 763.955 649.919L761.497 642.014C761.062 640.636 760.678 639.378 760.123 638.051C759.87 637.447 759.568 636.723 759.265 635.998C759.013 635.395 758.59 634.721 758.218 634.167C756.748 631.662 754.728 629.529 752.929 627.586C750.96 625.574 749.281 623.581 747.672 621.418C744.574 617.041 742.215 612.071 740.216 606.951C738.217 601.832 736.579 596.561 735.11 591.361C733.592 586.04 732.244 580.79 730.965 575.369C729.769 570.481 728.692 565.543 727.615 560.605C728.224 556.664 729.294 552.814 730.535 549.034C732.839 542.399 735.995 536.118 739.763 530.289C747.25 518.511 757.035 508.182 767.886 499.394C770.603 497.124 773.422 495.095 776.24 493.066L780.638 490.094C782.098 489.2 783.558 488.306 785.068 487.534C791.228 484.392 797.912 482.165 804.597 479.939C817.965 475.486 831.605 471.346 844.589 465.636C846.749 464.733 848.74 463.759 850.85 462.735C847.792 464.865 844.512 466.802 841.113 468.79ZM934.275 353.287C934.76 354.786 935.126 356.334 935.44 357.763C936 360.79 936.321 363.917 936.641 367.045C937.16 373.35 937.219 379.564 937.619 385.92C937.819 389.097 937.678 392.134 936.565 394.868C935.502 397.723 933.586 400.225 931.569 402.485C927.417 407.057 922.55 410.934 917.684 414.811C907.901 422.444 897.677 429.695 887.502 437.067L872.361 448.074C868.493 450.966 864.455 453.788 860.537 456.56C855.267 459.471 849.846 462.021 844.324 464.328C831.36 469.747 817.739 473.596 804.32 477.928C797.586 480.033 790.781 482.31 784.33 485.431C782.7 486.254 781.07 487.077 779.661 488.092L775.262 491.064C772.324 493.143 769.506 495.172 766.668 497.492C761.062 501.962 755.898 506.814 751.006 511.978C746.164 517.263 741.714 522.809 737.926 528.93C734.138 535.05 730.913 541.503 728.71 548.379C726.507 555.254 724.986 562.413 725.329 569.643L725.972 580.292C726.203 583.882 726.555 587.422 726.906 590.962C727.779 598.112 729.423 605.082 731.427 611.901C735.555 625.489 740.984 638.818 747.272 651.503C753.378 663.414 759.775 675.346 767.511 686.434C767.562 686.554 767.492 686.725 767.542 686.846C767.504 687.429 767.706 687.912 767.908 688.395C768.009 688.636 767.958 688.515 768.009 688.636C768.059 688.757 767.939 688.807 767.99 688.928C767.901 689.39 767.692 689.903 767.193 690.395C766.365 691.45 765.195 692.364 763.856 693.208C762.636 694.001 761.296 694.844 759.906 695.567C758.516 696.29 757.126 697.013 755.806 697.565C755.086 697.866 754.365 698.167 753.645 698.468C752.975 698.889 752.084 699.12 751.465 699.662C750.005 700.556 748.767 701.641 747.578 702.846C746.51 704.002 745.492 705.278 744.645 706.625C743.593 703.094 742.01 699.644 739.877 696.565C737.391 692.641 733.945 689.119 730.03 686.501C728.073 685.192 726.046 684.054 723.779 683.016C721.683 682.049 719.757 681.152 718.451 679.713C717.094 678.153 716.236 676.101 715.208 673.978C714.18 671.856 713.202 669.854 712.174 667.731C708.283 659.432 704.751 650.982 701.58 642.382C698.913 634.989 696.436 627.375 694.25 619.781C693.985 618.474 693.651 617.337 693.267 616.08L692.256 616.361C692.917 619.629 693.698 622.848 694.479 626.066C694.674 627.544 694.869 629.023 694.944 630.551C695.269 635.378 695.013 640.164 694.757 644.95C694.501 649.736 693.954 654.502 693.869 659.359C693.792 660.525 693.886 661.762 693.86 663.049C693.834 664.336 693.928 665.573 694.192 666.881C694.671 669.375 695.219 671.698 695.937 674.092C697.323 678.759 699.07 683.275 700.406 687.822C701.742 692.368 702.958 696.964 703.523 701.691C704.088 706.417 704.123 711.224 703.115 715.899C702.525 719.548 701.133 722.966 699.571 726.313C699.312 726.705 698.882 727.026 698.623 727.418C697.175 729.016 695.336 730.351 693.264 730.792C691.192 731.232 689.247 730.627 687.41 729.268C685.743 727.98 684.286 726.178 682.998 724.448C681.781 722.546 680.683 720.595 679.825 718.542L679.169 716.973C679.069 716.732 678.917 716.37 678.816 716.128C678.595 715.937 678.514 715.404 677.832 715.122C677.08 715.011 676.77 715.282 676.41 715.432L675.62 715.904C675.14 716.105 674.71 716.426 674.11 716.677C672.12 717.651 669.928 718.141 667.685 718.511C665.443 718.882 663.27 719.081 660.926 719.209C660.105 719.269 659.164 719.379 658.343 719.438L658.172 719.368C658.002 719.297 657.781 719.106 657.44 718.965C656.487 718.371 655.533 717.777 654.649 717.012C652.812 715.652 650.855 714.344 649.018 712.984C645.344 710.266 641.67 707.548 637.945 704.709L637.724 704.518L637.364 704.668C635.803 705.32 633.94 705.248 632.197 705.126C630.403 704.883 628.749 704.299 627.233 703.372C626.11 702.707 625.055 701.872 624.191 700.815C623.599 697.376 623.829 693.877 624.059 690.378C624.409 686.828 624.98 683.47 625.841 680.133L631.318 659.836C634.953 646.264 638.518 632.864 642.324 619.363C646.009 605.912 649.934 592.361 654.643 579.333C656.997 572.819 659.591 566.205 662.286 559.833C663.609 556.586 665.101 553.41 666.474 550.284L670.953 540.755L669.437 539.829C662.217 550.22 657.876 562.101 651.748 572.744C648.769 578.101 645.229 583.126 640.754 587.264C636.45 591.474 631.009 594.315 625.569 597.155C620.078 599.876 614.297 602.575 609.14 606.432C606.562 608.36 604.306 610.721 602.39 613.223C600.525 615.846 599.001 618.61 597.698 621.565C595.382 627.496 594.158 633.679 593.396 639.953C592.634 646.226 592.402 652.42 592.341 658.685L592.632 658.705C593.154 652.532 593.626 646.237 594.729 640.105C595.712 634.022 597.106 627.91 599.693 622.291C600.927 619.507 602.381 616.914 604.297 614.412C606.143 612.08 608.38 610.011 610.718 608.183C615.565 604.598 621.277 602.069 626.938 599.419C629.769 598.094 632.549 596.649 635.228 594.962C637.908 593.275 640.486 591.347 642.793 589.106C647.457 584.747 650.967 579.31 654.065 573.903C657.183 568.204 659.79 562.294 662.566 556.454C662.218 557.309 661.801 558.334 661.453 559.188C658.808 565.682 656.334 572.246 653.98 578.759C649.202 591.958 644.544 605.106 640.398 618.466C636.252 631.826 632.787 645.468 629.563 659.01C627.891 665.806 626.389 672.672 624.837 679.418C624.026 682.876 623.556 686.476 623.447 689.925C623.286 693.253 623.347 696.772 624.128 699.991C623.907 699.799 623.806 699.558 623.585 699.367C622.569 697.948 621.693 696.188 620.986 694.498C619.454 691.168 617.991 687.667 616.698 684.237C615.406 680.807 614.063 677.256 612.89 673.776C611.56 670.929 610.229 668.083 608.298 665.487C607.755 664.863 607.212 664.239 606.67 663.615C606.007 663.041 605.274 662.638 604.352 662.456C602.729 662.284 601.137 662.524 599.685 662.422C598.232 662.32 596.868 661.756 595.643 660.85C595.031 660.397 594.659 659.843 593.996 659.27C593.724 658.958 593.263 658.867 592.872 658.605C592.531 658.464 592.019 658.252 591.609 658.282C589.935 657.989 588.343 658.229 586.821 658.298L582.165 658.967C579.102 659.397 575.937 659.585 572.842 659.603C569.747 659.62 566.602 659.517 563.634 658.488C562.952 658.206 562.15 657.974 561.588 657.642C560.906 657.36 560.294 656.907 559.681 656.453C558.576 655.497 557.491 654.249 556.816 652.972C555.296 650.346 554.034 647.328 551.983 644.782C550.898 643.534 549.623 642.508 548.398 641.602C547.053 640.746 545.708 639.89 544.174 639.255C543.372 639.023 542.57 638.791 541.749 638.851C540.877 638.789 540.226 638.92 539.664 638.587C539.323 638.446 539.102 638.255 538.831 637.943C538.61 637.752 538.459 637.39 538.358 637.148C538.055 636.424 537.923 635.77 537.74 634.996C537.18 631.969 536.98 628.791 536.54 625.714C536.22 622.586 535.9 619.459 535.29 616.311C534.73 613.283 534.119 610.136 532.978 607.068C532.675 606.343 532.493 605.569 532.19 604.845L531.402 602.622C530.917 601.123 530.602 599.695 530.407 598.217C530.332 596.688 530.428 595.23 530.814 593.793C531.15 592.234 531.606 590.626 531.531 589.097C531.526 587.398 531.161 585.849 530.676 584.35C530.19 582.852 529.465 581.453 529.1 579.905C528.665 578.527 528.419 576.928 528.686 575.54C528.901 574.032 529.679 572.856 530.356 571.439C530.754 570.705 530.932 569.78 530.989 568.906C531.047 568.031 530.694 567.186 530.511 566.412C529.956 565.084 530.052 563.626 530.488 562.309C530.875 560.871 531.602 559.575 532.449 558.228C533.177 556.932 534.194 555.656 535.143 554.55C536.35 553.053 537.608 551.677 538.815 550.179C541.475 548.784 544.116 547.68 547.079 547.009C550.402 546.188 553.756 545.779 557.161 545.49C564.021 545.034 570.804 545.744 577.638 546.574C591.255 548.115 605.016 551.013 619.115 549.658C622.64 549.319 626.133 548.568 629.475 547.455C632.817 546.342 635.958 544.746 638.997 542.909C641.986 540.95 644.634 538.851 647.13 536.39C649.627 533.929 651.903 531.276 653.958 528.432C656.012 525.588 657.726 522.603 659.269 519.548C660.066 518.081 660.762 516.372 661.509 514.784C662.084 513.125 662.831 511.537 663.287 509.929C665.59 503.294 666.631 496.337 668.234 489.712C669.836 483.087 672.14 476.452 676.723 471.559C678.929 469.077 681.848 467.29 684.666 465.261C687.485 463.233 690.493 460.983 692.295 457.536C694.098 454.088 694.056 450.277 694.728 447.161C695.229 443.974 696.873 441.16 699.08 438.678C701.286 436.196 703.883 433.976 706.38 431.515C707.688 430.259 708.876 429.054 710.134 427.677C711.272 426.351 712.429 424.733 713.296 423.095C714.7 420.381 717.398 418.402 720.531 417.802C721.953 417.492 723.886 417.393 725.598 417.103C727.309 416.813 729.091 416.352 730.752 415.941C737.487 413.835 743.768 410.643 749.928 407.501C756.089 404.36 762.028 401.027 768.492 398.609C771.663 397.425 774.936 396.483 778.359 395.903C781.663 395.373 785.169 395.326 788.636 395.862L788.655 395.57C781.86 394.156 774.621 395.055 768.057 397.231C761.493 399.407 755.212 402.599 749.001 405.62C742.79 408.641 736.579 411.662 730.154 413.497C728.493 413.908 726.831 414.318 725.239 414.558C723.578 414.969 722.005 414.917 720.053 415.308C716.319 416.159 712.901 418.439 711.098 421.886C709.625 424.771 707.198 427.061 704.821 429.472C702.274 431.813 699.676 434.033 697.331 436.856C696.193 438.183 695.106 439.63 694.29 441.389C693.423 443.027 692.778 444.856 692.543 446.656C691.903 450.185 691.913 453.584 690.559 456.418C689.206 459.252 686.558 461.352 683.859 463.33C681.161 465.309 678.172 467.267 675.656 470.02C673.26 472.722 671.477 475.878 670.155 479.125C668.832 482.372 668.022 485.83 667.331 489.238C665.829 496.105 665.149 502.912 662.965 509.496C660.901 516.03 657.745 522.312 653.705 527.829C651.771 530.622 649.444 533.154 646.897 535.495C644.35 537.835 641.652 539.814 638.733 541.601C635.763 543.268 632.692 544.693 629.42 545.635C626.147 546.577 622.843 547.107 619.439 547.396C612.629 547.973 605.776 547.434 598.993 546.724C592.09 546.064 585.326 545.063 578.423 544.403C571.519 543.743 564.597 543.375 557.547 544.052C551.559 544.57 545.444 546.133 540.225 549.165C540.724 548.673 541.173 548.06 541.792 547.517L543.309 545.749C543.809 545.257 544.238 544.935 544.959 544.634C546.279 544.083 547.77 543.601 549.191 543.291C552.154 542.62 555.288 542.019 558.301 541.469C564.447 540.318 570.543 539.046 576.659 537.483C588.719 534.286 600.565 529.903 611.906 524.312L616.077 522.144L620.247 519.976L624.367 517.687L628.386 515.156L632.404 512.626L636.152 509.784C637.441 508.819 638.73 507.855 639.849 506.821L643.325 503.666C648.04 499.427 652.042 494.493 655.873 489.489C657.738 486.867 659.533 484.415 661.228 481.721C662.923 479.028 664.668 476.455 666.192 473.691C672.56 462.948 678.486 451.822 685.295 441.461C692.105 431.1 700.039 421.404 709.008 412.834C713.381 408.454 718.248 404.577 723.537 401.374C728.825 398.171 734.588 395.763 740.583 394.25C752.472 390.983 765.193 391.054 777.559 392.976C789.875 394.777 801.886 398.548 813.657 402.42C819.542 404.356 825.529 406.533 831.484 408.298C837.439 410.063 843.672 411.145 849.963 411.352C862.494 411.644 875.085 408.368 885.783 401.912C890.599 397.914 895.465 394.037 899.788 389.536C900.857 388.38 901.925 387.225 902.993 386.07C904.061 384.914 904.909 383.567 905.977 382.412C907.722 379.839 909.417 377.146 910.72 374.191C912.073 371.357 912.916 368.311 914.269 365.476C914.776 363.988 915.623 362.642 916.3 361.225C917.147 359.878 917.874 358.581 918.892 357.305C919.341 356.692 919.79 356.079 920.239 355.466L921.756 353.698C922.205 353.085 922.774 352.422 923.273 351.93C923.772 351.437 924.341 350.774 925.011 350.352C926.13 349.318 927.469 348.474 928.891 348.164C930.312 347.853 931.846 348.488 932.711 349.545C933.064 350.39 933.67 351.838 934.275 353.287Z" fill="#FFFDFB"/>
  <path d="M1085.24 1081.9C1085.71 1078.42 1086 1074.99 1086.41 1071.63C1087 1064.77 1087.53 1058.02 1088.41 1051.17C1088.81 1047.81 1089.22 1044.44 1089.92 1041.09C1090.24 1039.47 1090.62 1037.74 1091.16 1036.25C1091.44 1035.5 1091.82 1034.82 1092.14 1034.26C1092.21 1034.14 1092.27 1034.03 1092.51 1033.87L1093.13 1033.31C1093.5 1032.92 1093.69 1032.58 1094 1032.31C1096.07 1029.44 1097.63 1026.42 1099.25 1023.29C1100.81 1020.28 1102.32 1017.09 1103.76 1014.01C1106.6 1007.67 1109.04 1001.26 1111.36 994.78C1115.77 981.694 1119.15 968.32 1120.62 954.614C1122.09 940.908 1121.83 926.82 1117.56 913.459C1115.27 906.916 1112.56 900.586 1109.61 894.418C1108.87 892.803 1108.25 891.253 1107.45 889.751L1105.12 885.134C1103.53 882.131 1102 879.015 1100.4 876.012C1087.4 851.863 1073.08 828.462 1058.76 805.061C1044.37 781.774 1029.81 758.536 1015.18 735.411C1007.95 723.824 1000.61 712.173 993.565 700.537C991.791 697.583 990.017 694.63 988.243 691.676C986.469 688.723 984.695 685.769 983.034 682.88C979.663 676.924 976.292 670.968 973.277 664.914C967.134 652.74 961.652 640.192 956.945 627.334C952.238 614.476 948.307 601.308 945.669 587.973C945.025 584.611 944.495 581.313 944.094 577.789C943.742 574.442 943.454 570.981 943.975 567.679C944.134 566.87 944.357 565.947 944.905 565.508C945.147 565.346 945.567 565.134 945.987 564.922C946.406 564.71 946.826 564.498 947.132 564.222C948.585 563.246 950.037 562.27 951.262 561.166C953.777 558.843 956.015 556.214 957.751 553.151C958.586 551.676 959.259 549.958 959.463 548.275C959.429 547.806 959.508 547.402 959.474 546.933C959.44 546.464 959.342 546.108 959.308 545.639C959.175 544.815 959.043 543.99 959.088 543.117C959.027 539.785 959.613 536.37 960.312 533.019C961.011 529.668 961.71 526.317 962.523 523.03C962.904 521.298 963.222 519.679 963.426 517.996C963.505 517.592 963.471 517.123 963.437 516.654C963.388 516.476 963.403 516.185 963.354 516.007C963.304 515.829 963.206 515.474 962.915 515.459C962.397 515.315 962.026 515.705 961.606 515.916C961.3 516.193 960.994 516.469 960.687 516.745C957.847 518.583 954.569 519.873 951.729 521.712C950.277 522.688 948.938 523.728 947.875 525.075C946.813 526.421 946.14 528.138 945.936 529.821C945.618 531.44 945.123 533.108 944.515 534.712C943.906 536.315 943.184 537.855 942.462 539.394C941.017 542.473 939.346 545.423 937.611 548.487C935.826 551.373 934.041 554.259 932.03 557.016C930.018 559.773 927.731 562.224 925.379 564.789C920.739 569.805 915.986 574.756 911.849 580.206C910.786 581.553 909.837 582.964 908.888 584.375C908.053 585.85 907.153 587.438 906.658 589.106C906.321 589.965 906.389 590.903 906.344 591.776C906.185 592.586 906.027 593.395 905.868 594.204C905.486 595.937 905.055 597.491 904.56 599.159C902.644 605.717 900.614 612.211 898.633 618.883C894.686 631.935 891.016 645.294 888.624 658.777C887.453 665.607 886.573 672.453 886.68 679.408C886.676 682.853 887.078 686.378 888.012 689.755C888.769 693.181 889.768 696.445 890.767 699.709C894.876 712.828 899.583 725.686 904.581 738.559C910.298 753.338 916.548 767.97 923.04 782.439C924.088 785.88 925.136 789.322 926.298 792.827C928.523 799.483 931.167 805.927 934.587 812.061C937.731 817.889 941.359 823.391 945.164 828.844C954.959 848.331 965.351 867.557 976.404 886.409L981.614 895.205L987 903.952L992.387 912.699C994.112 915.474 995.225 918.802 996.11 922.002C997.93 928.578 999.039 935.352 1000.15 942.125L1003.48 962.445C1005.69 975.992 1008.45 989.391 1012.2 1002.61C1015.95 1015.83 1021.06 1028.76 1028.23 1040.46C1030 1043.42 1031.77 1046.37 1033.37 1049.37L1035.94 1053.83L1038.34 1058.33C1041.47 1064.45 1044.42 1070.62 1046.77 1077.05C1047.95 1080.26 1048.95 1083.53 1049.65 1086.77C1050.03 1088.49 1050.3 1090.14 1050.45 1091.72C1050.71 1093.37 1050.62 1095.12 1051 1096.83C1051.04 1097.3 1051.13 1097.66 1051.4 1098.25C1051.44 1098.43 1051.56 1098.49 1051.83 1098.8C1052.17 1098.99 1052.64 1098.96 1052.77 1098.73C1053.19 1098.52 1053.21 1098.23 1053.45 1098.07C1053.9 1097.27 1054.24 1096.41 1054.51 1095.67C1055.12 1094.07 1055.72 1092.46 1056.33 1090.86C1057.06 1089.32 1057.78 1087.78 1058.55 1086.42C1059.43 1085.12 1060.61 1083.84 1061.97 1083.56C1062.61 1083.48 1063.42 1083.63 1064.17 1083.91C1064.91 1084.18 1065.66 1084.45 1066.52 1084.79C1068.06 1085.51 1069.53 1086.34 1071.07 1087.07C1072.55 1087.9 1074.02 1088.74 1075.67 1089.52C1077.21 1090.25 1078.87 1091.03 1080.91 1091.14C1081.96 1091.13 1083.02 1090.84 1083.83 1089.95C1084.57 1089.17 1084.97 1088.2 1085.13 1087.39C1084.77 1085.38 1085.03 1083.59 1085.24 1081.9ZM925.072 565.065C927.424 562.501 929.712 560.049 931.788 557.179C933.799 554.421 935.584 551.535 937.433 548.536C939.104 545.586 940.84 542.522 942.284 539.443C943.006 537.904 943.728 536.365 944.337 534.761C944.946 533.157 945.441 531.489 945.822 529.757C946.026 528.074 946.635 526.47 947.698 525.124C948.76 523.777 950.099 522.737 951.551 521.761C954.391 519.923 957.556 518.568 960.461 516.616C960.767 516.34 961.073 516.064 961.379 515.788C961.686 515.512 962.105 515.3 962.397 515.315C962.624 515.443 962.771 515.977 962.756 516.268C962.79 516.737 962.711 517.142 962.631 517.546C962.428 519.229 962.046 520.962 961.728 522.58C961.029 525.931 960.217 529.218 959.517 532.569C958.818 535.92 958.233 539.335 958.229 542.78C958.184 543.654 958.317 544.478 958.563 545.367C958.661 545.723 958.695 546.192 958.793 546.547C958.827 547.016 958.748 547.421 958.847 547.776C958.643 549.459 958.034 551.063 957.198 552.538C955.527 555.488 953.289 558.117 950.774 560.44C949.549 561.544 948.21 562.584 946.644 563.496C946.225 563.708 945.918 563.984 945.563 564.082L944.965 564.343C944.788 564.393 944.546 564.555 944.417 564.782C943.74 565.448 943.517 566.371 943.358 567.18C942.773 570.595 943.061 574.056 943.349 577.516C943.637 580.977 944.167 584.275 944.81 587.637C947.32 601.199 951.138 614.303 955.602 627.323C960.131 640.23 965.485 653.005 971.451 665.228C974.402 671.396 977.708 677.465 981.014 683.535C984.385 689.491 987.933 695.398 991.368 701.241C998.352 712.99 1005.51 724.69 1012.74 736.277C1027.12 759.565 1041.87 782.754 1056.14 805.977C1070.53 829.264 1084.61 852.827 1097.67 876.864C1099.26 879.866 1100.86 882.869 1102.39 885.985L1104.79 890.489C1105.59 891.99 1106.21 893.541 1107.01 895.042C1109.96 901.21 1112.73 907.427 1114.97 913.792C1119.09 926.62 1119.49 940.481 1118.03 953.896C1116.51 967.424 1113.31 980.749 1109.02 993.608C1106.88 1000.04 1104.45 1006.45 1101.67 1012.67C1100.34 1015.82 1098.9 1018.9 1097.34 1021.91C1095.78 1024.92 1094.22 1027.94 1092.28 1030.58C1092.08 1030.92 1091.78 1031.2 1091.58 1031.54L1090.71 1032.55C1090.09 1033.39 1089.64 1034.18 1089.41 1035.11C1089.01 1036.08 1088.79 1037 1088.5 1038.04C1082.95 1029.05 1076.13 1020.99 1069.18 1013.15C1062.11 1005.25 1054.93 997.288 1048.83 988.738C1045.73 984.431 1043.04 979.912 1040.95 975.132C1038.75 970.288 1036.55 965.443 1034.53 960.55C1030.3 950.812 1026.07 941.074 1021.49 931.434C1016.91 921.794 1011.67 912.529 1005.59 903.688C1002.54 899.267 999.374 895.074 996.09 890.816C992.92 886.622 989.879 882.201 986.951 877.845C984.087 873.375 981.224 868.905 978.538 864.386C975.852 859.867 973.295 855.121 970.673 850.488C965.608 841.174 960.848 831.584 956.316 822.122C947.331 802.794 939.235 783.219 931.978 763.221C928.349 753.222 924.899 743.174 921.626 733.076C918.353 722.979 915.258 712.832 912.34 702.637C909.423 692.441 907.038 682.098 905.948 671.588C904.793 661.191 905.286 650.53 906.476 639.963C907.666 629.395 909.147 618.843 910.45 608.341L914.424 576.719C917.823 573.099 921.48 569.025 925.072 565.065ZM1080.12 1089.35C1078.6 1089.38 1077.06 1088.66 1075.64 1088C1074.1 1087.28 1072.62 1086.45 1071.15 1085.61C1069.67 1084.77 1068.2 1083.94 1066.48 1083.27C1065.62 1082.93 1064.88 1082.66 1064.02 1082.32C1063.61 1082.24 1063.09 1082.1 1062.69 1082.02C1062.28 1081.94 1061.7 1081.91 1061.17 1082.06C1060.17 1082.24 1059.26 1082.78 1058.59 1083.44C1057.91 1084.11 1057.35 1084.84 1056.78 1085.57C1055.77 1087.09 1055.05 1088.63 1054.44 1090.23C1053.83 1091.84 1053.22 1093.44 1052.61 1095.05C1052.34 1095.79 1052.07 1096.54 1051.75 1097.1C1051.7 1096.93 1051.65 1096.75 1051.6 1096.57C1051.27 1095.03 1051.25 1093.22 1051.05 1091.46C1050.85 1089.7 1050.58 1088.05 1050.2 1086.34C1049.45 1082.91 1048.45 1079.65 1047.27 1076.43C1044.92 1070 1041.85 1063.77 1038.72 1057.65L1036.33 1053.15L1033.76 1048.69C1032.16 1045.69 1030.21 1042.79 1028.55 1039.9C1021.32 1028.31 1016.26 1015.55 1012.44 1002.45C1008.62 989.342 1006.05 975.894 1003.83 962.347L1000.62 942.091C999.508 935.318 998.399 928.544 996.643 921.854C995.709 918.477 994.71 915.213 992.822 912.196L987.435 903.449L982.113 894.588L976.968 885.679C968.127 870.329 959.77 854.654 951.769 838.88C957.833 846.962 963.783 854.979 969.782 863.173C977.961 874.401 985.897 885.791 993.72 897.117C997.688 902.812 1001.66 908.507 1005.38 914.365C1009 920.158 1011.88 926.44 1012.41 933.183C1012.94 939.926 1011.25 946.613 1010.41 953.636C1010.06 957.18 1009.99 960.739 1010.62 964.392C1011.31 967.932 1012.54 971.324 1014 974.554C1019.83 987.294 1026.62 999.384 1034 1011.21C1037.73 1017.07 1041.7 1022.77 1045.6 1028.57C1047.55 1031.48 1049.33 1034.43 1050.57 1037.53C1051.75 1040.75 1052.33 1044.22 1051.63 1047.57L1051.92 1047.59C1052.91 1044.25 1052.46 1040.55 1051.46 1037.29C1050.35 1033.96 1048.7 1030.78 1046.86 1027.94L1041.3 1019.24C1039.52 1016.29 1037.75 1013.33 1035.97 1010.38C1032.43 1004.47 1029.12 998.404 1025.88 992.221C1022.75 986.102 1019.51 979.919 1016.73 973.702C1015.38 970.537 1014.14 967.436 1013.61 964.138C1013.01 960.954 1013.13 957.573 1013.43 954.142C1013.95 947.395 1015.77 940.481 1015.09 933.205C1014.76 929.567 1013.89 926.076 1012.42 922.847C1011.01 919.504 1009.24 916.55 1007.35 913.532C1005.4 910.628 1003.38 907.837 1001.25 904.982L995.028 896.659C986.786 885.545 978.607 874.317 970.671 862.927L964.687 854.441L958.767 845.842C954.799 840.147 950.83 834.452 947.04 828.708C946.715 828.224 946.276 827.675 946.015 827.078C943.684 822.46 941.418 817.729 939.266 813.063C937.733 809.947 936.315 806.895 934.896 803.843L930.591 794.51C927.802 788.584 925.256 782.495 922.468 776.569C919.785 768.605 916.974 760.867 912.741 753.523C910.619 748.274 908.432 743.139 906.309 737.889C901.361 725.194 896.476 712.385 892.367 699.266C891.368 696.002 890.369 692.739 889.661 689.49C888.662 686.226 888.31 682.879 888.249 679.547C888.014 672.819 888.894 665.974 889.823 659.306C892.037 645.872 895.53 632.563 899.363 619.446C901.279 612.888 903.196 606.33 905.112 599.772C905.608 598.104 905.925 596.485 906.42 594.817C906.579 594.008 906.802 593.085 906.847 592.211C906.957 591.224 906.873 590.577 907.096 589.654C907.527 588.1 908.249 586.561 909.198 585.15C910.034 583.675 911.097 582.328 912.046 580.917C912.802 579.847 913.672 578.841 914.541 577.835L909.61 608.764L907.162 624.464C906.308 629.676 905.568 634.952 904.827 640.227C903.46 650.844 902.788 661.554 903.75 672.291C904.713 683.028 907.21 693.436 910.064 703.745C915.834 724.25 922.493 744.509 929.928 764.458C937.363 784.407 945.75 803.996 955.269 823.177C964.738 842.18 974.982 860.873 986.486 878.93C992.213 887.87 998.844 896.273 1004.64 905.099C1007.5 909.569 1010.19 914.088 1012.74 918.834C1015.19 923.516 1017.57 928.311 1019.83 933.042C1024.41 942.681 1028.46 952.468 1032.69 962.206C1034.89 967.051 1037.03 972.009 1039.29 976.74C1041.61 981.648 1044.41 986.232 1047.51 990.539C1053.77 999.331 1061.32 1006.91 1068.45 1014.69C1075.65 1022.36 1082.72 1030.26 1088.68 1039.04C1088.54 1039.56 1088.45 1040.25 1088.3 1040.77C1087.72 1044.19 1087.24 1047.67 1086.84 1051.03C1086.13 1057.83 1085.66 1064.75 1085.13 1071.5C1084.84 1074.93 1084.55 1078.36 1084.14 1081.73C1083.93 1083.41 1083.73 1085.09 1083.3 1086.65C1082.4 1088.24 1081.64 1089.31 1080.12 1089.35Z" fill="#FFFDFB"/>
  <path d="M121.919 1194.54C120.526 1189.74 119.026 1185 117.234 1180.27C115.547 1175.47 113.755 1170.74 112.043 1166.13C108.458 1156.67 104.66 1147.34 100.782 1137.89L100.943 1138.14C100.756 1138.08 100.862 1138.02 100.65 1138.15C100.544 1138.21 100.412 1138.46 100.28 1138.72C100.017 1139.22 99.8348 1139.85 99.6778 1140.29C99.4192 1141.48 99.1606 1142.67 98.902 1143.86C98.5719 1146.29 98.3226 1148.85 98.0734 1151.4C97.6811 1156.45 97.4759 1161.55 97.2707 1166.65C96.9665 1176.79 96.9303 1187.11 97.1874 1197.42C97.2755 1202.51 97.4444 1207.72 97.7197 1212.87C97.9949 1218.02 98.2701 1223.17 99.0257 1228.37C99.5688 1233.7 99.3636 1238.8 98.9713 1243.85C98.579 1248.89 97.8934 1253.95 97.0207 1258.95C93.3682 1278.7 86.2674 1297.31 74.7434 1312.64C69.0345 1320.28 62.1985 1326.89 54.3669 1332.23C46.5353 1337.57 37.7335 1341.44 28.2549 1343.85C18.8826 1346.19 8.83349 1347.06 -1.14415 1346.68C-11.1218 1346.31 -21.1549 1345.62 -31.2434 1344.63C-41.2257 1343.57 -51.4506 1342.15 -61.4977 1339.41C-66.5744 1338.08 -71.6002 1336.37 -76.5245 1333.91C-78.9867 1332.68 -81.3172 1331.2 -83.5969 1329.35C-84.6433 1328.45 -85.6642 1327.36 -86.6852 1326.27C-87.5998 1325.12 -88.4083 1323.9 -89.1613 1322.99C-89.9952 1321.96 -90.4502 1321.73 -91.5172 1321.7C-92.3972 1321.72 -93.0346 1322.12 -93.4549 1323.06C-94.1892 1324.89 -94.0643 1327.56 -93.5145 1329.96C-92.9646 1332.37 -92.0406 1334.89 -90.9041 1337.28C-89.6613 1339.6 -88.2061 1341.79 -86.3005 1343.54C-84.4758 1345.16 -82.1199 1346.45 -79.764 1347.75C-77.4889 1348.92 -75.1076 1350.03 -72.6201 1351.07C-67.7512 1353.22 -62.9378 1355.06 -58.0181 1356.83C-38.3396 1363.93 -18.4071 1369.16 1.65234 1373.44C21.631 1377.61 41.8682 1380.59 61.7472 1381.9C81.7326 1383.15 101.547 1382.79 120.594 1379.46C130.077 1377.74 139.369 1375.28 148.12 1371.78C156.871 1368.28 165.268 1363.79 173.155 1358.76C188.93 1348.7 203.329 1336.58 216.44 1323.18C242.662 1296.39 264.37 1264.84 281.66 1230.68C290.211 1213.58 297.61 1195.64 303.644 1176.99C309.572 1158.41 314.134 1139.13 316.558 1119.11L316.609 1118.73L316.927 1118.54C326.904 1111.02 336.664 1102.95 345.646 1094.16C350.043 1089.74 354.466 1085.12 357.71 1079.87C358.475 1078.54 359.158 1077.09 359.549 1075.65C359.599 1075.27 359.65 1074.9 359.701 1074.52L359.772 1073.28C359.793 1072.41 359.895 1071.66 359.916 1070.79C360.079 1067.43 359.869 1063.95 359.658 1060.48C359.238 1053.53 358.523 1046.59 357.41 1039.73C356.8 1036.33 356.215 1032.74 355.206 1029.42C354.933 1028.56 354.741 1027.82 354.362 1027.02C354.226 1026.59 354.064 1026.35 353.903 1026.1C353.741 1025.86 353.554 1025.8 353.928 1025.92C354.221 1025.91 354.141 1025.78 354.009 1026.04C353.877 1026.29 353.639 1026.61 353.402 1026.93C353.032 1027.5 352.743 1028.19 352.455 1028.88L352.009 1030.01C351.852 1030.45 351.695 1030.89 351.219 1031.53C350.981 1031.85 350.556 1032.11 350.157 1032.18C349.757 1032.26 349.383 1032.15 349.09 1032.16C348.422 1032.05 347.967 1031.82 347.593 1031.7C345.854 1030.89 344.221 1030.01 342.694 1029.06C339.535 1027.23 336.456 1025.52 333.271 1023.88C330.086 1022.24 326.956 1020.91 323.695 1019.83C320.433 1018.75 317.147 1017.85 313.809 1017.34C307.16 1016.11 300.57 1015.88 293.849 1015.9C287.234 1015.86 280.569 1016.19 274.01 1016.45C270.677 1016.62 267.45 1016.72 264.037 1016.76C262.383 1016.75 260.729 1016.74 258.888 1016.67C257.154 1016.54 255.419 1016.41 253.548 1015.84C252.613 1015.56 251.703 1015.09 250.874 1014.74C250.045 1014.4 249.322 1013.98 248.573 1013.76C247.825 1013.53 246.996 1013.19 246.248 1012.96C245.499 1012.73 244.645 1012.57 243.871 1012.54C240.614 1012.14 237.307 1012.12 234.08 1012.22C230.854 1012.32 227.576 1012.79 224.567 1013.44C223.05 1013.86 221.532 1014.28 220.202 1014.76C219.484 1015.03 218.846 1015.42 218.315 1015.75C217.784 1016.08 217.414 1016.65 217.176 1016.97C217.126 1017.34 217.1 1017.53 217.505 1018.14L219.172 1020.2C220.329 1021.72 221.512 1023.05 222.512 1025C222.972 1025.92 223.406 1027.03 223.522 1028.33C223.557 1029.51 223.111 1030.64 222.61 1031.46C221.527 1032.99 220.039 1033.91 218.658 1034.76C213.028 1038.22 206.528 1039.48 200.999 1042.2C198.288 1043.53 195.9 1045.34 194.29 1047.88C193.921 1048.45 193.632 1049.14 193.237 1049.9L192.159 1052.11C191.475 1053.56 190.792 1055.01 190.002 1056.52C188.448 1059.37 186.893 1062.21 184.965 1064.94C184.014 1066.22 182.956 1067.55 181.817 1068.77C180.598 1069.86 179.353 1071.15 177.33 1071.7C176.318 1071.98 174.796 1071.72 173.75 1070.82L173.133 1070.34C173.052 1070.22 172.784 1070.04 172.597 1069.99C172.249 1069.69 171.874 1069.57 171.606 1069.4C170.161 1068.57 168.664 1068.12 167.142 1067.86C165.62 1067.59 164.153 1067.64 163.197 1068.23C162.772 1068.49 162.534 1068.81 162.458 1069.37C162.382 1069.93 162.493 1070.55 162.791 1071.22C164.043 1074.91 164.734 1078.43 165.424 1081.95C166.115 1085.47 166.513 1089 166.91 1092.53C167.705 1099.6 168.02 1106.61 167.854 1113.57C167.688 1120.54 167.148 1127.39 165.86 1134.02C165.216 1137.33 164.465 1140.71 163.553 1143.85C162.535 1147.05 161.436 1150.13 160.337 1153.21C155.753 1165.47 151.624 1177.96 148.35 1190.62C145.05 1203.46 142.499 1216.52 140.777 1229.94C139.863 1236.68 139.055 1243.35 138.434 1250.08L137.936 1255.2L137.686 1257.75L137.25 1260.25C136.793 1263.62 135.962 1266.88 135.237 1270.07C131.831 1282.98 125.937 1294.84 118.219 1305.09C114.413 1310.18 110.153 1315.03 105.568 1319.4C101.065 1323.89 96.0508 1327.83 91.224 1331.84L86.1846 1335.97L90.203 1330.75C93.6395 1326.23 96.7271 1321.41 99.5468 1316.42C102.367 1311.42 104.999 1306.37 107.47 1301.07C112.306 1290.54 116.231 1279.54 119.166 1267.96C121.995 1256.43 123.913 1244.44 124.309 1232.19L124.427 1229.89L124.438 1227.65L124.487 1222.99C124.332 1219.82 124.364 1216.71 123.996 1213.68C123.924 1207.03 122.922 1200.79 121.919 1194.54L122.212 1194.53C123.402 1200.83 124.405 1207.08 124.821 1213.34C125.082 1216.44 125.237 1219.61 125.311 1222.65L125.369 1227.25L125.439 1229.61L125.321 1231.91C125.006 1244.29 123.274 1256.33 120.526 1267.98C117.779 1279.62 113.828 1290.8 109.073 1301.45C106.602 1306.75 104.05 1311.93 101.231 1316.92C98.4108 1321.92 95.404 1326.86 91.8614 1331.44L90.8404 1330.36C95.7735 1326.29 100.494 1322.35 105.078 1317.98C109.476 1313.56 113.711 1308.89 117.517 1303.8C125.023 1293.69 130.784 1282.08 134.084 1269.24C134.809 1266.04 135.534 1262.85 135.991 1259.48L136.321 1257.05L136.571 1254.49C136.799 1252.81 136.841 1251.07 137.069 1249.38C137.609 1242.53 138.417 1235.85 139.225 1229.18C140.947 1215.76 143.336 1202.45 146.636 1189.61C149.855 1176.65 153.984 1164.15 158.486 1151.77C159.586 1148.69 160.685 1145.61 161.597 1142.48C162.509 1139.34 163.234 1136.15 163.772 1132.9C164.954 1126.34 165.469 1119.68 165.715 1112.83C165.856 1106.05 165.435 1099.11 164.721 1092.17C164.323 1088.64 163.9 1085.29 163.209 1081.77C162.6 1078.37 161.909 1074.85 160.687 1071.66C160.333 1070.68 160.005 1069.51 160.157 1068.38C160.31 1067.26 160.943 1066.18 161.899 1065.59C162.855 1065.01 163.76 1064.79 164.746 1064.7C165.733 1064.61 166.693 1064.7 167.548 1064.86C169.444 1065.24 171.209 1065.87 172.923 1066.87C173.378 1067.1 173.727 1067.4 174.182 1067.64C174.449 1067.82 174.637 1067.87 174.798 1068.12L175.334 1068.47C175.683 1068.77 176.057 1068.89 176.669 1068.68C177.868 1068.46 178.981 1067.43 179.988 1066.46C181.101 1065.44 181.946 1064.23 182.898 1062.96C184.695 1060.48 186.249 1057.63 187.697 1054.85C188.38 1053.4 189.145 1052.07 189.747 1050.5L190.719 1048.36C191.114 1047.6 191.428 1046.72 191.904 1046.09C193.671 1043.11 196.565 1041.16 199.489 1039.7C205.336 1036.78 211.836 1035.53 217.041 1032.32C218.316 1031.54 219.51 1030.63 220.33 1029.61C220.963 1028.53 220.983 1027.66 220.2 1026.26C219.417 1024.85 218.341 1023.46 217.078 1022C216.486 1021.34 216.001 1020.61 215.329 1019.82C215.006 1019.33 214.601 1018.72 214.41 1017.98C214.218 1017.24 214.319 1016.49 214.396 1015.93C214.76 1014.68 215.529 1014.03 216.273 1013.58C217.017 1013.12 217.761 1012.66 218.585 1012.32C220.128 1011.72 221.751 1011.23 223.456 1010.87C226.678 1010.08 230.036 1009.73 233.369 1009.57C236.702 1009.4 240.115 1009.36 243.64 1009.93C244.494 1010.09 245.455 1010.19 246.391 1010.47C247.326 1010.75 248.074 1010.98 249.01 1011.26C249.839 1011.61 250.774 1011.89 251.578 1012.42C252.407 1012.77 253.13 1013.18 253.879 1013.41C255.375 1013.86 257.004 1014.06 258.551 1014.13C260.098 1014.21 261.752 1014.22 263.406 1014.23C266.713 1014.25 270.046 1014.09 273.273 1013.99C279.832 1013.73 286.497 1013.39 293.219 1013.37C299.94 1013.35 306.716 1013.64 313.553 1014.92C316.971 1015.56 320.364 1016.39 323.812 1017.52C327.154 1018.73 330.552 1020.24 333.843 1021.81C337.109 1023.58 340.188 1025.28 343.348 1027.11C344.981 1027.99 346.508 1028.94 347.979 1029.58C348.353 1029.69 348.727 1029.81 348.914 1029.86C349.101 1029.92 349.101 1029.92 349.101 1029.92L348.995 1029.98C348.995 1029.98 349.233 1029.67 349.284 1029.29L349.729 1028.16C350.043 1027.28 350.438 1026.52 350.833 1025.76C351.071 1025.44 351.309 1025.13 351.572 1024.62C351.704 1024.37 351.916 1024.24 352.235 1024.04C352.554 1023.85 353.06 1023.71 353.54 1023.75C354.101 1023.92 354.556 1024.16 354.905 1024.46C355.254 1024.76 355.415 1025 355.577 1025.24C355.901 1025.73 356.118 1026.28 356.36 1026.65C356.82 1027.57 357.092 1028.43 357.34 1029.48C358.405 1033.11 359.096 1036.63 359.599 1040.1C360.688 1047.15 361.483 1054.21 361.797 1061.22C362.008 1064.69 362.112 1068.23 362.029 1071.72C362.008 1072.59 361.987 1073.46 361.86 1074.39L361.683 1075.7C361.632 1076.08 361.556 1076.64 361.399 1077.08C360.958 1078.9 360.168 1080.41 359.297 1081.81C357.637 1084.72 355.547 1087.2 353.482 1089.5C351.311 1091.87 349.14 1094.24 346.808 1096.36C337.639 1105.1 327.879 1113.17 317.715 1120.63L318.085 1120.06C315.555 1140.14 310.886 1159.49 304.852 1178.14C298.818 1196.78 291.232 1214.66 282.468 1231.9C265.072 1266.12 243.177 1297.62 216.768 1324.35C203.47 1337.69 189.07 1349.82 173.19 1359.94C165.303 1364.97 156.906 1369.46 148.048 1373.02C139.191 1376.59 129.9 1379.05 120.31 1380.84C110.827 1382.56 100.965 1383.49 91.0728 1383.92C81.1807 1384.35 71.1776 1384.16 61.2254 1383.6C41.2146 1382.54 21.0583 1379.68 0.973466 1375.58C-19.1114 1371.48 -39.231 1366.19 -59.0412 1359.35C-63.9608 1357.57 -68.9613 1355.68 -73.8302 1353.53C-76.3177 1352.49 -78.699 1351.38 -81.0549 1350.09C-83.4108 1348.79 -85.873 1347.56 -88.1273 1345.52C-90.3817 1343.48 -91.9986 1341.04 -93.3222 1338.59C-94.7266 1336.03 -95.6252 1333.32 -96.2305 1330.61C-96.5332 1329.25 -96.7296 1327.82 -96.739 1326.46C-96.7483 1325.09 -96.6514 1323.66 -96.0741 1322.27C-95.7854 1321.58 -95.3097 1320.94 -94.6723 1320.55C-94.1157 1320.04 -93.2103 1319.82 -92.4366 1319.86C-91.6628 1319.9 -90.8083 1320.06 -89.9791 1320.41C-89.1753 1320.94 -88.4777 1321.54 -88.0735 1322.15C-87.1588 1323.3 -86.4312 1324.4 -85.5974 1325.43C-84.7635 1326.46 -83.9043 1327.3 -82.8579 1328.2C-80.8461 1329.88 -78.7027 1331.31 -76.3214 1332.41C-71.665 1334.69 -66.8262 1336.35 -61.7495 1337.68C-51.7833 1340.29 -41.7456 1341.66 -31.8695 1342.79C-21.8872 1343.84 -11.8541 1344.53 -1.87648 1344.9C7.99493 1345.35 17.7508 1344.48 27.0169 1342.21C36.283 1339.93 44.8722 1336.19 52.5976 1330.92C60.2167 1325.71 67.0273 1319.28 72.63 1311.72C78.3135 1304.27 82.9506 1295.92 86.5969 1286.99C90.2432 1278.05 92.9795 1268.64 94.8866 1258.89C95.8402 1254.01 96.5003 1249.14 96.9989 1244.03C97.3912 1238.99 97.5964 1233.88 97.2149 1228.8C96.5656 1223.54 96.2904 1218.39 96.0152 1213.24C95.74 1208.09 95.571 1202.87 95.5891 1197.71C95.4382 1187.34 95.5553 1177.15 95.9658 1166.94C96.171 1161.84 96.3762 1156.74 96.8747 1151.62C97.124 1149.07 97.3732 1146.51 97.7033 1144.08C97.8811 1142.77 98.1397 1141.58 98.5045 1140.33C98.6869 1139.7 98.8694 1139.07 99.1326 1138.57C99.2643 1138.31 99.5021 1138 99.8208 1137.8C100.033 1137.67 100.246 1137.54 100.539 1137.53C100.832 1137.52 101.1 1137.7 101.262 1137.94L101.343 1138.06L101.424 1138.18C105.221 1147.51 108.807 1156.97 112.392 1166.43C114.184 1171.16 115.871 1175.96 117.476 1180.63C119.163 1185.43 120.662 1190.17 121.949 1195.04L121.919 1194.54Z" fill="#FFFDFB"/>
  <path d="M183.199 1270.59C191.577 1260.77 198.099 1249.51 203.814 1237.71C209.528 1225.91 214.517 1213.7 219.344 1201.25C221.745 1195.11 224.065 1188.86 226.572 1182.66C227.785 1179.5 229.079 1176.46 230.455 1173.54C231.142 1172.08 231.937 1170.56 232.731 1169.04C233.607 1167.63 234.482 1166.23 235.439 1164.95C239.022 1159.47 242.686 1154.11 246.512 1148.99C250.257 1143.75 254.378 1138.63 258.635 1133.93C267.282 1124.29 277.465 1116.29 287.947 1108.96C293.148 1105.24 298.429 1101.63 303.63 1097.91C308.749 1094.06 313.681 1090.16 318.288 1085.77C322.895 1081.37 327.152 1076.68 330.71 1071.39C334.455 1066.15 337.85 1060.61 340.976 1054.89C347.31 1043.57 353.131 1031.71 357.664 1019.26L357.933 1019.44C356.07 1025.93 353.831 1032.31 351.243 1038.39C348.654 1044.46 345.878 1050.48 342.833 1056.33C339.788 1062.17 336.474 1067.83 332.891 1073.31C329.308 1078.8 324.999 1083.87 320.392 1088.26C315.678 1092.72 310.64 1096.69 305.332 1100.48C300.132 1104.2 294.663 1107.75 289.3 1111.23C278.656 1118.31 267.824 1125.33 259.284 1134.91C254.839 1139.55 251.012 1144.66 247.348 1150.03C243.684 1155.39 240.37 1161.05 237.163 1166.65C236.287 1168.05 235.412 1169.45 234.724 1170.91C233.956 1172.25 233.268 1173.7 232.58 1175.16C231.286 1178.2 229.992 1181.24 228.885 1184.33L221.658 1202.92C219.257 1209.06 216.75 1215.26 214.054 1221.4C211.466 1227.48 208.609 1233.37 205.563 1239.22C202.518 1245.06 199.204 1250.72 195.621 1256.2C191.957 1261.57 188.024 1266.75 183.579 1271.39L183.199 1270.59Z" fill="#FFFDFB"/>
  <path d="M124.536 1312.72C129.623 1308.86 134.792 1305.12 139.689 1301.21C144.776 1297.35 149.673 1293.43 154.678 1289.45C164.497 1281.42 174.153 1273.15 183.727 1264.75C193.218 1256.23 202.601 1247.77 211.574 1238.69C220.547 1229.61 229.084 1220.1 236.203 1209.37C239.708 1204.03 242.694 1198.14 245.763 1192.38C248.75 1186.49 251.628 1180.67 254.697 1174.9C257.766 1169.14 260.834 1163.37 264.175 1157.79C265.846 1155 267.517 1152.2 269.269 1149.54C270.241 1148.23 271.022 1146.87 271.993 1145.57C272.965 1144.26 274.044 1142.89 275.098 1141.71C284.041 1132.12 294.98 1125.33 305.538 1118.43C310.872 1114.94 316.369 1111.71 321.62 1108.1C326.871 1104.49 332.122 1100.88 336.609 1096.34L336.881 1096.52C334.856 1099 332.477 1101.18 330.097 1103.36C327.636 1105.41 325.174 1107.47 322.631 1109.4C317.462 1113.13 312.293 1116.87 307.042 1120.48C301.79 1124.09 296.539 1127.7 291.56 1131.49C286.582 1135.28 281.659 1139.39 277.471 1143.92C276.417 1145.1 275.364 1146.28 274.501 1147.52C273.529 1148.82 272.748 1150.19 271.777 1151.49C270.024 1154.16 268.271 1156.83 266.601 1159.62C263.178 1165.08 260.027 1170.72 256.768 1176.42C253.617 1182.06 250.358 1187.77 247.125 1193.29C245.455 1196.08 243.784 1198.87 242.113 1201.66L239.662 1205.82L237.02 1209.91C229.629 1220.47 221.256 1230.23 212.638 1239.61C204.019 1249 194.938 1258.14 185.446 1266.66C175.955 1275.19 166.027 1283.28 156.043 1291.06C150.956 1294.92 145.787 1298.65 140.618 1302.38C135.449 1306.12 130.115 1309.61 124.782 1313.09L124.536 1312.72Z" fill="#FFFDFB"/>
  <path d="M259.632 1016.36C258.842 1018.68 258.235 1021.06 257.914 1023.43C257.592 1025.79 257.611 1028.46 257.654 1030.93C257.924 1035.95 259.026 1041.11 260.518 1046.21C262.009 1051.3 263.891 1056.33 265.668 1061.41C267.446 1066.5 269.327 1071.52 270.611 1076.75C271.896 1081.97 272.688 1087.33 272.178 1092.49C271.936 1094.97 271.486 1097.59 270.879 1099.96C270.272 1102.34 269.482 1104.66 268.51 1106.93C266.67 1111.4 264.568 1115.7 262.206 1119.83C259.843 1123.95 257.741 1128.25 255.014 1132.26C252.39 1136.21 249.505 1139.99 246.62 1143.77C243.735 1147.55 240.953 1151.26 238.433 1155.15C235.912 1159.03 233.629 1163.28 231.631 1167.51C229.529 1171.81 227.61 1176.16 225.952 1180.69C218.876 1198.57 213.472 1217.42 208.171 1236.21L207.909 1236.04C211.698 1216.51 216.476 1197.37 223.394 1179.26C226.892 1170.26 231.12 1161.48 236.472 1153.51C241.641 1145.49 248.327 1138.88 253.915 1131.27C256.618 1127.44 259.059 1123.43 261.501 1119.42C263.864 1115.3 266.147 1111.06 267.884 1106.65C269.542 1102.12 270.757 1097.37 270.877 1092.28C271.076 1087.32 270.156 1082.2 268.664 1077.11C265.863 1066.97 261.529 1056.94 258.753 1046.63C257.365 1041.47 256.469 1036.17 256.432 1030.85C256.37 1025.71 257.348 1020.6 259.449 1016.3L259.632 1016.36Z" fill="#FFFDFB"/>
  <path d="M208.44 1043.29C210.215 1050.31 210.935 1057.49 210.752 1064.39C210.712 1066.07 210.467 1067.88 210.428 1069.56C210.207 1071.18 209.962 1072.99 209.742 1074.62C209.419 1076.31 209.096 1078 208.695 1079.57C208.372 1081.26 207.869 1082.89 207.468 1084.46C205.658 1090.88 203.151 1096.89 200.981 1103.2C198.81 1109.5 196.923 1115.8 195.397 1122.2C193.871 1128.61 192.501 1135.25 191.415 1141.88C190.328 1148.51 189.603 1155.25 189.239 1162.1C188.252 1175.63 188.53 1189.53 189.351 1203.6L189.067 1203.61C186.65 1189.53 185.65 1175.4 186.402 1161.53C187.232 1147.76 189.894 1134.37 193.952 1121.77C195.941 1115.41 198.19 1109.22 200.077 1102.92C201.06 1099.84 201.965 1096.63 202.869 1093.42C203.774 1090.22 204.498 1086.95 205.3 1083.81C206.826 1077.41 208.274 1070.88 208.716 1064.15C209.26 1057.36 209.057 1050.53 208.132 1043.48L208.44 1043.29Z" fill="#FFFDFB"/>
  <path d="M205.095 1108.22C204.159 1110.84 203.223 1113.46 202.182 1116.14C201.141 1118.82 200.125 1121.32 199.003 1123.88C196.76 1129 194.437 1134 192.008 1139.06C187.256 1149.13 182.423 1159.08 181.254 1170.51C180.577 1176.2 180.828 1182.17 180.894 1188.08C180.959 1193.99 181.211 1199.96 181.462 1205.93C181.779 1217.81 181.99 1229.76 180.133 1241.27C179.165 1246.97 177.72 1252.62 175.557 1257.86C173.394 1263.11 170.699 1267.99 167.738 1272.71C166.271 1274.97 164.697 1277.3 163.044 1279.51L160.657 1282.85L158.084 1286.13C156.43 1288.34 154.616 1290.3 152.777 1292.45C150.858 1294.48 149.044 1296.45 147.045 1298.36C139.232 1306.06 130.351 1312.37 120.748 1317.6C111.145 1322.82 100.846 1326.78 90.4359 1330.12L90.2754 1329.88C100.415 1325.68 110.393 1321.24 119.65 1315.72C124.266 1313.05 128.827 1310.08 132.961 1306.68C134.041 1305.85 135.121 1305.01 136.096 1304.24C137.176 1303.41 138.256 1302.58 139.15 1301.69C141.124 1299.96 143.124 1298.05 145.018 1296.21C146.912 1294.36 148.726 1292.39 150.645 1290.36C152.379 1288.28 154.193 1286.31 155.927 1284.22L158.474 1281.13L160.942 1277.91C162.595 1275.7 164.143 1273.56 165.611 1271.29C168.546 1266.77 171.321 1262 173.645 1257C175.968 1252 177.574 1246.59 178.808 1241.07C181.197 1229.9 181.277 1217.95 180.669 1206.08C180.417 1200.11 179.875 1194.15 179.438 1188.13C179.26 1185.17 179.001 1182.1 178.928 1179.08C178.839 1177.61 178.855 1176.07 178.872 1174.53C178.888 1172.99 178.984 1171.57 179.001 1170.03C179.517 1164.1 180.963 1158.44 183.126 1153.2C185.103 1147.9 187.612 1142.96 190.121 1138.01C195.219 1128.25 200.237 1118.36 204.884 1108.35L205.095 1108.22Z" fill="#FFFDFB"/>
</svg>
