<svg width="416" height="316" viewBox="0 0 416 316" fill="none"
  xmlns="http://www.w3.org/2000/svg">
  <path d="M75.7017 40.3064C73.4295 40.8571 71.252 41.6265 69.0963 42.6461C66.9613 43.6136 64.9732 44.8204 63.1004 46.1937C59.3026 48.9197 55.9869 52.2594 53.0999 55.8896C50.213 59.5199 47.7341 63.4929 45.548 67.6423C43.3825 71.7393 41.562 76.0334 40.0549 80.4515C39.3116 82.6344 38.6522 84.9109 38.1702 87.1972C37.9656 88.3246 37.6881 89.4836 37.7447 90.7143C37.7676 91.2671 37.7904 91.8199 37.5521 92.2693L37.4792 92.3009L37.4378 92.4054L37.4172 92.4576C37.168 92.7819 36.7827 92.9919 36.3137 93.1083C35.219 93.2792 34.0917 93.0746 32.9436 92.9223C31.8162 92.7177 30.6888 92.5132 29.4886 92.3402C28.3405 92.1878 27.1925 92.0355 26.0031 91.9876C24.8137 91.9397 23.6047 92.2466 22.5111 92.72C20.3238 93.6667 18.4935 95.2381 16.8721 96.8922C15.2507 98.5463 13.8697 100.356 12.5726 102.259C11.0502 102.442 9.73897 103.313 8.7411 104.307C7.70188 105.406 6.88248 106.713 6.34492 108.071C5.26981 110.788 3.74529 113.265 2.16852 115.723C0.59174 118.18 -1.08952 120.595 -2.77076 123.011C-3.19624 123.628 -3.62171 124.245 -3.99496 124.883C-4.3682 125.521 -4.79368 126.138 -5.08314 126.869C-5.24854 127.287 -5.23656 127.715 -5.27682 128.122C-5.24418 128.497 -5.21152 128.872 -5.12664 129.268C-4.98843 129.988 -4.79801 130.728 -4.53466 131.436C-3.53349 134.249 -2.21999 136.884 -0.541963 139.36C0.297047 140.599 1.22962 141.753 2.47453 142.729C2.61056 142.844 2.79882 142.979 2.95551 143.041L3.38428 143.331C3.65633 143.56 3.94905 143.736 4.20043 144.017C4.74454 144.474 5.26796 144.983 5.71848 145.524C7.6457 147.676 9.38574 149.996 11.0115 152.452L11.0747 152.598L10.9702 152.557L9.01578 151.542L5.12764 149.459C-0.0565638 146.682 -5.14717 143.821 -10.2378 140.96C-15.36 138.026 -20.6062 135.406 -26.0907 133.235C-28.8069 132.16 -31.6373 131.221 -34.5395 130.616C-35.2599 130.452 -36.001 130.34 -36.7627 130.28C-37.5245 130.22 -38.3069 130.212 -39.0991 130.382C-39.4952 130.467 -39.912 130.604 -40.2863 130.939C-40.4735 131.107 -40.6084 131.295 -40.764 131.536L-40.8467 131.744C-40.8674 131.797 -40.8881 131.849 -40.9817 131.933C-41.3451 132.393 -41.9382 132.823 -42.5628 133.18C-43.812 133.894 -45.1244 134.462 -46.489 135.009C-47.8536 135.556 -49.2291 135.979 -50.6252 136.453C-53.3969 137.35 -56.2316 138.101 -59.0979 138.779C-61.9642 139.457 -64.8098 140.082 -67.6565 140.406C-68.3758 140.544 -69.1267 140.609 -69.8874 140.852C-70.2519 141.01 -70.6893 141.199 -71.0114 141.555C-71.3335 141.911 -71.499 142.329 -71.5915 142.715C-71.7764 143.487 -71.7841 144.27 -71.8232 144.979C-71.8102 145.71 -71.7971 146.44 -71.8569 147.202C-71.8308 148.662 -71.8253 150.174 -71.6218 151.645C-71.4183 153.115 -71.1419 154.553 -70.7404 155.981C-69.9895 158.816 -68.8632 161.618 -67.6748 164.263C-66.5072 166.961 -65.1208 169.564 -63.7866 172.146C-62.4002 174.749 -60.9932 177.3 -59.5861 179.851C-58.8722 181.1 -58.179 182.401 -57.3607 183.692C-56.5217 184.93 -55.5891 186.085 -54.5629 187.156C-52.5106 189.297 -50.0425 190.999 -47.4091 192.283C-42.1106 194.924 -36.1712 195.946 -30.3384 196.321C-27.396 196.519 -24.4753 196.467 -21.523 196.488C-21.1682 196.507 -20.7928 196.475 -20.438 196.494C-20.0833 196.514 -19.7492 196.586 -19.3422 196.626C-18.5805 196.686 -17.8612 196.547 -17.1626 196.462C-15.6924 196.258 -14.2854 195.909 -12.8783 195.559C-10.012 194.881 -7.22953 194.11 -4.33167 193.505C-2.89307 193.228 -1.45447 192.952 -0.0256645 192.853C0.725188 192.788 1.45539 192.775 2.14421 192.866C2.49897 192.886 2.86458 193.03 3.21933 193.05C3.55341 193.122 3.96042 193.162 4.31517 193.181C7.27832 193.327 10.1664 192.9 13.0969 192.67C14.5257 192.571 16.0067 192.493 17.478 192.592C18.1875 192.631 18.9286 192.743 19.6076 193.012C19.921 193.136 20.266 193.333 20.4651 193.593C20.7165 193.873 20.822 194.217 20.8025 194.572C20.8199 196.512 21.5675 198.439 22.6372 200.011C23.7592 201.603 25.1619 202.944 26.6788 204.148C28.1958 205.353 29.8477 206.369 31.5409 207.281C33.2342 208.193 35.021 209.021 36.8176 209.672C37.1517 209.744 37.3824 210.077 37.4673 210.473C37.5728 210.816 37.5848 211.244 37.6175 211.62C37.6621 212.423 37.6022 213.184 37.4695 213.978C37.2769 215.533 37.0114 217.119 36.6414 218.665C36.0059 221.796 35.2137 224.866 34.3693 227.915L31.9199 237.156C31.5499 238.702 31.1277 240.226 30.9144 241.833C30.8339 242.647 30.8263 243.43 30.9232 244.254C30.9678 245.057 31.1375 245.849 31.2551 246.62C31.8819 249.769 33.0507 252.769 34.3859 255.654C35.7941 258.507 37.5461 261.254 39.6202 263.646C41.7466 266.059 44.2266 268.188 47.1005 269.628C48.5533 270.384 50.1301 270.827 51.7374 271.04C53.3447 271.254 55.0031 271.185 56.5984 270.971C59.8096 270.49 62.8413 269.394 65.7261 268.059C68.6109 266.723 71.4011 265.169 74.2118 263.563C76.9497 261.989 79.7083 260.362 82.5093 258.933C83.9359 258.229 85.3626 257.525 86.7576 256.748C88.1527 255.971 89.4846 255.048 90.8166 254.125C93.4282 252.259 95.9245 250.226 98.201 247.985C100.478 245.745 102.639 243.338 104.475 240.681C104.922 240.012 105.368 239.343 105.73 238.58C105.927 238.235 106.093 237.817 106.289 237.472C106.434 237.107 106.62 236.637 106.661 236.23C106.835 235.332 106.654 234.414 106.307 233.612C105.96 232.81 105.446 232.124 104.912 231.489C103.843 230.221 102.546 229.224 101.228 228.279C100.559 227.833 99.8897 227.387 99.1998 226.993C100.003 226.948 100.806 226.904 101.63 226.807C103.204 226.645 104.8 226.43 106.363 226.143C109.522 225.641 112.598 225.046 115.736 224.597C116.508 224.479 117.279 224.362 118.061 224.369C118.187 224.358 118.541 224.378 118.76 224.283C118.958 224.241 119.229 224.167 119.448 224.072C119.865 223.935 120.25 223.725 120.583 223.494C121.999 222.665 123.247 221.649 124.495 220.632C126.939 218.579 129.215 216.338 131.44 214.077C133.664 211.816 135.804 209.461 137.913 207.033C138.443 206.457 138.942 205.809 139.44 205.16C139.938 204.512 140.385 203.842 140.831 203.173C141.671 201.814 142.427 200.361 143.11 198.94C143.794 197.519 144.446 196.025 145.213 194.697C145.41 194.352 145.586 194.059 145.835 193.735C146.064 193.463 146.292 193.191 146.532 193.044L146.605 193.013C146.678 192.981 146.75 192.949 146.844 192.866C147.011 192.75 147.125 192.614 147.166 192.51C147.322 192.269 147.425 192.008 147.456 191.779C147.569 191.34 147.577 190.86 147.618 190.453C147.622 188.763 147.335 187.199 147.047 185.636C146.803 184.27 146.485 182.936 146.115 181.581C148.919 181.06 151.659 180.09 154.158 178.662C156.875 177.14 159.278 175.191 161.408 173.014C165.69 168.606 168.916 163.358 171.494 157.914C172.819 155.176 173.988 152.376 175.052 149.534L175.827 147.424L176.24 146.38C176.385 146.014 176.498 145.576 176.591 145.189C176.856 143.603 176.746 142.049 176.616 140.547C176.302 137.523 175.738 134.521 175.081 131.602C174.424 128.683 173.662 125.724 172.932 122.837C172.551 121.357 172.149 119.929 171.821 118.47C171.715 118.126 171.683 117.75 171.577 117.407C171.535 117.208 171.524 117.083 171.481 116.885L171.459 116.635L171.406 116.312C171.205 115.447 170.712 114.708 170.084 114.157C168.901 113.024 167.448 112.268 165.997 111.814C164.472 111.392 162.844 111.231 161.28 111.518C160.509 111.636 159.748 111.879 158.998 112.246C158.634 112.404 158.301 112.635 157.936 112.793C157.624 112.971 157.312 113.15 156.999 113.328C155.719 113.969 154.259 114.298 152.841 114.522C149.901 114.929 146.928 114.96 143.882 115.024C140.889 115.107 137.863 115.118 134.839 115.432C133.338 115.562 131.815 115.745 130.283 116.105C128.751 116.466 127.355 116.94 125.917 117.519C123.095 118.698 120.45 120.188 117.869 121.825C115.673 123.252 113.54 124.824 111.523 126.563C112.217 122.367 112.911 118.171 113.167 113.862C113.294 111.556 113.285 109.136 112.933 106.821C112.73 105.653 112.455 104.517 112.107 103.413C111.842 102.402 111.995 101.254 112.304 100.168C112.87 97.9751 113.874 95.8956 114.878 93.816L116.474 90.7016C117.012 89.646 117.53 88.6427 117.933 87.4729C118.108 86.8777 118.283 86.2824 118.145 85.5631C118.039 85.2192 117.829 84.834 117.464 84.6893C117.119 84.4923 116.764 84.4727 116.462 84.4738C115.179 84.5098 114.085 84.9831 113.012 85.4043L112.595 85.5414L112.522 85.573L112.543 85.5207C112.532 85.3956 112.573 85.2911 112.583 85.1137C112.686 84.55 112.84 84.007 112.995 83.464C113.304 82.378 113.738 81.2811 114.12 80.1635C115.731 75.7868 117.479 71.5243 118.829 67.0441C119.211 65.9266 119.405 64.6741 119.203 63.5064C119.073 62.3072 118.62 61.1613 118.053 60.1515C116.888 58.0589 115.202 56.3646 113.288 54.9423C111.426 53.5408 109.336 52.4112 107.08 51.6996C106.537 51.5451 105.942 51.3699 105.378 51.2676C105.096 51.2164 104.814 51.1653 104.532 51.1142C104.271 51.0108 103.989 50.9596 103.749 50.804C102.725 50.3383 101.804 49.6114 100.863 48.9367C99.0011 47.5351 97.2328 46.0498 95.2979 44.6797C93.3947 43.3826 91.3456 42.1486 89.1518 41.2803C86.9579 40.4119 84.6923 39.8776 82.3342 39.7296C80.3515 39.549 78.026 39.7765 75.7017 40.3064ZM37.8459 92.7481C37.8666 92.6959 37.8873 92.6437 37.9602 92.6121C38.0124 92.6328 38.0853 92.6012 38.0853 92.6012L38.4607 92.5686L39.2116 92.5033L40.7547 92.2682L40.8798 92.2573C39.8166 92.5011 38.8264 92.7133 37.7426 93.0093C37.8362 92.9255 37.8568 92.8733 37.8459 92.7481ZM27.1685 203.979C25.6309 202.827 24.2282 201.486 23.1584 199.915C22.0887 198.344 21.3205 196.469 21.2824 194.581C21.2497 194.205 21.1648 193.809 20.9135 193.528C20.6621 193.248 20.3171 193.051 20.0037 192.927C19.3247 192.658 18.5836 192.546 17.8219 192.486C16.3506 192.387 14.8696 192.465 13.4408 192.564C10.531 192.742 7.59064 193.149 4.67971 193.024C4.32496 193.004 3.97019 192.985 3.58388 192.892C3.2498 192.82 2.86351 192.728 2.50876 192.708C1.7677 192.596 1.03751 192.609 0.286655 192.674C-1.19438 192.753 -2.63297 193.029 -4.07156 193.306C-6.96943 193.911 -9.80421 194.662 -12.6183 195.36C-14.0253 195.71 -15.4846 196.038 -16.9025 196.262C-17.6218 196.401 -18.3726 196.466 -19.0822 196.427C-19.4369 196.407 -19.8232 196.315 -20.178 196.295C-20.5327 196.275 -20.8874 196.256 -21.2629 196.289C-24.2152 196.268 -27.1359 196.32 -30.0577 196.07C-35.8904 195.695 -41.7363 194.589 -46.9618 191.916C-49.5746 190.58 -51.9904 188.899 -53.9905 186.778C-54.9645 185.728 -55.8971 184.573 -56.6839 183.356C-57.4706 182.138 -58.1638 180.836 -58.857 179.535C-60.2641 176.984 -61.6505 174.381 -62.9846 171.799C-64.3188 169.217 -65.6323 166.582 -66.7999 163.885C-69.1559 158.542 -71.0331 152.905 -70.7622 147.031C-70.7753 146.3 -70.7883 145.57 -70.7492 144.861C-70.71 144.151 -70.7231 143.421 -70.5272 142.774C-70.4554 142.44 -70.352 142.178 -70.1441 141.959C-69.9363 141.739 -69.6969 141.592 -69.3737 141.539C-68.7382 141.307 -67.9874 141.241 -67.2887 141.155C-64.3691 140.801 -61.4712 140.196 -58.6049 139.518C-55.7386 138.84 -52.9039 138.089 -50.08 137.213C-48.6839 136.738 -47.3084 136.316 -45.8916 135.789C-44.527 135.242 -43.1624 134.695 -41.8195 133.897C-41.1742 133.488 -40.529 133.079 -39.9577 132.398C-39.8641 132.315 -39.8227 132.21 -39.7814 132.106L-39.678 131.845C-39.6366 131.74 -39.543 131.656 -39.4494 131.573C-39.2623 131.405 -38.9707 131.279 -38.6475 131.225C-38.0011 131.119 -37.3231 131.085 -36.6343 131.176C-35.9248 131.216 -35.2044 131.38 -34.5156 131.471C-31.6656 132.056 -28.9081 133.026 -26.2441 134.081C-20.8118 136.231 -15.545 138.799 -10.475 141.712C-5.40508 144.625 -0.241572 147.454 4.94262 150.231L8.8308 152.314L10.7852 153.329L11.2869 153.588C11.3391 153.609 11.5796 153.765 11.7776 153.722C11.9757 153.68 12.1738 153.637 12.3087 153.449C10.856 155.593 9.75909 158.059 9.35103 160.616C8.93101 162.746 8.79284 164.926 8.72757 167.076C8.61006 169.204 8.54478 171.353 8.47951 173.502L8.28368 179.95C8.27716 181.035 8.2184 182.099 8.21189 183.184C8.23475 183.737 8.28917 184.363 8.66678 184.935C9.01283 185.435 9.52539 185.819 9.95415 186.109C13.6442 188.234 17.034 190.966 20.7763 193.112L20.8177 193.007C17.2103 190.673 14.0077 187.774 10.3067 185.524C9.87794 185.233 9.52211 184.911 9.25986 184.505C9.04982 184.12 8.98563 183.672 9.015 183.14L9.19124 179.947L9.49154 173.541C9.60905 171.412 9.67429 169.263 9.73956 167.114C9.80484 164.964 9.7972 162.847 10.1443 160.749C10.4392 158.63 11.0682 156.583 12.0943 154.754C13.1205 152.925 14.4393 151.272 16.0618 149.92L21.7825 151.037C22.7325 151.231 23.6934 151.551 24.207 152.238C24.4377 152.571 24.5019 153.019 24.3365 153.437C24.244 153.823 23.9426 154.127 23.5879 154.107L23.2853 154.108L23.318 154.484C23.4529 157.196 23.5672 159.96 23.7544 162.692L24.2115 170.848C24.2137 171.453 24.069 171.819 23.5488 172.217C23.2888 172.416 23.0287 172.615 22.7686 172.815C22.4879 173.066 22.2278 173.265 21.947 173.516C20.9492 174.511 20.0873 175.62 19.1308 176.51C18.6629 176.929 18.1427 177.327 17.6117 177.601C17.0807 177.874 16.5072 177.949 15.9022 177.951C15.2242 177.985 14.4831 177.873 13.6289 178.199C13.2437 178.409 12.8584 178.619 12.5886 178.996C12.3187 179.372 12.1642 179.915 12.3122 180.457L13.2209 183.656L13.4592 180.307C13.469 180.13 13.5103 180.025 13.6039 179.941C13.6975 179.858 13.864 179.742 14.062 179.7C14.4581 179.615 14.8858 179.603 15.2307 179.8C15.5441 179.924 15.8793 180.298 16.1209 180.756C16.3831 181.162 16.5518 181.652 16.6998 182.194C16.8685 182.684 17.0165 183.225 17.2168 183.788C17.4377 184.298 17.6585 184.809 17.9317 185.34C18.4464 186.329 19.0548 187.234 19.7153 188.16C21.0255 189.887 22.5022 191.499 23.8124 193.226C25.1226 194.953 26.2663 196.795 26.8268 198.89L26.9519 198.879C26.6102 196.69 25.5285 194.691 24.2912 192.932C23.0746 191.121 21.6185 189.458 20.4542 187.667C19.8459 186.762 19.2898 185.877 18.8273 184.909C18.5857 184.451 18.417 183.961 18.1961 183.451C18.0274 182.961 17.8588 182.471 17.7108 181.929C17.5628 181.387 17.4148 180.846 17.0894 180.294C16.9632 180.002 16.764 179.742 16.5442 179.534C16.4082 179.42 16.2928 179.254 16.1568 179.139C16.8347 179.106 17.554 178.967 18.2102 178.683C18.8871 178.347 19.5008 177.865 20.0417 177.414C21.0918 176.44 21.9014 175.311 22.8056 174.4C23.0135 174.18 23.2942 173.929 23.5336 173.782C23.7208 173.614 23.908 173.447 24.1474 173.3C24.5772 173.893 25.1529 174.423 25.8428 174.817C26.5327 175.211 27.2955 175.573 28.0475 175.81C29.5514 176.285 31.1173 176.603 32.6625 176.973C34.1762 177.27 35.7421 177.587 37.0382 178.282C38.3658 179.049 39.5792 179.952 40.7512 180.96C43.0745 183.027 45.0964 185.398 47.2434 187.759C48.3012 188.902 49.4111 190.067 50.6354 191.095C51.7029 192.061 52.8847 192.892 54.1601 193.638C53.5561 193.943 53.0675 194.414 52.6834 194.926C52.2372 195.596 51.9478 196.327 51.7628 197.1C51.4135 198.593 51.2002 200.2 50.3177 201.361C49.9129 201.926 49.2676 202.335 48.6005 202.494C47.9335 202.653 47.286 202.457 46.9193 202.01C46.5003 201.542 46.3621 200.822 45.9943 200.073C45.8049 199.635 45.522 199.282 45.1455 199.012C44.7689 198.742 44.2673 198.483 43.6938 198.558C43.4435 198.58 43.1519 198.706 42.8918 198.905C42.7046 199.073 42.5491 199.313 42.4141 199.501C42.1965 199.899 42.104 200.285 41.9908 200.723C41.8058 201.496 41.7253 202.31 41.6655 203.072L41.5653 204.24L41.5153 204.825C41.4848 205.054 41.475 205.232 41.4653 205.409C41.4054 206.171 41.3455 206.933 41.129 207.632C40.9125 208.332 40.4554 208.876 39.7677 209.087C39.08 209.298 38.3182 209.239 37.5772 209.127C36.0842 208.777 34.7152 208.115 33.294 207.431L33.2526 207.536C33.4931 207.691 33.7336 207.847 33.9426 207.93C33.3887 207.65 32.8348 207.37 32.2809 207.091C30.2851 206.18 28.6332 205.163 27.1685 203.979ZM95.4242 44.9714C97.3275 46.2685 99.0958 47.7539 100.937 49.2077C101.858 49.9346 102.799 50.6093 103.927 51.1163C104.189 51.2197 104.502 51.3438 104.763 51.4471C105.024 51.5505 105.379 51.5701 105.661 51.6212C106.225 51.7235 106.768 51.8781 107.311 52.0326C109.514 52.7235 111.552 53.8324 113.362 55.2133C115.172 56.5942 116.878 58.2363 117.96 60.2353C118.527 61.2452 118.896 62.2974 119.067 63.3922C119.217 64.5391 119.033 65.6142 118.672 66.6796C117.29 71.0868 115.521 75.4015 113.91 79.7783C113.528 80.8959 113.114 81.9405 112.785 83.0788C112.63 83.6218 112.455 84.2171 112.353 84.7807C112.343 84.9581 112.301 85.0626 112.292 85.24C112.323 85.3129 112.282 85.4173 112.293 85.5425C112.272 85.5947 112.324 85.6154 112.304 85.6676C111.074 86.0267 109.824 86.4381 108.594 86.7972C105.843 87.6417 103.071 88.5384 100.352 89.4557C97.6326 90.3731 94.9132 91.2905 92.1524 92.3123C90.9543 92.7444 89.7149 93.2809 88.5799 93.8587C86.7561 94.3451 84.9954 94.9774 83.2662 95.6826C81.4435 96.4715 79.6001 97.3127 77.8612 98.1953C76.1016 99.1301 74.342 100.065 72.6662 101.093C70.9903 102.122 69.2938 103.202 67.6496 104.303C67.2437 104.566 66.8171 104.88 66.4743 105.288C66.0793 105.676 65.8726 106.198 65.6865 106.668C65.3666 107.629 65.1196 108.558 64.8519 109.54C64.3372 111.451 63.718 113.32 63.2349 115.304C62.7202 117.215 62.4666 119.229 62.3382 121.233C62.1979 122.808 62.1827 124.373 62.2719 125.979C62.1479 126.293 62.1076 126.7 62.0565 126.982C62.0162 127.389 61.9759 127.796 61.9564 128.15C61.8846 131.384 62.6779 134.417 62.2089 137.434C61.8966 140.512 61.2503 143.519 60.2698 146.454C59.2894 149.389 57.9956 152.199 56.3883 154.886L56.4928 154.928C58.3405 152.396 59.864 149.616 60.9695 146.67C62.1274 143.745 62.8151 140.634 63.2003 137.524L63.3004 136.355C63.3406 135.948 63.3287 135.521 63.3483 135.166C63.3559 134.383 63.259 133.56 63.1937 132.809C63.0315 131.234 62.7758 129.743 62.7181 128.21C62.6855 127.835 62.7257 127.428 62.7453 127.073C62.7855 126.666 62.7845 126.363 62.9292 125.998C63.1773 125.371 63.655 124.775 64.2481 124.345C64.8205 123.967 65.5811 123.725 66.2493 123.868C66.9174 124.012 67.4931 124.542 67.7564 125.25L67.8827 125.542L68.0905 125.322C69.0775 124.202 69.7195 122.885 70.2571 121.527C70.7424 120.149 71.1233 118.729 71.4834 117.361C71.8436 115.993 72.2245 114.573 72.7936 113.288C73.3627 112.002 74.0885 110.779 75.1179 109.858C75.6065 109.386 76.1789 109.009 76.7829 108.704C77.3868 108.399 78.0539 108.24 78.7939 108.05C79.4816 107.839 80.3152 107.565 80.8865 106.885C81.4893 106.277 81.7156 105.4 81.8799 104.68C81.992 103.939 82.0519 103.177 82.1226 102.54C82.214 101.852 82.4621 101.225 82.7102 100.598C83.2586 99.365 84.152 98.3291 85.1815 97.4074C87.2926 95.5846 89.8857 94.3756 92.5213 93.3646C95.1776 92.3014 97.8655 91.3111 100.606 90.3415L108.721 87.3914C109.992 86.9278 111.316 86.4849 112.587 86.0213C112.743 86.0833 112.889 86.0202 112.962 85.9886L113.181 85.894L113.545 85.7362C114.618 85.315 115.691 84.8939 116.776 84.9004C117.308 84.9298 117.726 85.0952 117.811 85.4913C117.927 85.9603 117.773 86.5033 117.587 86.9734C115.86 91.1837 113.151 95.1262 111.937 99.7206C111.66 100.88 111.414 102.111 111.72 103.32C112.048 104.477 112.344 105.561 112.515 106.656C112.888 108.918 112.886 111.213 112.759 113.519C112.452 118.11 111.686 122.64 110.899 127.223C110.559 128.236 110.27 129.27 110.139 130.365C109.935 131.795 109.909 133.235 109.778 134.633C109.707 134.967 109.687 135.322 109.584 135.583C109.522 135.74 109.46 135.897 109.418 136.001C109.398 136.053 109.304 136.137 109.283 136.189L109.148 136.378C108.691 136.922 108.234 137.466 107.725 137.989C106.811 139.078 105.835 140.322 105.465 141.868C105.043 143.392 105.173 144.894 105.063 146.24C105.006 147.607 104.771 148.964 104.002 149.989C103.213 151.066 102.069 151.821 100.809 152.41C99.5484 152.999 98.1729 153.421 96.8497 153.864C96.1619 154.075 95.4742 154.286 94.7658 154.55C94.0574 154.813 93.4534 155.118 92.7766 155.454C91.4751 156.147 90.3096 156.955 89.1442 157.762C87.9787 158.569 86.8242 159.502 85.7425 160.403C84.6402 161.356 83.5901 162.33 82.6237 163.398C80.6389 165.512 78.8423 167.762 77.2862 170.167C75.8857 172.331 74.6213 174.61 73.8791 177.095C73.9009 174.445 73.0259 171.924 71.8909 169.602C70.5774 166.967 68.8058 164.574 66.92 162.317C65.9667 161.215 64.9612 160.092 63.9872 159.042C62.961 157.971 61.9556 156.848 60.5757 156.06C59.8858 155.666 59.0816 155.409 58.2883 155.276C57.4743 155.195 56.7028 155.313 55.9313 155.43C54.472 155.759 53.0443 156.161 51.659 156.76C50.2738 157.36 48.9309 158.157 47.8188 159.288C47.2889 159.864 46.8427 160.533 46.501 161.244C46.2115 161.975 45.995 162.675 45.7785 163.374C45.5619 164.074 45.3138 164.701 44.8775 165.193C44.4411 165.685 43.8687 166.062 43.2125 166.346C42.5563 166.63 41.8795 166.966 41.2549 167.323C40.9426 167.502 40.6618 167.753 40.3604 168.057C40.1112 168.381 39.9349 168.674 39.8424 169.06L39.9469 169.102C40.0709 168.788 40.2679 168.443 40.528 168.244C40.8087 167.993 41.0688 167.793 41.4127 167.688C42.0166 167.383 42.7566 167.193 43.4334 166.857C44.0896 166.572 44.8187 166.257 45.4216 165.65C45.9515 165.074 46.3139 164.311 46.5826 163.632C46.8514 162.953 47.068 162.253 47.3683 161.647C47.6686 161.041 48.0735 160.476 48.562 160.005C49.5392 159.063 50.7885 158.349 52.0802 157.833C53.3718 157.317 54.7995 156.916 56.1859 156.619C56.853 156.46 57.5516 156.374 58.1882 156.445C58.8248 156.515 59.4723 156.711 60.0262 156.991C61.2178 157.644 62.2124 158.642 63.2592 159.66C64.3061 160.679 65.3323 161.749 66.3062 162.8C67.9396 164.473 69.4588 166.283 70.6863 168.219C70.8658 168.834 70.8473 169.491 70.7766 170.127C70.6243 171.275 70.2217 172.445 69.8919 173.584L69.387 175.317C69.2423 175.683 69.0976 176.048 68.9735 176.362C68.942 176.289 68.9104 176.216 68.8582 176.195C68.6384 175.987 68.2836 175.968 68.0235 176.167C66.5055 177.56 65.2073 179.161 64.118 180.844C64.1071 180.719 64.044 180.573 63.9602 180.479C63.7404 180.272 63.3857 180.252 63.1778 180.472C61.6184 181.969 60.5303 183.955 60.1103 186.085C59.7229 185.69 59.3768 185.19 59.1559 184.68C58.8719 184.024 58.7337 183.304 58.7522 182.647C58.7391 181.917 58.9556 181.217 59.256 180.611C59.2766 180.559 59.318 180.454 59.2864 180.382C59.244 180.184 59.035 180.101 58.8892 180.164C57.4093 180.545 56.0349 181.27 54.8074 182.234C54.0794 182.852 53.383 183.543 52.8226 184.348C53.2459 183.126 53.5962 181.936 54.0196 180.714C54.0402 180.661 54.0087 180.588 54.0087 180.588C53.9771 180.515 53.8726 180.474 53.7791 180.558C52.5614 181.345 51.4906 182.371 50.6396 183.605C50.6897 183.021 50.8333 182.352 50.9563 181.736C51.0695 181.298 51.1511 180.786 51.1075 180.286C51.1162 179.806 50.9367 179.191 50.5493 178.796C50.1619 178.401 49.608 178.121 49.0552 178.144C48.7527 178.145 48.5024 178.167 48.2314 178.241C47.9604 178.315 47.7417 178.41 47.5023 178.557C47.0235 178.851 46.6285 179.238 46.2857 179.646L46.0474 177.195C46.0158 177.123 46.0365 177.07 46.0049 176.997C45.858 176.758 45.5762 176.707 45.3052 176.781L43.2126 177.946C43.2638 177.664 43.3356 177.33 43.4912 177.09L43.5119 177.038C43.5946 176.829 43.5206 176.558 43.3323 176.423C43.0918 176.267 42.8209 176.341 42.6653 176.582L42.6446 176.634C42.4585 177.104 41.6347 177.201 41.0809 176.921C40.527 176.642 40.2114 175.913 40.1983 175.182C40.1852 174.452 40.3909 173.627 40.6803 172.896C40.9905 172.113 41.3006 171.329 41.4747 170.431C41.5161 170.327 41.4323 170.233 41.4007 170.16C41.2647 170.046 41.1189 170.109 41.0253 170.193C40.3604 170.957 39.8109 171.887 39.3865 172.807C38.9621 173.726 38.6944 174.708 38.5312 175.731L38.6356 175.772C38.9033 174.791 39.2548 173.903 39.7314 173.004C39.9697 172.554 40.2603 172.126 40.5302 171.749C40.4061 172.062 40.2821 172.376 40.1058 172.669C39.7434 173.431 39.4648 174.288 39.4474 175.248C39.4387 175.728 39.503 176.176 39.6923 176.613C39.8817 177.051 40.2484 177.498 40.6978 177.736C41.1472 177.975 41.6587 178.056 42.1593 178.013C42.1593 178.013 42.2115 178.033 42.2322 177.981C42.181 178.263 42.1821 178.566 42.2354 178.889C42.2148 178.941 42.2463 179.014 42.2986 179.035C42.4455 179.274 42.7273 179.325 42.946 179.23L45.1115 178.033L45.425 181.057C45.4358 181.183 45.499 181.328 45.635 181.443C45.8755 181.598 46.1465 181.524 46.3021 181.284C46.7896 180.51 47.2564 179.789 47.9224 179.327C48.0889 179.212 48.2347 179.149 48.4534 179.054C48.5992 178.991 48.7973 178.949 48.9746 178.958C49.3294 178.978 49.7157 179.07 49.9671 179.351C50.5112 179.808 50.4416 180.747 50.2675 181.645C50.1456 182.564 49.8986 183.493 50.1108 184.483C50.1423 184.556 50.1739 184.629 50.2261 184.65C50.3306 184.691 50.508 184.701 50.57 184.544C51.2643 183.248 52.2719 182.076 53.4787 181.164C52.9836 182.72 52.4363 184.256 51.9412 185.812C51.8998 185.916 51.9314 185.989 52.0358 186.03C52.1403 186.072 52.2654 186.061 52.3068 185.956C53.001 184.66 53.9358 183.52 55.1219 182.66C56.0687 181.948 57.1829 181.422 58.2875 181.074C58.0807 181.596 57.9262 182.139 57.8761 182.723C57.8479 183.558 57.9447 184.382 58.2603 185.111C58.5552 185.892 59.0689 186.579 59.6968 187.129C59.749 187.15 59.7805 187.223 59.8328 187.244C59.8132 187.599 59.7936 187.953 59.7533 188.36C59.7435 188.538 59.8382 188.756 60.0471 188.839C60.2561 188.922 60.5586 188.921 60.7251 188.805C60.8916 188.69 61.0581 188.575 61.1201 188.418C61.1821 188.261 61.2442 188.105 61.254 187.927C61.2637 187.75 61.2213 187.552 61.1582 187.406C61.0635 187.187 60.9797 187.094 60.8437 186.979C61.1408 185.466 61.7197 184.003 62.6435 182.738L62.5021 184.011C62.4716 184.24 62.5979 184.532 62.859 184.635C63.1724 184.759 63.5369 184.602 63.6403 184.34C64.6643 181.906 66.1377 179.71 67.967 177.836C68.0301 177.982 68.041 178.107 68.0518 178.232C67.9691 178.441 67.9387 178.671 67.9082 178.9C67.8168 179.589 67.9757 180.256 68.103 180.851C68.1661 180.996 68.2815 181.163 68.4589 181.173C68.7407 181.224 68.9801 181.077 69.0313 180.795C69.1749 180.127 69.2347 179.365 69.1694 178.614C69.1477 178.364 69.0736 178.093 69.0519 177.843C69.1139 177.686 69.1759 177.529 69.238 177.373C69.4654 176.798 69.6928 176.223 69.868 175.628C69.991 175.012 70.1455 174.469 70.3207 173.874C70.5982 172.715 70.9485 171.525 71.0171 170.283C71.0573 169.876 71.0138 169.375 70.9289 168.979C71.0758 169.219 71.2543 169.531 71.3806 169.823C72.0738 171.124 72.6418 172.437 72.9389 173.823C73.2882 175.23 73.3666 176.711 73.1316 178.068C72.9281 179.498 72.3067 180.762 71.4449 181.871C70.5831 182.98 69.5852 183.975 68.5144 185.001C67.4643 185.975 66.3935 187.001 65.4381 188.194C64.6383 189.146 63.9331 190.317 63.5098 191.539C63.3738 191.425 63.1648 191.342 62.9875 191.332C62.5489 191.219 62.1528 191.304 61.736 191.441C60.9754 191.684 60.3094 192.145 59.8002 192.668C59.3431 193.213 58.8339 193.736 58.2615 194.114C57.7413 194.512 56.9807 194.755 56.3745 194.454L56.3332 194.559C56.6259 194.735 57.0645 194.848 57.4399 194.815C57.8153 194.783 58.1799 194.625 58.4922 194.447C59.1168 194.09 59.6783 193.587 60.2398 193.084C60.7284 192.613 61.3324 192.308 61.9472 192.129C62.2704 192.075 62.5936 192.022 62.8025 192.105C63.0637 192.208 63.2519 192.343 63.3466 192.562L63.8091 193.53L64.1182 192.444C64.5306 191.097 65.2879 189.947 66.202 188.859C67.1161 187.77 68.2184 186.817 69.237 185.77C70.3077 184.744 71.347 183.645 72.1457 182.39C72.9967 181.156 73.5233 179.673 73.6952 178.17C73.6844 178.045 73.7257 177.941 73.7148 177.815C74.0772 177.053 74.4711 176.363 75.0217 175.735C75.593 175.055 76.2481 174.468 76.9554 173.902C78.4016 172.843 80.0579 172.17 81.7457 171.569C85.1528 170.441 88.7808 169.823 92.2293 168.59L97.3656 166.756C99.1056 166.176 100.793 165.575 102.565 165.068C106.056 164.033 109.621 163.269 113.208 162.756C116.794 162.242 120.403 161.978 124.012 162.018C127.601 162.109 131.223 162.576 134.679 163.46C136.381 163.892 138.052 164.554 139.495 165.488C140.217 165.955 140.824 166.557 141.337 167.244C141.851 167.931 142.146 168.712 142.347 169.577C142.698 171.287 142.704 173.102 142.815 174.958C142.871 175.887 142.999 176.783 143.305 177.69C143.559 178.575 144.062 179.439 144.795 180.031L144.888 179.948C144.302 179.293 143.902 178.47 143.701 177.605C143.5 176.74 143.497 175.832 143.42 174.956C143.414 173.141 143.605 171.283 143.244 169.449C143.063 168.531 142.726 167.552 142.202 166.74C141.677 165.928 140.986 165.232 140.181 164.672C138.643 163.519 136.846 162.868 135.061 162.343C131.469 161.344 127.806 160.982 124.123 160.974C120.441 160.966 116.75 161.439 113.205 162.15C109.609 162.842 106.086 163.804 102.564 164.766L97.2905 166.182C95.5189 166.69 93.768 167.144 92.0487 167.672C88.61 168.728 85.0135 169.419 81.5443 170.704C79.8359 171.357 78.1176 172.187 76.6823 173.371C76.0686 173.853 75.5593 174.377 75.1338 174.994C75.9837 173.457 76.9696 172.035 77.9554 170.613C79.5953 168.301 81.4757 166.146 83.3877 164.063C85.2996 161.98 87.2638 159.918 89.4794 158.136C91.6949 156.355 94.1618 154.854 96.9868 154.281C98.3938 153.931 99.7802 153.634 101.145 153.087C102.489 152.592 103.884 151.815 104.86 150.57C105.338 149.974 105.7 149.211 105.916 148.511C106.154 147.759 106.214 146.997 106.253 146.288C106.352 144.817 106.305 143.409 106.572 142.124C106.89 140.861 107.648 139.711 108.51 138.602C108.914 138.037 109.371 137.493 109.797 136.876L109.952 136.636C109.994 136.531 110.087 136.447 110.129 136.343C110.211 136.134 110.273 135.977 110.356 135.768C110.449 135.382 110.541 134.996 110.561 134.641C110.66 133.17 110.561 131.741 110.691 130.342C110.73 129.633 110.822 128.944 110.966 128.276L111.694 127.658C113.971 125.72 116.364 123.948 118.893 122.291C121.401 120.686 124.025 119.247 126.775 118.1C128.139 117.553 129.536 117.078 130.995 116.75C132.454 116.421 133.904 116.27 135.405 116.139C138.409 115.878 141.382 115.846 144.355 115.815C147.348 115.731 150.405 115.793 153.439 115.302C154.982 115.067 156.493 114.759 157.92 114.055C158.285 113.897 158.618 113.666 158.93 113.488C159.242 113.31 159.554 113.131 159.846 113.005C160.502 112.721 161.19 112.51 161.836 112.403C163.254 112.179 164.726 112.278 166.073 112.69C167.42 113.103 168.789 113.765 169.731 114.743C170.203 115.231 170.58 115.804 170.707 116.398L170.75 116.596L170.803 116.919C170.846 117.117 170.888 117.315 170.878 117.492C170.963 117.889 171.069 118.232 171.101 118.608C171.43 120.067 171.811 121.547 172.192 123.027C172.922 125.914 173.684 128.874 174.341 131.792C174.998 134.711 175.583 137.661 175.865 140.612C176.016 142.062 176.074 143.595 175.839 144.952C175.767 145.286 175.716 145.568 175.571 145.934L175.157 146.978L174.383 149.088C173.339 151.877 172.17 154.677 170.866 157.363C168.256 162.734 165.072 167.878 160.977 172.118C158.92 174.264 156.558 176.108 153.987 177.568C151.415 179.027 148.602 180.028 145.714 180.456L145.068 180.563L145.248 181.177C145.681 182.678 146.02 184.262 146.328 185.774C146.615 187.338 146.851 188.881 146.856 190.393C146.836 190.748 146.817 191.103 146.745 191.437C146.683 191.594 146.642 191.698 146.6 191.802C146.58 191.855 146.58 191.855 146.58 191.855L146.413 191.97C145.934 192.264 145.664 192.64 145.415 192.965C145.166 193.289 144.948 193.686 144.751 194.031C143.943 195.463 143.312 196.905 142.628 198.326C141.945 199.747 141.209 201.148 140.442 202.476C140.048 203.165 139.623 203.783 139.145 204.379C138.667 204.975 138.169 205.624 137.639 206.199C135.603 208.596 133.41 210.93 131.238 213.212C129.014 215.473 126.758 217.661 124.366 219.736C123.191 220.72 121.943 221.737 120.621 222.482C120.309 222.661 119.944 222.819 119.652 222.945C119.507 223.008 119.309 223.05 119.163 223.113C118.965 223.156 118.912 223.135 118.662 223.157C117.807 223.181 117.035 223.298 116.212 223.395C113.073 223.845 109.925 224.472 106.818 224.994C105.275 225.229 103.68 225.443 102.158 225.626C101.532 225.681 100.906 225.735 100.28 225.79C99.8005 225.781 99.2683 225.751 98.8091 225.69C97.5675 225.622 96.3672 225.449 95.1974 225.046C94.0591 224.717 93.0036 224.178 92.2494 223.336C91.4953 222.493 91.1471 221.389 90.6628 220.17C90.4103 219.587 90.0741 218.91 89.5507 218.401C89.1317 217.933 88.6921 217.517 88.2731 217.049C87.4352 216.113 86.5973 215.178 85.6864 214.273C84.7756 213.369 83.8441 212.517 82.7461 211.78C81.7003 211.064 80.5403 210.484 79.4118 209.977C77.1027 208.942 74.7315 208.064 72.5366 206.893C70.321 205.775 68.261 204.415 66.336 202.868C64.411 201.321 62.7144 199.501 61.2051 197.514L61.1115 197.598C63.2977 202.149 67.4732 205.795 72.3091 207.468C74.6803 208.346 76.9993 209.203 79.1735 210.427C81.3478 211.65 83.2728 213.197 84.8964 215.048C85.7343 215.984 86.4993 216.951 87.3373 217.887C87.7562 218.355 88.1752 218.823 88.6464 219.312C89.0338 219.707 89.2754 220.165 89.5485 220.696C90.0219 221.789 90.3919 223.144 91.3865 224.142C92.3604 225.192 93.6456 225.761 94.909 226.08C95.3476 226.193 95.859 226.275 96.2976 226.388L97.2171 226.812C98.586 227.475 99.9659 228.263 101.252 229.135C102.538 230.006 103.783 230.982 104.768 232.158C105.774 233.281 106.478 234.707 106.295 236.085C106.223 236.419 106.151 236.753 105.954 237.098C105.81 237.464 105.613 237.809 105.489 238.122C105.095 238.812 104.721 239.45 104.275 240.119C102.532 242.691 100.392 245.046 98.1673 247.308C95.9115 249.496 93.4674 251.549 90.9286 253.384C89.6489 254.328 88.3376 255.198 86.9426 255.975C85.5998 256.773 84.1731 257.477 82.7465 258.181C79.9248 259.662 77.2185 261.31 74.46 262.936C71.7221 264.511 68.9635 266.138 66.0994 267.421C63.2146 268.756 60.2351 269.873 57.149 270.343C54.0629 270.813 50.8385 270.564 48.0168 269.145C45.1744 267.778 42.726 265.721 40.6518 263.33C38.5777 260.938 36.8572 258.263 35.4284 255.462C34.0203 252.609 32.9037 249.629 32.2562 246.533C32.0865 245.741 31.9689 244.97 31.9036 244.219C31.8383 243.468 31.7937 242.665 31.9264 241.872C32.119 240.316 32.5413 238.792 32.9112 237.247C33.7034 234.177 34.4956 231.107 35.3084 227.985C36.1006 224.915 36.8928 221.845 37.5283 218.714C37.846 217.148 38.1637 215.582 38.3041 214.006C38.3846 213.192 38.4445 212.43 38.3999 211.627C38.3879 211.2 38.3552 210.824 38.2181 210.407C38.1757 210.209 38.081 209.991 37.9656 209.824C37.8819 209.73 37.7458 209.616 37.6414 209.575C38.3095 209.718 39.0712 209.778 39.759 209.567C40.1758 209.43 40.561 209.22 40.8624 208.916C41.1639 208.613 41.3815 208.216 41.5262 207.85C41.8364 207.067 41.9168 206.253 41.9767 205.491C41.9865 205.313 42.017 205.084 42.0268 204.906C42.0365 204.729 42.1192 204.52 42.129 204.343L42.2814 203.195C42.3934 202.454 42.4533 201.692 42.6698 200.992C42.7417 200.658 42.8864 200.292 43.0627 200C43.239 199.707 43.4055 199.592 43.5828 199.601C43.7809 199.559 44.0421 199.662 44.2619 199.87C44.4817 200.078 44.7015 200.286 44.8277 200.578C45.1324 201.182 45.3338 202.047 45.9725 202.722C46.3077 203.097 46.7572 203.335 47.2164 203.396C47.6756 203.457 48.1761 203.413 48.5929 203.276C49.4265 203.002 50.1338 202.436 50.58 201.767C51.4614 200.303 51.4973 198.686 51.8781 197.266C52.0424 196.546 52.3319 195.814 52.7574 195.197C53.1829 194.58 53.7966 194.098 54.4637 193.939L54.9849 193.844L54.5039 193.532C53.2177 192.661 52.0456 191.653 50.915 190.541C49.8366 189.45 48.7995 188.254 47.7625 187.058C45.7406 184.687 43.7807 182.159 41.28 180.081C40.0558 179.053 38.738 178.109 37.2852 177.352C35.7073 176.607 34.1523 176.414 32.5657 176.149C31.0313 175.904 29.4763 175.711 27.931 175.341C26.5109 174.96 25.0277 174.434 23.97 173.29C23.9907 173.238 24.0636 173.206 24.0636 173.206C24.3443 172.955 24.6458 172.651 24.8634 172.254C25.0288 171.836 25.0897 171.377 25.1093 171.022C25.0767 170.647 25.0962 170.292 25.0429 169.969L24.9559 168.968L24.8024 166.913L24.4955 162.804C24.267 160.176 24.0384 157.548 23.8305 154.868C24.0286 154.826 24.2157 154.658 24.3822 154.543C24.5901 154.323 24.7141 154.009 24.8175 153.748C24.972 153.205 24.8447 152.611 24.4987 152.112C24.1842 151.685 23.7032 151.374 23.2331 151.188C22.763 151.002 22.2722 150.868 21.7607 150.786L15.9672 149.701L15.9149 149.681L15.842 149.712C14.5939 150.729 13.4404 151.964 12.4958 153.282C12.5372 153.177 12.5992 153.02 12.5361 152.875C12.5252 152.749 12.4937 152.677 12.4099 152.583C12.3783 152.51 12.3783 152.51 12.3261 152.489L12.2945 152.416L12.0007 151.938C10.3749 149.482 8.60332 147.089 6.62387 144.916C6.12111 144.354 5.59769 143.845 5.00135 143.367C4.7293 143.139 4.405 142.889 4.13295 142.661L3.65197 142.35C3.51594 142.235 3.35925 142.173 3.22323 142.059C2.11434 141.197 1.23396 140.063 0.374277 138.877C-1.27219 136.473 -2.60634 133.891 -3.57595 131.151C-3.78706 130.463 -3.99818 129.776 -4.15706 129.108C-4.31594 128.441 -4.38123 127.691 -4.17448 127.168C-3.92638 126.541 -3.55313 125.904 -3.14833 125.339C-2.77509 124.701 -2.37028 124.137 -1.9448 123.519C-0.315796 121.083 1.36544 118.667 2.94221 116.21C4.51899 113.753 6.0849 111.171 7.16001 108.454C7.7498 107.117 8.47559 105.894 9.42123 104.879C9.9305 104.355 10.4713 103.905 11.0753 103.6C11.6792 103.295 12.3876 103.032 13.0134 102.977L13.1907 102.987L13.305 102.851C14.5499 100.927 15.9515 99.0653 17.5729 97.4113C19.1943 95.7572 20.931 94.2696 22.9931 93.3337C24.0139 92.8919 25.1706 92.5644 26.2555 92.5709C27.3927 92.5981 28.5408 92.7504 29.6888 92.9027C30.8369 93.0551 31.9642 93.2597 33.0916 93.4642C34.2396 93.6166 35.4193 93.8418 36.6391 93.6601C36.6914 93.6807 36.712 93.6285 36.7643 93.6492C36.9623 93.6067 37.2333 93.5327 37.4313 93.4903C37.2888 94.461 37.1462 95.4316 36.9515 96.3816C36.8285 96.9976 36.6533 97.5928 36.4259 98.1674C36.2605 98.5852 36.0428 98.9824 35.773 99.359C34.0166 98.3013 32.4365 96.9508 30.4821 95.9355C29.9805 95.6765 29.4059 95.4491 28.8106 95.2739C28.2154 95.0987 27.5995 94.9758 26.9945 94.978C25.8051 94.9301 24.5645 95.1641 23.4817 95.7626C22.9507 96.0357 22.4306 96.434 22.0464 96.9466C21.6623 97.4591 21.362 98.0652 21.239 98.6811C20.9931 99.913 21.2162 101.028 20.8963 101.989C20.6286 102.971 19.9746 103.86 19.1845 104.635C18.3945 105.41 17.4369 105.997 16.5315 106.605C15.6262 107.214 14.6479 107.854 13.8056 108.608C12.9634 109.362 12.2364 110.283 11.6347 111.192C10.96 112.134 10.4105 113.064 9.70426 113.932C9.05026 114.821 8.33313 115.565 7.45932 116.246C5.76392 117.629 3.78558 118.658 2.02816 120.198C1.1859 120.952 0.354521 121.832 -0.215685 122.814C-0.785891 123.797 -1.1885 124.967 -1.14278 126.072L-1.01763 126.062C-0.833735 124.986 -0.420258 123.942 0.285978 123.073C0.939974 122.184 1.70935 121.462 2.58317 120.78C4.31013 119.47 6.34067 118.461 8.12965 116.995C9.02414 116.261 9.8033 115.361 10.4257 114.399C11.0482 113.437 11.5661 112.434 12.1157 111.503C12.6859 110.521 13.2876 109.611 14.0777 108.836C14.8677 108.061 15.7731 107.453 16.7307 106.866C17.6883 106.278 18.6459 105.69 19.5404 104.957C20.4349 104.223 21.2663 103.344 21.6689 102.174C22.0715 101.004 21.942 99.8052 22.189 98.8759C22.436 97.9466 23.1009 97.1827 24.0171 96.6995C24.9127 96.2686 25.9552 96.0771 27.0195 96.1358C27.5516 96.1652 28.0631 96.2468 28.5332 96.4329C29.024 96.5667 29.5463 96.7735 29.9957 97.0118C31.9186 97.9541 33.6554 99.3666 35.6936 100.475L36.0907 100.693L36.3399 100.369C36.797 99.8247 37.118 99.1663 37.3139 98.5188C37.562 97.892 37.6534 97.2032 37.7448 96.5144C37.8557 95.4708 37.8938 94.4588 38.0048 93.4152C39.3705 93.1703 40.7362 92.9255 42.0812 92.7329C43.8746 92.476 45.7201 92.2399 47.545 92.0559C49.3906 91.8198 51.1839 91.563 52.9773 91.3061C53.874 91.1777 54.7913 90.9971 55.7087 90.8164C56.157 90.7522 56.626 90.6358 57.095 90.5193C57.564 90.4029 57.9601 90.318 58.1691 90.4007C58.378 90.4834 58.7023 90.7326 58.9852 91.0863C59.2888 91.3877 59.5195 91.7207 59.7296 92.1059C60.1703 92.8241 60.4445 93.6577 60.5936 94.5021C60.9441 96.2117 61.0028 98.0474 61.1138 99.9039C61.2727 103.471 61.8593 107.026 62.8627 110.444C61.1531 110.795 59.5176 111.416 57.8396 111.839C56.0887 112.294 54.1702 112.562 52.4464 111.88C51.6107 111.549 50.7641 111.093 49.8761 110.741C48.9881 110.39 47.9859 110.174 46.9956 110.387C46.0261 110.547 45.1512 110.925 44.2763 111.304L41.6929 112.336C40.8387 112.662 39.9637 113.041 39.1095 113.367C38.2553 113.694 37.474 113.989 36.6393 113.96C35.8047 113.932 34.9483 113.654 34.1125 113.323L31.5737 112.257C29.8707 111.523 28.0948 110.82 26.2677 110.399C25.3383 110.152 24.4199 110.03 23.4601 110.013C22.521 109.943 21.5721 110.051 20.6548 110.231L20.6656 110.356C22.4905 110.173 24.359 110.489 26.0925 110.994C27.8782 111.52 29.5083 112.286 31.1907 113.072C32.0058 113.456 32.8731 113.859 33.7404 114.263C34.6283 114.614 35.5686 114.987 36.5806 115.025C37.6448 115.083 38.6449 114.694 39.4469 114.347C40.3218 113.968 41.1444 113.569 41.9671 113.169L44.4874 111.992C45.3101 111.592 46.1327 111.193 46.9978 110.992C47.863 110.79 48.7292 110.892 49.5856 111.17C50.442 111.449 51.268 111.957 52.1766 112.256C53.0853 112.555 54.0352 112.75 54.9635 112.695C55.9439 112.66 56.8613 112.479 57.7786 112.299C59.634 111.885 61.374 111.305 63.1989 111.121L63.5744 111.088L63.4895 110.692C62.6526 107.159 62.1596 103.52 62.0214 99.9006C61.9626 98.0648 61.9767 96.1975 61.5632 94.3421C61.3826 93.4248 61.0452 92.4454 60.5414 91.5814C60.2791 91.1755 59.9646 90.7489 59.6295 90.3746C59.4619 90.1874 59.2943 90.0002 59.0538 89.8446C58.8133 89.689 58.5935 89.4812 58.2594 89.4094C57.6119 89.2135 57.0493 89.4137 56.5803 89.5302C56.1113 89.6466 55.7152 89.7315 55.2462 89.8479C54.3811 90.0493 53.4637 90.2299 52.5464 90.4106C50.7846 90.7403 48.9706 91.0494 47.1565 91.3584C46.8334 91.4118 46.5102 91.4651 46.187 91.5184L43.7679 91.8296L40.7024 92.2475L39.1801 92.4304L38.4292 92.4957L38.0538 92.5283C38.2605 92.006 38.2377 91.4532 38.2148 90.9004C38.1691 89.7948 38.3943 88.6152 38.5989 87.4878C39.0603 85.2537 39.7197 82.9772 40.4629 80.7943C41.9494 76.4284 43.7699 72.1344 45.8831 68.0166C48.0486 63.9195 50.5068 59.9987 53.3415 56.3478C56.2285 52.7175 59.4919 49.3571 63.269 46.6834C65.1418 45.3101 67.1615 44.1762 69.2443 43.1881C71.3271 42.2 73.5046 41.4306 75.7561 40.9322C78.0075 40.4337 80.333 40.2063 82.6389 40.3336C84.9448 40.4609 87.2104 40.9952 89.3313 41.8951C91.5241 42.4609 93.5209 43.6743 95.4242 44.9714ZM66.3733 123.555C65.5484 123.349 64.6627 123.603 63.9651 123.991C63.4863 124.285 63.0184 124.704 62.7072 125.185L63.2154 121.459C63.5004 119.518 63.7855 117.576 64.0184 115.614C64.2512 113.652 64.5363 111.711 65.1555 109.841C65.2893 109.351 65.4547 108.933 65.6408 108.463C65.8269 107.992 66.013 107.522 66.1784 107.104C66.396 106.707 66.6136 106.31 66.9673 106.027C67.321 105.744 67.7062 105.534 68.185 105.24C71.5366 103.184 75.0036 101.293 78.4706 99.4032C80.178 98.4477 81.9375 97.5129 83.6972 96.5782C84.5405 96.1266 85.4568 95.6434 86.3317 95.2647C86.4775 95.2016 86.5711 95.1178 86.6962 95.1069C85.9051 95.5792 85.2185 96.0928 84.4905 96.7109C83.3675 97.7164 82.412 98.9091 81.7287 100.33C81.4392 101.062 81.202 101.814 81.0899 102.555C80.9778 103.296 80.9909 104.026 80.8473 104.694C80.7559 105.383 80.5807 105.978 80.165 106.418C79.8015 106.878 79.2182 107.13 78.5305 107.342C77.895 107.573 77.1028 107.743 76.4259 108.079C75.7491 108.416 75.1354 108.898 74.6054 109.473C70.4072 113.974 71.7979 120.687 68.0687 125.072C67.7216 124.27 67.1666 123.688 66.3733 123.555Z" fill="#FFFDFB"/>
  <path d="M14.9354 123.918C14.8255 125.264 14.8614 126.547 14.918 127.777C14.9746 129.008 15.0105 130.291 14.6601 131.482C14.3098 132.672 13.5937 133.718 12.721 134.702L11.4326 136.125C10.9962 136.617 10.6437 137.202 10.3955 137.829C10.1474 138.456 10.0245 139.072 9.90154 139.688C9.77858 140.304 9.60338 140.899 9.45975 141.567L9.56419 141.609C9.94832 141.096 10.3009 140.511 10.5806 139.957C10.8809 139.351 11.0561 138.755 11.3357 138.201C11.5947 137.7 11.8744 137.146 12.2063 136.613C12.486 136.059 12.8701 135.546 13.202 135.013C13.8864 133.894 14.5502 132.828 15.0464 131.574C15.4697 130.352 15.6841 129.047 15.7733 127.754C15.8625 126.46 15.8266 125.177 16.0519 123.997C16.2249 122.797 16.6591 121.7 17.386 120.779C18.1129 119.859 19.1009 119.041 20.0368 118.203C20.9933 117.313 21.8867 116.277 22.2578 115.035L22.1533 114.993C20.8573 117.199 18.3044 118.001 16.4969 120.125C15.4784 121.172 15.0246 122.624 14.9354 123.918Z" fill="#FFFDFB"/>
  <path d="M81.7193 54.4096C81.4614 55.2137 81.3286 56.007 81.3004 56.8417C81.2438 58.511 81.6356 60.1161 82.048 61.6689C82.4604 63.2218 83.0394 64.6593 83.2951 66.1501C83.6238 67.6094 83.5356 69.2058 83.8545 70.8424C84.1734 72.4791 84.9819 73.947 85.8525 75.2583C86.7231 76.5696 87.6665 77.8493 88.4435 79.2443C88.832 79.9419 89.1682 80.6187 89.4316 81.3271C89.695 82.0356 90.0105 82.7646 90.2217 83.4524C90.6123 84.7549 89.8876 86.2806 89.5699 87.8465L89.6743 87.8879C90.1205 87.2186 90.5144 86.5287 90.8245 85.7452C91.1662 85.0346 91.361 84.0846 91.1597 83.2195C91.0106 82.3751 90.6428 81.6253 90.2543 80.9278C89.8658 80.2302 89.4251 79.512 88.943 78.8983C87.9995 77.6186 86.9831 76.3704 86.1855 75.0276C85.3878 73.6848 84.8295 72.195 84.6989 70.6933C84.5683 69.1916 84.6565 67.5952 84.4105 65.927C84.1439 64.311 83.6585 62.7897 83.1732 61.2684C82.6878 59.7472 82.234 58.2988 82.1034 56.797C81.9728 55.2953 82.1654 53.7403 82.9533 52.3605L82.8695 52.2669C82.444 52.8839 82.0294 53.6261 81.7193 54.4096Z" fill="#FFFDFB"/>
  <path d="M44.5402 172.913L44.6447 172.955C44.9657 172.296 45.4434 171.7 46.0158 171.322C46.2759 171.123 46.5882 170.945 46.8907 170.944C47.1932 170.943 47.4544 171.046 47.6742 171.254C47.894 171.462 48.0932 171.722 48.1672 171.993C48.2412 172.264 48.2945 172.587 48.2956 172.889C48.2249 173.526 47.9561 174.205 47.6873 174.884C47.5839 175.145 47.7102 175.437 47.992 175.488C48.4099 175.653 48.8582 175.589 49.1814 175.536C49.5253 175.43 49.8691 175.325 50.1608 175.199C50.4524 175.072 50.7234 174.998 50.9737 174.977C51.2239 174.955 51.2762 174.975 51.4122 175.09C51.496 175.183 51.5907 175.402 51.6962 175.746C51.7496 176.069 51.9073 176.434 52.0858 176.746C52.5157 177.339 53.0597 177.796 53.7595 178.013L53.8117 178.033C53.8639 178.054 53.8639 178.054 53.8639 178.054C53.9891 178.043 54.1033 177.907 54.0925 177.782C54.0054 176.781 53.8247 175.863 53.7692 174.935C53.705 174.487 53.6615 173.986 53.6702 173.506C53.6789 173.026 53.6876 172.547 53.8323 172.181C54.2883 171.334 54.8487 170.529 54.9074 169.465C54.9368 168.933 54.841 168.411 54.5472 167.933C54.3056 167.474 53.8138 167.038 53.2185 166.863C53.0412 166.853 52.8431 166.896 52.7604 167.104C52.4394 167.763 52.0661 168.401 51.5569 168.924C52.0324 167.723 52.4557 166.501 52.8583 165.331C52.8997 165.226 52.9095 165.049 52.8463 164.903C52.7201 164.611 52.3752 164.414 52.0835 164.541C51.6667 164.678 51.2815 164.888 50.9279 165.171C51.0519 164.857 51.1237 164.523 51.2478 164.21L51.2685 164.158L51.2891 164.105C51.2989 163.928 51.1313 163.741 50.9539 163.731L50.4218 163.702L50.8136 162.407L51.3185 160.673C51.3185 160.673 51.3391 160.621 51.2869 160.6C51.2553 160.527 51.2031 160.507 51.1302 160.538L50.5469 160.791L50.5785 160.864L50.9224 160.758L50.239 162.179L49.5252 163.83L49.5045 163.882C49.4947 164.06 49.61 164.226 49.7667 164.288L49.819 164.309L50.2053 164.401C49.8331 165.342 49.3881 166.313 49.0159 167.254C48.9125 167.515 49.0072 167.733 49.2477 167.889C49.4882 168.045 49.8321 167.939 49.9877 167.699L50.0083 167.646C50.2673 167.145 50.6623 166.757 51.1096 166.391C50.6243 167.769 50.1183 169.2 49.633 170.579C49.5709 170.736 49.6134 170.934 49.6765 171.08C49.8234 171.319 50.1575 171.391 50.4175 171.192C51.0835 170.73 51.6657 170.175 52.1641 169.527C52.5689 168.962 52.9215 168.377 53.2218 167.77C53.7235 168.029 54.1642 168.748 54.1457 169.405C54.1696 170.26 53.7659 171.128 53.31 171.974C53.1032 172.496 53.0945 172.976 53.1381 173.477C53.1294 173.957 53.1729 174.457 53.2371 174.906C53.2817 175.709 53.3786 176.533 53.3916 177.263C53.0467 177.066 52.7638 176.712 52.5537 176.327C52.4068 176.088 52.385 175.837 52.311 175.566C52.2577 175.243 52.2251 174.868 51.9106 174.441C51.743 174.254 51.5548 174.119 51.2936 174.016C51.0847 173.933 50.8343 173.955 50.657 173.945C50.2815 173.978 49.917 174.135 49.646 174.209C49.3022 174.315 48.9376 174.473 48.6667 174.547C48.8734 174.024 48.9757 173.461 49.0258 172.876C49.066 172.469 49.0018 172.021 48.8125 171.584C48.6024 171.198 48.3195 170.845 47.9952 170.595C47.6187 170.326 47.1801 170.212 46.6796 170.256C46.2312 170.32 45.8254 170.582 45.5968 170.854C45.0985 171.503 44.7045 172.193 44.5402 172.913Z" fill="#FFFDFB"/>
  <path d="M55.6276 163.829C55.4187 163.746 55.2304 163.612 55.0629 163.424C54.7908 163.196 54.5808 162.811 54.423 162.446L54.2978 162.457C54.3098 162.885 54.4469 163.301 54.6363 163.739C54.8463 164.124 55.1815 164.498 55.6309 164.737C55.7876 164.799 55.965 164.809 56.0792 164.673L56.0999 164.62C56.4949 164.233 56.8061 163.752 57.1489 163.344L57.5951 162.675C57.6364 162.57 57.73 162.486 57.8029 162.455C57.866 162.601 57.9607 162.819 58.0554 163.038C58.2447 163.476 58.3089 163.924 58.3525 164.424C58.3873 165.405 58.3286 166.469 58.0924 167.524C57.9695 168.14 57.7943 168.735 57.5668 169.309C57.5462 169.362 57.4939 169.341 57.4732 169.393C57.2034 169.77 57.0586 170.135 57.0184 170.542L56.9977 170.595C57.0086 170.72 57.0717 170.865 57.1762 170.907C57.3329 170.969 57.4472 170.833 57.4885 170.728C57.4885 170.728 57.4885 170.728 57.5092 170.676C57.7573 170.049 58.2775 169.651 58.7987 169.555C59.2677 169.439 59.7585 169.573 60.135 169.843C60.0425 170.229 59.8978 170.594 59.7846 171.033C59.6508 171.524 59.5692 172.035 59.4669 172.599L59.5713 172.64C59.8619 172.212 60.1209 171.71 60.3592 171.26C60.5975 170.811 60.8565 170.309 61.0425 169.839C61.1046 169.683 61.0937 169.557 60.9784 169.391L60.9261 169.37C60.3602 168.663 59.3471 168.322 58.4613 168.576C58.3155 168.639 58.1175 168.681 58.0032 168.817C58.1686 168.4 58.2611 168.013 58.4265 167.595C58.8193 166.603 59.1806 165.538 59.2078 164.4C59.2579 163.816 59.2034 163.19 59.0032 162.628C58.9292 162.357 58.803 162.065 58.6767 161.774C58.5614 161.607 58.4983 161.461 58.2055 161.285C58.0695 161.171 57.9128 161.109 57.6625 161.13C57.5374 161.141 57.4645 161.173 57.3916 161.204C57.3186 161.236 57.2457 161.268 57.1728 161.299C56.7463 161.614 56.6636 161.823 56.4873 162.115C56.3317 162.356 56.2283 162.617 56.0934 162.805C56.0422 163.087 55.8246 163.484 55.6276 163.829Z" fill="#FFFDFB"/>
  <path d="M62.504 167.216C62.5878 167.309 62.6715 167.403 62.776 167.444C63.0372 167.547 63.3288 167.421 63.4529 167.108L63.4735 167.056C63.7216 166.429 63.8446 165.813 63.9882 165.145C64.0296 165.04 63.998 164.967 64.0394 164.863C64.2701 165.196 64.4279 165.56 64.6379 165.946C64.8273 166.383 65.0166 166.821 65.206 167.258C65.3953 167.695 65.5846 168.133 65.6489 168.581C65.8186 169.373 65.3213 170.325 64.9492 171.265L63.9056 174.054C63.5335 174.994 63.2135 175.955 62.9143 176.864C62.7805 177.354 62.6357 177.72 62.4072 177.992C62.1787 178.264 61.8664 178.442 61.491 178.475C61.1155 178.508 60.677 178.395 60.3113 178.25C59.8935 178.085 59.6214 177.856 59.3069 177.429C59.024 177.076 58.678 176.576 58.1034 176.349C57.8422 176.245 57.5397 176.247 57.2687 176.321C56.9978 176.395 56.717 176.646 56.7181 176.948L56.8226 176.99C57.0402 176.593 57.6246 176.643 57.9173 176.819C58.2623 177.016 58.4516 177.453 58.7139 177.859C58.9555 178.317 59.3951 178.733 59.8968 178.992C60.3984 179.251 60.9414 179.406 61.5465 179.403C61.849 179.402 62.1722 179.349 62.4323 179.15C62.7239 179.024 62.984 178.824 63.1603 178.532C63.5444 178.019 63.6467 177.455 63.7283 176.944C63.8708 175.973 64.0134 175.003 64.2604 174.073C64.5074 173.144 64.8795 172.204 65.2833 171.337C65.4693 170.866 65.7392 170.49 65.9775 170.04C66.2158 169.591 66.391 168.996 66.3682 168.443C66.3453 167.89 66.1973 167.348 66.0809 166.879C65.9122 166.39 65.7435 165.9 65.5542 165.462C65.1439 164.515 64.6607 163.598 64.1362 162.787C64.0209 162.62 63.8642 162.558 63.6868 162.548C63.332 162.529 63.0513 162.78 63.0524 163.083C63.0023 163.667 62.9316 164.304 62.8609 164.94C62.8304 165.17 62.8206 165.347 62.7379 165.556C62.0763 164.327 61.6954 162.848 61.7422 161.356L61.6377 161.314C60.9979 163.236 61.3396 165.425 62.504 167.216Z" fill="#FFFDFB"/>
  <path d="M400.692 159.821C398.779 158.178 396.646 156.864 394.401 155.676C393.297 155.061 392.16 154.566 390.986 154.114L389.245 153.453C388.679 153.246 388.075 153.08 387.429 152.876C385.052 152.171 382.566 151.669 380.051 151.367C375.063 150.802 370.071 150.91 365.072 151.614C360.11 152.277 355.256 153.488 350.545 155.129C348.169 155.93 345.88 156.886 343.595 157.92C341.31 158.955 339.113 160.143 337.045 161.523L333.946 163.633C333.409 163.979 332.914 164.362 332.419 164.746C332.153 164.958 331.924 165.129 331.749 165.575C331.683 165.816 331.733 166.012 331.821 166.166C331.908 166.32 331.996 166.474 332.042 166.59C332.346 167.09 332.538 167.714 332.647 168.264C332.76 168.892 333.031 169.512 333.377 170.049C334.148 171.118 335.256 171.812 336.244 172.473C337.272 173.172 338.376 173.787 339.176 174.656C339.597 175.11 339.785 175.655 340.131 176.192C340.44 176.77 340.744 177.27 341.169 177.802C341.553 178.297 342.09 178.705 342.661 178.991C343.231 179.278 343.877 179.482 344.514 179.527C345.114 179.614 345.788 179.617 346.421 179.583L346.895 179.558L347.333 179.574C347.612 179.599 347.932 179.661 348.215 179.765C349.423 180.097 350.523 180.633 351.622 181.169C352.684 181.747 353.788 182.362 354.855 183.019C356.987 184.332 359.004 185.692 361.061 187.089C365.102 189.966 369.073 193.006 372.852 196.175C376.672 199.381 380.414 202.592 383.856 206.136C384.698 207.043 385.498 207.912 386.227 208.944C386.915 209.938 387.528 211.016 388.141 212.094C389.367 214.249 390.439 216.492 391.511 218.735C395.758 227.67 399.546 236.946 403.601 246.01C407.656 255.074 411.832 264.171 416.544 272.922C417.733 275.119 418.959 277.274 420.185 279.43C420.798 280.508 421.527 281.539 422.178 282.575L423.174 284.148C423.52 284.685 423.904 285.18 424.287 285.675C427.163 289.765 430.577 293.509 434.397 296.715C438.218 299.922 442.525 302.586 447.148 304.481C449.459 305.428 451.804 306.254 454.182 306.96C456.56 307.665 458.975 308.329 461.249 309.318C462.527 309.487 463.76 309.54 464.979 309.356C465.608 309.243 466.237 309.13 466.819 308.901C467.402 308.671 467.934 308.246 468.258 307.634C468.441 307.346 468.508 307.105 468.732 306.855C468.92 306.646 469.232 306.55 469.502 306.417C470.089 306.266 470.68 306.195 471.275 306.203C472.508 306.256 473.707 306.43 474.952 306.72C476.156 306.973 477.326 307.346 478.5 307.799C479.067 308.007 479.675 308.252 480.166 308.543C480.329 308.614 480.412 308.688 480.495 308.763C480.662 308.913 480.824 308.984 481.024 309.013C481.387 309.112 481.74 309.054 482.053 308.957C482.677 308.765 483.297 308.494 483.788 308.032C484.283 307.648 484.765 307.027 484.806 306.311C484.827 305.953 484.647 305.566 484.435 305.3C484.222 305.034 483.935 304.851 483.647 304.668C483.36 304.485 483.077 304.381 482.752 304.24L481.898 303.849C479.736 302.736 477.603 301.422 475.546 300.025C473.45 298.67 471.43 297.231 469.447 295.751C465.443 292.832 461.51 289.75 457.731 286.581C456.815 285.758 455.86 284.976 454.944 284.153C454.485 283.741 454.027 283.329 453.569 282.917L452.269 281.599C452.06 281.412 451.848 281.145 451.677 280.917L451.085 280.234L450.493 279.552C450.322 279.323 450.11 279.057 449.939 278.828L448.868 277.339L447.95 275.762C447.817 275.491 447.646 275.262 447.471 274.954L447.07 274.143L446.228 272.483C445.731 271.359 445.235 270.235 444.776 269.07C444.317 267.905 443.9 266.777 443.478 265.57C443.098 264.4 442.639 263.235 442.297 262.024C440.814 257.304 439.486 252.497 438.12 247.731C436.754 242.966 435.389 238.2 433.981 233.397L429.647 219.112C428.239 214.309 426.874 209.544 425.508 204.778C424.142 200.012 422.735 195.209 421.094 190.498C419.454 185.787 417.618 181.125 415.162 176.735C412.706 172.345 409.713 168.302 406.15 164.724L403.396 162.175C402.937 161.763 402.479 161.351 401.942 160.944L400.692 159.821ZM404.65 245.597L398.642 231.918C396.652 227.344 394.625 222.812 392.481 218.326C391.409 216.083 390.258 213.844 389.032 211.689C388.419 210.611 387.727 209.538 386.997 208.506C386.268 207.474 385.422 206.488 384.542 205.623C381.021 202.083 377.238 198.835 373.343 195.712C370.026 193.034 366.677 190.477 363.215 188.044C366.259 189.349 369.192 190.778 372.016 192.412C375.331 194.337 378.464 196.548 381.41 198.969C384.355 201.389 387.002 204.143 389.461 207.105C391.92 210.067 394.379 213.029 396.684 216.078C397.797 217.605 398.876 219.253 399.644 220.997C400.412 222.74 400.867 224.58 401.327 226.499C402.126 230.303 403.315 234.008 404.58 237.628C405.845 241.249 407.189 244.866 408.612 248.478C409.342 250.264 410.035 252.091 410.802 253.834C411.441 255.387 412.117 256.897 412.834 258.445C413.307 261.355 413.938 264.256 414.686 267.112C411.133 260.004 407.854 252.842 404.65 245.597ZM402.959 162.912L405.634 165.466C409.114 168.968 412.065 172.975 414.438 177.29C416.811 181.605 418.643 186.187 420.283 190.898C421.882 195.572 423.21 200.38 424.576 205.145C425.904 209.953 427.27 214.718 428.715 219.48L433.087 233.722C434.531 238.484 435.897 243.249 437.263 248.015C438.629 252.781 439.957 257.588 441.56 262.341C441.94 263.511 442.361 264.718 442.741 265.887C443.121 267.057 443.622 268.259 444.039 269.387C444.498 270.552 445.036 271.714 445.533 272.837L446.375 274.498L446.817 275.346C446.951 275.617 447.163 275.883 447.297 276.154L448.256 277.768L449.369 279.295C449.582 279.561 449.715 279.832 449.965 280.056L450.598 280.776L451.232 281.496C451.444 281.762 451.615 281.991 451.865 282.215L453.245 283.53C453.666 283.983 454.161 284.353 454.62 284.765C455.536 285.588 456.49 286.37 457.486 287.189C461.344 290.354 465.277 293.436 469.356 296.271C471.376 297.71 473.434 299.107 475.529 300.462C477.625 301.817 479.757 303.131 481.998 304.241L482.852 304.631C483.135 304.735 483.418 304.839 483.664 304.984C484.156 305.275 484.614 305.687 484.56 306.166C484.548 306.682 484.178 307.178 483.721 307.52C483.305 307.899 482.726 308.207 482.218 308.354C481.944 308.408 481.669 308.462 481.39 308.438C481.269 308.404 481.149 308.371 481.065 308.296C480.94 308.184 480.778 308.114 480.653 308.001C480.082 307.714 479.474 307.469 478.908 307.262C477.696 306.851 476.488 306.519 475.285 306.266C474.081 306.013 472.803 305.843 471.533 305.832C470.901 305.866 470.268 305.9 469.643 306.092C469.331 306.188 469.061 306.322 468.757 306.576C468.491 306.788 468.391 307.151 468.246 307.396C467.996 307.925 467.501 308.309 466.96 308.576C466.419 308.843 465.791 308.956 465.162 309.069C463.943 309.253 462.673 309.242 461.474 309.068C459.195 308 456.78 307.336 454.44 306.589C452.058 305.804 449.713 304.978 447.439 303.989C442.891 302.011 438.7 299.301 434.921 296.132C431.18 292.921 427.846 289.173 425.011 285.121C424.627 284.626 424.244 284.131 423.94 283.631L422.943 282.059C422.814 281.867 422.643 281.638 422.551 281.405C421.267 278.896 420.02 276.345 419.005 273.702C417.812 270.673 416.777 267.634 415.975 264.504C415.172 261.374 414.487 258.198 414.08 255.047L413.896 253.827C413.874 253.432 413.812 252.999 413.753 252.645L413.505 250.239C413.42 248.657 413.252 247 413.247 245.414C413.242 244.581 413.2 243.79 413.236 242.995L413.305 240.572C413.342 239.777 413.378 238.982 413.453 238.145L413.547 236.95L413.642 235.755C413.758 234.956 413.794 234.16 413.91 233.361L414.258 230.963C414.49 229.364 414.879 227.756 415.232 226.191C416.679 219.886 418.684 213.631 419.207 207.098C419.36 205.504 419.35 203.839 419.302 202.215C419.176 200.596 419.008 198.939 418.723 197.328C418.439 195.717 417.996 194.114 417.516 192.554C417.036 190.993 416.476 189.436 415.801 187.926C414.528 184.9 412.985 182.008 411.288 179.204C409.591 176.399 407.703 173.724 405.623 171.178C401.542 166.082 396.813 161.456 391.306 157.864C388.552 156.068 385.62 154.639 382.547 153.534C379.473 152.43 376.225 151.771 373.003 151.586L372.969 151.707C379.431 152.392 385.52 155.001 390.832 158.643C393.506 160.444 395.998 162.531 398.261 164.79C400.561 167.007 402.753 169.428 404.712 171.941C406.75 174.449 408.559 177.129 410.252 179.854C411.945 182.579 413.525 185.43 414.794 188.376C416.062 191.323 417.097 194.361 417.783 197.537C418.105 199.106 418.31 200.721 418.474 202.299C418.559 203.881 418.606 205.505 418.533 207.095C418.348 210.317 417.806 213.519 417.101 216.651C416.396 219.782 415.574 222.96 414.79 226.095C413.264 232.404 412.263 238.883 412.298 245.465C412.266 247.093 412.392 248.712 412.481 250.373C412.649 252.03 412.734 253.612 413.018 255.223C413.471 258.491 414.194 261.625 415.038 264.792L415.719 267.136L416.516 269.433C416.796 270.211 417.075 270.99 417.392 271.726C417.71 272.463 417.989 273.241 418.306 273.978L419.337 276.183C419.428 276.416 419.516 276.57 419.645 276.762C418.815 275.339 418.023 273.874 417.231 272.409C416.434 270.865 415.642 269.401 414.845 267.857C413.52 261.621 412.627 255.323 412.33 249.033C411.933 242.351 412.085 235.561 412.083 228.858C412.118 222.113 411.954 215.34 411.356 208.629C411.188 206.973 411.016 205.237 410.769 203.584C410.559 201.89 410.312 200.237 409.944 198.551C409.618 196.903 409.171 195.222 408.612 193.665C408.048 192.029 407.331 190.481 406.497 188.979C404.791 186.016 402.586 183.358 400.161 181.029C397.732 178.621 395.157 176.458 392.582 174.296C389.97 172.175 387.241 170.1 384.255 168.396C381.268 166.691 378.065 165.395 374.805 164.499C368.237 162.59 361.426 162.042 354.669 161.77C352.999 161.7 351.292 161.673 349.585 161.645C347.878 161.618 346.213 161.627 344.51 161.679C342.807 161.73 341.109 161.861 339.427 162.308C338.608 162.55 337.788 162.793 337.014 163.151C336.24 163.51 335.507 163.906 334.821 164.419L334.904 164.494C335.632 164.018 336.365 163.622 337.143 163.343C337.921 163.063 338.741 162.821 339.565 162.658C341.214 162.331 342.875 162.242 344.582 162.27C346.247 162.26 347.958 162.367 349.628 162.436L354.678 162.681C358.058 162.857 361.406 163.154 364.683 163.613C368.001 164.11 371.324 164.685 374.51 165.665C375.314 165.86 376.084 166.176 376.892 166.45C377.7 166.724 378.471 167.039 379.241 167.355C379.974 167.712 380.782 167.987 381.478 168.386C382.211 168.743 382.985 169.138 383.681 169.537C386.584 171.166 389.309 173.162 391.917 175.204C394.529 177.325 397.142 179.446 399.567 181.775C401.992 184.104 404.267 186.6 406.006 189.442C407.745 192.284 408.867 195.476 409.599 198.768C410.331 202.061 410.708 205.412 411.007 208.767C411.306 212.122 411.367 215.49 411.349 218.863C411.331 222.235 411.235 225.611 411.217 228.984C411.199 232.356 411.102 235.732 411.126 239.142C411.188 242.51 411.291 245.915 411.51 249.275C411.7 252.081 412.048 254.878 412.513 257.63C410.129 250.896 407.704 244.124 405.4 237.386C404.173 233.724 402.908 230.103 401.876 226.39C401.342 224.555 400.724 222.644 399.877 220.905C399.068 219.124 398.03 217.513 396.912 215.907C395.795 214.301 394.682 212.775 393.565 211.169C392.448 209.563 391.335 208.036 390.064 206.517C387.68 203.472 385.025 200.56 382.038 198.102C379.046 195.565 375.759 193.441 372.331 191.641C369.107 189.95 365.784 188.621 362.357 187.575C361.986 187.317 361.615 187.059 361.286 186.839C359.228 185.442 357.17 184.045 355.037 182.731C354.954 182.656 354.875 182.661 354.792 182.586C355.57 182.306 356.453 182.497 357.148 182.896C357.557 183.112 357.927 183.37 358.336 183.586C358.706 183.844 359.156 184.097 359.564 184.313C361.235 185.136 363.013 185.755 364.787 186.294C366.561 186.834 368.26 187.457 369.963 188.159C371.667 188.861 373.295 189.646 374.891 190.553C376.486 191.459 378.081 192.365 379.565 193.396C381.085 194.385 382.535 195.537 383.985 196.689C386.805 198.997 389.518 201.509 391.968 204.313C394.377 207.08 396.524 210.138 398.284 213.375C400.081 216.571 401.687 219.896 403.214 223.225C403.577 224.078 403.977 224.889 404.261 225.747C404.545 226.604 404.792 227.503 405.075 228.361L406.592 233.713C407.122 235.47 407.615 237.268 408.303 239.016C408.629 239.91 408.992 240.763 409.392 241.575C409.793 242.386 410.276 243.273 410.943 243.872L411.018 243.788C410.389 243.148 409.984 242.257 409.663 241.442C409.3 240.588 409.016 239.731 408.732 238.874C408.202 237.117 407.709 235.319 407.258 233.558L405.937 228.156C405.691 227.257 405.444 226.358 405.198 225.459C404.91 224.522 404.547 223.669 404.184 222.816C403.458 221.11 402.653 219.408 401.773 217.789C400.893 216.17 399.934 214.556 398.9 213.025C397.903 211.452 396.832 209.962 395.719 208.435C394.648 206.946 393.535 205.419 392.31 204.017C390.013 201.126 387.483 198.326 384.696 195.898C381.829 193.473 378.855 191.252 375.548 189.486C373.873 188.584 372.166 187.803 370.425 187.143C368.684 186.482 366.868 185.905 365.098 185.445C363.329 184.984 361.521 184.565 359.855 183.822C359.41 183.647 359.043 183.469 358.635 183.253C358.227 183.036 357.819 182.82 357.41 182.604C356.965 182.43 356.519 182.255 356.003 182.243C355.566 182.227 355.133 182.29 354.75 182.548C353.809 182.004 352.867 181.459 351.847 180.919C350.706 180.345 349.606 179.809 348.398 179.477C348.078 179.415 347.794 179.311 347.436 179.291L346.92 179.279L346.446 179.304C345.813 179.338 345.217 179.33 344.618 179.244C343.381 179.112 342.244 178.617 341.519 177.664C341.098 177.211 340.831 176.67 340.527 176.171C340.393 175.9 340.26 175.63 340.085 175.322L339.864 174.897L339.526 174.519C338.643 173.575 337.576 172.918 336.51 172.261C335.481 171.562 334.452 170.864 333.727 169.911C333.343 169.416 333.155 168.871 333.047 168.321C332.934 167.693 332.741 167.069 332.433 166.49C332.299 166.22 332.087 165.953 332.157 165.791C332.186 165.591 332.453 165.379 332.681 165.208C333.177 164.824 333.634 164.482 334.171 164.136L337.271 162.027C339.339 160.647 341.498 159.5 343.783 158.466C346.068 157.431 348.319 156.517 350.696 155.716C355.369 154.117 360.227 152.984 365.147 152.284C370.03 151.626 375.063 151.555 379.935 152.167C382.371 152.473 384.819 153.016 387.118 153.726C387.684 153.933 388.288 154.099 388.855 154.307L390.595 154.967C391.732 155.462 392.869 155.956 393.932 156.534C396.098 157.727 398.151 159.045 400.022 160.65L401.472 161.802C402.043 162.089 402.538 162.459 402.959 162.912Z" fill="#FFFDFB"/>
  <path d="M325.777 184.614C324.638 183.81 323.424 183.094 322.144 182.548L318.458 180.816C313.64 178.361 309.105 175.387 304.675 172.199C300.245 169.011 296.039 165.557 291.869 162.059C287.7 158.56 283.679 154.884 279.435 151.475L277.846 150.216L276.219 149.002C275.687 148.556 275.08 148.198 274.555 147.833L273.682 147.252C273.379 147.073 273.075 146.894 272.735 146.759C271.521 146.043 270.248 145.579 268.937 145.16C267.626 144.74 266.241 144.409 264.81 144.494C264.113 144.513 263.349 144.704 262.739 145.25C262.434 145.523 262.262 145.908 262.172 146.286C262.082 146.664 262.117 147.072 262.19 147.435C262.336 148.162 262.638 148.793 263.021 149.418C263.36 150.004 263.781 150.584 264.202 151.164C265.036 152.241 265.989 153.268 267.016 154.205L268.457 155.641C268.952 156.132 269.365 156.63 269.823 157.165C273.345 161.255 276.184 165.979 278.265 170.976C278.824 172.201 279.227 173.522 279.787 174.747L281.39 178.511C282.472 181.006 283.516 183.545 284.597 186.039L288.041 193.465C288.601 194.69 289.16 195.915 289.764 197.177L291.605 200.838L293.446 204.499L294.344 206.311L294.793 207.217L295.28 208.079L299.236 215.254L300.216 217.059L301.271 218.775L303.387 222.288L305.502 225.802C306.218 226.931 306.977 228.098 307.774 229.22L310.046 232.638C310.806 233.805 311.521 234.934 312.355 236.012L317.129 242.663L322.171 249.085C323.005 250.163 323.914 251.152 324.829 252.223L327.525 255.316C334.814 263.473 342.714 271.084 351.313 277.77L352.112 278.44L352.947 279.066L354.574 280.28L357.909 282.7L361.312 284.951C362.444 285.674 363.583 286.478 364.752 287.157L368.266 289.274C368.873 289.632 369.435 289.953 370.042 290.311L371.855 291.303C374.23 292.616 376.68 293.84 379.13 295.064C384.059 297.386 389.093 299.494 394.262 301.261C399.431 303.028 404.697 304.499 410.023 305.718C411.534 306.079 413.038 306.358 414.505 306.682C414.846 306.816 415.179 306.869 415.52 307.004L415.55 306.878C416.387 307.052 417.18 307.188 418.017 307.361C420.691 307.867 423.403 308.328 426.048 308.96C427.351 309.298 428.632 309.843 429.831 310.396C431.075 310.986 432.281 311.62 433.338 312.432C433.871 312.878 434.359 313.288 434.779 313.867C435.118 314.454 435.576 314.99 436.183 315.347C436.789 315.705 437.463 315.893 438.16 315.873C438.857 315.853 439.533 315.589 440.068 315.131C441.139 314.215 441.722 312.89 441.934 311.556C442.101 310.185 442.062 308.791 441.74 307.463C441.5 306.128 440.525 304.857 439.133 304.445C438.793 304.31 438.459 304.257 438.126 304.204C437.792 304.151 437.459 304.098 437.088 304.089C436.428 304.065 435.731 304.085 435.035 304.105C432.335 304.259 429.576 304.664 426.877 304.818C424.141 305.017 421.428 305.008 418.73 304.709C416.033 304.411 413.351 303.824 410.804 302.896C410.167 302.664 409.567 302.388 408.931 302.156C408.331 301.879 407.687 301.566 407.087 301.289C406.525 300.969 405.881 300.655 405.319 300.334C405.016 300.156 404.757 300.014 404.49 299.791L403.699 299.202C401.577 297.497 399.797 295.475 398.055 293.408C396.349 291.297 394.718 289.097 393.169 286.89C390.063 282.394 387.158 277.84 384.326 273.197C381.975 269.334 379.667 265.508 377.397 261.638C380.133 265.672 382.989 269.656 386.001 273.543C389.197 277.661 392.43 281.735 396.05 285.528C397.86 287.425 399.744 289.232 401.74 290.907C403.774 292.538 405.926 294.117 408.435 295.089C413.359 296.877 418.299 298.377 423.321 299.869C425.809 300.596 428.335 301.28 430.853 301.881C432.113 302.182 433.372 302.483 434.631 302.784L436.557 303.19L437.52 303.394L437.98 303.477L438.232 303.537L438.358 303.567C438.402 303.604 438.521 303.553 438.521 303.553C438.476 303.516 438.432 303.479 438.35 303.486C437.352 302.874 436.353 302.263 435.31 301.615C434.747 301.294 434.222 300.929 433.66 300.608L432.092 299.595C429.961 298.26 427.942 296.793 425.886 295.37C423.83 293.947 421.848 292.436 419.829 290.968L413.877 286.352C406.054 280.091 398.493 273.519 391.273 266.629C383.971 259.747 376.938 252.636 370.432 244.986C367.183 241.201 364.083 237.239 361.139 233.181L358.977 230.083C358.696 229.696 358.46 229.347 358.18 228.96C355.814 224.934 353.366 220.915 350.881 216.941C347.968 212.305 345.019 207.713 341.875 203.262C338.732 198.81 335.47 194.411 331.703 190.343C330.035 188.187 328.055 186.223 325.777 184.614ZM383.576 273.55C386.489 278.186 389.476 282.733 392.619 287.184C394.213 289.429 395.881 291.584 397.624 293.651C399.411 295.755 401.272 297.771 403.394 299.475L404.23 300.101C404.496 300.324 404.837 300.459 405.14 300.638C405.747 300.996 406.346 301.272 406.99 301.586C407.59 301.862 408.234 302.175 408.87 302.407C409.507 302.639 410.144 302.871 410.781 303.103C413.365 303.987 416.084 304.53 418.782 304.828C421.516 305.082 424.267 305.047 426.959 304.811C429.695 304.613 432.373 304.214 435.109 304.016C435.762 303.959 436.458 303.939 437.163 304.001C437.533 304.009 437.867 304.062 438.156 304.078C438.489 304.131 438.823 304.184 439.163 304.319C440.467 304.657 441.434 305.846 441.674 307.181C441.951 308.472 442.036 309.903 441.861 311.193C441.649 312.527 441.103 313.807 440.114 314.716C439.616 315.129 438.94 315.394 438.288 315.451C437.635 315.508 436.961 315.32 436.355 314.963C435.748 314.605 435.334 314.107 434.995 313.52C434.575 312.94 434.08 312.449 433.592 312.04C432.49 311.191 431.284 310.557 430.04 309.967C428.797 309.377 427.56 308.869 426.212 308.493C423.568 307.862 420.856 307.4 418.181 306.894C416.929 306.675 415.67 306.374 414.455 306.111C410.62 304.556 407.092 302.275 403.868 299.722C402.056 298.277 400.364 296.781 398.701 295.16C397.039 293.538 395.458 291.909 393.951 290.191C387.724 283.38 382.338 275.837 377.226 268.146C374.667 264.26 372.271 260.36 370.023 256.282C368.903 254.284 367.858 252.198 366.812 250.111C365.766 248.024 364.765 245.975 363.801 243.881C360.591 237.257 357.381 230.633 354.246 223.921C355.69 226.342 357.18 228.801 358.625 231.223C364.212 240.598 369.6 250.031 375.188 259.406C377.833 264.271 380.664 268.914 383.576 273.55ZM365.529 239.209C367.02 241.215 368.667 243.126 370.276 245.081C376.745 252.776 383.518 260.198 390.745 267.169C397.934 274.184 405.615 280.704 413.512 286.877C415.456 288.433 417.557 289.893 419.539 291.405C421.595 292.828 423.614 294.295 425.714 295.755C427.808 297.134 429.864 298.557 432.069 299.802L433.674 300.771C434.237 301.092 434.717 301.42 435.317 301.696C436.309 302.226 437.382 302.748 438.462 303.353L438.21 303.292L437.751 303.209L436.788 303.006L434.899 302.555C433.64 302.254 432.373 301.872 431.151 301.526C428.663 300.799 426.174 300.071 423.678 299.262C418.732 297.681 413.815 295.974 408.972 294.179C406.633 293.274 404.562 291.688 402.611 290.05C400.659 288.413 398.812 286.56 397.083 284.657C393.545 280.856 390.275 276.827 387.123 272.746C380.849 264.459 375.044 255.884 369.387 247.132C368.384 245.535 367.381 243.937 366.386 242.422C364.602 239.413 362.899 236.397 361.116 233.389C361.779 234.399 362.562 235.358 363.345 236.317L365.529 239.209ZM331.1 190.971C334.779 194.964 337.997 199.327 341.14 203.778C345.183 209.589 348.951 215.548 352.682 221.551C353.975 225.054 355.424 228.462 356.917 231.907C358.808 236.139 360.781 240.364 362.946 244.449C365.112 248.533 367.397 252.567 369.719 256.556C372.003 260.589 374.288 264.622 376.691 268.604C379.094 272.586 381.572 276.479 384.288 280.269C385.645 282.164 387.04 284.015 388.472 285.821C389.905 287.627 391.418 289.427 393.006 291.137C396.183 294.558 399.545 297.757 403.324 300.55C406.223 302.68 409.345 304.544 412.662 305.816C411.825 305.642 411.069 305.462 410.269 305.244C404.98 303.981 399.744 302.384 394.613 300.573C389.519 298.717 384.522 296.565 379.629 294.198C377.217 292.93 374.774 291.787 372.429 290.348C371.26 289.67 370.054 289.036 368.922 288.313L365.445 286.151C364.276 285.472 363.137 284.668 362.042 283.901L358.677 281.606L355.423 279.178L353.796 277.964L352.96 277.339L352.162 276.669C343.6 269.938 335.67 262.453 328.469 254.37L325.774 251.277C324.903 250.244 323.95 249.217 323.16 248.177L318.044 241.843L313.195 235.281C312.361 234.203 311.646 233.073 310.849 231.951L308.54 228.578C302.529 219.528 296.978 210.109 292.14 200.38L290.262 196.764C289.621 195.546 289.099 194.276 288.502 193.095L285.058 185.67C283.977 183.176 282.932 180.637 281.895 178.179L280.292 174.415C279.733 173.19 279.329 171.869 278.807 170.6C276.682 165.566 273.881 160.797 270.351 156.626C269.893 156.091 269.48 155.593 268.985 155.102L267.544 153.666C266.598 152.721 265.645 151.695 264.856 150.654C264.442 150.156 264.103 149.569 263.764 148.983C263.425 148.396 263.168 147.802 263.029 147.156C262.963 146.874 262.935 146.548 263.032 146.252C263.092 146 263.234 145.741 263.42 145.519C263.836 145.113 264.482 144.974 265.097 144.962C266.41 144.929 267.713 145.267 268.98 145.649C270.246 146.032 271.527 146.577 272.651 147.219C272.955 147.398 273.251 147.495 273.517 147.718L274.346 148.262C274.915 148.664 275.478 148.985 276.01 149.432L277.637 150.646L279.189 151.948C283.396 155.402 287.416 159.078 291.549 162.621C299.813 169.707 308.427 176.556 318.203 181.66L321.933 183.43C323.132 183.983 324.257 184.624 325.352 185.391C327.31 187.11 329.202 189 331.1 190.971Z" fill="#FFFDFB"/>
</svg>
