<svg width="206" height="207" viewBox="0 0 206 207" fill="none"
  xmlns="http://www.w3.org/2000/svg">
  <path d="M33.3133 41.9246C32.3602 41.2081 31.3412 40.5656 30.2604 40.0669L27.1537 38.4928C23.0979 36.2721 19.2975 33.6158 15.5919 30.7788C11.8863 27.9417 8.37831 24.8829 4.90324 21.787C1.42818 18.6912 -1.91514 15.4475 -5.45608 12.4256L-6.78292 11.3099L-8.1427 10.2311C-8.58632 9.83588 -9.09581 9.5146 -9.5354 9.18929L-10.2667 8.67041C-10.5215 8.50977 -10.7762 8.34915 -11.0639 8.22548C-12.0829 7.58293 -13.1597 7.15412 -14.2694 6.76228C-15.3791 6.37044 -16.5547 6.05255 -17.78 6.0882C-18.3762 6.08754 -19.0343 6.23072 -19.5693 6.68241C-19.8368 6.90826 -19.9934 7.2329 -20.0801 7.55352C-20.1668 7.87414 -20.1466 8.22365 -20.0935 8.5362C-19.9873 9.16129 -19.7453 9.70842 -19.4334 10.2515C-19.1585 10.7617 -18.8137 11.2678 -18.4689 11.7739C-17.7833 12.7162 -16.9948 13.6176 -16.1405 14.445L-14.9454 15.7086C-14.5347 16.1408 -14.1939 16.577 -13.8161 17.0461C-10.909 20.6306 -8.6028 24.7407 -6.95056 29.064C-6.50356 30.1253 -6.19236 31.2646 -5.74536 32.3259L-4.4702 35.5837C-3.60913 37.7433 -2.78101 39.9399 -1.91995 42.0995L0.836003 48.5332C1.283 49.5945 1.73 50.6558 2.21397 51.7501L3.69479 54.9259L5.1756 58.1018L5.89752 59.6732L6.25846 60.459L6.65237 61.2077L9.85259 67.4405L10.6444 69.0079L11.5021 70.5014L13.2215 73.5583L14.9409 76.6152C15.5237 77.5985 16.1435 78.6148 16.7961 79.5941L18.6513 82.573C19.2711 83.5893 19.8538 84.5726 20.5395 85.5149L24.4515 91.3209L28.5981 96.9379C29.2837 97.8803 30.0352 98.7487 30.7907 99.687L33.0162 102.399C39.0402 109.556 45.5991 116.261 52.7798 122.194L53.4452 122.787L54.1436 123.343L55.5034 124.421L58.2928 126.575L61.1441 128.585C62.0932 129.231 63.0463 129.948 64.0283 130.557L66.9784 132.456C67.4879 132.777 67.9605 133.066 68.47 133.387L69.9944 134.281C71.9914 135.463 74.0542 136.571 76.1171 137.68C80.2717 139.79 84.521 141.718 88.894 143.36C93.267 145.001 97.7308 146.392 102.252 147.568C103.535 147.915 104.813 148.192 106.059 148.506C106.346 148.63 106.63 148.683 106.918 148.807L106.947 148.7C107.658 148.87 108.332 149.006 109.043 149.175C111.316 149.675 113.622 150.138 115.867 150.745C116.972 151.067 118.053 151.566 119.064 152.069C120.112 152.604 121.127 153.177 122.01 153.898C122.454 154.293 122.861 154.655 123.205 155.161C123.48 155.671 123.858 156.141 124.368 156.462C124.877 156.783 125.448 156.961 126.045 156.961C126.641 156.962 127.225 156.753 127.694 156.375C128.632 155.62 129.164 154.502 129.379 153.367C129.557 152.2 129.558 151.007 129.317 149.864C129.146 148.717 128.345 147.606 127.166 147.218C126.878 147.094 126.594 147.04 126.311 146.987C126.027 146.933 125.743 146.879 125.427 146.862C124.863 146.825 124.267 146.824 123.671 146.823C121.36 146.886 118.992 147.163 116.681 147.227C114.337 147.327 112.018 147.25 109.72 146.927C107.422 146.604 105.145 146.034 102.991 145.176C102.453 144.962 101.947 144.71 101.409 144.496C100.903 144.245 100.361 143.96 99.8554 143.709C99.3829 143.421 98.8405 143.136 98.3679 142.848C98.1132 142.687 97.8954 142.56 97.6736 142.362L97.0122 141.839C95.2417 140.328 93.7717 138.554 92.3346 136.744C90.9305 134.896 89.5922 132.974 88.3238 131.049C85.783 127.127 83.4149 123.161 81.1127 119.121C79.2004 115.76 77.325 112.431 75.4826 109.066C77.7196 112.584 80.0594 116.061 82.535 119.46C85.1625 123.06 87.8229 126.624 90.8208 129.958C92.3197 131.625 93.8845 133.218 95.5481 134.7C97.2446 136.145 99.044 137.549 101.165 138.443C105.328 140.097 109.512 141.504 113.766 142.906C115.875 143.591 118.016 144.239 120.154 144.817C121.222 145.106 122.291 145.395 123.36 145.684L124.996 146.08L125.814 146.279L126.204 146.361L126.418 146.419L126.525 146.448C126.562 146.481 126.665 146.44 126.665 146.44C126.628 146.407 126.591 146.374 126.521 146.378C125.683 145.83 124.845 145.283 123.969 144.702C123.497 144.414 123.057 144.088 122.585 143.8L121.27 142.894C119.483 141.7 117.794 140.394 116.073 139.126C114.351 137.858 112.696 136.515 111.007 135.21L106.037 131.114C99.5095 125.564 93.2127 119.755 87.2164 113.684C81.1501 107.617 75.3184 101.36 69.9519 94.6564C67.2706 91.3394 64.7211 87.8746 62.3073 84.3318L60.5382 81.6284C60.3083 81.291 60.1154 80.9865 59.8855 80.6491C57.9651 77.1479 55.9748 73.6508 53.9516 70.1906C51.5795 66.1544 49.1744 62.1552 46.6007 58.2709C44.027 54.3867 41.3504 50.5434 38.2336 46.971C36.8623 45.0863 35.2196 43.3576 33.3133 41.9246ZM80.4628 119.404C82.8349 123.44 85.2728 127.402 87.8466 131.287C89.1519 133.245 90.5231 135.13 91.9602 136.941C93.4343 138.784 94.9742 140.554 96.7447 142.065L97.4431 142.621C97.6649 142.818 97.9526 142.942 98.2073 143.103C98.7168 143.424 99.2223 143.675 99.7647 143.96C100.27 144.211 100.813 144.495 101.351 144.71C101.889 144.924 102.428 145.139 102.966 145.353C105.153 146.174 107.463 146.707 109.761 147.03C112.092 147.316 114.444 147.356 116.751 147.223C119.094 147.122 121.393 146.85 123.737 146.749C124.296 146.717 124.892 146.718 125.493 146.788C125.809 146.805 126.093 146.859 126.339 146.88C126.623 146.933 126.907 146.987 127.194 147.111C128.3 147.433 129.097 148.474 129.268 149.621C129.472 150.732 129.508 151.957 129.326 153.055C129.111 154.189 128.612 155.27 127.744 156.021C127.308 156.362 126.723 156.571 126.164 156.604C125.605 156.636 125.034 156.458 124.524 156.137C124.015 155.816 123.674 155.38 123.399 154.87C123.054 154.363 122.643 153.931 122.237 153.569C121.317 152.815 120.302 152.243 119.254 151.707C118.206 151.171 117.162 150.706 116.019 150.351C113.775 149.744 111.469 149.281 109.196 148.781C108.131 148.562 107.062 148.273 106.031 148.017C102.792 146.59 99.8339 144.552 97.1433 142.287C95.6316 141.007 94.2227 139.686 92.8428 138.257C91.4628 136.829 90.1528 135.397 88.9086 133.891C83.7591 127.911 79.3464 121.327 75.1722 114.624C73.0831 111.238 71.1338 107.844 69.3162 104.302C68.4095 102.566 67.5686 100.756 66.7277 98.9455C65.8868 97.1354 65.0829 95.3582 64.3119 93.5441C61.7361 87.8014 59.1603 82.0586 56.6504 76.2419C57.824 78.3484 59.0346 80.4878 60.2082 82.5943C64.7467 90.7487 69.1124 98.9481 73.651 107.102C75.7885 111.328 78.0907 115.368 80.4628 119.404ZM65.9075 89.5946C67.1308 91.3475 68.4899 93.0225 69.8161 94.7344C75.1497 101.475 80.7509 107.99 86.7513 114.131C92.7187 120.31 99.1184 126.077 105.712 131.553C107.334 132.932 109.093 134.234 110.748 135.576C112.469 136.844 114.158 138.149 115.916 139.451C117.671 140.682 119.392 141.95 121.245 143.071L122.593 143.94C123.065 144.228 123.468 144.52 123.973 144.772C124.808 145.25 125.712 145.724 126.62 146.267L126.406 146.21L126.015 146.127L125.197 145.929L123.594 145.495C122.526 145.206 121.453 144.847 120.417 144.521C118.309 143.836 116.2 143.151 114.087 142.397C109.899 140.92 105.74 139.337 101.647 137.679C99.6698 136.846 97.9403 135.438 96.3137 133.989C94.6871 132.54 93.1552 130.91 91.7262 129.239C88.7982 125.901 86.1048 122.375 83.5143 118.807C78.3621 111.565 73.6173 104.089 69.0042 96.4645C68.1875 95.0739 67.3708 93.6832 66.5582 92.3624C65.1096 89.7458 63.731 87.1251 62.2824 84.5085C62.8242 85.389 63.4688 86.2285 64.1134 87.068L65.9075 89.5946ZM37.7026 47.4926C40.7455 50.9991 43.3851 54.8094 45.9588 58.6937C49.2672 63.763 52.337 68.9512 55.3739 74.1764C56.3902 77.2038 57.5424 80.1531 58.7315 83.1354C60.2405 86.8006 61.8195 90.4617 63.5671 94.0079C65.3148 97.5541 67.1653 101.059 69.0487 104.528C70.8992 108.033 72.7497 111.538 74.703 115.002C76.6564 118.466 78.6756 121.857 80.9005 125.165C82.0129 126.819 83.1583 128.436 84.3366 130.016C85.5149 131.597 86.7631 133.173 88.0772 134.675C90.7054 137.679 93.4982 140.499 96.6573 142.982C99.0811 144.876 101.703 146.548 104.505 147.719C103.794 147.55 103.153 147.376 102.475 147.17C97.9862 145.956 93.5514 144.459 89.2113 142.78C84.9041 141.065 80.6877 139.099 76.566 136.952C74.5361 135.807 72.4773 134.769 70.5092 133.48C69.5272 132.87 68.5123 132.297 67.5632 131.651L64.646 129.715C63.664 129.105 62.7109 128.389 61.7947 127.705L58.9764 125.659L56.2568 123.501L54.8971 122.422L54.1987 121.867L53.5332 121.274C46.3855 115.304 39.7976 108.706 33.8476 101.615L31.6221 98.9025C30.9036 97.9972 30.1151 97.0958 29.4665 96.1864L25.254 90.6433L21.2761 84.9114C20.5905 83.969 20.0077 82.9857 19.3551 82.0064L17.4669 79.0644C12.5581 71.1769 8.0525 62.9855 4.16395 54.5482L2.65018 51.4093C2.13328 50.352 1.71921 49.2537 1.23928 48.2294L-1.51666 41.7956C-2.37773 39.6361 -3.20585 37.4395 -4.02995 35.3128L-5.3051 32.055C-5.7521 30.9937 -6.06333 29.8544 -6.47739 28.7561C-8.16659 24.4 -10.4399 20.2529 -13.351 16.5985C-13.7288 16.1293 -14.0696 15.6931 -14.4803 15.2609L-15.6754 13.9973C-16.4598 13.1659 -17.2482 12.2645 -17.8969 11.3551C-18.2377 10.9189 -18.5126 10.4088 -18.7875 9.89861C-19.0624 9.38846 -19.2674 8.87428 -19.3696 8.31909C-19.4187 8.07644 -19.4348 7.79683 -19.3441 7.54611C-19.2863 7.33237 -19.1586 7.1146 -18.9939 6.92975C-18.6276 6.593 -18.0724 6.49081 -17.5461 6.4955C-16.4236 6.50086 -15.318 6.8228 -14.2452 7.18171C-13.1725 7.54061 -12.0916 8.03932 -11.1466 8.616C-10.8918 8.77664 -10.6411 8.86736 -10.4193 9.06497L-9.72496 9.55092C-9.2484 9.90917 -8.77586 10.1975 -8.33224 10.5927L-6.97248 11.6715L-5.67857 12.8242C-2.17057 15.8831 1.17278 19.1268 4.61492 22.2596C11.4992 28.5252 18.6879 34.5979 26.9144 39.2079L30.0581 40.8149C31.069 41.3177 32.0141 41.8944 32.9302 42.5779C34.5609 44.097 36.1297 45.7598 37.7026 47.4926Z" fill="#FFFDFB"/>
  <path d="M136.872 76.8936C135.279 75.4411 133.489 74.2643 131.6 73.1914C130.672 72.6377 129.713 72.1863 128.721 71.7696L127.25 71.1611C126.771 70.9693 126.259 70.8121 125.712 70.6219C123.698 69.9586 121.586 69.4669 119.444 69.1454C115.195 68.5355 110.926 68.5019 106.635 68.9769C102.377 69.4173 98.1978 70.3301 94.1294 71.6128C92.0779 72.2377 90.0973 72.9964 88.1183 73.8228C86.1394 74.6492 84.2313 75.6094 82.4289 76.7364L79.7261 78.4609C79.2586 78.743 78.8257 79.0583 78.3928 79.3735C78.1599 79.5484 77.96 79.6887 77.7996 80.0651C77.7367 80.2699 77.7746 80.4384 77.8455 80.5722C77.9165 80.706 77.9875 80.8398 78.0237 80.9406C78.2712 81.3751 78.4196 81.9135 78.4986 82.3859C78.5793 82.926 78.7953 83.4629 79.0775 83.9304C79.7096 84.8639 80.639 85.4853 81.4661 86.0754C82.3279 86.6984 83.2558 87.2522 83.9177 88.0155C84.2659 88.4137 84.4127 88.8845 84.6948 89.352C84.944 89.8542 85.1915 90.2887 85.5414 90.7546C85.8566 91.1875 86.3056 91.5494 86.7861 91.809C87.2665 92.0685 87.8131 92.2587 88.3564 92.3135C88.8667 92.4029 89.4431 92.4231 89.9848 92.4101L90.3911 92.4004L90.7643 92.4254C91.0021 92.4536 91.2746 92.5148 91.514 92.6107C92.5378 92.9251 93.4641 93.4111 94.3903 93.8971C95.2835 94.4178 96.2114 94.9716 97.1062 95.56C98.8959 96.7368 100.585 97.9499 102.308 99.1961C105.689 101.758 109.006 104.456 112.156 107.261C115.34 110.098 118.456 112.937 121.309 116.053C122.005 116.85 122.667 117.613 123.264 118.513C123.827 119.381 124.324 120.317 124.82 121.254C125.814 123.127 126.673 125.072 127.533 127.016C130.936 134.76 133.939 142.785 137.175 150.635C140.411 158.485 143.75 166.366 147.556 173.965C148.516 175.873 149.51 177.746 150.503 179.62C150.999 180.556 151.597 181.457 152.127 182.359L152.938 183.728C153.221 184.196 153.536 184.629 153.851 185.061C156.206 188.63 159.028 191.916 162.213 194.754C165.397 197.591 169.011 199.978 172.914 201.714C174.866 202.582 176.849 203.348 178.864 204.011C180.878 204.674 182.926 205.303 184.844 206.206C185.932 206.383 186.984 206.459 188.032 206.333C188.572 206.252 189.112 206.172 189.616 205.99C190.119 205.809 190.585 205.459 190.878 204.944C191.042 204.703 191.104 204.498 191.303 204.29C191.468 204.117 191.737 204.042 191.972 203.935C192.477 203.822 192.984 203.776 193.493 203.797C194.545 203.874 195.565 204.053 196.622 204.332C197.644 204.579 198.635 204.928 199.628 205.345C200.106 205.536 200.62 205.761 201.033 206.023C201.17 206.087 201.239 206.153 201.308 206.219C201.447 206.351 201.584 206.416 201.754 206.446C202.061 206.54 202.365 206.499 202.634 206.425C203.173 206.276 203.71 206.06 204.141 205.677C204.574 205.362 205.002 204.844 205.055 204.233C205.082 203.927 204.938 203.592 204.763 203.359C204.588 203.126 204.347 202.962 204.106 202.799C203.865 202.635 203.626 202.539 203.352 202.41L202.632 202.055C200.812 201.048 199.023 199.871 197.299 198.625C195.543 197.414 193.852 196.133 192.195 194.817C188.847 192.221 185.563 189.488 182.413 186.683C181.651 185.956 180.855 185.264 180.092 184.537C179.711 184.173 179.33 183.81 178.949 183.446L177.871 182.286C177.697 182.121 177.522 181.888 177.382 181.688L176.894 181.09L176.405 180.492C176.265 180.292 176.09 180.059 175.95 179.859L175.072 178.559L174.327 177.188C174.22 176.953 174.08 176.753 173.938 176.486L173.616 175.782L172.938 174.341C172.543 173.368 172.147 172.395 171.784 171.388C171.421 170.38 171.093 169.406 170.763 168.363C170.468 167.354 170.105 166.346 169.843 165.303C168.696 161.231 167.682 157.088 166.636 152.98C165.589 148.873 164.543 144.765 163.461 140.624L160.118 128.305C159.037 124.164 157.991 120.056 156.944 115.948C155.897 111.84 154.816 107.699 153.533 103.631C152.251 99.5623 150.799 95.5318 148.811 91.7174C146.823 87.903 144.367 84.3707 141.413 81.223L139.123 78.9741C138.742 78.6105 138.361 78.247 137.912 77.8851L136.872 76.8936ZM138.082 150.308L133.294 138.464C131.709 134.505 130.091 130.58 128.372 126.691C127.512 124.747 126.585 122.804 125.592 120.931C125.095 119.994 124.531 119.059 123.934 118.159C123.336 117.258 122.638 116.394 121.908 115.632C118.988 112.518 115.837 109.646 112.587 106.878C109.82 104.505 107.022 102.234 104.125 100.067C106.694 101.259 109.164 102.556 111.536 104.023C114.321 105.752 116.943 107.722 119.399 109.866C121.856 112.009 124.048 114.43 126.075 117.024C128.101 119.618 130.128 122.212 132.021 124.876C132.934 126.21 133.815 127.645 134.427 129.155C135.039 130.665 135.381 132.249 135.726 133.901C136.312 137.173 137.235 140.369 138.224 143.496C139.214 146.623 140.271 149.748 141.395 152.872C141.974 154.416 142.52 155.995 143.132 157.505C143.638 158.848 144.178 160.156 144.752 161.498C145.082 163.997 145.548 166.492 146.115 168.952C143.258 162.787 140.637 156.582 138.082 150.308ZM138.732 79.5932L140.953 81.8437C143.839 84.9253 146.26 88.4246 148.178 92.1729C150.097 95.9212 151.547 99.884 152.83 103.952C154.078 107.988 155.091 112.13 156.138 116.238C157.151 120.381 158.198 124.489 159.312 128.595L162.688 140.879C163.803 144.986 164.849 149.093 165.896 153.201C166.942 157.309 167.956 161.452 169.206 165.555C169.501 166.564 169.83 167.606 170.125 168.616C170.421 169.625 170.818 170.666 171.146 171.64C171.509 172.648 171.94 173.654 172.335 174.627L173.013 176.067L173.37 176.804C173.477 177.039 173.652 177.272 173.759 177.506L174.538 178.91L175.451 180.244C175.626 180.477 175.733 180.711 175.941 180.909L176.464 181.541L176.987 182.172C177.162 182.405 177.302 182.605 177.51 182.803L178.656 183.961C179.004 184.359 179.419 184.688 179.8 185.052C180.563 185.779 181.358 186.471 182.189 187.197C185.406 189.999 188.689 192.733 192.103 195.26C193.794 196.541 195.518 197.787 197.274 198.998C199.031 200.21 200.82 201.387 202.708 202.392L203.427 202.747C203.667 202.843 203.906 202.939 204.113 203.07C204.525 203.331 204.907 203.694 204.849 204.102C204.825 204.543 204.497 204.957 204.097 205.238C203.732 205.552 203.229 205.801 202.792 205.913C202.555 205.952 202.319 205.992 202.081 205.964C201.979 205.932 201.877 205.901 201.807 205.835C201.703 205.735 201.566 205.671 201.462 205.572C200.982 205.312 200.468 205.087 199.989 204.896C198.964 204.514 197.94 204.199 196.918 203.953C195.896 203.706 194.808 203.529 193.723 203.487C193.181 203.5 192.639 203.513 192.101 203.661C191.832 203.735 191.597 203.843 191.331 204.052C191.098 204.227 191.004 204.534 190.873 204.741C190.647 205.186 190.214 205.502 189.745 205.716C189.275 205.931 188.735 206.011 188.195 206.092C187.148 206.218 186.063 206.177 185.043 205.998C183.122 205.027 181.075 204.399 179.093 203.701C177.077 202.97 175.094 202.204 173.175 201.301C169.338 199.496 165.825 197.073 162.675 194.268C159.559 191.429 156.804 188.141 154.484 184.606C154.169 184.173 153.853 183.74 153.606 183.306L152.794 181.936C152.688 181.769 152.548 181.569 152.476 181.368C151.441 179.191 150.44 176.979 149.64 174.694C148.697 172.074 147.889 169.451 147.282 166.756C146.676 164.06 146.17 161.328 145.903 158.624L145.776 157.577C145.768 157.239 145.725 156.867 145.684 156.563L145.533 154.5C145.501 153.146 145.399 151.726 145.435 150.37C145.452 149.658 145.435 148.981 145.487 148.302L145.607 146.233C145.658 145.554 145.71 144.875 145.795 144.162L145.906 143.143L146.017 142.124C146.136 141.444 146.188 140.765 146.307 140.085L146.665 138.043C146.903 136.683 147.277 135.319 147.618 133.989C149.015 128.638 150.887 123.342 151.5 117.772C151.67 116.413 151.704 114.989 151.705 113.6C151.638 112.213 151.536 110.792 151.334 109.408C151.131 108.024 150.794 106.643 150.423 105.297C150.052 103.951 149.613 102.606 149.074 101.298C148.063 98.6799 146.817 96.1689 145.438 93.7289C144.058 91.2888 142.512 88.9544 140.799 86.7256C137.44 82.2664 133.515 78.1933 128.899 74.9836C126.591 73.3787 124.121 72.0827 121.522 71.0607C118.923 70.0387 116.164 69.3931 113.414 69.1539L113.383 69.2562C118.888 70.0056 124.027 72.3898 128.474 75.6374C130.715 77.2438 132.791 79.0913 134.668 81.0791C136.578 83.0322 138.39 85.157 140.001 87.3544C141.679 89.5502 143.158 91.8862 144.536 94.2585C145.913 96.6309 147.192 99.1072 148.202 101.658C149.211 104.208 150.019 106.831 150.524 109.563C150.76 110.913 150.895 112.298 150.995 113.651C151.027 115.005 151.026 116.394 150.923 117.752C150.684 120.501 150.139 123.224 149.457 125.883C148.776 128.542 147.993 131.237 147.243 133.897C145.779 139.25 144.759 144.763 144.622 150.389C144.554 151.78 144.621 153.167 144.655 154.589C144.756 156.01 144.789 157.364 144.991 158.748C145.295 161.552 145.834 164.25 146.475 166.978L146.997 168.998L147.62 170.982C147.84 171.654 148.059 172.327 148.311 172.964C148.564 173.602 148.783 174.274 149.035 174.912L149.86 176.823C149.933 177.025 150.004 177.159 150.109 177.325C149.436 176.088 148.796 174.816 148.156 173.544C147.514 172.204 146.874 170.932 146.232 169.593C145.257 164.229 144.654 158.824 144.559 153.44C144.389 147.719 144.691 141.919 144.859 136.19C145.06 130.426 145.091 124.632 144.751 118.881C144.649 117.461 144.546 115.973 144.376 114.554C144.24 113.101 144.071 111.682 143.799 110.232C143.562 108.815 143.223 107.366 142.784 106.021C142.344 104.609 141.77 103.268 141.095 101.963C139.712 99.3873 137.895 97.0594 135.881 95.0071C133.866 92.8871 131.72 90.9736 129.574 89.06C127.395 87.181 125.115 85.3384 122.605 83.8061C120.096 82.2738 117.391 81.085 114.627 80.2363C109.062 78.4382 103.254 77.7977 97.4856 77.3933C96.0604 77.2918 94.6021 77.225 93.1439 77.1582C91.6856 77.0914 90.262 77.0576 88.8053 77.0585C87.3487 77.0594 85.8936 77.128 84.4451 77.4674C83.7381 77.6537 83.0312 77.84 82.3605 78.127C81.6898 78.414 81.0538 78.7341 80.4541 79.1549L80.5234 79.221C81.1578 78.8332 81.7938 78.5131 82.4661 78.2938C83.1384 78.0745 83.8453 77.8883 84.5539 77.7697C85.971 77.5327 87.393 77.4987 88.8513 77.5655C90.2749 77.5993 91.7348 77.7338 93.16 77.8353L97.4703 78.1728C100.355 78.4089 103.209 78.7473 105.998 79.2227C108.822 79.7312 111.648 80.3074 114.346 81.2254C115.028 81.4124 115.678 81.7018 116.362 81.9564C117.046 82.2111 117.696 82.5005 118.347 82.7898C118.964 83.1139 119.648 83.3686 120.232 83.7272C120.85 84.0513 121.502 84.4084 122.086 84.767C124.527 86.2332 126.805 88.0081 128.982 89.8193C131.161 91.6983 133.34 93.5772 135.354 95.6295C137.368 97.6817 139.25 99.8727 140.664 102.346C142.078 104.819 142.957 107.576 143.498 110.408C144.04 113.241 144.278 116.115 144.448 118.99C144.619 121.866 144.586 124.746 144.485 127.628C144.385 130.51 144.216 133.393 144.116 136.275C144.015 139.157 143.847 142.04 143.781 144.955C143.748 147.836 143.75 150.749 143.852 153.626C143.944 156.029 144.17 158.429 144.498 160.792C142.631 154.976 140.73 149.127 138.931 143.309C137.975 140.148 136.986 137.021 136.198 133.822C135.788 132.239 135.308 130.591 134.628 129.083C133.982 127.54 133.135 126.137 132.221 124.736C131.307 123.335 130.394 122.002 129.48 120.601C128.566 119.2 127.653 117.867 126.605 116.537C124.644 113.873 122.449 111.317 119.958 109.141C117.465 106.897 114.71 104.998 111.826 103.373C109.113 101.845 106.306 100.625 103.403 99.6442C103.093 99.4145 102.782 99.1848 102.507 98.9881C100.783 97.7419 99.0595 96.4958 97.2698 95.319C97.2005 95.2529 97.1328 95.2545 97.0635 95.1884C97.7357 94.9691 98.4855 95.1544 99.0699 95.5131C99.4133 95.7082 99.7237 95.9379 100.067 96.133C100.377 96.3627 100.756 96.5908 101.099 96.7859C102.506 97.5314 104.01 98.1053 105.513 98.6115C107.015 99.1176 108.452 99.6931 109.89 100.336C111.328 100.979 112.7 101.692 114.041 102.507C115.381 103.322 116.722 104.137 117.963 105.056C119.238 105.94 120.448 106.961 121.658 107.982C124.01 110.027 126.265 112.242 128.289 114.701C130.278 117.127 132.035 119.795 133.457 122.606C134.913 125.383 136.201 128.266 137.421 131.15C137.71 131.888 138.032 132.592 138.253 133.332C138.474 134.072 138.662 134.847 138.882 135.587L140.043 140.2C140.452 141.715 140.827 143.264 141.371 144.776C141.627 145.549 141.916 146.287 142.237 146.991C142.559 147.695 142.95 148.464 143.505 148.993L143.571 148.924C143.049 148.36 142.726 147.589 142.472 146.884C142.183 146.145 141.962 145.405 141.741 144.665C141.333 143.151 140.957 141.601 140.616 140.085L139.624 135.434C139.436 134.659 139.248 133.884 139.06 133.11C138.838 132.302 138.549 131.564 138.261 130.825C137.683 129.348 137.038 127.873 136.327 126.467C135.616 125.062 134.837 123.657 133.993 122.323C133.181 120.953 132.303 119.653 131.39 118.319C130.512 117.019 129.6 115.686 128.588 114.457C126.698 111.927 124.607 109.47 122.286 107.324C119.897 105.179 117.411 103.206 114.629 101.612C113.221 100.799 111.781 100.088 110.31 99.4794C108.839 98.8708 107.301 98.3316 105.8 97.8932C104.299 97.4548 102.765 97.051 101.36 96.3731C100.984 96.2127 100.675 96.0507 100.332 95.8557C99.9881 95.6606 99.6447 95.4655 99.3013 95.2705C98.9248 95.1101 98.5483 94.9497 98.1074 94.9263C97.7341 94.9014 97.3625 94.9441 97.0288 95.1553C96.238 94.6661 95.4471 94.1768 94.5886 93.6892C93.6277 93.1701 92.7014 92.684 91.6776 92.3697C91.4052 92.3085 91.1657 92.2125 90.8602 92.186L90.4193 92.1626L90.013 92.1723C89.4713 92.1852 88.9626 92.1635 88.4523 92.0741C87.3987 91.9298 86.4394 91.4785 85.8436 90.6458C85.4954 90.2476 85.2809 89.7784 85.0334 89.3439C84.9262 89.1094 84.819 88.8748 84.6771 88.6072L84.4989 88.2388L84.22 87.9067C83.4888 87.0772 82.5939 86.4888 81.6991 85.9004C80.8373 85.2773 79.9756 84.6543 79.3798 83.8216C79.0646 83.3887 78.9178 82.9179 78.8388 82.4456C78.7582 81.9055 78.6098 81.367 78.3607 80.8648C78.2534 80.6302 78.0785 80.3973 78.143 80.2602C78.1728 80.0901 78.4058 79.9152 78.6057 79.7749C79.0385 79.4597 79.4384 79.1791 79.9059 78.897L82.6087 77.1725C84.4111 76.0455 86.2861 75.1199 88.2651 74.2935C90.244 73.4671 92.1916 72.7432 94.2431 72.1183C98.2784 70.8702 102.459 70.0251 106.682 69.5517C110.872 69.1129 115.176 69.1795 119.325 69.8258C121.399 70.1489 123.478 70.6752 125.425 71.3401C125.903 71.532 126.415 71.6891 126.894 71.881L128.365 72.4895C129.325 72.9409 130.284 73.3922 131.177 73.9129C132.998 74.9874 134.72 76.1658 136.278 77.5853L137.488 78.6066C137.969 78.8661 138.383 79.195 138.732 79.5932Z" fill="#FFFDFB"/>
</svg>
