<svg width="328" height="459" viewBox="0 0 328 459" fill="none"
  xmlns="http://www.w3.org/2000/svg">
  <path d="M298.903 209.613C296.717 207.271 295.468 204.148 294.531 201.025C293.75 197.902 293.281 194.779 292.969 191.5C292.501 185.098 292.501 178.696 292.813 172.294C293.281 159.49 294.531 146.842 294.062 134.038C293.75 127.636 292.969 121.234 290.002 115.613C287.348 109.835 285.63 103.59 284.381 97.1876C283.757 94.0647 283.288 90.9417 282.664 87.8188C282.195 84.6959 281.571 81.573 280.478 78.6062C280.165 77.8255 279.853 77.2009 279.541 76.4201C279.072 75.7956 278.916 75.0148 278.291 74.5464L277.667 73.6095L276.886 72.6726C276.418 72.0481 275.949 71.4235 275.481 70.6427C273.607 67.9883 272.046 65.3338 270.172 62.6793C263.145 52.0613 255.338 42.068 246.125 33.3238C236.913 24.5796 226.607 17.0846 215.052 11.9318C203.81 6.93511 191.318 3.96833 178.67 3.1876C177.109 3.03145 175.547 3.03145 174.142 3.1876C173.83 3.1876 173.361 3.1876 173.049 3.34375C172.737 3.34375 172.424 3.49989 172.424 3.49989C172.424 3.49989 172.737 3.34375 172.737 2.87531C172.737 2.56302 172.581 2.56302 172.737 2.56302L172.893 2.71916L173.049 2.87531C173.205 3.03145 173.205 3.03145 173.361 3.1876C173.517 3.34375 173.674 3.65604 173.674 3.81219C173.83 4.28062 173.674 4.74906 173.361 5.06135C173.049 5.52979 172.893 5.37365 172.737 5.52979C172.581 5.68594 172.581 5.68594 172.424 5.68594C172.268 5.84209 172.112 5.84208 171.956 5.84208C171.644 5.84208 171.488 5.84208 171.175 5.84208C170.707 5.84208 170.238 5.84208 169.926 5.84208C169.145 5.84208 168.208 5.84209 167.428 5.68594L162.587 5.37365C156.185 4.90521 149.939 4.59292 143.537 4.59292C140.414 4.59292 137.291 4.90521 134.169 5.37365C132.607 5.68594 131.202 5.99823 129.953 6.62282C129.328 6.93511 128.703 7.2474 128.235 7.71584C127.767 8.02813 127.298 8.80886 126.83 9.43345C124.8 11.9318 122.458 14.274 120.115 16.46C118.866 17.553 117.617 18.6461 116.212 19.5829C115.431 20.0514 114.65 20.5198 113.87 20.8321C112.933 21.1444 111.996 21.3006 110.747 21.1444C110.122 20.9883 109.81 20.8321 109.497 20.676L108.404 20.2075L106.218 19.2707C104.813 18.6461 103.252 18.0215 101.846 17.553C98.8796 16.46 95.9128 15.5231 92.7898 14.7424C89.8231 14.1178 86.7001 13.4932 83.7334 13.9617C82.3281 14.274 81.0789 14.7424 80.4543 15.8354C80.2981 15.9916 80.2981 16.1477 80.2981 16.3039L79.9859 16.9285C79.6736 17.553 79.049 18.0215 78.4244 18.1776C77.3314 18.4899 76.5506 18.4899 75.6138 18.4899C73.8961 18.4899 72.3347 18.3338 70.7732 18.3338C69.2118 18.3338 67.6503 18.3338 66.7135 18.9584C66.4012 19.2707 66.245 19.5829 66.245 20.2075C66.245 20.8321 66.4011 21.6128 66.4011 22.3936C66.5573 23.955 66.8696 25.5165 67.1819 27.078C67.8065 30.2009 68.2749 33.3238 68.7433 36.6029C68.8995 38.1643 69.0556 39.8819 69.0556 41.5996C69.0556 42.068 69.0556 42.5364 68.8995 43.0049C68.7433 43.4733 68.5872 44.0979 67.9626 44.5663C67.8065 44.7225 67.6503 44.8786 67.338 44.8786C67.1819 44.8786 67.1819 44.8786 67.0257 44.8786H66.8696C66.7134 44.8786 66.7134 44.8786 66.5573 45.0348C66.245 45.1909 65.9327 45.3471 65.6204 45.5032C63.1221 47.2208 60.7799 49.563 58.4377 51.5929C56.0955 53.779 53.9095 55.965 51.0988 57.8388L50.4742 58.151C50.3181 58.3072 50.0058 58.3072 49.8496 58.4633C49.2251 58.6195 48.9128 58.6195 48.4443 58.6195H46.1021H41.2616C38.1387 58.6195 34.8596 58.7756 31.7367 58.9318C28.6138 59.2441 25.4908 59.5564 22.3679 60.3371C20.9626 60.8055 19.4011 61.4301 18.4643 62.367C17.3712 63.6162 16.1221 64.7092 14.8729 65.6461C12.3746 67.676 9.7201 69.3936 7.22176 71.2673C6.59718 71.7358 5.97259 72.2042 5.50415 72.8288C5.03571 73.2972 4.41114 73.9218 4.255 74.5464C4.09885 74.8587 4.09885 75.0148 4.255 75.171C4.41114 75.4833 4.56727 75.9517 4.72342 76.264C5.03571 77.0447 5.34801 77.8255 5.6603 78.45C7.84635 84.5397 9.72011 90.4733 12.0623 96.4068C12.6869 97.8122 13.3114 99.3736 13.936 100.779C14.2483 101.404 14.5606 102.184 15.0291 102.809C15.1852 103.121 15.4975 103.433 15.6536 103.59C15.8098 103.746 15.9659 103.902 16.1221 104.058C16.2782 104.214 16.4344 104.37 16.5905 104.839C16.5905 104.995 16.4344 105.463 16.2782 105.463C16.1221 105.619 15.9659 105.619 15.8098 105.776C15.4975 105.776 15.3414 105.932 15.1852 105.932C14.7168 105.932 14.4045 106.088 13.936 106.088C13.1553 106.088 12.3746 106.244 11.5938 106.244C10.0324 106.4 8.47093 106.712 7.22176 107.337C6.59718 107.649 6.12875 108.274 5.81646 108.899C5.66031 109.211 5.50415 109.523 5.50415 109.835C5.50415 110.304 5.34798 110.616 5.19184 111.085C5.03569 111.553 4.87954 112.021 4.4111 112.334C3.94267 112.802 3.16194 112.646 2.84964 112.49C2.3812 112.334 2.06894 112.178 1.75665 112.021C1.6005 112.021 1.44434 111.865 1.44434 111.865C1.44434 111.865 1.44434 111.865 1.44434 112.021C1.28819 112.49 1.28818 113.427 1.28818 114.208C1.28818 114.988 1.44435 115.769 1.60049 116.55L2.06891 118.892L2.69354 121.234C4.41114 127.324 6.75332 133.257 9.4078 139.035C12.0623 144.812 15.029 150.433 18.4643 155.742C21.8995 161.051 25.9593 166.048 30.9559 169.952L31.1121 170.108V170.264C34.3912 179.008 38.7633 187.284 43.9161 194.935C49.0689 202.742 55.0025 209.769 62.0291 216.015C65.4643 219.138 69.2118 221.792 73.1154 224.291C74.9892 225.54 77.1752 226.633 79.2051 227.726C81.3912 228.663 83.4211 229.756 85.6071 230.38C94.1951 233.659 103.564 234.908 112.777 234.752H113.089L113.401 234.908C118.866 238.5 125.268 241.154 131.67 243.028C134.949 243.965 138.228 244.59 141.507 245.058C144.787 245.526 148.066 245.683 151.657 245.995C158.527 246.776 165.242 248.805 171.644 251.304C178.046 253.802 184.135 257.081 190.069 260.516C193.036 262.234 195.846 264.108 198.813 265.825C201.78 267.543 204.59 269.261 207.557 270.978C213.491 274.257 219.424 277.38 225.67 279.879C231.916 282.533 238.318 284.563 244.876 285.968C251.434 287.217 258.149 287.842 264.551 286.281C265.331 286.124 266.112 285.812 266.893 285.656C267.986 285.344 269.079 285.344 270.016 285.344C271.889 285.5 273.763 285.968 275.325 286.593C278.76 287.842 281.727 289.872 284.537 291.902C287.348 293.932 289.846 296.43 292.345 298.616C294.843 300.802 297.497 302.676 300.464 304.237C301.87 305.018 303.431 305.643 304.992 306.267C306.554 306.892 308.115 307.36 309.833 308.141C310.77 308.609 311.551 309.234 312.331 310.015C313.112 310.952 313.581 311.889 313.737 312.825C314.049 313.762 314.205 314.699 314.361 315.636C314.517 316.573 314.517 317.51 314.517 318.447C314.361 320.164 314.517 321.413 314.986 322.975C315.454 324.38 316.079 325.942 316.86 327.347C318.421 330.158 320.763 332.5 322.949 335.154C324.042 336.56 325.135 337.965 325.916 339.683C326.072 340.151 326.228 340.619 326.384 341.088C326.541 341.556 326.697 342.025 326.853 342.493C327.009 342.962 327.009 343.43 327.165 343.898L327.321 345.148C327.477 346.553 327.946 347.802 329.039 348.739C329.976 349.676 331.537 350.457 333.099 351.706C333.879 352.33 334.504 353.111 335.129 354.048C335.597 354.985 335.909 355.922 336.222 357.015C336.378 357.952 336.378 358.889 336.534 359.825C336.534 360.762 336.534 361.543 336.534 362.48C336.378 366.071 335.909 369.35 336.222 372.317C336.378 373.879 336.846 375.284 337.471 376.845L337.939 377.938C338.095 378.407 338.252 378.719 338.564 379.188L339.501 381.53C340.75 384.653 341.843 387.932 343.092 391.055L349.962 410.261C354.647 423.065 359.175 435.869 364.484 448.204C365.109 449.766 365.889 451.327 366.67 452.732C366.982 453.357 367.451 454.138 367.919 454.606L368.076 454.762C368.076 454.762 368.076 454.918 368.076 454.762C368.076 454.762 367.919 454.606 367.763 454.606C367.607 454.606 367.607 454.606 367.295 454.606C367.139 454.606 366.826 454.762 366.826 454.762C366.67 454.762 366.67 454.918 366.514 455.075C366.514 455.231 366.514 455.075 366.514 455.231C366.514 455.231 366.514 455.231 366.514 455.075L366.67 454.45C367.451 451.483 367.451 448.048 367.607 444.613C367.607 441.178 367.451 437.898 367.607 434.307C367.607 433.37 367.763 432.589 367.763 431.653C367.919 430.716 367.919 429.779 368.544 428.686C368.7 428.374 368.856 428.061 369.169 427.749C369.325 427.593 369.481 427.437 369.637 427.281C369.793 427.124 369.793 427.124 369.949 427.124C370.418 426.812 370.73 426.656 371.042 426.5C371.823 426.031 372.604 425.719 373.228 425.251C374.634 424.47 375.727 423.377 375.57 422.596C375.57 422.128 375.414 421.659 374.946 421.035C374.477 420.41 373.853 419.473 373.541 418.692C371.823 415.57 370.418 412.603 368.856 409.48C365.889 403.39 363.079 397.144 360.268 390.898C357.458 384.653 354.803 378.407 352.149 372.161L348.089 362.792C346.84 359.513 345.747 356.234 344.966 352.955C344.029 349.676 343.404 346.397 342.311 343.118C341.843 341.556 341.218 339.995 340.594 338.433C339.969 337.028 339.188 335.31 338.564 333.749L334.973 325.005C333.723 321.882 332.318 318.759 330.6 315.948C329.82 314.543 328.727 313.138 327.478 312.201C327.165 311.889 326.853 311.732 326.541 311.576C326.228 311.42 325.916 311.264 325.448 310.952C324.511 310.483 323.886 309.859 323.418 309.078C321.388 306.111 320.295 302.832 319.202 299.709C318.109 296.43 317.016 293.307 315.923 290.028C314.673 286.905 313.424 283.782 311.238 281.128C310.77 280.503 310.145 279.879 309.521 279.41C308.896 278.942 308.115 278.473 307.491 277.849C306.085 276.756 304.836 275.663 303.587 274.413C301.089 272.071 298.903 269.417 297.029 266.606C296.092 265.201 295.155 263.796 294.531 262.078C293.906 260.516 293.125 258.799 293.438 257.081C293.594 256.144 293.906 255.364 294.218 254.583L295.311 252.241L297.497 247.556C300.308 241.31 302.806 235.065 303.743 228.35C304.212 225.071 304.212 221.636 303.587 218.201C302.806 215.078 301.245 211.955 298.903 209.613ZM299.059 209.3C301.401 211.799 302.963 214.922 303.743 218.357C304.524 221.636 304.368 225.227 303.899 228.506C302.963 235.221 300.464 241.779 297.654 248.025L295.468 252.709L294.375 255.051C294.062 255.832 293.594 256.613 293.594 257.394C293.438 258.955 294.062 260.673 294.687 262.078C295.311 263.639 296.248 265.045 297.185 266.45C299.059 269.261 301.245 271.759 303.743 274.101C304.992 275.35 306.242 276.443 307.491 277.38C308.115 277.849 308.896 278.317 309.521 278.786C310.301 279.254 310.926 279.879 311.551 280.503C313.893 283.158 315.298 286.437 316.547 289.56C317.796 292.683 318.889 295.962 319.983 299.241C321.076 302.364 322.325 305.643 324.198 308.297C324.667 308.922 325.291 309.546 325.916 309.859L327.009 310.483C327.478 310.639 327.79 310.952 328.102 311.264C329.507 312.357 330.6 313.918 331.537 315.324C335.129 321.257 337.315 327.815 339.969 334.061C340.594 335.623 341.374 337.028 342.155 338.746C342.936 340.307 343.404 342.025 344.029 343.586C345.122 346.865 345.903 350.144 346.84 353.423C347.776 356.702 348.713 359.825 350.119 362.948L354.178 372.317L362.61 390.898C365.421 397.144 368.232 403.234 371.198 409.324C372.604 412.29 374.165 415.413 375.727 418.38C376.195 419.161 376.507 419.629 376.976 420.41C377.6 421.191 378.225 422.284 378.225 423.533C378.225 424.938 377.6 426.031 376.82 426.812C376.039 427.593 375.258 428.061 374.477 428.686C373.697 429.154 372.916 429.623 372.135 429.935L371.042 430.56L370.886 430.716C370.886 430.716 370.886 430.716 370.73 430.872C370.574 431.34 370.418 432.121 370.262 432.902C370.105 433.683 370.105 434.463 370.105 435.244C369.949 438.523 370.105 441.958 370.105 445.393C370.105 448.829 370.105 452.264 369.169 455.855L369.012 456.48V456.636L368.856 456.948C368.856 457.104 368.856 457.104 368.7 457.261C368.544 457.417 368.388 457.573 368.232 457.729C367.295 458.51 366.046 457.885 365.889 457.729C365.733 457.573 365.577 457.417 365.421 457.417C365.265 457.261 365.109 457.104 365.109 457.104C364.484 456.324 364.016 455.543 363.547 454.762C362.767 453.201 361.986 451.639 361.205 450.078C358.394 443.832 356.052 437.43 353.554 431.028C351.212 424.626 348.87 418.224 346.527 411.822L339.657 392.616C338.564 389.493 337.315 386.214 336.066 383.091L335.129 380.749C334.972 380.437 334.816 379.968 334.66 379.656L334.036 378.407C333.255 376.689 332.786 374.972 332.474 373.098C332.006 369.35 332.63 365.915 332.63 362.636C332.63 361.855 332.63 361.075 332.63 360.138C332.63 359.357 332.474 358.576 332.474 357.796C332.162 356.39 331.693 355.297 330.6 354.36C329.507 353.423 327.946 352.643 326.384 351.237C324.823 349.832 323.886 347.646 323.73 345.772L323.574 344.523C323.574 344.211 323.418 343.742 323.418 343.43C323.418 343.118 323.262 342.649 323.105 342.337C322.949 342.025 322.793 341.712 322.637 341.244C322.012 339.839 321.076 338.59 319.983 337.34C317.953 334.842 315.298 332.188 313.58 329.065C312.644 327.503 312.019 325.942 311.394 324.068C311.082 323.131 310.926 322.194 310.77 321.257C310.614 320.32 310.77 319.384 310.77 318.447C310.926 316.885 310.614 315.48 310.145 313.918C309.989 313.138 309.677 312.669 309.365 312.201C308.896 311.732 308.428 311.42 307.803 311.108C306.554 310.483 304.836 309.859 303.275 309.234C301.713 308.609 299.996 307.829 298.434 307.048C295.311 305.33 292.501 303.3 289.846 301.114C287.192 298.772 284.85 296.43 282.195 294.4C279.541 292.37 276.73 290.653 273.763 289.403C272.358 288.779 270.796 288.467 269.235 288.31C268.454 288.31 267.83 288.31 267.205 288.467C266.424 288.623 265.487 288.935 264.707 289.091C257.68 290.653 250.654 290.028 243.783 288.623C237.069 287.217 230.511 285.031 224.109 282.221C217.707 279.566 211.617 276.443 205.684 273.008C202.717 271.291 199.75 269.573 196.939 267.855C193.973 266.138 191.162 264.264 188.195 262.546C182.418 259.111 176.484 255.832 170.238 253.334C163.992 250.835 157.59 248.805 150.876 248.025C137.292 247.244 123.394 243.965 111.84 236.158L112.464 236.314C102.939 236.47 93.4144 235.065 84.6703 231.629C82.4842 230.849 80.2981 229.756 78.1121 228.819C76.0822 227.726 73.8962 226.633 72.0224 225.384C67.9626 222.885 64.2151 220.075 60.7799 216.952C53.7533 210.706 47.6636 203.367 42.5108 195.56C37.358 187.752 32.9859 179.32 29.7068 170.42L29.863 170.732C24.7101 166.673 20.8065 161.52 17.2151 156.211C13.7799 150.746 10.8131 145.124 8.15865 139.347C5.50417 133.57 3.31809 127.48 1.44434 121.39L0.819762 119.048L0.351343 116.706C0.195197 115.925 0.0390318 115.144 0.0390318 114.208C0.0390318 113.427 -0.117105 112.646 0.195187 111.553C0.351334 111.241 0.663626 110.928 0.975918 110.928C1.28821 110.928 1.6005 110.928 1.75665 111.085C2.22509 111.241 2.53735 111.397 2.84964 111.553C3.16194 111.709 3.31812 111.709 3.47427 111.553C3.63041 111.397 3.78654 111.085 3.94269 110.772C4.09883 110.46 4.09885 109.992 4.255 109.679C4.255 109.211 4.41111 108.742 4.56726 108.43C4.87955 107.649 5.66029 106.869 6.28488 106.556C7.84634 105.619 9.40781 105.463 11.1254 105.151C11.9061 104.995 12.6869 104.995 13.4676 104.995C13.936 104.995 14.2483 104.995 14.5606 104.839C14.7168 104.839 14.8729 104.839 15.0291 104.683H15.1852V104.839C15.1852 104.995 15.1852 104.839 15.0291 104.683C14.8729 104.526 14.7168 104.526 14.5606 104.214C14.2483 103.902 13.936 103.59 13.7799 103.121C13.3114 102.497 12.9992 101.716 12.5307 100.935C11.75 99.5298 11.1254 97.9683 10.6569 96.563C8.31476 90.6294 6.28489 84.5397 4.09884 78.6062C3.78655 77.8255 3.47425 77.2009 3.16195 76.4201C3.00581 76.1078 2.84968 75.7956 2.69354 75.3271C2.38124 74.8587 2.53739 74.2341 2.69354 73.7657C3.00583 72.8288 3.63041 72.2042 4.255 71.7358C4.87958 71.1112 5.50414 70.6427 6.12872 70.1743C8.62706 68.1444 11.2815 66.4268 13.7799 64.553C15.029 63.6162 16.2782 62.5231 17.2151 61.4301C18.4643 60.0248 20.0257 59.4002 21.5872 58.9318C24.7101 57.9949 27.9892 57.6826 31.1121 57.3703C34.3912 57.058 37.5141 57.058 40.7932 56.9019H45.6337H47.9759C48.2882 56.9019 48.7566 56.9019 48.9128 56.7457H49.0689L49.2251 56.5896L49.6935 56.2773C52.1918 54.5597 54.3779 52.2175 56.7201 50.0314C59.0623 47.8454 61.2483 45.5032 64.059 43.6295C64.3712 43.3172 64.8397 43.161 65.152 43.0049C65.4643 42.8487 65.6204 42.8487 65.9327 42.6926H66.0888C66.0888 42.6926 66.245 42.5364 66.245 42.2241C66.245 41.9118 66.4011 41.5996 66.4011 41.1311C66.4011 39.7258 66.245 38.0082 66.0888 36.6029C65.6204 33.48 64.9958 30.357 64.3713 27.2341C64.059 25.6726 63.7467 24.1112 63.5905 22.5497C63.4344 21.769 63.2782 20.9883 63.2782 20.0514C63.2782 19.5829 63.4344 18.9584 63.5905 18.4899C63.9028 18.0215 64.2151 17.553 64.6835 17.0846C65.6204 16.46 66.5573 16.3039 67.4942 16.1477C68.4311 15.9916 69.2118 15.9916 69.9925 15.9916C71.7101 15.9916 73.2716 16.1477 74.6769 16.1477C75.4576 16.1477 76.2384 15.9916 76.7068 15.8354C76.8629 15.6793 77.0191 15.6793 77.0191 15.6793V15.5231L77.1752 15.2109C77.3314 15.0547 77.3314 14.7424 77.4875 14.5863C77.956 13.8055 78.7367 13.0248 79.6736 12.5564C80.4543 12.0879 81.3912 11.7756 82.3281 11.6195C85.7633 10.9949 89.0423 11.6195 92.3214 12.2441C95.4443 13.0248 98.5673 13.9617 101.69 15.0547C103.252 15.6793 104.657 16.1477 106.218 16.7723L108.404 17.7092L109.497 18.1776C109.81 18.3338 110.278 18.4899 110.434 18.4899C111.215 18.6461 112.62 18.1776 113.87 17.3969C115.119 16.6162 116.368 15.6793 117.461 14.5863C119.803 12.4002 121.833 10.2142 123.863 7.71584C124.331 7.09125 124.8 6.46667 125.581 5.84208C126.361 5.2175 127.142 4.74906 127.923 4.28062C129.484 3.49989 131.202 3.03145 132.763 2.71916C136.042 2.09458 139.321 1.93843 142.444 1.78229C148.846 1.62614 155.248 2.09458 161.65 2.40687L166.335 2.71916C167.115 2.71916 167.896 2.71916 168.677 2.71916C168.989 2.71916 169.458 2.71916 169.77 2.71916C169.926 2.71916 170.082 2.71916 170.238 2.71916H170.394C170.394 2.71916 170.394 2.71916 170.238 2.71916C170.082 2.87531 170.082 2.71916 169.926 3.03145C169.77 3.1876 169.614 3.65604 169.77 4.12448C169.77 4.28062 169.926 4.43677 169.926 4.59292L169.77 4.43677C169.614 4.28062 169.301 4.12448 169.145 3.81219C168.989 3.49989 168.677 3.1876 168.677 2.40687C168.677 1.62614 169.301 1.00155 169.614 0.845409C170.394 0.37697 170.863 0.37697 171.331 0.220824C171.8 0.0646779 172.268 0.0646778 172.737 0.0646778C174.454 -0.0914683 176.172 0.0646779 177.733 0.220824C190.537 1.1577 203.341 4.28062 215.052 9.74574C226.763 15.2109 237.381 22.862 246.594 31.9185C255.806 40.975 263.614 51.2806 270.484 62.0547C272.202 64.7092 273.919 67.5198 275.637 70.1743C276.105 70.7989 276.574 71.4235 277.042 72.048L277.823 72.9849L278.604 73.9218C279.228 74.5464 279.541 75.3271 279.853 76.1078C280.165 76.8886 280.477 77.6693 280.79 78.45C281.883 81.573 282.351 84.6959 282.82 87.975C283.288 91.0979 283.757 94.2208 284.381 97.3437C285.474 103.59 287.192 109.679 289.69 115.613C290.315 117.018 290.939 118.58 291.564 120.141C292.032 121.703 292.501 123.264 292.657 124.825C293.281 127.948 293.438 131.227 293.594 134.35C293.906 147.154 292.657 159.802 292.188 172.606C291.876 179.008 291.72 185.41 292.188 191.656C292.501 194.779 292.813 198.058 293.75 201.025C295.78 203.992 297.029 206.958 299.059 209.3Z" fill="#FFFDFB"/>
  <path d="M32.2052 167.922C29.2384 162.301 27.9892 155.586 28.77 149.184C29.5507 142.782 31.7367 136.536 34.8597 130.915C37.9826 125.294 41.8863 120.141 46.2583 115.457C50.6304 110.772 55.3148 106.4 60.4677 102.497C65.6205 98.5929 71.0856 95.1577 76.7068 92.3471C82.4843 89.5365 88.4178 87.1943 94.8198 85.9451C101.066 84.6959 107.624 84.6959 113.87 85.4767C120.115 86.4135 126.361 87.8189 132.451 89.8488C156.654 97.6561 179.607 109.679 199.75 125.294C219.893 141.065 237.381 160.115 250.497 181.819L250.185 181.975C235.351 161.52 217.551 143.251 197.564 127.948C187.727 120.453 177.265 113.427 166.335 107.337C155.248 101.247 143.85 95.9385 131.983 91.5664C126.049 89.3803 119.959 87.5066 113.713 86.7258C107.468 85.789 101.066 85.789 94.9759 87.0381C88.8862 88.2873 82.9527 90.7856 77.4876 93.9086C72.0225 96.8753 66.8697 100.623 62.0291 104.527C52.3481 112.334 43.2916 121.39 36.8896 132.164C33.7667 137.473 31.2683 143.251 30.3314 149.497C29.863 152.62 29.7069 155.742 30.0192 158.709C30.3315 161.832 31.1122 164.799 32.3614 167.766L32.2052 167.922Z" fill="#FFFDFB"/>
  <path d="M14.2483 101.56C15.9659 103.746 17.3712 106.088 19.0888 108.274C20.6503 110.46 22.3679 112.646 23.9293 114.832C27.2084 119.204 30.6436 123.576 33.7666 128.104C31.7367 126.231 29.7067 124.357 27.9891 122.171C26.1154 120.141 24.3978 117.955 22.6802 115.769C21.1187 113.583 19.4011 111.241 17.9958 108.898C16.5905 106.556 15.3413 104.058 14.2483 101.56Z" fill="#FFFDFB"/>
  <path d="M67.3377 43.7856C71.2414 43.161 74.9888 42.068 78.7364 40.9749C82.4839 39.8819 86.2314 38.7889 89.9789 37.6959L101.221 34.2606C103.095 33.6361 104.969 33.1676 106.843 32.543C108.873 32.0746 110.746 31.7623 112.776 31.45C116.836 30.9816 120.74 31.2939 124.643 31.2939L136.354 31.7623C144.162 32.0746 151.969 32.0746 159.776 32.0746C167.583 32.0746 175.391 32.2307 183.354 32.6992C191.162 33.1676 199.125 33.9484 206.776 36.2905C208.65 36.9151 210.524 37.5397 212.397 38.1643C214.271 38.945 216.145 39.7258 217.863 40.6626C221.454 42.5364 224.733 44.7224 227.856 47.2208C233.946 52.2175 239.723 57.9949 243.158 65.1776L242.846 65.3337C240.816 62.0547 238.318 59.0879 235.507 56.4334C232.696 53.7789 229.73 51.2806 226.451 49.0945C223.328 46.9085 220.049 44.8786 216.613 43.161C213.178 41.4434 209.587 40.1942 205.839 39.2573C191.005 35.3537 175.235 35.0414 159.62 33.6361C151.813 33.0115 144.005 32.6992 136.198 32.8553C132.295 32.8553 128.391 33.1676 124.487 33.3238C120.584 33.4799 116.68 33.6361 112.932 34.1045C111.059 34.2606 109.185 34.5729 107.311 35.0414C105.594 35.5098 103.564 36.1344 101.69 36.6028C97.9423 37.6959 94.1948 38.6327 90.2912 39.5696C86.5436 40.5065 82.64 41.4434 78.7364 42.2241C74.8327 42.8487 70.929 43.6294 67.0254 43.7856H67.3377Z" fill="#FFFDFB"/>
  <path d="M148.69 3.96813C160.089 2.71896 171.8 3.34354 182.886 6.77876C188.351 8.49637 193.816 10.6824 198.657 14.1176C203.497 17.5528 207.401 21.7688 211.461 25.6724C215.364 29.7322 219.737 33.1675 224.109 37.0711C228.481 40.8186 232.697 44.8784 235.82 49.7189C242.222 59.4 244.095 71.2671 250.341 80.4797C253.464 85.1641 257.368 89.2239 260.647 94.0645C263.926 98.905 266.112 104.526 267.986 109.991C268.923 112.802 269.703 115.456 270.484 118.267C271.109 121.078 271.733 123.888 272.202 126.855C272.982 132.476 273.607 138.254 274.388 143.875C275.637 155.118 277.198 166.516 279.853 177.446C282.507 188.377 286.411 199.151 292.032 209.144L291.72 209.3C288.441 204.616 285.786 199.463 283.444 194.31C281.102 189.001 279.228 183.536 277.667 178.071C274.544 166.985 272.67 155.586 271.109 144.344C270.328 138.722 269.703 132.945 268.766 127.48C268.298 124.669 267.83 121.858 267.205 119.204C266.58 116.549 265.644 113.739 264.863 111.084C263.301 105.619 261.271 100.466 258.305 95.7821C255.338 91.0977 251.59 86.7256 248.624 81.7289C245.657 76.7322 243.939 71.111 242.065 65.802C241.129 63.1475 240.192 60.493 238.943 57.8386C237.693 55.3402 236.444 52.8419 234.727 50.4997C228.012 41.4432 217.394 36.2904 209.275 27.7023C205.215 23.6425 201.467 19.4266 197.095 15.9914C192.723 12.5562 187.414 10.3701 182.105 8.49637C176.796 6.77876 171.175 5.52959 165.554 4.905C159.933 4.28042 154.155 4.12427 148.534 4.43657L148.69 3.96813Z" fill="#FFFDFB"/>
  <path d="M109.185 19.8951C110.122 19.2705 111.371 19.2705 112.464 19.2705C113.557 19.2705 114.65 19.4267 115.587 19.7389C117.617 20.2074 119.49 21.1443 121.208 22.3934C122.926 23.6426 124.799 24.4233 126.829 24.8918C128.859 25.5164 130.733 26.2971 132.607 26.9217C136.354 28.327 140.102 29.1077 144.005 30.2007C147.909 31.1376 151.813 32.0745 155.873 33.1675V33.4798C151.813 33.9482 147.597 33.7921 143.537 33.1675C139.477 32.5429 135.417 31.1376 131.67 29.2639C129.796 28.327 128.078 27.0778 126.361 26.1409C124.643 25.0479 122.77 24.111 120.74 23.6426C116.524 23.1742 113.245 21.1443 109.341 20.0512L109.185 19.8951Z" fill="#FFFDFB"/>
  <path d="M35.4846 132.789C33.9231 129.666 32.9862 126.231 32.2055 122.796C31.5809 119.36 31.1124 115.769 30.9563 112.334C30.9563 108.899 31.2686 105.307 31.5809 101.872C31.7371 98.4368 31.8932 95.0016 31.8932 91.4102C31.8932 89.6926 31.8932 87.975 32.0493 86.1013C32.2055 84.3836 32.3616 82.5099 32.9862 80.7923C33.6108 78.9185 34.3915 77.3571 35.3284 75.7956C36.2653 74.2341 37.3583 72.8288 38.4513 71.5797C42.8234 66.1145 47.664 61.1179 52.6607 56.2773L52.9729 56.4335C49.5377 62.5232 45.3217 68.1444 41.1058 73.6096C39.0759 76.4202 36.8899 78.9185 35.7968 81.8853C35.1723 83.4468 34.86 85.0082 34.3915 86.5697C33.9231 88.2873 33.6108 90.0049 33.4546 91.7225C32.9862 95.1577 32.6739 98.5929 32.8301 102.028C32.9862 105.463 33.4547 108.899 33.767 112.334C34.3915 119.204 34.86 125.919 35.953 132.789H35.4846Z" fill="#FFFDFB"/>
  <path d="M111.528 236.002C112.152 234.752 113.401 233.972 114.651 233.503C115.9 233.035 117.305 232.566 118.554 232.41C121.209 231.942 123.863 231.629 126.518 231.629C131.827 231.473 137.136 231.786 142.445 232.098C147.754 232.41 152.906 233.347 158.059 233.503C163.368 233.815 168.677 233.972 173.986 234.909C179.295 235.845 184.448 237.563 189.289 239.437C194.129 241.467 199.126 243.497 203.81 245.683C213.491 250.055 222.86 255.208 231.292 261.453L231.136 261.766C221.611 257.237 211.93 253.021 202.405 248.805C197.564 246.619 192.88 244.277 188.039 242.091C183.355 239.905 178.671 237.407 173.518 236.158C168.521 234.909 163.056 234.752 157.903 235.221C152.594 235.533 147.285 235.221 141.976 234.909C136.667 234.596 131.514 234.128 126.205 233.815C123.551 233.659 121.053 233.659 118.398 233.815C117.149 233.972 115.9 234.128 114.651 234.44C113.401 234.752 112.152 235.221 111.372 236.314L111.528 236.002Z" fill="#FFFDFB"/>
  <path d="M229.261 271.759C230.979 270.51 231.76 268.48 232.072 266.45C232.384 264.42 231.916 262.39 231.291 260.516C229.73 256.769 226.607 253.802 223.64 250.835C217.394 244.746 213.022 236.782 209.899 228.819C208.338 224.759 206.932 220.699 205.683 216.639C204.278 212.58 203.029 208.52 202.092 204.304C201.155 200.088 200.53 195.716 200.843 191.5C200.999 189.314 201.311 187.128 201.936 185.098C202.56 183.068 203.653 180.726 205.527 179.32C207.401 177.915 209.743 177.29 211.929 176.822C214.115 176.354 216.301 176.041 218.331 175.885C222.703 175.417 227.075 175.573 231.447 176.197C235.819 176.666 240.035 177.759 244.251 179.164C248.311 180.57 252.371 182.443 256.118 184.473C263.77 188.689 270.64 193.842 277.51 198.995C280.946 201.649 284.381 204.148 287.816 206.646C288.753 207.271 289.534 208.051 290.314 208.364C290.783 208.52 291.251 208.676 291.876 208.988C292.344 209.144 292.969 209.457 293.281 209.613C294.218 210.081 295.311 210.237 296.248 209.925C296.716 209.769 297.185 209.457 297.653 209.144C297.966 208.988 298.278 208.988 298.59 208.988C298.903 208.988 299.215 209.3 299.371 209.457L299.215 209.769C298.746 209.457 298.434 209.3 297.966 209.613C297.497 209.925 297.029 210.237 296.56 210.393C295.467 210.862 294.218 210.55 293.281 210.237C292.813 210.081 292.344 209.769 291.876 209.613C291.407 209.457 290.783 209.3 290.314 209.144C289.846 208.988 289.221 208.676 288.753 208.364L287.348 207.583C283.6 205.397 280.009 203.055 276.417 200.712C269.235 196.028 262.208 191.187 254.869 187.284C247.53 183.38 239.567 180.257 231.291 179.008C227.231 178.384 223.015 178.227 218.8 178.384C216.77 178.54 214.584 178.696 212.554 179.008C210.524 179.32 208.494 179.789 206.932 180.726C205.371 181.819 204.278 183.536 203.653 185.41C203.029 187.44 202.56 189.47 202.404 191.5C202.248 193.53 202.248 195.716 202.404 197.746C202.56 199.776 203.029 201.962 203.497 203.991C204.434 208.051 205.996 212.111 207.713 216.015C209.431 219.918 210.992 223.822 212.71 227.726C216.145 235.533 220.049 242.872 225.826 248.962C227.231 250.523 228.793 252.084 230.042 253.958C231.291 255.676 232.54 257.706 233.321 259.892C233.946 262.078 234.102 264.42 233.633 266.606C233.165 268.792 231.916 270.822 229.886 271.915L229.261 271.759Z" fill="#FFFDFB"/>
  <path d="M252.684 277.536C254.089 276.912 255.494 276.443 256.9 276.131C257.681 275.975 258.305 275.818 259.086 275.662C259.867 275.506 260.491 275.35 261.272 275.35C262.677 275.35 264.239 275.506 265.644 275.194C267.049 274.882 268.455 274.413 269.704 273.789C270.953 273.008 272.358 272.383 273.607 271.759C274.857 271.134 276.262 270.51 277.511 269.885C280.166 268.792 282.82 267.855 285.943 267.23L286.099 267.543C284.069 269.885 281.571 271.603 278.916 273.008C277.511 273.632 276.106 274.101 274.7 274.569C273.92 274.725 273.295 275.038 272.514 275.038C271.734 275.194 270.953 275.194 270.328 275.35C268.767 275.506 267.362 275.662 265.956 276.131C264.551 276.599 263.146 277.38 261.74 277.848C260.335 278.317 258.774 278.317 257.368 278.317C255.807 278.317 254.401 278.161 252.84 277.536H252.684Z" fill="#FFFDFB"/>
  <path d="M208.338 222.573C202.873 220.543 197.408 218.669 191.943 216.952L183.667 214.453C180.857 213.516 178.202 212.58 175.391 211.643C172.581 210.706 169.926 209.613 167.116 208.832C164.305 207.895 161.494 207.114 158.684 206.334C153.062 204.772 147.441 203.211 141.976 200.712C139.322 199.463 136.667 198.058 134.169 196.497C132.92 195.716 131.67 194.779 130.577 193.842C129.484 193.061 128.391 192.124 127.142 191.5C122.302 188.377 117.149 185.722 112.152 182.912C106.999 180.101 102.003 177.447 97.006 174.324C94.5077 172.762 92.0093 171.201 89.6671 169.483C87.3249 167.766 84.9827 165.892 83.2651 163.55L83.5774 163.394C85.6073 165.423 88.1057 166.985 90.4479 168.546C92.9462 169.952 95.4446 171.357 97.9429 172.762C103.096 175.417 108.249 177.915 113.558 180.413C116.212 181.663 118.71 183.068 121.365 184.317C123.863 185.722 126.518 187.128 129.016 188.689C130.265 189.47 131.514 190.407 132.763 191.344C134.013 192.281 134.95 193.061 136.043 193.998C138.229 195.716 140.727 197.121 143.225 198.37C148.222 201.025 153.531 203.367 158.996 205.397C164.461 207.427 170.082 208.832 175.704 209.925C178.514 210.55 181.325 211.174 184.136 211.955C186.946 212.736 189.757 213.673 192.411 214.766C197.876 216.796 203.185 219.294 208.182 222.573H208.338Z" fill="#FFFDFB"/>
  <path d="M283.601 205.397C280.946 203.211 278.448 200.869 276.106 198.527C273.764 196.028 271.578 193.53 269.392 190.875C265.176 185.566 261.428 179.945 257.993 174.012C254.714 168.078 251.747 161.988 248.624 156.055C245.501 150.121 242.222 144.188 238.631 138.566C236.913 135.756 235.039 132.945 233.166 130.135C231.292 127.324 229.418 124.513 227.544 121.859C223.797 116.394 219.581 111.085 215.521 105.776C211.461 100.467 207.089 95.4701 202.093 91.098C197.252 86.5698 191.631 82.8222 185.541 80.1678L185.697 79.8555C192.255 81.5731 198.345 84.8521 203.81 89.0681C209.275 93.284 213.96 98.2807 218.176 103.59C222.392 108.899 226.139 114.52 230.043 120.141C233.79 125.762 236.913 131.852 240.036 137.786C243.159 143.719 246.126 149.809 249.561 155.586C252.996 161.364 256.588 166.985 260.179 172.606L265.644 181.038C267.518 183.849 269.392 186.659 271.265 189.314C275.169 194.779 279.229 200.088 283.757 205.085L283.601 205.397Z" fill="#FFFDFB"/>
</svg>
