<svg width="31" height="46" viewBox="0 0 31 46" fill="none"
  xmlns="http://www.w3.org/2000/svg">
  <path d="M29.9697 44.9229C29.7163 42.2617 29.3995 39.6639 29.0826 37.0028C28.7658 34.3416 28.449 31.7438 28.0689 29.146C27.7521 26.5482 27.3085 23.9504 26.9917 21.416C26.8017 20.1488 26.6116 18.8815 26.4215 17.6143L25.8512 13.876C24.7741 13.8127 23.6336 13.7493 22.4931 13.686C22.5565 12.1019 22.6198 10.5179 22.6832 8.87052C22.6832 8.36364 22.7466 7.85675 22.6832 7.2865C22.6198 6.71625 22.4931 6.20937 22.3664 5.63912C22.0496 4.56198 21.4793 3.54821 20.719 2.72452C19.1984 1.01377 16.9807 0 14.6997 0C12.4187 0 10.2011 1.01377 8.68044 2.72452C7.92011 3.54821 7.34986 4.56198 7.03306 5.63912C6.84297 6.14601 6.71625 6.71625 6.71625 7.2865C6.65289 7.85675 6.65289 8.427 6.71625 8.87052C6.77961 10.2645 6.84298 11.7218 6.90634 13.1157C5.8292 13.1157 4.75206 13.0523 3.67493 13.0523H2.9146L2.85123 13.8127C2.59779 16.4105 2.34435 19.0083 2.15427 21.6061L1.64738 29.3994C1.52066 31.9972 1.26722 34.595 1.01377 37.1928C0.76033 39.7906 0.443525 42.3884 0.0633599 44.9229L0 45.3664H0.506884L7.6033 45.6198C10.011 45.6832 12.3554 45.7466 14.6997 45.8099L21.7961 45.9366C24.2039 46 26.5482 46 28.8926 46H30.0331L29.9697 44.9229ZM8.11019 8.93388C8.11019 8.427 8.17355 7.98347 8.23691 7.53995C8.30027 7.09642 8.42699 6.65289 8.55371 6.27273C8.87052 5.44904 9.37741 4.68871 9.94766 4.0551C11.1515 2.78788 12.8623 2.02755 14.6364 2.02755C16.4105 2.02755 18.1212 2.78788 19.3251 4.0551C19.9587 4.68871 20.4022 5.44904 20.719 6.27273C20.8457 6.71625 20.9725 7.09642 21.0358 7.53995C21.0992 7.98347 21.0992 8.427 21.1625 8.93388C21.2259 10.5179 21.2893 12.1019 21.3526 13.686C21.0358 13.686 20.719 13.6226 20.4022 13.6226C18.5647 13.5592 16.7273 13.4325 14.8898 13.3691C12.6088 13.3058 10.2645 13.2424 7.92011 13.1791C8.04683 11.7218 8.11019 10.3278 8.11019 8.93388ZM14.6997 44.1625C12.3554 44.2259 9.94765 44.2893 7.6033 44.3526L0.950408 44.6061C1.14049 42.1983 1.33057 39.7273 1.58402 37.3196C1.83746 34.7218 2.15427 32.124 2.53443 29.5895L3.61157 21.8595C3.92838 19.5152 4.18181 17.1708 4.43526 14.8898C5.25895 14.8898 6.146 14.8898 6.96969 14.8264C7.09641 16.9174 7.22314 18.9449 7.41323 21.0358C7.60331 18.9449 7.79339 16.9174 7.85675 14.8264C10.011 14.7631 12.2286 14.7631 14.4463 14.6364L20.022 14.3829L21.4793 14.3196C21.6061 16.5372 21.7328 18.8182 21.9862 21.0358C22.2397 18.7548 22.3664 16.5372 22.4931 14.2562L25.7245 14.0661L25.9146 18.1212C25.978 19.4518 26.0413 20.7824 26.168 22.1129C26.3581 24.7107 26.4848 27.3719 26.6749 29.9063C26.865 32.5041 27.0551 35.0386 27.2452 37.573C27.4353 39.7273 27.6253 41.8815 27.8154 44.0358C25.7879 44.0358 23.8237 44.0358 21.7961 44.0992L14.6997 44.1625Z" fill="#272727"/>
</svg>
