<svg width="175" height="208" viewBox="0 0 175 208" fill="none"
  xmlns="http://www.w3.org/2000/svg">
  <path d="M115.033 138.108C122.214 131.957 139.338 135.312 139.338 135.312C150.386 136.989 161.986 137.548 174.138 126.366C162.538 129.72 153.148 124.688 142.652 124.688C127.186 124.688 117.243 130.839 108.957 141.462L96.2524 135.871L131.605 42.4946C134.919 34.1075 139.89 22.9247 144.862 14.5376C148.729 6.70968 153.7 2.7957 158.671 2.7957H159.224C159.776 1.67742 160.329 0 159.224 0C154.252 0 145.414 0.55914 143.205 0.55914C139.89 0.55914 124.424 0 121.109 0C118.9 0 118.9 0.55914 118.9 1.11828C118.9 1.67742 119.452 2.23656 120.005 2.23656C120.557 2.23656 123.871 1.67742 125.529 1.67742C132.157 1.67742 136.576 5.5914 136.576 11.1828C136.576 20.129 132.709 31.871 129.395 40.2581L102.329 111.269C102.329 104 97.3571 98.4086 90.7286 95.6129L83.5476 76.6021C82.9952 75.4839 82.9952 74.9247 82.4428 73.8064C98.4619 67.6559 108.957 54.2366 108.957 37.4624C108.957 12.8602 89.0714 0 57.5857 0C54.2714 0 25.5476 0.55914 22.7857 0.55914C20.0238 0.55914 6.76667 0 1.24286 0C-0.414286 0 -0.414286 1.67742 1.24286 1.67742H4.55714C13.9476 1.67742 15.0524 2.7957 15.0524 50.8817V77.1613C15.0524 86.1075 15.0524 105.677 14.5 116.301C13.9476 126.925 13.3952 130.839 10.6333 134.194C10.6333 134.194 11.1857 134.194 1.79524 134.194C0.138095 134.194 0.138095 135.871 1.79524 135.871C3.45238 135.871 22.2333 135.312 25.5476 135.312C26.6524 135.312 30.519 135.312 34.3857 135.312C32.1762 135.871 30.519 136.989 28.3095 138.108C17.2619 144.817 10.6333 156.559 10.6333 169.419C10.0809 189.548 27.2048 208 48.1952 208C53.719 208 59.7952 206.882 65.8714 204.645C73.6047 201.29 78.5762 195.699 83.5476 188.989C90.1762 199.054 98.4619 208 112.271 208C130.5 208 142.652 197.376 142.652 177.806C142.652 154.882 123.871 147.613 110.062 140.903C110.614 140.344 110.614 140.344 111.167 139.785C111.167 139.785 116.138 134.753 118.9 133.075C127.186 128.043 138.233 129.161 138.233 129.161C138.233 129.161 131.605 129.161 124.976 131.957C120.005 134.194 116.69 136.43 115.033 138.108ZM101.224 111.828C101.224 112.387 101.224 113.505 101.224 114.065L100.671 116.301C100.671 116.86 100.119 117.419 99.5666 117.419C99.0143 117.419 99.0143 116.86 98.4619 116.301L91.2809 96.7312C96.8047 99.5269 101.224 105.118 101.224 111.828ZM89.0714 131.957C75.2619 125.247 60.9 116.86 60.9 107.355C60.9 100.645 67.5286 96.172 74.7095 95.0538L89.0714 131.957ZM29.9667 31.3118C29.9667 2.23656 30.519 1.67742 37.7 1.67742H54.8238C79.6809 1.67742 92.3857 13.4194 92.3857 37.4624C92.3857 50.8817 87.9666 61.5054 80.2333 68.215C67.5286 38.5806 68.6333 35.7849 77.4714 35.7849H81.3381C82.9952 35.7849 82.4428 34.1075 80.7857 34.1075C75.2619 34.1075 60.3476 34.6667 57.5857 34.6667C54.2714 34.6667 43.7762 34.1075 38.2524 34.1075C37.7 34.1075 37.1476 34.6667 37.1476 35.2258C37.1476 35.7849 37.7 35.7849 38.2524 35.7849H39.9095C49.8524 35.7849 50.4048 36.9032 66.9762 74.3656C63.1095 75.4839 59.2428 76.043 54.8238 76.043H29.9667V31.3118ZM65.319 203.527C58.6905 205.763 53.1667 206.882 48.1952 206.882C30.519 206.882 11.7381 192.344 11.7381 169.419C11.7381 157.677 17.8143 145.935 28.8619 139.226C31.6238 137.548 34.9381 136.43 38.2524 136.43C39.9095 136.43 41.5667 136.989 43.2238 136.989C53.719 139.785 64.7666 152.645 74.1571 171.656C76.3666 176.688 79.1286 182.28 82.9952 187.871C78.5762 195.14 73.0524 200.731 65.319 203.527ZM82.9952 163.828C76.3667 149.29 63.6619 136.989 49.8524 134.753C49.3 134.194 46.5381 134.194 44.3286 134.194C42.6714 134.194 41.5667 134.194 39.9095 134.753H39.3571C32.7286 134.753 29.9667 133.634 29.9667 85.5484V78.2796C39.3571 78.2796 48.7476 78.2796 58.6905 78.2796C62.0047 78.2796 64.7667 78.2796 68.0809 77.7204L74.1571 93.9355C64.2143 96.172 57.5857 103.441 57.5857 114.065C57.5857 133.075 86.3095 144.817 101.776 151.527L89.0714 177.247C87.9667 173.892 83.5476 164.946 82.9952 163.828ZM139.89 185.634C139.89 196.817 128.29 206.323 117.795 206.323C105.643 206.323 96.8047 192.344 89.6238 178.366L102.329 152.086L107.3 154.323C118.9 158.796 139.89 171.656 139.89 185.634Z" fill="#272727"/>
</svg>
