<svg width="35" height="53" viewBox="0 0 35 53" fill="none"
  xmlns="http://www.w3.org/2000/svg">
  <path d="M10.2571 17.8025C10.2571 15.7932 10.778 13.7094 12.192 11.9234C12.8618 11.0303 13.8292 10.2861 14.8711 9.83962C15.913 9.39311 17.1037 9.16985 18.22 9.24427C20.6014 9.39311 22.6107 10.6582 24.0247 12.1466C25.5131 13.635 26.4805 15.6443 26.7038 17.8025C26.7782 18.8444 26.7038 20.0351 26.3317 21.077C25.9596 22.1189 25.3643 23.0863 24.5456 23.9793C22.9084 25.6166 20.6758 26.7329 18.2944 26.6584C17.1781 26.6584 15.913 26.3608 14.8711 25.9143C13.8292 25.3933 12.8618 24.6491 12.192 23.7561C10.778 21.8956 10.3315 19.8118 10.2571 17.8025ZM10.4803 17.8025C10.4803 18.77 10.778 19.7374 11.2245 20.6305C11.6711 21.4491 12.4152 22.1933 13.1594 22.7142C13.9036 23.2351 14.7967 23.6072 15.6153 23.9049C16.4339 24.2026 17.3269 24.277 18.22 24.277C20.006 24.277 21.6433 23.6817 22.9828 22.491C24.248 21.3002 25.2154 19.663 25.4387 17.8769C25.6619 16.0164 24.9922 14.0071 23.5038 12.742C22.834 12.0722 21.8665 11.6257 20.9735 11.4024C20.0805 11.1792 19.113 11.1048 18.22 11.1792C16.3595 11.328 14.7223 11.9234 13.1594 12.9652C12.4152 13.4862 11.6711 14.2304 11.2245 15.049C10.778 15.7932 10.4803 16.8351 10.4803 17.8025Z" fill="#272727"/>
  <path d="M34.9645 17.877C34.9645 19.2165 34.7412 20.5561 34.4435 21.8956C34.1458 23.2352 33.7737 24.5003 33.4016 25.8399C32.583 28.4446 31.69 30.9748 30.6481 33.4307C28.6388 38.4168 26.3318 43.254 23.1317 47.7936C22.3131 48.9099 21.4945 50.0262 20.4526 51.0681C20.155 51.2914 19.9317 51.589 19.5596 51.8123C19.4108 51.9611 19.1875 52.0356 18.9642 52.1844C18.8898 52.2588 18.6666 52.2588 18.5922 52.3332C18.4433 52.3332 18.2201 52.4077 18.0712 52.3332C17.4014 52.2588 17.0293 51.9611 16.7317 51.7379C16.434 51.5146 16.1363 51.2169 15.913 50.9937C14.9456 49.9518 14.127 48.8355 13.3828 47.6448C12.6386 46.5285 11.9688 45.3378 11.299 44.1471C8.69435 39.3842 6.46176 34.6214 4.37801 29.5608C3.1873 27.0306 2.21985 24.4259 1.55007 21.8956C1.17797 20.5561 0.954712 19.2165 0.880293 17.8026C0.805873 16.3886 0.954712 14.9746 1.25239 13.6351C1.84775 10.8815 3.11288 8.27685 4.89895 6.11868C6.75944 3.96051 9.14086 2.24886 11.82 1.13257C17.1038 -0.951182 23.5038 -0.132567 28.0434 3.36515C30.276 5.0768 31.9877 7.38381 33.104 9.83966C34.5179 12.5188 34.9645 15.1979 34.9645 17.877ZM34.7412 17.877C34.7412 15.1979 33.997 12.5932 32.583 10.3606C31.1691 8.12801 29.3086 6.26752 27.1504 5.00239C24.9922 3.66283 22.6108 2.84422 20.155 2.54654C17.6247 2.24886 15.1689 2.54654 12.8618 3.43958C8.17341 5.00239 4.45243 9.09546 3.03846 14.0816C2.66636 15.3467 2.4431 16.6118 2.36868 17.877C2.29426 19.1421 2.51752 20.4817 2.74078 21.7468C3.26172 24.3515 4.08033 26.8817 5.12221 29.3376C7.05712 34.3237 9.51296 39.0865 12.4153 43.5517C13.1595 44.668 13.9037 45.7843 14.7223 46.8262C15.5409 47.8681 16.3596 48.9099 17.2526 49.7286C17.4759 49.9518 17.6991 50.1006 17.9224 50.2495C18.1456 50.3983 18.3689 50.4727 18.3689 50.4727C18.2945 50.4727 18.5177 50.3983 18.6666 50.2495C18.8898 50.1006 19.1131 49.8774 19.3363 49.6541C20.155 48.7611 20.9736 47.7192 21.7178 46.6029C22.462 45.4866 23.2062 44.4448 23.8759 43.2541C24.5457 42.1378 25.2899 40.947 25.9597 39.8307C27.2992 37.5237 28.6388 35.2167 29.7551 32.9097C30.9458 30.5283 32.1365 28.0725 33.104 25.691C33.9226 23.1608 34.6668 20.5561 34.7412 17.877Z" fill="#272727"/>
</svg>
