<svg width="145" height="405" viewBox="0 0 145 401" fill="none"
  xmlns="http://www.w3.org/2000/svg">
  <path d="M144.577 118.212C144.43 116.191 144.282 114.098 143.988 112.077L143.62 109.046C143.473 108.035 143.399 107.025 143.325 106.014C142.589 97.9305 143.252 89.6303 141.706 81.4022C141.338 79.3812 140.823 77.3603 140.307 75.3394L138.835 69.3488L135.89 57.3675L130.001 33.405C129.486 31.4563 128.897 29.291 127.425 27.631C126.689 26.837 125.732 26.1874 124.701 25.8265C123.671 25.4657 122.64 25.2491 121.609 25.1048C119.475 24.8161 117.487 24.6717 115.426 24.2387C113.365 23.8056 111.377 23.3004 109.39 22.5786C101.513 19.8359 94.446 15.0723 89.0722 8.79298L88.925 8.86516C94.2252 15.2167 101.292 20.1246 109.242 23.0117C111.23 23.7334 113.217 24.3109 115.279 24.7439C117.34 25.177 119.475 25.4657 121.462 25.7544C123.45 26.0431 125.511 26.6205 126.836 28.1362C128.161 29.6519 128.676 31.6006 129.192 33.5494L134.86 57.5119L137.657 69.4931L139.056 75.4837C139.497 77.5047 140.013 79.4534 140.381 81.4743C141.853 89.4859 141.191 97.714 141.853 105.942C141.927 106.953 142.074 108.035 142.148 109.046L142.516 112.077C142.81 114.098 142.884 116.119 143.031 118.212C143.252 122.254 143.399 126.368 143.252 130.482C142.957 146.722 140.234 162.889 138.54 179.129C138.246 179.273 137.878 179.273 137.436 179.129C136.921 178.912 136.406 178.623 135.964 178.263C135.007 177.469 134.124 176.603 133.167 175.736C132.725 175.303 132.21 174.87 131.694 174.509C131.179 174.149 130.59 173.715 129.854 173.499C129.707 173.427 129.486 173.427 129.339 173.355L128.823 173.282L127.867 173.138L125.953 172.849C124.701 172.633 123.45 172.488 122.272 172.128C122.125 172.055 121.977 172.055 121.904 171.983H121.83L121.683 171.117L121.315 169.241C120.873 166.787 120.432 164.333 120.063 161.806C118.444 151.918 117.34 141.958 116.751 131.925C116.456 126.945 116.309 121.893 116.383 116.913C116.383 114.387 116.456 111.933 116.53 109.407C116.53 106.88 116.309 104.354 116.088 101.9C115.573 96.92 114.837 91.9399 114.395 86.9597C114.174 84.4336 114.027 81.9796 114.027 79.4534C114.027 77.7212 114.027 75.989 114.174 74.2567C114.248 73.4628 114.322 72.741 114.395 71.9471L113.88 71.8749C113.217 78.2986 112.923 84.7945 112.997 91.2903C112.997 97.7862 113.291 104.21 113.733 110.706C114.174 117.346 114.69 123.986 115.205 130.626C115.131 130.771 114.911 130.771 114.69 130.771C114.469 130.771 114.248 130.771 113.954 130.698C113.438 130.626 112.997 130.554 112.481 130.482L109.537 130.049C107.623 129.76 105.635 129.544 103.574 129.544C101.587 129.544 99.5253 129.688 97.5378 130.554C96.5808 130.987 95.6239 131.565 94.8877 132.503C94.2252 133.369 93.8571 134.524 93.8571 135.534C93.8571 136.04 93.9307 136.545 94.0043 137.05C94.078 137.555 94.2252 138.133 94.6669 138.638C95.0349 139.143 95.6975 139.36 96.2128 139.432C96.7281 139.504 97.2433 139.432 97.7586 139.432C99.7462 139.287 101.66 139.215 103.648 139.215C105.635 139.215 107.549 139.287 109.537 139.36C111.524 139.432 113.438 139.36 115.426 139.36H115.794C116.015 142.752 116.236 146.072 116.383 149.464C116.53 152.712 116.751 155.888 116.825 159.136C116.972 162.384 117.045 165.632 117.193 168.807L117.34 173.643C117.413 175.231 117.487 176.891 117.413 178.479C117.34 180.067 117.266 181.655 116.898 183.171C116.53 184.686 115.941 186.13 114.911 187.285C114.395 187.79 113.806 188.367 113.144 188.656C112.555 189.017 111.819 189.017 110.935 189.161C109.169 189.45 107.696 189.955 106.077 190.172C102.912 190.749 99.599 190.893 96.36 190.893C89.882 190.893 83.3304 190.388 76.7052 191.038C75.9691 190.677 75.1593 190.099 74.4232 189.522C73.6134 188.945 72.8773 188.295 72.1412 187.573C70.6689 186.202 69.2702 184.831 67.9452 183.315C66.6202 181.799 65.3687 180.283 64.4117 178.551C63.9701 177.685 63.5284 176.819 63.3812 175.953L63.3075 175.231C63.2339 174.942 63.2339 174.726 63.1603 174.437C63.0131 173.932 62.8659 173.427 62.7186 172.922C62.7186 172.849 62.645 172.705 62.645 172.633C63.0131 171.911 63.3075 171.189 63.6756 170.54L63.5284 170.468C63.1603 171.045 62.7923 171.622 62.4978 172.2C62.277 171.478 62.0561 170.828 61.9089 170.107C61.8353 169.674 61.7617 169.168 61.6881 168.663L61.4672 167.147L60.7311 161.157C60.2158 157.187 59.7741 153.217 59.3324 149.248C58.4491 141.308 57.7129 133.297 57.1976 125.357C56.756 117.346 56.4615 109.334 56.756 101.395C56.9032 97.4253 57.4185 93.4556 58.8171 89.8468C60.1422 86.1658 62.7923 83.1344 65.2215 79.8865C67.6507 76.6386 69.7119 73.0297 71.4786 69.3488C72.9509 66.1008 74.2023 62.7807 75.3065 59.3885C75.7482 58.0171 76.1899 56.7179 76.558 55.3466C78.4719 48.4899 80.0178 41.5609 81.8581 34.7042C83.8457 27.1979 86.3485 19.7638 90.1764 12.9792C94.7405 16.6602 99.7462 19.8359 104.973 22.5064C103.869 23.6613 103.206 25.0326 102.764 26.4761C102.249 28.1362 101.955 29.7962 101.587 31.3841C101.439 32.1781 101.218 32.972 100.924 33.7659C100.63 34.5599 100.335 35.2816 99.8934 36.0034C99.1573 37.4469 98.1267 38.7461 97.0961 40.0452C94.9613 42.5714 92.4585 44.9532 90.3973 47.6237C88.2625 50.2943 86.4222 53.1091 84.6554 55.9962C81.1956 61.7703 78.3983 67.9052 75.1593 73.7515C71.9939 79.5978 68.3869 85.3719 63.602 90.2077L63.6756 90.2798C68.5341 85.5162 72.2148 79.8143 75.4538 73.968C78.7664 68.1218 81.6373 62.059 85.1707 56.3571C86.9375 53.47 88.7778 50.7273 90.9126 48.129C92.9738 45.5306 95.4766 43.221 97.685 40.6227C98.7892 39.3235 99.8198 37.9521 100.63 36.4364C101.071 35.7147 101.366 34.9207 101.66 34.0546C101.955 33.2607 102.175 32.3946 102.396 31.6006C102.764 29.9406 103.059 28.3527 103.574 26.7648C104.089 25.2491 104.826 23.8056 106.077 22.7952L106.666 22.3621L106.003 22.0012C100.409 19.1863 95.1086 15.7219 90.3237 11.7522L89.8084 11.3191L89.4403 11.8966C88.7042 13.1957 87.968 14.4949 87.3055 15.8662C87.7472 13.9897 88.0417 12.1853 88.2625 10.3087C88.4097 8.86516 88.557 7.49381 88.557 6.05029C88.557 4.60676 88.4833 3.16324 88.1153 1.71972L87.8944 0.925781L87.2319 1.35884C85.686 2.3693 84.2138 3.45195 82.8151 4.60676C81.4164 5.76158 80.0914 6.98858 78.6928 8.1434C77.2941 9.29821 75.8218 10.3087 74.2023 11.1026C73.2454 11.6079 72.2884 12.0409 71.2578 12.4018C70.9634 12.474 70.7425 12.6183 70.5217 12.6905C70.08 12.8348 69.6383 13.0514 69.123 13.1957L69.1966 13.3401C69.0494 13.4123 68.8286 13.4844 68.6813 13.6288C68.3869 12.8348 68.0188 12.1131 67.5771 11.4635C66.3257 9.58692 64.7798 7.99904 63.1603 6.55552C62.3506 5.83376 61.4672 5.112 60.5102 4.53459C59.5533 3.95718 58.5963 3.37977 57.4921 3.01889L57.3449 2.94671L57.2713 3.09107C56.8296 3.81283 56.6824 4.46241 56.5351 5.18417C56.3879 5.90593 56.2407 6.55552 56.1671 7.27728C55.9462 8.64863 55.8726 10.0922 55.799 11.4635C55.7254 12.8348 55.6518 14.2784 55.7254 15.6497C55.7254 16.3715 55.799 17.0932 55.8726 17.7428C55.9462 18.1037 55.9462 18.4646 56.0198 18.8255C56.0934 19.1863 56.167 19.5472 56.4615 19.9081C56.5351 19.9803 56.756 20.1246 56.8296 20.1246C56.9768 20.1246 57.0504 20.1246 57.1976 20.1246C57.4185 20.1246 57.5657 20.0525 57.7865 19.9803C58.1546 19.8359 58.4491 19.6916 58.8171 19.5472C59.4797 19.2585 60.1422 18.9698 60.7311 18.6089C61.9825 17.9594 63.2339 17.3098 64.4854 16.588C65.7368 15.9384 66.9882 15.2167 68.2397 14.5671C68.3133 14.4949 68.3869 14.4949 68.4605 14.4227C68.4605 14.4949 68.4605 14.4949 68.4605 14.5671C68.6813 15.5775 68.6813 16.6602 68.6813 17.7428C68.6813 18.8255 68.6813 19.9081 68.9758 21.0629C69.123 21.6403 69.4175 22.1456 69.7855 22.6508C70.08 23.0117 70.4481 23.2282 70.8161 23.4447C69.6383 24.6717 68.3869 25.8265 67.2091 27.0535C66.1785 28.064 65.2951 29.1467 64.3382 30.2293C63.3812 31.3119 62.4242 32.3946 61.5408 33.5494C60.6575 34.7042 59.9213 36.0034 59.4797 37.4469C59.038 38.8904 58.9644 40.4061 59.038 41.8497C59.1116 43.2932 59.406 44.7367 59.6269 46.108L60.4366 50.2943L62.0561 58.6667L65.0743 73.7515C63.4548 69.2766 62.0561 64.7295 60.8783 60.1824C59.6269 54.8414 58.7435 49.356 58.0074 43.9428C57.2713 38.5295 56.6824 33.0442 56.2407 27.5588C55.799 22.0734 55.5045 16.588 55.2837 11.1026H55.3573C55.0629 16.588 55.1365 22.1456 55.3573 27.631C55.6518 33.1163 56.167 38.6739 57.0504 44.0871C58.0074 49.5725 59.2588 54.9135 60.6575 60.2546C62.0561 65.5234 63.5284 70.7923 65.2951 75.989C64.4854 77.2881 63.7492 78.5151 62.8659 79.67C62.4242 80.2474 61.9089 80.8248 61.3936 81.1135C61.0992 81.1856 61.0255 81.1856 60.8783 81.0413C60.6575 80.8248 60.363 80.5361 60.1422 80.2474C59.2588 79.0925 58.7435 77.649 58.081 76.2777C57.4185 74.8342 56.5351 73.4628 55.5781 72.2358C53.6642 69.7096 51.5294 67.4722 49.7627 64.946C48.8793 63.719 48.1432 62.4199 47.5543 61.0485C46.9654 59.6772 46.4501 58.2336 45.9348 56.7901C44.9778 53.9031 44.1681 50.8717 42.9166 47.9846C41.6652 45.0976 40.1193 42.4271 38.9415 39.6122C38.6471 38.8904 38.3526 38.1687 38.1318 37.5191C37.9109 36.7973 37.7637 36.0756 37.6901 35.3538C37.5429 33.8381 37.5429 32.3224 37.6901 30.8067C37.9845 27.8475 38.5734 24.8161 39.8985 22.1456C45.5667 19.475 50.7933 15.8662 55.2101 11.4635L55.1365 11.3913C52.1919 14.0618 49.0265 16.4437 45.6403 18.4646C42.2541 20.4855 38.6471 22.1456 34.8928 23.4447C31.1385 24.7439 27.3106 25.6822 23.3355 26.1874C22.3785 26.3318 21.3479 26.404 20.3909 26.4761C19.8756 26.5483 19.3603 26.5483 18.7714 26.6927C18.2561 26.837 17.6672 27.1257 17.2256 27.5588C16.4158 28.4249 16.1214 29.4354 15.7533 30.3736L14.7227 33.1163C11.9254 40.4783 9.34892 47.9124 7.28775 55.4909C5.30018 63.1416 3.82791 70.9366 3.45984 78.8038C3.01816 86.671 3.31261 94.5382 3.38622 102.333C3.45984 110.2 3.31261 117.995 3.01815 125.863C2.42925 141.525 1.25143 157.187 0.0736179 172.777L0 173.427L0.662539 173.282C1.98758 172.994 3.38622 172.849 4.78487 172.705C6.18353 172.561 7.58219 172.488 8.90723 172.416C10.3059 172.344 11.7045 172.344 13.0296 172.416C13.6921 172.488 14.3546 172.561 15.0172 172.705C15.3116 172.777 15.606 172.849 15.8269 172.994C15.9005 173.066 15.9741 173.138 16.0477 173.138C16.0477 173.138 16.0477 173.138 16.0477 173.21L17.2992 173.355L22.3049 137.194L27.1634 101.034C27.9731 95.0435 28.7093 88.9807 29.0037 82.8457C29.2982 76.7829 29.1509 70.6479 28.562 64.5851C27.9731 58.5223 26.9425 52.4595 25.4702 46.5411C23.998 40.6227 22.084 34.8486 19.802 29.1467L19.6548 29.2188C21.7896 34.9207 23.5563 40.767 24.8077 46.6855C26.1328 52.6039 27.0898 58.5945 27.5314 64.6573C27.8259 67.6887 27.8995 70.7201 27.9731 73.7515C27.9731 76.7829 27.9731 79.8143 27.7523 82.8457C27.4578 88.9085 26.5744 94.8991 25.7647 100.89L20.9062 137.05L16.3422 171.839C16.0477 171.695 15.7533 171.622 15.4588 171.55C14.7227 171.406 13.9866 171.334 13.2504 171.261C11.8518 171.189 10.3795 171.261 8.98085 171.334C7.58219 171.406 6.18353 171.55 4.78487 171.695C3.60706 171.839 2.42925 171.983 1.25144 172.2C2.1348 156.754 3.01817 141.308 3.60708 125.863C3.90153 117.995 4.12236 110.2 4.12236 102.333C4.19597 94.4661 4.04875 86.671 4.63766 78.876C4.93211 74.9785 5.44741 71.081 6.10993 67.2557C6.77245 63.4303 7.65581 59.605 8.6864 55.8518C10.674 48.2733 13.2504 40.8392 15.9741 33.4772L17.0047 30.7345C17.3728 29.7962 17.6672 28.8579 18.1825 28.2805C18.6978 27.7031 19.5812 27.5588 20.5382 27.4144C21.5688 27.2701 22.5257 27.1979 23.5563 27.0535C27.5314 26.4761 31.4329 25.4657 35.2608 24.0943C36.8067 23.5169 38.3526 22.8673 39.8249 22.1456C39.0887 23.3726 38.5735 24.7439 38.2054 26.0431C37.7637 27.5588 37.3956 29.0745 37.2484 30.5902C37.0276 32.1059 36.954 33.6937 37.0276 35.2816C37.1012 36.0756 37.1748 36.8695 37.3956 37.6634C37.6165 38.4574 37.8373 39.1791 38.1318 39.9009C39.236 42.8601 40.7082 45.6028 41.8124 48.4177C42.9903 51.2326 43.7264 54.1918 44.6097 57.151C45.4931 60.1102 46.7445 63.1416 48.6585 65.74C50.4988 68.3383 52.7072 70.5036 54.6212 72.9576C55.5781 74.1846 56.3879 75.4116 57.0504 76.7829C57.7129 78.1543 58.3755 79.5978 59.406 80.8969C59.7005 81.2578 59.9213 81.5465 60.2894 81.8352C60.5103 82.0518 60.8047 82.1239 61.1728 82.1961C61.4672 82.1961 61.7617 82.1239 61.9825 81.9796C61.9825 81.9796 62.0561 81.9796 62.0561 81.9074C61.6144 82.4848 61.1728 83.0622 60.7311 83.7118C59.5533 85.3719 58.5227 87.2484 57.7865 89.125C56.3143 93.0225 55.799 97.1366 55.5781 101.106C55.0628 117.202 56.3879 133.297 58.2282 149.176C58.6699 153.145 59.1852 157.115 59.6269 161.157L60.363 167.147L60.5839 168.663L60.6575 169.385C60.6575 169.674 60.7311 169.89 60.8047 170.179C61.0255 171.189 61.3936 172.2 61.6881 173.138C61.7617 173.282 61.7617 173.427 61.8353 173.643C60.7311 175.52 59.7005 177.469 58.6699 179.417C57.8602 181.005 57.124 182.521 56.3143 184.109C55.6517 185.552 54.9892 186.996 54.4003 188.439C44.6834 187.068 34.9664 185.408 25.3966 183.315C24.2188 183.026 22.8938 182.882 22.2313 182.232C21.5687 181.655 21.5687 180.5 21.7896 179.345C22.1576 176.891 22.5257 174.509 22.8202 172.055C23.4827 167.22 24.0716 162.312 24.8077 157.476C25.9855 148.598 27.605 139.72 28.7092 130.771C28.6356 132.359 28.562 133.874 28.4884 135.462V136.112L29.2245 136.184C32.1691 136.4 35.1872 136.184 38.0581 135.751C39.5304 135.462 40.9291 135.173 42.3277 134.596C43.7264 134.019 44.9042 133.008 45.7139 131.709C46.082 131.059 46.3765 130.41 46.5973 129.688C46.6709 129.471 46.6709 129.327 46.7445 129.111C46.7445 128.894 46.8182 128.678 46.6709 128.389C46.5237 128.1 46.1556 127.884 45.9348 127.884C45.714 127.884 45.5667 127.884 45.3459 127.811C43.8736 127.667 42.4013 127.667 41.0027 127.667C38.0581 127.739 35.1872 127.811 32.2427 128.244V128.389C35.1872 128.822 38.0581 128.894 41.0027 128.966C42.475 128.966 43.9472 128.894 45.3459 128.822L45.8612 128.75C46.0084 128.75 45.9348 128.75 46.0084 128.75C46.082 128.822 46.082 129.255 46.082 129.544C46.0084 130.193 45.7876 130.915 45.4195 131.492C44.757 132.719 43.5792 133.586 42.1805 133.946C40.8555 134.307 39.3832 134.379 37.9845 134.524C35.3344 134.813 32.758 134.813 30.1079 134.74C30.0343 133.008 29.9607 131.204 29.8871 129.471C30.9176 129.399 32.0219 129.255 33.0524 129.111V128.966C31.801 128.822 30.6232 128.75 29.3718 128.605H29.0773C29.0773 128.533 29.0773 128.389 29.0773 128.317C30.1079 118.573 30.6968 108.757 30.6232 98.941H30.476L29.8134 106.303C29.5926 108.757 29.3718 111.211 29.1509 113.593C28.7092 118.501 28.1939 123.337 27.6787 128.244C26.6481 137.988 25.9119 147.804 24.366 157.476C23.6299 162.312 22.7466 167.147 21.8632 171.983L20.5382 179.201C20.4646 179.85 20.3173 180.5 20.3909 181.15C20.4645 181.871 20.6854 182.665 21.2743 183.243C21.8632 183.82 22.5993 184.037 23.1882 184.253C23.8507 184.47 24.4397 184.542 25.0286 184.686C34.7455 187.068 44.6834 188.8 54.6212 189.811L55.1365 189.883L55.2837 189.45C55.9462 187.862 56.6087 186.202 57.2713 184.614C57.9338 183.026 58.5963 181.438 59.3324 179.85C60.1422 178.046 61.0255 176.242 61.9089 174.437C61.9089 174.509 61.9825 174.582 61.9825 174.726C62.0561 174.942 62.0561 175.159 62.1297 175.448L62.277 176.169C62.4978 177.324 62.9395 178.263 63.4548 179.201C64.4854 181.005 65.8104 182.593 67.1355 184.181C68.5341 185.697 69.9328 187.14 71.4786 188.512C72.2148 189.233 73.0245 189.883 73.8343 190.533C74.644 191.182 75.4538 191.76 76.558 192.265L76.7052 192.337H76.926C83.404 191.687 90.0292 192.193 96.6544 192.12C99.967 192.048 103.28 191.904 106.592 191.326C108.212 191.11 109.905 190.533 111.377 190.244L112.629 190.027C113.07 189.955 113.512 189.811 113.954 189.594C114.763 189.161 115.426 188.584 116.015 187.934C117.193 186.635 117.855 184.975 118.223 183.387C118.591 181.727 118.738 180.067 118.738 178.479C118.738 176.819 118.738 175.231 118.665 173.571L118.444 168.735C118.297 165.487 118.223 162.239 118.002 159.064C117.855 155.816 117.634 152.568 117.487 149.392C116.751 136.473 115.499 123.553 114.616 110.706C114.174 104.282 113.806 97.7862 113.806 91.3625C113.806 88.3311 113.806 85.3719 113.954 82.3405C114.027 83.9283 114.101 85.444 114.248 87.0319C114.69 92.0121 115.352 96.9922 115.868 101.972C116.088 104.499 116.309 106.953 116.309 109.479C116.236 112.005 116.162 114.531 116.162 116.985C116.088 122.037 116.236 127.017 116.456 132.07C116.972 142.102 118.002 152.135 119.548 162.023C119.916 164.477 120.358 167.003 120.726 169.457L121.02 171.334L121.168 172.272V172.344C121.168 172.344 121.168 172.416 121.168 172.488C121.241 172.633 121.315 172.705 121.389 172.777C121.536 172.849 121.609 172.922 121.683 172.994C121.83 173.066 122.051 173.138 122.198 173.21C123.523 173.571 124.775 173.788 126.026 173.932L127.94 174.221L128.897 174.365L129.339 174.437C129.486 174.437 129.633 174.509 129.707 174.509C130.737 174.87 131.694 175.736 132.651 176.53C133.535 177.396 134.418 178.335 135.449 179.129C135.964 179.562 136.479 179.923 137.215 180.211C137.584 180.356 137.952 180.428 138.393 180.428C138.835 180.428 139.277 180.211 139.571 179.995L139.792 179.85V179.634C140.749 171.478 141.779 163.394 142.81 155.238C143.767 147.082 144.577 138.854 144.724 130.626C144.945 126.44 144.798 122.326 144.577 118.212ZM66.1049 76.4942C66.0313 76.6385 65.9576 76.7829 65.8104 76.9273C65.884 76.7829 65.9576 76.6385 66.1049 76.4942ZM80.8276 34.4877C79.797 38.1687 78.9136 41.9218 77.9566 45.6028C77.9566 44.8089 77.883 44.0871 77.8094 43.2932C77.5149 40.9835 76.9997 38.6739 76.4844 36.4364C75.8955 34.199 75.3065 31.9615 74.644 29.7241C74.276 28.6414 73.9815 27.4866 73.5398 26.404C73.319 25.8265 73.1717 25.3213 72.9509 24.7439C72.8773 24.4552 72.7301 24.1665 72.5828 23.95C72.5092 23.8056 72.4356 23.6613 72.362 23.5169C72.2884 23.4447 72.2884 23.3726 72.2148 23.3004C72.8037 22.6508 73.3926 22.0012 73.9079 21.3516C75.4538 19.5472 76.8524 17.5263 77.883 15.361C78.4719 15.7219 79.0608 16.0828 79.6497 16.5158C80.8275 17.3098 81.9318 18.1037 83.1096 18.9698C83.6985 19.4029 84.2874 19.7638 84.9499 20.1968C85.0235 20.269 85.0971 20.269 85.2444 20.3412C85.318 20.3412 85.3916 20.4133 85.5388 20.4133C83.5512 25.1048 82.079 29.7962 80.8276 34.4877ZM71.9203 23.8056C71.8467 23.8778 71.7731 23.8778 71.6995 23.8778C71.6995 23.8778 71.6995 23.8778 71.7731 23.8056H71.9203ZM74.644 11.7522C76.3371 11.0304 77.9566 10.02 79.4289 8.93733C80.9012 7.85469 82.2998 6.69987 83.6985 5.54505C84.8763 4.60676 86.1277 3.74065 87.3791 2.94671C87.5264 3.95718 87.6 5.03982 87.6 6.12246C87.6 7.49381 87.4528 8.86516 87.3055 10.2365C86.9375 12.9792 86.4958 15.7219 85.7596 18.3924C85.686 18.6811 85.5388 18.9698 85.4652 19.2585C84.8763 18.9698 84.361 18.5368 83.7721 18.1759C82.5943 17.3819 81.4165 16.588 80.165 15.8662C79.5025 15.5054 78.84 15.0723 78.1775 14.7114C78.2511 14.5671 78.3247 14.3505 78.3983 14.2062L78.2511 14.134C78.1775 14.2784 78.1038 14.4227 78.0302 14.6392C77.5149 14.3505 76.926 14.0618 76.3371 13.7731C75.6746 13.4844 75.0121 13.1957 74.3496 12.9792C73.9815 12.8348 73.687 12.7627 73.319 12.6905C73.1717 12.6183 73.0245 12.6183 72.8037 12.5461C73.3926 12.3296 74.0551 12.0409 74.644 11.7522ZM68.0924 14.2062L64.3382 16.2271C63.0867 16.8767 61.8353 17.5985 60.5839 18.2481C59.9213 18.5368 59.3324 18.8976 58.6699 19.1863C58.3755 19.3307 58.0074 19.475 57.7129 19.5472C57.5657 19.6194 57.4185 19.6194 57.2713 19.6916C57.1976 19.6916 57.124 19.6916 57.0504 19.6916C56.9768 19.6916 57.0504 19.6916 56.9768 19.6916C56.8296 19.5472 56.756 19.1863 56.6823 18.8255C56.6087 18.4646 56.5351 18.1759 56.5351 17.815C56.4615 17.1654 56.4615 16.4437 56.3879 15.7219C56.3879 14.3505 56.3879 12.907 56.4615 11.5357C56.5351 10.1643 56.6823 8.7208 56.8296 7.34946C56.9032 6.6277 57.0504 5.97811 57.1976 5.32853C57.3449 4.75112 57.4921 4.10153 57.7865 3.5963C58.7435 3.885 59.6269 4.39024 60.5102 4.89547C61.3936 5.47288 62.277 6.19464 63.0867 6.9164C64.7062 8.35992 66.1785 10.02 67.4299 11.8244C67.8716 12.5461 68.2396 13.1957 68.5341 13.9897C68.3869 14.134 68.2396 14.134 68.0924 14.2062ZM70.5217 22.4343C70.1536 22.0734 69.9328 21.6403 69.7855 21.1351C69.4911 20.1246 69.4175 19.042 69.4175 17.9593C69.4175 16.8767 69.3439 15.7941 69.123 14.6392C69.123 14.5671 69.0494 14.4227 69.0494 14.3505C69.4175 14.134 69.8592 13.9175 70.2272 13.7731C70.8897 13.4844 71.5522 13.1957 72.1412 13.0514C72.2148 13.0514 72.2884 13.0514 72.2884 13.0514L72.5092 13.1235C72.6564 13.1957 72.8773 13.1957 73.0245 13.2679C73.319 13.3401 73.687 13.4844 73.9815 13.6288C74.644 13.9175 75.2329 14.2062 75.8954 14.4949C76.4844 14.7836 76.9997 15.0723 77.5149 15.4332C76.4107 17.5263 74.9385 19.4029 73.319 21.2073C72.7301 21.8569 72.0675 22.5064 71.405 23.2282C71.1842 22.9395 70.8161 22.723 70.5217 22.4343ZM62.0561 50.2943L61.1728 46.108C60.8783 44.7367 60.5839 43.3654 60.5102 41.994C60.363 40.6227 60.4366 39.2513 60.8047 37.9521C61.1728 36.653 61.8353 35.426 62.5714 34.2712C63.3812 33.1163 64.2645 32.0337 65.2215 30.9511C66.1785 29.8684 67.0618 28.7858 68.0188 27.7031C69.1966 26.404 70.3744 25.177 71.6259 23.8778C71.6259 23.8778 71.6259 23.8778 71.6259 23.95C71.6995 24.0943 71.7731 24.1665 71.7731 24.3109C71.9203 24.5274 71.9939 24.8161 72.0676 25.1048C72.2884 25.61 72.4356 26.1874 72.6565 26.6927C73.0245 27.7753 73.319 28.8579 73.6134 30.0128C74.2023 32.2502 74.7913 34.4877 75.3065 36.7251C75.8218 38.9626 76.2635 41.2001 76.4844 43.4375C76.7052 45.675 76.6316 47.9124 76.3371 50.1499C76.1899 51.1604 76.0427 52.1708 75.8218 53.1813C75.3801 54.697 74.9385 56.1405 74.4968 57.6562C74.2023 58.5945 73.9079 59.5328 73.6134 60.4711C73.2454 61.4094 72.8773 62.2755 72.5092 63.2138C71.6259 65.3069 70.6689 67.4 69.6383 69.4931C69.123 70.5036 68.6813 71.5862 68.0924 72.4523C67.7243 73.0297 67.2827 73.535 66.841 73.968L63.6756 58.5223L62.0561 50.2943ZM109.684 138.205C107.696 138.349 105.782 138.566 103.795 138.71C101.807 138.854 99.8934 138.854 97.9059 138.854C96.9489 138.854 95.9183 138.782 95.5502 138.133C95.1822 137.555 95.1822 136.545 95.2558 135.679C95.3294 134.813 95.6238 134.019 96.1391 133.369C96.6544 132.719 97.3906 132.286 98.2003 131.998C99.8934 131.348 101.807 131.204 103.721 131.132C105.635 131.059 107.549 131.132 109.537 131.204L112.481 131.276C112.997 131.276 113.438 131.276 113.954 131.276C114.174 131.276 114.469 131.204 114.69 131.204C114.837 131.204 114.911 131.132 115.058 131.059C115.058 131.059 115.131 131.059 115.131 130.987C114.984 132.214 114.837 133.513 114.763 134.74C114.69 135.895 114.763 137.05 114.763 138.205C113.217 138.06 111.451 138.06 109.684 138.205Z" fill="#272727"/>
  <path d="M114.174 193.131H114.027C113.88 210.381 110.42 227.415 109.537 244.665C108.653 261.915 110.273 279.165 111.524 296.343C112.113 304.932 112.702 313.521 112.702 322.11C112.702 324.275 112.702 326.44 112.628 328.534C112.628 330.699 112.481 332.864 112.408 334.957C112.187 339.216 111.819 343.546 111.451 347.805L110.273 360.652C109.905 364.983 109.61 369.241 109.389 373.571C109.242 377.902 109.169 382.233 109.389 386.563C109.61 390.677 109.978 394.719 110.641 398.761C106.298 399.411 101.954 399.771 97.6113 399.627C95.3293 399.555 92.9736 399.555 90.9861 398.833C89.9555 398.472 89.1458 397.895 88.4832 397.173C87.8207 396.379 87.3054 395.441 86.9373 394.43C86.2012 392.409 85.9804 390.1 85.5387 387.862C85.1706 385.625 84.7289 383.387 84.4345 381.078L83.4039 374.293C83.0358 372.056 82.815 369.746 82.4469 367.509C80.0913 349.393 78.6926 331.204 77.8093 312.944C76.9995 294.683 76.7051 276.422 76.5578 258.162L76.4843 251.305C76.4843 248.995 76.4842 246.758 76.337 244.448C76.1898 242.139 75.9689 239.829 75.4536 237.592C74.9384 235.354 74.1286 233.117 73.2452 231.024C72.4355 228.858 71.6258 226.765 70.9632 224.6C70.3743 222.435 69.859 220.197 69.5646 217.96C69.491 217.527 69.4174 217.094 69.4174 216.661C69.3437 214.928 69.2701 213.268 69.0493 211.536C69.0493 211.536 69.0493 211.536 69.0493 211.464C68.9757 209.082 69.1229 206.7 69.4174 204.318L69.491 203.957L69.1965 203.885L64.9269 202.731C63.97 202.081 62.8658 201.792 61.688 201.864L59.7004 202.081L61.6143 202.586L64.6325 203.38C65.4422 203.958 66.0311 204.751 66.5464 205.545C67.4298 207.061 67.9451 208.721 68.2395 210.453C68.2395 212.907 68.3868 215.361 68.7548 217.815C68.7548 217.96 68.8284 218.104 68.8284 218.248C68.8284 220.197 68.8285 222.074 68.7548 224.022C68.3868 232.467 67.1353 240.84 66.1784 249.212C65.7367 253.398 65.3686 257.657 65.2214 261.915C65.0742 266.173 65.2214 270.36 65.4422 274.618C65.6631 278.876 66.0311 283.063 66.3256 287.249L67.209 299.88C68.3132 316.769 69.0493 333.658 69.5646 350.547C69.859 358.992 70.0063 367.437 70.1535 375.881C70.1535 376.964 70.2271 378.046 70.0799 378.985C69.9326 379.923 69.491 380.717 68.6812 381.15C67.8715 381.583 66.8409 381.8 65.7367 382.088C64.7061 382.305 63.6755 382.521 62.5713 382.738C58.3753 383.604 54.1058 384.181 49.8362 384.542C48.8056 384.614 47.7014 384.687 46.5972 384.759C46.0819 384.759 45.6402 384.759 45.3458 384.614C45.0513 384.47 44.9041 384.181 44.7569 383.748C44.6096 383.315 44.6096 382.81 44.536 382.305L44.3152 380.717L43.9471 377.541L42.4012 364.91C41.3706 356.538 40.34 348.093 39.5303 339.721C38.7206 331.348 38.2789 322.904 37.69 314.387C37.3955 310.129 37.0274 305.942 36.5121 301.756C35.9969 297.57 35.2607 293.384 34.5246 289.198C32.9787 280.825 31.1384 272.597 29.7397 264.297C28.3411 255.997 27.0896 247.624 26.2063 239.179C25.3229 230.807 24.5868 222.362 24.1451 213.918C23.7034 205.473 23.5562 197.029 23.6298 188.584H23.4826C23.1145 205.473 23.7034 222.435 25.4701 239.324C26.3535 247.768 27.4577 256.141 28.8564 264.513C30.1814 272.886 31.9481 281.186 33.494 289.486C34.2301 293.672 34.8927 297.787 35.4079 301.973C35.9232 306.159 36.2913 310.345 36.5858 314.604C37.1747 323.048 37.5427 331.493 38.3525 339.937C39.1622 348.382 40.1928 356.754 41.2234 365.199L42.7693 377.83L43.1374 381.006L43.3582 382.594C43.4318 383.099 43.4318 383.676 43.6527 384.254C43.7263 384.542 43.8735 384.831 44.0207 385.12C44.2416 385.408 44.536 385.697 44.8305 385.841C45.493 386.202 46.1555 386.13 46.7444 386.13C47.8486 386.058 48.8792 385.986 49.9834 385.914C54.3266 385.553 58.5962 384.903 62.8658 384.037C63.8964 383.82 65.0005 383.604 66.0311 383.315C67.0617 383.027 68.1659 382.882 69.2701 382.233C69.7854 381.944 70.3007 381.511 70.5952 380.933C70.8896 380.428 71.1105 379.779 71.1841 379.201C71.3313 378.046 71.2577 377.036 71.1841 375.953C70.9632 367.509 70.7424 359.064 70.3743 350.547C69.7118 333.658 68.7548 316.769 67.6506 299.88L66.7673 287.249C66.4728 283.063 66.1047 278.804 65.8839 274.618C65.6631 270.432 65.5158 266.173 65.6631 261.987C65.8103 257.801 66.1784 253.543 66.6937 249.356C67.6506 240.984 68.9757 232.611 69.3437 224.095C69.3437 223.301 69.4174 222.579 69.4174 221.785C69.6382 222.723 69.859 223.662 70.0799 224.6C70.6688 226.837 71.4785 229.003 72.3619 231.096C73.1716 233.261 73.9814 235.354 74.4231 237.519C74.9384 239.685 75.1592 241.994 75.2328 244.232C75.3064 246.469 75.3064 248.779 75.3064 251.089V257.945C75.3064 267.112 75.38 276.206 75.5273 285.372C75.6745 294.539 75.8953 303.633 76.337 312.799C77.1468 331.06 78.4718 349.32 80.8274 367.509C81.1219 369.746 81.4163 372.056 81.7108 374.293L82.7414 381.078C83.1095 383.315 83.4775 385.625 83.8456 387.862C84.2873 390.1 84.5081 392.409 85.3179 394.647C85.6859 395.802 86.2748 396.884 87.1582 397.895C87.9679 398.833 89.1458 399.627 90.3236 399.988C91.5014 400.421 92.7528 400.638 93.9306 400.71C95.1084 400.782 96.2863 400.854 97.4641 400.854C102.175 400.926 106.887 400.638 111.524 399.844L112.26 399.699L112.113 398.978C111.377 394.791 110.935 390.461 110.714 386.202C110.567 381.944 110.567 377.613 110.714 373.355C111.083 364.766 111.966 356.177 112.702 347.588C113.07 343.257 113.365 338.999 113.585 334.669C113.659 332.503 113.733 330.338 113.806 328.173C113.88 326.007 113.806 323.842 113.806 321.677C113.733 313.016 113.144 304.427 112.408 295.838C111.083 278.66 109.316 261.482 110.126 244.232C111.009 227.487 114.174 210.381 114.174 193.131ZM67.209 205.545C66.9145 205.04 66.5464 204.535 66.1784 204.102L68.6076 204.751C68.4604 205.906 68.3868 206.989 68.3132 208.144C68.0187 207.278 67.6506 206.411 67.209 205.545Z" fill="#272727"/>
</svg>
